<svg xmlns="http://www.w3.org/2000/svg" width="101" height="101" viewBox="0 0 101 101">
  <g id="Grupo_909122" data-name="Grupo 909122" transform="translate(-750 -751)">
    <g id="Grupo_909119" data-name="Grupo 909119">
      <circle id="Elipse_1142" data-name="Elipse 1142" cx="50.5" cy="50.5" r="50.5" transform="translate(750 751)" fill="#179587"/>
      <path id="Trazado_640404" data-name="Trazado 640404" d="M354.737,1192.073l-.733.816-.238.19a2.564,2.564,0,0,1,.644.347q5.687,5.663,11.355,11.345c.89.89.886,1.291-.017,2.2-.7.7-1.4,1.406-2.1,2.1a1.11,1.11,0,0,1-1.865,0c-2.649-2.644-5.293-5.293-8-8v10.609c.89,0,1.826,0,2.761,0,1.078,0,1.417.338,1.412,1.421a17.746,17.746,0,0,1-.058,2.44,5.236,5.236,0,0,1-5.338,4.593q-8.355.016-16.71,0c-6.869,0-13.739-.081-20.606.034a5.662,5.662,0,0,1-5.939-5.97c.086-14.665.036-29.332.036-44v-.808h-.779q-3.137,0-6.274,0c-1.049,0-1.4-.342-1.4-1.368,0-2.665-.008-5.329,0-7.994a5.269,5.269,0,0,1,5.406-5.435q19.947-.011,39.893,0a7.375,7.375,0,0,1,7.541,7.569c.013,6.3,0,12.6.02,18.894a1.512,1.512,0,0,0,.391.957c1.767,1.814,3.568,3.594,5.356,5.386.794.8.789,1.246-.017,2.056q-1.235,1.24-2.475,2.476C356.08,1192.851,355.81,1192.872,354.737,1192.073Zm-12.343,8.737-5.02-5.057c-.764-.77-.761-1.223.017-2s1.587-1.588,2.38-2.381c1.059-1.059,1.158-1.072,2.269-.367l5.841-5.838c-.715-.872-.693-1.205.157-2.065s1.692-1.725,2.538-2.588l1.034-.7c0-5.987.025-12.013-.012-18.039a4.95,4.95,0,0,0-4.25-4.912c-2.392-.242-4.824-.1-7.238-.123-.219-.012-.438-.035-.658-.035q-14.231,0-28.462,0h-.609a6.3,6.3,0,0,1,1.083,4.1q-.021,21.235-.007,42.471c0,.285.025.57.038.855-.009,3.676-.067,7.353-.005,11.027a3.091,3.091,0,0,0,3.223,2.859,3.18,3.18,0,0,0,3.073-2.967c.033-.593.01-1.189.011-1.783,0-1.312.277-1.59,1.578-1.59h32.242c0-4.218,0-8.355-.006-12.491a.665.665,0,0,0-.138-.414c-.529-.583-1.078-1.149-1.6-1.7l-.908.879c.76.965.736,1.279-.162,2.178-.871.872-1.738,1.749-2.617,2.615a1.1,1.1,0,0,1-1.821.006C343.707,1202.106,343.052,1201.456,342.394,1200.81Zm-23.517,17.183c.2.012.288.022.375.022q16.677,0,33.354,0a3.257,3.257,0,0,0,3.148-4.167H319.886A5.913,5.913,0,0,1,318.877,1217.993Zm-15.865-50.776h6.324c0-2.542.037-5.029-.013-7.514a3.154,3.154,0,0,0-6.288-.168C302.951,1162.082,303.012,1164.633,303.012,1167.218Zm50.1,23.31-3.555-3.558-5.73,5.735,3.557,3.552Zm-1.7,4.891,11.343,11.344.945-.788-11.4-11.4Zm5.993-6.922-5.763-5.777-1.462,1.436,5.787,5.79Zm-12.128,11.981,1.449-1.466-5.7-5.708-1.477,1.434Z" transform="translate(470.25 -386.767)" fill="#020101"/>
      <path id="Trazado_640405" data-name="Trazado 640405" d="M394.909,1190.4c-.846.863-1.688,1.729-2.538,2.588s-.871,1.192-.157,2.065l-5.841,5.838c-1.111-.7-1.21-.692-2.269.367q-1.19,1.191-2.38,2.381c-.778.781-.782,1.234-.017,2l5.02,5.057a1.224,1.224,0,0,1-.136.222,23.832,23.832,0,0,1-12.118,6.917,14.245,14.245,0,0,1-2.031.177c.146-.1.293-.194.436-.3a9.513,9.513,0,1,0-12.508-1.394c-.881-.406-1.773-.789-2.639-1.224-.652-.327-1.271-.721-1.9-1.085-.013-.285-.038-.57-.038-.855q0-21.236.007-42.471a6.3,6.3,0,0,0-1.083-4.1h.609q14.231,0,28.462,0c.219,0,.438.023.658.035a1.156,1.156,0,0,0,.157.271c1.011.988,2.038,1.959,3.033,2.963a6.2,6.2,0,0,1,.649.945H359v2.127h.756q14.759,0,29.517,0c.285,0,.57.025.855.038l1.06,2.053c-.264.007-.527.021-.791.021H359v2.114h.756q15.914,0,31.828,0c.263,0,.526.021.79.032l.664,2.062c-.242.006-.484.018-.725.018H359v2.113h34.837a1.454,1.454,0,0,0,.011.327A33.366,33.366,0,0,1,394.909,1190.4Zm-1.09-6.855H359v2.038h34.822Zm-34.845,6.267H393.8v-2.04H358.975Zm0,4.227h30.594V1192H358.975Zm0,4.23h28.481v-2.04H358.975Z" transform="translate(425.917 -396.652)" fill="#f0eeea"/>
      <path id="Trazado_640406" data-name="Trazado 640406" d="M360.868,1402.422c.633.364,1.252.757,1.9,1.085.866.435,1.758.818,2.639,1.224a13.548,13.548,0,0,0,1.109,1.026,9.365,9.365,0,0,0,10.962.663,14.227,14.227,0,0,0,2.031-.177,23.831,23.831,0,0,0,12.118-6.917,1.221,1.221,0,0,0,.136-.222c.658.647,1.313,1.3,1.974,1.939a1.1,1.1,0,0,0,1.821-.006c.878-.866,1.745-1.742,2.617-2.615.9-.9.922-1.213.162-2.178l.908-.879c.518.547,1.067,1.113,1.6,1.7a.664.664,0,0,1,.138.414c.007,4.137.006,8.273.006,12.492H368.747c-1.3,0-1.577.278-1.578,1.59,0,.594.022,1.19-.011,1.783a3.18,3.18,0,0,1-3.073,2.967,3.091,3.091,0,0,1-3.223-2.859C360.8,1409.775,360.859,1406.1,360.868,1402.422Zm35.869,3.317c-1.365,0-2.68,0-4,0a2.111,2.111,0,0,1-2.315-2.086,1.072,1.072,0,0,0-.771-1.035.979.979,0,0,0-1.194.467,5.117,5.117,0,0,1-4.349,2.669v2.094a7.11,7.11,0,0,0,4.828-1.947,4.113,4.113,0,0,0,3.046,1.9c1.57.1,3.15.023,4.751.023Z" transform="translate(420.877 -585.062)" fill="#acaaa5"/>
      <path id="Trazado_640407" data-name="Trazado 640407" d="M402.863,1494.572a5.912,5.912,0,0,0,1.009-4.149H439.74a3.257,3.257,0,0,1-3.148,4.167q-16.677.014-33.354,0C403.151,1494.594,403.064,1494.584,402.863,1494.572Z" transform="translate(386.264 -663.346)" fill="#73716e"/>
      <path id="Trazado_640408" data-name="Trazado 640408" d="M533.659,1190.473a33.368,33.368,0,0,0-1.063-8.682,1.454,1.454,0,0,1-.011-.327v-2.094l-.8-.037-.664-2.062,1.421-.064V1175.1h-2.607l-1.06-2.053h3.668v-2.166h-5.511a6.21,6.21,0,0,0-.649-.945c-1-1-2.023-1.975-3.033-2.963a1.156,1.156,0,0,1-.157-.271c2.414.025,4.846-.12,7.238.123a4.95,4.95,0,0,1,4.25,4.912c.037,6.026.012,12.052.012,18.039Z" transform="translate(287.167 -396.729)" fill="#acaaa5"/>
      <path id="Trazado_640409" data-name="Trazado 640409" d="M312.852,1177.109c0-2.584-.061-5.135.022-7.682a3.154,3.154,0,0,1,6.288.168c.05,2.485.013,4.971.013,7.514Z" transform="translate(460.41 -396.658)" fill="#73716e"/>
      <path id="Trazado_640410" data-name="Trazado 640410" d="M553.552,1341.672l-5.727,5.729-3.557-3.552,5.73-5.735Z" transform="translate(269.811 -537.91)" fill="#be8758"/>
      <path id="Trazado_640411" data-name="Trazado 640411" d="M587.223,1382.06l.888-.844,11.4,11.4-.945.788Z" transform="translate(234.435 -573.408)" fill="#bd8758"/>
      <path id="Trazado_640412" data-name="Trazado 640412" d="M587.465,1319.807l-1.438,1.45-5.787-5.79,1.462-1.436Z" transform="translate(240.185 -518.077)" fill="#bd8758"/>
      <path id="Trazado_640413" data-name="Trazado 640413" d="M525.7,1381.183l-5.732-5.74,1.477-1.434,5.7,5.708Z" transform="translate(289.826 -567.473)" fill="#bd8758"/>
      <path id="Trazado_640414" data-name="Trazado 640414" d="M387.293,1375.83a9.365,9.365,0,0,1-10.962-.663,13.539,13.539,0,0,1-1.109-1.026,9.508,9.508,0,1,1,12.508,1.394C387.586,1375.637,387.438,1375.732,387.293,1375.83Zm2.368-8.1a7.4,7.4,0,1,0-7.38,7.416A7.425,7.425,0,0,0,389.661,1367.732Z" transform="translate(411.066 -554.472)" fill="#030303"/>
      <path id="Trazado_640415" data-name="Trazado 640415" d="M408.271,1190.48h5.511v2.166h-3.668c-.285-.013-.57-.038-.855-.038q-14.759,0-29.517,0h-.756v-2.127Z" transform="translate(405.928 -416.327)"/>
      <path id="Trazado_640416" data-name="Trazado 640416" d="M411.176,1214.392h2.607v2.106l-1.421.064c-.263-.011-.526-.032-.79-.032q-15.914,0-31.828,0h-.756v-2.114h31.4C410.648,1214.413,410.912,1214.4,411.176,1214.392Z" transform="translate(405.926 -436.021)"/>
      <path id="Trazado_640417" data-name="Trazado 640417" d="M413.032,1238.377l.8.037v2.094H378.995V1238.4h33.312C412.549,1238.394,412.79,1238.383,413.032,1238.377Z" transform="translate(405.921 -455.773)"/>
      <path id="Trazado_640418" data-name="Trazado 640418" d="M413.813,1262.661v2.038H378.991v-2.038Z" transform="translate(405.924 -475.772)"/>
      <path id="Trazado_640419" data-name="Trazado 640419" d="M378.86,1288.659v-2.04h34.822v2.04Z" transform="translate(406.032 -495.503)"/>
      <path id="Trazado_640420" data-name="Trazado 640420" d="M378.86,1312.628v-2.037h30.594v2.037Z" transform="translate(406.032 -515.245)"/>
      <path id="Trazado_640421" data-name="Trazado 640421" d="M378.86,1336.588v-2.04h28.481v2.04Z" transform="translate(406.032 -534.975)"/>
      <path id="Trazado_640422" data-name="Trazado 640422" d="M505.379,1439.331v2.084c-1.6,0-3.182.075-4.751-.023a4.113,4.113,0,0,1-3.046-1.9,7.11,7.11,0,0,1-4.828,1.947v-2.094a5.117,5.117,0,0,0,4.349-2.669.979.979,0,0,1,1.194-.467,1.072,1.072,0,0,1,.771,1.035,2.111,2.111,0,0,0,2.315,2.086C502.7,1439.334,504.014,1439.331,505.379,1439.331Z" transform="translate(312.234 -618.653)" fill="#020202"/>
      <path id="Trazado_640423" data-name="Trazado 640423" d="M399.558,1377.671a7.4,7.4,0,1,1-7.414-7.381A7.428,7.428,0,0,1,399.558,1377.671Zm-2.113.037a5.284,5.284,0,1,0-5.32,5.266A5.3,5.3,0,0,0,397.445,1377.708Z" transform="translate(401.169 -564.41)" fill="#b27567"/>
      <path id="Trazado_640424" data-name="Trazado 640424" d="M407.308,1387.573a5.284,5.284,0,1,1-5.28-5.3A5.3,5.3,0,0,1,407.308,1387.573Zm-5.264,3.151a3.17,3.17,0,1,0-3.189-3.184A3.187,3.187,0,0,0,402.044,1390.724Z" transform="translate(391.306 -574.275)" fill="#030202"/>
      <path id="Trazado_640425" data-name="Trazado 640425" d="M411.913,1400.595a3.17,3.17,0,1,1,3.149-3.158A3.186,3.186,0,0,1,411.913,1400.595Z" transform="translate(381.437 -584.146)" fill="#ef9d8a"/>
    </g>
  </g>
</svg>
