<svg xmlns="http://www.w3.org/2000/svg" width="101" height="101" viewBox="0 0 101 101">
  <g id="Grupo_909124" data-name="Grupo 909124" transform="translate(-750 -1173)">
    <path id="Trazado_640386" data-name="Trazado 640386" d="M-255.97,863.251h-.812a1.681,1.681,0,0,1-.968-1.353c.2-.914.673-1.371,1.41-1.353.711.018,1.152.464,1.341,1.353A1.672,1.672,0,0,1-255.97,863.251Z" transform="translate(1054.912 394.067)" fill="#070707"/>
    <path id="Trazado_640398" data-name="Trazado 640398" d="M-207.7,539.187c-.45,0-.9.02-1.35,0a1.349,1.349,0,0,1-1.318-1.351,1.336,1.336,0,0,1,1.325-1.341q1.383-.042,2.768,0a1.334,1.334,0,0,1,1.317,1.348,1.346,1.346,0,0,1-1.324,1.344C-206.751,539.207-207.225,539.187-207.7,539.187Z" transform="translate(1016.08 659.641)" fill="#030303"/>
    <path id="Trazado_640399" data-name="Trazado 640399" d="M-162.655,536.514c.45,0,.9-.017,1.35,0a1.349,1.349,0,0,1,1.348,1.321,1.341,1.341,0,0,1-1.36,1.376q-1.35.036-2.7,0a1.34,1.34,0,0,1-1.349-1.32,1.352,1.352,0,0,1,1.361-1.377C-163.556,536.5-163.106,536.514-162.655,536.514Z" transform="translate(979.205 659.609)" fill="#030303"/>
    <path id="Trazado_640400" data-name="Trazado 640400" d="M-242.622,737.415a1.365,1.365,0,0,1,1.3-1.373,1.363,1.363,0,0,1,1.406,1.331,1.364,1.364,0,0,1-1.3,1.373A1.367,1.367,0,0,1-242.622,737.415Z" transform="translate(1042.514 496.096)" fill="#070707"/>
    <g id="Grupo_909121" data-name="Grupo 909121">
      <circle id="Elipse_1147" data-name="Elipse 1147" cx="50.5" cy="50.5" r="50.5" transform="translate(750 1173)" fill="#179587"/>
      <path id="Trazado_640385" data-name="Trazado 640385" d="M-345.418,560.856h-19.5a1.692,1.692,0,0,1-.967-1.353c.224-1.026.626-1.354,1.685-1.354q8.122,0,16.244,0h.773c0-2.218.008-4.379-.014-6.539a.966.966,0,0,0-.32-.55c-1.043-1.062-2.1-2.111-3.154-3.164q-6.15-6.15-12.3-12.3c-.88-.881-.874-1.535.009-2.426.492-.5.984-.994,1.484-1.483a6.757,6.757,0,0,1,9.943.029c.879.874,1.742,1.765,2.649,2.685.373-.4.69-.779,1.046-1.117a2.177,2.177,0,0,0,.674-1.731q-.036-18.275-.017-36.55v-.721H-383.6v.7q0,4.23,0,8.461c0,1.151-.491,1.632-1.656,1.635q-2.707.005-5.415,0h-3.709v53.071c5.825,0,11.6,0,17.376,0,1.06,0,1.464.33,1.684,1.354a1.682,1.682,0,0,1-.968,1.353h-20.85v-57.54c.287-.338.553-.7.865-1.011q4.967-4.984,9.949-9.951c.3-.3.642-.546.965-.817h39.939a1.868,1.868,0,0,1,.962,1.879q-.031,17.385-.014,34.771v.7l.258.089c1.176-2.013,2.411-3.994,3.512-6.047a7.043,7.043,0,0,1,6.874-3.742,6.883,6.883,0,0,1,5.875,5.39,1.218,1.218,0,0,0,.132.27v2.3a4.548,4.548,0,0,0-.26.577,6.585,6.585,0,0,1-3.48,4.271,51.464,51.464,0,0,0-10.408,7.093c-.389.324-.746.687-1.247,1.151,1.132,1.072,2.261,2.019,3.245,3.1a6.651,6.651,0,0,1,.038,8.882c-.686.776-1.432,1.5-2.179,2.22a1.325,1.325,0,0,1-1.987.024c-.095-.079-.184-.165-.375-.336,0,1.721-.035,3.312.014,4.9A1.787,1.787,0,0,1-345.418,560.856Zm-14.768-26.6,17.217,17.222c.247-.249.572-.561.878-.891a3.96,3.96,0,0,0,.007-5.562c-3.861-3.917-7.764-7.792-11.662-11.672a3.848,3.848,0,0,0-2.752-1.1A4.685,4.685,0,0,0-360.186,534.253Zm15.162,3.895a1.037,1.037,0,0,0,.171-.1,54.163,54.163,0,0,1,12.121-8.5,3.915,3.915,0,0,0,2.19-3.5,4.076,4.076,0,0,0-3.034-4.055,4.265,4.265,0,0,0-4.713,2.183c-1.334,2.289-2.7,4.568-4.221,6.737-1.324,1.893-2.874,3.628-4.3,5.407ZM-386.335,496.5l-5.833,5.834h5.833Z" transform="translate(1169.136 696.462)" fill="#020202"/>
      <path id="Trazado_640387" data-name="Trazado 640387" d="M-353.361,571.957H-356.7c-.188-.889-.63-1.335-1.341-1.353-.737-.018-1.213.438-1.41,1.353H-362.8c-.22-1.024-.623-1.354-1.684-1.354-5.776,0-11.551,0-17.376,0V517.531h3.709q2.707,0,5.415,0c1.165,0,1.655-.484,1.656-1.635q.005-4.23,0-8.461v-.7h36.418v.721q0,18.275.017,36.55a2.177,2.177,0,0,1-.674,1.731c-.356.338-.673.716-1.046,1.117-.907-.92-1.769-1.811-2.649-2.685a6.757,6.757,0,0,0-9.943-.029c-.5.489-.992.986-1.484,1.483-.883.891-.889,1.545-.009,2.426q6.147,6.153,12.3,12.3c1.053,1.053,2.11,2.1,3.154,3.164a.966.966,0,0,1,.32.55c.022,2.16.014,4.32.014,6.539h-.773q-8.122,0-16.244,0C-352.735,570.6-353.137,570.931-353.361,571.957Zm-4.916-42.783q9.608,0,19.217,0c1.216,0,1.692-.469,1.694-1.664q.005-2.4,0-4.8c0-1.164-.483-1.653-1.636-1.653q-19.284,0-38.569,0c-1.149,0-1.626.491-1.628,1.662q-.005,2.334,0,4.669c0,1.348.438,1.79,1.774,1.79Zm-1.061,32.493a6.907,6.907,0,0,0,7.955,5.3,6.873,6.873,0,0,0,5.487-6.56,6.854,6.854,0,0,0-5.365-6.728,6.906,6.906,0,0,0-8.086,5.279c-2.2,0-4.408.007-6.615,0a1.47,1.47,0,0,0-1.389.661,1.348,1.348,0,0,0,1.264,2.048C-363.835,561.679-361.582,561.667-359.338,561.667Zm1.063-27.078h19.08a4.518,4.518,0,0,0,.676-.019,1.358,1.358,0,0,0,1.151-1.375,1.357,1.357,0,0,0-1.164-1.3,4.837,4.837,0,0,0-.676-.017h-38.16a5.372,5.372,0,0,0-.608.011,1.359,1.359,0,0,0-1.219,1.315,1.358,1.358,0,0,0,1.232,1.371,6.287,6.287,0,0,0,.676.01Zm-.061,5.416h19.08a4.992,4.992,0,0,0,.743-.02,1.356,1.356,0,0,0,1.145-1.312,1.357,1.357,0,0,0-1.17-1.358,4.366,4.366,0,0,0-.608-.016h-38.3c-.158,0-.317-.007-.473.006a1.359,1.359,0,0,0-1.28,1.326,1.358,1.358,0,0,0,1.238,1.365,5.743,5.743,0,0,0,.609.01Zm-8.206,2.708h-9.131c-.744,0-1.489-.022-2.232.011a1.334,1.334,0,0,0-1.291,1.31,1.358,1.358,0,0,0,1.294,1.38c.179.015.361.006.541.006h21.51a5.258,5.258,0,0,0,.608-.011,1.364,1.364,0,0,0,1.192-1.647,1.406,1.406,0,0,0-1.533-1.048Q-361.063,542.709-366.542,542.712Zm-2.78,5.415q-4.125,0-8.25,0c-.993,0-1.606.508-1.623,1.325-.017.841.614,1.381,1.635,1.381q8.251,0,16.5,0c.993,0,1.6-.508,1.622-1.326.018-.841-.613-1.379-1.635-1.38Q-365.2,548.125-369.322,548.128Zm12.98-33.308c.473,0,.946.021,1.418,0a1.347,1.347,0,0,0,1.31-1.357,1.334,1.334,0,0,0-1.331-1.335c-.922-.027-1.846-.029-2.768,0a1.335,1.335,0,0,0-1.311,1.354,1.35,1.35,0,0,0,1.332,1.338C-357.243,514.84-356.792,514.821-356.342,514.82Zm8.109,0c.473,0,.946.02,1.418,0a1.346,1.346,0,0,0,1.324-1.344,1.334,1.334,0,0,0-1.317-1.348q-1.383-.043-2.768,0a1.336,1.336,0,0,0-1.325,1.341,1.349,1.349,0,0,0,1.318,1.351C-349.134,514.841-348.683,514.82-348.233,514.82Zm8.167-2.7c-.45,0-.9-.016-1.35,0a1.352,1.352,0,0,0-1.361,1.377,1.34,1.34,0,0,0,1.349,1.32q1.349.038,2.7,0a1.341,1.341,0,0,0,1.36-1.376,1.349,1.349,0,0,0-1.348-1.321C-339.165,512.1-339.616,512.116-340.066,512.116ZM-356.723,549.5a1.367,1.367,0,0,0,1.407,1.331,1.365,1.365,0,0,0,1.3-1.373,1.363,1.363,0,0,0-1.406-1.331A1.365,1.365,0,0,0-356.723,549.5Z" transform="translate(1156.616 684.008)" fill="#edf9fe"/>
      <path id="Trazado_640388" data-name="Trazado 640388" d="M-192.444,719.08a4.685,4.685,0,0,1,3.688-2,3.848,3.848,0,0,1,2.752,1.1c3.9,3.88,7.8,7.755,11.662,11.672a3.96,3.96,0,0,1-.007,5.562c-.306.33-.631.641-.878.891Z" transform="translate(1001.394 511.635)" fill="#fd7a78"/>
      <path id="Trazado_640389" data-name="Trazado 640389" d="M-116.579,675.832l-1.79-1.83c1.429-1.779,2.979-3.514,4.3-5.407,1.517-2.169,2.887-4.448,4.221-6.737a4.265,4.265,0,0,1,4.713-2.183,4.076,4.076,0,0,1,3.034,4.055,3.915,3.915,0,0,1-2.19,3.5,54.161,54.161,0,0,0-12.121,8.5A1.04,1.04,0,0,1-116.579,675.832Z" transform="translate(940.691 558.777)" fill="#fcd88d"/>
      <path id="Trazado_640390" data-name="Trazado 640390" d="M-363.785,519.022v5.834h-5.833Z" transform="translate(1146.585 673.939)" fill="#edf9fe"/>
      <path id="Trazado_640391" data-name="Trazado 640391" d="M-346.217,594.16h-19.149c-1.335,0-1.773-.443-1.774-1.79q0-2.334,0-4.669c0-1.172.479-1.662,1.628-1.662q19.284,0,38.569,0c1.153,0,1.634.489,1.636,1.653q.005,2.4,0,4.8c0,1.2-.479,1.664-1.694,1.664Q-336.609,594.162-346.217,594.16Zm18.181-5.371h-24.706v2.618h24.706Zm-27.5,2.635v-2.639h-8.853v2.639Z" transform="translate(1144.556 619.021)"/>
      <path id="Trazado_640392" data-name="Trazado 640392" d="M-294.444,774.164c-2.244,0-4.5.012-6.75,0a1.348,1.348,0,0,1-1.264-2.048,1.47,1.47,0,0,1,1.389-.661c2.208.012,4.416,0,6.615,0a6.906,6.906,0,0,1,8.086-5.279A6.854,6.854,0,0,1-281,772.9a6.873,6.873,0,0,1-5.487,6.56A6.907,6.907,0,0,1-294.444,774.164Zm2.917,0a3.953,3.953,0,0,0,4.294,2.677,4.088,4.088,0,0,0,3.523-4.07,4.088,4.088,0,0,0-3.6-4,3.936,3.936,0,0,0-4.215,2.687c1.178,0,2.344,0,3.509,0,.979,0,1.6.534,1.594,1.355s-.618,1.346-1.6,1.35C-289.183,774.168-290.347,774.163-291.527,774.163Z" transform="translate(1091.722 471.512)" fill="#020202"/>
      <path id="Trazado_640393" data-name="Trazado 640393" d="M-346.191,648.733H-365.2a6.287,6.287,0,0,1-.676-.01,1.358,1.358,0,0,1-1.232-1.371,1.359,1.359,0,0,1,1.219-1.315,5.372,5.372,0,0,1,.608-.011h38.16a4.837,4.837,0,0,1,.676.017,1.357,1.357,0,0,1,1.164,1.3,1.358,1.358,0,0,1-1.151,1.375,4.518,4.518,0,0,1-.676.019Z" transform="translate(1144.531 569.864)"/>
      <path id="Trazado_640394" data-name="Trazado 640394" d="M-346.252,678.737h-19.013a5.743,5.743,0,0,1-.609-.01,1.358,1.358,0,0,1-1.238-1.365,1.359,1.359,0,0,1,1.28-1.326c.157-.014.316-.006.473-.006h38.3a4.366,4.366,0,0,1,.608.016,1.357,1.357,0,0,1,1.17,1.358,1.356,1.356,0,0,1-1.145,1.312,4.992,4.992,0,0,1-.743.02Z" transform="translate(1144.531 545.276)"/>
      <path id="Trazado_640395" data-name="Trazado 640395" d="M-354.459,706.006q5.479,0,10.958,0a1.406,1.406,0,0,1,1.533,1.048,1.364,1.364,0,0,1-1.192,1.647,5.258,5.258,0,0,1-.608.011h-21.51c-.18,0-.362.008-.541-.006a1.358,1.358,0,0,1-1.294-1.38,1.334,1.334,0,0,1,1.291-1.31c.743-.033,1.488-.011,2.232-.011Z" transform="translate(1144.533 520.715)" fill="#010101"/>
      <path id="Trazado_640396" data-name="Trazado 640396" d="M-357.239,736.034q4.126,0,8.251,0c1.022,0,1.652.539,1.635,1.38-.017.818-.63,1.325-1.622,1.326q-8.251,0-16.5,0c-1.022,0-1.653-.54-1.635-1.381.017-.817.63-1.324,1.623-1.325Q-361.364,736.031-357.239,736.034Z" transform="translate(1144.533 496.102)" fill="#010101"/>
      <path id="Trazado_640397" data-name="Trazado 640397" d="M-252.684,539.187c-.45,0-.9.019-1.35,0a1.35,1.35,0,0,1-1.332-1.338,1.335,1.335,0,0,1,1.311-1.354c.922-.03,1.846-.028,2.768,0a1.334,1.334,0,0,1,1.331,1.335,1.347,1.347,0,0,1-1.31,1.357C-251.737,539.208-252.211,539.187-252.684,539.187Z" transform="translate(1052.957 659.642)" fill="#030303"/>
      <path id="Trazado_640401" data-name="Trazado 640401" d="M-262.667,601.286V603.9h-24.706v-2.618Z" transform="translate(1079.187 606.525)" fill="#9ac4fe"/>
      <path id="Trazado_640402" data-name="Trazado 640402" d="M-343.02,603.9h-8.853v-2.639h8.853Z" transform="translate(1132.044 606.546)" fill="#858fa5"/>
    </g>
    <path id="Trazado_640403" data-name="Trazado 640403" d="M-240.945,786.423c1.179,0,2.343,0,3.507,0,.982,0,1.6-.53,1.6-1.35s-.614-1.35-1.594-1.355c-1.165-.005-2.331,0-3.509,0a3.936,3.936,0,0,1,4.215-2.687,4.088,4.088,0,0,1,3.6,4,4.088,4.088,0,0,1-3.523,4.07A3.953,3.953,0,0,1-240.945,786.423Z" transform="translate(1041.14 459.252)" fill="#fb7977"/>
  </g>
</svg>
