<svg xmlns="http://www.w3.org/2000/svg" width="134" height="134" viewBox="0 0 134 134">
  <g id="Grupo_909123" data-name="Grupo 909123" transform="translate(-554.798 -2177.406)">
    <circle id="Elipse_7380" data-name="Elipse 7380" cx="67" cy="67" r="67" transform="translate(554.798 2177.406)" fill="#222b5a"/>
    <g id="Grupo_906665" data-name="Grupo 906665" transform="translate(-924.16 1599.16)">
      <path id="Trazado_640571" data-name="Trazado 640571" d="M1502.16,640.12c.185-.806.378-1.61.553-2.418a51.052,51.052,0,0,1,3.154-10.176,41.019,41.019,0,0,1,5.442-9.007,51.4,51.4,0,0,1,5.678-6,39.969,39.969,0,0,1,6.124-4.528A44.015,44.015,0,0,1,1540.3,602.1a42.646,42.646,0,0,1,15.795,1.06,39.1,39.1,0,0,1,9.724,3.778c1.322.736,1.283,1.632.153,2.611-.834.722-1.585,1.539-2.358,2.329q-2.628,2.685-5.24,5.386a2.054,2.054,0,0,1-2.547.221c-5.169-2.211-10.56-2.221-15.95-1.367a27.456,27.456,0,0,0-9.122,3.416,28.837,28.837,0,0,0-12.416,13.852,28.976,28.976,0,0,0-2.364,13.992,23.04,23.04,0,0,0,2.343,9.555c.851,1.6,1.557,3.292,2.51,4.83a23.316,23.316,0,0,0,2.693,3.331,39,39,0,0,0,3.33,3.293,21.033,21.033,0,0,0,3.124,2.18,30.041,30.041,0,0,0,17.159,4.338,32.682,32.682,0,0,0,8.414-1.779,28.658,28.658,0,0,0,8.956-5.084,28.21,28.21,0,0,0,5.566-6.162,30.8,30.8,0,0,0,5.159-15.253c-1.364,0-2.7.058-4.024-.027-.559-.036-1.415-.241-1.571-.608a2.3,2.3,0,0,1,.193-1.888c1.781-2.654,3.676-5.232,5.527-7.839,1.546-2.177,3.13-4.33,4.613-6.549,1.219-1.825,2.032-1.937,3.3-.186,1.773,2.452,3.479,4.953,5.234,7.419,1.881,2.643,3.784,5.27,5.678,7.9v.985a7.6,7.6,0,0,1-1.893.754,29.879,29.879,0,0,1-3.376.034c-.02.418-.009.742-.052,1.059a79.021,79.021,0,0,1-1.221,8.256,37.483,37.483,0,0,1-5.279,12.265c-1.507,2.2-3.125,4.325-4.767,6.425a17.407,17.407,0,0,1-2.342,2.345c-1.1.959-2.252,1.869-3.424,2.742a45.908,45.908,0,0,1-4.634,3.263c-1.717.975-3.625,1.607-5.4,2.487a34.224,34.224,0,0,1-10.958,2.887,42.679,42.679,0,0,1-25.314-4.539,37.619,37.619,0,0,1-8.149-5.514,72.61,72.61,0,0,1-5.7-5.866,28.407,28.407,0,0,1-3.113-4.28c-.995-1.667-1.73-3.488-2.642-5.209-1.644-3.1-2.363-6.5-3.153-9.867-.21-.9-.4-1.807-.593-2.711v-1.773l.162-.98v-4.739l-.162-.98Zm25.48,32.454-.253-.158.011.007L1526.8,672l-.155-.179c-.264-.237-.518-.487-.793-.71a25.13,25.13,0,0,1-3.155-2.592,53.664,53.664,0,0,1-4.355-5.6,32.224,32.224,0,0,1-2.946-5.377,31.6,31.6,0,0,1-2.47-12.041,32.037,32.037,0,0,1,2.243-11.988,31.254,31.254,0,0,1,3.19-6.143,32.714,32.714,0,0,1,4.814-5.728c1.112-1.041,2.312-1.988,3.472-2.976l.155-.18.594-.421-.01.007.288-.181c1.6-.791,3.206-1.558,4.79-2.374a28.626,28.626,0,0,1,11.85-2.765,33.381,33.381,0,0,1,11.8,1.66c.48.337.822.249,1.232-.207.841-.933,1.774-1.782,2.657-2.678.945-.957,1.876-1.928,2.885-2.967l-1.419-.568c-.631-.233-1.281-.426-1.891-.707a32.712,32.712,0,0,0-9.116-2.24,38.826,38.826,0,0,0-13.3.55,43.49,43.49,0,0,0-12.278,4.742,31.239,31.239,0,0,0-4.527,3.245,45.622,45.622,0,0,0-5.521,5.2,58.2,58.2,0,0,0-4.676,6.832,33.964,33.964,0,0,0-4.126,10.514,40.949,40.949,0,0,0-.339,16.777,39.677,39.677,0,0,0,5.069,13.278,39.146,39.146,0,0,0,7.532,9.066,42.749,42.749,0,0,0,7.424,5.376,69.835,69.835,0,0,0,6.624,2.9,27.454,27.454,0,0,0,10.144,2.057,81.775,81.775,0,0,0,9.41-.374,32.882,32.882,0,0,0,11.366-3.515c.812-.385,1.578-.867,2.365-1.3l.4-.261.961-.578.6-.414.207-.126c1.988-1.549,4-3.074,5.954-4.659a13.52,13.52,0,0,0,1.911-1.941c.927-1.129,1.827-2.286,2.648-3.492a42.385,42.385,0,0,0,3.349-5.276,64.143,64.143,0,0,0,2.745-7.1,30.941,30.941,0,0,0,1.611-11.3c.213-1.089.577-1.318,2.245-1.406h1.636c-2.763-3.888-5.452-7.669-8.2-11.535l-.728,1.122-7.53,10.444c1.121,0,1.932,0,2.742,0,1.417.008,1.825.419,1.822,1.8a31.364,31.364,0,0,1-5.531,17.789,32.065,32.065,0,0,1-12.369,10.892,30.909,30.909,0,0,1-10.358,3.161,33.719,33.719,0,0,1-13.344-1,27.429,27.429,0,0,1-7.677-3.4,4.007,4.007,0,0,0-.716-.3l-.387-.254Z" transform="translate(0)" fill="#040403"/>
      <path id="Trazado_640572" data-name="Trazado 640572" d="M1547.579,652.076c.6-.635,1.513-1.6,2.438-2.556q1.5-1.538,3.022-3.048c.993-.984,2.021-1.932,3-2.932.882-.906,1.676-1.9,2.575-2.786q1.7-1.676,3.52-3.235a5.446,5.446,0,0,1,6.542-.007,5.842,5.842,0,0,1,1.6,7.835,17.108,17.108,0,0,1-2.672,2.954c-1.023,1.044-2.1,2.031-3.138,3.065q-1.722,1.72-3.4,3.48c-.989,1.032-1.952,2.089-2.935,3.128-.691.73-1.369,1.477-2.1,2.164-1.988,1.867-3.937,3.782-6.024,5.532-1.6,1.339-4.7,1.04-6.2-.393-1.718-1.635-3.459-3.246-5.138-4.919-1.775-1.768-3.487-3.6-5.23-5.4-.747-.771-1.493-1.543-2.262-2.292a5.527,5.527,0,0,1-1.168-5.822,6.058,6.058,0,0,1,6.226-3.676,6.126,6.126,0,0,1,3.841,2.108,44.534,44.534,0,0,0,3.3,3.177C1544.725,649.674,1546.131,650.837,1547.579,652.076Zm-11.745-5.939a2.544,2.544,0,0,0-2.711,1.111,2.64,2.64,0,0,0-.218,2.961,15.281,15.281,0,0,0,1.995,2.254c.922.953,1.887,1.864,2.822,2.805,1.075,1.082,2.134,2.181,3.205,3.265,1,1.011,2.009,2.011,3.008,3.023s1.91,2.1,3.533,1.923a3.324,3.324,0,0,0,1.176-.379c1.178-1.006,2.316-2.064,3.428-3.144,1.071-1.041,2.083-2.144,3.138-3.2.938-.943,1.91-1.852,2.849-2.795,1.165-1.169,2.316-2.352,3.465-3.537.928-.956,1.843-1.924,2.766-2.885.966-1.007,1.886-2.064,2.915-3a2.965,2.965,0,0,0,1.058-3.043,3.069,3.069,0,0,0-2.671-2.084,4.98,4.98,0,0,0-1.724.461,25.229,25.229,0,0,0-2.338,2.191c-1.009.966-2.05,1.9-3.024,2.9-1.653,1.7-3.238,3.461-4.9,5.149-1.708,1.733-3.5,3.382-5.2,5.125a1.624,1.624,0,0,1-1.913.531c-.851-.844-1.709-1.679-2.547-2.534s-1.633-1.748-2.482-2.589c-1.151-1.141-2.416-2.178-3.475-3.4A2.97,2.97,0,0,0,1535.834,646.138Z" transform="translate(-4.917 -6.202)" fill="#030405"/>
      <path id="Trazado_640573" data-name="Trazado 640573" d="M1527.419,619.12l-.155.18c-.163.008-.374-.046-.48.035-1.865,1.422-3.774,2.8-5.552,4.321a18.007,18.007,0,0,0-2.628,2.977,33.388,33.388,0,0,0-3.213,4.777,24.513,24.513,0,0,0-2.835,8.086c-.215,1.841-.572,3.67-.683,5.515a22.727,22.727,0,0,0,.193,4.4,28.363,28.363,0,0,0,1.133,5.734,45.113,45.113,0,0,0,3.225,6.886,26.548,26.548,0,0,0,3.45,4.724,39.247,39.247,0,0,0,4.523,4.131,17.816,17.816,0,0,0,2.869,1.572l.155.179.594.421-.011-.007.253.158-.017-.016.387.254a4.007,4.007,0,0,1,.716.3,27.429,27.429,0,0,0,7.677,3.4,33.719,33.719,0,0,0,13.344,1,30.909,30.909,0,0,0,10.358-3.161,32.065,32.065,0,0,0,12.369-10.892,31.364,31.364,0,0,0,5.531-17.789c0-1.385-.4-1.8-1.822-1.8-.81,0-1.621,0-2.742,0l7.53-10.444a2.22,2.22,0,0,1,.354.323q2.9,4.1,5.776,8.2c.422.605.776,1.257,1.161,1.887-1.667.087-2.032.316-2.245,1.406h-1.594a20.223,20.223,0,0,0-.278,2.706c.154,4.308-1.13,8.333-2.544,12.285a37.085,37.085,0,0,1-4.913,9.184,39.765,39.765,0,0,1-7.862,8.4,7.569,7.569,0,0,0-1.026,1.2l-.207.126-.6.414-.961.578-.4.261c-.787.437-1.553.919-2.365,1.3a32.882,32.882,0,0,1-11.366,3.515,81.775,81.775,0,0,1-9.41.374,27.454,27.454,0,0,1-10.144-2.057,69.835,69.835,0,0,1-6.624-2.9,42.749,42.749,0,0,1-7.424-5.376,39.146,39.146,0,0,1-7.532-9.066,39.677,39.677,0,0,1-5.069-13.278,40.949,40.949,0,0,1,.339-16.777,33.964,33.964,0,0,1,4.126-10.514,58.2,58.2,0,0,1,4.676-6.832,45.623,45.623,0,0,1,5.521-5.2,31.248,31.248,0,0,1,4.527-3.245,43.493,43.493,0,0,1,12.278-4.742,38.823,38.823,0,0,1,13.3-.55,32.712,32.712,0,0,1,9.116,2.24c.609.281,1.259.474,1.891.707-.079.409-.026.933-.263,1.206-.743.855-1.606,1.6-2.4,2.415-.907.922-1.794,1.864-2.69,2.8a33.382,33.382,0,0,0-11.8-1.66,28.626,28.626,0,0,0-11.85,2.765c-1.584.816-3.192,1.584-4.79,2.374l-.288.181.01-.007Z" transform="translate(-0.617 -0.636)" fill="#fddf76"/>
      <path id="Trazado_640574" data-name="Trazado 640574" d="M1528.624,675.5a17.816,17.816,0,0,1-2.869-1.572,39.247,39.247,0,0,1-4.523-4.131,26.548,26.548,0,0,1-3.45-4.724,45.113,45.113,0,0,1-3.225-6.886,28.363,28.363,0,0,1-1.133-5.734,22.727,22.727,0,0,1-.193-4.4c.111-1.846.468-3.675.683-5.515a24.513,24.513,0,0,1,2.835-8.086,33.388,33.388,0,0,1,3.213-4.777,18.007,18.007,0,0,1,2.628-2.977c1.778-1.525,3.687-2.9,5.552-4.321.107-.081.318-.027.48-.035-1.16.989-2.36,1.935-3.472,2.976a32.714,32.714,0,0,0-4.814,5.728,31.254,31.254,0,0,0-3.19,6.143,32.037,32.037,0,0,0-2.243,11.988,31.6,31.6,0,0,0,2.47,12.041,32.224,32.224,0,0,0,2.946,5.377,53.664,53.664,0,0,0,4.355,5.6,25.13,25.13,0,0,0,3.155,2.592C1528.106,675.014,1528.36,675.263,1528.624,675.5Z" transform="translate(-1.976 -3.679)" fill="#f9cb62"/>
      <path id="Trazado_640575" data-name="Trazado 640575" d="M1582.112,688.487a7.569,7.569,0,0,1,1.026-1.2,39.765,39.765,0,0,0,7.862-8.4,37.085,37.085,0,0,0,4.913-9.184c1.414-3.952,2.7-7.977,2.544-12.285a20.223,20.223,0,0,1,.278-2.706h1.594a30.941,30.941,0,0,1-1.611,11.3,64.143,64.143,0,0,1-2.745,7.1,42.385,42.385,0,0,1-3.349,5.276c-.822,1.206-1.722,2.364-2.648,3.492a13.52,13.52,0,0,1-1.911,1.941C1586.109,685.413,1584.1,686.938,1582.112,688.487Z" transform="translate(-14.314 -9.476)" fill="#f9cb62"/>
      <path id="Trazado_640576" data-name="Trazado 640576" d="M1605.448,650.485c-.385-.63-.739-1.281-1.161-1.887q-2.871-4.114-5.776-8.2a2.216,2.216,0,0,0-.354-.323l.728-1.122c2.747,3.866,5.436,7.647,8.2,11.535Z" transform="translate(-17.186 -6.654)" fill="#f9cb62"/>
      <path id="Trazado_640577" data-name="Trazado 640577" d="M1567.883,615.762c.9-.934,1.783-1.877,2.69-2.8.8-.81,1.66-1.561,2.4-2.415.236-.273.183-.8.263-1.206l1.419.568c-1.009,1.039-1.94,2.01-2.885,2.967-.883.9-1.817,1.745-2.657,2.678C1568.7,616.011,1568.363,616.1,1567.883,615.762Z" transform="translate(-11.766 -1.354)" fill="#f9cb62"/>
      <path id="Trazado_640578" data-name="Trazado 640578" d="M1532.176,622.034l.594-.421Z" transform="translate(-5.374 -3.551)" fill="#f9cb62"/>
      <path id="Trazado_640579" data-name="Trazado 640579" d="M1532.771,687.734l-.594-.421Z" transform="translate(-5.374 -15.313)" fill="#f9cb62"/>
      <path id="Trazado_640580" data-name="Trazado 640580" d="M1581.129,696.419l.6-.414Z" transform="translate(-14.138 -16.869)" fill="#f9cb62"/>
      <path id="Trazado_640581" data-name="Trazado 640581" d="M1533.563,688.245l-.387-.254Z" transform="translate(-5.553 -15.434)" fill="#f9cb62"/>
      <path id="Trazado_640582" data-name="Trazado 640582" d="M1579.47,697.474l.4-.261Z" transform="translate(-13.841 -17.085)" fill="#f9cb62"/>
      <path id="Trazado_640583" data-name="Trazado 640583" d="M1532.888,621.581l.288-.181Z" transform="translate(-5.501 -3.512)" fill="#f9cb62"/>
      <path id="Trazado_640584" data-name="Trazado 640584" d="M1533.141,687.976l-.253-.158Z" transform="translate(-5.501 -15.403)" fill="#f9cb62"/>
      <path id="Trazado_640585" data-name="Trazado 640585" d="M1547.124,656.419a1.624,1.624,0,0,0,1.913-.531c1.7-1.743,3.494-3.391,5.2-5.125,1.663-1.688,3.248-3.451,4.9-5.149.974-1,2.015-1.934,3.024-2.9a25.229,25.229,0,0,1,2.338-2.191,4.979,4.979,0,0,1,1.724-.461,5.067,5.067,0,0,1-.45,6.128c-4.364,4.309-8.631,8.716-12.932,13.087q-2.379,2.419-4.741,4.853c-1.622.176-2.548-.926-3.533-1.923s-2.009-2.011-3.008-3.023c-1.071-1.084-2.13-2.183-3.205-3.265-.935-.941-1.9-1.852-2.822-2.805a15.282,15.282,0,0,1-2-2.254,2.641,2.641,0,0,1,.218-2.961,2.545,2.545,0,0,1,2.711-1.111c.97.994,1.93,2,2.91,2.98,2.176,2.188,4.375,4.354,6.535,6.559C1546.345,656.766,1546.683,656.866,1547.124,656.419Z" transform="translate(-5.553 -6.854)" fill="#89c7fc"/>
      <path id="Trazado_640586" data-name="Trazado 640586" d="M1551.359,664.13q2.369-2.427,4.741-4.853c4.3-4.372,8.568-8.779,12.932-13.087a5.066,5.066,0,0,0,.45-6.128,3.069,3.069,0,0,1,2.671,2.084,2.965,2.965,0,0,1-1.058,3.043c-1.029.936-1.948,1.993-2.915,3-.923.961-1.838,1.928-2.766,2.885-1.149,1.185-2.3,2.368-3.465,3.537-.939.943-1.91,1.852-2.849,2.795-1.055,1.058-2.066,2.161-3.138,3.2-1.112,1.08-2.25,2.138-3.428,3.144A3.324,3.324,0,0,1,1551.359,664.13Z" transform="translate(-8.808 -6.854)" fill="#5eb2f7"/>
      <path id="Trazado_640587" data-name="Trazado 640587" d="M1547.842,657.886c-.441.447-.779.347-1.209-.091-2.16-2.2-4.359-4.371-6.535-6.559-.979-.984-1.94-1.986-2.91-2.98a2.97,2.97,0,0,1,2.149,1.111c1.059,1.218,2.324,2.255,3.475,3.4.849.841,1.645,1.735,2.482,2.589S1546.991,657.042,1547.842,657.886Z" transform="translate(-6.271 -8.32)" fill="#60b4fa"/>
    </g>
  </g>
</svg>
