<svg xmlns="http://www.w3.org/2000/svg" xmlns:xlink="http://www.w3.org/1999/xlink" width="630" height="370" viewBox="0 0 630 370">
  <defs>
    <clipPath id="clip-path">
      <rect id="_035ccfec5ea639cfadb69485e7921b0f" data-name="035ccfec5ea639cfadb69485e7921b0f" width="630" height="370" rx="19" transform="translate(705 2679.6)" fill="#eddcc3"/>
    </clipPath>
    <clipPath id="clip-path-2">
      <rect id="Rectángulo_304816" data-name="Rectángulo 304816" width="630" height="420" transform="translate(0 0)" fill="none"/>
    </clipPath>
    <linearGradient id="linear-gradient" x1="0.486" y1="1.076" x2="0.511" y2="0.029" gradientUnits="objectBoundingBox">
      <stop offset="0.299" stop-color="#ef8c95"/>
      <stop offset="0.672" stop-color="#f5b6b3"/>
      <stop offset="0.908" stop-color="#f7c6be"/>
    </linearGradient>
  </defs>
  <g id="Enmascarar_grupo_114" data-name="Enmascarar grupo 114" transform="translate(-705 -2679.6)" clip-path="url(#clip-path)">
    <g id="Grupo_908703" data-name="Grupo 908703" transform="translate(705 2649.333)">
      <g id="Grupo_908702" data-name="Grupo 908702" transform="translate(0 -0.334)" clip-path="url(#clip-path-2)">
        <rect id="Rectángulo_304802" data-name="Rectángulo 304802" width="630" height="420" transform="translate(0 0)" fill="#eddcc3"/>
        <path id="Trazado_643951" data-name="Trazado 643951" d="M1007.344,1859.527c0,1.908,59.477,4.123,128.007,4.123s124.085-1.547,124.085-3.454-55.555-3.455-124.085-3.455S1007.344,1857.619,1007.344,1859.527Z" transform="translate(-795.802 -1466.712)" fill="#32323f" opacity="0.08"/>
        <g id="Grupo_908656" data-name="Grupo 908656" transform="translate(298.702 171.417)">
          <g id="Grupo_908652" data-name="Grupo 908652" transform="translate(0 0)">
            <path id="Trazado_643952" data-name="Trazado 643952" d="M1456.2,849.382c4.975-6.082,9.543-10.85,1.415-16.872-4.259-3.155-11.626-.929-16.6,5.152s-5.428,13.426-1.415,16.872C1446.578,860.523,1451.23,855.464,1456.2,849.382Z" transform="translate(-1433.857 -827.859)" fill="#db9507"/>
            <ellipse id="Elipse_7517" data-name="Elipse 7517" cx="14.232" cy="9.584" rx="14.232" ry="9.584" transform="translate(0 21.601) rotate(-49.368)" fill="#f4ad00"/>
            <ellipse id="Elipse_7518" data-name="Elipse 7518" cx="11.651" cy="7.846" rx="11.651" ry="7.846" transform="matrix(0.651, -0.759, 0.759, 0.651, 3, 20.774)" fill="none" stroke="#db9507" stroke-miterlimit="10" stroke-width="3.123"/>
          </g>
          <g id="Grupo_908655" data-name="Grupo 908655" transform="translate(9.444 8.217)">
            <g id="Grupo_908653" data-name="Grupo 908653" transform="translate(0 1.431)">
              <path id="Trazado_643953" data-name="Trazado 643953" d="M1475.851,873.563a6.122,6.122,0,0,1-1.961,1.685,4.462,4.462,0,0,1-2.324.539,4.589,4.589,0,0,1-2.353-.8,3.875,3.875,0,0,1-1.725-2.152,3.989,3.989,0,0,1-.013-1.968,4.557,4.557,0,0,1,.834-1.834,1.745,1.745,0,0,1,.828-.608.932.932,0,0,1,.846.077.673.673,0,0,1,.308.575,2.494,2.494,0,0,1-.221.962,6.754,6.754,0,0,0-.37,1.213,1.929,1.929,0,0,0,.079,1.016,1.831,1.831,0,0,0,.779.89,2.322,2.322,0,0,0,1.742.379,2.389,2.389,0,0,0,1.5-.923,1.979,1.979,0,0,0,.479-1.159,1.934,1.934,0,0,0-.278-1.046,10.867,10.867,0,0,0-.858-1.2,7.79,7.79,0,0,1-1.109-1.8,3.274,3.274,0,0,1-.2-1.808,4.5,4.5,0,0,1,.968-2.007,5.152,5.152,0,0,1,1.792-1.5,3.936,3.936,0,0,1,2.127-.4,4.716,4.716,0,0,1,2.172.8,3.91,3.91,0,0,1,1.253,1.24,3.186,3.186,0,0,1,.458,1.408,3.518,3.518,0,0,1-.148,1.351,3.565,3.565,0,0,1-.573,1.1,1.933,1.933,0,0,1-.847.631.906.906,0,0,1-.86-.036.629.629,0,0,1-.324-.53,3.479,3.479,0,0,1,.173-.924,3.754,3.754,0,0,0,.227-1.462,1.584,1.584,0,0,0-.835-1.126,2.044,2.044,0,0,0-1.49-.349,1.872,1.872,0,0,0-1.221.709,1.558,1.558,0,0,0-.336.724,1.576,1.576,0,0,0,.063.725,2.621,2.621,0,0,0,.3.647q.187.284.649.9a12.351,12.351,0,0,1,1,1.453,4.3,4.3,0,0,1,.531,1.406,3.188,3.188,0,0,1-.118,1.495A5.49,5.49,0,0,1,1475.851,873.563Z" transform="translate(-1467.359 -861.679)" fill="#e58b0a"/>
            </g>
            <g id="Grupo_908654" data-name="Grupo 908654" transform="translate(0.014)">
              <path id="Trazado_643954" data-name="Trazado 643954" d="M1468.539,871.339l-.985-.646c-.172-.112-.169-.387.006-.612l11.642-14.966a.509.509,0,0,1,.628-.2l.985.646c.172.112.169.387-.006.612l-11.642,14.966A.508.508,0,0,1,1468.539,871.339Z" transform="translate(-1467.426 -854.864)" fill="#e58b0a"/>
            </g>
          </g>
        </g>
        <g id="Grupo_908661" data-name="Grupo 908661" transform="translate(269.122 159.19)">
          <g id="Grupo_908657" data-name="Grupo 908657" transform="translate(0)">
            <path id="Trazado_643955" data-name="Trazado 643955" d="M1307.45,782.123c-2.74-7.364-4.551-13.714-13.851-9.737-4.873,2.084-6.671,9.567-3.931,16.931s8.851,11.462,13.851,9.737C1312.208,796.056,1310.189,789.487,1307.45,782.123Z" transform="translate(-1286.945 -768.293)" fill="#db9507"/>
            <ellipse id="Elipse_7519" data-name="Elipse 7519" cx="9.584" cy="14.232" rx="9.584" ry="14.232" transform="translate(0 6.258) rotate(-19.055)" fill="#f4ad00"/>
            <ellipse id="Elipse_7520" data-name="Elipse 7520" cx="7.846" cy="11.651" rx="7.846" ry="11.651" transform="translate(2.485 8.13) rotate(-19.055)" fill="none" stroke="#db9507" stroke-miterlimit="10" stroke-width="3.123"/>
          </g>
          <g id="Grupo_908660" data-name="Grupo 908660" transform="translate(7.744 7.006)">
            <g id="Grupo_908658" data-name="Grupo 908658" transform="translate(0 1.962)">
              <path id="Trazado_643956" data-name="Trazado 643956" d="M1328.951,808.891a6.122,6.122,0,0,1,.465,2.543,4.462,4.462,0,0,1-.708,2.278,4.589,4.589,0,0,1-1.875,1.629,3.875,3.875,0,0,1-2.729.4,3.985,3.985,0,0,1-1.705-.982,4.558,4.558,0,0,1-1.162-1.646,1.747,1.747,0,0,1-.106-1.022.932.932,0,0,1,.494-.692.672.672,0,0,1,.652.024,2.484,2.484,0,0,1,.719.676,6.752,6.752,0,0,0,.86.931,1.93,1.93,0,0,0,.917.445,1.831,1.831,0,0,0,1.162-.223,2.322,2.322,0,0,0,1.206-1.313,2.389,2.389,0,0,0-.039-1.763,1.979,1.979,0,0,0-.759-1,1.932,1.932,0,0,0-1.044-.288,10.9,10.9,0,0,0-1.467.136,7.8,7.8,0,0,1-2.116.047,3.276,3.276,0,0,1-1.661-.741,4.5,4.5,0,0,1-1.245-1.849,5.156,5.156,0,0,1-.389-2.3,3.938,3.938,0,0,1,.726-2.039,4.712,4.712,0,0,1,1.785-1.473,3.911,3.911,0,0,1,1.7-.456,3.187,3.187,0,0,1,1.446.315,3.516,3.516,0,0,1,1.092.81,3.566,3.566,0,0,1,.664,1.052,1.933,1.933,0,0,1,.117,1.05.906.906,0,0,1-.465.725.628.628,0,0,1-.621.012,3.473,3.473,0,0,1-.71-.616,3.753,3.753,0,0,0-1.148-.934,1.585,1.585,0,0,0-1.393.152,2.044,2.044,0,0,0-1.053,1.11,1.871,1.871,0,0,0,0,1.412,1.557,1.557,0,0,0,.456.655,1.579,1.579,0,0,0,.658.312,2.616,2.616,0,0,0,.712.064c.226-.012.595-.048,1.1-.106a12.353,12.353,0,0,1,1.76-.131,4.3,4.3,0,0,1,1.482.251,3.192,3.192,0,0,1,1.231.857A5.488,5.488,0,0,1,1328.951,808.891Z" transform="translate(-1318.41 -800.216)" fill="#e58b0a"/>
            </g>
            <g id="Grupo_908659" data-name="Grupo 908659" transform="translate(0.876)">
              <path id="Trazado_643957" data-name="Trazado 643957" d="M1331.258,809.462l-1.055.524c-.184.092-.419-.049-.525-.314l-7.044-17.6a.509.509,0,0,1,.141-.645l1.055-.524c.184-.092.419.049.525.314l7.044,17.6A.507.507,0,0,1,1331.258,809.462Z" transform="translate(-1322.583 -790.872)" fill="#e58b0a"/>
            </g>
          </g>
        </g>
        <g id="Grupo_908666" data-name="Grupo 908666" transform="translate(290.531 152.541)">
          <g id="Grupo_908662" data-name="Grupo 908662" transform="translate(0 0)">
            <path id="Trazado_643958" data-name="Trazado 643958" d="M1407.1,748.275c-2.5-6.709-4.146-12.495-12.62-8.871-4.44,1.9-6.077,8.716-3.582,15.426s8.064,10.443,12.62,8.871C1411.432,760.97,1409.592,754.984,1407.1,748.275Z" transform="translate(-1388.415 -735.675)" fill="#db9507"/>
            <ellipse id="Elipse_7521" data-name="Elipse 7521" cx="8.732" cy="12.966" rx="8.732" ry="12.966" transform="translate(0 5.702) rotate(-19.055)" fill="#f4ad00"/>
            <ellipse id="Elipse_7522" data-name="Elipse 7522" cx="7.149" cy="10.615" rx="7.149" ry="10.615" transform="matrix(0.945, -0.326, 0.326, 0.945, 2.264, 7.407)" fill="none" stroke="#db9507" stroke-miterlimit="10" stroke-width="2.845"/>
          </g>
          <g id="Grupo_908665" data-name="Grupo 908665" transform="translate(7.056 6.383)">
            <g id="Grupo_908663" data-name="Grupo 908663" transform="translate(0 1.788)">
              <path id="Trazado_643959" data-name="Trazado 643959" d="M1426.687,772.663a5.579,5.579,0,0,1,.424,2.317,4.067,4.067,0,0,1-.645,2.076,4.181,4.181,0,0,1-1.708,1.484,3.53,3.53,0,0,1-2.486.367,3.633,3.633,0,0,1-1.553-.895,4.15,4.15,0,0,1-1.059-1.5,1.593,1.593,0,0,1-.1-.931.849.849,0,0,1,.45-.63.613.613,0,0,1,.594.022,2.27,2.27,0,0,1,.655.616,6.189,6.189,0,0,0,.784.848,1.759,1.759,0,0,0,.835.4,1.669,1.669,0,0,0,1.058-.2,2.116,2.116,0,0,0,1.1-1.2,2.177,2.177,0,0,0-.036-1.606,1.8,1.8,0,0,0-.691-.91,1.764,1.764,0,0,0-.951-.262,9.909,9.909,0,0,0-1.336.124,7.091,7.091,0,0,1-1.928.043,2.984,2.984,0,0,1-1.513-.675,4.1,4.1,0,0,1-1.134-1.684,4.694,4.694,0,0,1-.354-2.1,3.586,3.586,0,0,1,.662-1.858,4.3,4.3,0,0,1,1.626-1.342,3.565,3.565,0,0,1,1.551-.416,2.9,2.9,0,0,1,1.318.287,3.2,3.2,0,0,1,.995.738,3.243,3.243,0,0,1,.6.959,1.758,1.758,0,0,1,.107.957.825.825,0,0,1-.424.66.572.572,0,0,1-.566.011,3.163,3.163,0,0,1-.647-.561,3.421,3.421,0,0,0-1.046-.851,1.444,1.444,0,0,0-1.269.139,1.863,1.863,0,0,0-.959,1.011,1.705,1.705,0,0,0,0,1.286,1.418,1.418,0,0,0,.415.6,1.435,1.435,0,0,0,.6.285,2.378,2.378,0,0,0,.649.058q.309-.016,1.005-.1a11.242,11.242,0,0,1,1.6-.12,3.915,3.915,0,0,1,1.35.229,2.9,2.9,0,0,1,1.121.781A5,5,0,0,1,1426.687,772.663Z" transform="translate(-1417.083 -764.759)" fill="#e58b0a"/>
            </g>
            <g id="Grupo_908664" data-name="Grupo 908664" transform="translate(0.798)">
              <path id="Trazado_643960" data-name="Trazado 643960" d="M1428.788,773.184l-.961.478c-.168.084-.382-.045-.479-.286l-6.417-16.038a.464.464,0,0,1,.129-.588l.961-.478c.168-.084.382.045.479.286l6.417,16.038A.463.463,0,0,1,1428.788,773.184Z" transform="translate(-1420.884 -756.246)" fill="#e58b0a"/>
            </g>
          </g>
        </g>
        <g id="Grupo_908671" data-name="Grupo 908671" transform="translate(296.832 128.76)">
          <g id="Grupo_908667" data-name="Grupo 908667">
            <path id="Trazado_643961" data-name="Trazado 643961" d="M1432.565,626.68c0,7.761.514,14.249-9.539,14.053-5.267-.1-9.539-6.292-9.539-14.053s4.278-13.78,9.539-14.053C1432.17,612.152,1432.565,618.918,1432.565,626.68Z" transform="translate(-1413.488 -612.603)" fill="#db9507"/>
            <ellipse id="Elipse_7523" data-name="Elipse 7523" cx="9.538" cy="14.053" rx="9.538" ry="14.053" transform="translate(2.244 0.024)" fill="#f4ad00"/>
            <ellipse id="Elipse_7524" data-name="Elipse 7524" cx="7.809" cy="11.505" rx="7.809" ry="11.505" transform="translate(3.973 2.572)" fill="none" stroke="#db9507" stroke-miterlimit="10" stroke-width="3.096"/>
          </g>
          <g id="Grupo_908670" data-name="Grupo 908670" transform="translate(7.413 4.128)">
            <g id="Grupo_908668" data-name="Grupo 908668" transform="translate(0 2.324)">
              <path id="Trazado_643962" data-name="Trazado 643962" d="M1457.488,653.759a6.119,6.119,0,0,1-.538,2.512,4.6,4.6,0,0,1-1.516,1.856,4.7,4.7,0,0,1-2.343.846,3.475,3.475,0,0,1-3.858-2.092,4.4,4.4,0,0,1-.444-1.928,1.757,1.757,0,0,1,.29-.981.961.961,0,0,1,.717-.465.652.652,0,0,1,.59.251,2.372,2.372,0,0,1,.4.877,6.47,6.47,0,0,0,.438,1.162,1.836,1.836,0,0,0,.674.732,1.806,1.806,0,0,0,1.153.2,2.39,2.39,0,0,0,1.608-.789,2.416,2.416,0,0,0,.633-1.642,1.9,1.9,0,0,0-.319-1.189,1.848,1.848,0,0,0-.851-.633,10.634,10.634,0,0,0-1.4-.389,7.577,7.577,0,0,1-1.964-.7,3.113,3.113,0,0,1-1.246-1.268,4.345,4.345,0,0,1-.443-2.145,5.156,5.156,0,0,1,.517-2.264,4.058,4.058,0,0,1,1.442-1.629,4.827,4.827,0,0,1,2.2-.734,3.88,3.88,0,0,1,1.739.176,3.052,3.052,0,0,1,1.21.8,3.346,3.346,0,0,1,.7,1.132,3.454,3.454,0,0,1,.211,1.2,1.942,1.942,0,0,1-.291,1.011.935.935,0,0,1-.7.506.612.612,0,0,1-.576-.207,3.3,3.3,0,0,1-.419-.818,3.572,3.572,0,0,0-.7-1.266,1.551,1.551,0,0,0-1.339-.348,2.1,2.1,0,0,0-1.39.655,1.9,1.9,0,0,0-.54,1.3,1.419,1.419,0,0,0,.657,1.285,2.524,2.524,0,0,0,.631.309q.319.1,1.055.289a12.034,12.034,0,0,1,1.668.5,4.124,4.124,0,0,1,1.267.752,3.029,3.029,0,0,1,.807,1.223A5.316,5.316,0,0,1,1457.488,653.759Z" transform="translate(-1448.789 -643.327)" fill="#e58b0a"/>
            </g>
            <g id="Grupo_908669" data-name="Grupo 908669" transform="translate(3.236)">
              <path id="Trazado_643963" data-name="Trazado 643963" d="M1465.73,652.016l-1.17.114c-.2.02-.367-.193-.364-.474l.206-18.734a.521.521,0,0,1,.375-.546l1.169-.114c.2-.02.367.193.364.474l-.206,18.734C1466.1,651.753,1465.933,652,1465.73,652.016Z" transform="translate(-1464.197 -632.261)" fill="#e58b0a"/>
            </g>
          </g>
        </g>
        <g id="Grupo_908676" data-name="Grupo 908676" transform="translate(276.36 181.653)">
          <g id="Grupo_908672" data-name="Grupo 908672" transform="translate(0 0)">
            <path id="Trazado_643964" data-name="Trazado 643964" d="M1346.964,894.756c5.016-6.544,8.788-12.357,16.894-5.5,4.247,3.591,3.745,11.652-1.271,18.2s-12.41,8.773-16.895,5.5C1337.9,907.268,1341.947,901.3,1346.964,894.756Z" transform="translate(-1336.01 -881.617)" fill="#db9507"/>
            <ellipse id="Elipse_7525" data-name="Elipse 7525" cx="14.935" cy="10.058" rx="14.935" ry="10.058" transform="translate(0 24.128) rotate(-53.879)" fill="#f4ad00"/>
            <ellipse id="Elipse_7526" data-name="Elipse 7526" cx="12.227" cy="8.234" rx="12.227" ry="8.234" transform="translate(3.07 23.016) rotate(-53.879)" fill="none" stroke="#db9507" stroke-miterlimit="10" stroke-width="3.277"/>
          </g>
          <g id="Grupo_908675" data-name="Grupo 908675" transform="translate(9.862 9.406)">
            <g id="Grupo_908673" data-name="Grupo 908673" transform="translate(0.297 1.016)">
              <path id="Trazado_643965" data-name="Trazado 643965" d="M1369.418,916.428a6.424,6.424,0,0,1,2.064-1.76,4.685,4.685,0,0,1,2.441-.557,4.817,4.817,0,0,1,2.466.845,4.067,4.067,0,0,1,1.8,2.266,4.188,4.188,0,0,1,.006,2.065,4.785,4.785,0,0,1-.882,1.921,1.834,1.834,0,0,1-.872.634.977.977,0,0,1-.888-.085.706.706,0,0,1-.321-.6,2.61,2.61,0,0,1,.236-1.008,7.105,7.105,0,0,0,.393-1.271,2.026,2.026,0,0,0-.079-1.066,1.923,1.923,0,0,0-.814-.937,2.438,2.438,0,0,0-1.827-.4,2.509,2.509,0,0,0-1.58.963,2.079,2.079,0,0,0-.507,1.215,2.033,2.033,0,0,0,.288,1.1,11.426,11.426,0,0,0,.9,1.26,8.179,8.179,0,0,1,1.156,1.9,3.438,3.438,0,0,1,.2,1.9,4.723,4.723,0,0,1-1.024,2.1,5.407,5.407,0,0,1-1.887,1.565,4.131,4.131,0,0,1-2.234.414,4.947,4.947,0,0,1-2.276-.845,4.1,4.1,0,0,1-1.31-1.306,3.342,3.342,0,0,1-.475-1.479,3.687,3.687,0,0,1,.161-1.418,3.739,3.739,0,0,1,.606-1.156,2.027,2.027,0,0,1,.892-.659.951.951,0,0,1,.9.041.66.66,0,0,1,.338.558,3.649,3.649,0,0,1-.186.969,3.938,3.938,0,0,0-.244,1.534,1.663,1.663,0,0,0,.871,1.184,2.143,2.143,0,0,0,1.562.372,1.965,1.965,0,0,0,1.284-.739,1.633,1.633,0,0,0,.355-.759,1.651,1.651,0,0,0-.063-.761,2.747,2.747,0,0,0-.316-.68q-.2-.3-.677-.946a12.938,12.938,0,0,1-1.045-1.529,4.51,4.51,0,0,1-.551-1.478,3.349,3.349,0,0,1,.13-1.568A5.761,5.761,0,0,1,1369.418,916.428Z" transform="translate(-1364.38 -914.105)" fill="#e58b0a"/>
            </g>
            <g id="Grupo_908674" data-name="Grupo 908674">
              <path id="Trazado_643966" data-name="Trazado 643966" d="M1376.041,909.318l1.031.682c.18.119.176.407-.008.642L1364.788,926.3a.534.534,0,0,1-.66.211l-1.031-.682c-.18-.119-.176-.407.008-.642l12.276-15.659A.532.532,0,0,1,1376.041,909.318Z" transform="translate(-1362.964 -909.266)" fill="#e58b0a"/>
            </g>
          </g>
        </g>
        <g id="Grupo_908681" data-name="Grupo 908681" transform="translate(322.025 156.482)">
          <g id="Grupo_908677" data-name="Grupo 908677">
            <path id="Trazado_643967" data-name="Trazado 643967" d="M1542.913,759.956c0,8.46-.456,15.531,8.459,15.317,4.671-.112,8.459-6.858,8.459-15.317s-3.793-15.02-8.459-15.317C1543.264,744.121,1542.913,751.5,1542.913,759.956Z" transform="translate(-1540.924 -744.613)" fill="#db9507"/>
            <ellipse id="Elipse_7527" data-name="Elipse 7527" cx="8.459" cy="15.317" rx="8.459" ry="15.317" transform="translate(0 0.026)" fill="#f4ad00"/>
            <ellipse id="Elipse_7528" data-name="Elipse 7528" cx="6.925" cy="12.54" rx="6.925" ry="12.54" transform="translate(1.534 2.803)" fill="none" stroke="#db9507" stroke-miterlimit="10" stroke-width="3.044"/>
          </g>
          <g id="Grupo_908680" data-name="Grupo 908680" transform="translate(4.619 4.499)">
            <g id="Grupo_908678" data-name="Grupo 908678" transform="translate(0 2.533)">
              <path id="Trazado_643968" data-name="Trazado 643968" d="M1563.162,789.471a7.979,7.979,0,0,1-.477,2.738,4.939,4.939,0,0,1-1.344,2.023,3.727,3.727,0,0,1-2.078.923,2.892,2.892,0,0,1-2.361-.639,4.094,4.094,0,0,1-1.06-1.641,5.723,5.723,0,0,1-.394-2.1,2.242,2.242,0,0,1,.257-1.07.858.858,0,0,1,.636-.507.536.536,0,0,1,.524.274,2.885,2.885,0,0,1,.358.956,8.132,8.132,0,0,0,.388,1.267,1.906,1.906,0,0,0,.6.8,1.351,1.351,0,0,0,1.023.22,2.007,2.007,0,0,0,1.426-.86,3,3,0,0,0,.562-1.79,2.44,2.44,0,0,0-.283-1.3,1.715,1.715,0,0,0-.754-.689,8.129,8.129,0,0,0-1.242-.424,5.967,5.967,0,0,1-1.742-.763,3.169,3.169,0,0,1-1.105-1.382,5.662,5.662,0,0,1-.392-2.338,6.705,6.705,0,0,1,.459-2.467,4.266,4.266,0,0,1,1.279-1.775,3.778,3.778,0,0,1,1.952-.8,2.84,2.84,0,0,1,1.542.192,2.741,2.741,0,0,1,1.074.871,3.857,3.857,0,0,1,.617,1.233,4.544,4.544,0,0,1,.187,1.313,2.488,2.488,0,0,1-.258,1.1.856.856,0,0,1-.624.552.494.494,0,0,1-.511-.226,3.957,3.957,0,0,1-.372-.892,4.2,4.2,0,0,0-.622-1.38,1.206,1.206,0,0,0-1.187-.379,1.75,1.75,0,0,0-1.233.714,2.331,2.331,0,0,0-.479,1.42,1.943,1.943,0,0,0,.151.834,1.546,1.546,0,0,0,.431.566,2.1,2.1,0,0,0,.559.337q.283.112.936.315a9.229,9.229,0,0,1,1.479.541,3.6,3.6,0,0,1,1.124.82,3.442,3.442,0,0,1,.715,1.333A7.028,7.028,0,0,1,1563.162,789.471Z" transform="translate(-1555.447 -778.1)" fill="#e58b0a"/>
            </g>
            <g id="Grupo_908679" data-name="Grupo 908679" transform="translate(2.87)">
              <path id="Trazado_643969" data-name="Trazado 643969" d="M1570.472,787.571l-1.037.124c-.181.022-.325-.21-.323-.517l.182-20.419c0-.307.152-.573.333-.6l1.037-.124c.181-.022.325.21.323.517l-.182,20.419C1570.8,787.284,1570.652,787.551,1570.472,787.571Z" transform="translate(-1569.112 -766.038)" fill="#e58b0a"/>
            </g>
          </g>
        </g>
        <path id="Trazado_643970" data-name="Trazado 643970" d="M1232.887,1077.417a115.09,115.09,0,0,1-.722,11.523c-2.242,19.265-10.034,36.969-29.368,45.854-.148.068-.3.139-.45.2a.039.039,0,0,0,0,.011l.035.535c.009.119.021.253.03.405s.023.319.032.5l.021.284c.016.247.035.515.056.8l.023.357.026.37.028.39.056.826.03.434c.026.366.051.744.079,1.134l.014.236.051.72.1,1.519.035.48.142,2.066.072,1.035.1,1.539c.01.148.021.3.03.443l.04.577c.016.24.032.478.049.711l.033.478c.012.159.021.315.032.469l.046.68c.012.15.021.3.03.44s.021.288.03.427l.028.412c.009.136.016.269.028.4.016.26.032.506.051.742.009.119.014.236.023.348l.012.163c.021.328.042.623.06.887l.018.251c0,.079.01.154.014.227l.032.456c0,.046,0,.09.01.13v.011c0,.037,0,.073.007.1l.011.143c.021.3.026.6.021.9l-.014.3a.322.322,0,0,1,0,.048c0,.077-.009.154-.016.231,0,.011,0,.022,0,.033,0,.055-.009.112-.019.17,0,.015,0,.029,0,.044,0,.053-.012.108-.019.163-.014.108-.03.218-.049.326-.014.084-.026.167-.044.253,0,.024-.007.049-.012.071-.023.108-.046.216-.072.324s-.049.213-.079.321a9.865,9.865,0,0,1-1.2,2.722.934.934,0,0,1-.063.1,8.833,8.833,0,0,1-2.525,2.682c-.007,0-.009.009-.016.013a13.111,13.111,0,0,1-5.653,2.114,16.335,16.335,0,0,1-2.6.163c-.058,0-.114,0-.172,0a10.88,10.88,0,0,1-10.157-5.333c-.025-.051-.053-.1-.079-.147s-.067-.121-.1-.183-.051-.1-.074-.145c-.037-.075-.074-.15-.109-.225-.049-.1-.1-.207-.137-.308v0c-.093-.385-.348-1.323-.7-2.585-.636-2.279-1.592-5.624-2.5-8.742l-.007-.017c-1.056-3.644-2.042-6.983-2.365-7.934h0q-3.467.628-6.987,1.1a.5.5,0,0,0-.053.009c-5.1.682-10.259,1.119-15.422,1.317h-.014c-4.26.163-8.521.163-12.751,0a161.018,161.018,0,0,1-18.589-1.779h-.009c-.559-.086-1.153-.176-1.74-.271l-.213-.035c-.842,2.409-1.474,5.384-2.223,8.429a60.684,60.684,0,0,1-1.747,6.014c-1.232,3.435-2.928,6.5-5.611,8.394a11.407,11.407,0,0,1-7.063,1.969l-.137,0c-.281,0-.562-.013-.845-.024-.763-.029-1.541-.079-2.316-.169a14.824,14.824,0,0,1-4.386-1.112.53.53,0,0,1-.049-.024,8.206,8.206,0,0,1-2.269-1.5c-.016-.013-.032-.029-.046-.042h0c-.061-.053-.121-.106-.181-.161a9.864,9.864,0,0,1-1.836-2.217.011.011,0,0,0,0-.009c-.021-.033-.039-.066-.06-.1a10.163,10.163,0,0,1-1.392-4.708c0-.053,0-.11,0-.163v-.009a9.964,9.964,0,0,1,.1-1.744l.118-1.425c.381-4.618.84-10.277,1.27-15.557l.035-.416c.021-.275.044-.55.067-.824l.148-1.825.121-1.5.053-.66.093-1.134.058-.7.063-.762.056-.678v-.016c-.325-.209-.65-.423-.968-.641a52.749,52.749,0,0,1-8.556-7.2,56.885,56.885,0,0,1-11.4-17.486c-.03-.068-.058-.139-.086-.209-.086-.207-.167-.416-.253-.625-.037-.1-.077-.194-.119-.291a.794.794,0,0,0-.03-.081l-.021-.057a65.416,65.416,0,0,1-3.455-12.051h0c-5.126-24.444,1.234-51.76,18.378-69.92,5.2-5.355,4.741-12.554,2.831-19.107-1.58-11.142,4.871-21.161,14.415-22.381a21.3,21.3,0,0,1,4.912.161,14.008,14.008,0,0,1,8.345,4.4c2.792,2.955,4.388,6.668,6.548,9.075a6.785,6.785,0,0,0,3.973,2.383,7.677,7.677,0,0,0,2.833-.1q1.744-.41,3.513-.744c2.785-.531,5.616-.923,8.467-1.18.19-.018.378-.035.569-.049s.4-.035.606-.051.406-.031.61-.044l.578-.039c.023,0,.046,0,.067,0l.673-.04c2.747-.15,5.507-.178,8.259-.084,2.518.088,5.031.28,7.523.575s4.975.694,7.419,1.2q3.039.624,5.989,1.462a4.577,4.577,0,0,0,5.131-1.9,31.073,31.073,0,0,1,4.36-6.525,20.916,20.916,0,0,1,10.166-6.615c12.171-3.27,24.084,7.863,16.322,27.2-2.945,5.545,3.124,11.166,9.906,20.531C1226.13,1039.774,1234.244,1054.162,1232.887,1077.417Z" transform="translate(-841.132 -774.12)" fill="url(#linear-gradient)"/>
        <path id="Trazado_643971" data-name="Trazado 643971" d="M1204.129,1474.552c.021.3.027.6.02.9,0,.1-.007.2-.012.3,0,.063-.005.128-.012.192s-.01.116-.017.175c-.007.078-.016.153-.023.231l-.028.225c-.021.15-.045.3-.074.446-.012.075-.026.148-.043.22a10.567,10.567,0,0,1-9.825,8.147l-2.521.156a10.814,10.814,0,0,1-10.519-6.046c-.049-.1-.1-.206-.139-.309-.092-.218-.177-.441-.254-.667-.031-.088-.062-.179-.088-.267a.479.479,0,0,1-.017-.059c-.01-.025-.017-.051-.024-.076-.021-.076-.042-.152-.061-.23-.026-.1-.052-.2-.075-.293,0,0,0-.007,0-.01l-.035-.147c-.009-.049-.021-.1-.03-.149-.014-.071-.027-.144-.041-.215-.007-.037-.014-.071-.018-.107-.016-.085-.029-.171-.04-.258a.357.357,0,0,1-.009-.073c-.007-.046-.013-.093-.017-.139a.048.048,0,0,1,0-.027c-.009-.071-.017-.144-.023-.217,0-.037-.006-.073-.01-.109,0-.017,0-.036,0-.056a.329.329,0,0,1-.006-.054l-4.813-16.132v0l-.594.1-1.016.166c-.062.009-.123.019-.182.03l-.3.05-.887.142-.967.155-.763.12-.756.118-.118.017c-.429.066-.853.128-1.275.192-1.29.192-2.572.366-3.882.524-.437.054-.878.1-1.322.152-.164.019-.329.037-.493.053-.18.021-.359.041-.542.057-.485.048-.975.1-1.471.139l-.482.041a.162.162,0,0,1-.033,0c-.172.016-.346.029-.521.043l-.159.011-.528.04h0c-.249.019-.5.036-.749.052l-.085.005c-.285.018-.57.037-.859.052-1.028.061-2.095.107-3.21.142l-.623.016c-.033,0-.064,0-.1,0-.185.006-.369.009-.556.013s-.4.009-.6.012c-.328.008-.664.01-1,.016l-.533,0c-.507,0-1.022.005-1.552,0-.09,0-.179,0-.269,0s-.179,0-.269,0c-.287,0-.571,0-.853-.006q-.246,0-.484,0c-11.265-.047-17.363.143-25.784-1.8a.016.016,0,0,1-.01,0q-.833-.189-1.7-.412l-.042.145-4.534,15.612v0c-.254,3.123-2.554,5.728-5.56,7.349l-.031.019a14.986,14.986,0,0,1-6.806,1.782c-.346,0-.689-.007-1.029-.031l-2.521-.184a10.916,10.916,0,0,1-7.127-3.324.067.067,0,0,1-.017-.02c-.13-.139-.257-.28-.382-.426-.062-.072-.122-.146-.182-.22s-.12-.148-.177-.225-.122-.163-.179-.244c-.03-.044-.062-.089-.092-.133s-.069-.1-.1-.148l-.193-.3a9.1,9.1,0,0,1-.491-.9c-.017-.034-.034-.069-.049-.1-.042-.091-.08-.179-.119-.267s-.085-.2-.124-.3-.087-.223-.128-.338c0-.017-.012-.034-.017-.054-.029-.083-.057-.166-.084-.25a.2.2,0,0,0-.012-.037c0-.015-.007-.029-.012-.042-.024-.078-.047-.159-.069-.237-.012-.037-.021-.073-.031-.108a.4.4,0,0,1-.011-.051c-.031-.115-.056-.23-.082-.344a.553.553,0,0,1-.016-.066.63.63,0,0,1-.021-.1,8.005,8.005,0,0,1-.129-.822c0-.029-.009-.061-.011-.09a.27.27,0,0,1,0-.044c-.03-.27-.044-.545-.047-.822q0-.183,0-.365c0-.189.016-.379.031-.571l.068-.818,1.638-20.048.444-5.432h0v0a54.713,54.713,0,0,1-17.145-17.79c-.15-.251-.3-.5-.443-.758-.293-.507-.576-1.018-.853-1.534-.137-.258-.275-.519-.41-.779-.142-.28-.284-.56-.424-.84s-.279-.565-.413-.85c-.09-.189-.176-.38-.266-.572-.066-.145-.134-.29-.2-.434q-.27-.6-.533-1.207c-.017-.042-.034-.086-.053-.127l-.015-.032c-.172-.412-.339-.828-.506-1.245-.039-.1-.077-.194-.119-.292-.01-.027-.019-.054-.031-.081-.1-.26-.2-.52-.3-.782l-.238-.654c-.026-.071-.056-.142-.082-.216-.017-.046-.034-.093-.051-.142-.043-.125-.094-.247-.137-.375-.074-.218-.149-.436-.22-.654-.117-.345-.23-.693-.342-1.04l-.043-.132c-.052-.164-.1-.328-.155-.492-.034-.1-.064-.208-.1-.311s-.064-.213-.095-.32h0c-.029-.093-.055-.186-.081-.279s-.06-.193-.085-.291c-.1-.34-.2-.682-.289-1.027,0-.007,0-.015-.007-.024-.054-.2-.109-.4-.16-.6-.026-.09-.05-.183-.073-.274-.052-.2-.1-.4-.152-.6a.267.267,0,0,1-.014-.059c-.058-.239-.117-.479-.175-.72-.017-.061-.03-.122-.044-.183-.021-.085-.042-.168-.058-.254q-.049-.194-.091-.388a.353.353,0,0,1-.009-.042c-.118-.52-.229-1.042-.337-1.57-.025-.125-.051-.249-.076-.376-.021-.1-.039-.2-.06-.3-.08-.41-.158-.822-.23-1.235-.054-.3-.1-.6-.153-.9-.038-.224-.074-.449-.11-.676-.045-.268-.087-.539-.127-.81-.011-.073-.022-.146-.031-.219q-.1-.666-.184-1.333c-.029-.2-.055-.4-.078-.6-.015-.11-.028-.217-.041-.327-.021-.18-.043-.36-.062-.541-.032-.28-.064-.563-.09-.845l-.063-.6a.176.176,0,0,1,0-.039q-.137-1.4-.234-2.817v0c-.027-.38-.051-.759-.073-1.141-.009-.175-.02-.353-.026-.53s-.022-.377-.028-.567q-.021-.4-.035-.81c0-.134-.009-.27-.014-.4,0-.151-.011-.3-.015-.455-.009-.17-.013-.341-.016-.513,0-.044,0-.087,0-.131q-.007-.19-.006-.379c-.012-.379-.018-.764-.022-1.148,0-.248,0-.5-.006-.746,0-.071,0-.143,0-.216l0-.452c0-.224,0-.447,0-.673l0-.185a.286.286,0,0,0,0-.048v-.044c.081-1.814.642-10.505.65-6.808,1.875,3.043,3.7,6.059,5.531,9.031q1.2,1.954,2.412,3.883c4.981,7.918,10.162,15.437,16.638,22.176,0,0,0,0,0,0,.485.508.983,1.012,1.486,1.514q1.217,1.206,2.5,2.378c10.307,9.41,23.851,16.973,44.077,21.464h.005c18.225,4.05,41.87,5.606,73.458,3.771a.057.057,0,0,1,.021,0,54.941,54.941,0,0,1-9.232,5.469Z" transform="translate(-841.392 -1091.534)" fill="#ea7d8c" opacity="0.64" style="isolation: isolate"/>
        <path id="Trazado_643972" data-name="Trazado 643972" d="M1420.79,1047.1c-1.344,4.981-4.817,12.631-12.113,15.763a16.464,16.464,0,0,1-2.407.823c-.281.076-.571.143-.863.2a19.156,19.156,0,0,1-4.147.384,11.622,11.622,0,0,1-3.589-.62c-.111-.036-.223-.076-.332-.115a13.13,13.13,0,0,1-2.236-1.082,17.239,17.239,0,0,1-5.244-5.084,21.725,21.725,0,0,1-2.108-3.868,22.79,22.79,0,0,1-.932-2.619,23.276,23.276,0,0,1-.8-4.066q1.348-.258,2.709-.468c.5-.082,1-.155,1.508-.227q1.644-.227,3.3-.395c.315-.031.632-.061.947-.09.191-.017.378-.036.569-.048s.4-.036.6-.05.407-.031.611-.044l.577-.04c.023,0,.046,0,.067,0l.674-.04c.141-.008.279-.015.42-.021.7-.036,1.4-.063,2.106-.082q1.915-.053,3.83-.025c.426,0,.855.013,1.281.025l.619.019c.468.017.939.036,1.407.061q3.071.154,6.117.515C1415.869,1046.2,1418.347,1046.6,1420.79,1047.1Z" transform="translate(-1094.956 -825.653)" fill="#d86477"/>
        <g id="Grupo_908683" data-name="Grupo 908683" transform="translate(266.89 278.201)">
          <path id="Trazado_643973" data-name="Trazado 643973" d="M1348.009,1368.61c-3.439,13.423-20.171,20.588-41.583,18.708-23.359-2.05-36.063-12.456-35.506-25.607s17.766-23.173,41.2-22.28S1351.285,1355.821,1348.009,1368.61Z" transform="translate(-1270.903 -1336.194)" fill="#d1596f" opacity="0.67"/>
          <g id="Grupo_908682" data-name="Grupo 908682" transform="translate(0.446)">
            <path id="Trazado_643974" data-name="Trazado 643974" d="M1350.127,1353.461c-.557,13.151-14.461,19.34-37.9,18.446s-39.745-12.194-39.188-25.345,17.766-23.174,41.2-22.28S1350.684,1340.309,1350.127,1353.461Z" transform="translate(-1273.025 -1324.226)" fill="#e8778a" style="isolation: isolate"/>
            <ellipse id="Elipse_7529" data-name="Elipse 7529" cx="8.034" cy="6.026" rx="8.034" ry="6.026" transform="matrix(0.048, -0.999, 0.999, 0.048, 44.022, 33.609)" fill="#d1596f"/>
            <ellipse id="Elipse_7530" data-name="Elipse 7530" cx="8.034" cy="6.026" rx="8.034" ry="6.026" transform="translate(23.779 32.837) rotate(-87.265)" fill="#d1596f"/>
          </g>
        </g>
        <g id="Grupo_908684" data-name="Grupo 908684" transform="translate(340.784 253.652)" opacity="0.42">
          <path id="Trazado_643975" data-name="Trazado 643975" d="M1628.78,1210.14a43.094,43.094,0,0,0-6-2.811" transform="translate(-1622.783 -1207.329)" fill="none" stroke="#fff" stroke-linecap="round" stroke-miterlimit="10" stroke-width="39.244"/>
          <path id="Trazado_643976" data-name="Trazado 643976" d="M1716.643,1286.06c.217-8.344-5.135-21.6-16.775-29.857" transform="translate(-1683.68 -1245.939)" fill="none" stroke="#fff" stroke-linecap="round" stroke-miterlimit="10" stroke-width="39.244"/>
        </g>
        <g id="Grupo_908686" data-name="Grupo 908686" transform="translate(261.787 -192.26)">
          <path id="Trazado_643977" data-name="Trazado 643977" d="M1468.693-916.057l-.512.01q-2.46.044-4.764.238c-16.394,1.336-26.937,7.85-33.05,13.514-10.276,9.525-12.834,25.514-13.248,37.025-.049,1.313-.068,2.563-.068,3.743-.574,15.94.242,208.564.454,256.379.008,1.708.014,3.231.02,4.556.02,3.96.029,6.136.029,6.136l19.707-.773v-179.3l.717-80.409c0-3.531-.129-6.922-.14-10.154,0-.652,0-1.3.008-1.936,0-.029,0-.058,0-.089v-.021a.294.294,0,0,1,0-.039c.121-7.684,1.241-14.423,6.866-20.046,5.543-5.543,11.165-6.811,20.387-7.425.984-.064,2.01-.121,3.079-.177q.71-.038,1.447-.07v-21.164C1469.317-916.063,1469-916.061,1468.693-916.057Z" transform="translate(-1381.098 916.063)" fill="#97979e"/>
          <g id="Grupo_908685" data-name="Grupo 908685" transform="translate(0 221.285)">
            <rect id="Rectángulo_304803" data-name="Rectángulo 304803" width="25.162" height="5.409" rx="2.704" transform="translate(30.025 35.622) rotate(180)" fill="#7c7c89"/>
            <path id="Trazado_643978" data-name="Trazado 643978" d="M1253.792,204.55h0a3.825,3.825,0,0,0,3.825-3.825l-1.51-30.244,1.51-28.981a3.825,3.825,0,0,0-3.825-3.825h0a3.825,3.825,0,0,0-3.825,3.825l1.71,29.313-1.71,29.911A3.825,3.825,0,0,0,1253.792,204.55Z" transform="translate(-1249.261 -137.676)" fill="#595966"/>
            <ellipse id="Elipse_7531" data-name="Elipse 7531" cx="4.705" cy="5.411" rx="4.705" ry="5.411" transform="translate(0 27.542)" fill="#3b3b4c"/>
            <path id="Trazado_643979" data-name="Trazado 643979" d="M1254.691,281.842a1.9,1.9,0,1,0-.506-2.289A1.681,1.681,0,0,0,1254.691,281.842Z" transform="translate(-1252.415 -248.853)" fill="#fff" opacity="0.7"/>
            <path id="Trazado_643980" data-name="Trazado 643980" d="M1377.852,238.488h13.357a15.029,15.029,0,0,0,15.04-15.04V212.123a15.043,15.043,0,0,0-12.716-14.862c-.084-.013-.169-.027-.254-.038a15.143,15.143,0,0,0-2.07-.141h-13.357c-.136,0-.272,0-.407.005-8.119.216-14.139,3.823-14.633,15.036v11.324c.052,10.909,6.488,14.791,14.582,15.033Q1377.623,238.488,1377.852,238.488Z" transform="translate(-1338.409 -184.607)" fill="#7c7c89"/>
            <rect id="Rectángulo_304804" data-name="Rectángulo 304804" width="29.09" height="4.578" rx="2.289" transform="translate(27.814 18.999) rotate(90)" fill="#595966"/>
            <rect id="Rectángulo_304805" data-name="Rectángulo 304805" width="22.134" height="4.578" rx="2.289" transform="translate(25.969 22.321) rotate(90)" fill="#595966"/>
          </g>
          <path id="Trazado_643981" data-name="Trazado 643981" d="M1439.725,557.442v5.292l-2.591.393-17.146.349c-.006-1.325-.012-2.848-.02-4.556C1424.336,558.71,1436.077,558.1,1439.725,557.442Z" transform="translate(-1383.563 -248.006)" fill="#fff" opacity="0.57"/>
          <rect id="Rectángulo_304806" data-name="Rectángulo 304806" width="10.289" height="26.881" rx="5.145" transform="translate(58.873 314.222) rotate(90)" fill="#474756"/>
        </g>
        <g id="Grupo_908691" data-name="Grupo 908691" transform="translate(308.167 191.785)">
          <g id="Grupo_908687" data-name="Grupo 908687">
            <path id="Trazado_643982" data-name="Trazado 643982" d="M1484.636,928c0,8.424.462,15.466-8.586,15.253-4.741-.112-8.586-6.829-8.586-15.253s3.85-14.956,8.586-15.253C1484.28,912.232,1484.636,919.576,1484.636,928Z" transform="translate(-1467.464 -912.721)" fill="#db9507"/>
            <ellipse id="Elipse_7532" data-name="Elipse 7532" cx="8.586" cy="15.253" rx="8.586" ry="15.253" transform="translate(2.019 0.026)" fill="#f4ad00"/>
            <ellipse id="Elipse_7533" data-name="Elipse 7533" cx="7.029" cy="12.487" rx="7.029" ry="12.487" transform="translate(3.576 2.792)" fill="none" stroke="#db9507" stroke-miterlimit="10" stroke-width="3.06"/>
          </g>
          <g id="Grupo_908690" data-name="Grupo 908690" transform="translate(6.673 4.481)">
            <g id="Grupo_908688" data-name="Grupo 908688" transform="translate(0 2.522)">
              <path id="Trazado_643983" data-name="Trazado 643983" d="M1507.069,957.391a7.807,7.807,0,0,1-.484,2.727,4.914,4.914,0,0,1-1.364,2.015,3.819,3.819,0,0,1-2.109.919,2.975,2.975,0,0,1-2.4-.636,4.071,4.071,0,0,1-1.076-1.634,5.594,5.594,0,0,1-.4-2.093,2.2,2.2,0,0,1,.261-1.065.868.868,0,0,1,.645-.505.547.547,0,0,1,.532.273,2.84,2.84,0,0,1,.363.952,8.006,8.006,0,0,0,.394,1.261,1.9,1.9,0,0,0,.607.795,1.392,1.392,0,0,0,1.038.219,2.042,2.042,0,0,0,1.447-.857,2.944,2.944,0,0,0,.57-1.782,2.394,2.394,0,0,0-.287-1.29,1.729,1.729,0,0,0-.766-.687,8.373,8.373,0,0,0-1.261-.422,6.106,6.106,0,0,1-1.768-.759,3.168,3.168,0,0,1-1.122-1.376,5.542,5.542,0,0,1-.4-2.328,6.561,6.561,0,0,1,.466-2.457,4.251,4.251,0,0,1,1.3-1.768,3.875,3.875,0,0,1,1.981-.8,2.933,2.933,0,0,1,1.565.191,2.771,2.771,0,0,1,1.089.867,3.818,3.818,0,0,1,.627,1.228,4.437,4.437,0,0,1,.19,1.308,2.432,2.432,0,0,1-.262,1.1.864.864,0,0,1-.633.549.505.505,0,0,1-.519-.224,3.907,3.907,0,0,1-.377-.888,4.15,4.15,0,0,0-.631-1.374,1.238,1.238,0,0,0-1.2-.378,1.784,1.784,0,0,0-1.251.711,2.293,2.293,0,0,0-.486,1.414,1.9,1.9,0,0,0,.154.831,1.545,1.545,0,0,0,.438.564,2.141,2.141,0,0,0,.568.336c.191.074.509.179.95.314a9.47,9.47,0,0,1,1.5.539,3.642,3.642,0,0,1,1.141.816,3.4,3.4,0,0,1,.726,1.328A6.866,6.866,0,0,1,1507.069,957.391Z" transform="translate(-1499.239 -946.068)" fill="#e58b0a"/>
            </g>
            <g id="Grupo_908689" data-name="Grupo 908689" transform="translate(2.913)">
              <path id="Trazado_643984" data-name="Trazado 643984" d="M1514.489,955.5l-1.052.124c-.184.022-.33-.209-.328-.515l.185-20.333c0-.306.154-.571.338-.593l1.052-.124c.184-.022.33.209.328.515l-.185,20.333C1514.823,955.215,1514.672,955.48,1514.489,955.5Z" transform="translate(-1513.109 -934.058)" fill="#e58b0a"/>
            </g>
          </g>
        </g>
        <g id="Grupo_908696" data-name="Grupo 908696" transform="translate(291.862 215.182)">
          <g id="Grupo_908692" data-name="Grupo 908692">
            <path id="Trazado_643985" data-name="Trazado 643985" d="M1410.673,1038.615a26,26,0,0,1-.617,5.895.007.007,0,0,1,0,0,16.1,16.1,0,0,1-.781,2.476c-.281.076-.571.143-.863.2a19.147,19.147,0,0,1-4.147.384,11.622,11.622,0,0,1-3.589-.62c-.111-.036-.223-.076-.332-.115a4.22,4.22,0,0,1-1.583-.565,3.761,3.761,0,0,1-.653-.517,17.239,17.239,0,0,1-5.244-5.084,21.718,21.718,0,0,1-2.108-3.868,22.807,22.807,0,0,1-.932-2.619,16.451,16.451,0,0,1,1.911-4.534c2.06-3.345,5.223-5.515,8.784-5.515.258,0,.512.01.76.029a8.822,8.822,0,0,1,6.955,4.444,14.845,14.845,0,0,1,1.569,3.572A22.563,22.563,0,0,1,1410.673,1038.615Z" transform="translate(-1389.82 -1024.14)" fill="#db9507"/>
            <path id="Trazado_643986" data-name="Trazado 643986" d="M1416.848,1038.615a17.507,17.507,0,0,1-1.661,7.552,16.469,16.469,0,0,1-2.407.823c-.281.076-.571.143-.863.2a19.147,19.147,0,0,1-4.147.384,11.622,11.622,0,0,1-3.589-.62c-.111-.036-.223-.076-.332-.115a4.22,4.22,0,0,1-1.583-.565,3.761,3.761,0,0,1-.653-.517,17.238,17.238,0,0,1-5.244-5.084,21.718,21.718,0,0,1-2.108-3.868,16.634,16.634,0,0,1,2.486-7.38,10.778,10.778,0,0,1,8.037-5.258c.239-.019.483-.029.727-.029a10.343,10.343,0,0,1,8.255,4.553A16.774,16.774,0,0,1,1416.848,1038.615Z" transform="translate(-1393.328 -1024.14)" fill="#f4ad00"/>
            <path id="Trazado_643987" data-name="Trazado 643987" d="M1422.194,1048.49a14.394,14.394,0,0,1-1.229,5.895.007.007,0,0,1,0,0,11.976,11.976,0,0,1-1.644,2.677,19.148,19.148,0,0,1-4.147.384,11.624,11.624,0,0,1-3.589-.619c-.111-.036-.223-.076-.332-.115a4.223,4.223,0,0,1-1.583-.565,3.76,3.76,0,0,1-.653-.517,17.24,17.24,0,0,1-5.244-5.084,15.036,15.036,0,0,1-.141-2.06,13.1,13.1,0,0,1,3.822-9.582,7.982,7.982,0,0,1,5.46-2.268,7.836,7.836,0,0,1,4.948,1.823,10.946,10.946,0,0,1,2.85,3.6A14.254,14.254,0,0,1,1422.194,1048.49Z" transform="translate(-1400.73 -1034.015)" fill="none" stroke="#db9507" stroke-miterlimit="10" stroke-width="3.426"/>
          </g>
          <g id="Grupo_908695" data-name="Grupo 908695" transform="translate(6.989 4.228)">
            <g id="Grupo_908693" data-name="Grupo 908693" transform="translate(0 2.394)">
              <path id="Trazado_643988" data-name="Trazado 643988" d="M1433.439,1066.419a5.6,5.6,0,0,1-.641,2.587,4.948,4.948,0,0,1-1.8,1.913,5.693,5.693,0,0,1-1.764.714,7.013,7.013,0,0,1-1.021.158,6.679,6.679,0,0,1-1.247,0q-.17-.013-.334-.038a4.222,4.222,0,0,1-1.583-.565,3.756,3.756,0,0,1-.653-.517,4.315,4.315,0,0,1-.766-1.033,4.03,4.03,0,0,1-.529-1.987,1.64,1.64,0,0,1,.344-1.01,1.172,1.172,0,0,1,.853-.481.828.828,0,0,1,.7.26,2.273,2.273,0,0,1,.481.9,6.259,6.259,0,0,0,.521,1.2,2.015,2.015,0,0,0,.8.754,1.46,1.46,0,0,0,.193.088,2.692,2.692,0,0,0,1.176.12,3.4,3.4,0,0,0,1.092-.265,2.789,2.789,0,0,0,.819-.548,2.319,2.319,0,0,0,.754-1.693,1.78,1.78,0,0,0-.38-1.224,2.2,2.2,0,0,0-1.01-.651l-.13-.04a15.2,15.2,0,0,0-1.535-.361c-.252-.05-.5-.1-.724-.162a8.749,8.749,0,0,1-1.611-.559,3.489,3.489,0,0,1-1.48-1.306,3.976,3.976,0,0,1-.525-2.209,4.728,4.728,0,0,1,.613-2.331,4.425,4.425,0,0,1,1.716-1.678,5.643,5.643,0,0,1,1.4-.552,7.044,7.044,0,0,1,1.218-.2,6.547,6.547,0,0,1,1.05-.01,4.284,4.284,0,0,1,1.016.191,3.724,3.724,0,0,1,1.438.823,3.4,3.4,0,0,1,.827,1.166,3.155,3.155,0,0,1,.252,1.241,1.826,1.826,0,0,1-.346,1.042,1.121,1.121,0,0,1-.836.521.789.789,0,0,1-.685-.212,3.294,3.294,0,0,1-.5-.844,3.612,3.612,0,0,0-.834-1.3,1.236,1.236,0,0,0-.365-.227,2.628,2.628,0,0,0-1.226-.13,2.956,2.956,0,0,0-1.042.265,2.322,2.322,0,0,0-.611.41,1.829,1.829,0,0,0-.641,1.342,1.391,1.391,0,0,0,.2.79,1.675,1.675,0,0,0,.58.533,3.228,3.228,0,0,0,.431.21,2.593,2.593,0,0,0,.319.109q.378.107,1.254.3c.235.046.464.094.685.147.464.109.9.229,1.3.363a5.132,5.132,0,0,1,1.506.775,3.132,3.132,0,0,1,.958,1.26A4.82,4.82,0,0,1,1433.439,1066.419Z" transform="translate(-1423.099 -1055.672)" fill="#e58b0a"/>
            </g>
            <g id="Grupo_908694" data-name="Grupo 908694" transform="translate(3.864)">
              <path id="Trazado_643989" data-name="Trazado 643989" d="M1443.995,1044.762l-.025,1.921-.029,2.4-.05,3.973-.038,3-.052,4.156-.029,2.417-.011.758a11.662,11.662,0,0,1-2.26-.525l0-.078.029-2.428.061-4.824.04-3.035.04-3.284.029-2.316.025-1.943a.631.631,0,0,1,.113-.355.461.461,0,0,1,.332-.208l1.39-.118a.387.387,0,0,1,.384.244A.568.568,0,0,1,1443.995,1044.762Z" transform="translate(-1441.5 -1044.273)" fill="#e58b0a"/>
            </g>
          </g>
        </g>
        <path id="Trazado_643990" data-name="Trazado 643990" d="M1552.006,917.277c-4.291-.678-4.9-2.629-5.7-8.673-.556,5.735-1.266,7.91-5.628,8.564,3.806,1.635,5.143,2.229,5.822,8.858C1547.436,919.312,1548.272,918.719,1552.006,917.277Z" transform="translate(-1217.135 -717.684)" fill="#fff"/>
        <path id="Trazado_643991" data-name="Trazado 643991" d="M1326.384,898.7c-4.291-.678-4.9-2.628-5.7-8.673-.556,5.735-1.266,7.91-5.629,8.564,3.806,1.635,5.143,2.229,5.822,8.858C1321.814,900.732,1322.65,900.138,1326.384,898.7Z" transform="translate(-1038.894 -703.006)" fill="#fff"/>
        <path id="Trazado_643992" data-name="Trazado 643992" d="M1318.868,1039.651c-6.215-.916-7.1-3.551-8.256-11.718-.805,7.748-1.833,10.687-8.151,11.57,5.511,2.21,7.448,3.012,8.431,11.967C1312.25,1042.4,1313.46,1041.6,1318.868,1039.651Z" transform="translate(-1028.944 -811.954)" fill="#fff"/>
        <path id="Trazado_643993" data-name="Trazado 643993" d="M1460.591,717.853c-4.876-.719-5.573-2.786-6.478-9.194-.632,6.08-1.438,8.385-6.4,9.079,4.324,1.734,5.844,2.363,6.616,9.39C1455.4,720.011,1456.348,719.382,1460.591,717.853Z" transform="translate(-1143.697 -559.728)" fill="#fff"/>
        <g id="Grupo_908699" data-name="Grupo 908699" transform="translate(368.914 231.019)">
          <path id="Trazado_643994" data-name="Trazado 643994" d="M1773.094,1187.768s-2.294,4.2-3.134,3.963a9.681,9.681,0,0,1-3.94-2.912,2.9,2.9,0,0,0-1.622-.917,18.372,18.372,0,0,0-3.187-.307c-1.157-.073-2.009-.24-1.885-1.031.175-1.116,2.082-2-2.379-4.949-.848-.561.995-1.888,2.785-2.24.145-.027.288-.05.432-.065a4.73,4.73,0,0,1,3,1.028,10.616,10.616,0,0,1,2.494,2.429c.9,1.32,2.092,1.6,3.8,2.5A23.831,23.831,0,0,1,1773.094,1187.768Z" transform="translate(-1756.735 -1162.547)" fill="#efaea6"/>
          <path id="Trazado_643995" data-name="Trazado 643995" d="M2007.01,1142.775l5.394-1.508c.05-2.461-2.582-7.631-2.972-9.835-.428-2.419-3.412-4.646-3.412-4.646l-1.812,5.074.115.426s.414,4.243-.334,6.177c-.428,1.106-.171,2.742-1.349,4.436C2001.756,1144.167,2007.01,1142.775,2007.01,1142.775Z" transform="translate(-1950.92 -1121.067)" fill="#efaea6"/>
          <path id="Trazado_643996" data-name="Trazado 643996" d="M2010.753,1154.1a19.419,19.419,0,0,1-.123,4.339c3.35,1.529,5.129-2.276,4.283-3.22a24.526,24.526,0,0,0-2.456-1.969Z" transform="translate(-1957.312 -1141.973)" fill="#1f1f3b" opacity="0.14"/>
          <g id="Grupo_908697" data-name="Grupo 908697" transform="translate(48.801)">
            <path id="Trazado_643997" data-name="Trazado 643997" d="M1992.527,1115.891c-2.006,4.292-3.938,4.364-2.489,5.077,1.116.55-1.831,3.6-.619,4.132,2.936,1.3,6.752.548,7.735-.8a33.063,33.063,0,0,0,2.445-5.625Z" transform="translate(-1989.121 -1112.46)" fill="#efaea6"/>
            <path id="Trazado_643998" data-name="Trazado 643998" d="M2004.08,1106.147c-.984-.262-1.106-.042-1.631-.639s.989-1.087-.153-1.792-2.458-1.325-2-2.843c.66-2.2,2.328-1.143,3.343-.45.653.446,1.477-1.108,2.88-.464,1.1.506.7,1.137,1.658,1.634.58.3,2.173-.265,2.813.873,1.186,2.11-.961,3.255-.106,5.343,1,2.434-4.42,4.6-4.695,3.963-.321-.741,1.186-2.244.818-2.886-.554-.968-.943-.287-1.889.109-1.01.422-2.367-.073-.958-1.107S2004.971,1106.384,2004.08,1106.147Z" transform="translate(-1997.874 -1099.553)" fill="#1f1f3b"/>
          </g>
          <path id="Trazado_643999" data-name="Trazado 643999" d="M1954.777,1814.895c-.242-2.4-.062-8.464-.062-8.464l6.619-.231-.356,9.113-4.375,2.9Z" transform="translate(-1913.089 -1657.804)" fill="#fff"/>
          <path id="Trazado_644000" data-name="Trazado 644000" d="M1907.3,1837.2c-.558-.427-1.8,1.071-2.057,2.077-.587,2.3-7.971,2.6-9.286,2.8-.679.107-1.773,3.492,1.606,3.478,2.922-.013,12.281-.02,15.478-.053a1.46,1.46,0,0,0,1.414-1.066c.575-2.224.645-7.44-.247-7.513C1913.008,1837.194,1909.43,1838.826,1907.3,1837.2Z" transform="translate(-1866.149 -1682.077)" fill="#1f1f3b"/>
          <path id="Trazado_644001" data-name="Trazado 644001" d="M2075.772,1814.955c-.256-2.394-.112-8.463-.112-8.463l6.617-.267-.3,9.114-4.357,2.921Z" transform="translate(-2008.654 -1657.824)" fill="#fff"/>
          <path id="Trazado_644002" data-name="Trazado 644002" d="M2028.394,1833.079c-.712.046-.583.711-.83,1.719-.566,2.307-8.97,3.8-10.283,4.023-.678.113-1.741,3.507,1.638,3.464,2.922-.037,12.28-.123,15.477-.184a1.459,1.459,0,0,0,1.4-1.078c.554-2.229.762-8.347-.131-8.412C2034.469,1832.89,2031.636,1832.87,2028.394,1833.079Z" transform="translate(-1962.005 -1678.669)" fill="#1f1f3b"/>
          <path id="Trazado_644003" data-name="Trazado 644003" d="M1979.7,1386.161c-.084,1.083-.2,2.262-.348,3.552a291.178,291.178,0,0,0-1.479,31.532c.293,10.318-.62,34.456-.62,38.153-3.134,1.374-5.074.946-9.552,0,0,0-.8-19.916-1.678-37.352-.716-14.157-.923-12.738-3.524-30.765l0,0c-.03.083-.663,1.84-1.586,4.541a239.216,239.216,0,0,0-6.855,23.141c-2.466,11.383-1.179,41.053-2.211,42.077-3.074,1.811-8.278,1.987-9.667-.528,0,0-.589-36.692.5-42.439.741-3.907,7-42.2,8.4-52.487,0,0,27.564-6.01,28.409,3.406a33.528,33.528,0,0,1,.134,3.509c-.022,1.462.059,2.817.138,4.3A65.7,65.7,0,0,1,1979.7,1386.161Z" transform="translate(-1903.114 -1308.229)" fill="#3b3b4d"/>
          <path id="Trazado_644004" data-name="Trazado 644004" d="M2050.792,1470.258s0,.005,0,.015a.689.689,0,0,1-.077-.052A.677.677,0,0,1,2050.792,1470.258Z" transform="translate(-1988.977 -1392.381)" fill="#1f1f3b" opacity="0.46"/>
          <path id="Trazado_644005" data-name="Trazado 644005" d="M2031.393,1477.376l0,0c-.03.084-1.241,3.494-2.164,6.2l1.083-10.9A24.211,24.211,0,0,0,2031.393,1477.376Z" transform="translate(-1972.004 -1394.323)" fill="#1f1f3b" opacity="0.54"/>
          <path id="Trazado_644006" data-name="Trazado 644006" d="M2075.977,1428.467c-.229-.051-10.853-2.316-12.29-7.636,0,0,9.236.793,12.191,1.109C2076.007,1424.368,2076.069,1427.093,2075.977,1428.467Z" transform="translate(-1999.227 -1353.363)" fill="#1f1f3b" opacity="0.35"/>
          <path id="Trazado_644007" data-name="Trazado 644007" d="M1994,1172.458c-2.388-.648-2.621,3.3-5.028,3.488-1.271.1-.99-.453-1.59-1.039-.37-.361-.716-.765-1.3-.166-11.881,12.191.49,42.928-1.022,45.073-1.237,1.754,8.818,5.583,15.132,4.043,8.66-2.112,8.134-11.517,7.883-13.313s-5.83-32.328-5.83-32.328A47.375,47.375,0,0,1,1994,1172.458Z" transform="translate(-1933.803 -1157.091)" fill="#fff"/>
          <path id="Trazado_644008" data-name="Trazado 644008" d="M1806.242,1186.315c.927-1.45,19.739,16.7,22.433,14.875,4.744-3.205,9.231-14.745,18.847-17.588a31.714,31.714,0,0,1-.393,7.361c-.909,7.031,3.049,12.034,2.247,20.542-1.038,11,1.671,22.243-1.038,24.724-1.579,1.446-3.767,1.723-6.41-1.02-4.157-4.318-1.425-18.485-1.046-21.849.148-1.31.472-3.075.75-4.9.344-2.275,1-4.98-.142-5.811-.328-.238-7.06,7.906-12.431,7.807-4-.073-22.287-14.681-22.862-15.321C1804.561,1193.308,1806.242,1186.315,1806.242,1186.315Z" transform="translate(-1795.245 -1165.952)" fill="#0069a8"/>
          <path id="Trazado_644009" data-name="Trazado 644009" d="M2087.478,1444.522c-.231.43-.943.43-.587.72s4.7,2.205,4.7,2.205.419.455.928-.295a2.944,2.944,0,0,0,.509-1.5Z" transform="translate(-2017.48 -1372.078)" fill="#e79e9c"/>
          <path id="Trazado_644010" data-name="Trazado 644010" d="M2059.156,1227.487c-3.786,2.368-8.822,2.439-12.155-1.07-2.762-2.91.033-6.677-2.011-13.464a86.158,86.158,0,0,1-3.271-15.206,192.822,192.822,0,0,1,.034-25.02,17.14,17.14,0,0,1,10.956,5.3c2.077,2.163,3.383,8.42,3.6,12.992.07,1.5.112,2.707.133,3.726.042,2.082-.008,3.381-.075,4.8-.027.567-.055,1.154-.084,1.817h0c-.03.748-.06,1.595-.079,2.62a37.525,37.525,0,0,0,1.239,7.475h0C2058.992,1218.135,2061.185,1226.218,2059.156,1227.487Z" transform="translate(-1981.557 -1157.36)" fill="#0069a8"/>
          <path id="Trazado_644011" data-name="Trazado 644011" d="M2054.973,1198.2c13.276,21.767,14,18.882,14.335,22.443s-8.78,22.838-8.78,22.838,5.47,3.052,6.077,2.116,12.322-22.5,11.856-27.134c-.513-5.107-14.789-24.936-16.469-26.884s-8.936-2.786-8.859.7A11.4,11.4,0,0,0,2054.973,1198.2Z" transform="translate(-1990.889 -1170.917)" fill="#0069a8"/>
          <path id="Trazado_644012" data-name="Trazado 644012" d="M2098.047,1297.943c-4.987-4.458-5.337-15.744-5.337-15.744l4.178,5.647v0c-.03.748-.06,1.595-.079,2.62A37.506,37.506,0,0,0,2098.047,1297.943Z" transform="translate(-2022.155 -1243.843)" fill="#1f1f3b" opacity="0.18"/>
          <path id="Trazado_644013" data-name="Trazado 644013" d="M2097.382,1365.239c-.342,1.579-6.526,14.011-6.526,14.011l6.016-16.193Z" transform="translate(-2020.691 -1307.721)" fill="#1f1f3b" opacity="0.18"/>
          <g id="Grupo_908698" data-name="Grupo 908698" transform="translate(54.565 17.65)">
            <path id="Trazado_644014" data-name="Trazado 644014" d="M2021.082,1190.29c.27-.123,1.927,5.085,4.975,7.214a7.888,7.888,0,0,0,2.788,1.28c2.968.661,9.916.615,13.759.757-.778-1.472-1.577-1.762-2.99-4.032-2.871.414-8.406.736-9.942.307a11.476,11.476,0,0,1-3.125-1.432,19.112,19.112,0,0,1-4.254-3.913c-.538-.649-.494-1.5-1.242-1.65C2020.057,1188.616,2020.735,1190.447,2021.082,1190.29Z" transform="translate(-2019.7 -1187.713)" fill="#1f1f39" opacity="0.18"/>
            <path id="Trazado_644015" data-name="Trazado 644015" d="M2016.667,1184.614a1.262,1.262,0,0,1,1.561-.975c.748.154.759.47,1.3,1.12,1.616,1.95,4.1,4.43,7.378,5.345s11.623-2.212,16.386-.322,5.535,6.568,12.48,8.883,15.112.568,17.157,1.277,3.243,1.38,3.052,2.2a4.185,4.185,0,0,1-3.042,2.377c-1.576.347-14.743-.92-18.1-1.95-5.488-1.682-9.477-7.544-13.04-8.462s-11.515-.1-15.715-1.04c-4.684-1.044-7.622-7.186-7.968-7.029a1.3,1.3,0,0,1-1.25.059C2016.458,1185.927,2016.559,1185.082,2016.667,1184.614Z" transform="translate(-2016.57 -1183.603)" fill="#f4ad00"/>
          </g>
        </g>
        <g id="Grupo_908701" data-name="Grupo 908701" transform="translate(319.086 56.654)">
          <g id="Grupo_908700" data-name="Grupo 908700" transform="translate(0)">
            <rect id="Rectángulo_304807" data-name="Rectángulo 304807" width="32.923" height="7.077" rx="3.538" transform="translate(84.144 39.286) rotate(-90)" fill="#7c7c89"/>
            <path id="Trazado_644016" data-name="Trazado 644016" d="M1819.395,278.647h0a5,5,0,0,1-5,5l-39.572-1.975-37.92,1.975a5,5,0,0,1-5-5h0a5,5,0,0,1,5-5l38.354,2.238,39.137-2.238A5,5,0,0,1,1819.395,278.647Z" transform="translate(-1687.282 -272.718)" fill="#595966"/>
            <ellipse id="Elipse_7534" data-name="Elipse 7534" cx="7.079" cy="6.156" rx="7.079" ry="6.156" transform="translate(80.649)" fill="#3b3b4c"/>
            <path id="Trazado_644017" data-name="Trazado 644017" d="M1936.091,279.381a2.48,2.48,0,1,0,2.995-.662A2.2,2.2,0,0,0,1936.091,279.381Z" transform="translate(-1848.479 -276.496)" fill="#fff" opacity="0.7"/>
            <path id="Trazado_644018" data-name="Trazado 644018" d="M1601.628,496.9c-1.179,0-2.431.019-3.743.067-11.512.415-27.5,2.973-37.025,13.249-5.663,6.112-12.177,16.656-13.514,33.05q-.192,2.3-.237,4.765l-.009.511c0,.31-.006.623-.006.936h21.163q.035-.738.071-1.447c.055-1.07.112-2.1.178-3.081.613-9.222,1.881-14.843,7.425-20.387,5.622-5.624,12.363-6.745,20.046-6.865h.06c.031,0,.06,0,.09,0q.958-.013,1.936-.009c3.23.012,6.621.14,10.153.14l80.409-.716h179.3l.773-19.708s-248.857-1.159-267.071-.5Z" transform="translate(-1541.29 -448.933)" fill="#97979e"/>
            <path id="Trazado_644019" data-name="Trazado 644019" d="M1809.626,440.975v17.478a19.587,19.587,0,0,0,.185,2.709c.015.109.031.22.048.332a19.684,19.684,0,0,0,19.448,16.638h14.816A19.687,19.687,0,0,0,1863.6,461.3a19.89,19.89,0,0,0,.206-2.848V440.975c0-.2,0-.4-.01-.6-.317-10.592-5.4-19.013-19.671-19.081h-14.816a25.789,25.789,0,0,0-11.132,2.654,14.667,14.667,0,0,0-6,5.828,22.845,22.845,0,0,0-2.541,10.664C1809.628,440.62,1809.626,440.8,1809.626,440.975Z" transform="translate(-1748.691 -389.365)" fill="#7c7c89"/>
            <path id="Trazado_644020" data-name="Trazado 644020" d="M1801.949,582.887c.02,0,.039,0,.06,0-.02,0-.041,0-.06,0Z" transform="translate(-1742.626 -517.021)" fill="#1f1f39" opacity="0.28"/>
            <rect id="Rectángulo_304808" data-name="Rectángulo 304808" width="38.063" height="5.99" rx="2.995" transform="translate(69.47 30.404)" fill="#595966"/>
            <rect id="Rectángulo_304809" data-name="Rectángulo 304809" width="28.961" height="5.99" rx="2.995" transform="translate(73.817 27.989)" fill="#595966"/>
            <path id="Trazado_644021" data-name="Trazado 644021" d="M1568.527,720.132c-.066.984-.123,2.01-.178,3.08q-.037.71-.071,1.447l-17.972-.44-3.185-.5.009-.511q.044-2.461.237-4.765C1550.791,719.214,1565.342,719.974,1568.527,720.132Z" transform="translate(-1541.312 -624.115)" fill="#fff" opacity="0.57"/>
            <rect id="Rectángulo_304810" data-name="Rectángulo 304810" width="12.05" height="31.482" rx="6.025" transform="translate(31.482 97.951) rotate(90)" fill="#595966"/>
          </g>
          <path id="Trazado_644022" data-name="Trazado 644022" d="M1809.626,472.883v17.478a19.588,19.588,0,0,0,.185,2.709c.015.109.031.22.048.332a19.684,19.684,0,0,0,19.448,16.638h14.816a19.627,19.627,0,0,0,14.532-6.409c-40.5-5.991-45.148-14.711-46.481-41.945a22.845,22.845,0,0,0-2.541,10.664C1809.628,472.528,1809.626,472.707,1809.626,472.883Z" transform="translate(-1748.691 -421.273)" fill="#1f1f3b" opacity="0.18"/>
          <path id="Trazado_644023" data-name="Trazado 644023" d="M1985.94,467.365a7.2,7.2,0,0,0-5.156-2.16" transform="translate(-1883.906 -424.053)" fill="none" stroke="#fff" stroke-linecap="round" stroke-linejoin="round" stroke-width="14" opacity="0.57"/>
          <path id="Trazado_644024" data-name="Trazado 644024" d="M2020.462,511.592c.158-2.449.649-9.513-.919-14.218" transform="translate(-1914.525 -449.467)" fill="none" stroke="#fff" stroke-linecap="round" stroke-linejoin="round" stroke-width="14" opacity="0.57"/>
        </g>
        <rect id="Rectángulo_304811" data-name="Rectángulo 304811" width="32.923" height="7.077" rx="3.538" transform="translate(202.184 96.777) rotate(-90)" fill="#7c7c89"/>
        <path id="Trazado_644025" data-name="Trazado 644025" d="M862.033,282.629h0a5,5,0,0,1-5,5l-39.572-1.975-37.92,1.975a5,5,0,0,1-5-5h0a5,5,0,0,1,5-5l38.354,2.238,39.137-2.238A5,5,0,0,1,862.033,282.629Z" transform="translate(-611.88 -219.21)" fill="#595966"/>
        <ellipse id="Elipse_7535" data-name="Elipse 7535" cx="7.079" cy="6.156" rx="7.079" ry="6.156" transform="translate(198.69 57.49)" fill="#3b3b4c"/>
        <path id="Trazado_644026" data-name="Trazado 644026" d="M978.73,283.363a2.48,2.48,0,1,0,2.995-.662A2.2,2.2,0,0,0,978.73,283.363Z" transform="translate(-773.077 -222.987)" fill="#fff" opacity="0.7"/>
        <path id="Trazado_644027" data-name="Trazado 644027" d="M111.62,500.881c1.179,0,2.431.019,3.743.067,11.512.415,27.5,2.973,37.026,13.249,5.663,6.111,12.176,16.656,13.514,33.05q.192,2.3.237,4.765,0,.255.009.511c0,.31.006.623.006.936H144.991q-.035-.738-.071-1.447c-.055-1.07-.112-2.1-.177-3.081-.613-9.223-1.881-14.843-7.425-20.387-5.622-5.624-12.362-6.745-20.046-6.866h-.15q-.959-.013-1.936-.009c-3.23.012-6.621.14-10.153.14l-80.409-.715h-179.3l-.773-19.708s248.857-1.159,267.071-.5Z" transform="translate(122.806 -395.424)" fill="#97979e"/>
        <path id="Trazado_644028" data-name="Trazado 644028" d="M852.265,444.956v17.478a19.588,19.588,0,0,0,.185,2.709c.015.109.031.22.048.332a19.685,19.685,0,0,0,19.448,16.638h14.815a19.687,19.687,0,0,0,19.475-16.831,19.89,19.89,0,0,0,.206-2.848V444.956c0-.2,0-.4-.011-.6-.317-10.592-5.4-19.013-19.671-19.081H871.946a25.789,25.789,0,0,0-11.132,2.654,14.666,14.666,0,0,0-6,5.828,22.843,22.843,0,0,0-2.541,10.664C852.267,444.6,852.265,444.78,852.265,444.956Z" transform="translate(-673.289 -335.856)" fill="#7c7c89"/>
        <path id="Trazado_644029" data-name="Trazado 644029" d="M844.588,586.869c.02,0,.039,0,.06,0-.02,0-.041,0-.06,0Z" transform="translate(-667.225 -463.513)" fill="#1f1f39" opacity="0.28"/>
        <rect id="Rectángulo_304812" data-name="Rectángulo 304812" width="38.063" height="5.99" rx="2.995" transform="translate(187.511 87.895)" fill="#595966"/>
        <rect id="Rectángulo_304813" data-name="Rectángulo 304813" width="28.961" height="5.99" rx="2.995" transform="translate(191.858 85.479)" fill="#595966"/>
        <path id="Trazado_644030" data-name="Trazado 644030" d="M852.265,476.864v17.478a19.588,19.588,0,0,0,.185,2.709c.015.109.031.22.048.332a19.685,19.685,0,0,0,19.448,16.638h14.815a19.627,19.627,0,0,0,14.532-6.409c-40.5-5.991-45.148-14.71-46.481-41.945a22.843,22.843,0,0,0-2.541,10.664C852.267,476.509,852.265,476.688,852.265,476.864Z" transform="translate(-673.289 -367.764)" fill="#1f1f3b" opacity="0.18"/>
        <path id="Trazado_644031" data-name="Trazado 644031" d="M1028.579,471.346a7.2,7.2,0,0,0-5.156-2.16" transform="translate(-808.504 -370.544)" fill="none" stroke="#fff" stroke-linecap="round" stroke-linejoin="round" stroke-width="14" opacity="0.57"/>
        <path id="Trazado_644032" data-name="Trazado 644032" d="M1063.1,515.573c.158-2.449.649-9.513-.919-14.218" transform="translate(-839.124 -395.957)" fill="none" stroke="#fff" stroke-linecap="round" stroke-linejoin="round" stroke-width="14" opacity="0.57"/>
        <rect id="Rectángulo_304814" data-name="Rectángulo 304814" width="630" height="420" transform="translate(0 0)" fill="none"/>
        <path id="Trazado_644033" data-name="Trazado 644033" d="M1293.8,724.113c-.066.984-.122,2.011-.178,3.081q-.037.71-.071,1.447l-17.972-.44-3.185-.5q0-.255.009-.511.044-2.461.238-4.765C1276.064,723.195,1290.615,723.955,1293.8,724.113Z" transform="translate(-1005.191 -570.606)" fill="#fff" opacity="0.57"/>
        <rect id="Rectángulo_304815" data-name="Rectángulo 304815" width="12.05" height="31.482" rx="6.025" transform="translate(294.764 155.442) rotate(90)" fill="#595966"/>
      </g>
    </g>
  </g>
</svg>
