<svg xmlns="http://www.w3.org/2000/svg" xmlns:xlink="http://www.w3.org/1999/xlink" width="630" height="370" viewBox="0 0 630 370">
  <defs>
    <clipPath id="clip-path">
      <rect id="_1321c3245ecb2c7bfcf2e50d5a062f3e" data-name="1321c3245ecb2c7bfcf2e50d5a062f3e" width="630" height="370" rx="19" transform="translate(705 3237.6)" fill="#a0e0eb"/>
    </clipPath>
  </defs>
  <g id="Enmascarar_grupo_113" data-name="Enmascarar grupo 113" transform="translate(-705 -3237.6)" clip-path="url(#clip-path)">
    <g id="Grupo_908651" data-name="Grupo 908651" transform="translate(555 3014)">
      <g id="_ÎÓÈ_1" data-name="—ÎÓÈ_1" transform="translate(150 150)">
        <rect id="Rectángulo_304797" data-name="Rectángulo 304797" width="630" height="630" fill="#a0e0eb"/>
      </g>
      <g id="_ÎÓÈ_3" data-name="—ÎÓÈ_3" transform="translate(360.51 220.297)">
        <g id="Grupo_908636" data-name="Grupo 908636" transform="translate(52.04 122.203)">
          <path id="Trazado_643905" data-name="Trazado 643905" d="M230.832,203.724a19.7,19.7,0,1,1-16.311-22.592A19.705,19.705,0,0,1,230.832,203.724Z" transform="translate(-191.675 -178.849)" fill="#f5950f"/>
          <path id="Trazado_643906" data-name="Trazado 643906" d="M230.883,203.4a19.7,19.7,0,1,1-16.311-22.586A19.7,19.7,0,0,1,230.883,203.4Z" transform="translate(-191.399 -180.556)" fill="#f5cd61"/>
          <path id="Trazado_643907" data-name="Trazado 643907" d="M221.828,198.442a14.751,14.751,0,1,1-12.216-16.909A14.75,14.75,0,0,1,221.828,198.442Z" transform="translate(-187.232 -176.389)" fill="#f5ab0f"/>
          <g id="Grupo_908635" data-name="Grupo 908635" transform="translate(13.624 9.32)">
            <path id="Trazado_643908" data-name="Trazado 643908" d="M200.722,182.035l-.346,2.161a6.319,6.319,0,0,0-1.707.1,6.5,6.5,0,0,0-1.292.41,4.672,4.672,0,0,0-.914.523,7.2,7.2,0,0,0-.567.46l1.348,1.657a6.607,6.607,0,0,1,1-.712,3.6,3.6,0,0,1,1.808-.422l-.781,4.864a10.314,10.314,0,0,0-1.833.309,6.114,6.114,0,0,0-1.607.687,4.1,4.1,0,0,0-1.241,1.2,4.531,4.531,0,0,0-.693,1.852,4.152,4.152,0,0,0,.076,1.726,4.23,4.23,0,0,0,.731,1.481,4.863,4.863,0,0,0,1.3,1.159,6.989,6.989,0,0,0,1.777.775l-.346,2.167,1.525.246.34-2.117a8.5,8.5,0,0,0,1.972-.032,7.1,7.1,0,0,0,1.632-.422,6.707,6.707,0,0,0,1.292-.661,7.6,7.6,0,0,0,.951-.737l-1.336-1.732a8.4,8.4,0,0,1-.819.611,5.978,5.978,0,0,1-.951.529,4.9,4.9,0,0,1-1.115.346,5.132,5.132,0,0,1-1.3.082l.888-5.481c.6-.069,1.2-.164,1.783-.277a5.739,5.739,0,0,0,1.619-.573,3.81,3.81,0,0,0,1.247-1.083,4.481,4.481,0,0,0,.655-3.364,3.627,3.627,0,0,0-.655-1.4,4.777,4.777,0,0,0-1.292-1.14,6.88,6.88,0,0,0-1.966-.781l.346-2.167ZM196.841,194a4.734,4.734,0,0,1,2.073-.762l-.813,5.04a3.034,3.034,0,0,1-1.7-1.077,2.415,2.415,0,0,1-.309-1.789A2.214,2.214,0,0,1,196.841,194Zm4.744-7.617a2.881,2.881,0,0,1,1.8,1.058,2.105,2.105,0,0,1,.34,1.506,3.081,3.081,0,0,1-.227.769,1.465,1.465,0,0,1-.479.567,3.148,3.148,0,0,1-.851.4,7.472,7.472,0,0,1-1.317.271Z" transform="translate(-193.837 -182.035)" fill="#f5cd61"/>
          </g>
        </g>
        <g id="Grupo_908638" data-name="Grupo 908638" transform="translate(104.815 127.155)">
          <path id="Trazado_643909" data-name="Trazado 643909" d="M239.209,204.51a19.7,19.7,0,1,1-16.317-22.592A19.705,19.705,0,0,1,239.209,204.51Z" transform="translate(-200.052 -179.635)" fill="#f5950f"/>
          <path id="Trazado_643910" data-name="Trazado 643910" d="M239.261,204.181A19.7,19.7,0,1,1,222.943,181.6,19.7,19.7,0,0,1,239.261,204.181Z" transform="translate(-199.776 -181.342)" fill="#f5cd61"/>
          <path id="Trazado_643911" data-name="Trazado 643911" d="M230.211,199.227a14.754,14.754,0,1,1-12.216-16.909A14.753,14.753,0,0,1,230.211,199.227Z" transform="translate(-195.615 -177.175)" fill="#f5ab0f"/>
          <g id="Grupo_908637" data-name="Grupo 908637" transform="translate(13.624 9.32)">
            <path id="Trazado_643912" data-name="Trazado 643912" d="M209.1,182.821l-.347,2.161a6.193,6.193,0,0,0-3,.51,4.489,4.489,0,0,0-.914.523,7.189,7.189,0,0,0-.567.46l1.348,1.657a6.616,6.616,0,0,1,1-.712,3.6,3.6,0,0,1,1.808-.422l-.781,4.864a10.227,10.227,0,0,0-1.833.309,6.252,6.252,0,0,0-1.613.687,4.152,4.152,0,0,0-1.235,1.2,4.441,4.441,0,0,0-.693,1.852,4.1,4.1,0,0,0,.806,3.207,4.863,4.863,0,0,0,1.3,1.159,6.989,6.989,0,0,0,1.776.775l-.346,2.167,1.518.246.346-2.117a8.5,8.5,0,0,0,1.972-.031,7.1,7.1,0,0,0,1.632-.422,6.7,6.7,0,0,0,1.292-.661,7.616,7.616,0,0,0,.951-.737l-1.336-1.733a8.371,8.371,0,0,1-.819.611,6.27,6.27,0,0,1-.951.529,4.848,4.848,0,0,1-1.121.347,5.085,5.085,0,0,1-1.3.082l.888-5.481c.6-.069,1.191-.164,1.783-.277a5.8,5.8,0,0,0,1.619-.573,3.939,3.939,0,0,0,1.247-1.084,4.079,4.079,0,0,0,.693-1.8,4.227,4.227,0,0,0-.038-1.569,3.721,3.721,0,0,0-.655-1.4,4.78,4.78,0,0,0-1.292-1.14,6.877,6.877,0,0,0-1.966-.781l.346-2.167Zm-3.887,11.964a4.769,4.769,0,0,1,2.079-.762l-.813,5.04a3.012,3.012,0,0,1-1.7-1.077,2.415,2.415,0,0,1-.309-1.789A2.236,2.236,0,0,1,205.212,194.785Zm4.75-7.617a2.88,2.88,0,0,1,1.8,1.058,2.106,2.106,0,0,1,.34,1.506,3.077,3.077,0,0,1-.227.768,1.431,1.431,0,0,1-.485.567,3.1,3.1,0,0,1-.844.4,7.471,7.471,0,0,1-1.317.271Z" transform="translate(-202.214 -182.821)" fill="#f5cd61"/>
          </g>
        </g>
        <g id="Grupo_908640" data-name="Grupo 908640" transform="translate(113.43 74.319)">
          <path id="Trazado_643913" data-name="Trazado 643913" d="M232.117,177.641a18.42,18.42,0,1,1-25.981,1.89A18.418,18.418,0,0,1,232.117,177.641Z" transform="translate(-200.195 -171.895)" fill="#f5950f"/>
          <path id="Trazado_643914" data-name="Trazado 643914" d="M231.886,177.441a18.42,18.42,0,1,1-25.981,1.89A18.424,18.424,0,0,1,231.886,177.441Z" transform="translate(-201.419 -172.955)" fill="#f5cd61"/>
          <path id="Trazado_643915" data-name="Trazado 643915" d="M224.967,177.048a13.793,13.793,0,1,1-19.454,1.417A13.8,13.8,0,0,1,224.967,177.048Z" transform="translate(-197.524 -169.06)" fill="#f5ab0f"/>
          <g id="Grupo_908639" data-name="Grupo 908639" transform="translate(10.389 11.527)">
            <path id="Trazado_643916" data-name="Trazado 643916" d="M203.068,176.2l1.55,1.342a6.113,6.113,0,0,0-.756,1.411,6.046,6.046,0,0,0-.3,1.222,4.527,4.527,0,0,0-.038.989c.025.277.057.5.088.674l1.984-.258a5.918,5.918,0,0,1-.082-1.14,3.37,3.37,0,0,1,.555-1.651l3.484,3.011a9.484,9.484,0,0,0-.649,1.613,5.572,5.572,0,0,0-.246,1.613,3.813,3.813,0,0,0,.346,1.581,4.284,4.284,0,0,0,1.134,1.462,3.889,3.889,0,0,0,1.411.787,3.982,3.982,0,0,0,1.537.139,4.481,4.481,0,0,0,1.562-.466,6.838,6.838,0,0,0,1.493-1.033l1.55,1.342.945-1.1-1.518-1.3a8.158,8.158,0,0,0,.945-1.588,7.324,7.324,0,0,0,.466-1.506,6.833,6.833,0,0,0,.107-1.355,6.2,6.2,0,0,0-.126-1.115l-2.029.208a9.281,9.281,0,0,1,.082.951,5.635,5.635,0,0,1-.044,1.021,5.025,5.025,0,0,1-.271,1.058,5.118,5.118,0,0,1-.573,1.077l-3.931-3.4c.239-.517.46-1.033.655-1.562a5.194,5.194,0,0,0,.34-1.562,3.615,3.615,0,0,0-.252-1.525,3.7,3.7,0,0,0-1.084-1.43,3.831,3.831,0,0,0-1.266-.743,3.464,3.464,0,0,0-1.443-.17,4.41,4.41,0,0,0-1.543.466,6.566,6.566,0,0,0-1.588,1.184l-1.55-1.342Zm7.617,8.971a4.466,4.466,0,0,1,.416-2.029l3.61,3.119a2.812,2.812,0,0,1-1.695.825,2.234,2.234,0,0,1-1.575-.636A2.059,2.059,0,0,1,210.685,185.169Zm-3.73-7.516a2.7,2.7,0,0,1,1.726-.914,1.951,1.951,0,0,1,1.361.472,2.7,2.7,0,0,1,.5.554,1.345,1.345,0,0,1,.208.662,2.8,2.8,0,0,1-.088.876,6.989,6.989,0,0,1-.435,1.178Z" transform="translate(-203.068 -174.785)" fill="#f5cd61"/>
          </g>
        </g>
        <g id="Grupo_908642" data-name="Grupo 908642" transform="translate(82.87 28.753)">
          <path id="Trazado_643917" data-name="Trazado 643917" d="M213.62,167.6a11.109,11.109,0,1,1-15.328,3.446A11.115,11.115,0,0,1,213.62,167.6Z" transform="translate(-196.568 -164.901)" fill="#f5950f"/>
          <path id="Trazado_643918" data-name="Trazado 643918" d="M213.719,167.446a11.109,11.109,0,1,1-15.328,3.446A11.107,11.107,0,0,1,213.719,167.446Z" transform="translate(-196.044 -165.722)" fill="#f5cd61"/>
          <path id="Trazado_643919" data-name="Trazado 643919" d="M209.88,167.456a8.321,8.321,0,1,1-11.479,2.583A8.32,8.32,0,0,1,209.88,167.456Z" transform="translate(-193.697 -163.376)" fill="#f5ab0f"/>
          <g id="Grupo_908641" data-name="Grupo 908641" transform="translate(7.472 5.832)">
            <path id="Trazado_643920" data-name="Trazado 643920" d="M198.124,171.921a2.229,2.229,0,0,0-.347.914,2.409,2.409,0,0,0,.05.926,2.732,2.732,0,0,0,.422.888,3.845,3.845,0,0,0,.744.8l-.655,1.046.731.466.649-1.021a4.881,4.881,0,0,0,1.027.416,4.062,4.062,0,0,0,.939.145,3.424,3.424,0,0,0,.819-.057,3.65,3.65,0,0,0,.655-.17l-.309-1.191c-.176.05-.365.094-.554.132a3.855,3.855,0,0,1-.617.063,2.676,2.676,0,0,1-.655-.069,2.787,2.787,0,0,1-.693-.246l1.676-2.646c.328.1.655.183.989.252a2.97,2.97,0,0,0,.964.063,2.227,2.227,0,0,0,.888-.284,2.346,2.346,0,0,0,.756-.775,2.31,2.31,0,0,0,.328-.825,1.936,1.936,0,0,0-.025-.869,2.737,2.737,0,0,0-.416-.882,3.962,3.962,0,0,0-.844-.844l.655-1.039-.731-.466-.661,1.046a3.465,3.465,0,0,0-.907-.328,3.754,3.754,0,0,0-.762-.076,2.577,2.577,0,0,0-.586.069,3.218,3.218,0,0,0-.4.113l.328,1.159a3.789,3.789,0,0,1,.674-.151,2.044,2.044,0,0,1,1.033.183l-1.487,2.35a5.794,5.794,0,0,0-1.014-.246,3.25,3.25,0,0,0-.989,0,2.3,2.3,0,0,0-.907.346A2.563,2.563,0,0,0,198.124,171.921Zm4.53-.624,1.392-2.205a1.616,1.616,0,0,1,.7.951,1.165,1.165,0,0,1-.157.851,1.888,1.888,0,0,1-.29.353.819.819,0,0,1-.378.183,1.54,1.54,0,0,1-.523.025A3.76,3.76,0,0,1,202.654,171.3Zm-3.692,2.249a1.353,1.353,0,0,1,.239-1,1.23,1.23,0,0,1,.7-.561,2.556,2.556,0,0,1,1.241.069l-1.537,2.432A1.768,1.768,0,0,1,198.962,173.546Z" transform="translate(-197.754 -166.648)" fill="#f5cd61"/>
          </g>
        </g>
        <g id="Grupo_908644" data-name="Grupo 908644" transform="translate(81.033 135.388)">
          <path id="Trazado_643921" data-name="Trazado 643921" d="M218.108,185.054a14.223,14.223,0,1,1-19.625,4.41A14.219,14.219,0,0,1,218.108,185.054Z" transform="translate(-196.277 -181.592)" fill="#f5950f"/>
          <path id="Trazado_643922" data-name="Trazado 643922" d="M218.234,184.857a14.221,14.221,0,1,1-19.624,4.41A14.217,14.217,0,0,1,218.234,184.857Z" transform="translate(-195.609 -182.648)" fill="#f5cd61"/>
          <path id="Trazado_643923" data-name="Trazado 643923" d="M213.317,184.868a10.65,10.65,0,1,1-14.692,3.3A10.641,10.641,0,0,1,213.317,184.868Z" transform="translate(-192.601 -179.642)" fill="#f5ab0f"/>
          <g id="Grupo_908643" data-name="Grupo 908643" transform="translate(9.565 7.463)">
            <path id="Trazado_643924" data-name="Trazado 643924" d="M198.267,190.587a2.9,2.9,0,0,0-.441,1.172,2.993,2.993,0,0,0,.063,1.184,3.673,3.673,0,0,0,.536,1.14,5.375,5.375,0,0,0,.958,1.021l-.844,1.336.945.6.825-1.3a6.437,6.437,0,0,0,1.317.536,5.371,5.371,0,0,0,1.2.183,5.054,5.054,0,0,0,1.046-.069,5.5,5.5,0,0,0,.838-.22l-.391-1.531c-.227.069-.466.126-.718.176a4.436,4.436,0,0,1-.781.076,3.551,3.551,0,0,1-.844-.082,3.819,3.819,0,0,1-.882-.315l2.142-3.389c.422.126.838.233,1.266.321a3.938,3.938,0,0,0,1.235.082,2.73,2.73,0,0,0,1.134-.365,3.249,3.249,0,0,0,1.392-2.047,2.573,2.573,0,0,0-.038-1.115,3.45,3.45,0,0,0-.529-1.128,5.016,5.016,0,0,0-1.084-1.077l.844-1.336-.939-.6-.85,1.342a4.425,4.425,0,0,0-1.159-.422,5,5,0,0,0-.97-.088,3.219,3.219,0,0,0-.756.082,5.094,5.094,0,0,0-.51.145l.422,1.48a4.754,4.754,0,0,1,.863-.183,2.533,2.533,0,0,1,1.323.227l-1.9,3.012a6.953,6.953,0,0,0-1.3-.315,4.494,4.494,0,0,0-1.266-.006,3.046,3.046,0,0,0-1.165.447A3.308,3.308,0,0,0,198.267,190.587Zm5.8-.794,1.789-2.823a2.074,2.074,0,0,1,.895,1.21,1.491,1.491,0,0,1-.208,1.1,2.053,2.053,0,0,1-.365.447,1.109,1.109,0,0,1-.479.239,2.147,2.147,0,0,1-.68.025A4.9,4.9,0,0,1,204.063,189.793Zm-4.725,2.879a1.744,1.744,0,0,1,.309-1.273,1.575,1.575,0,0,1,.895-.724,3.332,3.332,0,0,1,1.594.088l-1.972,3.112A2.215,2.215,0,0,1,199.338,192.672Z" transform="translate(-197.795 -183.833)" fill="#f5cd61"/>
          </g>
        </g>
        <g id="Grupo_908646" data-name="Grupo 908646" transform="translate(120.785 121.702)">
          <path id="Trazado_643925" data-name="Trazado 643925" d="M224.413,182.879a14.221,14.221,0,1,1-19.618,4.416A14.222,14.222,0,0,1,224.413,182.879Z" transform="translate(-202.587 -179.421)" fill="#f5950f"/>
          <path id="Trazado_643926" data-name="Trazado 643926" d="M224.545,182.68a14.223,14.223,0,1,1-19.624,4.41A14.225,14.225,0,0,1,224.545,182.68Z" transform="translate(-201.919 -180.476)" fill="#f5cd61"/>
          <path id="Trazado_643927" data-name="Trazado 643927" d="M219.626,182.7a10.648,10.648,0,1,1-14.692,3.3A10.648,10.648,0,0,1,219.626,182.7Z" transform="translate(-198.914 -177.47)" fill="#f5ab0f"/>
          <g id="Grupo_908645" data-name="Grupo 908645" transform="translate(9.56 7.465)">
            <path id="Trazado_643928" data-name="Trazado 643928" d="M204.577,188.415a2.969,2.969,0,0,0-.441,1.165,3.028,3.028,0,0,0,.063,1.191,3.575,3.575,0,0,0,.535,1.134,5.084,5.084,0,0,0,.964,1.027l-.844,1.336.939.592.825-1.3a6.093,6.093,0,0,0,1.317.536,5.461,5.461,0,0,0,1.2.189,4.617,4.617,0,0,0,1.046-.076,4.945,4.945,0,0,0,.844-.22l-.4-1.525a5.977,5.977,0,0,1-.718.17,4.431,4.431,0,0,1-.781.082,3.79,3.79,0,0,1-1.726-.4l2.142-3.383q.633.179,1.266.321a4.141,4.141,0,0,0,1.235.082,2.8,2.8,0,0,0,1.134-.365,2.885,2.885,0,0,0,.97-1,2.957,2.957,0,0,0,.422-1.052,2.6,2.6,0,0,0-.038-1.121,3.422,3.422,0,0,0-.529-1.121,5.009,5.009,0,0,0-1.084-1.077l.844-1.336-.939-.6L211.985,183a4.75,4.75,0,0,0-1.165-.416,4.543,4.543,0,0,0-.97-.094,3.188,3.188,0,0,0-.756.088c-.208.05-.378.1-.5.145l.422,1.481a5.111,5.111,0,0,1,.863-.189,2.6,2.6,0,0,1,1.317.233l-1.9,3.005a7.347,7.347,0,0,0-1.3-.315,4.274,4.274,0,0,0-1.266,0,3.072,3.072,0,0,0-1.165.441A3.4,3.4,0,0,0,204.577,188.415Zm5.8-.8,1.783-2.822a2.067,2.067,0,0,1,.895,1.216,1.508,1.508,0,0,1-.2,1.09,2.1,2.1,0,0,1-.372.447.961.961,0,0,1-.479.239,2.1,2.1,0,0,1-.674.031A4.889,4.889,0,0,1,210.379,187.615Zm-4.725,2.885a1.723,1.723,0,0,1,.3-1.279,1.61,1.61,0,0,1,.895-.718,3.313,3.313,0,0,1,1.594.082l-1.972,3.119A2.186,2.186,0,0,1,205.654,190.5Z" transform="translate(-204.104 -181.661)" fill="#f5cd61"/>
          </g>
        </g>
        <g id="Grupo_908648" data-name="Grupo 908648" transform="translate(120.185)">
          <path id="Trazado_643929" data-name="Trazado 643929" d="M219.543,163.038a11.109,11.109,0,1,1-15.328,3.446A11.107,11.107,0,0,1,219.543,163.038Z" transform="translate(-202.491 -160.331)" fill="#f5950f"/>
          <path id="Trazado_643930" data-name="Trazado 643930" d="M219.641,162.883a11.109,11.109,0,1,1-15.328,3.446A11.107,11.107,0,0,1,219.641,162.883Z" transform="translate(-201.972 -161.158)" fill="#f5cd61"/>
          <path id="Trazado_643931" data-name="Trazado 643931" d="M215.8,162.893a8.317,8.317,0,1,1-11.479,2.577A8.309,8.309,0,0,1,215.8,162.893Z" transform="translate(-199.624 -158.807)" fill="#f5ab0f"/>
          <g id="Grupo_908647" data-name="Grupo 908647" transform="translate(7.47 5.832)">
            <path id="Trazado_643932" data-name="Trazado 643932" d="M204.042,167.357a2.341,2.341,0,0,0-.29,1.846,2.7,2.7,0,0,0,.416.888,4.032,4.032,0,0,0,.75.794l-.661,1.046.737.466.643-1.021a4.969,4.969,0,0,0,1.033.422,4.369,4.369,0,0,0,.939.145,4.148,4.148,0,0,0,.813-.057,4.509,4.509,0,0,0,.662-.176l-.309-1.191a4.889,4.889,0,0,1-.561.139,3.81,3.81,0,0,1-.611.057,2.919,2.919,0,0,1-.655-.063,3.27,3.27,0,0,1-.693-.246l1.676-2.646c.328.094.655.176.989.252a3.345,3.345,0,0,0,.964.063,2.146,2.146,0,0,0,.882-.29,2.191,2.191,0,0,0,.762-.775,2.4,2.4,0,0,0,.328-.819,1.966,1.966,0,0,0-.031-.876,2.47,2.47,0,0,0-.416-.876,3.82,3.82,0,0,0-.844-.844l.662-1.046-.737-.466-.661,1.046a3.386,3.386,0,0,0-1.663-.4,2.616,2.616,0,0,0-.592.063c-.164.044-.3.082-.4.12l.334,1.153a3.268,3.268,0,0,1,.674-.145,2.04,2.04,0,0,1,1.033.176l-1.487,2.35a6.012,6.012,0,0,0-1.021-.246,3.421,3.421,0,0,0-.983,0,2.383,2.383,0,0,0-.914.346A2.633,2.633,0,0,0,204.042,167.357Zm4.53-.617,1.4-2.2a1.65,1.65,0,0,1,.7.945,1.183,1.183,0,0,1-.164.857,1.609,1.609,0,0,1-.284.346.859.859,0,0,1-.378.189,1.781,1.781,0,0,1-.529.019A4.31,4.31,0,0,1,208.572,166.74Zm-3.692,2.249a1.375,1.375,0,0,1,.239-1,1.31,1.31,0,0,1,.7-.567,2.664,2.664,0,0,1,1.247.069l-1.537,2.432A1.735,1.735,0,0,1,204.88,168.989Z" transform="translate(-203.677 -162.084)" fill="#f5cd61"/>
          </g>
        </g>
        <path id="Trazado_643933" data-name="Trazado 643933" d="M259.51,214.064a10.884,10.884,0,0,1,3.906,13.753,10.587,10.587,0,0,1-15.347,3.994l-42.418-28.7a10.885,10.885,0,0,1-3.9-13.759,10.58,10.58,0,0,1,15.34-3.994Z" transform="translate(-91.957 -42.435)" fill="#fbb03f"/>
        <g id="Grupo_908650" data-name="Grupo 908650" transform="translate(0 132.383)">
          <path id="Trazado_643934" data-name="Trazado 643934" d="M292.308,197.868a4.227,4.227,0,0,0-4.038-6.212,15.68,15.68,0,0,1-12.524-4.542l-.34-.34a15.719,15.719,0,0,0-22.226,0l-.34.34a15.715,15.715,0,0,1-22.233,0h0a15.727,15.727,0,0,0-22.233,0h0a15.674,15.674,0,0,1-12.518,4.542,4.228,4.228,0,0,0-4.045,6.212l36.716,69.665a15.72,15.72,0,0,0,27.065,0Z" transform="translate(-141.551 -182.171)" fill="#415064"/>
          <path id="Trazado_643935" data-name="Trazado 643935" d="M382.045,295.2c13.684,61.236-33.094,103.163-98.122,102.457-65.022.706-111.8-41.221-98.122-102.457,14.647-60.864,61.425-105.109,98.122-104.7C320.626,190.082,367.4,234.333,382.045,295.2Z" transform="translate(-183.414 -138.059)" fill="#415064"/>
          <path id="Trazado_643936" data-name="Trazado 643936" d="M297.511,232.188a168.946,168.946,0,0,0-16.134-41.694c-36.294,1.569-81.283,45.152-95.6,104.63-3.15,14.118-3.055,27.2-.3,38.972,4.536.4,9.167.6,13.91.548C264.417,335.351,311.188,293.418,297.511,232.188Z" transform="translate(-183.413 -138.057)" fill="#677383"/>
          <path id="Trazado_643937" data-name="Trazado 643937" d="M355.133,287.663c-10.678-44.39-38.449-79.915-66.937-95.747,25.049,17.829,48.113,50.331,57.62,89.857C359.5,343,312.722,384.929,247.693,384.23c-22.5.239-42.821-4.631-59.2-13.633,17.684,12.739,41.517,19.82,68.519,19.524C322.039,390.826,368.817,348.9,355.133,287.663Z" transform="translate(-156.503 -130.526)" fill="#415064" opacity="0.25" style="mix-blend-mode: multiply;isolation: isolate"/>
          <path id="Trazado_643938" data-name="Trazado 643938" d="M221.469,196.614a4.481,4.481,0,0,0-4.977-3.906,4.413,4.413,0,0,0-1.638.542,4.254,4.254,0,0,0-1.046-.473,4.492,4.492,0,0,0-5.342,3.4l-7.4,33.239a4.476,4.476,0,1,0,8.738,1.947l4.435-19.921,7.6,63.139a4.5,4.5,0,0,0,4.983,3.912h0a4.491,4.491,0,0,0,3.906-4.983Z" transform="translate(-90.443 -126.529)" fill="#f5c400"/>
          <path id="Trazado_643939" data-name="Trazado 643939" d="M261.836,199.447H197.9a4.493,4.493,0,0,1-4.479-4.479h0a4.486,4.486,0,0,1,4.473-4.473h63.939a4.488,4.488,0,0,1,4.479,4.473h0A4.493,4.493,0,0,1,261.836,199.447Z" transform="translate(-130.363 -138.057)" fill="#f5a900"/>
          <path id="Trazado_643940" data-name="Trazado 643940" d="M274.021,200.868H196.569a4.492,4.492,0,0,1-4.479-4.473v-.006a4.491,4.491,0,0,1,4.479-4.473h77.452A4.493,4.493,0,0,1,278.5,196.4h0A4.492,4.492,0,0,1,274.021,200.868Z" transform="translate(-137.433 -130.526)" fill="#f5a900"/>
          <g id="Grupo_908649" data-name="Grupo 908649" transform="translate(71.963 109.875)">
            <path id="Trazado_643941" data-name="Trazado 643941" d="M202.573,269.7a45.435,45.435,0,0,0,3.5,3.572,31.956,31.956,0,0,0,4.234,3.251,25.144,25.144,0,0,0,5.141,2.514,26.05,26.05,0,0,0,6.237,1.342l-.252-27.185c-2.86-.781-5.664-1.67-8.442-2.665a27.313,27.313,0,0,1-7.409-3.957,18.71,18.71,0,0,1-5.235-6.161,19.561,19.561,0,0,1-2.035-9.185,20.335,20.335,0,0,1,1.329-7.579,17.655,17.655,0,0,1,4.208-6.319,23.032,23.032,0,0,1,7.094-4.574,33.548,33.548,0,0,1,10.1-2.337l-.1-10.729,7.56-.076.094,10.729a31.111,31.111,0,0,1,8.177,1.751,32.217,32.217,0,0,1,5.941,2.936,22.939,22.939,0,0,1,4.057,3.194c1.021,1.039,1.821,1.928,2.4,2.652l-7.743,7.025a32.836,32.836,0,0,0-4.3-4.171,17.51,17.51,0,0,0-8.442-3.389l.221,24.129a49.711,49.711,0,0,1,8.618,2.848,29.567,29.567,0,0,1,7.3,4.5,20.364,20.364,0,0,1,5.122,6.722,22.34,22.34,0,0,1,1.984,9.488,20.09,20.09,0,0,1-1.644,8.316,20.4,20.4,0,0,1-4.631,6.621,23.99,23.99,0,0,1-7.151,4.637,33.994,33.994,0,0,1-9.185,2.457l.1,10.729-7.554.075-.094-10.483a41.7,41.7,0,0,1-9.526-1.619,36.294,36.294,0,0,1-7.585-3.225,33.408,33.408,0,0,1-5.771-4.152,34.226,34.226,0,0,1-4.057-4.29Zm18.553-49.663q-6.709.671-9.469,3.811a10.192,10.192,0,0,0-2.747,7.037,14.213,14.213,0,0,0,.529,3.887,7.012,7.012,0,0,0,1.922,3.093,14.733,14.733,0,0,0,3.8,2.589,36.067,36.067,0,0,0,6.18,2.262Zm8.108,60.146q6.218-.907,9.053-3.982c1.884-2.054,2.816-4.857,2.785-8.436a10.813,10.813,0,0,0-2.564-7.352q-2.523-2.825-9.507-5.216Z" transform="translate(-194.837 -199.612)" fill="#fff"/>
          </g>
        </g>
        <path id="Trazado_643942" data-name="Trazado 643942" d="M279.051,220.344v1.036l.008,19.659-72.381,13.64-.026-67.575,72.4,25.617Z" transform="translate(-60.256 -23.652)" fill="#fbb03f"/>
        <path id="Trazado_643943" data-name="Trazado 643943" d="M279.047,212.72l-72.4-25.617,72.391,13.583Z" transform="translate(-60.256 -23.652)" fill="#fcba4f"/>
        <rect id="Rectángulo_304798" data-name="Rectángulo 304798" width="12.584" height="50.453" transform="translate(209.148 172.193)" fill="#fff"/>
        <rect id="Rectángulo_304799" data-name="Rectángulo 304799" width="12.584" height="25.226" transform="translate(209.153 197.42)" fill="#999" opacity="0.15" style="mix-blend-mode: multiply;isolation: isolate"/>
        <rect id="Rectángulo_304800" data-name="Rectángulo 304800" width="200.695" height="54.378" transform="translate(218.795 170.197)" fill="#415064"/>
        <rect id="Rectángulo_304801" data-name="Rectángulo 304801" width="200.7" height="27.188" transform="translate(218.79 170.197)" fill="#fff" opacity="0.15" style="mix-blend-mode: screen;isolation: isolate"/>
        <path id="Trazado_643944" data-name="Trazado 643944" d="M221.866,197.884a2.41,2.41,0,1,1-2.413-2.413A2.417,2.417,0,0,1,221.866,197.884Z" transform="translate(-5.161 20.699)" fill="#415064"/>
        <path id="Trazado_643945" data-name="Trazado 643945" d="M223.819,197.884a2.413,2.413,0,1,1-2.413-2.413A2.417,2.417,0,0,1,223.819,197.884Z" transform="translate(5.153 20.699)" fill="#fff"/>
        <path id="Trazado_643946" data-name="Trazado 643946" d="M225.315,197.884a2.41,2.41,0,1,1-2.407-2.413A2.416,2.416,0,0,1,225.315,197.884Z" transform="translate(13.119 20.699)" fill="#fff"/>
        <path id="Trazado_643947" data-name="Trazado 643947" d="M274.4,254.677h0l-43.8.019a7.985,7.985,0,0,1-.013-15.97l39-.013a.617.617,0,0,0-.006-1.235l-56.3.019a8,8,0,0,1-7.988-7.982h0a8.014,8.014,0,0,1,7.982-7.989l56.309-.019a.612.612,0,0,0,.611-.611.618.618,0,0,0-.617-.617l-68.3.025a8.019,8.019,0,0,1-7.995-7.982h0a8.007,8.007,0,0,1,7.988-7.989l68.3-.025a.618.618,0,0,0,.617-.617h0a.613.613,0,0,0-.617-.611l-61.5.019a8.01,8.01,0,0,1-7.988-7.982h0a8.01,8.01,0,0,1,7.982-7.988l62.118-.025h7.554l.025,67.574Z" transform="translate(-131.126 -23.652)" fill="#fcba4f"/>
        <path id="Trazado_643948" data-name="Trazado 643948" d="M222.959,190.466l-.038.044a9.081,9.081,0,0,0-2.854,5.777l-.447,6.313-.447-6.319a9.08,9.08,0,0,0-2.854-5.771l-.044-.044a9.1,9.1,0,0,0-5.771-2.854l-6.319-.447,6.319-.447a9.1,9.1,0,0,0,5.777-2.854l.038-.038a9.1,9.1,0,0,0,2.854-5.777l.447-6.319.447,6.319a9.1,9.1,0,0,0,2.854,5.777l.044.038a9.066,9.066,0,0,0,5.771,2.854l6.319.454-6.319.447A9.12,9.12,0,0,0,222.959,190.466Z" transform="translate(-73.33 -105.128)" fill="#fff"/>
        <path id="Trazado_643949" data-name="Trazado 643949" d="M204.539,192.509l-.019.019a6.517,6.517,0,0,0-2.048,4.133l-.321,4.517-.321-4.517a6.47,6.47,0,0,0-2.035-4.12l-.031-.032a6.5,6.5,0,0,0-4.126-2.035l-4.511-.328,4.511-.315a6.509,6.509,0,0,0,4.126-2.041l.031-.025a6.455,6.455,0,0,0,2.035-4.126l.321-4.511.321,4.511a6.518,6.518,0,0,0,2.035,4.126l.032.025a6.463,6.463,0,0,0,4.126,2.041l4.511.321-4.511.321A6.486,6.486,0,0,0,204.539,192.509Z" transform="translate(-142.542 -65.919)" fill="#fff"/>
        <path id="Trazado_643950" data-name="Trazado 643950" d="M207.735,179.666l-.032.025a6.074,6.074,0,0,0-1.9,3.849l-.3,4.215-.3-4.215a6.066,6.066,0,0,0-1.9-3.849l-.031-.025a6.06,6.06,0,0,0-3.849-1.9l-4.208-.3,4.208-.3a6.06,6.06,0,0,0,3.849-1.9l.031-.025a6.105,6.105,0,0,0,1.9-3.849l.3-4.215.3,4.215a6.067,6.067,0,0,0,1.9,3.849l.032.025a6.06,6.06,0,0,0,3.849,1.9l4.208.3-4.208.3A6.045,6.045,0,0,0,207.735,179.666Z" transform="translate(-120.86 -129.281)" fill="#fff"/>
      </g>
    </g>
  </g>
</svg>
