<svg xmlns="http://www.w3.org/2000/svg" width="189.433" height="189.433" viewBox="0 0 189.433 189.433">
  <g id="Grupo_909128" data-name="Grupo 909128" transform="translate(-359.567 -6090.203)">
    <circle id="Elipse_7426" data-name="Elipse 7426" cx="94.716" cy="94.716" r="94.716" transform="translate(359.567 6090.203)" fill="#179587"/>
    <g id="Grupo_906970" data-name="Grupo 906970" transform="translate(-892.08 6179.195)">
      <path id="Trazado_640985" data-name="Trazado 640985" d="M1276.08-4.995a5.531,5.531,0,0,1,3.619-3.019,5.465,5.465,0,0,1,3.067.557,43.7,43.7,0,0,1,4.121,2.479c2.563,1.562,5.119,3.135,7.7,4.669,2.6,1.543,5.23,3.025,7.826,4.57,2.034,1.21,4.021,2.5,6.055,3.709,1.837,1.093,3.726,2.1,5.563,3.193,1.225.729,2.391,1.556,3.6,2.312.878.549,1.814,1.011,2.673,1.587a5.746,5.746,0,0,1,2.7,5.309,1.415,1.415,0,0,0,1.02,1.587c.785.315,1.517.781,2.318,1.03,1.761.547,3.369-.075,5-.72a48.711,48.711,0,0,1,5.254-1.757,9.763,9.763,0,0,1,3.522-.429,10.69,10.69,0,0,1,4.981,1.649,3.261,3.261,0,0,0,2.723.445c2.871-.711,5.75-1.4,8.653-1.957a10.157,10.157,0,0,1,5.068.772c.5.164.945.491,1.446.636,1.728.5,3.266,1.673,5.155,1.561a19.514,19.514,0,0,0,2.611-.51c-.044-.294-.061-.546-.121-.786a6.328,6.328,0,0,1,2.118-6.565,24.112,24.112,0,0,1,3.682-2.279c2.484-1.52,4.954-3.062,7.448-4.565,1.388-.836,2.826-1.587,4.213-2.425,1.66-1,3.274-2.081,4.937-3.078,1.042-.624,2.152-1.133,3.2-1.739,1.237-.713,2.443-1.477,3.664-2.217,1-.608,2-1.22,3.005-1.821,1.306-.78,2.619-1.546,3.926-2.323q1.517-.9,3.028-1.812c.317-.191.63-.391.942-.593a4.047,4.047,0,0,1,4.381.1,3.481,3.481,0,0,1,1.906,2.6c.068,1.5.193,3,.195,4.494q.024,18.7.016,37.4a7.506,7.506,0,0,0,.166,1.12v.986c-.125.172-.325.329-.362.518a7.06,7.06,0,0,1-3.055,4.64c-.84.577-1.686,1.146-2.549,1.687a16.156,16.156,0,0,1-2.425,1.387c-.94.379-1.72-.207-2.444-.76-.295-1.152-.435-2.292.743-3.056a27.8,27.8,0,0,1,2.836-1.631,5.231,5.231,0,0,0,3.133-5.178c-.044-12.933-.02-25.865-.02-38.8,0-1.958-.009-1.973-1.652-1.038-2.591,1.476-5.186,2.948-7.747,4.475-2.164,1.291-4.283,2.657-6.422,3.99-1.828,1.038-3.668,2.055-5.48,3.119-2.146,1.26-4.265,2.567-6.4,3.843-1.012.606-2.042,1.181-3.056,1.785-2.109,1.257-4.207,2.533-6.32,3.784-1.476.875-1.961,2.015-1.356,3.488a15.217,15.217,0,0,0,1.126,1.869c.75,1.26,1.485,2.528,2.236,3.787.617,1.034,1.25,2.059,1.871,3.092q1.134,1.889,2.256,3.787c.873,1.482,1.726,2.976,2.6,4.456,1.268,2.145,2.537,4.289,3.829,6.418a16.965,16.965,0,0,0,1.056,1.4c.683,1.223,1.317,2.475,2.061,3.659.855,1.361,1.87,1.7,3.25,1.027a22.3,22.3,0,0,0,3.007-1.831c1.538-1.074,2.552-1.2,3.7.334.331,1.02.339,1.935-.724,2.58-.981.6-1.922,1.257-2.908,1.844a8.114,8.114,0,0,1-3.963,1.491,6.193,6.193,0,0,1-4.448-1.4,1.458,1.458,0,0,0-1.178-.066,7.76,7.76,0,0,0-1.409.8c1.9,2.98,2.513,5.992.256,9.067-2.2,3-5.109,3.707-8.62,2.626a7.7,7.7,0,0,1-3.072,5.291,8.393,8.393,0,0,1-6.21,1.086,6.935,6.935,0,0,1-3.761,5.977c-2.469,1.353-4.971,1.038-7.448-.154a7.265,7.265,0,0,1-10.066,6,51.312,51.312,0,0,1-5.844-3.4.95.95,0,0,0-.78.127c-1.045.653-1.978,1.673-3.107,1.97a7.087,7.087,0,0,1-8.669-3.629c-.243-.435-.437-.647-1.051-.536a15.971,15.971,0,0,1-3.416.248,6.407,6.407,0,0,1-3.911-1.91,6.769,6.769,0,0,1-2.21-4.188,7.217,7.217,0,0,1-5.53-1.295,8.808,8.808,0,0,1-3.142-4.819,4.373,4.373,0,0,1-1.04.093,10.979,10.979,0,0,1-3.147-.609A7.558,7.558,0,0,1,1302.8,62.7a6.73,6.73,0,0,1-.162-5.123,25.24,25.24,0,0,1,2.723-4.351,2.573,2.573,0,0,0,.2-.577,2.245,2.245,0,0,0-.688.19,15.574,15.574,0,0,1-2.61,1.958,6.831,6.831,0,0,1-6.656-.707q-2.506-1.529-5.045-3c-1.053-.61-2.166-1.118-3.2-1.751-2.028-1.236-3.981-2.6-6.043-3.774-1.7-.969-3.294-1.961-4.122-3.849a19.969,19.969,0,0,0-1.115-1.942Zm66.414,29.841a26,26,0,0,0-3.418-.637,6.378,6.378,0,0,0-2.226.508c-2.287.742-4.553,1.552-6.845,2.282-2.816.9-5.329-.017-7.781-1.355-.406-.222-1.073-.751-1.393.27a6.666,6.666,0,0,1-.769,1.393c-1.521,2.482-3.077,4.942-4.566,7.443-1.269,2.132-2.435,4.324-3.7,6.459-1.522,2.573-3.1,5.114-4.63,7.633.749.572,1.361,1.073,2.319.569a6.6,6.6,0,0,1,4.037-.656c2.475.308,4.055,1.761,5.445,3.562a7.456,7.456,0,0,1,6.691-1.977,7.056,7.056,0,0,1,5.792,5.849,7.672,7.672,0,0,1,6.924,2.77c1.819,2.163,1.839,4.676,1.164,7.246,5.4,1.186,7.684,6.538,5,11.391,1.473.844,3,1.607,4.4,2.561a3.863,3.863,0,0,0,3.184.642c1.561-.334,1.981-1.584,2.162-2.876a2.7,2.7,0,0,0-1.175-2.565c-1.509-1.038-3.127-1.918-4.714-2.84a2.231,2.231,0,0,1-.825-2.22c.611-1.874,2.283-1.738,3.577-.986,1.4.814,2.778,1.664,4.171,2.489,1.645.974,3.339,1.871,4.932,2.922a3.185,3.185,0,0,0,4.493-.494c1.417-1.7.874-3.512-.933-4.6-.894-.537-1.814-1.029-2.706-1.568q-3.274-1.978-6.533-3.986a16.4,16.4,0,0,1-2.3-1.555,2.112,2.112,0,0,1,.154-2.357,2.213,2.213,0,0,1,2.88-.491c1.026.652,2.1,1.228,3.148,1.85,1.016.6,2.019,1.232,3.037,1.835,1.289.762,2.593,1.5,3.881,2.264,1.037.615,2.046,1.28,3.095,1.873,1.287.727,2.471,1.677,4.182,1.1a2.963,2.963,0,0,0,1.975-2.1,2.775,2.775,0,0,0-.953-3.051,45.724,45.724,0,0,0-4.19-2.639c-1.457-.891-2.913-1.782-4.386-2.649-1.379-.813-2.789-1.572-4.162-2.393-1.008-.6-2-1.232-2.956-1.919a2.255,2.255,0,0,1-.317-2.6,2.9,2.9,0,0,1,2.437-.791c1.787.974,3.575,1.949,5.325,2.987,2.561,1.52,5.078,3.114,7.634,4.642,2.433,1.454,4.9,2.847,7.336,4.3a2.923,2.923,0,0,0,4.039-1.443c.725-2.182.26-3.235-1.615-4.364-1.282-.773-2.611-1.471-3.9-2.231-2.274-1.339-4.529-2.71-6.8-4.05-2.07-1.221-4.163-2.406-6.232-3.63-1.5-.887-2.982-1.809-4.469-2.72-1.287-.789-2.562-1.6-3.858-2.373-.966-.578-1.945-1.139-2.942-1.66-.549-.288-.962-.216-1.138.532a4.5,4.5,0,0,1-.7,1.315,9.319,9.319,0,0,1-8.541,4.388,4.55,4.55,0,0,1-4.07-4.265c.016-3.615-.015-7.23.033-10.843a6.117,6.117,0,0,1,.46-2.121C1341.176,27.611,1341.806,26.352,1342.494,24.846ZM1280.347-3.907a9.123,9.123,0,0,0-.121.956q0,20.454.011,40.908a3.861,3.861,0,0,0,2.219,3.491c1.088.606,2.143,1.27,3.215,1.9q1.858,1.1,3.722,2.189c.993.581,2,1.136,2.983,1.736,1.986,1.213,3.935,2.484,5.943,3.659a2.459,2.459,0,0,0,3.171-.636c.779-1.126,1.45-2.33,2.139-3.517,1.029-1.773,2.016-3.57,3.051-5.34.8-1.375,1.659-2.719,2.48-4.083,1.12-1.86,2.227-3.728,3.344-5.59q1.773-2.959,3.553-5.915c.82-1.362,1.623-2.736,2.474-4.078a2.476,2.476,0,0,0-.16-2.8,16.855,16.855,0,0,0-2.547-1.842c-2.078-1.253-4.208-2.42-6.292-3.664-2.546-1.521-5.056-3.1-7.6-4.627-2.055-1.23-4.151-2.391-6.208-3.619-2.567-1.534-5.113-3.1-7.664-4.661-1.359-.831-2.693-1.7-4.069-2.507C1282.861-2.608,1281.687-3.19,1280.347-3.907Zm106.617,53.947c-1.052-1.775-2.1-3.52-3.124-5.278-.634-1.086-1.217-2.2-1.851-3.286-.776-1.328-1.59-2.632-2.37-3.958-.578-.983-1.114-1.991-1.7-2.972-.819-1.384-1.666-2.752-2.5-4.129-.732-1.216-1.434-2.452-2.208-3.641a1.026,1.026,0,0,0-.852-.37,27.252,27.252,0,0,0-3.049.765c-1.7.532-3.3-.053-4.854-.509-2.075-.61-4.059-1.527-6.109-2.231a3.784,3.784,0,0,0-1.908-.15c-1.641.341-3.259.8-4.878,1.249a35.262,35.262,0,0,0-4.2,1.257,4.611,4.611,0,0,0-2.969,4.094c-.176,3.507-.083,7.029-.062,10.544a.812.812,0,0,0,.558.562,4.688,4.688,0,0,0,3.093-1.065,5.632,5.632,0,0,0,2.244-4.528c.067-1.448.468-2.042,1.774-2.2a3.977,3.977,0,0,1,2.153.587c1.333.708,2.586,1.567,3.887,2.337,1.1.649,2.22,1.252,3.321,1.894,1.359.791,2.7,1.607,4.062,2.4.952.557,1.927,1.078,2.871,1.649,1.711,1.034,3.4,2.1,5.11,3.139q2.082,1.269,4.179,2.512c1.7,1.011,3.4,2.012,5.1,3.023a1.523,1.523,0,0,0,1.724-.11C1385.263,51.087,1386.12,50.565,1386.965,50.041Zm-68.912,19.1c1.839.164,2.594-1.3,3.456-2.438,1.812-2.392,3.463-4.9,5.224-7.334a3.48,3.48,0,0,0-.475-4.409,3.209,3.209,0,0,0-4.008.166c-1.448,1.711-2.744,3.551-4.07,5.361-.848,1.157-1.561,2.42-2.473,3.52a3.042,3.042,0,0,0,2.347,5.136Zm8.482,6.3a5.614,5.614,0,0,0,1.8-.78,20.8,20.8,0,0,0,2.176-2.683c1.372-1.863,2.679-3.774,4.073-5.621,1-1.326,1.608-2.655.877-4.336a3.309,3.309,0,0,0-3.777-1.49c-1.247.525-1.808,1.623-2.537,2.581-1.53,2.009-3.051,4.03-4.467,6.118a6.061,6.061,0,0,0-1.333,2.986A3.3,3.3,0,0,0,1326.535,75.44Zm-17.2-12.388a2.933,2.933,0,0,0,2.738-1.251c.732-1.112,1.7-2.07,2.414-3.194.679-1.076,1.573-2.152,1.013-3.627a3.038,3.038,0,0,0-2.454-2.143,2.592,2.592,0,0,0-2.624.809c-1.179,1.527-2.238,3.147-3.439,4.655a2.733,2.733,0,0,0-.29,3.014A2.644,2.644,0,0,0,1309.336,63.052Zm27,16.466c.555-.149,1.271-.128,1.638-.476a13.591,13.591,0,0,0,3.479-4.963,2.541,2.541,0,0,0-.758-2.809c-1.459-1.292-3.279-1.474-4.695.294-.762.952-1.375,2.024-2.149,2.965a2.828,2.828,0,0,0-.295,3.2A2.936,2.936,0,0,0,1336.336,79.518Z" transform="translate(0 -10.067)" fill="#030302"/>
      <path id="Trazado_640986" data-name="Trazado 640986" d="M1448.078,38.908a7.506,7.506,0,0,1-.166-1.12q-.014-18.7-.016-37.4c0-1.5-.126-3-.195-4.494l.377.022Z" transform="translate(-30.619 -10.783)" fill="#575757"/>
      <path id="Trazado_640987" data-name="Trazado 640987" d="M1343.148-59.026a6.461,6.461,0,0,1,4.8-5.1,30.891,30.891,0,0,1,3.66-.389c2.658-.058,5.319.016,7.978-.028a7.821,7.821,0,0,1,6.017,2.136,5.259,5.259,0,0,1,1.8,3.425c.051,1.506.011,3.014.011,4.663h1.188c3.546,0,7.093-.05,10.637.025a7.351,7.351,0,0,1,6.357,3.737,7.765,7.765,0,0,1,1.163,4.386c-.01,9.128-.041,18.257.022,27.385a8.041,8.041,0,0,1-1.692,5.341,6.767,6.767,0,0,1-4.851,2.737,2.2,2.2,0,0,0-.291-.039q-23.744.012-47.488.03c-.719,0-1.44.016-2.16.024a7.136,7.136,0,0,1-5.1-3.077,7.56,7.56,0,0,1-1.409-5.039c.039-.753,0-1.511.008-2.267.02-1.585.423-2.041,2-2.287a2.27,2.27,0,0,1,2.144,2.531c.007.979-.016,1.959.025,2.936a3.135,3.135,0,0,0,2.742,3.047,5.668,5.668,0,0,0,1.393.365q16.735.031,33.471.016c4.332,0,8.663,0,12.994-.023a3.666,3.666,0,0,0,1.075-.361,3.191,3.191,0,0,0,2.936-3.214c.033-4.173.018-8.347.022-12.519,0-1.335,0-2.669,0-4.2-2.856,2.612-6.238,3.145-9.83,3.2,0,.771.014,1.455,0,2.138a2.129,2.129,0,0,1-2.021,2.138,1.944,1.944,0,0,1-2.125-2.093c-.031-.711-.006-1.424-.006-2.173h-26.7c0,.787.021,1.534-.006,2.279a1.9,1.9,0,0,1-1.48,1.888,2.014,2.014,0,0,1-2.637-2c-.021-.712,0-1.426,0-2.229a13.706,13.706,0,0,1-9.851-3.09c0,1.19,0,2.274,0,3.358a2.43,2.43,0,0,1-2.145,2.523c-.863-.377-1.913-.546-1.992-1.793l-.012-16.579a7.307,7.307,0,0,1,4.776-6.457,8.428,8.428,0,0,1,2.86-.616c3.766-.081,7.536-.052,11.3-.063.134-.2.38-.389.385-.588C1343.158-56.3,1343.145-57.663,1343.148-59.026Zm4.137.588c-.122.133-.348.264-.352.4-.034,1.145-.037,2.291-.016,3.438,0,.089.257.173.394.259h16.069c0-1.172.012-2.25,0-3.327-.026-1.853-1.274-2.618-2.839-2.679-3.506-.136-7.022-.1-10.531-.012A2.68,2.68,0,0,0,1347.285-58.438Zm21.33,22.626c0-.8-.033-1.544.007-2.287a1.932,1.932,0,0,1,2.125-2.014,2.159,2.159,0,0,1,2.04,2.131,20.878,20.878,0,0,0-.013,2.181,9.471,9.471,0,0,0,6.031-1.337,7.855,7.855,0,0,0,3.673-5.434,27.882,27.882,0,0,0,.076-4.621,2.422,2.422,0,0,0-.408-1.047,3.792,3.792,0,0,0-3.673-1.944q-23.158.043-46.317.008c-.328,0-.656.023-.985.015a3.393,3.393,0,0,0-3.1,2.679c-.145,2.189-.4,4.381.477,6.555a8.54,8.54,0,0,0,9.253,5.051c0-.662-.009-1.343,0-2.025a2.051,2.051,0,0,1,1.919-2.208,2.122,2.122,0,0,1,2.221,2.134c-.024.711,0,1.424,0,2.162Z" transform="translate(-8.511)" fill="#020202"/>
      <path id="Trazado_640988" data-name="Trazado 640988" d="M1331.151-8.387a3.134,3.134,0,0,1-2.742-3.047c-.04-.977-.018-1.957-.025-2.936a2.27,2.27,0,0,0-2.144-2.531q0-2.738,0-5.477a2.43,2.43,0,0,0,2.146-2.523c0-1.084,0-2.167,0-3.358a13.705,13.705,0,0,0,9.851,3.09c0,.8-.017,1.517,0,2.229a2.014,2.014,0,0,0,2.637,2,1.9,1.9,0,0,0,1.48-1.888c.027-.745.006-1.492.006-2.279h26.7c0,.749-.026,1.462.006,2.173a1.944,1.944,0,0,0,2.125,2.093,2.129,2.129,0,0,0,2.021-2.138c.017-.683,0-1.366,0-2.138,3.592-.055,6.974-.588,9.83-3.2,0,1.529,0,2.863,0,4.2,0,4.173.011,8.347-.022,12.519a3.191,3.191,0,0,1-2.936,3.214c-.13-.012-.26-.036-.391-.036q-21.17.012-42.341.028Q1334.252-8.4,1331.151-8.387Z" transform="translate(-8.949 -6.462)" fill="#dcb69f"/>
      <path id="Trazado_640989" data-name="Trazado 640989" d="M1331.719.987c.72-.008,1.44-.024,2.16-.024q23.744-.017,47.488-.03a2.2,2.2,0,0,1,.291.039c-.168.117-.326.309-.508.334a9.293,9.293,0,0,1-1.276.045q-23.181,0-46.361-.014A9.362,9.362,0,0,1,1331.719.987Z" transform="translate(-9.926 -11.682)" fill="#575757"/>
      <path id="Trazado_640990" data-name="Trazado 640990" d="M1347.263-57.828c0,1.363.01,2.727-.028,4.089,0,.2-.25.393-.385.588.008-1.174-.015-2.35.042-3.521A4.631,4.631,0,0,1,1347.263-57.828Z" transform="translate(-12.626 -1.198)" fill="#907665"/>
      <path id="Trazado_640991" data-name="Trazado 640991" d="M1349.245,31.866c-.688,1.506-1.319,2.765-1.836,4.069a6.117,6.117,0,0,0-.46,2.121c-.048,3.613-.016,7.228-.033,10.843a4.55,4.55,0,0,0,4.07,4.265,9.319,9.319,0,0,0,8.541-4.388,4.5,4.5,0,0,0,.7-1.315c.176-.748.589-.82,1.138-.532,1,.521,1.976,1.081,2.942,1.66,1.3.774,2.571,1.584,3.858,2.373,1.487.911,2.968,1.833,4.469,2.72,2.069,1.224,4.161,2.409,6.232,3.63,2.274,1.34,4.529,2.711,6.8,4.05,1.291.761,2.619,1.458,3.9,2.231,1.875,1.129,2.341,2.182,1.615,4.364a2.923,2.923,0,0,1-4.039,1.443c-2.434-1.453-4.9-2.845-7.336-4.3-2.556-1.528-5.073-3.122-7.634-4.642-1.75-1.038-3.538-2.014-5.325-2.987a2.9,2.9,0,0,0-2.437.791,2.255,2.255,0,0,0,.317,2.6c.951.687,1.948,1.316,2.956,1.919,1.373.822,2.784,1.581,4.162,2.393,1.472.867,2.929,1.758,4.386,2.649a45.724,45.724,0,0,1,4.19,2.639,2.775,2.775,0,0,1,.953,3.051,2.963,2.963,0,0,1-1.975,2.1c-1.711.581-2.894-.369-4.182-1.1-1.049-.593-2.058-1.259-3.095-1.873-1.288-.764-2.592-1.5-3.881-2.264-1.019-.6-2.021-1.231-3.037-1.835-1.047-.622-2.121-1.2-3.148-1.85a2.213,2.213,0,0,0-2.88.491,2.112,2.112,0,0,0-.154,2.357,16.4,16.4,0,0,0,2.3,1.555q3.256,2.01,6.533,3.986c.892.539,1.813,1.032,2.706,1.568,1.808,1.084,2.351,2.894.933,4.6a3.185,3.185,0,0,1-4.493.494c-1.593-1.052-3.287-1.949-4.932-2.922-1.393-.825-2.771-1.674-4.171-2.489-1.294-.753-2.966-.888-3.577.986a2.231,2.231,0,0,0,.825,2.22c1.587.922,3.205,1.8,4.714,2.84a2.7,2.7,0,0,1,1.175,2.565c-.182,1.292-.6,2.541-2.162,2.876a3.863,3.863,0,0,1-3.184-.642c-1.4-.954-2.93-1.717-4.4-2.561,2.68-4.853.4-10.206-5-11.391.675-2.571.655-5.083-1.164-7.246a7.672,7.672,0,0,0-6.924-2.77,7.056,7.056,0,0,0-5.792-5.849,7.456,7.456,0,0,0-6.691,1.977c-1.389-1.8-2.969-3.254-5.445-3.562a6.6,6.6,0,0,0-4.037.656c-.959.5-1.57,0-2.319-.569,1.531-2.519,3.108-5.059,4.63-7.633,1.263-2.135,2.429-4.327,3.7-6.459,1.49-2.5,3.046-4.961,4.566-7.443a6.666,6.666,0,0,0,.769-1.393c.32-1.021.988-.492,1.393-.27,2.452,1.338,4.964,2.251,7.781,1.355,2.291-.73,4.557-1.54,6.845-2.282a6.378,6.378,0,0,1,2.226-.508A26,26,0,0,1,1349.245,31.866Z" transform="translate(-6.751 -17.086)" fill="#f7e8e0"/>
      <path id="Trazado_640992" data-name="Trazado 640992" d="M1281.247-2.992c1.34.716,2.513,1.3,3.643,1.959,1.375.8,2.71,1.676,4.069,2.507,2.551,1.559,5.1,3.127,7.664,4.661,2.056,1.228,4.153,2.389,6.208,3.619,2.545,1.524,5.055,3.106,7.6,4.627,2.083,1.245,4.214,2.411,6.292,3.664a16.855,16.855,0,0,1,2.547,1.842,2.476,2.476,0,0,1,.16,2.8c-.851,1.342-1.654,2.716-2.474,4.078q-1.78,2.957-3.553,5.915c-1.117,1.863-2.224,3.73-3.344,5.59-.822,1.365-1.676,2.709-2.48,4.083-1.034,1.77-2.022,3.567-3.051,5.34-.689,1.187-1.361,2.391-2.139,3.517a2.459,2.459,0,0,1-3.171.636c-2.007-1.174-3.957-2.446-5.943-3.659-.981-.6-1.99-1.155-2.983-1.736q-1.863-1.089-3.722-2.189c-1.072-.633-2.127-1.3-3.215-1.9a3.861,3.861,0,0,1-2.219-3.491q-.031-20.454-.011-40.908A9.123,9.123,0,0,1,1281.247-2.992Z" transform="translate(-0.9 -10.982)" fill="#406f92"/>
      <path id="Trazado_640993" data-name="Trazado 640993" d="M1431.333,47.618l-4.75,2.786c-1.145-1.537-2.158-1.408-3.7-.334a22.3,22.3,0,0,1-3.007,1.831c-1.38.67-2.4.334-3.25-1.027-.744-1.184-1.379-2.436-2.061-3.659a11.357,11.357,0,0,1,.933-1.269,14.87,14.87,0,0,0,1.616-1.492,27.658,27.658,0,0,0,3.54-5.565,20.914,20.914,0,0,0,1.747-7.379c.117-8.039.047-16.083.034-24.124a4.479,4.479,0,0,0-.233-1c2.138-1.333,4.257-2.7,6.422-3.99,2.561-1.527,5.156-3,7.747-4.475,1.643-.936,1.652-.92,1.652,1.038,0,12.933-.024,25.865.02,38.8a5.231,5.231,0,0,1-3.133,5.178,27.8,27.8,0,0,0-2.836,1.631C1430.9,45.326,1431.038,46.466,1431.333,47.618Z" transform="translate(-24.707 -11.036)" fill="#365e7c"/>
      <path id="Trazado_640994" data-name="Trazado 640994" d="M1418.9,8.353a4.479,4.479,0,0,1,.233,1c.013,8.041.084,16.084-.034,24.124a20.914,20.914,0,0,1-1.747,7.379,27.658,27.658,0,0,1-3.54,5.565,14.87,14.87,0,0,1-1.616,1.492,11.357,11.357,0,0,0-.933,1.269,16.965,16.965,0,0,1-1.056-1.4c-1.292-2.13-2.562-4.273-3.829-6.418-.876-1.481-1.729-2.974-2.6-4.456q-1.118-1.9-2.256-3.787c-.62-1.033-1.254-2.057-1.871-3.092-.751-1.259-1.486-2.527-2.236-3.787a15.217,15.217,0,0,1-1.126-1.869c-.605-1.473-.12-2.613,1.356-3.488,2.113-1.251,4.211-2.527,6.32-3.784,1.014-.6,2.044-1.18,3.056-1.785,2.136-1.277,4.255-2.583,6.4-3.843C1415.229,10.408,1417.068,9.391,1418.9,8.353Z" transform="translate(-21.4 -13.006)" fill="#406f92"/>
      <path id="Trazado_640995" data-name="Trazado 640995" d="M1401.777,57.063c-.845.524-1.7,1.047-2.549,1.585a1.523,1.523,0,0,1-1.724.11c-1.7-1.011-3.4-2.011-5.1-3.023q-2.095-1.247-4.179-2.512c-1.707-1.04-3.4-2.1-5.11-3.139-.944-.571-1.919-1.092-2.871-1.649-1.357-.794-2.7-1.61-4.062-2.4-1.1-.642-2.225-1.245-3.321-1.894-1.3-.771-2.553-1.629-3.887-2.337a3.977,3.977,0,0,0-2.153-.587c-1.306.162-1.707.755-1.774,2.2a5.632,5.632,0,0,1-2.244,4.528,4.688,4.688,0,0,1-3.093,1.065.812.812,0,0,1-.558-.562c-.021-3.516-.113-7.037.063-10.544a4.611,4.611,0,0,1,2.969-4.094,35.262,35.262,0,0,1,4.2-1.257c1.619-.444,3.236-.908,4.878-1.249a3.784,3.784,0,0,1,1.908.15c2.051.7,4.034,1.62,6.109,2.231,1.554.457,3.154,1.041,4.854.509a27.252,27.252,0,0,1,3.049-.765,1.026,1.026,0,0,1,.852.37c.774,1.189,1.476,2.425,2.208,3.641.83,1.377,1.676,2.745,2.5,4.129.582.981,1.117,1.989,1.7,2.972.78,1.325,1.594,2.63,2.37,3.958.634,1.085,1.218,2.2,1.851,3.286C1399.678,53.544,1400.724,55.288,1401.777,57.063Z" transform="translate(-14.812 -17.089)" fill="#dcb69f"/>
      <path id="Trazado_640996" data-name="Trazado 640996" d="M1326.466,82.705a3.042,3.042,0,0,1-2.347-5.136c.912-1.1,1.625-2.363,2.473-3.52,1.326-1.81,2.623-3.65,4.07-5.361a3.209,3.209,0,0,1,4.008-.166,3.48,3.48,0,0,1,.475,4.409c-1.761,2.43-3.412,4.943-5.224,7.334C1329.06,81.4,1328.3,82.869,1326.466,82.705Z" transform="translate(-8.413 -23.629)" fill="#dcb69f"/>
      <path id="Trazado_640997" data-name="Trazado 640997" d="M1336.8,90.313a3.3,3.3,0,0,1-3.191-3.225,6.061,6.061,0,0,1,1.333-2.986c1.417-2.088,2.937-4.11,4.467-6.118.729-.957,1.29-2.056,2.537-2.581a3.309,3.309,0,0,1,3.777,1.49c.73,1.681.124,3.009-.877,4.336-1.393,1.847-2.7,3.758-4.073,5.621a20.8,20.8,0,0,1-2.176,2.683A5.614,5.614,0,0,1,1336.8,90.313Z" transform="translate(-10.263 -24.94)" fill="#dcb69f"/>
      <path id="Trazado_640998" data-name="Trazado 640998" d="M1315.915,76.277a2.644,2.644,0,0,1-2.642-1.736,2.733,2.733,0,0,1,.29-3.014c1.2-1.508,2.26-3.129,3.439-4.655a2.592,2.592,0,0,1,2.624-.809,3.038,3.038,0,0,1,2.454,2.143c.559,1.475-.334,2.55-1.013,3.627-.71,1.125-1.682,2.082-2.414,3.194A2.933,2.933,0,0,1,1315.915,76.277Z" transform="translate(-6.578 -23.291)" fill="#dcb69f"/>
      <path id="Trazado_640999" data-name="Trazado 640999" d="M1348.739,96.54a2.936,2.936,0,0,1-2.78-1.786,2.828,2.828,0,0,1,.295-3.2c.774-.942,1.388-2.013,2.149-2.965,1.416-1.768,3.235-1.586,4.695-.294a2.541,2.541,0,0,1,.758,2.809,13.591,13.591,0,0,1-3.479,4.963C1350.01,96.412,1349.294,96.391,1348.739,96.54Z" transform="translate(-12.403 -27.089)" fill="#dcb69f"/>
      <path id="Trazado_641000" data-name="Trazado 641000" d="M1369.513-32.694h-26.681c0-.739-.019-1.451,0-2.162a2.122,2.122,0,0,0-2.221-2.134,2.051,2.051,0,0,0-1.919,2.208c-.011.682,0,1.363,0,2.025a8.54,8.54,0,0,1-9.253-5.051c-.875-2.174-.622-4.366-.477-6.555a3.393,3.393,0,0,1,3.1-2.679c.329.008.657-.015.985-.015q23.159,0,46.317-.008a3.792,3.792,0,0,1,3.673,1.944,2.422,2.422,0,0,1,.408,1.047,27.869,27.869,0,0,1-.076,4.621,7.855,7.855,0,0,1-3.672,5.434,9.472,9.472,0,0,1-6.031,1.337,20.911,20.911,0,0,1,.013-2.181,2.159,2.159,0,0,0-2.04-2.131,1.932,1.932,0,0,0-2.125,2.014C1369.48-34.237,1369.513-33.489,1369.513-32.694Z" transform="translate(-9.409 -3.119)" fill="#cb9574"/>
      <path id="Trazado_641001" data-name="Trazado 641001" d="M1332.218-4.067q3.1-.006,6.2-.012,21.17-.016,42.341-.028c.131,0,.26.024.391.036a3.665,3.665,0,0,1-1.075.361c-4.331.028-8.663.023-12.994.023q-16.736,0-33.471-.016A5.667,5.667,0,0,1,1332.218-4.067Z" transform="translate(-10.015 -10.783)" fill="#907665"/>
      <path id="Trazado_641002" data-name="Trazado 641002" d="M1352.305-57.112q.014,2.048.027,4.1c-.137-.086-.393-.17-.394-.259-.021-1.146-.019-2.292.016-3.438C1351.957-56.848,1352.183-56.979,1352.305-57.112Z" transform="translate(-13.531 -1.326)" fill="#907665"/>
    </g>
  </g>
</svg>
