<svg xmlns="http://www.w3.org/2000/svg" width="189.433" height="189.433" viewBox="0 0 189.433 189.433">
  <g id="Grupo_909133" data-name="Grupo 909133" transform="translate(-1057 -6481.791)">
    <circle id="Elipse_7431" data-name="Elipse 7431" cx="94.716" cy="94.716" r="94.716" transform="translate(1057 6481.791)" fill="#179587"/>
    <g id="Grupo_906975" data-name="Grupo 906975" transform="translate(-634.816 7122.698)">
      <path id="Trazado_641074" data-name="Trazado 641074" d="M1837.853-571.053c.259.6.545,1.172.763,1.773.686,1.893,1.454,3.765,1.989,5.7a51.55,51.55,0,0,1,1.232,6.007c.387,2.559.735,5.134.89,7.715a57.749,57.749,0,0,1-.108,6.415,38.846,38.846,0,0,1-.5,4.4,49.017,49.017,0,0,1-1.037,4.9c-.562,2.044-1.228,4.062-1.923,6.066-.346,1-.863,1.932-1.29,2.9a.423.423,0,0,0,.006.355c.645.863,1.347,1.686,1.95,2.577a13.619,13.619,0,0,1,1.259,2.266,19.668,19.668,0,0,1,1.5,10.936,20.1,20.1,0,0,1-1.781,5.747,21.391,21.391,0,0,1-2.5,3.895,18.354,18.354,0,0,1-4.084,3.814,20.745,20.745,0,0,1-7.309,3.065,18.722,18.722,0,0,1-9.167-.256,16.155,16.155,0,0,1-6.388-3.214c-.311-.271-.693-.46-1.019-.718-.582-.46-1.076.032-1.548.187-1.11.362-2.155.921-3.261,1.294a45.889,45.889,0,0,1-4.963,1.48c-2.312.5-4.668.787-7,1.2a46.022,46.022,0,0,1-11.69.234,63.549,63.549,0,0,1-7.38-1.264,36.082,36.082,0,0,1-4.691-1.2c-1.885-.648-3.721-1.451-5.547-2.256-1.511-.667-3-1.4-4.457-2.172-.878-.463-1.686-1.058-2.53-1.585-.226-.142-.47-.257-.808-.439v9.069H1731.4v-17.873h7.042v-7.283h1.973c-.4-.7-.753-1.3-1.1-1.9-.79-1.4-1.642-2.763-2.346-4.2-.842-1.72-1.583-3.491-2.314-5.262a23.014,23.014,0,0,1-.7-2.3c-.4-1.376-.886-2.735-1.191-4.133-.379-1.737-.607-3.507-.909-5.262a61.006,61.006,0,0,1-.328-13.215,32.62,32.62,0,0,1,.625-4.845c.367-1.848.856-3.677,1.387-5.486a39.422,39.422,0,0,1,1.561-4.454c.831-1.938,1.807-3.813,2.7-5.726.05-.106-.07-.348-.179-.461-1.537-1.586-2.989-3.275-4.669-4.694-.909-.767-.495-1.037.045-1.56.464-.451.881-.952,1.362-1.477h-2.97v-10.734h3.04c-.626-.655-1.15-1.248-1.726-1.786-.357-.333-.37-.672-.075-.965q3.037-3.013,6.112-5.988c.358-.348.749-.923,1.123-.921s.788.558,1.14.916a11.677,11.677,0,0,1,.809,1.012l.189-.148V-603.8h10.868v2.922c.631-.571,1.251-1.064,1.786-1.638.4-.432.719-.274,1.016.028,1.459,1.483,2.9,2.987,4.35,4.475.235.241.565.655.77.611a8.466,8.466,0,0,0,1.722-.7c1.2-.557,2.359-1.2,3.585-1.678,1.549-.606,3.143-1.1,4.725-1.615a30.078,30.078,0,0,1,2.979-.891c2.13-.459,4.269-.9,6.421-1.232a27.238,27.238,0,0,1,4.055-.29c2.629-.012,5.268-.058,7.884.145a52,52,0,0,1,7.012,1.073c2.148.469,4.251,1.169,6.348,1.846,1.4.453,2.764,1.039,4.141,1.574a1.175,1.175,0,0,1,.275.23,19.384,19.384,0,0,1,14.553-4.888,18.87,18.87,0,0,1,11.771,5.055,19.287,19.287,0,0,1,6.331,17.4A18.219,18.219,0,0,1,1837.853-571.053ZM1822.8-528.176a16.279,16.279,0,0,0-15.95,16.46,16.24,16.24,0,0,0,16.342,16.022,15.767,15.767,0,0,0,12.355-5.947,16.021,16.021,0,0,0,3.534-11.909A16.235,16.235,0,0,0,1822.8-528.176Zm-78.173-11.956c-1.414.822-2.828,1.535-4.115,2.43a11.184,11.184,0,0,0-2.4,2.285c-.573.736-1.485,1.445-1.032,2.633.251.659.451,1.337.713,1.991.713,1.782,1.411,3.571,2.186,5.326a32.584,32.584,0,0,0,1.673,3.233c.715,1.23,1.475,2.437,2.285,3.6.411.592.588,1.629,1.829,1.194v-7.147h10.654v.865c0,5.8-.006,11.6.016,17.4a1.18,1.18,0,0,0,.38.852c1.4.987,2.842,1.918,4.234,2.844.751-1.619,1.408-3.209,2.209-4.723a21.645,21.645,0,0,1,4.325-5.564,17.257,17.257,0,0,1,2.126-1.708,35.756,35.756,0,0,1,4.1-2.606,42.511,42.511,0,0,1,4.3-1.584.7.7,0,0,0,.4-.395c.223-.834.424-1.676.58-2.525a.641.641,0,0,0-.276-.549,10.1,10.1,0,0,1-3.643-2.762,11.024,11.024,0,0,1-3.145-6.686c-4.021.131-6.84-1.564-8.178-5.473a20.158,20.158,0,0,0-1.014,1.756,12.835,12.835,0,0,1-3.342,4.263,31.758,31.758,0,0,1-3.863,2.8,1.378,1.378,0,0,1-1.566.155c-1.165-.782-2.363-1.521-3.479-2.368C1747.487-532.943,1745.712-536.154,1744.624-540.132Zm60.88-56.6a49.362,49.362,0,0,0-23.053-3.389,49.044,49.044,0,0,0-21.6,7.087h2.889v4.433a5.664,5.664,0,0,1,1.3.275,27.632,27.632,0,0,1,5.042,2.8,19.224,19.224,0,0,1,3.575,3.495c.8,1.062,1.41,2.266,2.143,3.382a16.084,16.084,0,0,1,1.844,5.3,25.2,25.2,0,0,1,.346,2.5,18.824,18.824,0,0,1,6.519-.665c2.134.009,4.269,0,6.517,0a7.684,7.684,0,0,1-2.21-4.294,7.189,7.189,0,0,1,2.064-6.185.794.794,0,0,0,.019-1.169,13.674,13.674,0,0,1-1.65-2.8,7.021,7.021,0,0,1-.229-4.373,8.7,8.7,0,0,1,2.379-4.094,8.127,8.127,0,0,1,5.942-2.307C1800.059-596.762,1802.782-596.735,1805.5-596.735Zm.593,50.958a1.225,1.225,0,0,0,.282-.5,20.775,20.775,0,0,0,.337-6.09,18.311,18.311,0,0,0-2.226-6.689,19.535,19.535,0,0,0-4.837-5.415,15.1,15.1,0,0,0-8.062-3.148,96.042,96.042,0,0,0-10.815-.094,8.3,8.3,0,0,0-3.587,1.124,9.162,9.162,0,0,0-4.638,6.587,1.206,1.206,0,0,1-1.172,1.137,5.137,5.137,0,0,0-4.12,5.141q.253,2.4.548,4.8c.124,1.027.278,2.05.418,3.071l2.76-.342a18.873,18.873,0,0,1,.711-1.775,5.505,5.505,0,0,1,2.093-2.485c1.305-.724,2.622-1.425,3.967-2.154-.073-.211-.145-.426-.224-.638-.377-1.012-.769-2.019-1.117-3.041a.545.545,0,0,1,.248-.47c1.013-.2,2.036-.361,3.047-.53,1.529,5.095,5.379,7.426,9.18,7.39-.293-.366-.515-.651-.745-.929a6.55,6.55,0,0,1-.578-.684,22.674,22.674,0,0,1-1.383-2.376,15.123,15.123,0,0,1-.779-2.383.59.59,0,0,1,.288-.5c.99-.2,1.991-.349,2.8-.484.721,1.277,1.317,2.519,2.081,3.646a8.494,8.494,0,0,0,7.051,3.746,5.686,5.686,0,0,1,5.364,3.641ZM1787-524.72v.09c1.108,0,2.219.047,3.324-.015a6.744,6.744,0,0,0,2.419-.4,9.788,9.788,0,0,0,3.575-2.517,8.27,8.27,0,0,0,2.214-4.506c.179-1.8.337-3.607.5-5.41.079-.892.145-1.784.214-2.677.115-1.5.253-3.006.33-4.512a1.413,1.413,0,0,0-1.257-1.443c-.331-.038-.669-.016-1-.021-3.263-.052-6.526-.072-9.787-.177a8.242,8.242,0,0,1-2.441-.518,12.523,12.523,0,0,1-4.578-2.6.893.893,0,0,0-.8-.064c-1.025.466-2.016,1.007-3.03,1.5a3.34,3.34,0,0,0-2.149,3.267c.013.541.033,1.082.073,1.621.227,3.116.492,6.231.682,9.349a9.809,9.809,0,0,0,2.539,6.3,7.488,7.488,0,0,0,5.084,2.715C1784.269-524.662,1785.636-524.72,1787-524.72Zm-34.115-46.763h-10.838c0,3.385-.092,6.709.044,10.024a12.066,12.066,0,0,0,.976,3.939,12.461,12.461,0,0,0,2.731,4.024,11.964,11.964,0,0,0,6.558,3.471,12.351,12.351,0,0,0,10.049-2.481c.5-.388,1.176-.739,1.3-1.526a17.4,17.4,0,0,1,.573-2.882,7.064,7.064,0,0,1,2.257-3.344,1.68,1.68,0,0,0,.718-1.459c-.033-1.675-.006-3.35,0-5.025a1.438,1.438,0,0,0-.843-1.532c-.828-.329-1.7-.559-2.5-.929a24.942,24.942,0,0,1-3.457-1.781c-1.233-.819-2.33-1.842-3.5-2.754a.517.517,0,0,0-.5.008c-.484.436-.932.912-1.185,1.167l-2.379-1.829ZM1749.3-575.1c0-1.086-.019-2.09.014-3.094.008-.242.127-.616.3-.7.908-.414,1.849-.757,2.785-1.107a.385.385,0,0,1,.311.11,21.757,21.757,0,0,1,2,2.02c.37.469.63.261.867.036.582-.553,1.113-1.16,1.662-1.747a.649.649,0,0,0-.082-.981c-.348-.364-.859-.615-1.1-1.03-.3-.52-1.156-.823-.72-1.7.418-.841.747-1.726,1.135-2.637h3.625v-3.534h-3.66c-.374-.912-.755-1.778-1.078-2.665a1.027,1.027,0,0,1,.006-.831c.708-.823,1.482-1.588,2.231-2.37-.66-.714-1.3-1.45-1.995-2.126-.169-.164-.655-.278-.776-.17-.557.5-1.034,1.081-1.542,1.633-.466.506-.9.865-1.642.325a5.129,5.129,0,0,0-1.666-.68.787.787,0,0,1-.683-.912c.031-1,.009-1.995.009-3h-3.559c0,1.041.026,2.043-.018,3.042a.966.966,0,0,1-.382.722,18.249,18.249,0,0,1-2.461,1.007,1.084,1.084,0,0,1-.878-.244c-.6-.537-1.128-1.152-1.688-1.734-.307-.319-.524-.529-.927.008a16.139,16.139,0,0,1-1.726,1.7.522.522,0,0,0,.008.838c.654.658,1.308,1.316,1.943,1.991a.577.577,0,0,1,.16.461c-.272.739-.617,1.452-.877,2.2-.189.539-.445.844-1.078.813-.964-.046-1.932-.012-2.874-.012v3.559c1.007,0,1.98.019,2.953-.008a.827.827,0,0,1,.919.671c.277.8.66,1.557.962,2.346.045.115-.07.344-.177.457-.637.672-1.321,1.3-1.925,2a.83.83,0,0,0-.014.8c.546.625,1.228,1.133,1.749,1.775.358.442.624.272.872.028.451-.447.808-.992,1.276-1.417.334-.3.841-.729,1.173-.657a17.688,17.688,0,0,1,2.4.94.813.813,0,0,1,.616.888c-.029.993-.009,1.988-.009,2.98Zm55.457-1.37a3.962,3.962,0,0,0-1.6,3.589c.161,2.011.349,4.02.506,6.032a2.489,2.489,0,0,0,1.174,2.177,1.972,1.972,0,0,1,.6.649,35.214,35.214,0,0,1,2.775,4.418,22.765,22.765,0,0,1,1.782,5.236c.032.172.146.425.277.466a5.868,5.868,0,0,0,1.483.328c1.844.084,3.689.159,5.533.155a11.266,11.266,0,0,0,5.247-.995,9.841,9.841,0,0,0,3.325-2.893,7.953,7.953,0,0,0,1.433-3.574c.217-1.243.226-2.521.336-3.9l-2.606.468a33.7,33.7,0,0,1-1.194,3.609,6.04,6.04,0,0,1-4.1,3.34c-3.033.789-6.158.267-9.253.413v-3.731h.8l6.42,0a2.969,2.969,0,0,0,2.772-1.465,17.861,17.861,0,0,0,.885-2.1,20.818,20.818,0,0,1-10.065-3.895A19.718,19.718,0,0,1,1804.758-576.466Zm32.328,13.671a7.265,7.265,0,0,1-6.183,2.109,11.646,11.646,0,0,1-1.876,5.148,14.23,14.23,0,0,1-4.944,4.472c-.134.079-.3.295-.279.412.18.914.389,1.824.63,2.723a.678.678,0,0,0,.435.368,22.076,22.076,0,0,1,6.8,3,24,24,0,0,1,5.1,4.42c.46.549.923,1.1,1.434,1.7a7.609,7.609,0,0,0,.39-1.355c.228-2.829.471-5.659.6-8.494a23.3,23.3,0,0,0-.284-3.331c-.217-2.18-.363-4.371-.693-6.533C1837.98-559.675,1837.493-561.156,1837.086-562.795ZM1773.967-513.2c-.656.44-1.246.83-1.829,1.228a17.544,17.544,0,0,0-5.4,5.858,41.266,41.266,0,0,0-1.909,3.939c-.444,1.018-.321,1.21.738,1.728.331.163.66.333,1,.462,2.079.776,4.138,1.615,6.251,2.284,1.639.519,3.341.847,5.028,1.2.884.188,1.793.259,2.612.371.885-2.574,1.738-5.021,2.565-7.478.175-.522.334-1.059-.249-1.515a2.138,2.138,0,0,1-.551-.876c-.286-.7-.682-.567-1.18-.248-1.095.7-2.209,1.376-3.311,2.069-.475.3-.788.2-.965-.339-.484-1.476-.983-2.948-1.46-4.427C1774.866-510.3,1774.448-511.67,1773.967-513.2Zm31.357-79.82c-2.765,0-5.445.017-8.124-.006a4.287,4.287,0,0,0-3.985,2.016c-.964,1.513-1.072,3.8.068,5.075,1.1,1.23,2.292,2.38,3.434,3.574a5.028,5.028,0,0,1,.444.631c-.6.3-1.1.531-1.586.8a7.772,7.772,0,0,0-1.8,1.067,4.157,4.157,0,0,0,0,6.081c.615.65,1.088.632,1.783.055a1.694,1.694,0,0,1,.493-.334c1.243-.419,2.492-.818,3.84-1.255a6.68,6.68,0,0,1,3.414-4.435c.161-.079.255-.479.232-.716-.091-.934-.317-1.861-.348-2.8a15.534,15.534,0,0,1,.157-3.222,37.335,37.335,0,0,1,1.049-4.045C1804.632-591.348,1804.984-592.128,1805.324-593.021Zm-66.852,26.446a50.332,50.332,0,0,0-2.693,28.168c1.014-.807,2.014-1.53,2.929-2.347a15.185,15.185,0,0,1,5.721-2.9c.555-.179,1.289-.491,1.491-.943a27.992,27.992,0,0,0,1.108-3.579,14.238,14.238,0,0,1-4.177-3.211,17.237,17.237,0,0,1-2.576-3.755,14.743,14.743,0,0,1-1.793-6.967C1738.424-563.594,1738.472-565.086,1738.472-566.576Zm63.642,34.946a12.87,12.87,0,0,1-1.478,4.151,12.672,12.672,0,0,1-5.321,5.2.67.67,0,0,0-.282.55c.156.848.352,1.691.583,2.522a.807.807,0,0,0,.463.423c.867.33,1.766.581,2.62.941.976.412,1.923.893,2.868,1.374.644.328,1.262.709,1.88,1.059.278-.913.506-1.787.813-2.633s.722-1.685,1.056-2.538a17.357,17.357,0,0,1,4.031-5.627,2.351,2.351,0,0,0,.578-.767q1.012-2.882,1.949-5.79a1.161,1.161,0,0,0-.008-.81,10.767,10.767,0,0,0-1.027-1.54c-.128-.165-.475-.364-.585-.3a5.485,5.485,0,0,0-1.623,1.116,6.079,6.079,0,0,1-4.069,2.3C1803.761-531.9,1802.964-531.761,1802.114-531.629Zm-9.788,24.984c-.263.317-.416.506-.574.691a2.764,2.764,0,0,0-.508,3.013c.25.628.532,1.245.747,1.884.547,1.622,1.066,3.254,1.629,4.986,1.547-.25,3.1-.4,4.595-.769,1.95-.481,3.863-1.116,5.779-1.724,1.135-.36,2.247-.8,3.4-1.214a17.866,17.866,0,0,1-1.724-2.567,21.38,21.38,0,0,1-2.216-6.753,3.6,3.6,0,0,0-.493-2,18.536,18.536,0,0,0-2.8-2.069c-.571,1.666-1.094,3.154-1.59,4.65-.5,1.522-.984,3.053-1.522,4.724Zm-21.513-58.966c1.221-1.2,2.349-2.283,3.45-3.4a.871.871,0,0,0,.248-.643,45.277,45.277,0,0,0-.994-5.322,14.569,14.569,0,0,0-1.771-3.564,15.441,15.441,0,0,0-5.482-5.219c-.791-.451-1.646-.792-2.6-1.245v2.7h-3.113l-.09.194c.628.582,1.25,1.17,1.887,1.742.349.313.318.468-.053.812-1,.933-1.919,1.962-2.99,3.078.461.419.931.9,1.46,1.314a16.139,16.139,0,0,0,5.674,3.021,5.475,5.475,0,0,1,2.687,1.317,5.41,5.41,0,0,1,1.69,4.024C1770.8-566.418,1770.812-566.042,1770.812-565.612Zm56.882-23.85c-3,0-6.008-.007-9.018.019a.66.66,0,0,0-.484.409c-.2,1.1-.309,2.212-.5,3.312a18.454,18.454,0,0,0,.53,6.72.618.618,0,0,0,.469.357c3.01.021,6.02.016,9.017.016A21.344,21.344,0,0,0,1827.694-589.462Zm-1.889,56.822-4.694-2.887c-.954,1.18-1.907,2.3-.9,3.957a19.4,19.4,0,0,1,7.945.483,17.976,17.976,0,0,1,6.961,3.57c.668-1.9,1.274-3.613,1.864-5.329a.754.754,0,0,0-.07-.412,12.951,12.951,0,0,0-2.494-4.088,20.884,20.884,0,0,0-5.493-4.66ZM1752.813-495.7v-25.148h-3.464V-495.7Zm-4.2-43.368h12a17.135,17.135,0,0,0,.568-1.646,1.215,1.215,0,0,0-.062-.927,5.654,5.654,0,0,1-1.507-2.7c-.128-.615-.343-1.211-.531-1.813-.137-.441-.333-.58-.88-.455a14.861,14.861,0,0,1-3.389.451,26.262,26.262,0,0,1-3.862-.443c-.452-.072-.607-.01-.711.451a8.854,8.854,0,0,1-2.045,4.516.6.6,0,0,0-.122.473C1748.235-540.476,1748.428-539.792,1748.617-539.072Zm89.589-50.337h-6.83a25.34,25.34,0,0,1,0,10.78h6.828C1839.442-581.625,1839.383-586.869,1838.206-589.409Zm-23.628,10.78a28.95,28.95,0,0,1-.55-4.12,52.783,52.783,0,0,1,.47-6.093c.068-.554-.031-.62-.474-.62-1.931,0-3.862-.014-5.792.023a.8.8,0,0,0-.568.487,22.164,22.164,0,0,0-.7,3.107,15.864,15.864,0,0,0,.558,6.45c.085.289.384.728.593.734C1810.271-578.608,1812.428-578.629,1814.578-578.629Zm-72.5,64.869v18.029h3.616V-513.76Zm69.32-36.109c-.19.769-.341,1.563-.589,2.325a.821.821,0,0,0,.384,1.062c1.4,1.01,2.828,1.991,4.147,3.1.448.377.635.281.978.018,1.372-1.056,2.764-2.087,4.114-3.171a1.143,1.143,0,0,0,.4-.878c-.131-.816-.391-1.611-.613-2.457Zm-28.79,28.965-.754,2.806c1.566,1.192,3.147,2.424,4.77,3.6a1.03,1.03,0,0,0,.943-.043c1.359-.96,2.678-1.977,4.006-2.98a1.03,1.03,0,0,0,.464-1.318,8.279,8.279,0,0,1-.453-1.683c-.07-.442-.28-.568-.672-.533-.556.05-1.11.143-1.666.147C1787.065-520.894,1784.885-520.9,1782.606-520.9Zm-47.672,25.183h3.494v-10.748h-3.494Zm101.36-97.341c-.978-2.651-7.1-6.9-9.294-6.521l3.562,6.521Zm-26.571.041c1.8,0,3.52-.017,5.236.01.556.009.755-.224.976-.722.556-1.254,1.214-2.465,1.87-3.672.406-.745.883-1.451,1.352-2.214C1816.759-599.725,1810.868-595.955,1809.724-593.021Zm20.827,17.987-3.562,6.511c2.931-.028,8.175-3.924,9.3-6.511ZM1819-568.38a2.533,2.533,0,0,0-.208-.788,22.554,22.554,0,0,1-2.854-5.266.851.851,0,0,0-.9-.645c-1.6.028-3.2.008-4.794.014a3.212,3.212,0,0,0-.5.083C1811.117-572.461,1814.727-569.448,1819-568.38Zm-29.12,72.658-2.333-7.188h-.939c-.774,2.2-1.536,4.364-2.293,6.528-.134.382-.086.663.417.662C1786.348-495.724,1787.967-495.722,1789.877-495.722Zm-18.3-39.789c-.136-1.688-.262-3.34-.4-4.99-.046-.528-.164-1.051-.2-1.58-.03-.5-.328-.5-.693-.472a3.812,3.812,0,0,0-2.91,2.528A3.557,3.557,0,0,0,1771.581-535.511Zm31.515-7.016c-.2,2.372-.4,4.693-.6,7.006a3.483,3.483,0,0,0,4.337-3.469A3.5,3.5,0,0,0,1803.1-542.528Zm20.126-56.092-.315-.014a23.794,23.794,0,0,0-3.274,5.571h7Zm3.38,23.613h-7.168l3.419,5.6.309-.006Zm-36.235,62.928.72.445c1.106.687,2.21,1.379,3.32,2.061.464.284.727.262.892-.384.274-1.076.691-2.116,1.041-3.173.157-.477.524-1.053.377-1.411-.129-.314-.845-.386-1.3-.566-.047-.019-.092-.069-.134-.065a2.628,2.628,0,0,0-1,.128,17.247,17.247,0,0,0-1.971,1.327C1791.656-513.217,1791.05-512.658,1790.367-512.078Zm-6.712.063c-.034-.114-.032-.251-.1-.3-1.312-1-2.628-1.991-3.958-2.964a.685.685,0,0,0-.521-.037c-.6.176-1.185.388-1.877.62l1.879,5.465Zm41.922-31.471a8.443,8.443,0,0,0-1.627-.555,1.954,1.954,0,0,0-1.133.33,16.7,16.7,0,0,0-1.7,1.189c-.668.511-1.312,1.054-1.994,1.606l4.685,2.845Zm-74.744,8.087a35.217,35.217,0,0,0,2.657,2.642c1.112.9,1.431.807,2.51-.173.127-.115.288-.2.41-.317.687-.673,1.368-1.352,2.175-2.153Zm80.507-28.889c2.443.59,5.034-2.211,3.707-4.035l-.644.428a6.305,6.305,0,0,1-1.59,1.021,1.886,1.886,0,0,0-1.508,2.4C1831.314-564.421,1831.325-564.374,1831.341-564.287Zm-44.253,57.718.107.236a6.513,6.513,0,0,0,1.085-.766,5.041,5.041,0,0,0,.752-1.166.494.494,0,0,0-.095-.471,7.523,7.523,0,0,0-1.949-.943c-.332-.074-.786.415-1.188.644a1.66,1.66,0,0,1-.35.153c-.56.163-.46.515-.252.885a4.747,4.747,0,0,0,.481.747C1786.036-506.827,1786.322-506.238,1787.089-506.569Zm30.827-30.837c-.581-.372-1.141-.762-1.733-1.092a.864.864,0,0,0-.662-.024,5.528,5.528,0,0,0-1.092.613c-.384.272-.881.542-.423,1.145.177.234.338.481.519.712a1.672,1.672,0,0,0,2.8-.233C1817.514-536.625,1817.688-536.972,1817.916-537.406Zm-55.523-10.816a26.111,26.111,0,0,0,.561,2.948,2.524,2.524,0,0,0,1.921,1.684l-.717-5.608Zm37.67-20.408c-.115-.883-.24-1.63-.3-2.383-.052-.63-.484-.569-.826-.434a8.29,8.29,0,0,0-1.515.827,2.654,2.654,0,0,0-.514.625Zm12.568,27.718-3.149-2.353-.125.157,1.05,3.41Zm3.715,9.221c-1.285-.115-1.285-.115-1.459,1.591C1816.581-530.478,1816.612-530.51,1816.347-531.692Z" transform="translate(0 0)"/>
      <path id="Trazado_641075" data-name="Trazado 641075" d="M1864.393-486.477a16.235,16.235,0,0,1,16.282,14.627,16.021,16.021,0,0,1-3.534,11.909,15.767,15.767,0,0,1-12.355,5.947,16.24,16.24,0,0,1-16.342-16.022A16.279,16.279,0,0,1,1864.393-486.477Zm5.569,25.223c0-2.052.061-4.011-.021-5.965a5.057,5.057,0,0,0-1.871-3.53,6.2,6.2,0,0,0-3.646-1.342,1.6,1.6,0,0,1-1.535-1.377c-.056-.708-.012-1.424-.012-2.294.99.129,2.055-.012,2.762.424,1.117.688.73,2.087.788,3.2h3.512c.451-3.74-1.219-5.949-3.522-6.693v-4.048h-3.583v3.7h-3.691c0,1.226-.021,2.385.006,3.541a10.707,10.707,0,0,0,.307,3.481,5.11,5.11,0,0,0,2.379,2.888,10.886,10.886,0,0,0,2.918.877c.587.124,1.168.247,1.326.851.227.861.31,1.76.466,2.72-.845,0-1.488.036-2.124-.009a1.727,1.727,0,0,1-1.55-1.592c-.033-.634-.006-1.272-.006-1.91h-3.673c-.464,3.568,1.285,5.978,3.661,6.7v4.049h3.585v-3.673Z" transform="translate(-41.595 -41.698)" fill="#fbd670"/>
      <path id="Trazado_641076" data-name="Trazado 641076" d="M1747.724-505.019c1.087,3.978,2.862,7.188,5.96,9.541,1.116.847,2.314,1.586,3.479,2.368a1.379,1.379,0,0,0,1.567-.155,31.747,31.747,0,0,0,3.862-2.8,12.837,12.837,0,0,0,3.342-4.263,20.134,20.134,0,0,1,1.014-1.757c1.339,3.908,4.157,5.6,8.178,5.473a11.024,11.024,0,0,0,3.145,6.686,10.1,10.1,0,0,0,3.643,2.762.642.642,0,0,1,.276.549c-.156.849-.357,1.691-.58,2.525a.7.7,0,0,1-.4.395,42.52,42.52,0,0,0-4.3,1.584,35.737,35.737,0,0,0-4.1,2.606,17.262,17.262,0,0,0-2.126,1.708,21.647,21.647,0,0,0-4.325,5.564c-.8,1.514-1.458,3.1-2.209,4.723-1.392-.926-2.833-1.857-4.234-2.844a1.18,1.18,0,0,1-.38-.852c-.022-5.8-.016-11.6-.016-17.4v-.865h-10.655v7.147c-1.24.435-1.418-.6-1.829-1.194-.811-1.168-1.57-2.375-2.285-3.6a32.589,32.589,0,0,1-1.673-3.233c-.775-1.755-1.473-3.545-2.186-5.326-.262-.654-.462-1.332-.713-1.991-.453-1.188.459-1.9,1.032-2.633a11.179,11.179,0,0,1,2.4-2.285C1744.9-503.484,1746.31-504.2,1747.724-505.019Z" transform="translate(-3.1 -35.113)" fill="#4fc0e8"/>
      <path id="Trazado_641077" data-name="Trazado 641077" d="M1821.764-594.782c-2.722,0-5.445-.027-8.167.008a8.127,8.127,0,0,0-5.942,2.307,8.7,8.7,0,0,0-2.379,4.094,7.02,7.02,0,0,0,.229,4.373,13.676,13.676,0,0,0,1.65,2.8.794.794,0,0,1-.019,1.169,7.189,7.189,0,0,0-2.064,6.185,7.684,7.684,0,0,0,2.21,4.294c-2.248,0-4.383.007-6.517,0a18.823,18.823,0,0,0-6.519.665,25.2,25.2,0,0,0-.346-2.5,16.084,16.084,0,0,0-1.844-5.3c-.733-1.116-1.342-2.319-2.143-3.381a19.223,19.223,0,0,0-3.575-3.495,27.636,27.636,0,0,0-5.042-2.8,5.661,5.661,0,0,0-1.3-.275v-4.433h-2.889a49.043,49.043,0,0,1,21.6-7.087A49.36,49.36,0,0,1,1821.764-594.782Z" transform="translate(-16.26 -1.953)" fill="#fefefe"/>
      <path id="Trazado_641078" data-name="Trazado 641078" d="M1825.877-525.913l-3.107-.443a5.686,5.686,0,0,0-5.364-3.641,8.494,8.494,0,0,1-7.051-3.746c-.764-1.127-1.36-2.369-2.081-3.646-.812.134-1.813.281-2.8.484a.59.59,0,0,0-.288.5,15.119,15.119,0,0,0,.779,2.383,22.674,22.674,0,0,0,1.382,2.376,6.566,6.566,0,0,0,.578.684c.23.279.453.563.745.929-3.8.036-7.651-2.3-9.18-7.39-1.011.169-2.034.326-3.047.53a.545.545,0,0,0-.248.47c.348,1.022.74,2.029,1.117,3.041.079.212.151.427.224.638-1.345.729-2.662,1.431-3.967,2.154a5.505,5.505,0,0,0-2.093,2.485,18.875,18.875,0,0,0-.711,1.775l-2.76.342c-.14-1.021-.294-2.044-.418-3.071q-.291-2.4-.547-4.8a5.137,5.137,0,0,1,4.12-5.141,1.206,1.206,0,0,0,1.172-1.137,9.163,9.163,0,0,1,4.638-6.587,8.3,8.3,0,0,1,3.586-1.124,96.055,96.055,0,0,1,10.815.094,15.1,15.1,0,0,1,8.062,3.148,19.532,19.532,0,0,1,4.837,5.415,18.309,18.309,0,0,1,2.227,6.689,20.775,20.775,0,0,1-.337,6.09A1.225,1.225,0,0,1,1825.877-525.913Z" transform="translate(-19.78 -19.864)" fill="#b17946"/>
      <path id="Trazado_641079" data-name="Trazado 641079" d="M1810.795-494.794c-1.364,0-2.731.058-4.091-.014a7.488,7.488,0,0,1-5.084-2.715,9.809,9.809,0,0,1-2.539-6.3c-.19-3.118-.455-6.233-.682-9.349-.039-.539-.06-1.08-.073-1.621a3.34,3.34,0,0,1,2.149-3.267c1.014-.49,2-1.03,3.03-1.5a.894.894,0,0,1,.8.064,12.525,12.525,0,0,0,4.578,2.6,8.24,8.24,0,0,0,2.441.518c3.261.105,6.524.125,9.787.177.335.005.673-.017,1,.021a1.413,1.413,0,0,1,1.257,1.443c-.077,1.506-.215,3.008-.33,4.512-.068.892-.134,1.785-.214,2.677-.161,1.8-.318,3.608-.5,5.41a8.27,8.27,0,0,1-2.214,4.506,9.788,9.788,0,0,1-3.575,2.517,6.743,6.743,0,0,1-2.419.4c-1.1.063-2.216.015-3.324.015Zm-5.312-7.017v3.531c2.69,0,5.34.052,7.985-.023a6.333,6.333,0,0,0,3.345-1.306,6.732,6.732,0,0,0,2.313-2.677,5.168,5.168,0,0,0,.644-3.239h-3.434c-.075.265-.161.5-.206.738-.384,2.085-1.932,2.9-3.8,2.96C1810.07-501.758,1807.8-501.811,1805.483-501.811Z" transform="translate(-23.795 -29.927)" fill="#efcfb3"/>
      <path id="Trazado_641080" data-name="Trazado 641080" d="M1758.773-555.241v-2.91l2.379,1.829c.254-.255.7-.731,1.185-1.167a.517.517,0,0,1,.5-.008c1.173.912,2.27,1.935,3.5,2.754a24.949,24.949,0,0,0,3.457,1.781c.807.37,1.677.6,2.5.929a1.438,1.438,0,0,1,.843,1.532c-.006,1.675-.032,3.351,0,5.025a1.681,1.681,0,0,1-.718,1.459,7.063,7.063,0,0,0-2.257,3.344,17.405,17.405,0,0,0-.573,2.882c-.125.787-.8,1.138-1.3,1.526a12.35,12.35,0,0,1-10.049,2.481,11.964,11.964,0,0,1-6.558-3.471,12.46,12.46,0,0,1-2.731-4.024,12.063,12.063,0,0,1-.976-3.939c-.136-3.315-.044-6.64-.044-10.024Zm7.312,10.836a2.307,2.307,0,0,0-.139.431c-.248,2.19-2.4,3.354-4.393,3.272-2.1-.086-4.206-.019-6.327-.019v3.548c2.581,0,5.126.053,7.668-.029a5.814,5.814,0,0,0,2.575-.635,6.841,6.841,0,0,0,3.824-4.912c.087-.541.17-1.083.259-1.655Z" transform="translate(-5.887 -16.242)" fill="#efcfb3"/>
      <path id="Trazado_641081" data-name="Trazado 641081" d="M1751.292-573.1h-3.559c0-.992-.02-1.987.009-2.98a.814.814,0,0,0-.616-.888,17.7,17.7,0,0,0-2.4-.94c-.333-.072-.839.355-1.173.657-.468.425-.825.97-1.276,1.417-.248.244-.514.415-.872-.028-.52-.642-1.2-1.15-1.749-1.775a.83.83,0,0,1,.014-.8c.6-.7,1.288-1.33,1.925-2,.107-.113.221-.341.177-.457-.3-.789-.685-1.549-.962-2.346a.827.827,0,0,0-.919-.671c-.972.027-1.946.008-2.953.008v-3.559c.942,0,1.91-.034,2.874.012.633.03.889-.274,1.078-.813.26-.743.6-1.456.877-2.195a.577.577,0,0,0-.16-.461c-.636-.675-1.289-1.334-1.943-1.991a.522.522,0,0,1-.008-.838,16.166,16.166,0,0,0,1.726-1.7c.4-.537.62-.326.927-.008.56.582,1.089,1.2,1.688,1.734a1.084,1.084,0,0,0,.878.244,18.264,18.264,0,0,0,2.461-1.007.967.967,0,0,0,.383-.722c.044-1,.018-2,.018-3.042h3.559c0,1.008.022,2.006-.009,3a.787.787,0,0,0,.683.912,5.131,5.131,0,0,1,1.666.68c.739.54,1.177.181,1.642-.325.507-.551.985-1.136,1.542-1.633.121-.108.607.005.776.17.7.676,1.335,1.412,1.995,2.126-.749.782-1.524,1.547-2.231,2.37a1.027,1.027,0,0,0-.006.831c.322.887.7,1.753,1.078,2.665h3.66v3.534h-3.625c-.388.91-.718,1.8-1.136,2.637-.435.876.419,1.179.72,1.7.24.415.751.666,1.1,1.03a.649.649,0,0,1,.082.981c-.549.587-1.081,1.194-1.662,1.747-.237.225-.5.433-.867-.036a21.757,21.757,0,0,0-2-2.02.385.385,0,0,0-.311-.11c-.936.35-1.877.693-2.785,1.107-.175.079-.294.453-.3.7C1751.272-575.189,1751.292-574.184,1751.292-573.1Zm-1.846-17.923c-3.135-.227-5.435,2.757-5.414,5.4a5.555,5.555,0,0,0,5.474,5.328,5.651,5.651,0,0,0,5.379-5.422C1754.866-588.209,1752.523-591.3,1749.446-591.021Z" transform="translate(-1.991 -1.998)" fill="#fbd670"/>
      <path id="Trazado_641082" data-name="Trazado 641082" d="M1844.315-561.366a19.717,19.717,0,0,0,6.527,8.328,20.819,20.819,0,0,0,10.065,3.895,17.849,17.849,0,0,1-.885,2.1,2.969,2.969,0,0,1-2.772,1.465l-6.42,0h-.8v3.731c3.1-.146,6.22.377,9.253-.413a6.039,6.039,0,0,0,4.1-3.34,33.7,33.7,0,0,0,1.194-3.609l2.606-.468c-.11,1.377-.119,2.656-.336,3.9a7.955,7.955,0,0,1-1.433,3.574,9.842,9.842,0,0,1-3.325,2.893,11.268,11.268,0,0,1-5.247.995c-1.844,0-3.69-.072-5.533-.155a5.865,5.865,0,0,1-1.483-.328c-.131-.041-.245-.294-.277-.466a22.779,22.779,0,0,0-1.782-5.236,35.229,35.229,0,0,0-2.775-4.418,1.972,1.972,0,0,0-.6-.649,2.489,2.489,0,0,1-1.174-2.177c-.157-2.012-.346-4.02-.506-6.032A3.962,3.962,0,0,1,1844.315-561.366Z" transform="translate(-39.557 -15.1)" fill="#efcfb3"/>
      <path id="Trazado_641083" data-name="Trazado 641083" d="M1888.02-540.165c.408,1.638.894,3.12,1.126,4.641.33,2.162.476,4.353.693,6.533a23.3,23.3,0,0,1,.284,3.331c-.13,2.835-.373,5.664-.6,8.494a7.61,7.61,0,0,1-.39,1.355c-.511-.606-.974-1.152-1.434-1.7a23.994,23.994,0,0,0-5.1-4.42,22.073,22.073,0,0,0-6.8-3,.679.679,0,0,1-.435-.368c-.242-.9-.45-1.809-.63-2.723-.023-.117.146-.333.279-.412a14.231,14.231,0,0,0,4.944-4.472,11.646,11.646,0,0,0,1.876-5.148A7.266,7.266,0,0,0,1888.02-540.165Z" transform="translate(-50.934 -22.63)" fill="#fefefe"/>
      <path id="Trazado_641084" data-name="Trazado 641084" d="M1792.282-463.255c.48,1.531.9,2.9,1.339,4.264.477,1.479.976,2.951,1.46,4.427.177.541.49.638.965.339,1.1-.693,2.216-1.366,3.311-2.069.5-.319.894-.448,1.18.248a2.137,2.137,0,0,0,.551.876c.583.456.424.993.249,1.515-.827,2.457-1.68,4.9-2.565,7.478-.819-.113-1.728-.184-2.612-.371-1.686-.358-3.389-.685-5.028-1.2-2.113-.669-4.172-1.508-6.251-2.284-.344-.129-.673-.3-1-.462-1.058-.518-1.181-.711-.738-1.728a41.267,41.267,0,0,1,1.909-3.939,17.542,17.542,0,0,1,5.4-5.858C1791.037-462.425,1791.626-462.815,1792.282-463.255Z" transform="translate(-18.315 -49.947)" fill="#b3dc7e"/>
      <path id="Trazado_641085" data-name="Trazado 641085" d="M1838.989-587.043c-.34.893-.693,1.673-.934,2.486a37.392,37.392,0,0,0-1.049,4.045,15.525,15.525,0,0,0-.157,3.222c.031.934.257,1.861.348,2.8.023.237-.071.636-.232.716a6.681,6.681,0,0,0-3.414,4.435c-1.348.438-2.6.836-3.84,1.255a1.7,1.7,0,0,0-.493.334c-.694.576-1.168.595-1.783-.055a4.157,4.157,0,0,1,0-6.081,7.774,7.774,0,0,1,1.8-1.067c.485-.264.988-.5,1.586-.8a5.028,5.028,0,0,0-.444-.631c-1.142-1.194-2.332-2.345-3.434-3.574-1.141-1.272-1.032-3.562-.068-5.075a4.286,4.286,0,0,1,3.985-2.016C1833.544-587.027,1836.224-587.043,1838.989-587.043Z" transform="translate(-33.665 -5.978)" fill="#656d78"/>
      <path id="Trazado_641086" data-name="Trazado 641086" d="M1740.432-546.028c0,1.49-.048,2.982.011,4.469a14.743,14.743,0,0,0,1.793,6.967,17.236,17.236,0,0,0,2.576,3.755,14.237,14.237,0,0,0,4.177,3.211,27.992,27.992,0,0,1-1.108,3.579c-.2.452-.936.764-1.491.943a15.185,15.185,0,0,0-5.722,2.9c-.915.817-1.915,1.54-2.929,2.347A50.332,50.332,0,0,1,1740.432-546.028Z" transform="translate(-1.96 -20.548)" fill="#fefefe"/>
      <path id="Trazado_641087" data-name="Trazado 641087" d="M1837.2-493.925c.85-.132,1.647-.268,2.449-.375a6.079,6.079,0,0,0,4.069-2.3,5.487,5.487,0,0,1,1.623-1.116c.109-.062.457.137.585.3a10.788,10.788,0,0,1,1.027,1.54,1.162,1.162,0,0,1,.008.811q-.944,2.906-1.949,5.79a2.351,2.351,0,0,1-.578.767,17.357,17.357,0,0,0-4.032,5.627c-.334.853-.743,1.678-1.056,2.538s-.535,1.72-.813,2.633c-.618-.35-1.236-.731-1.88-1.059-.945-.481-1.893-.962-2.868-1.374-.854-.36-1.753-.611-2.62-.941a.807.807,0,0,1-.463-.423c-.231-.831-.427-1.674-.583-2.522a.671.671,0,0,1,.282-.55,12.672,12.672,0,0,0,5.321-5.2A12.867,12.867,0,0,0,1837.2-493.925Z" transform="translate(-35.086 -37.704)" fill="#fe816e"/>
      <path id="Trazado_641088" data-name="Trazado 641088" d="M1825.2-456.681l4.73,2.851c.537-1.671,1.017-3.2,1.522-4.724.5-1.5,1.019-2.984,1.59-4.65a18.548,18.548,0,0,1,2.8,2.069,3.6,3.6,0,0,1,.493,2,21.38,21.38,0,0,0,2.215,6.753,17.867,17.867,0,0,0,1.724,2.567c-1.155.415-2.266.853-3.4,1.214-1.916.609-3.829,1.243-5.779,1.724-1.5.369-3.048.519-4.595.769-.563-1.731-1.081-3.363-1.629-4.986-.216-.639-.5-1.256-.747-1.884a2.764,2.764,0,0,1,.507-3.013C1824.78-456.175,1824.933-456.364,1825.2-456.681Z" transform="translate(-32.871 -49.965)" fill="#b3dc7e"/>
      <path id="Trazado_641089" data-name="Trazado 641089" d="M1786.219-555.212c0-.431-.01-.807,0-1.181a5.41,5.41,0,0,0-1.69-4.024,5.475,5.475,0,0,0-2.687-1.317,16.14,16.14,0,0,1-5.674-3.021c-.529-.41-1-.9-1.46-1.314,1.07-1.117,1.985-2.145,2.989-3.078.371-.345.4-.5.053-.812-.637-.571-1.259-1.16-1.887-1.742l.09-.194h3.113v-2.7c.956.453,1.81.794,2.6,1.245a15.441,15.441,0,0,1,5.481,5.219,14.565,14.565,0,0,1,1.771,3.564,45.3,45.3,0,0,1,.994,5.322.872.872,0,0,1-.248.643C1788.568-557.5,1787.441-556.408,1786.219-555.212Z" transform="translate(-15.408 -10.399)" fill="#656d78"/>
      <path id="Trazado_641090" data-name="Trazado 641090" d="M1875.181-581.52a21.345,21.345,0,0,1,.01,10.832c-3,0-6.007.006-9.017-.016a.619.619,0,0,1-.469-.357,18.454,18.454,0,0,1-.53-6.72c.194-1.1.307-2.213.5-3.312a.66.66,0,0,1,.484-.409C1869.173-581.527,1872.183-581.52,1875.181-581.52Z" transform="translate(-47.486 -7.941)" fill="#69d5f3"/>
      <path id="Trazado_641091" data-name="Trazado 641091" d="M1874.525-498.56l3.118-9.367a20.887,20.887,0,0,1,5.493,4.66,12.948,12.948,0,0,1,2.494,4.088.754.754,0,0,1,.07.412c-.589,1.717-1.2,3.427-1.864,5.33a17.975,17.975,0,0,0-6.961-3.57,19.4,19.4,0,0,0-7.945-.483c-1.007-1.652-.053-2.777.9-3.957Z" transform="translate(-48.72 -34.08)" fill="#fe816e"/>
      <path id="Trazado_641092" data-name="Trazado 641092" d="M1762.738-449.971h-3.464v-25.148h3.464Z" transform="translate(-9.925 -45.733)" fill="#fe816e"/>
      <path id="Trazado_641093" data-name="Trazado 641093" d="M1757.837-507.554c-.189-.72-.382-1.4-.538-2.1a.6.6,0,0,1,.122-.473,8.855,8.855,0,0,0,2.045-4.516c.1-.461.259-.522.711-.451a26.248,26.248,0,0,0,3.862.443,14.861,14.861,0,0,0,3.388-.451c.547-.125.743.014.88.455.188.6.4,1.2.531,1.813a5.655,5.655,0,0,0,1.507,2.7,1.214,1.214,0,0,1,.063.927,17.066,17.066,0,0,1-.568,1.646Z" transform="translate(-9.22 -31.518)" fill="#efcfb3"/>
      <path id="Trazado_641094" data-name="Trazado 641094" d="M1893.311-581.438c1.178,2.54,1.236,7.784,0,10.78h-6.828a25.342,25.342,0,0,0,0-10.78Z" transform="translate(-55.106 -7.971)" fill="#69d5f3"/>
      <path id="Trazado_641095" data-name="Trazado 641095" d="M1856.175-570.689c-2.149,0-4.307.021-6.462-.033-.209-.006-.508-.445-.593-.734a15.864,15.864,0,0,1-.558-6.45,22.146,22.146,0,0,1,.7-3.107.8.8,0,0,1,.568-.487c1.93-.037,3.861-.021,5.792-.023.444,0,.542.066.475.62a52.728,52.728,0,0,0-.47,6.093A28.951,28.951,0,0,0,1856.175-570.689Z" transform="translate(-41.597 -7.94)" fill="#69d5f3"/>
      <path id="Trazado_641096" data-name="Trazado 641096" d="M1748-464.121h3.616v18.029H1748Z" transform="translate(-5.919 -49.639)" fill="#fe816e"/>
      <path id="Trazado_641097" data-name="Trazado 641097" d="M1855.138-520.119h8.823c.221.845.482,1.641.613,2.457a1.143,1.143,0,0,1-.4.878c-1.35,1.084-2.742,2.114-4.114,3.171-.342.263-.53.359-.978-.018-1.319-1.109-2.747-2.091-4.147-3.1a.821.821,0,0,1-.384-1.062C1854.8-518.556,1854.948-519.35,1855.138-520.119Z" transform="translate(-43.741 -29.75)" fill="#efcfb3"/>
      <path id="Trazado_641098" data-name="Trazado 641098" d="M1810.434-475.288c2.278,0,4.458.01,6.638-.007.556,0,1.11-.1,1.666-.147.391-.035.6.09.672.533a8.27,8.27,0,0,0,.453,1.683,1.03,1.03,0,0,1-.464,1.318c-1.328,1-2.647,2.021-4.006,2.98a1.029,1.029,0,0,1-.943.043c-1.623-1.174-3.2-2.405-4.77-3.6Z" transform="translate(-27.828 -45.616)" fill="#efcfb3"/>
      <path id="Trazado_641099" data-name="Trazado 641099" d="M1736.92-442.066v-10.748h3.494v10.748Z" transform="translate(-1.986 -53.655)" fill="#fe816e"/>
      <path id="Trazado_641100" data-name="Trazado 641100" d="M1888.992-590.708h-5.732l-3.562-6.521C1881.888-597.612,1888.014-593.36,1888.992-590.708Z" transform="translate(-52.697 -2.354)" fill="#69d5f3"/>
      <path id="Trazado_641101" data-name="Trazado 641101" d="M1852.9-590.676c1.144-2.934,7.036-6.7,9.433-6.6-.469.763-.946,1.469-1.352,2.214-.656,1.207-1.314,2.418-1.87,3.672-.221.5-.419.731-.976.722C1856.424-590.693,1854.707-590.676,1852.9-590.676Z" transform="translate(-43.18 -2.345)" fill="#69d5f3"/>
      <path id="Trazado_641102" data-name="Trazado 641102" d="M1883.24-559.146h5.741c-1.127,2.587-6.371,6.483-9.3,6.511Z" transform="translate(-52.69 -15.888)" fill="#69d5f3"/>
      <path id="Trazado_641103" data-name="Trazado 641103" d="M1862.187-552.517c-4.271-1.068-7.881-4.08-9.258-6.6a3.213,3.213,0,0,1,.5-.083c1.6-.006,3.2.014,4.794-.014a.851.851,0,0,1,.9.645,22.559,22.559,0,0,0,2.854,5.266A2.532,2.532,0,0,1,1862.187-552.517Z" transform="translate(-43.189 -15.863)" fill="#69d5f3"/>
      <path id="Trazado_641104" data-name="Trazado 641104" d="M1819.026-440.107c-1.911,0-3.529,0-5.148,0-.5,0-.55-.28-.417-.662.757-2.163,1.519-4.325,2.293-6.528h.939Z" transform="translate(-29.148 -55.615)" fill="#fe816d"/>
      <path id="Trazado_641105" data-name="Trazado 641105" d="M1791.36-501.737a3.557,3.557,0,0,1-4.2-4.513,3.812,3.812,0,0,1,2.91-2.528c.365-.028.662-.026.693.472.033.529.151,1.052.2,1.58C1791.1-505.076,1791.224-503.425,1791.36-501.737Z" transform="translate(-19.779 -33.774)" fill="#efcfb3"/>
      <path id="Trazado_641106" data-name="Trazado 641106" d="M1842.294-508.751a3.5,3.5,0,0,1,3.734,3.537,3.483,3.483,0,0,1-4.337,3.469C1841.89-504.058,1842.089-506.379,1842.294-508.751Z" transform="translate(-39.198 -33.777)" fill="#efcfb3"/>
      <path id="Trazado_641107" data-name="Trazado 641107" d="M1871.86-595.73l3.407,5.556h-7a23.79,23.79,0,0,1,3.274-5.571Z" transform="translate(-48.638 -2.89)" fill="#69d5f3"/>
      <path id="Trazado_641108" data-name="Trazado 641108" d="M1875.13-559.1l-3.441,5.59-.309.006-3.419-5.6Z" transform="translate(-48.529 -15.904)" fill="#69d5f3"/>
      <path id="Trazado_641109" data-name="Trazado 641109" d="M1822.886-463.217c.682-.58,1.289-1.139,1.941-1.638a17.243,17.243,0,0,1,1.971-1.327,2.626,2.626,0,0,1,1-.128c.042,0,.088.046.134.065.457.18,1.173.251,1.3.566.147.359-.219.934-.377,1.411-.349,1.057-.767,2.1-1.041,3.173-.164.646-.427.668-.892.384-1.11-.682-2.213-1.373-3.32-2.061Z" transform="translate(-32.518 -48.862)" fill="#9fd367"/>
      <path id="Trazado_641110" data-name="Trazado 641110" d="M1808.923-463.251l-4.573,2.784-1.879-5.465c.693-.232,1.28-.444,1.877-.62a.684.684,0,0,1,.521.037c1.33.973,2.646,1.967,3.958,2.964C1808.891-463.5,1808.889-463.365,1808.923-463.251Z" transform="translate(-25.268 -48.764)" fill="#9fd367"/>
      <path id="Trazado_641111" data-name="Trazado 641111" d="M1873.934-510.53l-1.772,5.415-4.685-2.845c.683-.553,1.326-1.095,1.994-1.606a16.7,16.7,0,0,1,1.7-1.189,1.954,1.954,0,0,1,1.133-.33A8.441,8.441,0,0,1,1873.934-510.53Z" transform="translate(-48.356 -32.955)" fill="#fb6d51"/>
      <path id="Trazado_641112" data-name="Trazado 641112" d="M1761.577-497.678h7.752c-.807.8-1.488,1.481-2.175,2.153-.123.12-.283.2-.41.317-1.079.98-1.4,1.072-2.51.173A35.252,35.252,0,0,1,1761.577-497.678Z" transform="translate(-10.743 -37.72)" fill="#e5e8ec"/>
      <path id="Trazado_641113" data-name="Trazado 641113" d="M1886.388-544.7c-.016-.086-.027-.134-.033-.183a1.886,1.886,0,0,1,1.508-2.4,6.312,6.312,0,0,0,1.59-1.021l.644-.428C1891.423-546.913,1888.832-544.112,1886.388-544.7Z" transform="translate(-55.047 -19.585)" fill="#eeceb3"/>
      <path id="Trazado_641114" data-name="Trazado 641114" d="M1816.669-454.686c-.767.331-1.053-.258-1.41-.681a4.738,4.738,0,0,1-.481-.747c-.208-.371-.308-.723.252-.885a1.658,1.658,0,0,0,.35-.153c.4-.228.856-.717,1.188-.644a7.524,7.524,0,0,1,1.949.943.5.5,0,0,1,.095.471,5.035,5.035,0,0,1-.752,1.166,6.516,6.516,0,0,1-1.085.766Z" transform="translate(-29.58 -51.883)" fill="#fa6d50"/>
      <path id="Trazado_641115" data-name="Trazado 641115" d="M1863.353-501.436c-.228.434-.4.782-.589,1.121a1.672,1.672,0,0,1-2.8.233c-.181-.231-.342-.478-.519-.712-.458-.6.039-.873.423-1.145a5.528,5.528,0,0,1,1.092-.613.864.864,0,0,1,.662.024C1862.212-502.2,1862.772-501.808,1863.353-501.436Z" transform="translate(-45.437 -35.97)" fill="#cbd0d7"/>
      <path id="Trazado_641116" data-name="Trazado 641116" d="M1779.5-518.1l1.765-.977.717,5.608a2.524,2.524,0,0,1-1.921-1.684A26.165,26.165,0,0,1,1779.5-518.1Z" transform="translate(-17.11 -30.118)" fill="#fdfdfd"/>
      <path id="Trazado_641117" data-name="Trazado 641117" d="M1836.183-550.815l-3.157-1.365a2.659,2.659,0,0,1,.514-.625,8.287,8.287,0,0,1,1.515-.827c.342-.135.774-.2.826.434C1835.943-552.445,1836.068-551.7,1836.183-550.815Z" transform="translate(-36.12 -17.815)" fill="#edcdb2"/>
      <path id="Trazado_641118" data-name="Trazado 641118" d="M1855.609-507.526l-2.224,1.214-1.051-3.41.125-.157Z" transform="translate(-42.978 -33.387)" fill="#f86c50"/>
      <path id="Trazado_641119" data-name="Trazado 641119" d="M1862.371-491.954c.265,1.182.234,1.214-1.459,1.591C1861.086-492.069,1861.086-492.069,1862.371-491.954Z" transform="translate(-46.024 -39.738)" fill="#dfe2e6"/>
      <path id="Trazado_641120" data-name="Trazado 641120" d="M1875.843-459.271h-3.522v3.673h-3.585v-4.049c-2.376-.719-4.125-3.129-3.661-6.7h3.673c0,.638-.026,1.275.006,1.91a1.727,1.727,0,0,0,1.55,1.592c.636.045,1.279.009,2.124.009-.156-.96-.239-1.859-.466-2.72-.158-.6-.74-.727-1.326-.851a10.885,10.885,0,0,1-2.918-.877,5.109,5.109,0,0,1-2.379-2.888,10.707,10.707,0,0,1-.307-3.481c-.026-1.157-.006-2.315-.006-3.541h3.691v-3.7h3.583v4.048c2.3.745,3.973,2.953,3.522,6.693h-3.512c-.058-1.114.329-2.513-.788-3.2-.708-.437-1.773-.3-2.762-.424,0,.871-.044,1.586.012,2.294a1.6,1.6,0,0,0,1.535,1.377,6.2,6.2,0,0,1,3.646,1.342,5.057,5.057,0,0,1,1.871,3.53C1875.9-463.283,1875.843-461.324,1875.843-459.271Z" transform="translate(-47.476 -43.682)"/>
      <path id="Trazado_641121" data-name="Trazado 641121" d="M1809.426-494.046c2.322,0,4.587.053,6.849-.017,1.865-.057,3.413-.875,3.8-2.96.045-.241.131-.473.206-.738h3.434a5.168,5.168,0,0,1-.643,3.239,6.733,6.733,0,0,1-2.313,2.677,6.333,6.333,0,0,1-3.345,1.306c-2.645.075-5.295.023-7.985.023Z" transform="translate(-27.738 -37.691)"/>
      <path id="Trazado_641122" data-name="Trazado 641122" d="M1770.118-536.833h3.468c-.09.572-.172,1.114-.259,1.655a6.841,6.841,0,0,1-3.824,4.912,5.815,5.815,0,0,1-2.576.635c-2.541.082-5.086.029-7.668.029v-3.548c2.121,0,4.227-.067,6.327.019,1.994.082,4.146-1.082,4.393-3.272A2.325,2.325,0,0,1,1770.118-536.833Z" transform="translate(-9.92 -23.813)"/>
      <path id="Trazado_641123" data-name="Trazado 641123" d="M1753.355-587.047c3.077-.277,5.421,2.813,5.439,5.3a5.65,5.65,0,0,1-5.379,5.422,5.555,5.555,0,0,1-5.474-5.327C1747.92-584.289,1750.22-587.273,1753.355-587.047Zm.053,7.114a1.844,1.844,0,0,0,1.789-1.813,1.854,1.854,0,0,0-1.86-1.744,1.635,1.635,0,0,0-1.7,1.775A1.633,1.633,0,0,0,1753.408-579.933Z" transform="translate(-5.9 -5.973)"/>
      <path id="Trazado_641124" data-name="Trazado 641124" d="M1755.445-577.964a1.633,1.633,0,0,1-1.769-1.781,1.635,1.635,0,0,1,1.7-1.775,1.854,1.854,0,0,1,1.859,1.744A1.844,1.844,0,0,1,1755.445-577.964Z" transform="translate(-7.937 -7.942)" fill="#fdfdfd"/>
    </g>
  </g>
</svg>
