<svg xmlns="http://www.w3.org/2000/svg" width="189.433" height="189.433" viewBox="0 0 189.433 189.433">
  <g id="Grupo_909132" data-name="Grupo 909132" transform="translate(-707.593 -6481.791)">
    <circle id="Elipse_7430" data-name="Elipse 7430" cx="94.716" cy="94.716" r="94.716" transform="translate(707.593 6481.791)" fill="#179587"/>
    <g id="Grupo_906974" data-name="Grupo 906974" transform="translate(-1291.453 6784.624)">
      <path id="Trazado_641051" data-name="Trazado 641051" d="M2045.7-175.483h-15.906c-.7,0-1.405.012-1.795-.717a2.676,2.676,0,0,1-.451-1.111c-.031-5.505-.018-11.01-.029-16.516,0-1.213.981-1.865,1.564-2.719a38.627,38.627,0,0,1,2.634-3.132q2.06-2.415,4.114-4.835a23.4,23.4,0,0,0,1.786-2.191c1.1-1.678,2.594-1.666,3.982-.393a4.149,4.149,0,0,0,.48.326c1.025.709,1.049.692,1.828-.185.485-.546,1.057-1.017,1.518-1.581a1.567,1.567,0,0,0,.264-.932q.022-9.35.011-18.7,0-4.98,0-9.961a6.105,6.105,0,0,1,2.213-5.067,6.012,6.012,0,0,1,2.213-1.12,35.546,35.546,0,0,1,3.788-.535v-.778c0-9.67.032-19.342-.028-29.012-.012-1.844.869-2.6,2.632-2.591,11.827.047,23.653.017,35.479.045a4.364,4.364,0,0,1,1.749.472c.787.365.719,1.151.719,1.869v30c1.2.166,2.342.38,3.5.472,1.8.143,2.847,1.317,3.742,2.672a5.668,5.668,0,0,1,.469,5.37,4.127,4.127,0,0,1-.275.485c-.259.479-.786,1.012-.707,1.429a4.889,4.889,0,0,0,1.041,1.829c.118.157.538.118.819.119q7.735.009,15.467,0c10.778,0,21.556.022,32.334-.023a2.22,2.22,0,0,1,2.538,2.542q-.046,38.232,0,76.463a2.208,2.208,0,0,1-2.506,2.49q-51.3-.042-102.593-.021c-1.877,0-2.591-.725-2.591-2.622v-21.848Zm58.9,4.224H2102.7v7.948h3.937v-7.948Zm-16.255-4.195h-1.893v12.146h3.938v-12.146Zm30.617,7.485v4.659h3.939v-16.164h-3.939Zm-61-22.263a6.9,6.9,0,0,0-.851-.824c-1.532-1.053-3.1-2.054-4.622-3.119-1.491-1.041-2.947-2.132-4.411-3.211-1.447-1.067-2.884-2.149-4.327-3.222-.955-.709-1.886-1.455-2.881-2.1-.465-.3-.973-.633-1.49.2a25.369,25.369,0,0,1-2.179,2.593c-1.492,1.8-2.984,3.591-4.445,5.412-.454.566-1.135,1.2-1.157,1.822-.111,3.051-.036,6.109-.026,9.164v4.022h17.718c3.641,0,7.281.015,10.921-.023a1.618,1.618,0,0,0,1.116-.512c1.306-1.65,2.547-3.352,3.874-5.123-1.572-1.114-3.1-2.205-4.639-3.285C2059.7-189.051,2058.826-189.637,2057.959-190.231Zm28.474-18.128a5.291,5.291,0,0,1-2.558-1.693c-1.855-2.006-2.228-5.469-.36-7.565a1.135,1.135,0,0,0,.106-.917,4,4,0,0,0-.582-1,5.627,5.627,0,0,1,.4-6.28c.159-.223.281-.712.159-.859a7.342,7.342,0,0,1-1.437-4.023,9.3,9.3,0,0,1-1.4.306,8.211,8.211,0,0,1-5.292-1.556,7.789,7.789,0,0,1-3.335-6.23,4.829,4.829,0,0,0-1.46-3.475,2.335,2.335,0,0,0-1.948-.789c1.933,2.679,1.805,5.568-.06,7.68a2.209,2.209,0,0,0-.605,1.682c.026.9.007,1.792.007,2.706a8.572,8.572,0,0,1-4.8-1.688,1.879,1.879,0,0,0-1.307-.374H2058v28.394h32.4v-3.8Zm-24.473-36.368c.362-.047.817.03,1.071-.161a7.732,7.732,0,0,1,6.215-1.744,8.173,8.173,0,0,1,5.136,2.939,9.765,9.765,0,0,1,1.921,5.172,6,6,0,0,0,.611,2.164,3.988,3.988,0,0,0,5.984.83c-.773-2.792-.731-4.451.287-6.045l-2.834-1.283v-3.976a8.931,8.931,0,0,1,4.716,1.753,7.9,7.9,0,0,0,1.363.742l3.968-.516V-273.14h-32.411v28.413Zm-4.06,83.567v-2.13h24.329c0-4.673,0-9.272,0-13.872a2.081,2.081,0,0,1,2.35-2.339c2.535-.008,5.07.043,7.6-.02a2.1,2.1,0,0,1,2.3,2.341c-.067,2.416-.018,4.836-.018,7.254v6.622h4.012v-.91c0-3,.019-6,0-9a2.376,2.376,0,0,1,2.248-2.274c2.593.022,5.185.009,7.778.006a1.745,1.745,0,0,1,1.7.857,3.63,3.63,0,0,1,.493,1.537c.044,3.254.023,6.509.023,9.79h4.012v-.9q0-8.476.009-16.954a2.1,2.1,0,0,1,2.331-2.371c2.505-.006,5.012.055,7.515-.022a2.162,2.162,0,0,1,2.414,2.4c-.061,5.651-.021,11.3-.018,16.954v.89h14.094v-6.088h-3.927v-4.033h3.92v-4.023h-3.913v-4.207h3.9v-4.023h-3.9V-189.7h3.92v-4.136h-3.943v-4.033h3.936v-4.023h-3.928v-4.033h3.92v-4.2h-3.913v-4.033h3.967v-6.027h-4.013v3.944h-4.032v-3.948h-4.024v3.931h-4.2v-3.926h-4.026v3.921H2116.8v-3.916h-4.025v3.911h-4.2v-3.964c-1.585,0-3.1.06-4.609-.02-1.136-.06-2.065.045-2.376,1.353-.021.087-.192.142-.2.224-.046.331-.21.81-.055.979a5.469,5.469,0,0,1,1.177,4.365c-.126,2.109-2.317,4.923-4.522,5.022-1.16.052-2.312.292-3.526.455,0,1.8-.049,3.664.015,5.521.06,1.725-.819,2.411-2.36,2.387-2.738-.042-5.477-.03-8.215.008a1.849,1.849,0,0,0-1.169.449c-1.383,1.353-2.729,2.746-4.046,4.164a3.946,3.946,0,0,1-3.379,1.517c-1.8-.132-3.611-.005-5.416-.046a1.24,1.24,0,0,0-1.186.7c-.688,1.066-1.446,2.087-2.126,3.159-.135.213-.173.722-.041.83a16.784,16.784,0,0,0,1.905,1.294c1.741,1.067,2.112,2.4,1.108,3.776-1.76,2.408-3.587,4.766-5.38,7.15a3.072,3.072,0,0,1-2.828,1.489c-1.826-.113-3.667-.012-5.5,0h-6.069v20.363h99.509v-73.351h-17.36c-9.641,0-19.283.019-28.924-.024-1.21-.005-1.01,1.1-1.565,1.586a1.284,1.284,0,0,0-.25.661c-.02.093.059.221.119.317a7.69,7.69,0,0,1,.538.834,1.263,1.263,0,0,0,1.344.843c13.224-.03,26.448-.008,39.673-.039a2.17,2.17,0,0,1,2.45,2.465q.044,30.06,0,60.12c0,1.845-.659,2.6-2.607,2.607q-41.945.048-83.89.022h-.908Zm19.42-38.793H2076.2c-6.671,0-13.342-.022-20.012.017a2.041,2.041,0,0,1-2.288-2.29q.048-15.993-.007-31.985a2.16,2.16,0,0,1,2.344-2.3c2.5.092,5.01.031,7.515.023a2.153,2.153,0,0,0,2.065-1.189c.587-1.685-.366-2.993-2.227-3-3.845-.015-7.691.023-11.536-.02a2.466,2.466,0,0,0-2.348,2.379c.05,2.883.016,5.767.016,8.651,0,7.108-.01,14.216.01,21.323a2.911,2.911,0,0,1-1.1,2.438c-.8.658-1.526,1.4-2.354,2.167.35.269.615.488.9.684,1.548,1.076,3.115,2.124,4.644,3.225,1.266.912,2.472,1.909,3.737,2.824q3.458,2.5,6.965,4.942a.638.638,0,0,0,.616-.09c.962-1.382,1.894-2.785,2.819-4.192a2.829,2.829,0,0,1,2.512-1.52c2.1.031,4.194.019,6.292,0a1.551,1.551,0,0,0,.969-.24A22.924,22.924,0,0,0,2077.319-199.953Zm15.049-36.53c1.018,0,2.038.039,3.052-.014a7.746,7.746,0,0,0,1.9-.33,1.923,1.923,0,0,0,.8-2.928,2.47,2.47,0,0,0-2.066-.915c-2.471-.026-4.942-.012-7.413-.009a2.045,2.045,0,0,0-2.213,2.129,2.064,2.064,0,0,0,2.191,2.066C2089.868-236.479,2091.118-236.483,2092.368-236.483Zm0,24.47c1.047,0,2.1.038,3.14-.015a7.217,7.217,0,0,0,1.811-.328,1.94,1.94,0,0,0,.81-2.928,2.465,2.465,0,0,0-2.066-.915c-2.471-.028-4.942-.012-7.414-.009a2.054,2.054,0,0,0-2.217,2.037,2.062,2.062,0,0,0,2.187,2.158C2089.864-212.009,2091.115-212.013,2092.364-212.013Zm.079-20.449c-1.366,0-2.735.041-4.1-.013a2.029,2.029,0,0,0-1.944,2.042,2.033,2.033,0,0,0,1.958,2q4.1-.07,8.2,0a2.029,2.029,0,0,0,1.947-2.017,2.036,2.036,0,0,0-1.962-2.029C2095.178-232.417,2093.81-232.462,2092.444-232.461Zm.018,8.212c-1.307,0-2.619.063-3.922-.017a1.982,1.982,0,0,0-2.127,2,2.048,2.048,0,0,0,2.146,2.039c2.44.007,4.882.017,7.322-.012a3.725,3.725,0,0,0,1.291-.3,1.713,1.713,0,0,0,1.281-2.229,1.821,1.821,0,0,0-1.981-1.475C2095.135-224.259,2093.8-224.249,2092.462-224.249Z" transform="translate(0)" fill="#010100"/>
      <path id="Trazado_641052" data-name="Trazado 641052" d="M2066.412-154.2c1.834-.009,3.675-.11,5.5,0a3.072,3.072,0,0,0,2.828-1.489c1.792-2.384,3.62-4.741,5.38-7.15,1-1.374.634-2.709-1.108-3.776a16.783,16.783,0,0,1-1.905-1.294c-.133-.109-.094-.618.041-.83.68-1.071,1.438-2.092,2.126-3.159a1.24,1.24,0,0,1,1.186-.7c1.8.041,3.619-.086,5.416.046a3.945,3.945,0,0,0,3.379-1.517c1.317-1.418,2.663-2.81,4.046-4.164a1.849,1.849,0,0,1,1.169-.449c2.739-.038,5.478-.05,8.215-.008,1.541.024,2.42-.662,2.36-2.387-.064-1.857-.014-3.718-.014-5.521,1.215-.163,2.366-.4,3.526-.455,2.2-.1,4.4-2.912,4.522-5.022a5.469,5.469,0,0,0-1.177-4.365c-.156-.169.009-.647.054-.979.012-.082.184-.138.2-.224.311-1.308,1.24-1.414,2.375-1.353,1.509.08,3.025.02,4.609.02v3.964h4.2v-3.911h4.025V-195h4.025v-3.921h4.026V-195h4.2v-3.931h4.024v3.948h4.032v-3.944h4.013v6.027h-3.967v4.033h3.912v4.2h-3.92v4.033h3.928v4.023h-3.936v4.033h3.943v4.136h-3.92v4.033h3.9v4.023h-3.9v4.207h3.912v4.023h-3.92v4.033h3.927v6.088H2137.55v-.89c0-5.651-.044-11.3.017-16.954a2.162,2.162,0,0,0-2.414-2.4c-2.5.076-5.01.016-7.515.022a2.1,2.1,0,0,0-2.33,2.371q-.006,8.477-.009,16.954v.9h-4.012c0-3.282.022-6.536-.022-9.79a3.627,3.627,0,0,0-.493-1.537,1.745,1.745,0,0,0-1.7-.857c-2.593,0-5.186.016-7.778-.006a2.376,2.376,0,0,0-2.248,2.274c.018,3,0,6,0,9v.91h-4.012v-6.622c0-2.418-.049-4.837.018-7.254a2.1,2.1,0,0,0-2.3-2.341c-2.533.063-5.069.012-7.6.02a2.081,2.081,0,0,0-2.35,2.339c0,4.6,0,9.2,0,13.872h-24.329v2.13h-2.055Zm13.632,5.655,21.194-21.1c1.47,1.309,3,2.706,4.572,4.065,2.551,2.21,5.123,4.4,7.688,6.59,1.232,1.053,2.448,1.049,3.436-.157a7.524,7.524,0,0,1,.8-.689q3.934-3.591,7.862-7.188c1.7-1.559,3.367-3.146,5.062-4.707,1.475-1.357,2.988-2.674,4.448-4.046s2.894-2.81,4.54-4.415v3.534h4.023c0-2.714.012-5.364-.005-8.014a1.959,1.959,0,0,0-2.08-2.071c-1.049-.009-2.1,0-3.146,0h-4.869v4.082h2.879c-.57.506-1.009.885-1.436,1.276q-2.884,2.65-5.761,5.308c-1.378,1.277-2.744,2.568-4.112,3.856-1.18,1.111-2.345,2.238-3.535,3.338-1.982,1.832-3.97,3.66-5.987,5.453a.93.93,0,0,1-.886.073c-1.426-1.169-2.809-2.39-4.2-3.6-1.077-.942-2.137-1.9-3.217-2.842-1.527-1.326-3.088-2.613-4.59-3.966-.816-.736-2.192-1.027-2.861-.4q-2.415,2.251-4.762,4.575c-1.14,1.135-2.2,2.349-3.327,3.5-1.8,1.827-3.612,3.632-5.429,5.437-2.123,2.108-4.244,4.22-6.39,6.3-.937.91-1.934,1.759-2.966,2.692Z" transform="translate(-10.568 -21.256)" fill="#f3f3f3"/>
      <path id="Trazado_641053" data-name="Trazado 641053" d="M2064.148-157.261v14.295h2.055v2.108h.908q41.944,0,83.89-.022c1.948,0,2.6-.761,2.607-2.607q.052-30.06,0-60.121a2.17,2.17,0,0,0-2.45-2.465c-13.224.031-26.448.009-39.673.039a1.263,1.263,0,0,1-1.344-.843,7.723,7.723,0,0,0-.537-.834c-.06-.1-.139-.224-.119-.317a1.286,1.286,0,0,1,.25-.661c.556-.489.355-1.591,1.565-1.586,9.642.043,19.283.024,28.924.024h17.36V-136.9h-99.509v-20.363Z" transform="translate(-8.304 -18.194)" fill="#b2bdc3"/>
      <path id="Trazado_641054" data-name="Trazado 641054" d="M2099.281-240.525a7.892,7.892,0,0,1-1.363-.742,8.931,8.931,0,0,0-4.717-1.753v3.976l2.834,1.283c-1.018,1.593-1.061,3.253-.287,6.045a3.988,3.988,0,0,1-5.984-.829,6,6,0,0,1-.611-2.164,9.765,9.765,0,0,0-1.921-5.172,8.173,8.173,0,0,0-5.136-2.939,7.732,7.732,0,0,0-6.215,1.744c-.254.191-.709.114-1.071.161v-6.061h2.126v-16.232H2097.2v16.232h2.065Q2099.274-243.751,2099.281-240.525Z" transform="translate(-12.85 -3.811)" fill="#c0d89c"/>
      <path id="Trazado_641055" data-name="Trazado 641055" d="M2074.809-219.46a1.879,1.879,0,0,1,1.307.374,8.572,8.572,0,0,0,4.8,1.688c0-.915.019-1.811-.007-2.706a2.21,2.21,0,0,1,.605-1.682c1.865-2.112,1.993-5,.06-7.68a2.335,2.335,0,0,1,1.948.789,4.829,4.829,0,0,1,1.46,3.475,7.789,7.789,0,0,0,3.336,6.23,8.21,8.21,0,0,0,5.292,1.556,9.3,9.3,0,0,0,1.4-.306,7.341,7.341,0,0,0,1.438,4.023c.123.146,0,.636-.159.859a5.627,5.627,0,0,0-.4,6.28,3.987,3.987,0,0,1,.582,1,1.135,1.135,0,0,1-.106.917c-1.867,2.1-1.5,5.558.36,7.565a5.29,5.29,0,0,0,2.558,1.693c-.246.122-.49.346-.738.35-1.787.028-3.574.012-5.361.01v-2.126h-16.311V-215.5h-2.063Z" transform="translate(-12.85 -12.975)" fill="#c0d89c"/>
      <path id="Trazado_641056" data-name="Trazado 641056" d="M2033.067-155.843c-.01-3.055-.085-6.112.026-9.164.022-.623.7-1.256,1.157-1.822,1.461-1.821,2.953-3.617,4.445-5.412a25.337,25.337,0,0,0,2.179-2.593c.517-.828,1.025-.5,1.49-.2.995.649,1.926,1.395,2.881,2.1,1.443,1.073,2.88,2.155,4.327,3.222,1.464,1.079,2.92,2.17,4.411,3.211,1.523,1.064,3.09,2.065,4.622,3.118a6.836,6.836,0,0,1,.851.825,39.226,39.226,0,0,1-.393,3.916,3.707,3.707,0,0,1-3.546,2.79Q2044.293-155.839,2033.067-155.843Z" transform="translate(-1.499 -27.682)" fill="#f7cc68"/>
      <path id="Trazado_641057" data-name="Trazado 641057" d="M2084.316-186.32a22.924,22.924,0,0,1-1.595,1.848,1.551,1.551,0,0,1-.969.24c-2.1.02-4.2.033-6.292,0a2.829,2.829,0,0,0-2.512,1.52c-.926,1.407-1.857,2.81-2.819,4.192a.638.638,0,0,1-.616.09q-3.5-2.444-6.965-4.942c-1.264-.915-2.47-1.912-3.737-2.824-1.529-1.1-3.1-2.149-4.644-3.225-.281-.2-.545-.415-.9-.684.829-.768,1.558-1.508,2.354-2.167a2.911,2.911,0,0,0,1.1-2.438c-.02-7.107-.01-14.215-.01-21.323,0-2.884.034-5.768-.016-8.651a2.466,2.466,0,0,1,2.348-2.379c3.845.043,7.691.006,11.536.02,1.861.007,2.814,1.315,2.227,3a2.153,2.153,0,0,1-2.065,1.189c-2.505.007-5.013.068-7.515-.023a2.16,2.16,0,0,0-2.344,2.3q.066,15.992.007,31.985a2.041,2.041,0,0,0,2.288,2.29c6.67-.039,13.342-.017,20.012-.017Z" transform="translate(-6.998 -13.633)" fill="#fbddb0"/>
      <path id="Trazado_641058" data-name="Trazado 641058" d="M2073.327-249.26v6.061h-3.971v-28.413h32.411v28.288l-3.968.516q-.006-3.226-.014-6.452h1.929v-.832c0-5.71-.041-11.42.027-17.129a2.159,2.159,0,0,0-2.36-2.365q-11.8.071-23.6.007c-1.642-.008-2.426.693-2.408,2.446.057,5.651.021,11.3.022,16.954,0,.28.023.562.04.92Z" transform="translate(-11.368 -1.528)" fill="#97bf5c"/>
      <path id="Trazado_641059" data-name="Trazado 641059" d="M2033.08-151.065q11.226,0,22.451,0a3.707,3.707,0,0,0,3.546-2.79,39.3,39.3,0,0,0,.393-3.916c.867.594,1.74,1.18,2.6,1.784,1.538,1.08,3.068,2.172,4.639,3.285-1.327,1.771-2.567,3.473-3.874,5.123a1.617,1.617,0,0,1-1.116.512c-3.64.038-7.281.023-10.921.023H2033.08Z" transform="translate(-1.511 -32.46)" fill="#f5c144"/>
      <path id="Trazado_641060" data-name="Trazado 641060" d="M2091.7-191.285c1.787,0,3.574.018,5.361-.01.248,0,.492-.227.738-.35l3.965.52v3.8h-32.4v-28.394h3.963v3.963h-1.868a3.658,3.658,0,0,0-.057.393q0,9.995,0,19.989c0,1.467.56,2.144,2.274,2.166,5.818.073,11.639.028,17.458.025a5.6,5.6,0,0,0,.568-.063Z" transform="translate(-11.371 -16.714)" fill="#97bf5c"/>
      <path id="Trazado_641061" data-name="Trazado 641061" d="M2114.346-222.847c-1.25,0-2.5,0-3.75,0a2.064,2.064,0,0,1-2.191-2.066,2.045,2.045,0,0,1,2.213-2.129c2.471,0,4.942-.017,7.413.009a2.47,2.47,0,0,1,2.066.915,1.923,1.923,0,0,1-.8,2.928,7.75,7.75,0,0,1-1.9.33C2116.384-222.808,2115.365-222.847,2114.346-222.847Z" transform="translate(-21.979 -13.636)" fill="#f9dcae"/>
      <path id="Trazado_641062" data-name="Trazado 641062" d="M2114.343-189.247c-1.25,0-2.5,0-3.75,0a2.062,2.062,0,0,1-2.187-2.158,2.054,2.054,0,0,1,2.217-2.037c2.472,0,4.943-.018,7.414.009a2.465,2.465,0,0,1,2.066.915,1.94,1.94,0,0,1-.81,2.928,7.216,7.216,0,0,1-1.811.328C2116.438-189.209,2115.39-189.247,2114.343-189.247Z" transform="translate(-21.979 -22.766)" fill="#f9dcae"/>
      <path id="Trazado_641063" data-name="Trazado 641063" d="M2114.413-215.764c1.366,0,2.735.045,4.1-.014a2.036,2.036,0,0,1,1.962,2.029,2.029,2.029,0,0,1-1.947,2.017q-4.1-.067-8.2,0a2.032,2.032,0,0,1-1.958-2,2.028,2.028,0,0,1,1.944-2.042C2111.678-215.722,2113.046-215.763,2114.413-215.764Z" transform="translate(-21.969 -16.698)" fill="#f9dcae"/>
      <path id="Trazado_641064" data-name="Trazado 641064" d="M2114.434-204.488c1.337,0,2.674-.011,4.01,0a1.821,1.821,0,0,1,1.981,1.475,1.713,1.713,0,0,1-1.281,2.229,3.723,3.723,0,0,1-1.291.3c-2.441.028-4.882.018-7.322.012a2.048,2.048,0,0,1-2.146-2.039,1.982,1.982,0,0,1,2.127-2C2111.815-204.426,2113.127-204.489,2114.434-204.488Z" transform="translate(-21.972 -19.76)" fill="#f9dcae"/>
      <path id="Trazado_641065" data-name="Trazado 641065" d="M2154.969-143h2.046v16.164h-3.939v-4.659a3.581,3.581,0,0,0,1.9-3.314C2154.96-137.539,2154.969-140.27,2154.969-143Z" transform="translate(-34.116 -36.474)" fill="#97bf5c"/>
      <path id="Trazado_641066" data-name="Trazado 641066" d="M2110.328-137.48h2.045v12.146h-3.938v-4.66a2.625,2.625,0,0,0,1.681-2.053C2110.321-133.843,2110.272-135.668,2110.328-137.48Z" transform="translate(-21.987 -37.974)" fill="#97bf5c"/>
      <path id="Trazado_641067" data-name="Trazado 641067" d="M2154.969-143c0,2.73-.008,5.461.008,8.192a3.581,3.581,0,0,1-1.9,3.314V-143Z" transform="translate(-34.116 -36.474)" fill="#accc7c"/>
      <path id="Trazado_641068" data-name="Trazado 641068" d="M2132.648-131.72h2.043v7.948h-3.937v-.633c.114-.016.266.01.336-.054a4.027,4.027,0,0,0,1.57-3.184C2132.619-129,2132.65-130.361,2132.648-131.72Z" transform="translate(-28.051 -39.539)" fill="#d3483f"/>
      <path id="Trazado_641069" data-name="Trazado 641069" d="M2110.328-137.48c-.056,1.812-.008,3.637-.213,5.432a2.625,2.625,0,0,1-1.681,2.053v-7.485Z" transform="translate(-21.987 -37.974)" fill="#accc7c"/>
      <path id="Trazado_641070" data-name="Trazado 641070" d="M2132.648-131.72c0,1.359-.03,2.719.012,4.077a4.027,4.027,0,0,1-1.57,3.184c-.07.064-.222.038-.336.054v-7.315Z" transform="translate(-28.051 -39.539)" fill="#dc6c64"/>
      <path id="Trazado_641071" data-name="Trazado 641071" d="M2083.99-143.969l-3.055-3.12c1.032-.933,2.028-1.781,2.966-2.692,2.146-2.085,4.267-4.2,6.39-6.3,1.817-1.805,3.633-3.611,5.429-5.437,1.127-1.147,2.188-2.361,3.327-3.5q2.341-2.329,4.762-4.575c.668-.623,2.045-.333,2.86.4,1.5,1.353,3.063,2.64,4.59,3.966,1.08.938,2.14,1.9,3.217,2.842,1.388,1.213,2.771,2.435,4.2,3.6a.93.93,0,0,0,.886-.073c2.017-1.794,4-3.621,5.987-5.453,1.19-1.1,2.355-2.226,3.535-3.338,1.368-1.288,2.734-2.578,4.112-3.856q2.872-2.663,5.761-5.308c.427-.391.865-.77,1.436-1.276h-2.879v-4.082h4.869c1.049,0,2.1-.009,3.146,0a1.959,1.959,0,0,1,2.08,2.071c.018,2.65.005,5.3.005,8.014h-4.023v-3.534c-1.646,1.6-3.071,3.033-4.54,4.415s-2.973,2.689-4.448,4.046c-1.7,1.561-3.366,3.148-5.062,4.707q-3.921,3.606-7.862,7.188a7.55,7.55,0,0,0-.8.689c-.988,1.206-2.2,1.21-3.436.157-2.565-2.194-5.137-4.38-7.688-6.59-1.568-1.358-3.1-2.756-4.572-4.065Z" transform="translate(-14.514 -25.831)" fill="#040404"/>
      <path id="Trazado_641072" data-name="Trazado 641072" d="M2074.081-248.5h-1.888c-.016-.358-.04-.639-.04-.92,0-5.651.034-11.3-.022-16.954-.018-1.752.766-2.454,2.408-2.446q11.8.054,23.6-.007a2.159,2.159,0,0,1,2.36,2.365c-.068,5.709-.027,11.419-.027,17.129v.832h-3.995v-16.232h-20.266V-248.5Z" transform="translate(-12.122 -2.283)" fill="#010100"/>
      <path id="Trazado_641073" data-name="Trazado 641073" d="M2092.464-189.806v2.038a5.6,5.6,0,0,1-.568.063c-5.819,0-11.639.047-17.458-.025-1.714-.022-2.273-.7-2.274-2.166q-.01-9.995,0-19.989a3.725,3.725,0,0,1,.057-.393h3.932v18.347h16.311Z" transform="translate(-12.13 -18.193)" fill="#010100"/>
    </g>
  </g>
</svg>
