<svg xmlns="http://www.w3.org/2000/svg" width="232.747" height="326.349" viewBox="0 0 232.747 326.349">
  <g id="Grupo_909098" data-name="Grupo 909098" transform="translate(-432 -10210.354)">
    <path id="Trazado_644575" data-name="Trazado 644575" d="M0,0H231.75V326H0Z" transform="translate(432.997 10210.354)" fill="#f3f9ff"/>
    <path id="Trazado_644576" data-name="Trazado 644576" d="M0,0H232V57H0Z" transform="translate(432 10479.702)" fill="#d2e1f1"/>
    <path id="Trazado_644577" data-name="Trazado 644577" d="M98.857,16.186a5.193,5.193,0,0,1-.8,2.622A4.833,4.833,0,0,1,96,20.57a7,7,0,0,1-3.022.625,5.584,5.584,0,0,1-4.414-1.826,7.54,7.54,0,0,1-1.611-5.156v-.7a8.607,8.607,0,0,1,.728-3.657,5.513,5.513,0,0,1,2.095-2.422,5.844,5.844,0,0,1,3.164-.854A6.129,6.129,0,0,1,97.1,7.938a5.383,5.383,0,0,1,1.787,3.755H95.469a2.547,2.547,0,0,0-.654-1.865,2.691,2.691,0,0,0-1.875-.566,2.048,2.048,0,0,0-1.875.957,6.151,6.151,0,0,0-.625,3.057v1.006a6.806,6.806,0,0,0,.571,3.252,2.091,2.091,0,0,0,1.968.977,2.632,2.632,0,0,0,1.807-.557,2.363,2.363,0,0,0,.664-1.768Zm13.125,0a5.193,5.193,0,0,1-.8,2.622,4.833,4.833,0,0,1-2.056,1.763,7,7,0,0,1-3.022.625,5.584,5.584,0,0,1-4.414-1.826,7.54,7.54,0,0,1-1.611-5.156v-.7a8.607,8.607,0,0,1,.728-3.657A5.513,5.513,0,0,1,102.9,7.431a5.844,5.844,0,0,1,3.164-.854,6.129,6.129,0,0,1,4.16,1.362,5.383,5.383,0,0,1,1.787,3.755h-3.418a2.547,2.547,0,0,0-.654-1.865,2.691,2.691,0,0,0-1.875-.566,2.048,2.048,0,0,0-1.875.957,6.151,6.151,0,0,0-.625,3.057v1.006a6.806,6.806,0,0,0,.571,3.252,2.091,2.091,0,0,0,1.968.977,2.632,2.632,0,0,0,1.807-.557,2.363,2.363,0,0,0,.664-1.768Zm10.439-1.221h-5.391v3.4H123.4V21H113.6V6.781h9.814V9.428h-6.387v3h5.391Z" transform="translate(446 10495.702)" fill="#12263f"/>
    <g id="Grupo_907044" data-name="Grupo 907044" transform="translate(845.951 9724.314)">
      <path id="Trazado_641310" data-name="Trazado 641310" d="M-282.492,533.04c1.219,3.526,2.569,4.461,5.576,5.532-2.875.95-4.716,2.639-5.438,5.263a19.7,19.7,0,0,0-2.32-3.361,17.23,17.23,0,0,0-3.294-1.991c2.878-.8,4.792-2.425,5.236-5.443Z" fill="#f55c66"/>
      <path id="Trazado_641311" data-name="Trazado 641311" d="M-264.935,623a60.228,60.228,0,0,1,.041-7.555c.472-3.765,1.3-7.488,2.06-11.212.32-1.576.836-3.114,1.283-4.663.118-.409.367-.783.462-1.195a4.912,4.912,0,0,0,.275-1.9c-.436-2.254.563-3.729,2.723-4.609.906-.369,1.8-.754,2.771-1.158-6.581-2.365-10.23-6.869-10.882-13.735q0-5.649,0-11.3c.41-.966-.553-1.29-.978-1.6a9,9,0,0,1-3.869-8.5,8.9,8.9,0,0,1,5.435-7.929c3.994-1.958,7.967-1.627,11.93-.345a12.99,12.99,0,0,1,6.276,3.857,1.772,1.772,0,0,0,.95.408,36.278,36.278,0,0,1,3.9.835,11.752,11.752,0,0,1,6.611,4.9,16.527,16.527,0,0,1,2.18,10.262,27.9,27.9,0,0,1-1.02,6.174c-.651,2.1-.942,4.242-1.452,6.348a32.444,32.444,0,0,1-1.915,4.7c2.212.685,5.006,6.637,4.067,8.275,1.415,2.523,2.9,4.849,4.069,7.324a32.457,32.457,0,0,1,2.638,16.516c-.381,5.274-.723,10.55-1.079,15.826-.328,4.876-.643,9.753-.98,14.628-.229,3.321-.5,6.639-.727,9.961q-.518,7.715-.991,15.431c-.317,5.123-.6,10.249-.93,15.371-.225,3.47-.516,6.936-.788,10.535,2.338,0,4.49-.064,6.634.03.9.039,2.017.014,2.394,1.191a1.475,1.475,0,0,1-1.429,2.125c-.238.02-.479.014-.719.014q-20.223,0-40.445,0c-1.489,0-2.176-.472-2.226-1.5a1.8,1.8,0,0,1,1.818-1.853c2-.021,4-.016,6-.025.031,0,.063-.043.222-.157-.605-10.244-1.214-20.573-1.841-31.181l-2.735,2.436c-1.77,1.576-3.441,3.283-5.335,4.693-2.229,1.659-5.861,1.283-8.312-.348a7.427,7.427,0,0,1-3.557-6.549,8.323,8.323,0,0,1,3.265-6.2c1.409-1.192,2.746-2.468,4.119-3.7,1.591-1.43,3.189-2.853,4.78-4.284q2.02-1.818,4.025-3.653c.1-.088.1-.283.2-.635-2.217.33-4.319.663-6.428.951-5.215.712-10.437,1.371-15.645,2.135a15.811,15.811,0,0,0-2.386,1.011c-1.42.47-2.778,1.179-4.383.918-1.8-.293-3.63-.393-5.434-.668-2.882-.439-5.745-1-8.63-1.422-3.38-.495-6.781-.849-10.161-1.349-4.128-.61-8.243-1.308-12.524-1.993a11.791,11.791,0,0,0-.329,1.7c-.106,2.477-.125,4.958-.254,7.433-.294,5.64-.634,11.278-.956,16.916-.317,5.559-.614,11.119-.964,16.676-.15,2.393-.41,4.778-.632,7.3h2.809c2.681,0,5.361-.009,8.041,0,1.348.006,1.766.414,1.786,1.665.021,1.359-.269,1.685-1.683,1.686q-21.121.012-42.244,0a2.062,2.062,0,0,1-1.922-1.547,2.167,2.167,0,0,1,1.962-1.8c1.136-.016,2.273,0,3.417,0-.119-2.952-.2-5.68-.343-8.405-.3-5.639-.63-11.276-.956-16.913q-.468-8.1-.957-16.192-.456-7.317-.968-14.631c-.2-2.762-.473-5.518-.669-8.28q-.521-7.311-.982-14.628c-.182-2.9-.65-5.827-.374-8.682.285-2.951.568-6,2.007-8.746,1.088-2.08,2.019-4.241,3.042-6.356a2.65,2.65,0,0,1,.672-.9c1.215-.981.462-2.428.9-3.584.646-1.729,1.27-3.469,2-5.161a2.311,2.311,0,0,1,1.162-1.03c.779-.337.743-.777.448-1.406a18.8,18.8,0,0,1-1.494-3.392c-.951-3.918-1.98-7.84-2.542-11.822a16.29,16.29,0,0,1,1.013-8.555,11.538,11.538,0,0,1,3.764-5.315,18.234,18.234,0,0,1,4.174-2.153c1.191-.451,2.535-.481,3.771-.836a4.412,4.412,0,0,0,1.6-1.022,16,16,0,0,1,5.331-3.005,18.087,18.087,0,0,1,6.083-1.231,13.432,13.432,0,0,1,6.983,1.714,8.8,8.8,0,0,1,4.246,5.582,11.081,11.081,0,0,1-.426,6.79,9.167,9.167,0,0,1-3.733,4.253c-.205.144-.3.442-.449.669v11.552a14.985,14.985,0,0,1-10.812,13.643c1.062.445,2.018.794,2.928,1.237,2.37,1.155,2.762,1.964,2.6,4.136a6.147,6.147,0,0,0,.439,2.083c.358,1.2.786,2.378,1.156,3.574a66.116,66.116,0,0,1,2.441,24.729c-.093,1.244-.272,2.483-.447,3.718-.113.8,1.158,2.67,1.989,2.787,3.536.494,7.079.934,10.61,1.454,2.727.4,5.435.922,8.16,1.333,1.578.239,3.18.317,4.758.554,2.248.338,4.476.814,6.728,1.113a14.913,14.913,0,0,0,3.065-.061c.819-.063,1.629-.246,2.445-.365q7.116-1.039,14.232-2.074c3.912-.572,7.819-1.177,11.734-1.72a2.971,2.971,0,0,0,2.848-3.465c-.089-1.075-.092-2.157-.134-3.236Zm-12.817,47.361a2.847,2.847,0,0,0,2.76,1.656c1.562.13,2.983-.149,3.865-1.648l3.117-2.423c-1.848-2.113-3.624-4.184-5.472-6.189-.168-.183-.891-.078-1.191.131a18.534,18.534,0,0,0-1.582,1.485,6.774,6.774,0,0,0-2.585,3.673A3.851,3.851,0,0,0-277.752,670.36Zm-16.734-29.027-4.022-.45c-.433,2.986-.865,5.973-1.293,8.932,1.158.219,2.122.416,3.091.583,2.018.346,3.978.619,5.692-1.038,1.19-1.151,1.891-3.987,1.009-5.346a7.883,7.883,0,0,0-1.349-1.289C-292.041,641.453-293.279,641.429-294.486,641.333Zm43.2-42.249c1.558-.72,3.114-1.445,4.674-2.161,2.888-1.324,5.789-2.618,8.649-4a1.332,1.332,0,0,0,.554-1.167c-.444-1.267-1.054-2.477-1.614-3.731l-18.691,7.142,4.027,4.639c.568,1.507,1.7.255,2.631.8Zm-28.563,39.1c-.8-.081-1.6-.2-2.4-.211-.157,0-.32.4-.48.613l-.257.1-3.347.455-3.05.483c3.2,2.441,3.455,5.529,2.972,8.988l6.086-.807a3.687,3.687,0,0,0,3.581-.479c.134-.082.26-.218.4-.238,3.627-.5,7.256-.986,10.884-1.479.617-.084,1.231-.189,1.776-.274-.209-3.2-.409-6.262-.613-9.379l-1.183.12-3.15.626c-.711.049-1.428.055-2.132.154C-273.787,637.289-276.816,637.743-279.847,638.187Zm-53.366-71.579c-2.187.252-4.369.558-6.562.732a2.946,2.946,0,0,0-2.3,1.106c-.633.764-1.262,1.769-2.627,1.484-2.28-.477-2.792.15-2.276,2.444a2.725,2.725,0,0,1-.175,1.9,7.232,7.232,0,0,1-4.955,3.407c-1.4.208-2.818.244-4.228.353,1.358,6.079,5.794,9.341,10.209,9.766a3.538,3.538,0,0,0,3.641,0,12.168,12.168,0,0,0,2.987-.737,12.036,12.036,0,0,0,4.534-3.682c.979-1.439,2-2.837,2.083-4.668.1-3.964.2-7.928.274-11.892C-332.607,566.757-333,566.681-333.213,566.608Zm80.479,21.2a3.118,3.118,0,0,0,3.383.008c5.552-.4,9.937-5.79,10.2-10.068-.519,0-1.036-.026-1.549.005-2.546.151-4.784-.348-6.574-2.425-1.083-1.257-1.732-2.517-.949-3.464.627-.758.166-1.241-.2-1.58a2.213,2.213,0,0,0-1.615-.615c-1.8.328-1.956.289-3.044-1.083a3.042,3.042,0,0,0-1.625-1.159c-2.686-.425-5.4-.694-8.1-1.019-.165.3-.47.589-.474.887q-.053,4.36,0,8.722c0,.321.286.639.438.958C-262.806,582.43-257.776,587.47-252.734,587.806Zm-8.394,41.486c.076.825.188,1.649.222,2.476.1,2.434.149,4.871.264,7.3.076,1.6.233,3.2.362,4.913.735-.575,1.4-1.053,2.02-1.59,1.478-1.29,2.905-2.639,4.4-3.906a5.157,5.157,0,0,0,1.991-4.43c-.145-8.591-.071-17.186-.045-25.78a21.841,21.841,0,0,1,.3-4.044c.185-.965-.1-1.2-.925-1.065a4.093,4.093,0,0,1-4.007-1.408c-.463-.531-.884-1.1-1.518-1.9a56.183,56.183,0,0,0-3.484,22.947Zm-74.685,34.077V659.15h-3.343a13.151,13.151,0,0,1-1.474,6.572,9.676,9.676,0,0,1-4.937,4.6,2.368,2.368,0,0,0-1.787,2.561c.1,8.118.049,16.237.049,24.356v1.3h9.139c.235-1.889.547-3.641.651-5.406.175-2.949.217-5.906.315-8.86.149-.275.407-.541.427-.824.054-.775.008-1.557,0-2.336l.525-14.593c.148-.275.4-.543.424-.827C-335.766,664.926-335.809,664.146-335.813,663.369Zm100.642,18.984c.15-.273.409-.538.428-.82.055-.775.009-1.557,0-2.337q.432-10.006.866-20.037h-10.37V698.6h8.161C-235.776,693.147-235.474,687.75-235.171,682.353Zm-5.055-78.024-1.148-1.228c-.451-.372-.869-.994-1.361-1.059-.84-.111-1.85-.648-2.573.353-1.668.044-3.135,2.418-3.126,4.083.053,9.99.007,19.982.054,29.973a3.7,3.7,0,0,1-1.281,2.878c-1.493,1.378-3.1,2.637-4.61,3.992-2.392,2.142-4.746,4.326-7.123,6.485-2.059,1.869-4.141,3.713-6.187,5.595-1.119,1.03-2.213,2.09-3.252,3.2a1.1,1.1,0,0,0-.1,1.059c1.71,2.038,3.481,4.025,5.275,6.072,1.767-1.661,3.394-3.2,5.036-4.731,1.715-1.595,3.416-3.205,5.173-4.751,1.551-1.365,3.213-2.6,4.749-3.983,2.45-2.2,4.881-4.427,7.236-6.729,1.62-1.585,3.831-2.8,3.913-5.494l2.27,2.617c.089-.779.635-1.606-.468-2.227a1.631,1.631,0,0,1-.837-1.641c.031-9.418.049-18.835,0-28.253-.011-2.024-.308-4.048-.479-6.136Zm-95.352,51.561c.177-2.264.339-4.4.516-6.54.059-.713-.155-1.046-.948-1.182a8.876,8.876,0,0,1-4.174-2.046c-2.062-1.709-2.876-4.205-4.154-6.4-.79-1.36-1.4-2.822-2.144-4.211-1.063-1.988-2.2-3.938-3.252-5.93-1.006-1.9-1.916-3.847-2.929-5.741-1.368-2.558-2.809-5.076-4.188-7.629-.652-1.208-1.164-2.495-1.855-3.678-1.435-2.454-2.73-4.835-1.854-7.91a7.705,7.705,0,0,1,3.434-4.7,21.253,21.253,0,0,1,3.477-1.414c-1.326-.64-2.8-1.381-4.3-2.062-.688-.312-1.223-.378-1.658.6-.709,1.595-1.788,3.023-2.542,4.6a20.663,20.663,0,0,0-2.414,9.374c.113,4.686.422,9.368.706,14.048.182,3.007.489,6.006.7,9.011q.535,7.494,1.022,14.993c.15,2.261.274,4.523.412,6.823Zm33.742-15.654c-1.186-.246-2.1-.481-3.024-.619-3.943-.588-7.89-1.151-11.837-1.716-4.5-.644-9-1.319-13.511-1.893a3.06,3.06,0,0,1-2.32-1.408c-1.044-1.659-1.971-3.395-2.874-5.137-1.06-2.045-1.984-4.161-3.072-6.19-1.567-2.92-3.262-5.771-4.841-8.684-1.9-3.5-3.689-7.055-5.614-10.538a4.366,4.366,0,0,0-3.442-2.138c-1.4-.185-2.419.553-3.47,1.3A3.914,3.914,0,0,0-357,608.05c.753,1.509,1.461,3.041,2.2,4.558.6,1.232,1.186,2.473,1.832,3.681,1.075,2.01,2.2,4,3.291,6q1.072,1.956,2.124,3.924c1.038,1.949,2.075,3.9,3.094,5.858.478.919.878,1.88,1.376,2.789,1.281,2.34,2.7,4.611,3.861,7.009a4.741,4.741,0,0,0,3.47,2.738c3.557.694,7.151,1.205,10.741,1.719,4.942.708,9.895,1.348,14.842,2.026.428.058.844.205,1.271.263,1.906.26,3.814.5,5.793.76Zm-52.613-65.792a11.831,11.831,0,0,0,2.8-.451c1.255-.518,1-1.758.99-2.857a4.727,4.727,0,0,1,3.974-4.8c.956-.187,1.979,0,2.829-.907a4.748,4.748,0,0,1,2.6-1.393c3.083-.419,6.208-.367,9.175-1.653a7.029,7.029,0,0,0,3.852-3.244,6.427,6.427,0,0,0,.151-5.569c-1.006-2.223-3.093-3.23-5.43-3.744-2.754-.605-5.358.108-7.939.875a9.6,9.6,0,0,0-2.7,1.39c-1.006.709-1.872,1.612-2.838,2.383a1.737,1.737,0,0,1-1.034.387,10.318,10.318,0,0,0-5.252,1.241,9.384,9.384,0,0,0-3.3,2.869,11.931,11.931,0,0,0-1.737,7.043,41.51,41.51,0,0,0,.754,5.772C-357.106,574.337-357.059,574.329-354.449,574.444Zm117.636-8.136-.337-.052A11.392,11.392,0,0,0-238.9,559.1a7.84,7.84,0,0,0-4.09-3.181c-1.347-.511-2.887-.49-4.3-.873a7.428,7.428,0,0,1-2.223-1.193,20.524,20.524,0,0,0-2.764-2.163c-3.258-1.523-6.584-2.489-10.3-1.444-2.15.6-3.806,1.434-4.74,3.564-1.309,2.983-.36,6.771,2.657,8.223a19.781,19.781,0,0,0,8.852,1.937,5.777,5.777,0,0,1,4.813,1.987c.185.22.615.265.944.327a10.126,10.126,0,0,1,2.427.429,4.756,4.756,0,0,1,2.842,5.211c-.151,1.6.674,2.369,2.32,2.4,1,.022,2-.03,3,.02a1.025,1.025,0,0,0,1.246-.944C-237.767,571.038-237.284,568.674-236.813,566.308Zm-124.646,92.8c.154,2.025.322,3.918.436,5.815.2,3.4.38,6.8.557,10.206.093,1.792.142,3.587.245,5.378.3,5.163.655,10.323.907,15.488.13,2.665.051,2.669,2.729,2.669h5.808V659.1ZM-241.9,598.583a7.771,7.771,0,0,1,3.427,2.562,8.064,8.064,0,0,1,2.358,5.67c-.062,10.834-.044,21.668-.024,32.5a8.249,8.249,0,0,1-2.815,6.763c-2.489,2.127-4.909,4.337-7.309,6.566-1.055.98-1.986,2.093-3,3.176h15.7c.265-3.095.55-6.1.771-9.1.349-4.763.66-9.529.978-14.294.166-2.5.333-5,.463-7.5.243-4.7.592-9.393.624-14.091a25.232,25.232,0,0,0-1.068-5.9c-.205-.848-.93-1.572-1.125-2.42a14.048,14.048,0,0,0-2.95-5.781,1.093,1.093,0,0,0-.938-.344C-238.532,597.073-240.213,597.841-241.9,598.583Zm-5.85,72.686c-4.521-1.747-7.5-4.719-8.252-9.73-1.892,1.633-4.024,2.886-3,5.776a1.885,1.885,0,0,1,.02.478c.237,3.717.49,7.434.712,11.153.267,4.476.511,8.954.757,13.432.113,2.058.207,4.117.311,6.2h9.456Zm-98.4-69.437c4.151,7.766,8.159,15.263,12.168,22.761a52.7,52.7,0,0,0-3-24.674c-1.313,1.156-2.168,2.795-4.016,3.284C-342.917,603.71-344.352,602.409-346.152,601.832Zm-10.334-13.822c-.523,1.36-1.032,2.587-1.449,3.843a1.013,1.013,0,0,0,.286.92c1.895.934,3.818,1.812,5.746,2.678,1.036.465,2.113.84,3.144,1.316,2.114.976,4.2,2.011,6.324,2.968a1.047,1.047,0,0,0,.913-.247c1.131-1.14,2.243-2.3,3.291-3.519.377-.437.468-.966-.326-1.266-2.932-1.1-5.839-2.279-8.775-3.377C-350.368,590.191-353.427,589.115-356.486,588.01Zm103.631,71.124a23.062,23.062,0,0,1,.583,2.907c.183,2.592,1.86,4.057,3.852,5.295.111.069.686-.265.688-.417.044-2.576.032-5.152.032-7.785Zm-94.336,0V667.4c3.61-2.025,5.41-5.441,4.434-8.266ZM-236.768,605.9c-.481-.379-.783-.8-1.072-.794s-.824.617-.783.688a7.486,7.486,0,0,0,.976,1.156Z" fill="#231e20"/>
      <path id="Trazado_641312" data-name="Trazado 641312" d="M-297.7,576.516a52.413,52.413,0,0,1,7.1,1.7c1.873.716,3.482,2.11,5.229,3.169a1.441,1.441,0,0,0,.994.2c2.232-.593,5.861,1.142,6.292,3.865a7.3,7.3,0,0,1-.979,4.559,3.828,3.828,0,0,0-.017,2.6c1,2.931.384,5.79-.3,8.6a17.323,17.323,0,0,1-4.5,8.137c-2.141,2.167-4.516,4.171-7.659,4.811-2.191.447-4.415,1.2-6.6,1.112a19.115,19.115,0,0,1-9.526-2.7,20.032,20.032,0,0,1-6.406-6.025,18.8,18.8,0,0,1-3.107-10.671,18.812,18.812,0,0,1,3.1-10.339,19.08,19.08,0,0,1,6.468-6.125,18.662,18.662,0,0,1,9.835-2.583Zm8.469,9.274.977-1.141.894-.97L-290.649,582l-2.615-1.245-.975-.2a1.08,1.08,0,0,1-.094-.19c-.136-.315-.193-.809-.423-.91a.951.951,0,0,0-1.421.619c-.269-.035-.537-.081-.807-.1a7.307,7.307,0,0,0-4.5.58,13.782,13.782,0,0,0-7.457,4,36.19,36.19,0,0,0-2.852,3.893l-.793,1.446a22.861,22.861,0,0,0-1.073,3.81,16.87,16.87,0,0,0,1.689,9.549,15.758,15.758,0,0,0,7.51,7.217,36.349,36.349,0,0,0,3.491,1.278c.152.165.3.471.455.475,1.5.036,3.009.045,4.512,0,.264-.008.518-.312.776-.478a2.4,2.4,0,0,1,.518-.213,14.43,14.43,0,0,0,7.891-4.29c.31-.308.357-.955.7-1.151,2-1.155,2.556-3.222,3.386-5.123.156-.023.421,0,.452-.075a10.621,10.621,0,0,0,.948-2.564c.161-1.251-.02-2.541.061-3.807a1.636,1.636,0,0,0-1.157-1.932l-1.09.8.856.165c-1.639,1.7-3.252,3.433-4.922,5.106-1.8,1.8-3.693,3.522-5.475,5.345a11.211,11.211,0,0,1-3.213,2.388c-2.177,1.058-3.67.108-5.027-1.154-2.807-2.611-5.47-5.378-8.173-8.1-2.184-2.2-2.011-5,.043-7.3a10.022,10.022,0,0,1,1.96-1.361l2.591-.206a13.128,13.128,0,0,1,2.607,1.422c1.351,1.184,2.512,2.581,3.821,3.816a1.341,1.341,0,0,0,1.214.119,5.873,5.873,0,0,0,1.252-1.088c1.34.32,1.509.149,1.472-1.483.274-.317.543-.639.822-.951q1.156-1.3,2.319-2.585l.654-.255C-289.2,587.3-289.2,587.3-289.226,585.79Zm-8.551,17.783a7.309,7.309,0,0,0,1.12-.739c1.213-1.193,2.386-2.426,3.589-3.628q3-3,6.03-5.982,2.508-2.466,5.05-4.9c1.068-1.022,1.192-1.976.333-2.91-.8-.867-1.734-.8-2.812.244-1.3,1.267-2.592,2.553-3.874,3.844q-3.973,4-7.931,8.025a2.375,2.375,0,0,1-3.007.135q-2.6-2.608-5.237-5.186c-.9-.874-1.581-.878-2.366-.1a1.543,1.543,0,0,0-.042,2.436q3.911,3.978,7.883,7.894A8.739,8.739,0,0,0-297.777,603.573Z" fill="#231e20"/>
      <path id="Trazado_641313" data-name="Trazado 641313" d="M-301.605,554.095c.4.018.756.052,1.107.046a1.552,1.552,0,0,1,1.72,1.532c.155,1.153-.711,1.5-1.526,1.559-1.045.079-1.434.4-1.441,1.5a1.348,1.348,0,0,1-1.575,1.495,1.478,1.478,0,0,1-1.494-1.623c.044-.932-.185-1.406-1.256-1.342a1.345,1.345,0,0,1-1.6-1.474c.014-1.035.47-1.651,1.576-1.641.356,0,.712,0,1.182,0,.169-1.252-.161-2.945,1.871-2.765C-301.4,551.522-301.849,552.95-301.605,554.095Z" fill="#54acd3"/>
      <path id="Trazado_641314" data-name="Trazado 641314" d="M-311.777,702.018c-1.077,0-2.155.029-3.231-.008-1.111-.038-1.828-.683-1.821-1.554A2.117,2.117,0,0,1-315,698.675c2.194-.031,4.389-.022,6.584.006.7.009,1.8,1.166,1.6,1.8-.231.73-.555,1.558-1.609,1.54-1.117-.02-2.234-.005-3.352-.005Z" fill="#231f20"/>
      <path id="Trazado_641315" data-name="Trazado 641315" d="M-316.135,547.755c-.724-.019-1.706-.911-1.572-1.559.148-.715.364-1.459,1.409-1.41,1.3.061,1.894.474,1.882,1.464A1.509,1.509,0,0,1-316.135,547.755Z" fill="#fbcc2b"/>
      <path id="Trazado_641316" data-name="Trazado 641316" d="M-335.578,655.89h-26.143c-.138-2.3-.262-4.562-.412-6.823q-.5-7.5-1.022-14.993c-.215-3.005-.522-6-.7-9.011-.284-4.68-.593-9.362-.706-14.048a20.663,20.663,0,0,1,2.414-9.374c.754-1.579,1.833-3.007,2.542-4.6.435-.977.97-.911,1.658-.6,1.5.681,2.976,1.422,4.3,2.062a21.253,21.253,0,0,0-3.477,1.414,7.705,7.705,0,0,0-3.434,4.7c-.876,3.075.419,5.456,1.854,7.91.691,1.183,1.2,2.47,1.855,3.678,1.379,2.553,2.82,5.071,4.188,7.629,1.013,1.894,1.923,3.843,2.929,5.741,1.055,1.992,2.189,3.942,3.252,5.93.742,1.389,1.354,2.851,2.144,4.211,1.278,2.2,2.092,4.7,4.154,6.4a8.876,8.876,0,0,0,4.174,2.046c.793.136,1.007.469.948,1.182C-335.239,651.488-335.4,653.626-335.578,655.89Z" fill="#d2d2dc"/>
      <path id="Trazado_641317" data-name="Trazado 641317" d="M-301.836,640.236l-1.267,9.136c-1.979-.258-3.887-.5-5.793-.76-.427-.058-.843-.205-1.271-.263-4.947-.678-9.9-1.318-14.842-2.026-3.59-.514-7.184-1.025-10.741-1.719a4.741,4.741,0,0,1-3.47-2.738c-1.16-2.4-2.58-4.669-3.861-7.009-.5-.909-.9-1.87-1.376-2.789-1.019-1.959-2.056-3.909-3.094-5.858q-1.05-1.97-2.124-3.924c-1.1-2-2.216-3.987-3.291-6-.646-1.208-1.232-2.449-1.832-3.681-.74-1.517-1.448-3.049-2.2-4.558a3.914,3.914,0,0,1,1.158-4.832c1.051-.752,2.074-1.49,3.47-1.3a4.366,4.366,0,0,1,3.442,2.138c1.925,3.483,3.717,7.039,5.614,10.538,1.579,2.913,3.274,5.764,4.841,8.684,1.088,2.029,2.012,4.145,3.072,6.19.9,1.742,1.83,3.478,2.874,5.137a3.06,3.06,0,0,0,2.32,1.408c4.511.574,9.009,1.249,13.511,1.893,3.947.565,7.894,1.128,11.837,1.716C-303.934,639.755-303.022,639.99-301.836,640.236Z" fill="#e8e8ea"/>
      <path id="Trazado_641318" data-name="Trazado 641318" d="M-239.546,640.043c-.082,2.7-2.293,3.909-3.913,5.494-2.355,2.3-4.786,4.528-7.236,6.729-1.536,1.38-3.2,2.618-4.749,3.983-1.757,1.546-3.458,3.156-5.173,4.751-1.642,1.527-3.269,3.07-5.036,4.731-1.794-2.047-3.565-4.034-5.275-6.072a1.1,1.1,0,0,1,.1-1.059c1.039-1.109,2.133-2.169,3.252-3.2,2.046-1.882,4.128-3.726,6.187-5.595,2.377-2.159,4.731-4.343,7.123-6.485,1.515-1.355,3.117-2.614,4.61-3.992a3.7,3.7,0,0,0,1.281-2.878c-.047-9.991,0-19.983-.054-29.973-.009-1.665,1.458-4.039,3.126-4.083l.417.5c.681-.168,1.461-.476,1.531-.359.519.867,1.293.524,1.986.562l1.148,1.228a14.366,14.366,0,0,1,.588,2.849c.042,10.357.025,20.714.029,31.071C-239.609,638.847-239.568,639.445-239.546,640.043Z" fill="#61b9e1"/>
      <path id="Trazado_641319" data-name="Trazado 641319" d="M-354.449,574.444c-2.61-.115-2.657-.107-3.108-2.659a41.51,41.51,0,0,1-.754-5.772,11.931,11.931,0,0,1,1.737-7.043,9.384,9.384,0,0,1,3.3-2.869,10.318,10.318,0,0,1,5.252-1.241,1.737,1.737,0,0,0,1.034-.387c.966-.771,1.832-1.674,2.838-2.383a9.6,9.6,0,0,1,2.7-1.39c2.581-.767,5.185-1.48,7.939-.875,2.337.514,4.424,1.521,5.43,3.744a6.427,6.427,0,0,1-.151,5.569,7.029,7.029,0,0,1-3.852,3.244c-2.967,1.286-6.092,1.234-9.175,1.653a4.748,4.748,0,0,0-2.6,1.393c-.85.9-1.873.72-2.829.907a4.727,4.727,0,0,0-3.974,4.8c.014,1.1.265,2.339-.99,2.857A11.831,11.831,0,0,1-354.449,574.444Z" fill="#6d6c6a"/>
      <path id="Trazado_641320" data-name="Trazado 641320" d="M-236.813,566.308c-.471,2.366-.954,4.73-1.4,7.1a1.025,1.025,0,0,1-1.246.944c-1-.05-2,0-3-.02-1.646-.035-2.471-.8-2.32-2.4a4.756,4.756,0,0,0-2.842-5.211,10.126,10.126,0,0,0-2.427-.429c-.329-.062-.759-.107-.944-.327a5.777,5.777,0,0,0-4.813-1.987,19.781,19.781,0,0,1-8.852-1.937c-3.017-1.452-3.966-5.24-2.657-8.223.934-2.13,2.59-2.96,4.74-3.564,3.717-1.045,7.043-.079,10.3,1.444a20.524,20.524,0,0,1,2.764,2.163,7.428,7.428,0,0,0,2.223,1.193c1.409.383,2.949.362,4.3.873a7.84,7.84,0,0,1,4.09,3.181,11.392,11.392,0,0,1,1.751,7.153Z" fill="#6d6c6a"/>
      <path id="Trazado_641321" data-name="Trazado 641321" d="M-361.459,659.1h10.682v39.556h-5.808c-2.678,0-2.6,0-2.729-2.669-.252-5.165-.609-10.325-.907-15.488-.1-1.791-.152-3.586-.245-5.378-.177-3.4-.354-6.8-.557-10.206C-361.137,663.023-361.3,661.13-361.459,659.1Z" fill="#6d6c6a"/>
      <path id="Trazado_641322" data-name="Trazado 641322" d="M-235.171,682.353c-.3,5.4-.6,10.794-.911,16.243h-8.161V659.159h10.37q-.434,10.043-.866,20.037c-.15.275-.409.541-.429.824C-235.223,680.794-235.177,681.575-235.171,682.353Z" fill="#6d6c6a"/>
      <path id="Trazado_641323" data-name="Trazado 641323" d="M-241.9,598.583c1.691-.742,3.372-1.51,5.085-2.2a1.093,1.093,0,0,1,.938.344,14.048,14.048,0,0,1,2.95,5.781c.2.848.92,1.572,1.125,2.42a25.232,25.232,0,0,1,1.068,5.9c-.032,4.7-.381,9.4-.624,14.091-.13,2.5-.3,5-.463,7.5-.318,4.765-.629,9.531-.978,14.294-.221,3.006-.506,6.008-.771,9.1h-15.7c1.017-1.083,1.948-2.2,3-3.176,2.4-2.229,4.82-4.439,7.309-6.566a8.249,8.249,0,0,0,2.815-6.763c-.02-10.835-.038-21.669.024-32.5a8.064,8.064,0,0,0-2.358-5.67A7.771,7.771,0,0,0-241.9,598.583Z" fill="#55abd4"/>
      <path id="Trazado_641324" data-name="Trazado 641324" d="M-337.2,684.279c-.1,2.954-.14,5.911-.315,8.86-.1,1.765-.416,3.517-.651,5.406H-347.3v-1.3c0-8.119.055-16.238-.049-24.356a2.368,2.368,0,0,1,1.787-2.561,9.676,9.676,0,0,0,4.937-4.6,13.151,13.151,0,0,0,1.474-6.572h3.343c0,1.444,0,2.832,0,4.219-.151.271-.412.535-.432.816-.054.776-.008,1.56,0,2.341l-.525,14.593c-.149.274-.406.541-.426.824C-337.251,682.718-337.206,683.5-337.2,684.279Z" fill="#6d6c6a"/>
      <path id="Trazado_641325" data-name="Trazado 641325" d="M-261.542,622.814a56.183,56.183,0,0,1,3.484-22.947c.634.8,1.055,1.365,1.518,1.9a4.093,4.093,0,0,0,4.007,1.408c.821-.136,1.11.1.925,1.065a21.841,21.841,0,0,0-.3,4.044c-.026,8.594-.1,17.189.045,25.78a5.157,5.157,0,0,1-1.991,4.43c-1.5,1.267-2.924,2.616-4.4,3.906-.617.537-1.285,1.015-2.02,1.59-.129-1.713-.286-3.311-.362-4.913-.115-2.434-.162-4.871-.264-7.3-.034-.827-.146-1.651-.222-2.476.077-.131.221-.262.222-.394.017-1.821.035-3.643-.013-5.463C-260.924,623.223-261.325,623.021-261.542,622.814Z" fill="#55acd4"/>
      <path id="Trazado_641326" data-name="Trazado 641326" d="M-247.754,671.269v27.309h-9.456c-.1-2.083-.2-4.142-.311-6.2-.246-4.478-.49-8.956-.757-13.432-.222-3.719-.475-7.436-.712-11.153a1.885,1.885,0,0,0-.02-.478c-1.02-2.89,1.112-4.143,3-5.776C-255.252,666.55-252.275,669.522-247.754,671.269Z" fill="#6d6c6a"/>
      <path id="Trazado_641327" data-name="Trazado 641327" d="M-262.806,566.406c2.7.325,5.414.594,8.1,1.019a3.042,3.042,0,0,1,1.625,1.159c1.088,1.372,1.239,1.411,3.044,1.083a2.213,2.213,0,0,1,1.615.615c.362.339.823.822.2,1.58-.783.947-.134,2.207.949,3.464,1.79,2.077,4.028,2.576,6.574,2.425.513-.031,1.03-.005,1.549-.005-.26,4.278-4.645,9.67-10.2,10.068l-3.383-.008c-5.042-.336-10.072-5.376-10.108-10.833Z" fill="#f8cfb3"/>
      <path id="Trazado_641328" data-name="Trazado 641328" d="M-346.127,587.8c-4.415-.425-8.851-3.687-10.209-9.764,1.41-.111,2.832-.147,4.228-.355a7.232,7.232,0,0,0,4.955-3.407,2.725,2.725,0,0,0,.175-1.9c-.516-2.294,0-2.921,2.276-2.444,1.365.285,1.994-.72,2.627-1.484a2.946,2.946,0,0,1,2.3-1.106c2.193-.174,4.375-.48,6.562-.732a6.394,6.394,0,0,1,.3,1.329c.031,3.594.028,7.188.036,10.782-.081,1.831-1.1,3.229-2.083,4.668a12.036,12.036,0,0,1-4.534,3.682,12.168,12.168,0,0,1-2.987.737Z" fill="#f8cfb3"/>
      <path id="Trazado_641329" data-name="Trazado 641329" d="M-282.98,638.693l.257-.1,2.876-.4c3.031-.444,6.06-.9,9.094-1.324.7-.1,1.421-.1,2.133-.154a4.032,4.032,0,0,0,3.149-.626l1.183-.12c.2,3.117.4,6.178.613,9.379-.545.085-1.159.19-1.776.274-3.628.493-7.257.979-10.884,1.479-.143.02-.269.156-.4.238l-3.581.479-6.086.807c.483-3.459.231-6.547-2.972-8.988l3.05-.483c.211.087.5.114.619.27.981,1.287,1.638.567,2.294-.328A2.89,2.89,0,0,1-282.98,638.693Z" fill="#61b9e1"/>
      <path id="Trazado_641330" data-name="Trazado 641330" d="M-346.152,601.832c1.8.577,3.235,1.878,5.149,1.371,1.848-.489,2.7-2.128,4.016-3.284a52.7,52.7,0,0,1,3,24.674C-337.993,617.095-342,609.6-346.152,601.832Z" fill="#d2d2dc"/>
      <path id="Trazado_641331" data-name="Trazado 641331" d="M-253.685,599.808l-4.027-4.639,18.691-7.142c.56,1.254,1.17,2.464,1.614,3.731a1.332,1.332,0,0,1-.554,1.167c-2.86,1.38-5.761,2.674-8.649,4-1.56.716-3.116,1.441-4.674,2.161Z" fill="#54acd4"/>
      <path id="Trazado_641332" data-name="Trazado 641332" d="M-356.486,588.01c3.059,1.1,6.118,2.181,9.154,3.316,2.936,1.1,5.843,2.272,8.775,3.377.794.3.7.829.326,1.266-1.048,1.216-2.16,2.379-3.291,3.519a1.047,1.047,0,0,1-.913.247c-2.123-.957-4.21-1.992-6.324-2.968-1.031-.476-2.108-.851-3.144-1.316-1.928-.866-3.851-1.744-5.746-2.678a1.013,1.013,0,0,1-.286-.92C-357.518,590.6-357.009,589.37-356.486,588.01Z" fill="#d2d2dc"/>
      <path id="Trazado_641333" data-name="Trazado 641333" d="M-291.358,642.725a7.883,7.883,0,0,1,1.349,1.289c.882,1.359.181,4.2-1.009,5.346-1.714,1.657-3.674,1.384-5.692,1.038-.969-.167-1.933-.364-3.091-.583.428-2.959.86-5.946,1.293-8.932l4.022.45Z" fill="#f8cfb3"/>
      <path id="Trazado_641334" data-name="Trazado 641334" d="M-277.752,670.36a3.851,3.851,0,0,1-1.088-3.315,6.774,6.774,0,0,1,2.585-3.673,18.534,18.534,0,0,1,1.582-1.485c.3-.209,1.023-.314,1.191-.131,1.848,2.005,3.624,4.076,5.472,6.189l-3.117,2.423c-.611.229-1.213.488-1.836.68s-1.526-.444-1.828.649c-.251-.106-.648-.146-.728-.328A1.787,1.787,0,0,0-277.752,670.36Z" fill="#f8cfb3"/>
      <path id="Trazado_641335" data-name="Trazado 641335" d="M-239.546,640.043c-.022-.6-.063-1.2-.063-1.794,0-10.357.013-20.714-.029-31.071a14.366,14.366,0,0,0-.588-2.849l1.164.074c.171,2.088.468,4.112.479,6.136.051,9.418.033,18.835,0,28.253a1.631,1.631,0,0,0,.837,1.641c1.1.621.557,1.448.468,2.227Z" fill="#20201f"/>
      <path id="Trazado_641336" data-name="Trazado 641336" d="M-252.855,659.134h5.155c0,2.633.012,5.209-.032,7.785,0,.152-.577.486-.688.417-1.992-1.238-3.669-2.7-3.852-5.295A23.062,23.062,0,0,0-252.855,659.134Z" fill="#565453"/>
      <path id="Trazado_641337" data-name="Trazado 641337" d="M-347.191,659.129h4.435c.975,2.826-.825,6.242-4.435,8.267Z" fill="#565453"/>
      <path id="Trazado_641338" data-name="Trazado 641338" d="M-277.752,670.36a1.787,1.787,0,0,1,2.233,1.009c.08.182.477.222.728.328.3-1.093,1.208-.458,1.828-.649s1.225-.451,1.836-.68c-.882,1.5-2.3,1.778-3.865,1.648A2.847,2.847,0,0,1-277.752,670.36Z" fill="#f0d0ba"/>
      <path id="Trazado_641339" data-name="Trazado 641339" d="M-262.806,566.406l-.036,10.567c-.152-.319-.434-.637-.438-.958q-.053-4.361,0-8.722C-263.276,566.995-262.971,566.7-262.806,566.406Z" fill="#493e3a"/>
      <path id="Trazado_641340" data-name="Trazado 641340" d="M-261.542,622.814c.217.207.618.409.623.621.048,1.82.03,3.642.013,5.463,0,.132-.145.263-.222.394Z" fill="#65a2c0"/>
      <path id="Trazado_641341" data-name="Trazado 641341" d="M-332.882,578.719c-.008-3.594-.005-7.188-.036-10.782a6.394,6.394,0,0,0-.3-1.329c.21.073.606.149.605.219C-332.679,570.791-332.782,574.755-332.882,578.719Z" fill="#efd1be"/>
      <path id="Trazado_641342" data-name="Trazado 641342" d="M-241.374,603.1c-.693-.038-1.467.3-1.986-.562-.07-.117-.85.191-1.531.359l-.417-.5c.723-1,1.733-.464,2.573-.353C-242.243,602.107-241.825,602.729-241.374,603.1Z" fill="#6ab2cc"/>
      <path id="Trazado_641343" data-name="Trazado 641343" d="M-282.98,638.693a2.89,2.89,0,0,0-.434.4c-.656.895-1.313,1.615-2.294.328-.119-.156-.408-.183-.619-.27Z" fill="#69b2d4"/>
      <path id="Trazado_641344" data-name="Trazado 641344" d="M-236.768,605.9l-.879,1.05a7.486,7.486,0,0,1-.976-1.156c-.041-.071.5-.679.783-.688S-237.249,605.521-236.768,605.9Z" fill="#20201f"/>
      <path id="Trazado_641345" data-name="Trazado 641345" d="M-253.685,599.808l2.4-.724c.062.41.124.82.23,1.523C-251.986,600.063-253.117,601.315-253.685,599.808Z" fill="#1d222b"/>
      <path id="Trazado_641346" data-name="Trazado 641346" d="M-291.358,642.725l-3.128-1.392C-293.279,641.429-292.041,641.453-291.358,642.725Z" fill="#e5cab9"/>
      <path id="Trazado_641347" data-name="Trazado 641347" d="M-280.319,647.812l3.581-.479A3.687,3.687,0,0,1-280.319,647.812Z" fill="#1c2e3d"/>
      <path id="Trazado_641348" data-name="Trazado 641348" d="M-346.127,587.8l3.641,0A3.538,3.538,0,0,1-346.127,587.8Z" fill="#6f6058"/>
      <path id="Trazado_641349" data-name="Trazado 641349" d="M-252.734,587.806l3.383.008A3.118,3.118,0,0,1-252.734,587.806Z" fill="#4d4444"/>
      <path id="Trazado_641350" data-name="Trazado 641350" d="M-279.847,638.187l-2.876.4c.16-.215.323-.616.48-.613C-281.444,637.989-280.646,638.106-279.847,638.187Z" fill="#072932"/>
      <path id="Trazado_641351" data-name="Trazado 641351" d="M-336.246,666.526c-.006-.781-.052-1.565,0-2.341.02-.281.281-.545.432-.816,0,.777.046,1.557-.01,2.33C-335.843,665.983-336.1,666.251-336.246,666.526Z" fill="#5c5959"/>
      <path id="Trazado_641352" data-name="Trazado 641352" d="M-235.171,682.353c-.006-.778-.052-1.559,0-2.333.02-.283.279-.549.429-.824.005.78.051,1.562,0,2.337C-234.762,681.815-235.021,682.08-235.171,682.353Z" fill="#3e3a3c"/>
      <path id="Trazado_641353" data-name="Trazado 641353" d="M-337.2,684.279c-.006-.779-.051-1.561,0-2.336.02-.283.277-.55.426-.824.006.779.052,1.561,0,2.336C-336.793,683.738-337.051,684-337.2,684.279Z" fill="#474546"/>
      <path id="Trazado_641354" data-name="Trazado 641354" d="M-265.471,636.083a4.032,4.032,0,0,1-3.149.626Z" fill="#71a6c2"/>
      <path id="Trazado_641355" data-name="Trazado 641355" d="M-290.649,582l3.294,1.678-.894.97a4.286,4.286,0,0,0-3.123,2.878q-1.159,1.292-2.319,2.585c-.279.312-.548.634-.822.951l-1.472,1.483a5.873,5.873,0,0,1-1.252,1.088,1.341,1.341,0,0,1-1.214-.119c-1.309-1.235-2.47-2.632-3.821-3.816a13.128,13.128,0,0,0-2.607-1.422l.051-.449c-.867,0-1.734-.01-2.6.02a5.522,5.522,0,0,0-.043.635,10.022,10.022,0,0,0-1.96,1.361c-2.054,2.3-2.227,5.1-.043,7.3,2.7,2.722,5.366,5.489,8.173,8.1,1.357,1.262,2.85,2.212,5.027,1.154a11.211,11.211,0,0,0,3.213-2.388c1.782-1.823,3.673-3.541,5.475-5.345,1.67-1.673,3.283-3.4,4.922-5.106.722-.183.613.335.674.762.327,2.284-.362,4.451-.744,6.653-.83,1.9-1.384,3.968-3.386,5.123-.339.2-.386.843-.7,1.151a14.43,14.43,0,0,1-7.891,4.29,2.4,2.4,0,0,0-.518.213l-.469.03-4.326-.028-.948,0a36.349,36.349,0,0,1-3.491-1.278,15.758,15.758,0,0,1-7.51-7.217,16.87,16.87,0,0,1-1.689-9.549,22.861,22.861,0,0,1,1.073-3.81l1.585.567-.792-2.013a36.19,36.19,0,0,1,2.852-3.893,13.782,13.782,0,0,1,7.457-4l7.243,0,.975.2C-292.782,581.989-291.773,582.115-290.649,582Z" fill="#6ccc6d"/>
      <path id="Trazado_641356" data-name="Trazado 641356" d="M-297.777,603.573a8.739,8.739,0,0,1-1.264-.862q-3.965-3.924-7.883-7.894a1.543,1.543,0,0,1,.042-2.436c.785-.78,1.468-.776,2.366.1q2.641,2.57,5.237,5.186a2.375,2.375,0,0,0,3.007-.135q3.955-4.022,7.931-8.025c1.282-1.291,2.569-2.577,3.874-3.844,1.078-1.046,2.014-1.111,2.812-.244.859.934.735,1.888-.333,2.91q-2.541,2.433-5.05,4.9-3.03,2.976-6.03,5.982c-1.2,1.2-2.376,2.435-3.589,3.628A7.309,7.309,0,0,1-297.777,603.573Z" fill="#e8e8ea"/>
      <path id="Trazado_641357" data-name="Trazado 641357" d="M-282.733,600.971c.382-2.2,1.071-4.369.744-6.653-.061-.427.048-.945-.674-.762l-.856-.165,1.09-.8a1.636,1.636,0,0,1,1.157,1.932c-.081,1.266.1,2.556-.061,3.807a10.621,10.621,0,0,1-.948,2.564C-282.312,600.971-282.577,600.948-282.733,600.971Z" fill="#1e291a"/>
      <path id="Trazado_641358" data-name="Trazado 641358" d="M-294.239,580.561l-7.243,0a7.307,7.307,0,0,1,4.5-.58c.27.021.538.067.808.1l1.843.291A1.08,1.08,0,0,0-294.239,580.561Z" fill="#7cbf7e"/>
      <path id="Trazado_641359" data-name="Trazado 641359" d="M-291.372,587.527a4.286,4.286,0,0,1,3.123-2.878q-.489.57-.977,1.141l-1.492,1.482Z" fill="#78b576"/>
      <path id="Trazado_641360" data-name="Trazado 641360" d="M-290.649,582c-1.124.114-2.133-.012-2.615-1.245Z" fill="#75b474"/>
      <path id="Trazado_641361" data-name="Trazado 641361" d="M-300.967,611.752l.948,0,4.326.028.469-.03c-.258.166-.512.47-.776.478-1.5.046-3.009.037-4.512,0C-300.668,612.223-300.815,611.917-300.967,611.752Z" fill="#102d0d"/>
      <path id="Trazado_641362" data-name="Trazado 641362" d="M-294.333,580.371l-1.843-.291a.95.95,0,0,1,1.42-.619C-294.526,579.562-294.469,580.056-294.333,580.371Z" fill="#182c16"/>
      <path id="Trazado_641363" data-name="Trazado 641363" d="M-307.47,588.483a5.522,5.522,0,0,1,.043-.635c.865-.03,1.732-.023,2.6-.02l-.051.449Z" fill="#77be7e"/>
      <path id="Trazado_641364" data-name="Trazado 641364" d="M-295.985,592.546l1.472-1.483C-294.476,592.7-294.645,592.866-295.985,592.546Z" fill="#152b13"/>
      <path id="Trazado_641365" data-name="Trazado 641365" d="M-290.718,587.272l1.492-1.482C-289.2,587.3-289.2,587.3-290.718,587.272Z" fill="#132d11"/>
      <path id="Trazado_641366" data-name="Trazado 641366" d="M-311.791,588.452l.792,2.013-1.585-.567Q-312.188,589.175-311.791,588.452Z" fill="#73c27a"/>
      <path id="Trazado_641367" data-name="Trazado 641367" d="M-295.693,611.778l-4.326-.028Z" fill="#82a580"/>
    </g>
  </g>
</svg>
