<svg xmlns="http://www.w3.org/2000/svg" width="232.003" height="326.349" viewBox="0 0 232.003 326.349">
  <g id="Grupo_909097" data-name="Grupo 909097" transform="translate(-179.997 -10210.354)">
    <path id="Trazado_644572" data-name="Trazado 644572" d="M0,0H231.75V326H0Z" transform="translate(179.997 10210.354)" fill="#f3f9ff"/>
    <path id="Trazado_644573" data-name="Trazado 644573" d="M0,0H232V57H0Z" transform="translate(180 10479.702)" fill="#d2e1f1"/>
    <path id="Trazado_644574" data-name="Trazado 644574" d="M81.714,6.781l3.174,9.893,3.164-9.893h4.512V21H89.126V17.68l.332-6.8L86.021,21H83.755L80.308,10.873l.332,6.807V21H77.212V6.781ZM106.626,21h-3.408V15.063H98.169V21H94.741V6.781h3.428v5.645h5.049V6.781h3.408ZM120.3,16.186a5.193,5.193,0,0,1-.8,2.622,4.833,4.833,0,0,1-2.056,1.763,7,7,0,0,1-3.022.625A5.584,5.584,0,0,1,110,19.369a7.54,7.54,0,0,1-1.611-5.156v-.7a8.607,8.607,0,0,1,.728-3.657,5.513,5.513,0,0,1,2.095-2.422,5.844,5.844,0,0,1,3.164-.854,6.129,6.129,0,0,1,4.16,1.362,5.383,5.383,0,0,1,1.787,3.755h-3.418a2.547,2.547,0,0,0-.654-1.865,2.691,2.691,0,0,0-1.875-.566,2.048,2.048,0,0,0-1.875.957,6.151,6.151,0,0,0-.625,3.057v1.006a6.806,6.806,0,0,0,.571,3.252,2.091,2.091,0,0,0,1.968.977,2.632,2.632,0,0,0,1.807-.557,2.363,2.363,0,0,0,.664-1.768Zm5.049-.01V21h-3.428V6.781h5.674a6.609,6.609,0,0,1,2.886.6,4.526,4.526,0,0,1,1.943,1.709,4.667,4.667,0,0,1,.688,2.515,4.114,4.114,0,0,1-1.489,3.325,6.179,6.179,0,0,1-4.087,1.245Zm0-2.646h2.246a2.118,2.118,0,0,0,1.519-.5,1.85,1.85,0,0,0,.522-1.406,2.287,2.287,0,0,0-.537-1.592,1.9,1.9,0,0,0-1.465-.605h-2.285Z" transform="translate(194 10495.702)" fill="#12263f"/>
    <g id="Grupo_907043" data-name="Grupo 907043" transform="translate(872.137 9765.908)">
      <path id="Trazado_641288" data-name="Trazado 641288" d="M-515.48,564v10.522a12.811,12.811,0,0,1,7.236.772,13.059,13.059,0,0,1,5.519,4.273,12.508,12.508,0,0,1,2.467,7.58,12.228,12.228,0,0,1-1.262,4.991,9.523,9.523,0,0,1-2.526,3.788c-1.556,1.22-1.4,2.652-1.4,4.207q.009,17.278,0,34.558v1.336c3.761,1.424,5.185,4.387,5.262,8.123.081,3.953.018,7.91.018,11.938H-658.493c-.02-.228-.064-.492-.064-.756q0-6.18,0-12.36a7.509,7.509,0,0,1,5.037-6.89v-1.033q0-18.359,0-36.718a1.93,1.93,0,0,0-.747-1.791,11.792,11.792,0,0,1-3.234-4.346,13.178,13.178,0,0,1-.59-8.8,12.714,12.714,0,0,1,3.233-5.307,12.433,12.433,0,0,1,5.663-3.406c1.787-.58,3.856-.292,5.9-.394V564a10.254,10.254,0,0,0-2.048.023c-1.639.333-2.408-.585-3.173-1.813-1.161-1.864-2.569-3.576-3.69-5.46-1.7-2.848-2.1-6.576.389-9.529a35.674,35.674,0,0,1,2.808-2.621,1.4,1.4,0,0,0,.505-.8c.028-6.83.022-13.66.022-20.587h-4.987V507.84h1.316c17.68,0,35.359-.041,53.038.061a7.7,7.7,0,0,0,4.43-1.566c1.1-.71,2.053-1.648,3.124-2.41,2.049-1.458,4.2-2.778,6.189-4.313,2.235-1.726,4.733-1.974,7.384-1.747a10.351,10.351,0,0,1,5.767,2.646c1.375,1.134,2.925,2.055,4.386,3.086,1.651,1.164,3.259,2.393,4.951,3.5a4.166,4.166,0,0,0,2.117.717q22.379.062,44.758.031h10.5v15.316h-4.969V524.4c0,6.16.036,12.32-.035,18.478a2.2,2.2,0,0,0,1.093,2.152c3.891,2.4,4.568,5.951,3.631,9.595a14.969,14.969,0,0,1-2.157,4.056c-1.013,1.584-2.141,3.1-3.28,4.6a1.878,1.878,0,0,1-1.162.689C-513.375,564.068-514.378,564-515.48,564Zm-5.32.068H-638.16c0,4.181-.006,8.295.015,12.408a1.169,1.169,0,0,0,.346.812,13.685,13.685,0,0,1,4.414,6.978c1.137,3.737-.821,9.916-3.933,12.2a1.834,1.834,0,0,0-.843,1.748q0,7.98,0,15.958c0,.3.045.607.065.864h10.075V574.4h20.645v40.632h5.047V574.408h20.406V615.07h4.962v-40.7h20.4v40.692h5.287V574.378h20.406v40.68H-520.8c0-5.854.007-11.646-.018-17.437a1.267,1.267,0,0,0-.428-.9,11.117,11.117,0,0,1-4.271-6.62,12.246,12.246,0,0,1,3.348-11.851c.516-.531,1.293-1.164,1.31-1.767C-520.745,572.37-520.8,568.254-520.8,564.068Zm15.36,86.769c0-2.323,0-4.519,0-6.715,0-2.786-.545-3.321-3.376-3.321q-70.608,0-141.218,0a9.153,9.153,0,0,0-1.436.046A2.04,2.04,0,0,0-653.4,642.6c-.127,2.734-.045,5.478-.045,8.234ZM-579.4,548.88q-32.392,0-64.785.009a8.215,8.215,0,0,0-2.127.216,3.045,3.045,0,0,0-1.722,4.219c.819,1.437,1.7,2.84,2.52,4.275a2.835,2.835,0,0,0,2.862,1.4q63.406-.067,126.812-.037a2.663,2.663,0,0,0,.834-.018,1.825,1.825,0,0,0,.873-.545q1.486-2.1,2.877-4.276a4.591,4.591,0,0,0,.74-1.658c.3-1.89-1.261-3.622-3.739-3.615Q-546.829,548.932-579.4,548.88Zm40.49-5.337c-2.21-1.667-4.311-3.277-6.44-4.85-1.932-1.426-3.9-2.8-5.839-4.218-2.4-1.759-4.77-3.553-7.165-5.315s-4.821-3.491-7.212-5.262c-1.991-1.476-3.95-3-5.926-4.492s-3.916-3.046-5.956-4.449a3.592,3.592,0,0,0-2.464-.771,9.218,9.218,0,0,0-2.829,1.747c-1.906,1.391-3.767,2.842-5.667,4.241-1.978,1.456-3.995,2.858-5.966,4.322-2.407,1.787-4.774,3.628-7.178,5.419-1.87,1.393-3.785,2.725-5.654,4.12-2.376,1.773-4.712,3.6-7.091,5.369-1.819,1.353-3.678,2.653-5.745,4.139Zm-99.011.058c2.742,0,5.127-.036,7.511.016a3.763,3.763,0,0,0,3.1-1.062,18.163,18.163,0,0,1,2.459-1.834q3.856-2.819,7.71-5.639c2.413-1.772,4.815-3.559,7.233-5.325,1.448-1.058,2.94-2.059,4.373-3.137,2.255-1.7,4.456-3.461,6.719-5.145,2.383-1.773,4.816-3.479,7.22-5.223q3.3-2.391,6.576-4.805c1.609-1.186,3.23-2.358,4.787-3.61a1.14,1.14,0,0,1,1.591-.006c.926.679,1.813,1.41,2.74,2.087,2.142,1.562,4.3,3.105,6.45,4.655,1.518,1.1,3.048,2.174,4.554,3.287,1.966,1.453,3.91,2.938,5.871,4.4,1.412,1.052,2.84,2.083,4.255,3.131q3.621,2.684,7.233,5.376c1.635,1.215,3.264,2.44,4.907,3.646,1.878,1.379,3.777,2.728,5.649,4.114,1.5,1.113,2.955,2.3,4.479,3.379.9.636,1.86,1.539,2.849,1.618,2.766.222,5.561.077,8.345.077-.087-.235-.233-.242-.33-.315-2.842-2.133-5.647-4.318-8.527-6.4-3.357-2.426-6.8-4.731-10.166-7.148s-6.653-4.927-10.007-7.352c-2.421-1.751-4.916-3.4-7.338-5.149-3.433-2.477-6.8-5.043-10.249-7.5q-4.594-3.277-9.309-6.387a4.076,4.076,0,0,0-4.407-.072c-2.734,1.675-5.3,3.62-7.913,5.493-3.043,2.187-6.043,4.434-9.086,6.619-2.051,1.473-4.172,2.848-6.214,4.333-2.817,2.048-5.567,4.189-8.387,6.233-2.413,1.75-4.907,3.388-7.323,5.134-3.345,2.417-6.635,4.909-9.976,7.33C-632.89,540.115-635.278,541.747-637.922,543.6Zm117.086,76.873H-638.081v4.892h117.245Zm-117.289,14.98h117.254v-4.908H-638.125Zm51.015-20.368V579.434h-10.18v35.652Zm40.951-35.684v35.634H-536V579.4Zm-76.569-.009v35.652h9.936V579.393Zm61.1.042h-9.98v35.61h9.98Zm46.049-56.207h-24.9l24.9,18.044Zm-127.573,17.883,24.722-17.823h-24.722Zm-5.277-22.951c12.292,0,24.451,0,36.609-.007a1.405,1.405,0,0,0,.767-.173c2.21-1.557,4.4-3.139,6.685-4.776H-648.43Zm93.833-5.007c1.6,1.142,3.051,2.1,4.41,3.17a8.04,8.04,0,0,0,5.392,1.9c11-.128,21.995-.059,32.993-.059h1.235v-5.007Zm-93.819,86.512v35.79h5.153v-35.79Zm135.4-4.948a7.7,7.7,0,0,0,7.6-7.621c-.153-4.646-3.44-7.732-7.747-7.642-4.541.094-7.338,3.157-7.59,7.542C-520.985,591.15-517.1,594.814-513.012,594.717Zm-132.784,0a7.561,7.561,0,0,0,7.555-7.409c-.064-4.7-3.031-7.81-7.729-7.874a7.682,7.682,0,0,0-7.57,7.752C-653.6,591.111-649.815,594.949-645.8,594.718Zm135.224,40.768V599.68h-4.883v35.806Z" fill="#010100"/>
      <path id="Trazado_641289" data-name="Trazado 641289" d="M-520.8,564.068c0,4.186.055,8.3-.061,12.413-.017.6-.794,1.236-1.31,1.767a12.246,12.246,0,0,0-3.348,11.851,11.117,11.117,0,0,0,4.271,6.62,1.267,1.267,0,0,1,.428.9c.025,5.791.018,11.583.018,17.437h-10.057v-40.68h-20.406v40.686h-5.287V574.372h-20.4v40.7h-4.962V574.408h-20.406v40.626h-5.047V574.4h-20.645V615.04h-10.075c-.02-.257-.064-.56-.065-.864q-.006-7.979,0-15.958a1.834,1.834,0,0,1,.843-1.748c3.112-2.288,5.07-8.467,3.933-12.2a13.685,13.685,0,0,0-4.414-6.978,1.169,1.169,0,0,1-.346-.812c-.021-4.113-.015-8.227-.015-12.408Z" fill="#e5e8ec"/>
      <path id="Trazado_641290" data-name="Trazado 641290" d="M-505.44,650.837H-653.448c0-2.756-.082-5.5.045-8.234a2.04,2.04,0,0,1,1.932-1.755,9.153,9.153,0,0,1,1.436-.046q70.609,0,141.218,0c2.831,0,3.375.535,3.376,3.321C-505.44,646.318-505.44,648.514-505.44,650.837Z" fill="#959ea9"/>
      <path id="Trazado_641291" data-name="Trazado 641291" d="M-579.4,548.88q32.573,0,65.145-.032c2.478-.007,4.036,1.725,3.739,3.615a4.591,4.591,0,0,1-.74,1.658q-1.388,2.172-2.877,4.276a1.825,1.825,0,0,1-.873.545,2.663,2.663,0,0,1-.834.018q-63.406,0-126.812.037a2.835,2.835,0,0,1-2.862-1.4c-.823-1.435-1.7-2.838-2.52-4.275a3.045,3.045,0,0,1,1.722-4.219,8.215,8.215,0,0,1,2.127-.216Q-611.794,548.872-579.4,548.88Z" fill="#fbd66f"/>
      <path id="Trazado_641292" data-name="Trazado 641292" d="M-538.911,543.543h-81.132c2.067-1.486,3.926-2.786,5.745-4.139,2.379-1.77,4.715-3.6,7.091-5.369,1.869-1.395,3.784-2.727,5.654-4.12,2.4-1.791,4.771-3.632,7.178-5.419,1.971-1.464,3.988-2.866,5.966-4.322,1.9-1.4,3.761-2.85,5.667-4.241a9.218,9.218,0,0,1,2.829-1.747,3.592,3.592,0,0,1,2.464.771c2.04,1.4,3.98,2.953,5.956,4.449s3.935,3.016,5.926,4.492c2.391,1.771,4.814,3.5,7.212,5.262s4.767,3.556,7.165,5.315c1.936,1.42,3.907,2.792,5.839,4.218C-543.222,540.266-541.121,541.876-538.911,543.543Zm-40.514-4.986a7.629,7.629,0,0,0,7.675-7.63,7.663,7.663,0,0,0-7.693-7.735,7.845,7.845,0,0,0-7.656,7.756A7.819,7.819,0,0,0-579.425,538.557Z" fill="#fde8a6"/>
      <path id="Trazado_641293" data-name="Trazado 641293" d="M-637.922,543.6c2.644-1.854,5.032-3.486,7.374-5.182,3.341-2.421,6.631-4.913,9.976-7.33,2.416-1.746,4.91-3.384,7.323-5.134,2.82-2.044,5.57-4.185,8.387-6.233,2.042-1.485,4.163-2.86,6.214-4.333,3.043-2.185,6.043-4.432,9.086-6.619,2.609-1.873,5.179-3.818,7.913-5.493a4.076,4.076,0,0,1,4.407.072q4.706,3.115,9.309,6.387c3.447,2.457,6.816,5.023,10.249,7.5,2.422,1.749,4.917,3.4,7.338,5.149,3.354,2.425,6.646,4.937,10.007,7.352s6.809,4.722,10.166,7.148c2.88,2.082,5.685,4.267,8.527,6.4.1.073.243.08.33.315-2.784,0-5.579.145-8.345-.077-.989-.079-1.952-.982-2.849-1.618-1.524-1.082-2.975-2.266-4.479-3.379-1.872-1.386-3.771-2.735-5.649-4.114-1.643-1.206-3.272-2.431-4.907-3.646q-3.615-2.689-7.233-5.376c-1.415-1.048-2.843-2.079-4.255-3.131-1.961-1.461-3.9-2.946-5.871-4.4-1.506-1.113-3.036-2.192-4.554-3.287-2.151-1.55-4.308-3.093-6.45-4.655-.927-.677-1.814-1.408-2.74-2.087a1.14,1.14,0,0,0-1.591.006c-1.557,1.252-3.178,2.424-4.787,3.61q-3.277,2.416-6.576,4.805c-2.4,1.744-4.837,3.45-7.22,5.223-2.263,1.684-4.464,3.45-6.719,5.145-1.433,1.078-2.925,2.079-4.373,3.137-2.418,1.766-4.82,3.553-7.233,5.325q-3.851,2.826-7.71,5.639a18.163,18.163,0,0,0-2.459,1.834,3.763,3.763,0,0,1-3.1,1.062C-632.795,543.565-635.18,543.6-637.922,543.6Z" fill="#f7d36e"/>
      <path id="Trazado_641294" data-name="Trazado 641294" d="M-520.836,620.474v4.892H-638.081v-4.892Z" fill="#cbd0d8"/>
      <path id="Trazado_641295" data-name="Trazado 641295" d="M-638.125,635.454v-4.908h117.254v4.908Z" fill="#cbd0d8"/>
      <path id="Trazado_641296" data-name="Trazado 641296" d="M-587.11,615.086h-10.18V579.434h10.18Z" fill="#69d5f3"/>
      <path id="Trazado_641297" data-name="Trazado 641297" d="M-546.159,579.4H-536v35.634h-10.158Z" fill="#69d5f3"/>
      <path id="Trazado_641298" data-name="Trazado 641298" d="M-622.728,579.393h9.936v35.652h-9.936Z" fill="#69d5f3"/>
      <path id="Trazado_641299" data-name="Trazado 641299" d="M-561.629,579.435v35.61h-9.98v-35.61Z" fill="#69d5f3"/>
      <path id="Trazado_641300" data-name="Trazado 641300" d="M-515.58,523.228v18.044l-24.9-18.044Z" fill="#cacfd7"/>
      <path id="Trazado_641301" data-name="Trazado 641301" d="M-643.153,541.111V523.288h24.722Z" fill="#cacfd7"/>
      <path id="Trazado_641302" data-name="Trazado 641302" d="M-648.43,518.16V513.2h44.061c-2.283,1.637-4.475,3.219-6.685,4.776a1.405,1.405,0,0,1-.767.173C-623.979,518.161-636.138,518.16-648.43,518.16Z" fill="#a9b1bc"/>
      <path id="Trazado_641303" data-name="Trazado 641303" d="M-554.6,513.153h44.03v5.007H-511.8c-11,0-22-.069-32.993.059a8.04,8.04,0,0,1-5.392-1.9C-551.546,515.25-553,514.295-554.6,513.153Z" fill="#a9b1bc"/>
      <path id="Trazado_641304" data-name="Trazado 641304" d="M-648.416,599.665h5.153v35.79h-5.153Z" fill="#fee9a6"/>
      <path id="Trazado_641305" data-name="Trazado 641305" d="M-513.012,594.717c-4.088.1-7.973-3.567-7.734-7.721.252-4.385,3.049-7.448,7.59-7.542,4.307-.09,7.594,3,7.747,7.642A7.7,7.7,0,0,1-513.012,594.717Z" fill="#fbd66f"/>
      <path id="Trazado_641306" data-name="Trazado 641306" d="M-645.8,594.718c-4.019.231-7.8-3.607-7.744-7.531a7.682,7.682,0,0,1,7.57-7.752c4.7.064,7.665,3.17,7.729,7.874A7.561,7.561,0,0,1-645.8,594.718Z" fill="#f7d36e"/>
      <path id="Trazado_641307" data-name="Trazado 641307" d="M-510.572,635.486h-4.883V599.68h4.883Z" fill="#fee9a6"/>
      <path id="Trazado_641308" data-name="Trazado 641308" d="M-579.425,538.557a7.819,7.819,0,0,1-7.674-7.609,7.845,7.845,0,0,1,7.656-7.756,7.663,7.663,0,0,1,7.693,7.735A7.629,7.629,0,0,1-579.425,538.557Zm2.462-7.7a2.478,2.478,0,0,0-2.43-2.616,2.731,2.731,0,0,0-2.6,2.718,2.76,2.76,0,0,0,2.527,2.56A2.475,2.475,0,0,0-576.963,530.857Z" fill="#020202"/>
      <path id="Trazado_641309" data-name="Trazado 641309" d="M-576.963,530.857a2.475,2.475,0,0,1-2.508,2.662,2.76,2.76,0,0,1-2.527-2.56,2.731,2.731,0,0,1,2.6-2.718A2.478,2.478,0,0,1-576.963,530.857Z" fill="#63cae7"/>
    </g>
  </g>
</svg>
