<svg xmlns="http://www.w3.org/2000/svg" width="451.826" height="319.416" viewBox="0 0 451.826 319.416">
  <g id="Grupo_909102" data-name="Grupo 909102" transform="translate(-863.174 -10778.702)">
    <rect id="BG" width="451.826" height="319.416" transform="translate(863.174 10778.702)" fill="#e8e8e8" opacity="0.949"/>
    <g id="Shadow" transform="translate(1020 11004.118)">
      <path id="Trazado_126596" data-name="Trazado 126596" d="M186.246,724.627a229.546,229.546,0,0,0-23.97,1.069c-3.009.324-5.955,1.037-8.971,1.324-6.024.575-11.941,1.646-17.986,2.14-4.869.4-9.757.633-14.612,1.138a53.069,53.069,0,0,1-14.106-.418,96.837,96.837,0,0,1-9.989-1.835,42.041,42.041,0,0,0-11.5-1.758c-5.464.038-10.784.042-16.013,1.88a15.887,15.887,0,0,0-5.476,3.058c-3.191,3.1-3.622,10.83-.436,14.044C68.55,750.679,80,752.8,87.522,752.9c8.241.11,16.248-.483,24.5-.831,7.669-.324,15.32-.784,23-.768,15.69.033,31.382,0,47.043-1.015,14.714-.953,29.466-.626,44.212-.626,15.122,0,30.142.115,45.155,2.061,6.541.849,13.206,1.145,19.78,1.739,5.887.532,11.546-.011,17.41-.5a42.623,42.623,0,0,0,14.29-3.708c3.541-1.639,9.854-6.731,10.94-10.643,3.044-10.968-42.906-10.7-49.961-10.679-7.892.028-15.847.279-23.733-.012a57.648,57.648,0,0,1-9.823-1.439c-3.225-.685-6.474-.511-9.745-.8-13.638-1.2-27.305-1.026-40.987-1.026C195.154,724.652,190.7,724.614,186.246,724.627Z" transform="translate(-61 -724.624)" fill="#f1f2f2"/>
    </g>
    <g id="Object" transform="translate(1025.962 10855.646)">
      <g id="Grupo_877794" data-name="Grupo 877794">
        <g id="Grupo_877784" data-name="Grupo 877784" transform="translate(0 17.83)">
          <g id="Grupo_877777" data-name="Grupo 877777" transform="translate(64.778 12.87)">
            <path id="Trazado_126597" data-name="Trazado 126597" d="M183.86,526.01l1.667-1.123,1.906.848.952,1.775-.672,1.351-1.706.753.591.229-.166.484-2.645.87c-.537-.7-2.525-1.407-2.813-1.781l1.845-1.262Z" transform="translate(-180.973 -524.887)" fill="#aa6755"/>
          </g>
          <g id="Grupo_877778" data-name="Grupo 877778" transform="translate(13.97 72.337)">
            <path id="Trazado_126598" data-name="Trazado 126598" d="M113.279,632.537,94.8,625.743l3.808,32.365L96.4,686.031l-.059.186.044.005,0,.061,3.644.348v0l.135.015,8.138-24.878,4.307-26.5h0Z" transform="translate(-94.803 -625.743)" fill="#222b5a"/>
            <path id="Trazado_126599" data-name="Trazado 126599" d="M100.043,731.1l-3.78-.1-.965,3.189.1.028-.024,0,6.249,3.7,2.971.33.378-3.4-.8-.588Z" transform="translate(-95.006 -668.938)" fill="#162a42"/>
          </g>
          <g id="Grupo_877779" data-name="Grupo 877779" transform="translate(25.785 75.547)">
            <path id="Trazado_126600" data-name="Trazado 126600" d="M134.086,635.327l-5.545,55.416-3.657.166-3.674-29.922-6.369-29.8Z" transform="translate(-114.842 -631.186)" fill="#222b5a"/>
            <path id="Trazado_126601" data-name="Trazado 126601" d="M135.092,734.374l4.844,2.747-.454,2.286-8.655-1.3.509-3.293Z" transform="translate(-121.402 -673.531)" fill="#162a42"/>
          </g>
          <g id="Grupo_877780" data-name="Grupo 877780" transform="translate(0 21.666)">
            <path id="Trazado_126602" data-name="Trazado 126602" d="M124.8,611.744c1.169-.811,1.194-2.225,1.192-3.64a35.372,35.372,0,0,0-1.091-7.959,119.438,119.438,0,0,1-3.054-16.961c-1.5-16.229-6.62-27.12-6.62-27.12l-1.654-4.41q-.493-.861-1.026-1.7c-2.065-3.241-5.652-8.749-9.487-9.651l-.242-.055a19.948,19.948,0,0,0-12.845,1.486,12.771,12.771,0,0,0-1.917,1.36c-1.782,1.438-3.235,2.216-4,4.406a39.9,39.9,0,0,0-1.19,5.948c-.747,4-1.193,8.057-1.79,12.085-1.119,7.553-2.069,15.13-3.266,22.671-.616,3.881-1.236,7.769-1.527,11.691-.257,3.467-3.386,6.988-5.143,10.1-.612,1.081,8.173,3.883,8.961,4.067,3.644.849,7.521.632,11.277.649q12.349.057,24.681-.761a21.249,21.249,0,0,0,8.516-2.061Q124.7,611.818,124.8,611.744Z" transform="translate(-71.111 -539.805)" fill="#eaedef"/>
          </g>
          <path id="Trazado_126603" data-name="Trazado 126603" d="M108.719,539.773s-4.637-1.252-5.278,9.211-1.708,36.943-3.2,44.2-3.737,21.5-3.737,21.5l14.2.494,16.229-1.281s-5.552-10.25-6.406-17.51.64-34.593-2.989-44.843S113.143,539.956,108.719,539.773Z" transform="translate(-81.53 -518.107)" fill="#179587"/>
          <g id="Grupo_877781" data-name="Grupo 877781" transform="translate(34.925 16.007)">
            <path id="Trazado_126604" data-name="Trazado 126604" d="M132.309,548.1l10.348,5.626,6.237-2.135,15.96-17.547-4.24-3.833-16.939,13.241-13.333-5.817Z" transform="translate(-130.343 -530.209)" fill="#eaedef"/>
          </g>
          <g id="Grupo_877783" data-name="Grupo 877783" transform="translate(21.692 4.505)">
            <g id="Grupo_877782" data-name="Grupo 877782">
              <path id="Trazado_126605" data-name="Trazado 126605" d="M124.929,519.572c.7,2.107-.314,4.353-1.205,6.273-.791,1.7-1.065,2.823.942,3.282,1.13.259,3.137.742,4.129-.124.751-.656.329-2.682-.037-3.486-.279-.614-1.017-.927-1.28-1.548a2.169,2.169,0,0,1-.127-.819,11.31,11.31,0,0,1,.464-3.363,11.446,11.446,0,0,0,.583-2.234c.1-1.114-.692-2.413-1.106-3.437-.77-1.905-3.452-4.461-5.7-2.965a3.285,3.285,0,0,0-1.058,1.478,2.726,2.726,0,0,0-.294,1.052c-.018,1.462,1.318,1.709,2.24,2.405A7.323,7.323,0,0,1,124.929,519.572Z" transform="translate(-112.965 -510.701)" fill="#1a3151"/>
              <path id="Trazado_126606" data-name="Trazado 126606" d="M115.595,529.369a6.333,6.333,0,0,0,4.2-3.956,12.676,12.676,0,0,0,.567-5.918c-.673-6.624-8.913-6.2-11.7-1.121C106.228,522.8,109.932,530.7,115.595,529.369Z" transform="translate(-107.901 -512.277)" fill="#aa6755"/>
            </g>
            <path id="Trazado_126607" data-name="Trazado 126607" d="M118.215,537.329q-.05,1.132-.1,2.264a.346.346,0,0,1-.447.4l-1.844-.064a2,2,0,0,1-.89-.169,1.691,1.691,0,0,1-.616-1.774,5.737,5.737,0,0,0,.191-1.98c1.269.626,2.475-.788,3.745-.162Z" transform="translate(-110.523 -520.951)" fill="#aa6755"/>
          </g>
          <path id="Trazado_126608" data-name="Trazado 126608" d="M106.817,503.3c-2.164.735-3.551,2.924-5.663,3.8-1.211.5-2.644.565-3.632,1.426-2.214,1.93-.435,5.979-2.254,8.285-.379.479-.889.842-1.268,1.32a6.49,6.49,0,0,0-1,3.754,4.224,4.224,0,0,0,.032.916c.285,3.037,4.693,2.844,6.445,2.649,1.922-.213,1.281-1.281,1.281-1.281l-.07-.086a3.677,3.677,0,0,1,1.291-3.334,4.508,4.508,0,0,0,1.038-.91c.569-.869.026-2.021.11-3.056.337-4.17,7.336-3.277,9.311-6.246C114.861,506.893,110.9,501.91,106.817,503.3Z" transform="translate(-80.09 -503.06)" fill="#1a3151"/>
        </g>
        <g id="Grupo_877791" data-name="Grupo 877791" transform="translate(182.78 14.204)">
          <g id="Grupo_877786" data-name="Grupo 877786" transform="translate(0 21.623)">
            <g id="Grupo_877785" data-name="Grupo 877785">
              <path id="Trazado_126609" data-name="Trazado 126609" d="M390.208,539.143l-2.434-1.362-.631-2.377-.572-.122-.179.7-1.089-1.823-1.624-.576L381.8,534.9l-.7,2.264,1.5,1.728,2.575.886,3.251,2.008Z" transform="translate(-381.101 -533.582)" fill="#eac1a4"/>
            </g>
            <path id="Trazado_126610" data-name="Trazado 126610" d="M394.4,538.83l-3.649,4.321,13.51,13.108,3.642,1.175,15.515-12.373-4.15-8.472-11.571,9.834Z" transform="translate(-385.06 -534.816)" fill="#eaedef"/>
          </g>
          <g id="Grupo_877789" data-name="Grupo 877789" transform="translate(23.707 63.718)">
            <g id="Grupo_877787" data-name="Grupo 877787" transform="translate(10.786 0.457)">
              <path id="Trazado_126611" data-name="Trazado 126611" d="M482.079,733.625l.542,2.485-4.293,3.539-2.959-1.958,1.876-3.012,4.293-3.539Z" transform="translate(-454.278 -657.206)" fill="#179587"/>
              <path id="Trazado_126612" data-name="Trazado 126612" d="M452.386,605.75l4.791,11.047.452,31.082,9.851,33.433-4.581,2.031-20.1-38.821-2.288-12.3-.909-25.9Z" transform="translate(-439.6 -605.75)" fill="#179587"/>
            </g>
            <g id="Grupo_877788" data-name="Grupo 877788">
              <path id="Trazado_126613" data-name="Trazado 126613" d="M421.684,607.908l-.377,32.574,6.138,42h4.72l2.981-38.754,6.459-38.754Z" transform="translate(-421.307 -604.974)" fill="#179587"/>
              <path id="Trazado_126614" data-name="Trazado 126614" d="M434.348,735.471v2.552l-5.1,2.552-2.552-2.552,2.552-2.552Z" transform="translate(-423.517 -658.526)" fill="#1a3151"/>
            </g>
          </g>
          <path id="Trazado_126615" data-name="Trazado 126615" d="M426.6,534.819l12.537-.464s7.5,6.581,11.377,23.682c3.947,17.414-.729,42.482-.729,42.482s-33.637-4.483-39.153-5.175l8.415-34.382Z" transform="translate(-393.219 -512.276)" fill="#eaedef"/>
          <g id="Grupo_877790" data-name="Grupo 877790" transform="translate(23.564)">
            <path id="Trazado_126616" data-name="Trazado 126616" d="M441.269,526.387l4.392-.43a22.028,22.028,0,0,0-.233-3.508c1.221-.427,2.631-1.069,2.846-2.344a3.635,3.635,0,0,0-.07-1.214q-.426-2.491-.854-4.98a4.442,4.442,0,0,0-.514-1.658,3.739,3.739,0,0,0-2.616-1.419,9.094,9.094,0,0,0-7.365,1.784,3.989,3.989,0,0,0-1.246,1.639,5.405,5.405,0,0,0,.177,3.155l.749,2.867c.287,1.1.7,2.349,1.76,2.763.563.219,1.226.156,1.735.481C440.925,524.1,440.8,525.431,441.269,526.387Z" transform="translate(-426.961 -502.563)" fill="#eac1a4"/>
            <path id="Trazado_126617" data-name="Trazado 126617" d="M421.068,504.144a14.118,14.118,0,0,1,.359-3.327c.39-1.784,2.494-2.585,4.316-2.711,3.933-.273,7.728-2.056,11.569-.68,2.2.787,5.144.976,7.13,2.085a5.862,5.862,0,0,1,2.007,1.984,8.839,8.839,0,0,1,.012,9.346,12.67,12.67,0,0,1-1.377,1.732c-1.038,1.122-2.279,2.509-3.705,2.923-.032-1.275,1.134-5.295.157-6.341-1.552-1.66-5.067-1.087-7-.681-2.1.443-3.981,1.929-6.066,2.245a7.859,7.859,0,0,1-4.689-1.288A5.966,5.966,0,0,1,421.068,504.144Z" transform="translate(-421.064 -496.91)" fill="#1a3151"/>
          </g>
          <path id="Trazado_126618" data-name="Trazado 126618" d="M433.649,537.32l-13.181,52.723-1.081,6.915,16.422,2.161s-.648-25.247-.432-28.613,2.652-10.647,3.025-18.491c.216-4.538,1.657-12.688.648-15.342Z" transform="translate(-396.813 -513.227)" fill="#c8d6a1"/>
        </g>
        <path id="Trazado_126619" data-name="Trazado 126619" d="M260.667,630.479l0,14.276a3.933,3.933,0,0,0,.11-.9V621.241h-.107Z" transform="translate(-148.898 -533.728)" fill="#d9a3a3"/>
        <path id="Trazado_126620" data-name="Trazado 126620" d="M260.6,594.615l0-13.985a3.942,3.942,0,0,0-.111.91v22.384h.107v-9.308Z" transform="translate(-148.825 -517.063)" fill="#d9a3a3"/>
        <path id="Trazado_126621" data-name="Trazado 126621" d="M249.281,690.123a3.889,3.889,0,0,0-1.534.5,27.366,27.366,0,0,1-4.6,2.229,29.728,29.728,0,0,0,4.622-2.188A4.987,4.987,0,0,1,249.281,690.123Z" transform="translate(-141.709 -561.995)" fill="#d9a3a3"/>
        <path id="Trazado_126622" data-name="Trazado 126622" d="M273.923,578.31a27.36,27.36,0,0,1-4.6-2.229,3.9,3.9,0,0,0-1.534-.5,4.992,4.992,0,0,1,1.513.538A29.727,29.727,0,0,0,273.923,578.31Z" transform="translate(-151.821 -514.992)" fill="#d9a3a3"/>
        <path id="Trazado_126623" data-name="Trazado 126623" d="M260.66,695.168l0,29.543h.114V696.078A3.946,3.946,0,0,0,260.66,695.168Z" transform="translate(-148.895 -564.065)" fill="#d9a3a3"/>
        <path id="Trazado_126624" data-name="Trazado 126624" d="M188.51,605.339a3.846,3.846,0,0,1,.589,2.13,3.847,3.847,0,0,0-.576-2.448,15.408,15.408,0,0,1-2.57-7.981A15.152,15.152,0,0,0,188.51,605.339Z" transform="translate(-118.236 -523.797)" fill="#d9a3a3"/>
        <path id="Trazado_126625" data-name="Trazado 126625" d="M218.506,598.245c-.125,2.543-1.4,4.96-2.8,7.4a3.865,3.865,0,0,0-.516,1.955,3.892,3.892,0,0,1,.5-1.63C217.151,603.427,218.479,600.908,218.506,598.245Z" transform="translate(-130.238 -524.291)" fill="#d9a3a3"/>
        <path id="Trazado_126626" data-name="Trazado 126626" d="M260.6,525.426l0-14.276V495.031l-.107,0v29.494A3.932,3.932,0,0,0,260.6,525.426Z" transform="translate(-148.825 -481.936)" fill="#d9a3a3"/>
        <path id="Trazado_126627" data-name="Trazado 126627" d="M210.616,645.748a4.987,4.987,0,0,0-1.514.538,29.728,29.728,0,0,1-4.622,2.188,8.479,8.479,0,0,1-7.194-.478,10.917,10.917,0,0,1-4.1-14.83c3.676-6.248,10.361-5.478,15.767-2.107a3.9,3.9,0,0,0,5.858-2.413l0-14.276v-9.238h0v-.652h-.107v.526H190.873A3.918,3.918,0,0,1,188,600.93a3.865,3.865,0,0,1,.516-1.955c1.393-2.442,2.67-4.859,2.8-7.4a8.183,8.183,0,0,0-1.051-4.067,10.917,10.917,0,0,0-14.827-4.11,8.723,8.723,0,0,0-4.672,7.467,15.408,15.408,0,0,0,2.57,7.981,3.847,3.847,0,0,1,.576,2.448,3.917,3.917,0,0,1-2.948,3.715H150.235c-.069.1-.14.206-.206.314-1.789,2.923-1.42,5.1,1.249,6.936a31.928,31.928,0,0,1,5.012,3.719c2.285,2.334,2.433,3.711.689,6.6-1.964,3.249-1.954,3.382,1.064,5.69.81.62,1.667,1.086.53,2.258-1.674,1.725-1.076,3.408.367,4.665,2.023,1.764,2.328,4.028,1.948,6.558-.331,2.208-.821,4.388-1.234,6.581-1.114,5.918.438,8.666,5.785,10.221,5.581,1.623,11.136.217,16.7-.32,3.731-.36,7.4-1.657,11.22-.714a5.1,5.1,0,0,1,4.165,4.9c.465,4.047,1.669,7.915,2.357,11.9.561,3.248,1.975,4.262,4.9,4.13,2.451-.11,5.956-.162,10.025-.177l0-29.543A3.915,3.915,0,0,0,210.616,645.748Z" transform="translate(-103.044 -517.62)" fill="#222b5a"/>
        <path id="Trazado_126628" data-name="Trazado 126628" d="M289.976,504.545a3.9,3.9,0,0,0,6.258.987c4.475-4.534,10.8-6.835,15.825-1.611a10.917,10.917,0,0,1-.545,15.376,8.482,8.482,0,0,1-6.887,2.135,29.707,29.707,0,0,1-5-1.055,4.991,4.991,0,0,0-1.6-.172,3.915,3.915,0,0,0-3.388,3.868l3.249,13.6h-.006l2.161,9.054h0l.078.327.074.307.1-.025,23.466-5.6a3.9,3.9,0,0,1,3.3,4.973c-1.23,4.2-2.2,8.281,1.028,11.88a10.917,10.917,0,0,0,15.376.554c5.226-5.024,2.929-11.348-1.6-15.826a3.9,3.9,0,0,1,.627-6.052l14.346-3.425a49.582,49.582,0,0,0-.156-15.375c-2.481-12.558-7.353-22.268-15.053-29.321-15.8-14.468-34.02-18.427-53.372-15.351a45.72,45.72,0,0,0-5.344,1.185l3.744,15.678Z" transform="translate(-158.029 -472.822)" fill="#179587"/>
        <path id="Trazado_126629" data-name="Trazado 126629" d="M260.669,620.135h0v.652h0v-.652Z" transform="translate(-148.899 -533.274)" fill="#b5d6ca"/>
        <path id="Trazado_126630" data-name="Trazado 126630" d="M288.912,694.562c3.492-.189,1.8-2.369.188-5.754-13.064-27.461,2.5-49.6,5.045-52.694a55.518,55.518,0,0,0,8.786-14.873H288.181a3.9,3.9,0,0,0-2.015,5.741c3.368,5.407,4.134,12.093-2.116,15.766a10.917,10.917,0,0,1-14.828-4.11c-2.308-4.251-.414-7.993,1.758-11.794a3.9,3.9,0,0,0-2.055-5.6H244.8v22.615a3.933,3.933,0,0,1-.11.9v.1a3.9,3.9,0,0,1-5.845,2.357c-5.407-3.369-12.092-4.135-15.766,2.114-2.979,5.067-.775,11.9,4.4,14.71a8.128,8.128,0,0,0,6.886.549,27.362,27.362,0,0,0,4.6-2.229,3.891,3.891,0,0,1,1.534-.5,3.5,3.5,0,0,1,4.193,2.907v.067a3.945,3.945,0,0,1,.111.91v28.632C260.543,694.315,284.62,694.795,288.912,694.562Z" transform="translate(-132.923 -533.728)" fill="#d1e7f5"/>
        <path id="Trazado_126631" data-name="Trazado 126631" d="M257.744,693.053v-.067a3.5,3.5,0,0,0-4.193-2.907A3.915,3.915,0,0,1,257.744,693.053Z" transform="translate(-145.979 -561.95)" fill="#1a3151"/>
        <path id="Trazado_126632" data-name="Trazado 126632" d="M238.774,663.422c-5.406-3.371-12.09-4.141-15.767,2.107a10.917,10.917,0,0,0,4.1,14.83,8.479,8.479,0,0,0,7.194.478,8.128,8.128,0,0,1-6.886-.549c-5.17-2.807-7.374-9.643-4.4-14.71,3.674-6.25,10.359-5.483,15.766-2.114a3.9,3.9,0,0,0,5.845-2.357v-.1A3.9,3.9,0,0,1,238.774,663.422Z" transform="translate(-132.865 -549.983)" fill="#1a3151"/>
        <path id="Trazado_126633" data-name="Trazado 126633" d="M237.351,529.948c-3.676-6.248-10.36-5.478-15.766-2.107a3.915,3.915,0,0,1-5.968-3.311V495.036a59.4,59.4,0,0,0-23.41,6.477c-2.022.991-4.011,2.075-5.981,3.19-13.827,7.83-21.519,19.852-20.867,37.468.366,9.886-4.035,17.081-10.538,23.128a25.372,25.372,0,0,0-3.307,3.493q-.191.26-.369.532H171.87a3.917,3.917,0,0,0,2.948-3.715,3.846,3.846,0,0,0-.589-2.13,15.152,15.152,0,0,1-2.557-8.3,8.723,8.723,0,0,1,4.672-7.467,10.917,10.917,0,0,1,14.827,4.11,8.189,8.189,0,0,1,1.051,4.067c-.027,2.663-1.355,5.182-2.809,7.727a3.9,3.9,0,0,0,2.37,5.706h23.834v-22.91a3.9,3.9,0,0,1,5.839-3.388,27.366,27.366,0,0,0,4.6,2.229,8.481,8.481,0,0,0,7.194-.478A10.917,10.917,0,0,0,237.351,529.948Z" transform="translate(-103.955 -481.938)" fill="#b5d6ca"/>
        <g id="Grupo_877792" data-name="Grupo 877792" transform="translate(182.611 46.319)">
          <path id="Trazado_126634" data-name="Trazado 126634" d="M433.413,551.378l-16.042,15.148-23.8-7.094-1.7,5.353,26.156,11.966h6.883l14.544-12.373Z" transform="translate(-385.351 -551.378)" fill="#eaedef"/>
          <path id="Trazado_126635" data-name="Trazado 126635" d="M387.487,568.377l-4.142.076-2.529-3.57,6.43-3.575,1.791,2.2Z" transform="translate(-380.815 -555.453)" fill="#eac1a4"/>
        </g>
        <g id="Grupo_877793" data-name="Grupo 877793" transform="translate(17.062 50.243)">
          <path id="Trazado_126636" data-name="Trazado 126636" d="M166.3,587.3l-.078,2.414,4.261,1.551,2.456-1.861,0-2.81-2.371-.132-.074-.618-.776-.5Z" transform="translate(-127.202 -569.241)" fill="#aa6755"/>
          <path id="Trazado_126637" data-name="Trazado 126637" d="M103.577,558.032,121.149,573l18.665.363s-.758,8.019-.75,7.353-20.671,2-20.671,2l-18.345-12.966Z" transform="translate(-100.048 -558.032)" fill="#eaedef"/>
        </g>
      </g>
    </g>
  </g>
</svg>
