<svg xmlns="http://www.w3.org/2000/svg" width="233.003" height="326.349" viewBox="0 0 233.003 326.349">
  <g id="Grupo_909099" data-name="Grupo 909099" transform="translate(-683.997 -10210.354)">
    <path id="Trazado_644578" data-name="Trazado 644578" d="M0,0H231.75V326H0Z" transform="translate(683.997 10210.354)" fill="#f3f9ff"/>
    <path id="Trazado_644579" data-name="Trazado 644579" d="M0,0H232V57H0Z" transform="translate(685 10479.702)" fill="#d2e1f1"/>
    <path id="Trazado_644580" data-name="Trazado 644580" d="M97.3,18.344H92.6L91.782,21H88.12L93.335,6.781h3.223L101.812,21H98.13ZM93.423,15.7h3.057l-1.533-4.932Zm21.3,5.3h-3.408l-5.039-8.848V21h-3.428V6.781h3.428l5.029,8.848V6.781h3.418Zm5.82,0h-3.418V6.781h3.418Z" transform="translate(699 10495.702)" fill="#12263f"/>
    <g id="Grupo_907045" data-name="Grupo 907045" transform="translate(1364.084 10058.545)">
      <path id="Trazado_641368" data-name="Trazado 641368" d="M-625.441,273.36c0-2.255.064-4.409-.053-6.553-.023-.435-.651-.988-1.13-1.223A16.508,16.508,0,0,1-634,258.015a18.039,18.039,0,0,1-1.858-11.055,24.584,24.584,0,0,1,2.989-7.8c-.728-1.665-1.51-3.351-2.207-5.071a16.063,16.063,0,0,1-.6-9.261,29.463,29.463,0,0,1,2.05-5.2,13.161,13.161,0,0,1,3.505-4.56,19.954,19.954,0,0,1,5.92-3.729,16.43,16.43,0,0,1,9.24-1.16,18.08,18.08,0,0,1,11.56,6.455,18.057,18.057,0,0,1,4.143,14.655,14.833,14.833,0,0,1-2.359,6.556,2.136,2.136,0,0,0,.15,2.732,16.012,16.012,0,0,1,2.3,6.727,16.58,16.58,0,0,1-1.079,8.991,16.979,16.979,0,0,1-6.582,8.307c-.574.367-1.172.7-1.745,1.065a1.815,1.815,0,0,0-1.063,1.794c.114,1.91.034,3.831.034,5.821h8.545a29.618,29.618,0,0,1,6.132-8.033A38.969,38.969,0,0,1-589.039,261a1.609,1.609,0,0,0,.539-.865,3.366,3.366,0,0,0,.02-.954c0-17,.032-34-.038-50.995-.009-2.34,1.194-3.538,3.467-3.5q9.9.159,19.8,0a2.983,2.983,0,0,1,3.207,3.25c-.056,17.078-.033,34.157-.033,51.235v1.6a29,29,0,0,1,10.56,9.028v-1.462c0-12.959.059-25.918-.039-38.876a14.227,14.227,0,0,1,2.986-9.227,14.643,14.643,0,0,1,3.654-3.083A13.333,13.333,0,0,1-537,215.255c2.916.11,5.842.109,8.758,0a13.636,13.636,0,0,1,7.18,1.853A10.3,10.3,0,0,1-516.332,222a20.158,20.158,0,0,1,1.051,2.664,1.329,1.329,0,0,0,1.532,1.2c9.2-.039,18.4.034,27.6-.065a3.014,3.014,0,0,1,3.3,3.275q-.075,33.717,0,67.433c0,2.1-1.182,3.3-3.37,3.291-20.558-.062-41.116-.037-61.674-.037H-549.4a29.276,29.276,0,0,1-12.63,12.664v4.512l.35.3c1.926-2.066,3.825-4.158,5.8-6.174a2.57,2.57,0,0,1,1.633-.7c3.558-.064,7.119,0,10.678-.049,1.662-.022,2.314,1.352,3.284,2.24,2.058,1.883,4,3.9,6.018,5.817,2.237,2.125,4.514,4.209,6.6,6.148,2.2-2.1,4.675-4.47,7.168-6.829a81.957,81.957,0,0,0,6.281-6.011,3.8,3.8,0,0,1,3.372-1.359c2.8.011,5.614.179,8.395-.055,2.023-.17,3.161.955,4.374,2.115,1.707,1.633,3.358,3.324,5.025,5q2.313,2.322,4.608,4.662c1.633,1.674,3.226,3.387,4.879,5.04a2.379,2.379,0,0,1,.454,2.826,2.284,2.284,0,0,1-2.1,1.527c-.95.023-1.9,0-2.951,0v1.38c0,9.039-.048,18.079.038,27.117a2.975,2.975,0,0,1-3.2,3.228q-15.3-.117-30.6,0a3,3,0,0,1-3.244-3.215c.093-9.078.04-18.157.04-27.237v-1.213h-5.28V332.7c0,9.039-.05,18.079.037,27.117a3,3,0,0,1-3.329,3.334q-25.737-.093-51.475,0a3.036,3.036,0,0,1-3.354-3.346c.078-15.318.041-30.636.041-45.955v-1.427a28.713,28.713,0,0,1-12.615-12.666h-1.547c-11.759,0-23.518-.036-35.276.034-2.093.012-3.444-1.054-3.4-3.418.115-6.6.1-13.2,0-19.8a2.982,2.982,0,0,1,3.232-3.255C-633.93,273.442-629.769,273.36-625.441,273.36Zm137.219,5.281h-10.942q-25.62,0-51.239.015a3.068,3.068,0,0,1-3.15-1.773,22.215,22.215,0,0,0-2.115-3.611,24.514,24.514,0,0,0-3.535-3.995,51.272,51.272,0,0,0-5.578-3.96c-1.955-1.257-2.609-1.307-2.6-3.838.044-16.639.022-33.279.022-49.919v-1.479H-583.2v47.576q0,2.28,0,4.56a2.7,2.7,0,0,1-1.484,2.5c-2.048,1.2-4.3,2.192-6.023,3.758a21.51,21.51,0,0,0-6,7.974,3.426,3.426,0,0,1-3.62,2.228c-11.4-.068-22.8-.034-34.2-.034h-1.409v15.838h1.472c11.4,0,22.8.027,34.2-.021,2.4-.011,2.685.55,3.624,2.5a23.379,23.379,0,0,0,5.207,6.973,20.038,20.038,0,0,0,6.08,4.071,3.422,3.422,0,0,1,2.185,3.524c-.062,14.96-.035,29.919-.035,44.879v1.351h15.774V331.426c-1.009,0-1.96.042-2.907-.011a2.3,2.3,0,0,1-2.126-1.6,2.41,2.41,0,0,1,.394-2.67c1.227-1.261,2.488-2.491,3.747-3.721a2.964,2.964,0,0,0,.988-2.378c-.084-3.357-.007-6.719-.045-10.079a2.492,2.492,0,0,1,1.438-2.468c1-.521,1.995-1.061,2.958-1.649a22.231,22.231,0,0,0,9.083-10.08,3.551,3.551,0,0,1,3.642-2.334c20.16.069,40.319.042,60.479.042h1.552Zm-116.044-28.9a14.466,14.466,0,0,0-3.324-8.855A2.263,2.263,0,0,1-608,237.89a22.8,22.8,0,0,0,3.126-5.541,12.952,12.952,0,0,0-.786-9.74,12.7,12.7,0,0,0-7.94-6.7,12.586,12.586,0,0,0-11.11,1.577,12.571,12.571,0,0,0-4.685,5.465,12.2,12.2,0,0,0-.8,9.072,14.633,14.633,0,0,0,2.926,5.377c1.03,1.206.838,2.351-.211,3.558a13.49,13.49,0,0,0-3.05,6.344,12.924,12.924,0,0,0,2.3,9.967,12.361,12.361,0,0,0,7.839,5.232,12.639,12.639,0,0,0,10.33-2.062A13.231,13.231,0,0,0-604.266,249.74Zm58.1-18.59v42.137h5.211c0-4.388-.014-8.7.006-13.019a2.473,2.473,0,0,1,2.7-2.739q5.219-.036,10.439,0a2.454,2.454,0,0,1,2.682,2.73c.024,3.719.009,7.439.009,11.159v1.875h5.212V231.15Zm31.684,10.568v31.56h5.2c0-4.356-.007-8.632,0-12.908a2.7,2.7,0,0,1,2.537-2.832q5.4-.049,10.8,0a2.418,2.418,0,0,1,2.482,2.448c.047.958.019,1.919.02,2.879,0,3.467,0,6.934,0,10.436h5.214v-31.58Zm-21.224,89.792h-26.3v26.257h5.21c0-4.388.075-8.7-.039-13.016a2.943,2.943,0,0,1,2.782-2.743c3.28-.021,6.572-.185,9.834.05,2.452.176,3.347.808,3.278,3.17-.072,2.478-.016,4.959-.016,7.438v5.106h5.251Zm15.939-.037v26.3h5.21c0-4.348-.006-8.623,0-12.9a2.873,2.873,0,0,1,2.788-2.865q5.16-.02,10.319,0a2.7,2.7,0,0,1,2.722,2.722c.021,3.2.008,6.4.008,9.6v3.448h5.215v-26.3Zm-14.31-5.33c-.838-.79-1.465-1.348-2.055-1.942q-3.829-3.854-7.641-7.724a2.637,2.637,0,0,0-2.146-.9c-1.993.093-3.995.07-5.99.008a2.263,2.263,0,0,0-1.954.784c-.71.807-1.48,1.564-2.244,2.323-1.686,1.673-3.4,3.321-5.071,5.006-.725.73-1.385,1.526-2.216,2.45Zm41.972-.038a6.938,6.938,0,0,0-.583-.782c-3.018-3.012-6.067-5.993-9.051-9.039a2.25,2.25,0,0,0-1.868-.7,25.82,25.82,0,0,1-4.671-.035c-2.041-.325-3.278.726-4.527,1.995-1.987,2.019-4.007,4-5.995,6.021-.764.775-1.482,1.6-2.35,2.536Zm-22.411-89.772h26.285v-5.146h-26.285Zm-6.071-10.527a1.822,1.822,0,0,0,.028-.372,1.562,1.562,0,0,0-.124-.455,7.577,7.577,0,0,0-6.492-4.367c-3.507-.154-7.028.048-10.537-.083a8.538,8.538,0,0,0-6.555,2.757,11.591,11.591,0,0,0-1.464,2.52Zm-15.049,47.462h5.179v-10.4h-5.179Zm36.855.038V262.875h-5.13v10.431ZM-546.327,357.8V347.336h-5.127V357.8Zm42.27-10.44H-509.2v10.431h5.138Zm-116.042-79.3v5.236h5.113v-5.236Z" fill="#010101"/>
      <path id="Trazado_641369" data-name="Trazado 641369" d="M-630.854,315.6a48.408,48.408,0,0,1,3.08-5.573,12.259,12.259,0,0,1,3.511-3.086,11.865,11.865,0,0,1,7.679-1.876,13.236,13.236,0,0,1,8.619,4.116,10.319,10.319,0,0,1,3.029,5.556c.086.648.478.89,1.165.878,2.4-.04,4.8-.03,7.2-.01,1.883.017,2.8.942,2.807,2.849q.026,5.1,0,10.2a2.45,2.45,0,0,1-2.719,2.782c-.8.02-1.6,0-2.556,0v1.289c0,9.039-.049,18.079.037,27.117a2.993,2.993,0,0,1-3.352,3.312q-15.179-.121-30.357,0a3.026,3.026,0,0,1-3.33-3.371c.1-9.395.042-18.792.042-28.343-.813,0-1.6.009-2.378,0-1.985-.027-2.892-.917-2.9-2.88-.011-3.32.076-6.642-.036-9.958a2.9,2.9,0,0,1,3.089-3.032C-635.712,315.7-633.189,315.6-630.854,315.6Zm5.416,42.2c0-4.441.042-8.759-.023-13.075a2.6,2.6,0,0,1,2.672-2.674,79.065,79.065,0,0,1,10.071.019c2.242.181,3.184.677,3.135,3.183-.066,3.358-.017,6.718-.017,10.078v2.432h5.2V331.519H-630.64V357.8Zm7.928-31.649c4.143.19,7.908-3.757,7.946-7.847a8.362,8.362,0,0,0-8.062-8.028c-3.889.025-7.867,3.987-7.859,7.925C-625.475,322.3-621.649,326.368-617.51,326.151Zm-2.628,31.592h5.18V347.369h-5.18Zm13.571-31.655h7.457V320.88c-1.656,0-3.244-.017-4.83.016-.276.006-.715.155-.795.353C-605.387,322.856-605.972,324.491-606.567,326.088Zm-29.392.017h7.688l-2.468-5.164h-5.22Z" fill="#010101"/>
      <path id="Trazado_641370" data-name="Trazado 641370" d="M-488.222,278.641v15.838h-1.552c-20.16,0-40.319.027-60.479-.042a3.551,3.551,0,0,0-3.642,2.334,22.231,22.231,0,0,1-9.083,10.08c-.963.588-1.957,1.128-2.958,1.649a2.492,2.492,0,0,0-1.438,2.468c.038,3.36-.039,6.722.045,10.079a2.964,2.964,0,0,1-.988,2.378c-1.259,1.23-2.52,2.46-3.747,3.721a2.41,2.41,0,0,0-.394,2.67,2.3,2.3,0,0,0,2.126,1.6c.947.053,1.9.011,2.907.011v26.331H-583.2v-1.351c0-14.96-.027-29.919.035-44.879A3.422,3.422,0,0,0-585.349,308a20.038,20.038,0,0,1-6.08-4.071,23.379,23.379,0,0,1-5.207-6.973c-.939-1.951-1.224-2.512-3.624-2.5-11.4.048-22.8.021-34.2.021h-1.472V278.641h1.409c11.4,0,22.8-.034,34.2.034a3.426,3.426,0,0,0,3.62-2.228,21.51,21.51,0,0,1,6-7.974c1.724-1.566,3.975-2.561,6.023-3.758a2.7,2.7,0,0,0,1.484-2.5q0-2.28,0-4.56V210.081h15.838v1.479c0,16.64.022,33.28-.022,49.919-.007,2.531.647,2.581,2.6,3.838a51.272,51.272,0,0,1,5.578,3.96,24.514,24.514,0,0,1,3.535,3.995,22.215,22.215,0,0,1,2.115,3.611,3.068,3.068,0,0,0,3.15,1.773q25.619-.036,51.239-.015Zm-73.859,7.93a13.2,13.2,0,0,0-13.235-13.206,13.222,13.222,0,0,0-13.15,13.25,13.194,13.194,0,0,0,13.289,13.152A13.2,13.2,0,0,0-562.081,286.571Z" fill="#5f6568"/>
      <path id="Trazado_641371" data-name="Trazado 641371" d="M-604.266,249.74a13.231,13.231,0,0,1-5.8,10.7,12.639,12.639,0,0,1-10.33,2.062,12.361,12.361,0,0,1-7.839-5.232,12.924,12.924,0,0,1-2.3-9.967,13.49,13.49,0,0,1,3.05-6.344c1.049-1.207,1.241-2.352.211-3.558a14.633,14.633,0,0,1-2.926-5.377,12.2,12.2,0,0,1,.8-9.072,12.571,12.571,0,0,1,4.685-5.465,12.586,12.586,0,0,1,11.11-1.577,12.7,12.7,0,0,1,7.94,6.7,12.952,12.952,0,0,1,.786,9.74A22.8,22.8,0,0,1-608,237.89a2.263,2.263,0,0,0,.412,2.995A14.466,14.466,0,0,1-604.266,249.74Z" fill="#3dc084"/>
      <path id="Trazado_641372" data-name="Trazado 641372" d="M-546.169,231.15h26.261v42.144h-5.212v-1.875c0-3.72.015-7.44-.009-11.159a2.454,2.454,0,0,0-2.682-2.73q-5.22-.039-10.439,0a2.473,2.473,0,0,0-2.7,2.739c-.02,4.315-.006,8.631-.006,13.019h-5.211Zm13.12,5.251c-1.717,0-3.434-.018-5.15.005a2.483,2.483,0,0,0-2.751,2.682q-.039,5.21,0,10.42a2.443,2.443,0,0,0,2.681,2.722q5.21.041,10.419,0a2.411,2.411,0,0,0,2.719-2.649q.045-5.27,0-10.539a2.444,2.444,0,0,0-2.648-2.634C-529.536,236.379-531.293,236.4-533.049,236.4Z" fill="#e8edf1"/>
      <path id="Trazado_641373" data-name="Trazado 641373" d="M-514.485,241.718h26.259V273.3h-5.214c0-3.5,0-6.969,0-10.436,0-.96.027-1.921-.02-2.879a2.418,2.418,0,0,0-2.482-2.448q-5.4-.048-10.8,0a2.7,2.7,0,0,0-2.537,2.832c-.011,4.276,0,8.552,0,12.908h-5.2Z" fill="#fed23a"/>
      <path id="Trazado_641374" data-name="Trazado 641374" d="M-535.709,331.51v26.262h-5.251v-5.106c0-2.479-.056-4.96.016-7.438.069-2.362-.826-2.994-3.278-3.17-3.262-.235-6.554-.071-9.834-.05a2.943,2.943,0,0,0-2.782,2.743c.114,4.311.039,8.628.039,13.016h-5.21V331.51Z" fill="#e8edf1"/>
      <path id="Trazado_641375" data-name="Trazado 641375" d="M-519.77,331.473h26.265v26.3h-5.215v-3.448c0-3.2.013-6.4-.008-9.6a2.7,2.7,0,0,0-2.722-2.722q-5.158-.027-10.319,0a2.873,2.873,0,0,0-2.788,2.865c-.009,4.275,0,8.55,0,12.9h-5.21Z" fill="#e8edf1"/>
      <path id="Trazado_641376" data-name="Trazado 641376" d="M-534.08,326.143H-563.4c.831-.924,1.491-1.72,2.216-2.45,1.674-1.685,3.385-3.333,5.071-5.006.764-.759,1.534-1.516,2.244-2.323a2.263,2.263,0,0,1,1.954-.784c1.995.062,4,.085,5.99-.008a2.637,2.637,0,0,1,2.146.9q3.816,3.865,7.641,7.724C-535.545,324.8-534.918,325.353-534.08,326.143Z" fill="#ea423f"/>
      <path id="Trazado_641377" data-name="Trazado 641377" d="M-492.108,326.105h-29.045c.868-.94,1.586-1.761,2.35-2.536,1.988-2.017,4.008-4,5.995-6.021,1.249-1.269,2.486-2.32,4.527-1.995a25.82,25.82,0,0,0,4.671.035,2.25,2.25,0,0,1,1.868.7c2.984,3.046,6.033,6.027,9.051,9.039A6.938,6.938,0,0,1-492.108,326.105Z" fill="#ea423f"/>
      <path id="Trazado_641378" data-name="Trazado 641378" d="M-514.519,236.333v-5.146h26.285v5.146Z" fill="#e5bd34"/>
      <path id="Trazado_641379" data-name="Trazado 641379" d="M-520.59,225.806h-25.144a11.591,11.591,0,0,1,1.464-2.52,8.538,8.538,0,0,1,6.555-2.757c3.509.131,7.03-.071,10.537.083a7.577,7.577,0,0,1,6.492,4.367,1.562,1.562,0,0,1,.124.455A1.822,1.822,0,0,1-520.59,225.806Z" fill="#3396e6"/>
      <path id="Trazado_641380" data-name="Trazado 641380" d="M-535.639,273.268v-10.4h5.179v10.4Z" fill="#3396e7"/>
      <path id="Trazado_641381" data-name="Trazado 641381" d="M-498.784,273.306h-5.13V262.875h5.13Z" fill="#3396e7"/>
      <path id="Trazado_641382" data-name="Trazado 641382" d="M-546.327,357.8h-5.127V347.336h5.127Z" fill="#3396e7"/>
      <path id="Trazado_641383" data-name="Trazado 641383" d="M-504.057,347.355v10.431H-509.2V347.355Z" fill="#3396e7"/>
      <path id="Trazado_641384" data-name="Trazado 641384" d="M-620.1,268.053h5.113v5.236H-620.1Z" fill="#ac6543"/>
      <path id="Trazado_641385" data-name="Trazado 641385" d="M-625.438,357.8h-5.2V331.519H-604.4v26.244h-5.2v-2.432c0-3.36-.049-6.72.017-10.078.049-2.506-.893-3-3.135-3.183a79.065,79.065,0,0,0-10.071-.019,2.6,2.6,0,0,0-2.672,2.674C-625.4,349.041-625.438,353.359-625.438,357.8Z" fill="#e8edf1"/>
      <path id="Trazado_641386" data-name="Trazado 641386" d="M-617.51,326.151c-4.139.217-7.965-3.848-7.975-7.95-.008-3.938,3.97-7.9,7.859-7.925a8.362,8.362,0,0,1,8.062,8.028C-609.6,322.394-613.367,326.341-617.51,326.151Z" fill="#e8413e"/>
      <path id="Trazado_641387" data-name="Trazado 641387" d="M-620.138,357.743V347.369h5.18v10.374Z" fill="#3396e7"/>
      <path id="Trazado_641388" data-name="Trazado 641388" d="M-606.567,326.088c.6-1.6,1.18-3.232,1.832-4.839.08-.2.519-.347.795-.353,1.586-.033,3.174-.016,4.83-.016v5.208Z" fill="#c1c4c5"/>
      <path id="Trazado_641389" data-name="Trazado 641389" d="M-635.959,326.105v-5.164h5.22l2.468,5.164Z" fill="#c1c4c5"/>
      <path id="Trazado_641390" data-name="Trazado 641390" d="M-562.081,286.571a13.2,13.2,0,0,1-13.1,13.2,13.194,13.194,0,0,1-13.289-13.152,13.222,13.222,0,0,1,13.15-13.25A13.2,13.2,0,0,1-562.081,286.571Zm-13.146,7.907c4.05.2,7.881-3.828,7.916-7.872.037-4.147-4.038-7.973-7.955-8.021-3.873-.048-8.042,4.121-7.989,8C-583.2,290.5-579.376,294.749-575.227,294.478Z" fill="#010101"/>
      <path id="Trazado_641391" data-name="Trazado 641391" d="M-533.049,236.4c1.756,0,3.513-.023,5.269.007a2.444,2.444,0,0,1,2.648,2.634q.043,5.27,0,10.539a2.411,2.411,0,0,1-2.719,2.649q-5.209.037-10.419,0a2.443,2.443,0,0,1-2.681-2.722q-.036-5.209,0-10.42a2.483,2.483,0,0,1,2.751-2.682C-536.483,236.383-534.766,236.4-533.049,236.4Zm-2.611,10.487h5.179v-5.117h-5.179Z" fill="#010101"/>
      <path id="Trazado_641392" data-name="Trazado 641392" d="M-575.227,294.478c-4.149.271-7.974-3.98-8.028-7.9-.053-3.876,4.116-8.045,7.989-8,3.917.048,7.992,3.874,7.955,8.021C-567.346,290.65-571.177,294.678-575.227,294.478Z" fill="#4e5558"/>
      <path id="Trazado_641393" data-name="Trazado 641393" d="M-535.66,246.889v-5.117h5.179v5.117Z" fill="#3396e7"/>
    </g>
  </g>
</svg>
