<svg xmlns="http://www.w3.org/2000/svg" width="134" height="134" viewBox="0 0 134 134">
  <g id="Grupo_909104" data-name="Grupo 909104" transform="translate(-1084 -11496.803)">
    <circle id="Elipse_7476" data-name="Elipse 7476" cx="67" cy="67" r="67" transform="translate(1084 11496.803)" fill="#179587"/>
    <g id="Grupo_907061" data-name="Grupo 907061" transform="translate(1486.166 11875.691)">
      <path id="Trazado_641468" data-name="Trazado 641468" d="M-321.564-362.88c1.586.627,1.933,1.083,1.855,2.96a20.473,20.473,0,0,1-.492,4.739,9.29,9.29,0,0,1-8.649,6.654c-.751.034-1.5,0-2.414,0v2.468c0,1.131.026,2.262-.009,3.391-.02.653.247.857.877.9a35.744,35.744,0,0,1,22.238,9.391,35.426,35.426,0,0,1,11.489,22.335,35.015,35.015,0,0,1-.159,9.756c-.057.367-.06.742-.091,1.148.373.079.71.131,1.035.224a5.1,5.1,0,0,1,3.687,4.9,5.081,5.081,0,0,1-3.839,4.783c-.88.22-1.773.393-2.76.611a5.123,5.123,0,0,1,1.748,4.587,4.633,4.633,0,0,1-3.013,3.761c1.4,3.792-.9,6.672-4.116,6.95-.484,3.857-3.946,5.527-6.906,4.13-.054.06-.137.113-.168.188-1.3,3.158-5.372,4.134-8.248,1.25-.865-.867-1.763-1.7-2.585-2.609a1.141,1.141,0,0,0-1.317-.341,35.333,35.333,0,0,1-18.5,0,1.211,1.211,0,0,0-1.4.361c-.861.955-1.8,1.84-2.717,2.742a4.7,4.7,0,0,1-7.824-1.28c-.057-.109-.133-.208-.2-.31a5.04,5.04,0,0,1-7.12-4.124c-3.769-.615-5.358-3.273-4.127-6.9-3.107-1.335-4.467-5.136-1.319-8.406-.849-.2-1.659-.378-2.468-.568a5.05,5.05,0,0,1-4.083-5.047,5.076,5.076,0,0,1,4.45-4.828,2.253,2.253,0,0,0,.3-.118c-1.719-10.712.4-20.629,7.34-29.094a35.667,35.667,0,0,1,26.9-13.556v-2.571c-.555,0-1.136,0-1.717,0a9.581,9.581,0,0,1-9.78-9.756c-.007-.784-.021-1.57,0-2.354a2.138,2.138,0,0,1,2.253-2.247,31.362,31.362,0,0,1,3.948.105,9.174,9.174,0,0,1,5.577,2.88c.082-.1.166-.162.192-.243a9.455,9.455,0,0,1,7.423-6.7c.071-.015.124-.113.186-.172Zm-29.4,91a1.842,1.842,0,0,0,.233,2.581,1.818,1.818,0,0,0,2.544-.143q2.815-2.755,5.57-5.57a1.668,1.668,0,0,0,.316-2.134,1.771,1.771,0,0,0-2.875-.566C-347.145-275.807-349.041-273.828-350.966-271.88Zm-5.433-19.439a1.785,1.785,0,0,0-2.877-.3q-2.026,1.865-3.99,3.8c-.707.7-1.351,1.455-2.024,2.185a1.82,1.82,0,0,0,.448,2.407,1.809,1.809,0,0,0,2.409-.132q2.928-2.758,5.785-5.591A1.667,1.667,0,0,0-356.4-291.319Zm56.521,6.253a3.336,3.336,0,0,0-.457-.982c-1.835-1.878-3.681-3.747-5.566-5.573a1.773,1.773,0,0,0-2.877.3,1.708,1.708,0,0,0,.243,2.362c.676.735,1.4,1.422,2.11,2.128,1.149,1.148,2.282,2.311,3.455,3.433a1.736,1.736,0,0,0,2.234.29A1.617,1.617,0,0,0-299.878-285.065Zm-13.981,13.948a4.034,4.034,0,0,0-.555-1.031c-1.876-1.857-3.767-3.7-5.691-5.508a1.8,1.8,0,0,0-3.027.681,1.8,1.8,0,0,0,.582,2.175q2.762,2.666,5.523,5.332a1.8,1.8,0,0,0,2.234.393A1.7,1.7,0,0,0-313.859-271.117Zm-31.293-12.992c-.971-1.065-1.93-1.064-3.045.046q-4.539,4.517-9.055,9.057a6.167,6.167,0,0,0-.506.66,1.81,1.81,0,0,0,.407,2.415,1.79,1.79,0,0,0,2.481-.15q4.818-4.76,9.578-9.578A1.728,1.728,0,0,0-345.153-284.109Zm-4.478-4.354a1.793,1.793,0,0,0-2.955-.519c-.694.63-1.329,1.327-2,1.982-2.013,1.957-4.045,3.9-6.041,5.869-.726.718-1.375,1.514-2.059,2.275a1.781,1.781,0,0,0,.56,2.315,2.1,2.1,0,0,0,2.6-.215q4.81-4.762,9.575-9.569A1.687,1.687,0,0,0-349.631-288.463Zm47.084,9.993a3.1,3.1,0,0,0-.433-.893c-3.191-3.221-6.384-6.437-9.615-9.616a1.778,1.778,0,0,0-2.951.512,1.687,1.687,0,0,0,.321,2.135q4.76,4.794,9.551,9.557a1.761,1.761,0,0,0,2.234.349A1.657,1.657,0,0,0-302.547-278.47Zm-4.7,4.526a3.2,3.2,0,0,0-.429-.8q-4.769-4.8-9.567-9.577c-1.071-1.069-3.168-.531-3.324.948a1.8,1.8,0,0,0,.622,1.858c.765.729,1.576,1.411,2.327,2.154,2.295,2.271,4.568,4.563,6.855,6.843a5.38,5.38,0,0,0,.775.679,1.682,1.682,0,0,0,2.1-.056A1.6,1.6,0,0,0-307.248-273.944Zm-5.426-58.432-.224-.171a4.579,4.579,0,0,0-.348-.305,33.368,33.368,0,0,0-14.055-5.716,32.371,32.371,0,0,0-10.888.02c.025.241.033.424.065.6.757,4.129,1.476,8.265,2.294,12.382a38.805,38.805,0,0,0,1.471,5.614c.594,1.646,1.569,1.9,3.138,1.146,1.043-.5,2.033-1.122,3.093-1.585a6.681,6.681,0,0,1,8.3,1.928c.74.88,1.478,1.764,2.182,2.672a10.176,10.176,0,0,0,4.209,3.22,16.763,16.763,0,0,0,7.824,1.206,1.706,1.706,0,0,1,1.975,1.05l.014.212,0,.362a1.5,1.5,0,0,1-1.592,1.19,39.144,39.144,0,0,1-4.133-.086c-4.5-.524-8.39-2.215-11.1-6.054-.361-.512-.768-.993-1.168-1.476-1.952-2.349-3.548-2.648-6.268-1.21a27.532,27.532,0,0,1-2.942,1.458,4.358,4.358,0,0,1-5.508-1.765,8.637,8.637,0,0,1-1.229-2.72c-.645-2.87-1.153-5.773-1.7-8.664-.562-2.948-1.112-5.9-1.679-8.911A33.5,33.5,0,0,0-358.6-326.593c.346.265.645.488.938.72,4.609,3.645,7.211,8.173,6.462,14.272a31.284,31.284,0,0,0,1.423,13.189,1.687,1.687,0,0,1-.674,2.192c-1.259.1-1.642-.126-2.018-1.313a36.6,36.6,0,0,1-1.628-13.927,17.474,17.474,0,0,0-.056-4.493c-.674-3.57-3.052-6.023-5.854-8.114a1.575,1.575,0,0,0-.48-.16c-7.513,10.832-6.576,24.615-2.608,32.239,1.37-1.507,2.756-3,4.981-3.041a4.681,4.681,0,0,1,4.581,2.92l3.269-.177a4.809,4.809,0,0,1,3.734,4.542,4.852,4.852,0,0,1,3.976,2.348,4.752,4.752,0,0,1,.3,4.3l3.021,3.05a18.773,18.773,0,0,0,6.518-9.934c.578-2.205.847-4.49,1.352-6.717.813-3.593,3.389-5.13,6.969-4.162a21.49,21.49,0,0,1,8.578,5.035,7.619,7.619,0,0,0,4.11,1.867c1.275-2.461,2.959-3.358,5.564-2.963l4.086,2.715c.031-.067.159-.31.265-.563a28.27,28.27,0,0,0,2.378-9.886c.115-2.793-.186-5.6-.3-8.406a4.277,4.277,0,0,0-.032-.561,32.9,32.9,0,0,0-5.269-12.846,30.269,30.269,0,0,0-7.671-7.915Zm-13.46,56.541a4.861,4.861,0,0,1,3.147-4.989,4.86,4.86,0,0,1,.21-4.63,4.725,4.725,0,0,1,3.586-2.269l2.053-3.7c-1.774-1.209-3.62-2.548-5.555-3.745a9.618,9.618,0,0,0-2.786-1.065,2.255,2.255,0,0,0-3.045,1.832,25.447,25.447,0,0,0-.576,3.044,23.234,23.234,0,0,1-8.552,15.684c-.726.585-1.458,1.162-2.187,1.743l-.544.722a32.8,32.8,0,0,0,15.209.041Zm-5.049-77.3c.829-.728,1.521-1.35,2.23-1.953a1.466,1.466,0,0,1,2.167-.046,1.462,1.462,0,0,1-.281,2.147c-.54.5-1.1.987-1.725,1.548,3.992.053,6.9-4.077,6.172-8.547C-327.61-360.547-331.365-357.632-331.183-353.132Zm-4.942,5.792a24.242,24.242,0,0,1-2.354-2.311,1.89,1.89,0,0,1-.265-1.6,1.846,1.846,0,0,1,1.332-.755c.336-.045.784.327,1.1.608.7.629,1.347,1.317,2.13,2.093a6.884,6.884,0,0,0-8.61-6.49C-343.16-350.807-340.209-346.931-336.125-347.34Zm36.933,55.924c.974-.225,1.838-.374,2.669-.628a2.157,2.157,0,0,0,1.485-2.256,2.171,2.171,0,0,0-2-1.915.865.865,0,0,0-.685.4C-298.236-294.407-298.683-292.975-299.192-291.417Zm-66.981,0c-.5-1.533-.93-2.939-1.441-4.315a1,1,0,0,0-.807-.461,2.122,2.122,0,0,0-1.905,1.9,2.155,2.155,0,0,0,1.491,2.252C-368-291.79-367.14-291.641-366.173-291.419Z" fill="#030303"/>
      <path id="Trazado_641469" data-name="Trazado 641469" d="M-302.153-288.11c-2.6-.395-4.289.5-5.564,2.963a7.619,7.619,0,0,1-4.11-1.867,21.49,21.49,0,0,0-8.578-5.035c-3.581-.968-6.156.568-6.969,4.162-.5,2.227-.774,4.512-1.352,6.717a18.773,18.773,0,0,1-6.518,9.934l-3.021-3.05a4.752,4.752,0,0,0-.3-4.3,4.852,4.852,0,0,0-3.976-2.348,4.809,4.809,0,0,0-3.734-4.542,8.064,8.064,0,0,0-.187-3.933,1.687,1.687,0,0,0,.674-2.192,31.285,31.285,0,0,1-1.423-13.189c.749-6.1-1.854-10.626-6.462-14.272-.293-.232-.592-.455-.938-.72a33.5,33.5,0,0,1,17.649-11.386c.567,3.012,1.116,5.963,1.679,8.911.55,2.892,1.058,5.794,1.7,8.664a8.638,8.638,0,0,0,1.229,2.72,4.358,4.358,0,0,0,5.507,1.765,27.538,27.538,0,0,0,2.942-1.458c2.72-1.438,4.316-1.139,6.268,1.21.4.483.807.964,1.168,1.476,2.709,3.839,6.6,5.529,11.1,6.054a39.161,39.161,0,0,0,4.133.086,1.5,1.5,0,0,0,1.592-1.19c-.018,1.79.108,3.6-.084,5.366A35.055,35.055,0,0,1-302.153-288.11Z" transform="translate(-3.987 -6.816)" fill="#9cc5f9"/>
      <path id="Trazado_641470" data-name="Trazado 641470" d="M-294.068-303.783a1.706,1.706,0,0,0-1.975-1.05,16.763,16.763,0,0,1-7.824-1.206,10.177,10.177,0,0,1-4.209-3.22c-.7-.908-1.441-1.792-2.182-2.672a6.681,6.681,0,0,0-8.3-1.928c-1.059.463-2.049,1.082-3.093,1.585-1.569.758-2.544.5-3.138-1.146a38.8,38.8,0,0,1-1.47-5.614c-.818-4.117-1.537-8.253-2.294-12.382-.032-.178-.04-.361-.065-.6a32.372,32.372,0,0,1,10.888-.02,33.368,33.368,0,0,1,14.055,5.716,4.572,4.572,0,0,1,.348.305l.224.171-.011-.012c.492.664.959,1.349,1.48,1.99a34.872,34.872,0,0,1,7.518,17.618A20.3,20.3,0,0,1-294.068-303.783Z" transform="translate(-9.574 -6.531)" fill="#b2e39e"/>
      <path id="Trazado_641471" data-name="Trazado 641471" d="M-348.521-285.641a8.064,8.064,0,0,1,.187,3.933l-3.269.177a4.681,4.681,0,0,0-4.581-2.92c-2.224.038-3.611,1.533-4.981,3.041-3.968-7.624-4.9-21.407,2.608-32.239a1.575,1.575,0,0,1,.48.16c2.8,2.091,5.18,4.544,5.855,8.114a17.474,17.474,0,0,1,.056,4.493,36.6,36.6,0,0,0,1.628,13.927C-350.162-285.768-349.78-285.546-348.521-285.641Z" transform="translate(-1.929 -10.58)" fill="#b2e39e"/>
      <path id="Trazado_641472" data-name="Trazado 641472" d="M-330.716-255.715c.729-.581,1.461-1.158,2.187-1.743a23.234,23.234,0,0,0,8.552-15.684,25.447,25.447,0,0,1,.575-3.044,2.255,2.255,0,0,1,3.045-1.832,9.617,9.617,0,0,1,2.786,1.065c1.935,1.2,3.78,2.536,5.555,3.745l-2.053,3.7a4.726,4.726,0,0,0-3.586,2.269,4.86,4.86,0,0,0-.21,4.63,4.861,4.861,0,0,0-3.147,4.989A39.921,39.921,0,0,1-326-255.66C-327.565-255.572-329.143-255.69-330.716-255.715Z" transform="translate(-9.122 -18.213)" fill="#b2e39e"/>
      <path id="Trazado_641473" data-name="Trazado 641473" d="M-287.794-280.744a35.055,35.055,0,0,0,2.426-9.448c.192-1.771.066-3.576.084-5.366l0-.363,3.915-.963c.116,2.8.417,5.613.3,8.406a28.269,28.269,0,0,1-2.378,9.886c-.107.253-.234.5-.265.563Z" transform="translate(-18.346 -14.182)" fill="#7fb2f8"/>
      <path id="Trazado_641474" data-name="Trazado 641474" d="M-283.158-302.72l-3.915.963-.014-.211a20.311,20.311,0,0,0-.045-2.466,34.872,34.872,0,0,0-7.518-17.618c-.521-.641-.988-1.326-1.48-1.99a30.269,30.269,0,0,1,7.671,7.915,32.9,32.9,0,0,1,5.269,12.846A4.277,4.277,0,0,1-283.158-302.72Z" transform="translate(-16.555 -8.346)" fill="#93d3a2"/>
      <path id="Trazado_641475" data-name="Trazado 641475" d="M-306.172-262.025c.156-1.479,2.253-2.016,3.324-.948q4.791,4.78,9.567,9.577a3.2,3.2,0,0,1,.429.8,3.71,3.71,0,0,1-4.609-1.086c-1.848-2-3.811-3.889-5.766-5.785C-304.159-260.369-305.187-261.175-306.172-262.025Z" transform="translate(-14.397 -21.349)" fill="#eecda2"/>
      <path id="Trazado_641476" data-name="Trazado 641476" d="M-319.693-352.358c-.182-4.5,3.572-7.414,8.563-6.849.732,4.47-2.18,8.6-6.172,8.547.627-.561,1.185-1.046,1.725-1.548a1.462,1.462,0,0,0,.281-2.147,1.466,1.466,0,0,0-2.167.046C-318.172-353.708-318.864-353.086-319.693-352.358Z" transform="translate(-11.49 -0.774)" fill="#b2e39e"/>
      <path id="Trazado_641477" data-name="Trazado 641477" d="M-327.82-345.456c-4.084.409-7.035-3.466-6.671-8.452a6.884,6.884,0,0,1,8.61,6.49c-.783-.776-1.43-1.464-2.13-2.093-.312-.28-.76-.652-1.1-.608a1.846,1.846,0,0,0-1.332.755,1.89,1.89,0,0,0,.265,1.6A24.252,24.252,0,0,0-327.82-345.456Z" transform="translate(-8.305 -1.884)" fill="#b2e39e"/>
      <path id="Trazado_641478" data-name="Trazado 641478" d="M-299.774-268.4a1.778,1.778,0,0,1,2.951-.512c3.231,3.179,6.424,6.4,9.615,9.616a3.1,3.1,0,0,1,.433.893,4.439,4.439,0,0,1-4.843-1.508c-2.432-2.6-5.021-5.06-7.531-7.591A6.2,6.2,0,0,1-299.774-268.4Z" transform="translate(-15.772 -20.068)" fill="#eecda2"/>
      <path id="Trazado_641479" data-name="Trazado 641479" d="M-359.82-258.784c.684-.761,1.332-1.558,2.059-2.275,2-1.974,4.028-3.912,6.041-5.869.673-.655,1.308-1.351,2-1.982a1.793,1.793,0,0,1,2.955.519c-.225.258-.435.529-.675.77-2.515,2.521-5.08,4.995-7.534,7.572C-356.377-258.574-357.887-257.994-359.82-258.784Z" transform="translate(-2.868 -20.072)" fill="#eecda2"/>
      <path id="Trazado_641480" data-name="Trazado 641480" d="M-341.011-262.548a1.728,1.728,0,0,1-.14,2.45q-4.761,4.818-9.578,9.578a1.79,1.79,0,0,1-2.481.15,1.81,1.81,0,0,1-.407-2.415,2.991,2.991,0,0,0,3.489-.714Q-345.568-258.021-341.011-262.548Z" transform="translate(-4.141 -21.561)" fill="#e7b684"/>
      <path id="Trazado_641481" data-name="Trazado 641481" d="M-340.935-262.765q-4.559,4.525-9.117,9.049a2.991,2.991,0,0,1-3.489.714,6.169,6.169,0,0,1,.506-.66q4.52-4.535,9.055-9.057C-342.865-263.829-341.907-263.829-340.935-262.765Z" transform="translate(-4.217 -21.344)" fill="#eecda2"/>
      <path id="Trazado_641482" data-name="Trazado 641482" d="M-330.865-250.1c1.573.025,3.151.144,4.716.055a39.924,39.924,0,0,0,8.989-1.963l.96,2.671a32.8,32.8,0,0,1-15.209-.041Z" transform="translate(-8.974 -23.826)" fill="#93d3a2"/>
      <path id="Trazado_641483" data-name="Trazado 641483" d="M-359.872-258.487c1.933.79,3.443.21,4.848-1.265,2.454-2.577,5.019-5.051,7.534-7.572.24-.241.451-.513.675-.77a1.687,1.687,0,0,1-.326,2.139q-4.769,4.8-9.575,9.569a2.1,2.1,0,0,1-2.6.215A1.781,1.781,0,0,1-359.872-258.487Z" transform="translate(-2.816 -20.369)" fill="#e7b684"/>
      <path id="Trazado_641484" data-name="Trazado 641484" d="M-309.437-253.8a1.8,1.8,0,0,1,3.027-.681c1.924,1.808,3.815,3.652,5.691,5.508a4.035,4.035,0,0,1,.555,1.031,3.511,3.511,0,0,1-3.839-.946c-1.537-1.455-3.052-2.934-4.592-4.385A4.956,4.956,0,0,0-309.437-253.8Z" transform="translate(-13.695 -23.171)" fill="#eecda2"/>
      <path id="Trazado_641485" data-name="Trazado 641485" d="M-291.154-271.984a1.773,1.773,0,0,1,2.877-.3c1.886,1.826,3.732,3.695,5.566,5.573a3.337,3.337,0,0,1,.457.982,2.973,2.973,0,0,1-3.029-.344C-287.306-267.971-289.205-270-291.154-271.984Z" transform="translate(-17.624 -19.339)" fill="#eecda2"/>
      <path id="Trazado_641486" data-name="Trazado 641486" d="M-363.135-266.3c.673-.73,1.317-1.489,2.024-2.185q1.963-1.93,3.99-3.8a1.785,1.785,0,0,1,2.877.3c-1.941,1.848-3.827,3.757-5.847,5.513A2.4,2.4,0,0,1-363.135-266.3Z" transform="translate(-2.156 -19.342)" fill="#eecda2"/>
      <path id="Trazado_641487" data-name="Trazado 641487" d="M-344.89-248.711c1.925-1.949,3.821-3.927,5.788-5.833a1.771,1.771,0,0,1,2.875.566c-.256.229-.521.449-.766.691-1.469,1.462-2.92,2.943-4.4,4.39C-342.406-247.913-344.159-247.842-344.89-248.711Z" transform="translate(-6.076 -23.168)" fill="#eecda2"/>
      <path id="Trazado_641488" data-name="Trazado 641488" d="M-306.19-261.612c.985.85,2.013,1.656,2.946,2.559,1.955,1.9,3.918,3.787,5.766,5.785a3.71,3.71,0,0,0,4.609,1.086,1.6,1.6,0,0,1-.644,2.048,1.682,1.682,0,0,1-2.1.056,5.378,5.378,0,0,1-.775-.679c-2.286-2.28-4.56-4.572-6.855-6.843-.751-.743-1.562-1.424-2.327-2.154A1.8,1.8,0,0,1-306.19-261.612Z" transform="translate(-14.379 -21.762)" fill="#e7b684"/>
      <path id="Trazado_641489" data-name="Trazado 641489" d="M-299.841-268.1a6.2,6.2,0,0,0,.624.9c2.511,2.531,5.1,4.989,7.531,7.591a4.439,4.439,0,0,0,4.843,1.508,1.657,1.657,0,0,1-.893,2.044,1.761,1.761,0,0,1-2.234-.349q-4.786-4.768-9.551-9.557A1.687,1.687,0,0,1-299.841-268.1Z" transform="translate(-15.705 -20.368)" fill="#e7b684"/>
      <path id="Trazado_641490" data-name="Trazado 641490" d="M-363.2-266.055a2.4,2.4,0,0,0,3.045-.164c2.019-1.756,3.906-3.665,5.847-5.513a1.668,1.668,0,0,1-.249,2.362q-2.851,2.837-5.785,5.591a1.809,1.809,0,0,1-2.409.132A1.82,1.82,0,0,1-363.2-266.055Z" transform="translate(-2.086 -19.587)" fill="#e7b684"/>
      <path id="Trazado_641491" data-name="Trazado 641491" d="M-345-248.413c.731.869,2.484.8,3.495-.186,1.483-1.447,2.934-2.928,4.4-4.39.244-.242.51-.462.766-.691a1.668,1.668,0,0,1-.316,2.134q-2.759,2.812-5.57,5.57a1.818,1.818,0,0,1-2.544.143A1.842,1.842,0,0,1-345-248.413Z" transform="translate(-5.963 -23.467)" fill="#e7b684"/>
      <path id="Trazado_641492" data-name="Trazado 641492" d="M-291.255-271.736c1.949,1.98,3.848,4.013,5.871,5.913a2.973,2.973,0,0,0,3.029.344,1.617,1.617,0,0,1-.857,1.956,1.736,1.736,0,0,1-2.234-.29c-1.173-1.123-2.307-2.285-3.455-3.433-.707-.707-1.434-1.394-2.11-2.128A1.708,1.708,0,0,1-291.255-271.736Z" transform="translate(-17.523 -19.587)" fill="#e7b684"/>
      <path id="Trazado_641493" data-name="Trazado 641493" d="M-309.482-253.462a4.956,4.956,0,0,1,.842.528c1.54,1.451,3.055,2.93,4.592,4.385a3.511,3.511,0,0,0,3.839.946,1.7,1.7,0,0,1-.934,2.041,1.8,1.8,0,0,1-2.234-.393q-2.765-2.663-5.523-5.332A1.8,1.8,0,0,1-309.482-253.462Z" transform="translate(-13.65 -23.514)" fill="#e7b684"/>
      <path id="Trazado_641494" data-name="Trazado 641494" d="M-278.944-273.169c.51-1.558.956-2.99,1.466-4.4a.865.865,0,0,1,.685-.4,2.171,2.171,0,0,1,2,1.915,2.157,2.157,0,0,1-1.485,2.256C-277.106-273.543-277.97-273.394-278.944-273.169Z" transform="translate(-20.248 -18.247)" fill="#e7b684"/>
      <path id="Trazado_641495" data-name="Trazado 641495" d="M-365.4-273.166c-.967-.222-1.83-.371-2.662-.623a2.155,2.155,0,0,1-1.491-2.252,2.121,2.121,0,0,1,1.905-1.9,1,1,0,0,1,.807.461C-366.329-276.106-365.9-274.7-365.4-273.166Z" transform="translate(-0.774 -18.253)" fill="#e7b684"/>
      <path id="Trazado_641496" data-name="Trazado 641496" d="M-296.177-324.074l-.224-.171Z" transform="translate(-16.497 -8.303)" fill="#93d3a2"/>
    </g>
  </g>
</svg>
