<svg xmlns="http://www.w3.org/2000/svg" width="109" height="109" viewBox="0 0 109 109">
  <g id="Grupo_909138" data-name="Grupo 909138" transform="translate(-312 -9962)">
    <circle id="Elipse_7495" data-name="Elipse 7495" cx="54.5" cy="54.5" r="54.5" transform="translate(312 9962)" fill="#222b5a"/>
    <path id="Trazado_641282" data-name="Trazado 641282" d="M1390.563,610.947c0-1.353-.006-2.615,0-3.876a10.841,10.841,0,0,1,3.181-7.8c2.447-2.494,4.929-4.954,7.409-7.417,1.229-1.221,2.634-1.38,4.564-.508v-.683q0-4.39,0-8.779a5.058,5.058,0,0,1,5.269-5.3c.589,0,1.179-.016,1.768.006a1,1,0,0,1,1.04,1.034c.02.4.005.8.005,1.2q0,9.285.009,18.569a2.023,2.023,0,0,1-.492,1.377c-2.6,3.152-5.151,6.337-7.776,9.464a2.736,2.736,0,0,0-.739,2.712c.24,0,.547-.011.852,0a1,1,0,0,1,1.068,1.071q.017,4.99,0,9.979c0,.732-.427,1.072-1.258,1.073q-5.715,0-11.429,0c-1.41,0-2.82,0-4.231,0-.905,0-1.259-.356-1.26-1.264q-.006-4.705,0-9.411c0-1.16.283-1.441,1.454-1.451C1390.161,610.946,1390.325,610.947,1390.563,610.947Zm12.115-.038a12,12,0,0,0-.008-1.271,2.466,2.466,0,0,1,.692-1.938q4.047-4.884,8.03-9.821a1.736,1.736,0,0,0,.364-1.006c.022-5.85.016-11.7.016-17.55v-.655a3.279,3.279,0,0,0-4.051,3.556c.1,3.49.037,6.986.017,10.479a1.364,1.364,0,0,0,.457,1.1c.78.744.768,1.2.008,1.964q-2.7,2.7-5.4,5.4c-.129.129-.273.242-.317.281l-1.617-1.434,5.411-5.305c-.5-.481-.969-.934-1.441-1.384a1.465,1.465,0,0,0-2.275,0q-3.757,3.742-7.493,7.5a8.549,8.549,0,0,0-2.064,3.5c-.682,2.156-.324,4.368-.421,6.581Z" transform="translate(-1016.158 9422.188)" fill="#fff"/>
    <path id="Trazado_641283" data-name="Trazado 641283" d="M1174.574,591.369a9.7,9.7,0,0,1,1.157-.44,3.45,3.45,0,0,1,3.415.973c2.477,2.465,4.962,4.922,7.407,7.418a10.858,10.858,0,0,1,3.174,7.8c.008,1.26,0,2.521,0,3.868.343,0,.649-.012.955,0a.983.983,0,0,1,1.057,1.016q.021,5.052,0,10.105c0,.638-.438.991-1.136,1-1.052.011-2.1,0-3.157,0q-6.251,0-12.5,0c-1.066,0-1.379-.318-1.379-1.4q0-4.547,0-9.095c0-1.4.209-1.609,1.589-1.633.122,0,.244-.012.4-.02a3.1,3.1,0,0,0-.639-2.51c-2.711-3.192-5.338-6.455-7.964-9.717a2.156,2.156,0,0,1-.441-1.249c-.027-6.505-.02-13.011-.018-19.516,0-1.025.327-1.355,1.368-1.343a16.573,16.573,0,0,1,2.516.1,4.953,4.953,0,0,1,4.192,4.951c.022,2.989.006,5.979.006,8.968C1174.574,590.878,1174.574,591.1,1174.574,591.369Zm13.124,19.594c0-1.375.02-2.7,0-4.016a8.315,8.315,0,0,0-2.207-5.761c-2.567-2.7-5.233-5.3-7.872-7.926a1.283,1.283,0,0,0-1.781-.176,22.958,22.958,0,0,0-1.759,1.908l5.157,5.153-1.321,1.442c-.155-.138-.285-.243-.4-.359q-2.724-2.721-5.444-5.446c-.729-.731-.741-1.2.016-1.916a1.428,1.428,0,0,0,.474-1.154c-.019-3.535-.009-7.07-.01-10.605,0-2.433-1.539-3.745-4-3.375-.006.112-.02.234-.02.355q0,9,.012,17.991a1.351,1.351,0,0,0,.3.777q4.117,5.07,8.268,10.113a1.931,1.931,0,0,1,.516,1.431c-.036.514-.008,1.033-.008,1.566Z" transform="translate(-831.49 9422.145)" fill="#fff"/>
    <path id="Trazado_641284" data-name="Trazado 641284" d="M1272.453,490.672l2.073,5.04c.364,0,.826-.013,1.287,0a.993.993,0,0,1,1.069,1.068q.022,2.968,0,5.937a1,1,0,0,1-1.067,1.071c-.461.017-.923,0-1.289,0l-2.006,4.881-.285.128a11.647,11.647,0,0,1,1.027.811,1.029,1.029,0,0,1,.023,1.692q-2.019,2.045-4.064,4.063a1.018,1.018,0,0,1-1.647-.017c-.3-.293-.565-.621-.775-.854l-5.067,2.1c0,.327.012.788,0,1.248a1.008,1.008,0,0,1-1.1,1.1q-2.936.019-5.872,0a1.011,1.011,0,0,1-1.1-1.1c-.009-.231,0-.463,0-.695,0-.21,0-.419,0-.559l-5.126-2.115a9.441,9.441,0,0,1-.715.869,1.031,1.031,0,0,1-1.653.014q-2.067-2.041-4.106-4.11a.978.978,0,0,1-.007-1.551,11.164,11.164,0,0,1,.925-.789l-2.121-5.117c-.309,0-.766.01-1.222,0a1.02,1.02,0,0,1-1.127-1.141q-.015-2.905,0-5.81a1.02,1.02,0,0,1,1.139-1.129c.231-.007.463,0,.695,0h.524l2.011-4.883.288-.132a11.368,11.368,0,0,1-1.032-.809,1.022,1.022,0,0,1-.02-1.687q2-2.021,4.017-4.021c.614-.609,1.105-.6,1.738.022.285.278.554.573.761.789l5.033-2.082c0-.349-.016-.832,0-1.314a.979.979,0,0,1,1.035-1.035q3-.024,6,0a.982.982,0,0,1,1.037,1.034c.021.461,0,.924,0,1.314l5.127,2.12a9.709,9.709,0,0,1,.716-.87,1.011,1.011,0,0,1,1.644-.021q2.046,2.017,4.065,4.062a1.038,1.038,0,0,1-.02,1.7C1272.971,490.194,1272.659,490.475,1272.453,490.672Zm-28.286-1.492a8.588,8.588,0,0,1,.737.6,1.087,1.087,0,0,1,.178,1.626,15.306,15.306,0,0,0-2.195,5.328c-.156.771-.494,1.016-1.276,1.024-.348,0-.7,0-1.036,0v3.991c.384,0,.736,0,1.089,0a1.043,1.043,0,0,1,1.2.953,15.682,15.682,0,0,0,2.281,5.5,1.051,1.051,0,0,1-.189,1.476c-.271.251-.571.471-.8.655l2.948,2.967c.221-.266.446-.57.7-.843a1,1,0,0,1,1.372-.186,16.305,16.305,0,0,0,5.669,2.348,1,1,0,0,1,.842,1.095c0,.39,0,.779,0,1.163h3.991c0-.385,0-.737,0-1.089a1.043,1.043,0,0,1,.952-1.2,15.605,15.605,0,0,0,5.494-2.281,1.048,1.048,0,0,1,1.475.187c.252.272.474.571.652.789l2.977-2.937c-.284-.237-.61-.47-.889-.75a.989.989,0,0,1-.149-1.327,16.2,16.2,0,0,0,2.349-5.67,1,1,0,0,1,1.091-.846h1.169v-3.992c-.383,0-.734,0-1.086,0-.716-.011-1.057-.247-1.2-.948a15.734,15.734,0,0,0-2.279-5.5,1.046,1.046,0,0,1,.182-1.474c.273-.251.576-.469.8-.651l-2.923-2.945c-.239.266-.488.577-.772.85a1,1,0,0,1-1.329.148,16.087,16.087,0,0,0-5.669-2.349,1,1,0,0,1-.847-1.091q0-.585,0-1.17H1255.7c0,.383,0,.734,0,1.086a1.045,1.045,0,0,1-.948,1.2,15.789,15.789,0,0,0-5.495,2.279,1.05,1.05,0,0,1-1.475-.184c-.251-.272-.473-.57-.664-.8Z" transform="translate(-891.368 9502.054)" fill="#fff"/>
    <path id="Trazado_641285" data-name="Trazado 641285" d="M1292.535,546.745a12.151,12.151,0,1,1,12.141-12.176A12.135,12.135,0,0,1,1292.535,546.745Zm10.094-12.139a10.1,10.1,0,1,0-10.021,10.093A10.115,10.115,0,0,0,1302.629,534.606Z" transform="translate(-926.203 9467.212)" fill="#fff"/>
    <path id="Trazado_641286" data-name="Trazado 641286" d="M1322.567,561.721c-1.01,0-2.02.014-3.029,0a3.016,3.016,0,0,1-3.034-3.058c-.015-1.3-.011-2.609,0-3.914a3.056,3.056,0,0,1,1.644-2.786.933.933,0,0,0,.36-.612c.088-.6.026-1.229.168-1.811a4.034,4.034,0,0,1,7.926.92,1.343,1.343,0,0,1,0,.189,1.4,1.4,0,0,0,.774,1.613,2.581,2.581,0,0,1,1.24,2.351c.021,1.388.029,2.778,0,4.166a3,3,0,0,1-2.955,2.939C1324.629,561.74,1323.6,561.72,1322.567,561.721Zm-.649-8.028c-.693,0-1.386-.009-2.079,0-.847.013-1.247.4-1.259,1.226-.015,1.071.005,2.143-.009,3.213-.005.366.11.543.5.539,1.176-.012,2.353.024,3.527-.016a1.984,1.984,0,0,0,1.965-2.046c.013-.756-.015-1.513.01-2.268.016-.474-.119-.694-.64-.662C1323.264,553.724,1322.59,553.693,1321.918,553.693Zm2.633-2.1c.11-1.137.04-2.149-1.035-2.75a1.874,1.874,0,0,0-2.134.139,2.5,2.5,0,0,0-.8,2.611Z" transform="translate(-956.239 9447.158)" fill="#fff"/>
    <path id="Trazado_641287" data-name="Trazado 641287" d="M1348.5,602.585h-2.052v-2.053h2.052Z" transform="translate(-981.147 9402.27)" fill="#fff"/>
  </g>
</svg>
