<svg xmlns="http://www.w3.org/2000/svg" width="137" height="138" viewBox="0 0 137 138">
  <g id="Grupo_909108" data-name="Grupo 909108" transform="translate(-485 -12527.702)">
    <circle id="Elipse_7484" data-name="Elipse 7484" cx="62.5" cy="62.5" r="62.5" transform="translate(489 12533.702)" fill="#fff"/>
    <g id="Elipse_7489" data-name="Elipse 7489" transform="translate(495 12537.702)" fill="none" stroke="#f1b62b" stroke-linejoin="round" stroke-width="10">
      <ellipse cx="58.5" cy="59" rx="58.5" ry="59" stroke="none"/>
      <ellipse cx="58.5" cy="59" rx="63.5" ry="64" fill="none"/>
    </g>
    <g id="Grupo_907067" data-name="Grupo 907067" transform="translate(1152.371 12690.104)">
      <path id="Trazado_641609" data-name="Trazado 641609" d="M-581.065-125.684c-.157-.006-.315-.017-.473-.017q-20.355,0-40.709-.021a1.627,1.627,0,0,0-1.666,1.708c.016,2.562.009,5.124,0,7.686a1.48,1.48,0,0,1-.408,1.321,1.517,1.517,0,0,1-1.456.36,1.426,1.426,0,0,1-1.046-1.122,4.919,4.919,0,0,1-.047-.707c0-2.546.038-5.093-.016-7.639a4.334,4.334,0,0,1,1.926-3.872,4.28,4.28,0,0,1,2.459-.667q14.708,0,29.417,0c4.365,0,8.73.009,13.1-.008a2.673,2.673,0,0,1,2.026.851c1.616,1.641,3.25,3.263,4.876,4.894,1.281,1.285,2.579,2.555,3.825,3.873A1.693,1.693,0,0,1-568.9-118c.039,1.486.017,2.973.017,4.459q0,8.28,0,16.559a.933.933,0,0,0,.377.885,3.665,3.665,0,0,1,.648.841c.644.871,1.278,1.75,1.935,2.612q1.024,1.341,2.086,2.653c.9,1.111,1.813,2.2,2.705,3.317a13.763,13.763,0,0,1,1.306,1.775,4.326,4.326,0,0,1,.393,3.614,4.28,4.28,0,0,1-.921,1.574,10.72,10.72,0,0,1-1.419,1.166c-.536.419-1.08.827-1.623,1.237-1.087.821-2.182,1.632-3.263,2.462a15.674,15.674,0,0,1-1.786,1.406c-.553.307-.431.715-.432,1.134-.007,2.657.011,5.314-.014,7.971a9.16,9.16,0,0,1-.231,2.033,3.881,3.881,0,0,1-1.887,2.329,3.3,3.3,0,0,1-1.771.517q-5.244-.008-10.487-.008c-.087,0-.173.11-.26.169a3.9,3.9,0,0,0-.836.422,3.011,3.011,0,0,1-1.9.527c-.331.023-.483.1-.582.447a4.021,4.021,0,0,1-2.153,2.6,4.188,4.188,0,0,1-2.9.219,4.731,4.731,0,0,1-1.4,1.943,5.377,5.377,0,0,1-1.887.966h-1.8a7.482,7.482,0,0,1-1.839-1.047c-.491-.47-1.053-.874-1.493-1.386a.529.529,0,0,0-.807-.1,3.735,3.735,0,0,1-3.273.466,4.289,4.289,0,0,1-2.587-2.291,2.486,2.486,0,0,1-.146-.581,3.9,3.9,0,0,1-2.952-1.348,8,8,0,0,1-.664-.834c-.111-.063-.22-.176-.333-.18-.551-.019-1.1-.009-1.654-.009L-623-59.455a4.029,4.029,0,0,1-3.256-1.969,4.047,4.047,0,0,1-.627-2.327c.03-3.447-.009-6.9.032-10.342a1.367,1.367,0,0,0-.707-1.229c-.582-.425-1.144-.879-1.722-1.311-.748-.558-1.509-1.1-2.254-1.658a4.814,4.814,0,0,1-2-2.855,3.813,3.813,0,0,1,.575-3.124c.75-1.056,1.6-2.044,2.378-3.077.6-.787,1.144-1.609,1.74-2.4.578-.764,1.2-1.493,1.78-2.257a1.078,1.078,0,0,0,.182-.612q.016-5.5,0-11.006a1.674,1.674,0,0,1,.761-1.49,1.47,1.47,0,0,1,2.159.828,4.772,4.772,0,0,1,.047.8c0,2.4,0,4.807,0,7.335a2.007,2.007,0,0,0,.354-.264c.767-.97,1.521-1.951,2.292-2.917a21.21,21.21,0,0,1,1.374-1.626,4.425,4.425,0,0,1,4.594-.541c1.161.707,2.187,1.572,3.27,2.372.882.652,1.756,1.315,2.631,1.976.5.374.991.749,1.483,1.13a14.51,14.51,0,0,1,1.19.954,6.187,6.187,0,0,1,1.327,1.471,7.354,7.354,0,0,1,.428,1.94,1.858,1.858,0,0,1,0,.338c1.021.139,2.024.265,3.023.415,1.254.187,2.521.324,3.75.618a2.46,2.46,0,0,0,1.913-.421,15.086,15.086,0,0,1,1.664-.779,15.267,15.267,0,0,1,6.674-.756,1.087,1.087,0,0,0,.052-.221,4.248,4.248,0,0,1,2.147-3.478c.63-.437,1.208-.949,1.817-1.416.871-.666,1.756-1.314,2.623-1.985a16.571,16.571,0,0,1,1.622-1.3,14.279,14.279,0,0,1,2.4-1.56,4.656,4.656,0,0,1,4.134.418,8.869,8.869,0,0,1,1.2,1.006v-15.706c-.134-.008-.271-.021-.406-.021q-2.23,0-4.46,0a4.163,4.163,0,0,1-2.814-1.128,3.363,3.363,0,0,1-1.24-2.384c0-1.773,0-3.546-.019-5.319C-580.891-125.447-581-125.565-581.065-125.684Zm-7.294,36.507a1.057,1.057,0,0,0-.334-.131c-.645-.015-1.291-.019-1.936-.006a1.247,1.247,0,0,0-.379.14,13.339,13.339,0,0,0-2.431.433,22.937,22.937,0,0,0-4.507,2.647c-.784.516-1.549,1.062-2.346,1.559a5.658,5.658,0,0,0-2.007,1.915,2.316,2.316,0,0,0-.443,1.393A2.059,2.059,0,0,0-599.93-79.7c.715-.264,1.369-.689,2.062-1.019,1.053-.5,2.128-.954,3.167-1.481a1.569,1.569,0,0,1,1.69.232c1.247,1.161,2.515,2.3,3.779,3.442.973.878,1.953,1.748,2.929,2.622.556.5,1.108,1,1.667,1.5,1.262,1.116,2.542,2.212,3.779,3.354a.485.485,0,0,0,.776.008c.337-.287.662-.588,1.014-.854a10.876,10.876,0,0,0,2.838-3.344.68.68,0,0,0-.077-.566c-.152-.247-.4-.43-.581-.665-.753-.993-1.481-2.006-2.244-2.991-.526-.679-1.114-1.31-1.638-1.991-.87-1.13-1.7-2.292-2.565-3.422s-1.832-2.234-2.666-3.41a1.769,1.769,0,0,0-1.7-.877C-587.915-89.151-588.138-89.173-588.359-89.177Zm-13,12.541a10.29,10.29,0,0,1-1.316-.328,3.635,3.635,0,0,1-1.2-.658,5.846,5.846,0,0,1-1.578-2.118,4.379,4.379,0,0,1-.166-2.776,6.084,6.084,0,0,1,1.028-2.1,10.848,10.848,0,0,1,2.186-2.155c.412-.315.857-.586,1.342-.916-1.4-.222-2.711-.36-3.984-.653a1.711,1.711,0,0,0-1.967.871c-.724,1.013-1.482,2-2.239,2.994-.58.759-1.189,1.5-1.773,2.253-.473.611-.914,1.247-1.4,1.85-.427.533-.921,1.014-1.338,1.554-.873,1.13-1.71,2.288-2.573,3.427-.348.46-.726.9-1.085,1.351-.042.053-.082.166-.056.2.262.364.538.717.792,1.049.448-.4.836-.746,1.23-1.088,1.115-.968,2.2-1.973,3.365-2.877a3.963,3.963,0,0,1,1.6-.637,3.877,3.877,0,0,1,2.83.463,3.958,3.958,0,0,1,1.888,2.258,14.682,14.682,0,0,1,.316,1.724c.119.051.291.119.458.2a4.136,4.136,0,0,1,2.605,3.25.448.448,0,0,0,.4.425,3.922,3.922,0,0,1,1.171.4,4.091,4.091,0,0,1,1.892,2.136,3.329,3.329,0,0,1,.242,2.2c-.117.372-.2.753-.3,1.1a3.7,3.7,0,0,1,1.974,2.917A3.415,3.415,0,0,1-598.4-57a17.815,17.815,0,0,0,1.583,1.581,1.578,1.578,0,0,0,1.092.227c.57-.078.828-.608,1.066-1.07a.7.7,0,0,0-.027-.62,6.639,6.639,0,0,0-1.041-1.029,1.6,1.6,0,0,1-.454-2.255,1.547,1.547,0,0,1,1.975-.442c.727.648,1.41,1.346,2.143,1.987a3.245,3.245,0,0,0,1.054.651c.557.187.949-.055,1.265-.63a1.257,1.257,0,0,0-.223-1.388c-.545-.582-1.081-1.174-1.645-1.737-.748-.748-1.519-1.474-2.283-2.207a1.516,1.516,0,0,1-.321-1.764,1.568,1.568,0,0,1,2.657-.219c1.384,1.369,2.767,2.741,4.1,4.161a1.3,1.3,0,0,0,1.419.385,1.3,1.3,0,0,0,.592-2.017c-.387-.432-.853-.792-1.262-1.206-.775-.787-1.525-1.6-2.3-2.384-.708-.716-1.45-1.4-2.154-2.12a1.483,1.483,0,0,1-.3-1.6,1.332,1.332,0,0,1,.97-.846c.905-.258,1.461.286,2,.793.813.758,1.553,1.594,2.34,2.38.513.512,1.056.994,1.582,1.494.747.709,1.473,1.442,2.244,2.125a1.339,1.339,0,0,0,1.415.2,1.134,1.134,0,0,0,.518-1.482,2.643,2.643,0,0,0-.588-.979c-.578-.613-1.194-1.191-1.822-1.754-1.059-.949-2.146-1.865-3.207-2.812-.8-.713-1.567-1.463-2.367-2.177-.825-.736-1.686-1.433-2.506-2.174-1.07-.967-2.113-1.964-3.18-2.935a.476.476,0,0,0-.4-.092c-.33.13-.637.316-.956.475-.512.256-1.032.5-1.538.765a9.458,9.458,0,0,1-3.056,1.083Zm30.041,1.327a1.491,1.491,0,0,0,.585-.172c1.14-.854,2.257-1.738,3.382-2.612.819-.637,1.636-1.278,2.458-1.912.777-.6,1.567-1.182,2.335-1.792a.946.946,0,0,0,.241-1.186c-.471-.708-.993-1.384-1.5-2.065q-1.085-1.445-2.185-2.879-1.152-1.5-2.319-2.991c-.509-.654-1.026-1.3-1.536-1.957-.859-1.1-1.72-2.2-2.571-3.31-.671-.874-1.34-1.75-1.987-2.64-.318-.437-1.141-.845-1.56-.654a5.386,5.386,0,0,0-1,.639c-.561.427-1.092.892-1.654,1.317-.7.53-1.435,1.023-2.137,1.554-1.19.9-2.362,1.822-3.552,2.721-.387.293-.769,1.082-.569,1.408a18.57,18.57,0,0,0,1.128,1.593c.414.537.873,1.04,1.29,1.575.62.795,1.211,1.613,1.833,2.406.668.852,1.372,1.677,2.035,2.533.874,1.128,1.716,2.28,2.585,3.411.52.677,1.064,1.336,1.6,2,.688.857,1.407,1.691,2.048,2.582C-572.114-75.383-571.817-75.34-571.32-75.31Zm-50.145.559a1.229,1.229,0,0,0,1.142-.5c.449-.624.926-1.228,1.4-1.836.925-1.2,1.848-2.4,2.782-3.585.976-1.243,1.962-2.477,2.947-3.713.535-.672,1.092-1.327,1.613-2.009.6-.786,1.151-1.608,1.755-2.391.521-.676,1.124-1.291,1.62-1.983a1.2,1.2,0,0,0-.352-1.885c-.79-.6-1.588-1.181-2.37-1.788-1.03-.8-2.04-1.626-3.07-2.425-.81-.629-1.637-1.235-2.457-1.851a1,1,0,0,0-1.279-.038,4.877,4.877,0,0,0-.973.923c-.87,1.126-1.692,2.288-2.552,3.421-.534.7-1.112,1.371-1.656,2.067-.484.62-.941,1.261-1.423,1.883-.585.755-1.19,1.5-1.774,2.251-.466.6-.9,1.233-1.376,1.827-.431.535-.919,1.025-1.353,1.558-.463.568-.913,1.149-1.331,1.751a1.426,1.426,0,0,0,.3,2.242c.649.5,1.308.991,1.957,1.492.775.6,1.54,1.21,2.316,1.807.894.686,1.77,1.4,2.7,2.025C-622.444-75.2-622.075-74.645-621.465-74.751Zm-2.443,2.4c0,2.9-.009,5.774.007,8.648a1.388,1.388,0,0,0,1.344,1.291q3.885,0,7.771,0c.107,0,.214-.012.329-.019l-.849-1.752a4.453,4.453,0,0,1-3.518-6.384c-.262-.363-.534-.729-.794-1.1-.211-.3-.48-.24-.791-.2a6.818,6.818,0,0,1-1.739.079A10.663,10.663,0,0,1-623.908-72.349Zm51.972.185c-.625-.273-1.2-.514-1.766-.776-.21-.1-.33-.164-.469.124a6.362,6.362,0,0,1-.605.8,13.239,13.239,0,0,1-3.031,2.955c-.518.384-.548.431-.222.983a4.506,4.506,0,0,1,.49,1.055,4.9,4.9,0,0,1,.049,2.69,4.9,4.9,0,0,1-1.444,2.125,7.876,7.876,0,0,1,.8-.105c1.658-.037,3.317-.063,4.975-.094a1.133,1.133,0,0,0,1.226-1.219C-571.933-66.486-571.937-69.345-571.937-72.164Zm-44.322,3.446a1.539,1.539,0,0,0,.593,1.294,1.127,1.127,0,0,0,1.192,0q.966-.923,1.936-1.843.843-.794,1.7-1.576c.691-.632,1.419-1.227,2.071-1.9a1.007,1.007,0,0,0-.595-1.648,1.632,1.632,0,0,0-1.547.45c-1.016.838-1.949,1.777-2.927,2.662-.565.511-1.167.98-1.725,1.5C-615.887-69.478-616.342-69.235-616.259-68.717Zm10.955.063a1.434,1.434,0,0,0-.9-1.372,1.115,1.115,0,0,0-1.222.267c-.841.658-1.641,1.369-2.438,2.081q-.989.883-1.933,1.819c-.573.57-.685.764-.249,1.536a1.1,1.1,0,0,0,1.587.41c.705-.514,1.361-1.1,2.016-1.68q1.408-1.249,2.779-2.54A2.459,2.459,0,0,0-605.3-68.654Zm3.667,3.744a1.119,1.119,0,0,0-.739-1.123,1.468,1.468,0,0,0-1.527.382c-.45.38-.877.786-1.316,1.179-.9.8-1.807,1.589-2.69,2.406-.535.5-.491.987.085,1.669a1.092,1.092,0,0,0,1.482.072c.6-.523,1.181-1.065,1.77-1.6q1.116-1.012,2.232-2.025C-602-64.255-601.656-64.553-601.636-64.91Zm-1.6,7.887a3.3,3.3,0,0,0,.761-.356c.715-.592,1.385-1.237,2.1-1.829a.8.8,0,0,0,.3-.956c-.127-.33-.374-.658-.793-.576a2.133,2.133,0,0,0-.93.391c-.694.575-1.325,1.226-2.013,1.809-.3.255-.5.524-.362.9A.964.964,0,0,0-603.238-57.024Zm25.311-66.44c0,1.087-.006,2.077.009,3.066,0,.114.114.238.2.338a1.545,1.545,0,0,0,1.362.522c.747-.03,1.5-.008,2.243-.008l.038-.114Z" transform="translate(0 0)" fill="#020202"/>
      <path id="Trazado_641610" data-name="Trazado 641610" d="M-582.939-92.678a5.224,5.224,0,0,1-3.274-2.239,2.118,2.118,0,0,1,.052-1.645c.584-.654,1.117-.864,1.739-.586a2.2,2.2,0,0,1,.876.654c.725,1.009,1.752.968,2.775.827a1.26,1.26,0,0,0,.932-1.725,1.12,1.12,0,0,0-.629-.506c-.632-.23-1.287-.4-1.935-.582a5.2,5.2,0,0,1-2.962-1.613,4.193,4.193,0,0,1-.656-1.208,5.964,5.964,0,0,1-.217-1.412,3.577,3.577,0,0,1,.777-2.295,3.41,3.41,0,0,1,2.2-1.567,1.159,1.159,0,0,0,.327-.188c.062-.091.176-.181.178-.274.016-.537.005-1.074,0-1.611a1.146,1.146,0,0,1,1.234-1.042c.892-.03,1.163.25,1.448,1.038,0,.551-.015,1.1,0,1.654,0,.09.108.177.166.266.085.058.164.151.257.168a3.591,3.591,0,0,1,2.354,1.516,1.714,1.714,0,0,1-.379,2.006,1.393,1.393,0,0,1-1.7-.138,3.026,3.026,0,0,0-2.937-.487,1.262,1.262,0,0,0-.571,1.025,1.19,1.19,0,0,0,.77,1.026,14.417,14.417,0,0,1,1.622.384c1.081.414,2.321.474,3.175,1.411a3.281,3.281,0,0,1,.856,1.708,5.067,5.067,0,0,1-.326,3.039,5.813,5.813,0,0,1-1.169,1.39,3.678,3.678,0,0,1-1.932,1c-.065.079-.185.156-.187.237-.015.519,0,1.039,0,1.558a1.338,1.338,0,0,1-1.237,1.315,1.3,1.3,0,0,1-1.439-1.03c0-.577.012-1.155-.006-1.732C-582.755-92.452-582.873-92.564-582.939-92.678Z" transform="translate(-28.586 -11.469)" fill="#020202"/>
      <path id="Trazado_641611" data-name="Trazado 641611" d="M-540.422-90.05q-4.173,0-8.347,0a1.833,1.833,0,0,1-1.81-1.343,1.76,1.76,0,0,1,.864-1.477A3.692,3.692,0,0,1-548.6-93.1q8.252-.021,16.5-.008a1.593,1.593,0,0,1,1.558.809,1.491,1.491,0,0,1-.529,2,2.161,2.161,0,0,1-1.011.231C-534.857-90.042-537.639-90.05-540.422-90.05Z" transform="translate(-50.209 -21.495)" fill="#020202"/>
      <path id="Trazado_641612" data-name="Trazado 641612" d="M-540.391-73.865q-4.151,0-8.3,0a1.616,1.616,0,0,1-1.818-1.183.843.843,0,0,1,.064-.531c.362-.979.745-1.246,1.646-1.245,5.614.01,11.228.019,16.842-.007A1.494,1.494,0,0,1-530.341-75a1.31,1.31,0,0,1-1.085,1.117c-.237.01-.474.021-.711.021Z" transform="translate(-50.243 -31.334)" fill="#010101"/>
      <path id="Trazado_641613" data-name="Trazado 641613" d="M-613.566-84.178A1.39,1.39,0,0,1-615-82.644a1.519,1.519,0,0,1-1.52-1.514,1.519,1.519,0,0,1,1.423-1.506C-614.206-85.611-613.535-85.194-613.566-84.178Z" transform="translate(-10.348 -25.994)" fill="#020202"/>
      <path id="Trazado_641614" data-name="Trazado 641614" d="M-606.732,46.335l10.257-.013c.552,0,1.1-.01,1.654.009.113,0,.222.117.333.18q-5.835,0-11.67-.007A2.168,2.168,0,0,1-606.732,46.335Z" transform="translate(-16.267 -105.789)" fill="#c1bfc3"/>
      <path id="Trazado_641615" data-name="Trazado 641615" d="M-506.925,46.512c.087-.059.173-.169.26-.169q5.244-.005,10.487.008c-.128.058-.256.165-.384.165Q-501.743,46.524-506.925,46.512Z" transform="translate(-76.609 -105.804)" fill="#c1bfc3"/>
      <path id="Trazado_641616" data-name="Trazado 641616" d="M-500.681-121.134c.061.119.174.238.175.357.015,1.773.015,3.546.019,5.319a1.763,1.763,0,0,1-.181-.525C-500.683-117.7-500.679-119.417-500.681-121.134Z" transform="translate(-80.384 -4.55)" fill="#8e8e8e"/>
      <path id="Trazado_641617" data-name="Trazado 641617" d="M-577.715-66.665c.066.113.184.225.187.341.019.577.007,1.155.006,1.732a1.354,1.354,0,0,1-.178-.424C-577.722-65.565-577.713-66.115-577.715-66.665Z" transform="translate(-33.81 -37.481)" fill="#8e8e8e"/>
      <path id="Trazado_641618" data-name="Trazado 641618" d="M-577.519-107.05c0,.537.012,1.074,0,1.611,0,.093-.116.183-.178.274,0-.5-.014-1.007.005-1.51C-577.69-106.8-577.581-106.925-577.519-107.05Z" transform="translate(-33.816 -13.065)" fill="#c1bfc3"/>
      <path id="Trazado_641619" data-name="Trazado 641619" d="M-570.3-105.142c-.058-.089-.164-.176-.166-.266-.013-.551,0-1.1,0-1.654a1.115,1.115,0,0,1,.171.376C-570.275-106.171-570.292-105.656-570.3-105.142Z" transform="translate(-38.191 -13.058)" fill="#8e8e8e"/>
      <path id="Trazado_641620" data-name="Trazado 641620" d="M-570.464-64.888c0-.52-.012-1.04,0-1.558,0-.081.122-.158.187-.237-.008.467,0,.934-.03,1.4A1.343,1.343,0,0,1-570.464-64.888Z" transform="translate(-38.192 -37.47)" fill="#8e8e8e"/>
      <path id="Trazado_641621" data-name="Trazado 641621" d="M-575.322-15.078a9.457,9.457,0,0,0,3.056-1.083c.506-.267,1.026-.509,1.538-.765.318-.159.626-.345.956-.475a.475.475,0,0,1,.4.092c1.066.971,2.109,1.968,3.18,2.935.82.741,1.681,1.437,2.506,2.174.8.713,1.567,1.463,2.367,2.177,1.061.947,2.148,1.863,3.207,2.812.628.563,1.244,1.141,1.822,1.754a2.643,2.643,0,0,1,.588.979A1.133,1.133,0,0,1-556.217-3a1.339,1.339,0,0,1-1.415-.2c-.771-.683-1.5-1.416-2.244-2.125-.526-.5-1.069-.981-1.582-1.494-.787-.786-1.527-1.622-2.34-2.38-.543-.507-1.1-1.051-2-.793a1.332,1.332,0,0,0-.97.846,1.483,1.483,0,0,0,.3,1.6c.7.72,1.446,1.4,2.154,2.12.776.785,1.527,1.6,2.3,2.384.409.414.875.774,1.262,1.206a1.3,1.3,0,0,1-.592,2.017A1.3,1.3,0,0,1-562.763-.2c-1.33-1.42-2.713-2.792-4.1-4.161a1.568,1.568,0,0,0-2.657.219,1.516,1.516,0,0,0,.321,1.764c.764.733,1.534,1.459,2.283,2.207.564.563,1.1,1.155,1.645,1.737a1.257,1.257,0,0,1,.223,1.388c-.316.575-.708.817-1.265.63a3.244,3.244,0,0,1-1.054-.651c-.733-.641-1.416-1.339-2.143-1.987a1.547,1.547,0,0,0-1.975.442,1.6,1.6,0,0,0,.454,2.255,6.642,6.642,0,0,1,1.041,1.029.7.7,0,0,1,.027.62c-.237.462-.5.992-1.066,1.07a1.578,1.578,0,0,1-1.092-.227A17.821,17.821,0,0,1-573.7,4.557a3.414,3.414,0,0,0,1.39-3.333,3.7,3.7,0,0,0-1.974-2.917c.093-.346.181-.727.3-1.1a3.328,3.328,0,0,0-.242-2.2,4.091,4.091,0,0,0-1.892-2.136,3.922,3.922,0,0,0-1.171-.4.448.448,0,0,1-.4-.425,4.136,4.136,0,0,0-2.6-3.25c-.168-.078-.34-.146-.458-.2a14.7,14.7,0,0,0-.316-1.724,3.958,3.958,0,0,0-1.888-2.258,3.877,3.877,0,0,0-2.83-.463,3.963,3.963,0,0,0-1.6.637c-1.164.9-2.25,1.91-3.365,2.877-.394.342-.781.691-1.23,1.088-.254-.333-.53-.686-.792-1.049-.026-.037.015-.151.056-.2.358-.453.736-.89,1.085-1.351.862-1.138,1.7-2.3,2.573-3.427.417-.541.911-1.021,1.338-1.554.484-.6.924-1.239,1.4-1.85.584-.756,1.193-1.494,1.773-2.253.757-.99,1.514-1.98,2.239-2.994a1.711,1.711,0,0,1,1.967-.871c1.274.293,2.583.431,3.984.653-.486.33-.931.6-1.342.916a10.851,10.851,0,0,0-2.186,2.155,6.084,6.084,0,0,0-1.028,2.1,4.378,4.378,0,0,0,.166,2.776,5.845,5.845,0,0,0,1.578,2.118,3.634,3.634,0,0,0,1.2.658,10.3,10.3,0,0,0,1.316.328A1.25,1.25,0,0,0-575.322-15.078Z" transform="translate(-24.701 -61.553)" fill="#fcbd9c"/>
      <path id="Trazado_641622" data-name="Trazado 641622" d="M-496.866-30.768c-.5-.03-.794-.073-1.051-.43-.641-.89-1.361-1.724-2.048-2.582-.534-.666-1.078-1.325-1.6-2-.869-1.132-1.711-2.284-2.585-3.411-.663-.856-1.367-1.681-2.035-2.533-.622-.794-1.213-1.611-1.833-2.406-.417-.535-.876-1.038-1.29-1.575a18.57,18.57,0,0,1-1.128-1.593c-.2-.327.181-1.116.569-1.408,1.19-.9,2.362-1.822,3.552-2.721.7-.531,1.434-1.024,2.137-1.554.562-.424,1.093-.89,1.654-1.317a5.388,5.388,0,0,1,1-.639c.418-.191,1.241.216,1.56.654.648.89,1.316,1.766,1.987,2.64.851,1.108,1.712,2.209,2.571,3.31.51.654,1.027,1.3,1.536,1.957q1.163,1.493,2.319,2.991,1.1,1.434,2.185,2.879c.511.681,1.033,1.357,1.5,2.065a.946.946,0,0,1-.241,1.186c-.768.61-1.558,1.192-2.335,1.792-.822.634-1.639,1.275-2.458,1.912-1.125.874-2.242,1.758-3.382,2.612A1.492,1.492,0,0,1-496.866-30.768Z" transform="translate(-74.454 -44.541)" fill="#77cea8"/>
      <path id="Trazado_641623" data-name="Trazado 641623" d="M-616.8-29.346c-.61.106-.979-.447-1.437-.755-.934-.627-1.81-1.339-2.7-2.025-.777-.6-1.542-1.208-2.316-1.807-.649-.5-1.308-.991-1.957-1.492a1.426,1.426,0,0,1-.3-2.242c.418-.6.869-1.182,1.331-1.75.434-.533.922-1.023,1.353-1.558.478-.594.909-1.224,1.376-1.827.585-.756,1.189-1.5,1.774-2.251.482-.622.939-1.264,1.423-1.883.544-.7,1.122-1.364,1.656-2.067.861-1.133,1.683-2.295,2.552-3.421a4.878,4.878,0,0,1,.973-.923,1,1,0,0,1,1.279.038c.82.616,1.647,1.223,2.457,1.851,1.03.8,2.04,1.625,3.07,2.425.781.607,1.579,1.193,2.37,1.788a1.2,1.2,0,0,1,.352,1.885c-.5.692-1.1,1.307-1.62,1.983-.6.783-1.157,1.6-1.755,2.391-.52.682-1.077,1.337-1.613,2.009-.985,1.236-1.971,2.47-2.947,3.713-.934,1.19-1.857,2.388-2.782,3.585-.47.609-.948,1.212-1.4,1.836A1.229,1.229,0,0,1-616.8-29.346Z" transform="translate(-4.665 -45.405)" fill="#c9e357"/>
      <path id="Trazado_641624" data-name="Trazado 641624" d="M-541.144-28.809c.221,0,.444.027.664.011a1.768,1.768,0,0,1,1.7.877c.834,1.175,1.786,2.266,2.666,3.41s1.7,2.293,2.565,3.422c.524.681,1.113,1.311,1.638,1.991.763.986,1.491,2,2.244,2.991.178.234.428.418.581.665a.68.68,0,0,1,.077.566,10.877,10.877,0,0,1-2.838,3.344c-.352.266-.677.567-1.014.854a.485.485,0,0,1-.776-.008c-1.237-1.142-2.518-2.238-3.779-3.354-.559-.494-1.111-1-1.667-1.5-.976-.874-1.956-1.744-2.929-2.622-1.265-1.142-2.532-2.281-3.779-3.442a1.57,1.57,0,0,0-1.69-.232c-1.039.527-2.115.981-3.167,1.481-.692.329-1.346.755-2.062,1.019a2.059,2.059,0,0,1-2.812-1.528,2.316,2.316,0,0,1,.443-1.393,5.658,5.658,0,0,1,2.007-1.915c.8-.5,1.562-1.042,2.346-1.559a22.934,22.934,0,0,1,4.507-2.647,13.339,13.339,0,0,1,2.431-.433Z" transform="translate(-47.215 -60.368)" fill="#fdd2bc"/>
      <path id="Trazado_641625" data-name="Trazado 641625" d="M-589.7,14.181c-.083-.518.371-.76.694-1.059.558-.518,1.161-.987,1.725-1.5.978-.885,1.911-1.824,2.927-2.662a1.632,1.632,0,0,1,1.547-.45,1.007,1.007,0,0,1,.595,1.648c-.652.67-1.38,1.265-2.071,1.9q-.854.782-1.7,1.576-.972.916-1.936,1.843a1.127,1.127,0,0,1-1.192,0A1.539,1.539,0,0,1-589.7,14.181Z" transform="translate(-26.558 -82.898)" fill="#fdd2bc"/>
      <path id="Trazado_641626" data-name="Trazado 641626" d="M-572.7,20.847a2.457,2.457,0,0,1-.363.52q-1.372,1.288-2.779,2.54c-.655.58-1.31,1.166-2.015,1.68a1.1,1.1,0,0,1-1.587-.41c-.435-.771-.323-.966.249-1.536q.941-.935,1.933-1.819c.8-.711,1.6-1.423,2.438-2.081a1.115,1.115,0,0,1,1.222-.267A1.434,1.434,0,0,1-572.7,20.847Z" transform="translate(-32.607 -89.502)" fill="#fdd2bc"/>
      <path id="Trazado_641627" data-name="Trazado 641627" d="M-562.869,30.717c-.019.357-.369.655-.7.959q-1.115,1.014-2.232,2.025c-.589.534-1.17,1.077-1.769,1.6a1.092,1.092,0,0,1-1.482-.072c-.576-.681-.62-1.173-.085-1.669.883-.817,1.792-1.6,2.69-2.406.439-.393.866-.8,1.316-1.179a1.468,1.468,0,0,1,1.527-.382A1.119,1.119,0,0,1-562.869,30.717Z" transform="translate(-38.768 -95.627)" fill="#fdd2bc"/>
      <path id="Trazado_641628" data-name="Trazado 641628" d="M-558.256,46.805a.964.964,0,0,1-.938-.621c-.135-.371.061-.64.362-.9.688-.583,1.319-1.234,2.013-1.809a2.134,2.134,0,0,1,.93-.391c.419-.082.666.246.793.576a.8.8,0,0,1-.3.956c-.715.592-1.385,1.237-2.1,1.829A3.3,3.3,0,0,1-558.256,46.805Z" transform="translate(-44.981 -103.829)" fill="#fdd2bc"/>
      <path id="Trazado_641629" data-name="Trazado 641629" d="M-492.746-115.518l3.849,3.805-.038.114c-.748,0-1.5-.023-2.243.008a1.545,1.545,0,0,1-1.362-.522c-.083-.1-.2-.224-.2-.338C-492.752-113.441-492.746-114.431-492.746-115.518Z" transform="translate(-85.181 -7.946)" fill="#c1bfc3"/>
      <path id="Trazado_641630" data-name="Trazado 641630" d="M-523.178-29.031l-2.649,0a1.248,1.248,0,0,1,.379-.14c.645-.012,1.291-.009,1.936.006A1.058,1.058,0,0,1-523.178-29.031Z" transform="translate(-65.181 -60.147)" fill="#8e8e8e"/>
      <path id="Trazado_641631" data-name="Trazado 641631" d="M-550.672,2.912a1.25,1.25,0,0,1-1.338,0Z" transform="translate(-49.351 -79.544)" fill="#b78972"/>
    </g>
  </g>
</svg>
