<svg xmlns="http://www.w3.org/2000/svg" width="137" height="138" viewBox="0 0 137 138">
  <g id="Grupo_909107" data-name="Grupo 909107" transform="translate(-236 -12527.702)">
    <circle id="Elipse_7483" data-name="Elipse 7483" cx="62.5" cy="62.5" r="62.5" transform="translate(243 12533.702)" fill="#fff"/>
    <g id="Elipse_7488" data-name="Elipse 7488" transform="translate(246 12537.702)" fill="none" stroke="#f1b62b" stroke-linejoin="round" stroke-width="10">
      <ellipse cx="58.5" cy="59" rx="58.5" ry="59" stroke="none"/>
      <ellipse cx="58.5" cy="59" rx="63.5" ry="64" fill="none"/>
    </g>
    <g id="Grupo_907066" data-name="Grupo 907066" transform="translate(632.32 12557.188)">
      <path id="Trazado_641593" data-name="Trazado 641593" d="M-249.046,67.714h11.909V79.75c.535,0,1.034.01,1.532-.009a.418.418,0,0,0,.276-.193,3.743,3.743,0,0,1,2.277-1.889,6.573,6.573,0,0,1,1.339-.266c1.168-.038,2.339,0,3.508-.017a3.779,3.779,0,0,1,2.343.7,3.751,3.751,0,0,1,1.741,2.644,7.071,7.071,0,0,1,.151,1.417,12.108,12.108,0,0,1-.473,1.77c-.15.534-.294,1.07-.451,1.6-.23.778-.482,1.549-.7,2.33a10.248,10.248,0,0,1-.439,1.7,1.4,1.4,0,0,0,.277,1.566c.511.748,1.009,1.506,1.485,2.278.511.829.991,1.676,1.482,2.518.427.732.863,1.46,1.27,2.2a4.691,4.691,0,0,1,.454,1.076c.264,1.041.535,2.086.7,3.145a8.8,8.8,0,0,1-.053,1.777,7.522,7.522,0,0,1-.087,1.022c-.153.8-.315,1.6-.513,2.389a7.413,7.413,0,0,1-1.238,2.574,20.68,20.68,0,0,1-1.916,2.33,8.04,8.04,0,0,1-2.55,1.815c-.937.4-1.867.828-2.835,1.133a7.123,7.123,0,0,1-2.075.311c-5.768.026-11.537.019-17.305.02a.5.5,0,0,1-.108-.031Zm12.555,24.006a4.808,4.808,0,0,1-.222.454c-.562.886-1.138,1.764-1.694,2.653-.4.636-.765,1.291-1.163,1.928a18.881,18.881,0,0,0-1.317,2.079,8.327,8.327,0,0,0-.974,3.873c0,.077-.014.155-.017.234a9.048,9.048,0,0,0-.03,1.685,11.157,11.157,0,0,0,1.362,4.005,9.808,9.808,0,0,0,3.087,3.161,8.008,8.008,0,0,0,2.792,1.187,10.522,10.522,0,0,0,4.6,0,9.851,9.851,0,0,0,3.276-1.5,9.268,9.268,0,0,0,2.535-2.6,7.446,7.446,0,0,0,1.372-3.8,28.677,28.677,0,0,0-.114-3.806,7.512,7.512,0,0,0-1.368-3.392c-.452-.7-.889-1.4-1.326-2.109-.513-.828-1.017-1.662-1.528-2.492-.315-.512-.637-1.02-.978-1.564Zm-3.22,21.5c-.588-.61-1.18-1.176-1.713-1.793a8.833,8.833,0,0,1-1.289-1.734,21.918,21.918,0,0,1-1.175-2.957,11.7,11.7,0,0,1-.324-5.159,10.462,10.462,0,0,1,.931-3.243c.222-.464.429-.938.692-1.378.316-.528.7-1.016,1.027-1.537.435-.688.837-1.4,1.27-2.088.517-.826,1.059-1.637,1.567-2.469a.441.441,0,0,0-.094-.394c-.332-.344-.706-.648-1.04-.989-.59-.6-1.175-1.212-1.74-1.839a7.673,7.673,0,0,1-1.1-1.364,4.364,4.364,0,0,1-.362-2.66A4.35,4.35,0,0,1-241.665,81a7.421,7.421,0,0,1,2.141-1.21v-9.6h-7.151v43.027Zm3.836-31.1c-.629,0-1.2-.025-1.76.007a11.007,11.007,0,0,0-1.711.2,2.117,2.117,0,0,0-1.314,2.3c.13,1.125,1.064,1.628,1.7,2.356.5.572,1.084,1.074,1.609,1.628a1.739,1.739,0,0,0,1.365.733c2.368-.039,4.738-.019,7.106-.01.271,0,.413-.054.494-.345.3-1.055.632-2.1.939-3.151.322-1.1.608-2.219.948-3.317a2.107,2.107,0,0,0,0-1.525c-.273-.621-.676-1.185-1.409-1.212-1.355-.049-2.716-.054-4.071.009a1.818,1.818,0,0,0-1.53,1.726c-.023.552-.009,1.105-.01,1.658,0,.435,0,.869,0,1.289h-2.362Z" transform="translate(-69.723 -40.197)"/>
      <path id="Trazado_641594" data-name="Trazado 641594" d="M-338.117,32.628a20.914,20.914,0,0,1-.021,2.5,13.048,13.048,0,0,1-.622,2.9,19.458,19.458,0,0,1-1.371,2.617,11.685,11.685,0,0,1-3.589,3.785,14.965,14.965,0,0,1-2.668,1.375,13.5,13.5,0,0,1-3.81.881,10.923,10.923,0,0,1-4.1-.345,8,8,0,0,1-2.565-.962c-.754-.5-1.6-.868-2.331-1.393-.566-.405-1-1-1.536-1.445a10.659,10.659,0,0,1-2.1-2.783,9.436,9.436,0,0,1-.724-1.781c-.184-.516-.333-1.046-.482-1.575a14.16,14.16,0,0,1-.24-4.3,11.269,11.269,0,0,1,1.115-4.055,12.265,12.265,0,0,1,1.926-2.992,13.691,13.691,0,0,1,3.061-2.694,17.352,17.352,0,0,1,2.595-1.2,11.789,11.789,0,0,1,6.116-.665c.857.09,1.681.455,2.534.623a7.778,7.778,0,0,1,2.548,1.175,17.56,17.56,0,0,1,2.387,1.849,10.854,10.854,0,0,1,2.385,3.167,7.882,7.882,0,0,1,1,2.506c.032.228.1.349.431.288,1.1-.207,2.217-.35,3.329-.5.305-.041.424-.19.509-.481a5.291,5.291,0,0,1,1.629-2.8,4.625,4.625,0,0,1,3.935-1.07,4.787,4.787,0,0,1,2.3,1.125c.3.258.607.081.829-.044.9-.507,1.754-1.084,2.642-1.607.44-.259.923-.443,1.372-.687.488-.265.956-.567,1.44-.84.767-.433,1.539-.857,2.31-1.285a.534.534,0,0,0,.339-.668,6.264,6.264,0,0,1-.015-1.692,4.351,4.351,0,0,1,1.261-2.53,4.535,4.535,0,0,1,1.932-1.2,4.773,4.773,0,0,1,2.834-.04c.284.082.537.269.82.362a.55.55,0,0,0,.458-.038c.5-.5.963-1.038,1.463-1.54.661-.665,1.344-1.31,2.021-1.96.717-.69,1.446-1.367,2.152-2.069.5-.5.969-1.036,1.462-1.545.958-.989,1.916-1.979,2.889-2.953.794-.8,1.611-1.567,2.484-2.414h-6.665V1.256h10.76V11.923h-2.34v-6.5l-.1-.06c-.3.292-.588.586-.886.875-.734.709-1.48,1.406-2.2,2.125-.477.473-.913.987-1.388,1.462s-.987.913-1.462,1.388-.889.966-1.353,1.43c-.486.486-1.01.934-1.5,1.42s-.956,1.033-1.45,1.533c-.746.754-1.513,1.489-2.26,2.242a.3.3,0,0,0-.04.288,4.2,4.2,0,0,1,.447,3.557,4.68,4.68,0,0,1-2.557,3,4.877,4.877,0,0,1-3.124.363,5.508,5.508,0,0,1-2.194-1.118.488.488,0,0,0-.4-.089c-.59.315-1.161.665-1.74,1-.726.42-1.454.838-2.18,1.258-.752.435-1.5.877-2.254,1.305-.655.371-1.323.72-1.977,1.091a.6.6,0,0,0-.3.672,8.1,8.1,0,0,1,0,1.695A4.134,4.134,0,0,1-326.1,33.18a4.678,4.678,0,0,1-4.692,1.425,3.674,3.674,0,0,1-2.2-1.332c-.292-.373-.554-.769-.836-1.15a.5.5,0,0,0-.569-.227c-.755.171-1.519.3-2.279.45ZM-351.2,44.3a10.723,10.723,0,0,0,10.777-10.735,10.723,10.723,0,0,0-10.768-10.791,10.813,10.813,0,0,0-10.777,10.757A10.813,10.813,0,0,0-351.2,44.3Zm23.961-14.333a2.39,2.39,0,0,0-2.467-2.433,2.4,2.4,0,0,0-2.287,2.4,2.313,2.313,0,0,0,2.355,2.393A2.307,2.307,0,0,0-327.235,29.964Zm14.22-7.2c1.636-.169,2.394-.7,2.552-2.445a2.458,2.458,0,0,0-2.5-2.388,2.672,2.672,0,0,0-2.31,2.3A2.466,2.466,0,0,0-313.015,22.76Z" fill="#030303"/>
      <path id="Trazado_641595" data-name="Trazado 641595" d="M-273.623,130.53h-11.9V92.244h11.9ZM-283.148,94.6v33.442H-276V94.6Z" transform="translate(-47.662 -55.034)"/>
      <path id="Trazado_641596" data-name="Trazado 641596" d="M-358.25,122.45h11.9v26.334h-11.9Zm2.371,2.376v21.49h7.154v-21.49Z" transform="translate(-3.671 -73.303)"/>
      <path id="Trazado_641597" data-name="Trazado 641597" d="M-322.005,128.451h11.991v23.962h-11.991Zm9.522,21.508V130.844h-7.053v19.115Z" transform="translate(-25.594 -76.933)"/>
      <path id="Trazado_641598" data-name="Trazado 641598" d="M-225.621,128.464h8.29c.341.544.663,1.052.978,1.564.511.829,1.015,1.664,1.528,2.492.437.706.874,1.413,1.326,2.109a7.512,7.512,0,0,1,1.368,3.392,28.676,28.676,0,0,1,.114,3.806,7.446,7.446,0,0,1-1.372,3.8,9.268,9.268,0,0,1-2.535,2.6,9.851,9.851,0,0,1-3.276,1.5,10.522,10.522,0,0,1-4.6,0,8.007,8.007,0,0,1-2.792-1.187,9.808,9.808,0,0,1-3.087-3.161,11.157,11.157,0,0,1-1.362-4.005,9.048,9.048,0,0,1,.03-1.685c0-.078.021-.156.017-.234a8.327,8.327,0,0,1,.974-3.873A18.878,18.878,0,0,1-228.7,133.5c.4-.636.765-1.292,1.163-1.928.557-.889,1.132-1.767,1.694-2.653A4.809,4.809,0,0,0-225.621,128.464Zm2.978,2.372c0,.763.022,1.489-.015,2.211a.7.7,0,0,1-.329.514,3.14,3.14,0,0,0-1.894,2.042,3.208,3.208,0,0,0,1.141,3.712,27.256,27.256,0,0,0,2.752,1.509,1.142,1.142,0,0,1,.69.989c.032.65-.509,1.063-1.241,1.053a1.031,1.031,0,0,1-1.1-1.1c-.008-.451,0-.9,0-1.346h-2.327c-.328,2.476.254,3.648,2.349,4.7v2.459h2.35v-2.494a4.591,4.591,0,0,0,.959-.46,3.433,3.433,0,0,0,1.369-3.45,2.976,2.976,0,0,0-1.525-2.208q-1.325-.717-2.651-1.432a.949.949,0,0,1-.5-1.122,1.064,1.064,0,0,1,.9-.75c.984-.071,1.344.216,1.5,1.2h2.431a13.414,13.414,0,0,0-.408-1.594,3.031,3.031,0,0,0-1.671-1.677.542.542,0,0,1-.4-.575c.015-.722,0-1.444,0-2.182Z" transform="translate(-80.593 -76.941)" fill="#b2db7e"/>
      <path id="Trazado_641599" data-name="Trazado 641599" d="M-236.082,117.01h-6.964V73.983h7.151v9.6a7.421,7.421,0,0,0-2.141,1.21,4.35,4.35,0,0,0-1.393,2.612,4.364,4.364,0,0,0,.362,2.66,7.673,7.673,0,0,0,1.1,1.364c.565.627,1.15,1.236,1.74,1.839.335.341.709.645,1.04.989a.441.441,0,0,1,.094.394c-.508.832-1.049,1.643-1.567,2.469-.432.69-.835,1.4-1.27,2.088-.329.521-.711,1.009-1.027,1.537-.263.44-.47.914-.692,1.378a10.461,10.461,0,0,0-.931,3.243,11.7,11.7,0,0,0,.324,5.159,21.914,21.914,0,0,0,1.175,2.957,8.833,8.833,0,0,0,1.289,1.734C-237.262,115.834-236.67,116.4-236.082,117.01Z" transform="translate(-73.352 -43.988)" fill="#fd816d"/>
      <path id="Trazado_641600" data-name="Trazado 641600" d="M-223.06,100.546v2.348h2.362c0-.42,0-.855,0-1.289,0-.553-.013-1.106.01-1.658a1.818,1.818,0,0,1,1.53-1.726c1.355-.062,2.715-.058,4.07-.009.733.026,1.136.59,1.409,1.212a2.107,2.107,0,0,1,0,1.525c-.34,1.1-.626,2.213-.948,3.317-.307,1.052-.644,2.1-.939,3.151-.081.292-.224.346-.494.345-2.369-.009-4.738-.029-7.107.01a1.739,1.739,0,0,1-1.365-.733c-.525-.553-1.106-1.055-1.609-1.628-.639-.727-1.573-1.231-1.7-2.356a2.117,2.117,0,0,1,1.313-2.3,11.007,11.007,0,0,1,1.711-.2C-224.256,100.521-223.689,100.546-223.06,100.546Z" transform="translate(-82.538 -58.62)" fill="#9fd367"/>
      <path id="Trazado_641601" data-name="Trazado 641601" d="M-347.59,77.228a10.813,10.813,0,0,1-10.768-10.77A10.813,10.813,0,0,1-347.581,55.7a10.723,10.723,0,0,1,10.768,10.791A10.723,10.723,0,0,1-347.59,77.228Zm-1.173-19.142c0,.758.016,1.5-.012,2.235a.611.611,0,0,1-.261.469,3.25,3.25,0,0,0-1.846,1.84,3.318,3.318,0,0,0,1,3.923,25.111,25.111,0,0,0,2.531,1.349c.932.467,1.417,1.158.489,2a1.083,1.083,0,0,1-1.189.148,1.092,1.092,0,0,1-.705-.983c-.005-.467,0-.934,0-1.385h-2.356c-.221,2.858.511,3.751,2.367,4.661v2.493h2.356v-2.5a3.426,3.426,0,0,0,2.333-2.689,3.053,3.053,0,0,0-1.11-3.134,21.056,21.056,0,0,0-2.6-1.477c-.454-.237-.894-.456-.984-1.018a.87.87,0,0,1,.524-.982,2.613,2.613,0,0,1,1.361.028c.431.109.48.575.5.949h2.456a13.871,13.871,0,0,0-.427-1.556,2.8,2.8,0,0,0-1.606-1.6c-.326-.129-.468-.273-.457-.628.022-.718.006-1.438.006-2.143Z" transform="translate(-3.606 -32.931)" fill="#fad56f"/>
      <path id="Trazado_641602" data-name="Trazado 641602" d="M-277.748,70.182a2.307,2.307,0,0,1-2.4,2.358,2.313,2.313,0,0,1-2.355-2.393,2.4,2.4,0,0,1,2.287-2.4A2.39,2.39,0,0,1-277.748,70.182Z" transform="translate(-49.487 -40.217)" fill="#f7d36e"/>
      <path id="Trazado_641603" data-name="Trazado 641603" d="M-237.941,48.277a2.466,2.466,0,0,1-2.259-2.532,2.673,2.673,0,0,1,2.31-2.3,2.458,2.458,0,0,1,2.5,2.388C-235.547,47.582-236.306,48.108-237.941,48.277Z" transform="translate(-75.073 -25.516)" fill="#f7d36e"/>
      <path id="Trazado_641604" data-name="Trazado 641604" d="M-279.518,98.213h7.153v33.442h-7.153Z" transform="translate(-51.292 -58.644)" fill="#fe816e"/>
      <path id="Trazado_641605" data-name="Trazado 641605" d="M-352.249,128.462h7.154v21.49h-7.154Z" transform="translate(-7.301 -76.94)" fill="#fe816e"/>
      <path id="Trazado_641606" data-name="Trazado 641606" d="M-308.7,153.622h-7.053V134.507h7.053Z" transform="translate(-29.374 -80.596)" fill="#fe816e"/>
      <path id="Trazado_641607" data-name="Trazado 641607" d="M-213.43,134.468h2.372c0,.739.011,1.461,0,2.182a.542.542,0,0,0,.4.575,3.031,3.031,0,0,1,1.671,1.677,13.411,13.411,0,0,1,.408,1.594h-2.431c-.157-.987-.516-1.274-1.5-1.2a1.064,1.064,0,0,0-.9.75.949.949,0,0,0,.5,1.122q1.327.712,2.651,1.432a2.975,2.975,0,0,1,1.525,2.208,3.433,3.433,0,0,1-1.369,3.45,4.591,4.591,0,0,1-.959.46v2.494h-2.35v-2.459c-2.094-1.049-2.676-2.221-2.349-4.7h2.327c0,.444-.006.895,0,1.346a1.031,1.031,0,0,0,1.1,1.1c.732.01,1.273-.4,1.241-1.053a1.142,1.142,0,0,0-.69-.989,27.255,27.255,0,0,1-2.752-1.509,3.208,3.208,0,0,1-1.141-3.712,3.14,3.14,0,0,1,1.894-2.042.7.7,0,0,0,.329-.514C-213.408,135.957-213.43,135.231-213.43,134.468Z" transform="translate(-89.807 -80.572)" fill="#030303"/>
      <path id="Trazado_641608" data-name="Trazado 641608" d="M-337.738,61.737h2.372c0,.706.015,1.425-.006,2.143-.011.354.131.5.457.628a2.8,2.8,0,0,1,1.606,1.6,13.9,13.9,0,0,1,.427,1.556h-2.456c-.023-.373-.072-.84-.5-.949a2.614,2.614,0,0,0-1.361-.028.871.871,0,0,0-.524.982c.09.562.529.78.984,1.018a21.063,21.063,0,0,1,2.6,1.477,3.053,3.053,0,0,1,1.11,3.134,3.426,3.426,0,0,1-2.333,2.689v2.5h-2.356V75.991c-1.856-.91-2.588-1.8-2.367-4.661h2.356c0,.45,0,.918,0,1.385a1.092,1.092,0,0,0,.705.983,1.083,1.083,0,0,0,1.189-.148c.928-.839.443-1.53-.489-2A25.121,25.121,0,0,1-338.86,70.2a3.318,3.318,0,0,1-1-3.923,3.25,3.25,0,0,1,1.846-1.84.611.611,0,0,0,.261-.469C-337.722,63.234-337.738,62.5-337.738,61.737Z" transform="translate(-14.632 -36.582)" fill="#030303"/>
    </g>
  </g>
</svg>
