<svg xmlns="http://www.w3.org/2000/svg" width="137" height="138" viewBox="0 0 137 138">
  <g id="Grupo_909109" data-name="Grupo 909109" transform="translate(-739 -12527.702)">
    <circle id="Elipse_7485" data-name="Elipse 7485" cx="62.5" cy="62.5" r="62.5" transform="translate(741 12533.702)" fill="#fff"/>
    <g id="Elipse_7490" data-name="Elipse 7490" transform="translate(749 12537.702)" fill="none" stroke="#f1b62b" stroke-linejoin="round" stroke-width="10">
      <ellipse cx="58.5" cy="59" rx="58.5" ry="59" stroke="none"/>
      <ellipse cx="58.5" cy="59" rx="63.5" ry="64" fill="none"/>
    </g>
    <g id="Grupo_907068" data-name="Grupo 907068" transform="translate(1048.609 12880.5)">
      <path id="Trazado_641632" data-name="Trazado 641632" d="M-227.054-225.541a15.531,15.531,0,0,1,.876-3.876,22.105,22.105,0,0,1,1.84-3.78,10.458,10.458,0,0,1,1.864-2.228,26.949,26.949,0,0,1,2.886-2.536,11.528,11.528,0,0,1,2.552-1.363,35.271,35.271,0,0,1,3.808-1.262,10.154,10.154,0,0,1,1.943-.157l2.428,0a24.213,24.213,0,0,1,3.249.5,20.223,20.223,0,0,1,3.275,1.3,17.315,17.315,0,0,1,4.552,3.295,17.3,17.3,0,0,1,2.865,3.887,13.591,13.591,0,0,1,1.474,3.749,15.752,15.752,0,0,1,.563,5.663,32.668,32.668,0,0,1-.887,4.224,14.233,14.233,0,0,1-2.606,4.947,31.558,31.558,0,0,1-3.462,3.394,8.219,8.219,0,0,1-1.331.839.83.83,0,0,0-.421.809c.014,2.645.036,5.292-.028,7.936a7.935,7.935,0,0,1-1.1,3.529,7.829,7.829,0,0,1-2.7,2.9,12.075,12.075,0,0,1-2.729,1.126,4.2,4.2,0,0,1-1.547.231,9.578,9.578,0,0,1-3.5-.638,9.542,9.542,0,0,1-2.71-1.807,12.9,12.9,0,0,1-1.174-1.54,6.124,6.124,0,0,1-1.238-3.693c0-2.759.012-5.517,0-8.275,0-.118-.148-.235-.226-.352-1.138-.852-2.343-1.63-3.392-2.582a15.6,15.6,0,0,1-2.026-2.488,21,21,0,0,1-1.606-2.535c-.357-.681-.526-1.457-.816-2.176a10.182,10.182,0,0,1-.678-3.346Zm31.215,3.006c.067-.08.188-.158.191-.24q.027-.861,0-1.722c0-.082-.126-.161-.193-.241-.153-.952-.237-1.922-.48-2.851a11.576,11.576,0,0,0-.979-2.575,15.543,15.543,0,0,0-1.781-2.587,16.836,16.836,0,0,0-2.127-2.034,15.168,15.168,0,0,0-2.585-1.631,13.931,13.931,0,0,0-5.173-1.4,15.555,15.555,0,0,0-5.577.662,4.778,4.778,0,0,0-1.105.417c-.764.42-1.521.858-2.245,1.342a13.747,13.747,0,0,0-1.855,1.42,15.5,15.5,0,0,0-2.642,3.417,14.315,14.315,0,0,0-1.8,5.937c-.07.1-.2.194-.2.294q-.028.8,0,1.609c0,.1.129.2.2.3.212,1.066.35,2.154.659,3.191a14.11,14.11,0,0,0,1.1,2.485,9.46,9.46,0,0,0,1.993,2.76c.865.769,1.74,1.532,2.658,2.236.509.39,1.141.617,1.67.987a1.711,1.711,0,0,1,.641,1.405c.027.62.006,1.243.006,1.854h11.007c0-.5.01-.978,0-1.454a1.887,1.887,0,0,1,1.122-2.083,11.174,11.174,0,0,0,3.789-2.936,17.16,17.16,0,0,0,1.942-2.594A12.84,12.84,0,0,0-195.839-222.534Zm-8.645,17.969H-215.4v3.079h10.942c0-.855,0-1.674,0-2.493C-204.459-204.166-204.474-204.352-204.484-204.565Zm-10.331,6.012c.218,1.451,2.525,3.311,5.11,3.2,2.213-.095,4.414-1.956,4.57-3.2Z" transform="translate(-30.483 -45.351)" fill="#030201"/>
      <path id="Trazado_641633" data-name="Trazado 641633" d="M-146.162-282.951a24.371,24.371,0,0,1,.642-3.628,11.16,11.16,0,0,1,2.528-4.308,11.978,11.978,0,0,1,4.805-3.1,12.032,12.032,0,0,1,5.08-.475,11.125,11.125,0,0,1,7.5,4.021,16.76,16.76,0,0,1,1.67,2.68,9.846,9.846,0,0,1,1.048,4.4,11.128,11.128,0,0,1-.675,4.378,11.6,11.6,0,0,1-2.926,4.513,10.019,10.019,0,0,1-3.061,2.047,11.665,11.665,0,0,1-5.128,1.15,12.762,12.762,0,0,1-4.53-1.088,10.788,10.788,0,0,1-4.051-2.975,8.4,8.4,0,0,1-1.877-3.144c-.2-.715-.612-1.377-.762-2.1a16.253,16.253,0,0,1-.162-2.346Zm11.741-8.687a8.815,8.815,0,0,0-8.764,8.71,8.883,8.883,0,0,0,8.7,8.7,8.809,8.809,0,0,0,8.725-8.755A8.727,8.727,0,0,0-134.421-291.638Z" transform="translate(-72.595 -17.343)" fill="#030201"/>
      <path id="Trazado_641634" data-name="Trazado 641634" d="M-204.11-327.855a11.547,11.547,0,0,1,11.6,11.494,11.651,11.651,0,0,1-10.508,11.65,11.632,11.632,0,0,1-12.73-10.645A11.6,11.6,0,0,1-204.11-327.855Zm.037,2.877a8.737,8.737,0,0,0-8.79,9.248,8.721,8.721,0,0,0,8.688,8.145,8.588,8.588,0,0,0,8.744-8.6A8.61,8.61,0,0,0-204.073-324.978Z" transform="translate(-36.352)" fill="#030201"/>
      <path id="Trazado_641635" data-name="Trazado 641635" d="M-285.609-282.916c.2-1.3.328-2.554.618-3.764a6.877,6.877,0,0,1,.932-1.963,15.062,15.062,0,0,1,1.577-2.123,12.2,12.2,0,0,1,3.22-2.467,11.258,11.258,0,0,1,7.206-1.132,9.638,9.638,0,0,1,3.333,1.057,11.421,11.421,0,0,1,3.746,2.991,15.886,15.886,0,0,1,1.578,2.566,11.611,11.611,0,0,1,.86,2.423,9.117,9.117,0,0,1,.278,2.347,11.565,11.565,0,0,1-1.616,6,11.372,11.372,0,0,1-4.089,4.029,12.547,12.547,0,0,1-3.345,1.285,9.88,9.88,0,0,1-4.656.182,14.152,14.152,0,0,1-3.887-1.465,11.777,11.777,0,0,1-3.83-3.652,12.153,12.153,0,0,1-1.388-3.237A23.812,23.812,0,0,1-285.609-282.916Zm3,.007a8.774,8.774,0,0,0,8.676,8.695,8.789,8.789,0,0,0,8.721-8.763,8.786,8.786,0,0,0-8.668-8.666A8.794,8.794,0,0,0-282.611-282.909Z" transform="translate(0 -17.358)" fill="#030201"/>
      <path id="Trazado_641636" data-name="Trazado 641636" d="M-226.379-241.772a.411.411,0,0,1-.054.124c-.59.578-1.167,1.17-1.792,1.708-.085.072-.469-.076-.614-.222-.8-.806-1.566-1.646-2.352-2.467-.124-.129-.306-.2-.432-.329-.409-.409-.386-.606.034-1,.4-.371.795-.753,1.163-1.156a.517.517,0,0,1,.82-.036c.851.817,1.676,1.662,2.51,2.5.2.2.4.391.59.6A.972.972,0,0,1-226.379-241.772Z" transform="translate(-27.952 -42.963)" fill="#080808"/>
      <path id="Trazado_641637" data-name="Trazado 641637" d="M-160.779-239.54l-2.114-2c1.21-1.212,2.309-2.334,3.442-3.421a.678.678,0,0,1,.658-.041c.478.4.89.887,1.337,1.33.295.291.4.458-.014.829-1,.9-1.9,1.907-2.845,2.869C-160.442-239.845-160.579-239.726-160.779-239.54Z" transform="translate(-63.885 -43.1)" fill="#080808"/>
      <path id="Trazado_641638" data-name="Trazado 641638" d="M-229.9-170.084c-.772-.776-1.4-1.4-2-2.035-.049-.051.007-.279.082-.359q1.2-1.263,2.418-2.5c.232-.236.558-.409.713-.683.243-.429.489-.215.677-.046a20.568,20.568,0,0,1,1.467,1.475.552.552,0,0,1,.039.53C-227.608-172.493-228.739-171.309-229.9-170.084Z" transform="translate(-27.951 -79.102)" fill="#080808"/>
      <path id="Trazado_641639" data-name="Trazado 641639" d="M-158.981-170.49l-3.58-3.533c.472-.517.991-1.129,1.559-1.692.49-.487.812.045,1.088.308.7.667,1.341,1.4,2.018,2.091a6.7,6.7,0,0,1,.731.668.64.64,0,0,1-.016.609,17.344,17.344,0,0,1-1.338,1.35,3.185,3.185,0,0,1-.555.342Z" transform="translate(-64.058 -79.102)" fill="#080808"/>
      <path id="Trazado_641640" data-name="Trazado 641640" d="M-191.494-254.183H-194.3v-5.224h2.811Z" transform="translate(-47.532 -35.635)" fill="#030201"/>
      <path id="Trazado_641641" data-name="Trazado 641641" d="M-240.687-207.784v2.8h-5.238v-2.8Z" transform="translate(-20.659 -62.51)" fill="#080808"/>
      <path id="Trazado_641642" data-name="Trazado 641642" d="M-142.5-207.757v2.8h-5.236v-2.8Z" transform="translate(-71.778 -62.524)" fill="#030201"/>
      <path id="Trazado_641643" data-name="Trazado 641643" d="M-209.286-173.939c.079.117.226.234.226.352.008,2.758,0,5.517,0,8.275a3.09,3.09,0,0,1-.2-.762C-209.286-168.7-209.284-171.317-209.286-173.939Z" transform="translate(-39.733 -80.129)" fill="#9c9c9c"/>
      <path id="Trazado_641644" data-name="Trazado 641644" d="M-227.274-209.031v3.7c-.068-.123-.193-.245-.195-.368q-.02-1.477.008-2.954C-227.46-208.783-227.339-208.906-227.274-209.031Z" transform="translate(-30.263 -61.861)" fill="#9c9c9c"/>
      <path id="Trazado_641645" data-name="Trazado 641645" d="M-191.73-240.962l-2.428,0c.081-.066.161-.187.244-.189q.972-.025,1.944,0C-191.889-241.15-191.81-241.028-191.73-240.962Z" transform="translate(-47.609 -45.133)" fill="#bebebe"/>
      <path id="Trazado_641646" data-name="Trazado 641646" d="M-221.066-221.5a14.315,14.315,0,0,1,1.8-5.936,15.5,15.5,0,0,1,2.642-3.417,13.749,13.749,0,0,1,1.855-1.42c.724-.484,1.481-.921,2.245-1.342a4.779,4.779,0,0,1,1.105-.417,15.555,15.555,0,0,1,5.577-.662,13.931,13.931,0,0,1,5.173,1.4,15.168,15.168,0,0,1,2.585,1.631,16.836,16.836,0,0,1,2.127,2.034,15.543,15.543,0,0,1,1.781,2.587,11.576,11.576,0,0,1,.979,2.575c.244.929.327,1.9.48,2.851l0,2.2a12.84,12.84,0,0,1-1.762,5.965,17.16,17.16,0,0,1-1.942,2.594,11.174,11.174,0,0,1-3.789,2.936,1.887,1.887,0,0,0-1.122,2.083c.012.475,0,.951,0,1.454h-11.007c0-.611.021-1.234-.006-1.854a1.711,1.711,0,0,0-.641-1.405c-.528-.37-1.161-.6-1.67-.987-.918-.7-1.793-1.467-2.658-2.236a9.46,9.46,0,0,1-1.993-2.76,14.111,14.111,0,0,1-1.1-2.485c-.309-1.037-.447-2.125-.659-3.191Zm21.265,7.844-2.18-1.814c-.562.475-1.047.955-1.6,1.337a5.35,5.35,0,0,1-3.41.975,6.341,6.341,0,0,1-3.277-1.091,7.132,7.132,0,0,1-3.059-4.6,8.553,8.553,0,0,1,.061-3.365,6.877,6.877,0,0,1,2.21-3.725,6.359,6.359,0,0,1,2.448-1.4,6.055,6.055,0,0,1,3.487-.079,5.608,5.608,0,0,1,3.073,2.14l2.237-1.892.209-.3a3.8,3.8,0,0,1-.937-.5A8.54,8.54,0,0,0-203.821-230a14.1,14.1,0,0,0-2.226-.55,6.811,6.811,0,0,0-3.566.464,19.52,19.52,0,0,0-2.5,1.28,5.628,5.628,0,0,0-1.1.883,11.3,11.3,0,0,0-2.044,2.793,9.362,9.362,0,0,0-1.037,3.592,10.393,10.393,0,0,0,.654,5.078,10.186,10.186,0,0,0,1.652,2.729,8.38,8.38,0,0,0,2.92,2.319,14.834,14.834,0,0,0,3.015,1.062,7.982,7.982,0,0,0,5.041-.784A9.818,9.818,0,0,0-199.8-213.657Z" transform="translate(-33.601 -48.471)" fill="#fde98b"/>
      <path id="Trazado_641647" data-name="Trazado 641647" d="M-191.828-165.279c.01.213.025.4.025.586,0,.819,0,1.638,0,2.493h-10.942v-3.079Z" transform="translate(-43.139 -84.638)" fill="#748ba5"/>
      <path id="Trazado_641648" data-name="Trazado 641648" d="M-201.524-152.738h9.679c-.156,1.244-2.357,3.1-4.57,3.2C-199-149.427-201.306-151.287-201.524-152.738Z" transform="translate(-43.774 -91.166)" fill="#6e859d"/>
      <path id="Trazado_641649" data-name="Trazado 641649" d="M-161.942-205.152l0-2.2c.067.081.19.159.193.241q.023.861,0,1.722C-161.754-205.31-161.875-205.232-161.942-205.152Z" transform="translate(-64.38 -62.733)" fill="#4c462a"/>
      <path id="Trazado_641650" data-name="Trazado 641650" d="M-221.3-207.112l0,2.2c-.069-.1-.194-.2-.2-.3q-.032-.8,0-1.609C-221.493-206.918-221.367-207.014-221.3-207.112Z" transform="translate(-33.37 -62.86)" fill="#4b4629"/>
      <path id="Trazado_641651" data-name="Trazado 641651" d="M-131.188-288.485a8.727,8.727,0,0,1,8.663,8.653,8.809,8.809,0,0,1-8.725,8.755,8.883,8.883,0,0,1-8.7-8.7A8.815,8.815,0,0,1-131.188-288.485Zm-1.489,1.4c0,.456.024.859-.012,1.256-.014.151-.143.391-.258.417a3.229,3.229,0,0,0-2.127,1.673,3.326,3.326,0,0,0-.134,3.309,3.368,3.368,0,0,0,2.58,2.022c.693.111,1.418.006,2.12.078a.937.937,0,0,1,.652.464.618.618,0,0,1-.234.837,2.626,2.626,0,0,1-2.562-.314c-.059-.077-.142-.192-.215-.193-.891-.013-1.783-.009-2.668-.009a3.828,3.828,0,0,0,2.874,3.585v1.478h2.886V-274a3.55,3.55,0,0,0,2.759-2.686,3.583,3.583,0,0,0-.4-2.865,2.756,2.756,0,0,0-2.041-1.454c-.537-.069-1.071-.2-1.609-.218-1.227-.033-1.629-.193-1.607-.743.023-.58.418-.763,1.641-.763a.922.922,0,0,0,.115,0c.623-.082,1.048.136,1.144.772h2.986a2.989,2.989,0,0,1-.109-.357,3.423,3.423,0,0,0-2.638-3.113c-.116-.028-.243-.262-.255-.409-.035-.411-.012-.827-.012-1.251Z" transform="translate(-75.828 -20.495)" fill="#fcd68a"/>
      <path id="Trazado_641652" data-name="Trazado 641652" d="M-200.919-321.854a8.61,8.61,0,0,1,8.642,8.8,8.588,8.588,0,0,1-8.744,8.6,8.721,8.721,0,0,1-8.688-8.145A8.737,8.737,0,0,1-200.919-321.854Zm-1.452,1.518a8.169,8.169,0,0,1-.015,1.111c-.023.165-.186.414-.323.442a2.8,2.8,0,0,0-1.622.972,3.672,3.672,0,0,0-1.038,2.431,3.7,3.7,0,0,0,.99,2.529,3.143,3.143,0,0,0,2.4,1.119c.575,0,1.15,0,1.724.008a.7.7,0,0,1,.746.723.733.733,0,0,1-.758.767c-.364.011-.73-.018-1.092.009a.9.9,0,0,1-1.064-.671h-2.908a3.793,3.793,0,0,0,2.967,3.555v1.453h2.882v-1.291a18.5,18.5,0,0,0,1.912-1.369,3.366,3.366,0,0,0,.836-2.9,3.148,3.148,0,0,0-2.553-2.941c-.785-.1-1.576-.147-2.365-.221-.417-.039-.7-.221-.714-.685a.72.72,0,0,1,.714-.806,11.8,11.8,0,0,1,1.378.012,1.118,1.118,0,0,1,.538.293c.166.139.283.466.433.473.888.046,1.779.023,2.674.023a1.286,1.286,0,0,0,0-.246c-.014-.054-.072-.1-.079-.151a3.2,3.2,0,0,0-2.582-3.078c-.094-.021-.185-.267-.2-.414-.028-.376-.009-.755-.009-1.152Z" transform="translate(-39.506 -3.124)" fill="#fcd68a"/>
      <path id="Trazado_641653" data-name="Trazado 641653" d="M-279.359-279.791a8.794,8.794,0,0,1,8.73-8.734,8.786,8.786,0,0,1,8.668,8.666,8.789,8.789,0,0,1-8.721,8.763A8.774,8.774,0,0,1-279.359-279.791Zm13.157-2.176a3.191,3.191,0,0,1-.113-.343,3.448,3.448,0,0,0-2.631-3.129c-.128-.031-.256-.312-.274-.488a10.756,10.756,0,0,1-.013-1.157h-2.877a3.59,3.59,0,0,0,0,.556c.115.682-.158.978-.815,1.277a3.305,3.305,0,0,0-2.055,3.014,3.352,3.352,0,0,0,.533,2.109,3.47,3.47,0,0,0,2.85,1.743c.555.027,1.113-.015,1.667.017a.659.659,0,0,1,.689.706.673.673,0,0,1-.681.774c-.343.028-.691-.012-1.034.012a1,1,0,0,1-1.153-.56.345.345,0,0,0-.267-.128c-.858-.01-1.717-.006-2.568-.006-.191,1.443,1.062,3,2.858,3.6v1.424h2.865v-1.471a3.576,3.576,0,0,0,2.8-2.754,3.554,3.554,0,0,0-.321-2.568,2.9,2.9,0,0,0-2.005-1.66,22.325,22.325,0,0,0-2.47-.248c-.538-.038-.888-.287-.891-.707a.834.834,0,0,1,.92-.794c.307,0,.616.026.919-.006a.853.853,0,0,1,1.059.789Z" transform="translate(-3.252 -20.476)" fill="#fcd68a"/>
      <path id="Trazado_641654" data-name="Trazado 641654" d="M-194.694-209.172a9.818,9.818,0,0,1-3.216,2.523,7.982,7.982,0,0,1-5.041.784,14.833,14.833,0,0,1-3.015-1.062,8.38,8.38,0,0,1-2.92-2.319,10.186,10.186,0,0,1-1.652-2.729,10.393,10.393,0,0,1-.654-5.078,9.363,9.363,0,0,1,1.037-3.592,11.3,11.3,0,0,1,2.044-2.793,5.627,5.627,0,0,1,1.1-.883,19.518,19.518,0,0,1,2.5-1.28,6.811,6.811,0,0,1,3.566-.464,14.1,14.1,0,0,1,2.226.55,8.54,8.54,0,0,1,3.283,2.043,3.8,3.8,0,0,0,.937.5l-.209.3-2.237,1.892a5.608,5.608,0,0,0-3.073-2.14,6.055,6.055,0,0,0-3.487.079,6.358,6.358,0,0,0-2.448,1.4,6.877,6.877,0,0,0-2.21,3.725,8.553,8.553,0,0,0-.061,3.365,7.132,7.132,0,0,0,3.059,4.6,6.341,6.341,0,0,0,3.277,1.091,5.35,5.35,0,0,0,3.41-.975c.553-.382,1.038-.862,1.6-1.337Z" transform="translate(-38.708 -52.956)" fill="#030201"/>
      <path id="Trazado_641655" data-name="Trazado 641655" d="M-127.934-285.567h2.877c0,.423-.023.839.012,1.251.012.147.14.381.255.409a3.423,3.423,0,0,1,2.638,3.113,2.993,2.993,0,0,0,.109.357h-2.986c-.1-.637-.521-.854-1.144-.772a.922.922,0,0,1-.115,0c-1.223,0-1.618.184-1.641.763-.022.55.38.71,1.607.743.538.014,1.072.149,1.609.218a2.756,2.756,0,0,1,2.041,1.454,3.583,3.583,0,0,1,.4,2.865,3.55,3.55,0,0,1-2.759,2.686v1.515h-2.886v-1.478a3.828,3.828,0,0,1-2.874-3.586c.885,0,1.777,0,2.668.009.073,0,.157.116.215.193a2.626,2.626,0,0,0,2.562.314.618.618,0,0,0,.234-.837.936.936,0,0,0-.652-.464c-.7-.072-1.428.034-2.12-.078a3.368,3.368,0,0,1-2.58-2.022,3.326,3.326,0,0,1,.134-3.309,3.229,3.229,0,0,1,2.127-1.673c.115-.025.244-.266.258-.417C-127.91-284.708-127.934-285.111-127.934-285.567Z" transform="translate(-80.571 -22.017)" fill="#030201"/>
      <path id="Trazado_641656" data-name="Trazado 641656" d="M-197.643-318.684h2.877c0,.4-.019.776.009,1.152.011.147.1.393.2.414a3.2,3.2,0,0,1,2.582,3.078c.007.053.064.1.079.151a1.286,1.286,0,0,1,0,.246c-.9,0-1.786.023-2.674-.023-.151-.008-.267-.334-.433-.473a1.118,1.118,0,0,0-.538-.293,11.8,11.8,0,0,0-1.378-.012.72.72,0,0,0-.714.806c.013.463.3.646.714.685.789.074,1.58.121,2.365.221A3.148,3.148,0,0,1-192-309.791a3.366,3.366,0,0,1-.836,2.9,18.494,18.494,0,0,1-1.912,1.369v1.291h-2.882v-1.453a3.793,3.793,0,0,1-2.967-3.555h2.908a.9.9,0,0,0,1.064.671c.362-.027.728,0,1.092-.009a.733.733,0,0,0,.758-.767.7.7,0,0,0-.746-.723c-.575,0-1.15-.008-1.724-.008a3.143,3.143,0,0,1-2.4-1.119,3.7,3.7,0,0,1-.99-2.529,3.672,3.672,0,0,1,1.038-2.431,2.805,2.805,0,0,1,1.622-.972c.138-.029.3-.277.323-.442A8.169,8.169,0,0,0-197.643-318.684Z" transform="translate(-44.234 -4.776)" fill="#030201"/>
      <path id="Trazado_641657" data-name="Trazado 641657" d="M-261.445-280.4h-3a.853.853,0,0,0-1.059-.789c-.3.032-.613,0-.919.006a.834.834,0,0,0-.92.794c0,.42.353.669.891.707a22.333,22.333,0,0,1,2.47.248,2.905,2.905,0,0,1,2.005,1.66,3.554,3.554,0,0,1,.321,2.568,3.576,3.576,0,0,1-2.8,2.754v1.471h-2.865V-272.4c-1.8-.6-3.05-2.156-2.858-3.6.851,0,1.71,0,2.568.006a.345.345,0,0,1,.267.128,1,1,0,0,0,1.153.56c.343-.024.691.017,1.034-.012a.673.673,0,0,0,.681-.774.659.659,0,0,0-.689-.706c-.554-.032-1.113.011-1.667-.017a3.47,3.47,0,0,1-2.85-1.743,3.353,3.353,0,0,1-.533-2.109,3.305,3.305,0,0,1,2.055-3.014c.657-.3.931-.594.815-1.277a3.586,3.586,0,0,1,0-.556h2.877a10.756,10.756,0,0,0,.013,1.157c.018.176.147.456.274.488a3.448,3.448,0,0,1,2.631,3.129A3.191,3.191,0,0,0-261.445-280.4Z" transform="translate(-8.009 -22.043)" fill="#030201"/>
    </g>
  </g>
</svg>
