<svg xmlns="http://www.w3.org/2000/svg" width="134" height="134" viewBox="0 0 134 134">
  <g id="Grupo_909106" data-name="Grupo 909106" transform="translate(-904.798 -11961.803)">
    <circle id="Elipse_7478" data-name="Elipse 7478" cx="67" cy="67" r="67" transform="translate(904.798 11961.803)" fill="#179587"/>
    <g id="Grupo_907063" data-name="Grupo 907063" transform="translate(911.255 12303.771)">
      <path id="Trazado_641521" data-name="Trazado 641521" d="M76.821-304.761a5.735,5.735,0,0,1,4.737-.271,5.412,5.412,0,0,1,3.351,5.127c-.031,7.974-.012,15.949-.011,23.924v.816l.124.049c.5-.834,1.016-1.664,1.513-2.5.792-1.34,1.583-2.681,2.357-4.031.427-.745.785-1.53,1.232-2.262a28.275,28.275,0,0,1,2.335-3.58,5.418,5.418,0,0,1,5.629-1.245,6.007,6.007,0,0,1,3.378,3.63,3.808,3.808,0,0,1-.227,3.343c-.453.755-.762,1.6-1.195,2.366-.649,1.159-1.35,2.288-2.03,3.43-.039.065-.081.129-.118.2-.808,1.461-1.593,2.935-2.428,4.38-.7,1.218-1.477,2.393-2.186,3.607a2.158,2.158,0,0,0-.294.985c-.032,1.32-.073,2.644,0,3.96a6.716,6.716,0,0,1-.949,2.991c-.173.424-.464.8-.667,1.213-.8,1.638-1.573,3.291-2.386,4.923-.795,1.595-1.642,3.163-2.432,4.76a2.7,2.7,0,0,0-.277,1.148c-.019,4.521-.011,9.041-.013,13.562,0,1.284-.39,1.686-1.675,1.686q-13.179.006-26.359,0c-1.3,0-1.682-.387-1.683-1.669,0-3.784,0-7.568,0-11.439a7.4,7.4,0,0,0-.889.668c-2.572,2.629-5.145,5.257-7.691,7.912-1.015,1.059-1.951,2.194-2.947,3.273a7.68,7.68,0,0,1-1.131.982,1.251,1.251,0,0,1-1.682-.029c-.94-.877-1.8-1.833-2.716-2.741-.844-.841-1.716-1.654-2.561-2.493-.654-.649-1.286-1.32-1.928-1.981-.934-.959-1.878-1.908-2.8-2.877-.856-.9-1.669-1.843-2.539-2.729-1.233-1.257-2.562-2.425-3.735-3.734a27.515,27.515,0,0,1-2.639-3.506,21.272,21.272,0,0,1-2.053-3.848,15.923,15.923,0,0,1-.914-4.055c-.185-1.889-.18-3.8-.19-5.7-.024-4.292-.009-8.584-.007-12.876a1.631,1.631,0,0,1,1.352-1.856c2.385-.843,4.756-1.724,7.133-2.593q2-.732,4-1.475,2.352-.874,4.7-1.758,1.567-.593,3.125-1.213c.623-.248,1.234-.531,1.855-.783a2.443,2.443,0,0,1,2.119.3c1.082.522,2.274.816,3.407,1.239.641.238,1.258.538,2.021.869,0-1.683.01-3.216,0-4.747a5.66,5.66,0,0,1,.7-3.223,5.27,5.27,0,0,1,6.2-2.459c.385.1.758.247,1.28.419,0-1.5-.051-2.923.015-4.338a4.4,4.4,0,0,1,1.666-3c1.768-1.639,3.775-1.658,5.9-.914.093.032.183.074.276.105.021.007.049-.009.21-.043a32.441,32.441,0,0,1,.031-4.215,5.312,5.312,0,0,1,6.18-4.347,5.556,5.556,0,0,1,4.519,5.468C76.778-306.932,76.821-305.889,76.821-304.761Zm18.717,18.53c-.4.194-.949.282-1.161.6-.983,1.465-1.894,2.981-2.786,4.5-.769,1.313-1.461,2.672-2.216,3.994q-1.466,2.564-2.981,5.1a4.171,4.171,0,0,1-.978,1.359c-.94.648-1.986,1.143-2.988,1.7a6.343,6.343,0,0,0-.717.427c-.87.649-1.763,1.274-2.585,1.981-1.623,1.395-3.166,2.864-3.635,5.091-.039.185-.064.372-.092.536H72.725a7.652,7.652,0,0,1,.994-3.438,5.041,5.041,0,0,1,.829-1.433c.7-.8,1.484-1.534,2.242-2.284a16.965,16.965,0,0,1,4.339-3.139,1.627,1.627,0,0,0,1.035-1.614c-.035-7.087-.02-14.173-.02-21.26,0-1.956.032-3.912-.015-5.867a2.279,2.279,0,0,0-1.268-2.309c-2.277-1-4.04.124-4.041,2.6q0,10.9,0,21.793v.766H74.078v-.894q0-14.821-.01-29.642a5.542,5.542,0,0,0-.215-1.569,2.782,2.782,0,0,0-3.064-1.552,2.869,2.869,0,0,0-2.06,3.129c.028,9.906.015,19.812.015,29.717v.882H66v.664c0,4.242-.013,8.483.005,12.726a17.2,17.2,0,0,1-1.348,7.147,29.455,29.455,0,0,1-1.908,3.742,35.638,35.638,0,0,1-2.263,2.847c-.564.72-1.268,1.261-1.234,2.423.112,3.832.043,7.669.043,11.5v.846c1.61,0,3.13,0,4.65,0l16.836-.025h2.744v-.9c0-4.061-.01-8.122.013-12.183a3.455,3.455,0,0,1,.31-1.458c.689-1.406,1.477-2.762,2.183-4.159.768-1.519,1.484-3.064,2.226-4.594.15-.309.333-.6.478-.912.632-1.355,1.564-2.593,1.5-4.209-.047-1.242-.014-2.487-.005-3.731a1.411,1.411,0,0,1,.1-.659c.6-1.058,1.24-2.1,1.856-3.146.983-1.677,1.969-3.353,2.933-5.041.818-1.435,1.6-2.891,2.411-4.331a8.914,8.914,0,0,1,.747-1.181,3.216,3.216,0,0,0,.256-3.438A2.56,2.56,0,0,0,95.538-286.231ZM42.995-235.759c.961-.957,1.864-1.844,2.754-2.744.821-.831,1.629-1.675,2.443-2.513.681-.7,1.371-1.392,2.04-2.1.787-.837,1.538-1.71,2.338-2.533.695-.715,1.458-1.362,2.153-2.076.784-.8,1.526-1.651,2.286-2.478a35.066,35.066,0,0,0,2.8-3.1,17.082,17.082,0,0,0,2.338-4.073,17.017,17.017,0,0,0,1.042-5.183c.136-5.253.064-10.512.045-15.768a.866.866,0,0,0-.445-.635q-2.631-1.1-5.3-2.123c-1.5-.578-3.012-1.124-4.521-1.675-2.056-.751-4.118-1.487-6.171-2.244-.558-.206-1.078-.526-1.645-.693-1.058-.311-2.08-1.032-3.261-.335a9.284,9.284,0,0,1-1.492.675c-2,.742-4.016,1.466-6.027,2.193-.451.163-.916.289-1.364.461-1.868.715-3.728,1.448-5.6,2.16-1.566.6-3.138,1.174-4.545,1.7,0,5.524-.069,10.9.032,16.27a15.65,15.65,0,0,0,1.64,6.527,23.294,23.294,0,0,0,4.328,5.721c1.19,1.274,2.5,2.435,3.72,3.685,1.235,1.27,2.406,2.6,3.636,3.877.815.845,1.712,1.611,2.524,2.459C40.138-238.868,41.485-237.385,42.995-235.759Zm23-44.647c0-6.55.013-13.1-.022-19.649a3.04,3.04,0,0,0-.514-1.625,2.8,2.8,0,0,0-3.025-.844,2.293,2.293,0,0,0-1.751,2.446c-.042,5.611-.023,11.222,0,16.832a.806.806,0,0,0,.365.615c.865.383,1.763.692,2.642,1.044C64.478-281.269,65.424-281.238,66-280.406ZM57.92-283.7c0-2.883.025-5.625-.01-8.365a2.668,2.668,0,0,0-2.686-2.529,2.726,2.726,0,0,0-2.762,2.522c-.083,1.926-.03,3.859-.013,5.789a.66.66,0,0,0,.259.515C54.406-285.069,56.118-284.406,57.92-283.7Z" fill="#020201"/>
      <path id="Trazado_641522" data-name="Trazado 641522" d="M29.421-294.419c-.333-.283-.681-.55-.991-.856a1.16,1.16,0,0,1-.216-.479c-.444-1.406-.974-2.793-1.287-4.227a1.941,1.941,0,0,0-1.578-1.521c-1.328-.406-2.671-.764-4.012-1.125a1.567,1.567,0,0,1-1.2-1.427c0-.757.359-1.143,1.154-1.373,1.68-.486,3.352-1,5.019-1.531a.706.706,0,0,0,.364-.425c.527-1.693,1.036-3.392,1.541-5.091a1.237,1.237,0,0,1,1.346-.992,1.411,1.411,0,0,1,1.395,1.051c.362,1.261.724,2.524,1.038,3.8a2.372,2.372,0,0,0,2.085,2.037,27.821,27.821,0,0,1,3.856,1.206c.624.209,1.14.525,1.1,1.322a1.483,1.483,0,0,1-1.158,1.375c-1.248.413-2.515.789-3.8,1.075a2.454,2.454,0,0,0-2.078,2.068c-.274,1.259-.675,2.491-1.045,3.729A1.9,1.9,0,0,1,29.421-294.419Zm.1-6.225c.357-.968.446-1.929.973-2.442a7.556,7.556,0,0,1,2.491-1.006c-1.917-.324-3.248-1.133-3.322-3.223a9.584,9.584,0,0,1-1.12,2.2,7.517,7.517,0,0,1-2.133,1.078C28.367-303.867,29.169-302.552,29.522-300.645Z" transform="translate(-0.004 -0.01)" fill="#050504"/>
      <path id="Trazado_641523" data-name="Trazado 641523" d="M53.986-289.57v-2.7h2.72v2.7l.022-.021H53.964Z" transform="translate(-12.357 -7.75)" fill="#020201"/>
      <path id="Trazado_641524" data-name="Trazado 641524" d="M130.561-289.57v-2.7h2.721v2.7l.022-.021h-2.764Z" transform="translate(-40.318 -7.75)" fill="#020201"/>
      <path id="Trazado_641525" data-name="Trazado 641525" d="M141.923-305.1v2.7H139.2v-2.7l-.022.021h2.764Z" transform="translate(-43.474 -3.067)" fill="#020201"/>
      <path id="Trazado_641526" data-name="Trazado 641526" d="M134.859-288.029h2.7v2.722h-2.7l.021.022v-2.765Z" transform="translate(-41.896 -9.291)" fill="#020201"/>
      <path id="Trazado_641527" data-name="Trazado 641527" d="M137.662-306.673h-2.7v-2.722h2.7l-.021-.022v2.765Z" transform="translate(-41.933 -1.489)" fill="#020201"/>
      <path id="Trazado_641528" data-name="Trazado 641528" d="M73.168-309.395h2.7v2.721h-2.7l.021.022v-2.765Z" transform="translate(-19.369 -1.489)" fill="#020201"/>
      <path id="Trazado_641529" data-name="Trazado 641529" d="M67.566-306.674h-2.7v-2.721h2.7l-.02-.022v2.765Z" transform="translate(-16.338 -1.489)" fill="#020201"/>
      <path id="Trazado_641530" data-name="Trazado 641530" d="M58.283-288.029h2.7v2.722h-2.7l.021.022v-2.765Z" transform="translate(-13.934 -9.291)" fill="#020201"/>
      <path id="Trazado_641531" data-name="Trazado 641531" d="M52.531-285.307H49.983v-2.722h2.549l-.022-.021v2.765Z" transform="translate(-10.903 -9.291)" fill="#020201"/>
      <path id="Trazado_641532" data-name="Trazado 641532" d="M129.107-285.307h-2.548v-2.722h2.548l-.022-.021v2.765Z" transform="translate(-38.865 -9.291)" fill="#020201"/>
      <path id="Trazado_641533" data-name="Trazado 641533" d="M56.707-283.73v2.549H53.984v-2.549l-.02.022h2.764Z" transform="translate(-12.357 -10.868)" fill="#020201"/>
      <path id="Trazado_641534" data-name="Trazado 641534" d="M71.678-305.1v2.7H69.107v-2.7l-.02.022H71.7Z" transform="translate(-17.879 -3.067)" fill="#020201"/>
      <path id="Trazado_641535" data-name="Trazado 641535" d="M133.282-283.73v2.549H130.56v-2.549l-.021.022H133.3Z" transform="translate(-40.318 -10.868)" fill="#020201"/>
      <path id="Trazado_641536" data-name="Trazado 641536" d="M143.5-309.395h2.548v2.722H143.5l.022.021v-2.765Z" transform="translate(-45.051 -1.489)" fill="#020201"/>
      <path id="Trazado_641537" data-name="Trazado 641537" d="M139.2-310.848V-313.4h2.722v2.549l.021-.022h-2.764Z" transform="translate(-43.474 -0.036)" fill="#020201"/>
      <path id="Trazado_641538" data-name="Trazado 641538" d="M69.107-310.848V-313.4h2.571v2.549l.021-.022H69.087Z" transform="translate(-17.879 -0.036)" fill="#020201"/>
      <path id="Trazado_641539" data-name="Trazado 641539" d="M103.287-233.652l-16.836.025c-1.52,0-3.04,0-4.65,0v-.846c0-3.836.07-7.673-.043-11.5-.034-1.162.67-1.7,1.234-2.423a35.64,35.64,0,0,0,2.263-2.847,29.461,29.461,0,0,0,1.908-3.742,17.2,17.2,0,0,0,1.348-7.147c-.018-4.242-.005-8.484-.005-12.726v-.664h2.743v-.882c0-9.906.013-19.812-.015-29.717a2.869,2.869,0,0,1,2.06-3.129,2.782,2.782,0,0,1,3.064,1.552,5.541,5.541,0,0,1,.215,1.569q.019,14.821.01,29.642v.894h2.743v-.766q0-10.9,0-21.793c0-2.479,1.764-3.607,4.041-2.6a2.279,2.279,0,0,1,1.268,2.309c.047,1.955.015,3.911.015,5.867,0,7.087-.015,14.173.02,21.26a1.627,1.627,0,0,1-1.035,1.614,16.962,16.962,0,0,0-4.339,3.139c-.759.75-1.54,1.484-2.242,2.284a5.041,5.041,0,0,0-.829,1.433,7.652,7.652,0,0,0-.994,3.438h2.675c.028-.164.053-.352.092-.536.469-2.226,2.012-3.7,3.635-5.091.822-.707,1.715-1.331,2.585-1.981a6.332,6.332,0,0,1,.717-.427c1-.561,2.047-1.056,2.988-1.7a4.171,4.171,0,0,0,.978-1.359q1.51-2.538,2.981-5.1c.755-1.322,1.447-2.68,2.216-3.994.892-1.524,1.8-3.04,2.786-4.5.212-.317.765-.405,1.161-.6.655,1.536,1.022,3.085.145,4.665q-.823,1.481-1.676,2.945c-.934,1.611-1.882,3.214-2.819,4.824-.579.995-1.148,2-1.719,2.995-.262.456-.491.935-.786,1.369A4.458,4.458,0,0,0,110.14-265a15.085,15.085,0,0,1,.006,1.6c-.032,1.44.163,2.852-.792,4.206a27.666,27.666,0,0,0-2.044,4.118c-.218.456-.4.93-.625,1.383-.938,1.89-1.806,3.822-2.864,5.643a5.332,5.332,0,0,0-.529,2.9Q103.283-239.4,103.287-233.652Z" transform="translate(-22.505 -1.519)" fill="#fec172"/>
      <path id="Trazado_641540" data-name="Trazado 641540" d="M44.563-220.138c-1.51-1.626-2.857-3.109-4.243-4.556-.811-.848-1.708-1.614-2.524-2.459-1.23-1.275-2.4-2.607-3.636-3.877-1.218-1.25-2.529-2.411-3.72-3.685a23.294,23.294,0,0,1-4.328-5.721,15.651,15.651,0,0,1-1.64-6.528c-.1-5.371-.032-10.745-.032-16.27,1.407-.524,2.979-1.1,4.545-1.7,1.869-.712,3.73-1.445,5.6-2.16.448-.171.913-.3,1.364-.461,2.011-.726,4.022-1.451,6.027-2.193a9.278,9.278,0,0,0,1.492-.675c1.181-.7,2.2.024,3.261.335.567.167,1.087.486,1.645.693,2.053.757,4.114,1.493,6.171,2.244,1.509.551,3.021,1.1,4.521,1.675q2.662,1.027,5.3,2.123a.866.866,0,0,1,.445.635c.019,5.257.091,10.515-.045,15.768a17.017,17.017,0,0,1-1.042,5.183,17.082,17.082,0,0,1-2.338,4.073,35.063,35.063,0,0,1-2.8,3.1c-.76.828-1.5,1.673-2.286,2.478-.7.714-1.459,1.361-2.153,2.076-.8.823-1.551,1.7-2.338,2.533-.669.712-1.359,1.4-2.04,2.1-.814.838-1.621,1.682-2.443,2.513C46.427-221.982,45.524-221.094,44.563-220.138ZM27.032-253.472c0,1.067-.006,2.133,0,3.2.017,2.367-.078,4.722.852,7.013a18.928,18.928,0,0,0,2.1,3.981,8.641,8.641,0,0,0,.8.974c.856.886,1.729,1.756,2.6,2.63q1.074,1.082,2.151,2.16c.87.872,1.746,1.738,2.607,2.617.644.658,1.258,1.346,1.9,2,.961.979,2,1.89,2.892,2.928,1.011,1.175,2.1,1.241,3.139.115,1.136-1.227,2.321-2.409,3.5-3.59,1.456-1.454,2.943-2.878,4.4-4.333,1.129-1.129,2.153-2.378,3.363-3.41a14.532,14.532,0,0,0,3.386-4.466,14.39,14.39,0,0,0,1.475-6.218c.121-3.984.043-7.974.031-11.961a1.622,1.622,0,0,0-.978-1.548c-.745-.352-1.493-.7-2.252-1.019q-3.743-1.574-7.5-3.122c-2.029-.832-4.059-1.665-6.115-2.423a2.323,2.323,0,0,0-1.521.015c-2.284.9-4.535,1.889-6.8,2.838-1.459.611-2.923,1.209-4.387,1.81q-2.229.915-4.462,1.822c-1.086.443-1.181.574-1.183,1.734Q27.028-256.6,27.032-253.472Z" transform="translate(-1.568 -15.622)" fill="#87868e"/>
      <path id="Trazado_641541" data-name="Trazado 641541" d="M115.671-219.562q0-5.749,0-11.5a5.332,5.332,0,0,1,.529-2.9c1.058-1.821,1.926-3.753,2.864-5.643.225-.453.406-.927.625-1.383a27.665,27.665,0,0,1,2.044-4.118c.955-1.353.76-2.766.792-4.206a15.082,15.082,0,0,0-.006-1.6,4.459,4.459,0,0,1,1.048-2.915c.295-.434.524-.913.786-1.369.571-1,1.14-2,1.719-2.995.936-1.61,1.884-3.214,2.819-4.824q.85-1.466,1.676-2.945c.877-1.58.51-3.129-.145-4.665a2.56,2.56,0,0,1,3.005,1.115,3.216,3.216,0,0,1-.256,3.438,8.91,8.91,0,0,0-.747,1.181c-.809,1.44-1.593,2.9-2.411,4.331-.964,1.689-1.95,3.364-2.933,5.041-.616,1.05-1.254,2.088-1.856,3.146a1.411,1.411,0,0,0-.1.659c-.009,1.244-.042,2.489.005,3.731.061,1.616-.871,2.854-1.5,4.209-.145.31-.328.6-.478.912-.743,1.531-1.459,3.075-2.226,4.594-.706,1.4-1.494,2.753-2.183,4.159a3.455,3.455,0,0,0-.31,1.458c-.023,4.06-.013,8.122-.013,12.183v.9Z" transform="translate(-34.889 -15.609)" fill="#fda633"/>
      <path id="Trazado_641542" data-name="Trazado 641542" d="M89.315-274.17c-.575-.832-1.52-.863-2.309-1.179-.879-.352-1.776-.661-2.642-1.044a.806.806,0,0,1-.365-.615c-.02-5.611-.039-11.222,0-16.832a2.293,2.293,0,0,1,1.751-2.446,2.8,2.8,0,0,1,3.025.844,3.041,3.041,0,0,1,.514,1.625C89.328-287.269,89.315-280.72,89.315-274.17Z" transform="translate(-23.316 -6.237)" fill="#fdc376"/>
      <path id="Trazado_641543" data-name="Trazado 641543" d="M76.495-272.825c-1.8-.709-3.514-1.373-5.211-2.068a.66.66,0,0,1-.259-.515c-.018-1.93-.07-3.862.013-5.789A2.726,2.726,0,0,1,73.8-283.72a2.668,2.668,0,0,1,2.686,2.529C76.519-278.45,76.495-275.708,76.495-272.825Z" transform="translate(-18.574 -10.872)" fill="#fdc376"/>
      <path id="Trazado_641544" data-name="Trazado 641544" d="M33.131-297.106c-.354-1.907-1.155-3.222-3.111-3.4a7.518,7.518,0,0,0,2.133-1.078,9.585,9.585,0,0,0,1.12-2.2c.074,2.091,1.4,2.9,3.322,3.223a7.556,7.556,0,0,0-2.491,1.006C33.578-299.035,33.488-298.073,33.131-297.106Z" transform="translate(-3.614 -3.548)" fill="#f6c500"/>
      <circle id="Elipse_7479" data-name="Elipse 7479" cx="1.955" cy="1.955" r="1.955" transform="translate(41.034 -297.913)" fill="#fefefe"/>
      <circle id="Elipse_7480" data-name="Elipse 7480" cx="1.955" cy="1.955" r="1.955" transform="translate(89.648 -297.913)" fill="#fefefe"/>
      <circle id="Elipse_7481" data-name="Elipse 7481" cx="1.955" cy="1.955" r="1.955" transform="translate(95.134 -311.478)" fill="#fefefe"/>
      <ellipse id="Elipse_7482" data-name="Elipse 7482" cx="1.847" cy="1.955" rx="1.847" ry="1.955" transform="translate(50.667 -311.478)" fill="#fefefe"/>
      <path id="Trazado_641545" data-name="Trazado 641545" d="M28.534-251.946q0-3.124,0-6.248c0-1.16.1-1.291,1.183-1.734q2.231-.91,4.462-1.822c1.463-.6,2.928-1.2,4.387-1.81,2.265-.949,4.516-1.937,6.8-2.838a2.322,2.322,0,0,1,1.521-.015c2.057.758,4.087,1.591,6.116,2.423q3.758,1.539,7.5,3.122c.759.319,1.507.667,2.252,1.019a1.622,1.622,0,0,1,.978,1.548c.011,3.987.09,7.978-.031,11.961a14.39,14.39,0,0,1-1.475,6.218,14.532,14.532,0,0,1-3.386,4.466c-1.21,1.032-2.233,2.28-3.363,3.41-1.454,1.456-2.941,2.88-4.4,4.333-1.183,1.181-2.369,2.363-3.5,3.59-1.042,1.126-2.129,1.06-3.139-.115-.892-1.038-1.931-1.949-2.892-2.928-.645-.657-1.26-1.345-1.9-2-.861-.88-1.737-1.746-2.607-2.617q-1.075-1.08-2.151-2.16c-.867-.874-1.74-1.744-2.6-2.63a8.644,8.644,0,0,1-.8-.975,18.928,18.928,0,0,1-2.1-3.981c-.93-2.291-.835-4.645-.852-7.013C28.527-249.813,28.534-250.88,28.534-251.946Zm16.877-11.5-3.456,1.407c-1.274.518-2.548,1.032-3.821,1.553-1.76.72-3.518,1.447-5.281,2.164-.511.208-1.032.389-1.55.582,0,4.069-.05,8.106.033,12.14a9.219,9.219,0,0,0,.716,3.32,12.819,12.819,0,0,0,3.49,4.931c1.47,1.248,2.7,2.772,4.068,4.149.769.775,1.6,1.483,2.381,2.251.81.8,1.586,1.637,2.376,2.457.443.463.915.9,1.32,1.4a.5.5,0,0,0,.826.036c.725-.686,1.425-1.4,2.119-2.12.778-.8,1.521-1.643,2.313-2.433.755-.754,1.573-1.447,2.327-2.2s1.463-1.556,2.195-2.334c1.037-1.1,2.131-2.158,3.1-3.315a9.14,9.14,0,0,0,2.273-5.52c.158-4.133.116-8.273.13-12.411a.735.735,0,0,0-.413-.506c-1.88-.775-3.77-1.522-5.66-2.271-.353-.14-.726-.232-1.072-.387-1.449-.648-2.881-1.336-4.341-1.96-.949-.405-1.971-.652-2.892-1.109A.879.879,0,0,0,45.41-263.445Z" transform="translate(-3.07 -17.147)" fill="#020201"/>
      <path id="Trazado_641546" data-name="Trazado 641546" d="M45.955-226.713c-.79-.821-1.566-1.657-2.376-2.458-.776-.768-1.613-1.476-2.381-2.251-1.364-1.377-2.6-2.9-4.068-4.149a12.819,12.819,0,0,1-3.49-4.932,9.219,9.219,0,0,1-.716-3.32c-.083-4.034-.033-8.07-.033-12.14.517-.193,1.039-.374,1.55-.581,1.762-.717,3.52-1.444,5.281-2.164,1.272-.521,2.547-1.035,3.821-1.553L47-261.667c.288.146.568.312.866.436.606.251,1.229.462,1.83.723,1.442.627,2.868,1.293,4.315,1.907.9.383,1.858.656,2.753,1.06,1.715.773,1.718.8,1.7,2.673-.011,1.105-.074,2.211-.114,3.316a1.75,1.75,0,0,0-.5.241q-2.194,2.167-4.363,4.358c-.8.814-1.548,1.68-2.357,2.487-.843.843-1.75,1.623-2.586,2.473a4.04,4.04,0,0,0-.562.915l-4.116-3.812c-.461.428-.987.914-1.508,1.4-.31.291-.321.547.01.872,1.487,1.456,2.948,2.941,4.431,4.4a1.407,1.407,0,0,0,2.059-.24c.682-.776,1.467-1.462,2.2-2.192.833-.827,1.668-1.653,2.489-2.492.692-.709,1.351-1.45,2.049-2.153.939-.948,1.9-1.873,2.853-2.807.037,3.252.208,6.5-1.482,9.511a16.01,16.01,0,0,1-2.9,3.715c-.869.838-1.71,1.706-2.555,2.57-.648.661-1.268,1.349-1.923,2C48.388-229.1,47.168-227.908,45.955-226.713Z" transform="translate(-4.656 -18.925)" fill="#fde8aa"/>
      <path id="Trazado_641547" data-name="Trazado 641547" d="M65.87-251.743c.04-1.105.1-2.211.114-3.316.019-1.876.016-1.9-1.7-2.673-.895-.4-1.848-.676-2.753-1.06-1.447-.615-2.873-1.28-4.315-1.907-.6-.262-1.225-.472-1.83-.723-.3-.124-.578-.29-.866-.436a.878.878,0,0,1,1.187-.18c.921.457,1.943.7,2.892,1.109,1.46.623,2.892,1.312,4.341,1.96.346.154.719.247,1.072.387,1.89.749,3.781,1.5,5.66,2.271a.735.735,0,0,1,.413.506c-.014,4.137.028,8.278-.13,12.411a9.14,9.14,0,0,1-2.273,5.52c-.972,1.157-2.065,2.212-3.1,3.315-.731.778-1.44,1.579-2.195,2.334s-1.572,1.448-2.327,2.2c-.792.79-1.535,1.629-2.313,2.433-.695.719-1.394,1.434-2.119,2.12a.5.5,0,0,1-.826-.036c-.405-.495-.877-.934-1.32-1.4,1.213-1.195,2.433-2.383,3.637-3.587.655-.655,1.275-1.342,1.923-2,.845-.864,1.686-1.732,2.555-2.57a16.01,16.01,0,0,0,2.9-3.714c1.69-3.008,1.519-6.26,1.482-9.511l1.649-1.618Z" transform="translate(-12.179 -18.735)" fill="#fddc55"/>
      <path id="Trazado_641548" data-name="Trazado 641548" d="M63.666-245.735l1.753,1.835-1.649,1.618c-.952.935-1.914,1.859-2.853,2.807-.7.7-1.357,1.444-2.049,2.153-.82.84-1.656,1.665-2.489,2.492-.735.73-1.52,1.416-2.2,2.192a1.407,1.407,0,0,1-2.059.24c-1.483-1.461-2.943-2.946-4.431-4.4-.331-.324-.32-.58-.01-.872.521-.489,1.047-.974,1.508-1.4l4.116,3.812a4.04,4.04,0,0,1,.562-.915c.836-.85,1.743-1.63,2.586-2.473.808-.806,1.556-1.673,2.357-2.487q2.163-2.2,4.363-4.358A1.749,1.749,0,0,1,63.666-245.735Z" transform="translate(-9.975 -24.742)" fill="#050504"/>
    </g>
  </g>
</svg>
