<svg xmlns="http://www.w3.org/2000/svg" width="291.249" height="318.408" viewBox="0 0 291.249 318.408">
  <g id="Grupo_904009" data-name="Grupo 904009" transform="translate(432.976 -1042.221)">
    <path id="Trazado_632725" data-name="Trazado 632725" d="M-420.836,1085.7c9.4,8.346,14.44,18.639,13.668,31.372a37.282,37.282,0,0,1-1.659,8.942c-1.057,3.333-1.224,6.365.661,9.415a12.763,12.763,0,0,1,1.142,2.821c1.283,3.988,3.507,6.339,7.707,8.312,5.189,2.442,9.256,7.275,13.807,11.074-2.541,2.263-2.973,10.935-.715,14.388-.97-.749-2.007-1.424-2.9-2.258-4.118-3.855-8.157-7.8-12.3-11.622-2.626-2.422-7.707-2.8-9.706-.885-1.783,1.707-1.3,5.042,1.232,8.275.483.619,1.054,1.167,1.583,1.752,7.781,8.62,15.6,17.215,23.328,25.88,2.445,2.739,2.306,6.783-.079,8.838-2.286,1.97-5.882,1.506-8.388-1.252-8.42-9.262-16.91-18.465-25.1-27.93a22.971,22.971,0,0,1-4.508-8.589c-1.518-5.39-.786-10.986,3.666-14.624,3.23-2.64,3.213-4.708,1.56-7.843-3.12-5.918-4.265-12.083-1.931-18.605,3.149-8.8.93-16.78-3.784-24.369l-.893-14.519Z" transform="translate(15.581 76.796)" fill="#2763ad"/>
    <path id="Trazado_632726" data-name="Trazado 632726" d="M-405.255,1089.415l-3.609-1.425c.314,5.116.6,9.819.893,14.519-2.685-2.586-5.373-5.169-8.668-8.34-.8,4.112-1.523,7.054-1.925,10.042a306.668,306.668,0,0,0-.743,76.254,19.373,19.373,0,0,0,6.167,12.4c4.593,4.313,9.022,8.8,13.521,13.207l-7.925-5.785.961,14.174c-4.364-4.053-8.567-8.3-13.131-12.116-7.453-6.235-10.483-14.3-11.254-23.724-1.309-15.991-2.894-31.983-1.408-48.016,1.235-13.352,2.874-26.678,4.76-39.956,1.06-7.47,7.948-10.556,14.49-6.84A90.4,90.4,0,0,1-405.255,1089.415Z" transform="translate(0 73.076)" fill="#2d67af"/>
    <path id="Trazado_632727" data-name="Trazado 632727" d="M-365.8,1186.607c-4.381.136-8.759.333-13.14.393-4.856.068-9.714.059-14.57,0-8.2-.1-11.808-3.728-11.817-11.808-.011-14.575.065-29.151-.1-43.723a7.715,7.715,0,0,0-2.1-4.935c-3.589-3.525-5.455-7.383-5.316-12.591.291-10.952.051-21.918.107-32.876.045-8.649,5.921-14.954,14.479-15.109,11.52-.212,23.046-.068,34.569-.048a8.9,8.9,0,0,1,1.942.444q-6.512.077-13.027.158c-3.934-.026-7.868-.071-11.806-.076-7.6-.012-7.51-.006-7.264,7.609.071,2.187.97,2.617,2.871,2.583,5.4-.09,10.794-.051,16.192-.062,2.137.011,4.285-.093,6.413.065,1.908.141,3.8.568,5.695.87-11.283-.065-22.565-.15-33.851-.189-4.16-.011-4.822.7-4.827,5.031-.017,10.045.082,20.1-.065,30.14-.042,2.7.588,4.745,2.665,6.515,3.68,3.135,4.991,7.165,4.918,12.04-.2,13.544-.071,27.093-.071,40.639v3.734h25.759l-6.639.97c-4.16-.009-8.324-.026-12.484-.026-7.6-.005-7.538-.005-7.244,7.623.074,1.857.611,2.609,2.535,2.572,5.732-.11,11.469-.091,17.2-.122Z" transform="translate(36.771 43.139)" fill="#225fa9"/>
    <path id="Trazado_632728" data-name="Trazado 632728" d="M-423.017,1138.178l-.961-14.174,7.925,5.785c6.283,5.966,12.625,11.87,18.82,17.927,3.5,3.42,6.749,7.091,10.113,10.647-.415,1.235-1.153,2.459-1.193,3.705-.144,4.61.045,9.228-.1,13.838-.073,2.314.876,2.826,2.985,2.812,13.275-.085,26.55-.065,39.826-.08,3.03.014,6.062-.059,9.087.065,2.628.1,5.248.43,7.871.656q.017,9.857.028,19.711c-.986.447-1.961,1.255-2.959,1.283-4.9.144-9.8.082-14.705.094q-17.933-.017-35.866-.034c-7.117-.005-7.035,0-6.95,7.289.025,2.2.687,2.928,2.905,2.908,13.309-.107,26.618-.1,39.927-.124q9.14,0,18.286-.006l5.579.2a25.592,25.592,0,0,1-3.612.506q-35.917.025-71.834-.022c-6.583-.009-8.369-1.834-8.372-8.493q0-13.049,0-26.1c0-7.035,1.444-8.533,8.374-8.756.65-.023,1.3-.15,2.979-.353-1.4-2.049-2.247-3.832-3.57-5.127-7.654-7.5-15.423-14.875-23.136-22.311A16.6,16.6,0,0,1-423.017,1138.178Zm28.537,61.252h65v-19.88h-65Z" transform="translate(16.434 149.36)" fill="#2762ac"/>
    <path id="Trazado_632729" data-name="Trazado 632729" d="M-334.062,1082.348c4.827,1.238,7.357,4.519,8.25,9.264,5.74,30.564,6.15,61.266,2.391,92.073a23.953,23.953,0,0,1-8.035,15.417c-.421-1.812-1.187-3.62-1.212-5.438-.144-10.678-.116-21.361-.147-32.039.034-2.473.181-4.952.076-7.422q-1-23.944-2.089-47.883Q-334.447,1094.332-334.062,1082.348Z" transform="translate(179.25 73.284)" fill="#29313e"/>
    <path id="Trazado_632730" data-name="Trazado 632730" d="M-399.373,1176.88q3.319-.483,6.639-.969c.014-14.895.2-29.789-.045-44.678a14.655,14.655,0,0,1,6.116-12.784c.509-1,1.456-1.993,1.464-3q.157-17.225,0-34.456c-.006-.836-.913-1.665-1.4-2.5l-.667-.5c-1.9-.3-3.787-.729-5.695-.87-2.128-.158-4.276-.054-6.413-.065q0-5.028.006-10.053,6.512-.08,13.026-.158l2.648-1.286c.424,1.128,1.207,2.253,1.213,3.38.076,18.309.054,36.615.054,54.921v3.516l3.392.622c-2.931.076-2.253,2.326-2.258,3.971-.045,14.655,0,29.312-.042,43.969-.02,6.761-3.044,10.4-9.067,11.161l-8.962-.178Q-399.366,1181.906-399.373,1176.88Z" transform="translate(61.37 42.638)" fill="#1f59a4"/>
    <path id="Trazado_632731" data-name="Trazado 632731" d="M-389.166,1133.739l-3.392-.622V1129.6c0-18.306.023-36.612-.054-54.921-.006-1.128-.789-2.252-1.213-3.38,2.422-5.229,6.616-8.405,12.235-8.671,8.3-.4,16.624-.082,24.939-.071q-6.419.309-12.837.622c-3.482-.006-6.967-.11-10.44.056-.831.04-2.306.972-2.309,1.5-.011,3.1.325,6.2.546,9.3-.907,1.919-2.561,3.819-2.6,5.755-.249,11.483.011,22.975-.189,34.456-.082,4.8-.17,9.366,4.042,12.693-.421,1.419-1.2,2.832-1.21,4.251q-.11,36.527-.051,73.052c-4.435-2.332-5.248-6.416-5.248-10.884,0-17.628-.048-35.256.048-52.883C-386.888,1137.865-387.2,1135.582-389.166,1133.739Z" transform="translate(71.504 36.906)" fill="#1e569f"/>
    <path id="Trazado_632732" data-name="Trazado 632732" d="M-367.658,1063.272l3.16.848c-.447,4.994-1.213,9.986-1.28,14.988-.178,13.513-.147,27.028-.014,40.544.045,4.872.616,9.739.961,14.841l2.911-1.286c-2.182,1.984-2.513,4.469-2.5,7.321.11,17.856.082,35.713.034,53.57-.017,6.424-3.375,10.313-9.395,11.175-.288-.071-.579-.141-.868-.209-.229-10.347-.557-20.695-.656-31.042-.127-13.193-.068-26.389-.09-39.583.37-4.983,3.782-7.9,7.3-10.757.526-.978,1.506-1.956,1.515-2.937.1-14.276.082-28.551.025-42.827a7.012,7.012,0,0,0-.9-2.292q-1.615-1.124-3.225-2.245l-1.942-.6V1062.7Z" transform="translate(105.169 37.391)" fill="#244b7f"/>
    <path id="Trazado_632733" data-name="Trazado 632733" d="M-331.606,1186.635c-4.254.127-8.51.317-12.766.362q-7.775.089-15.553-.034c-3.7-.062-7.216-.672-9.225-4.375.02-2.329.054-4.655.054-6.981q.008-52.642.042-105.278a19,19,0,0,1,.9-4.053q19.51-.22,39.02-.421a6.179,6.179,0,0,1,1.591.418q-5.168.118-10.333.235h-8.81l-9.5-.009c-7.484-.331-7.484-.331-7.481,7.043q0,1.5.006,2.993l-3.321,2.383c.014,11.4.11,22.811-.023,34.213-.031,2.687.5,4.779,2.665,6.452,3.691,2.849,4.768,6.673,4.7,11.28-.192,13.662-.074,27.328-.059,40.99,0,1.181.113,2.36.181,3.666,7.069,0,13.719.04,20.369-.028a52.186,52.186,0,0,0,5.285-.562c-.715.464-1.393,1.252-2.148,1.331-1.964.2-3.96.088-5.944.1q-4.07,0-8.137,0c-2.465-.012-4.938.1-7.394-.065-2.275-.15-2.815.811-2.838,2.936-.079,7.289-.155,7.292,7.224,7.255,1.006-.005,2.012-.068,3.021-.1l8.134-.005h8.812Z" transform="translate(116.565 43.162)" fill="#254776"/>
    <path id="Trazado_632734" data-name="Trazado 632734" d="M-379.285,1187.449c-2.623-.226-5.243-.551-7.871-.656-3.024-.125-6.057-.051-9.087-.062l-.009-10.1a27.032,27.032,0,0,1,3.705.009c2.908.387,3.9-.625,3.83-3.686-.2-9.324.209-18.668-.235-27.978-.147-3.064-2.176-6.04-3.344-9.055l-1.961-3.364q.013-4.756.025-9.511c.009-2.173.661-3.736,3.27-3.437,8,7.866,13.091,17.02,12.953,28.608-.1,8.007.025,16.014.051,24.021,0,1.105,0,2.21,0,2.883l6.865,2.125c-.647-.161-1.286-.347-1.939-.48-4.666-.938-5.525-.189-5.627,4.511C-378.7,1183.339-379.064,1185.395-379.285,1187.449Z" transform="translate(67.072 141.272)" fill="#1e57a0"/>
    <path id="Trazado_632735" data-name="Trazado 632735" d="M-381.339,1090.311c-9.674,3.426-20.169-.76-25.245-10.067a21.244,21.244,0,0,1,5.531-27.039c7-5.421,15.887-6.367,22.311-2.374-1.56-.232-3.3-.526-3.256,1.817.056,3.064.365,6.125.562,9.185-.608-.3-1.207-.607-1.82-.887a10.044,10.044,0,0,0-13.007,3.753,10.111,10.111,0,0,0,1.588,12.665c3.177,3.2,7.476,3.516,13.176.983Z" transform="translate(43.37 11.242)" fill="#215ca7"/>
    <path id="Trazado_632736" data-name="Trazado 632736" d="M-352.631,1066.278c5.655,1.549,9.191,5.514,9.389,11.062.469,13.3.421,26.632.042,39.936-.071,2.5-2.648,4.926-4.067,7.385-2.691.613-3.437,2.436-3.428,5.008.054,14.46.031,28.916.02,43.373,0,1.094-.1,2.19-.155,3.284l-.972-.051c-.071-1.283-.2-2.569-.2-3.855-.014-17.167.031-34.334-.071-51.5-.011-1.921-.839-3.841-1.289-5.76-.229-14.917-.495-29.835-.622-44.752C-354,1069.034-353.1,1067.655-352.631,1066.278Z" transform="translate(144.263 43.935)" fill="#283d5c"/>
    <path id="Trazado_632737" data-name="Trazado 632737" d="M-362.886,1071.127a19,19,0,0,0-.9,4.053q-.076,52.637-.042,105.277c0,2.326-.034,4.652-.054,6.981-.664-2.176-1.877-4.344-1.9-6.526-.17-14.858-.076-29.719-.11-44.577,0-1.662.6-3.787-2.154-4.05l-2.911,1.286c-.345-5.1-.916-9.968-.961-14.841-.133-13.516-.164-27.031.014-40.544.068-5,.834-9.994,1.28-14.988C-366.481,1064.31-364.477,1067.518-362.886,1071.127Z" transform="translate(111.3 38.311)" fill="#24497a"/>
    <path id="Trazado_632738" data-name="Trazado 632738" d="M-348.883,1083.573c.449,1.919,1.278,3.838,1.289,5.76.1,17.167.056,34.334.071,51.5,0,1.286.13,2.572.2,3.855l.972.051c.054-1.094.155-2.19.155-3.284.011-14.457.034-28.913-.02-43.373-.008-2.572.738-4.4,3.428-5.008-2.609,2.094-3.052,4.833-3.016,8.066.155,14.208.1,28.419.045,42.626-.025,6.207-3.431,10.042-9.064,10.508-.509-.085-1.018-.172-1.523-.257q-.047-30.618-.093-61.235l5.316-7.241Z" transform="translate(139.783 75.521)" fill="#283f61"/>
    <path id="Trazado_632739" data-name="Trazado 632739" d="M-363.218,1136.684c-2.609-.3-3.262,1.263-3.27,3.437q-.013,4.757-.025,9.511c-7.4-9.5-16.811-15.288-29.086-16.017-6.345-.379-10.429-4.646-14.375-9-2.258-3.454-1.826-12.125.715-14.389,3.587,3.244,7.043,6.65,10.816,9.657a12.249,12.249,0,0,0,5.921,2.564,48.2,48.2,0,0,1,28.15,12.664A9.919,9.919,0,0,1-363.218,1136.684Z" transform="translate(39.33 124.2)" fill="#215ca7"/>
    <path id="Trazado_632740" data-name="Trazado 632740" d="M-389.532,1162.559q0-36.523.051-73.052c.006-1.419.789-2.832,1.21-4.251,3.578,2.781,4.949,6.447,4.923,10.955-.1,17.639.048,35.284-.119,52.923-.028,3.256,1.046,3.968,4.059,3.917,9.72-.161,19.445-.051,29.168-.045l-8.762.819q-4.066,0-8.134,0c-2.366-.011-4.74.091-7.1-.07-2.289-.158-3.31.557-3.129,3.007.181,2.468.034,4.955.034,7.433C-381.522,1164.582-385.745,1165.2-389.532,1162.559Z" transform="translate(79.337 78.595)" fill="#205498"/>
    <path id="Trazado_632741" data-name="Trazado 632741" d="M-374.686,1043.381c8.671,3.92,14.165,13.476,13.586,23.639-.543,9.49-7.136,18.416-15.7,21.245-.707-.922-1.913-1.786-2.021-2.77a81.593,81.593,0,0,1-.153-8.278c10.223-8.114,7.391-18.442.02-23.492l1.094-10.6Z" transform="translate(98.574 1.658)" fill="#244d84"/>
    <path id="Trazado_632742" data-name="Trazado 632742" d="M-337.752,1090.943l2.032-3.355a49.909,49.909,0,0,1,.726,6c.062,13.908.023,27.814.054,41.722a42.133,42.133,0,0,0,.579,4.531l4.768-8.637a69.718,69.718,0,0,0-2.634,7.106c-.3,1.134.288,2.5.475,3.756-2.965-1.156-3.185.825-3.194,2.877-.034,6.871-.048,13.742.02,20.612a16.572,16.572,0,0,0,.789,3.406l4.129-3.095q-6.419,7.139-12.84,14.276c-2.634.489-2.142-1.543-2.267-2.928-.308-3.377-.506-6.763-.749-10.146,2.292-2.741,4.7-5.4,6.845-8.25,2.453-3.267,2.32-5.718-.073-8.436l-.616-.879c0-10.961-.113-21.921.034-32.881C-339.56,1108.031-340.81,1099.32-337.752,1090.943Z" transform="translate(159.096 82.853)" fill="#29384f"/>
    <path id="Trazado_632743" data-name="Trazado 632743" d="M-390.248,1150.72c.22-2.054.585-4.11.627-6.17.1-4.7.961-5.449,5.627-4.511.653.133,1.292.319,1.939.48.885,1.529,2.5,3.039,2.538,4.587.232,10.44.141,20.889.116,31.339-.006,3.069-1.348,5.146-4.6,5.593l-5.576-.2q-.318-5.706-.639-11.41Z" transform="translate(78.035 178.001)" fill="#1f5499"/>
    <path id="Trazado_632744" data-name="Trazado 632744" d="M-371.317,1131.3q4.752-6.143,9.5-12.292c-.653,1.272-1.778,2.51-1.871,3.818a81.544,81.544,0,0,0,.02,10.836c.057.9,1.241,1.724,1.908,2.583a33.414,33.414,0,0,0-3.352,16.294c.345,6.986.076,14,.088,21.011,0,1.074.093,2.151.15,3.394h44.45q-5.4.356-10.8.709l-10.172.008-10.169,0c-2.937-.008-5.876.074-8.807-.056-2.021-.088-2.888.574-2.77,2.693.141,2.476.04,4.966.042,7.453q-3.731,0-7.461,0c0-16.822.017-33.644-.045-50.467A50.95,50.95,0,0,0-371.317,1131.3Z" transform="translate(112.609 140.238)" fill="#244879"/>
    <path id="Trazado_632745" data-name="Trazado 632745" d="M-367.867,1123.358a50.938,50.938,0,0,1,.718,5.992c.062,16.822.042,33.644.045,50.467-4.762.124-4.762.124-4.762,5.019q0,5.893,0,11.783c-.008,5.995-.175,4.782,4.762,5.008,0,.557-.011,1.11-.011,1.667-.014,8.759-.014,8.759,8.841,8.369l10.85-.009,10.175,0,8.807.006h10.192l8.126.008,7.467,0,4.1.246a16.234,16.234,0,0,1-2.917.528q-34.709-.021-69.412-.124a17.254,17.254,0,0,1-2.32-.317c.037-3.262.048-6.523.113-9.782.138-7.176.331-14.346.444-21.522.068-4.219.02-8.442.025-12.662.017-10.718-.4-21.463.269-32.141C-372.09,1131.645-369.436,1127.536-367.867,1123.358Z" transform="translate(109.159 148.181)" fill="#254a7e"/>
    <path id="Trazado_632746" data-name="Trazado 632746" d="M-398.935,1088.825q-.081-5.982-.158-11.964c5.353-6.5,5.373-11.158.062-16.514-.2-3.061-.506-6.121-.562-9.185-.042-2.343,1.7-2.049,3.256-1.817,12.215,6.84,16.1,18.546,9.686,29.883C-389.365,1084.023-393.732,1087.042-398.935,1088.825Z" transform="translate(60.966 12.728)" fill="#2059a5"/>
    <path id="Trazado_632747" data-name="Trazado 632747" d="M-353.917,1089.606c-8.029-2.306-12.73-7.891-14.437-15.76-1.851-8.524.828-15.878,7.747-21.26,2.295-1.783,5.345-2.594,8.049-3.849-.215,3.171-.523,6.342-.54,9.516,0,.491,1.343.992,2.063,1.486-4.5,2.5-7.283,6.167-6.122,11.427.537,2.439,2.5,4.562,3.827,6.826C-355.813,1079.538-356.17,1086.564-353.917,1089.606Z" transform="translate(116.98 11.899)" fill="#264672"/>
    <path id="Trazado_632748" data-name="Trazado 632748" d="M-340.313,1199.422l-7.467,0v-10.751l4.666-.187a3.586,3.586,0,0,0,.565.119c.054,0,.167-.147.167-.229,0-6.546,0-13.092-.048-19.637,0-.359-.452-.713-.7-1.069l-8.728-.074-.735-17.094c.684-1.368,1.08-3.024,2.106-4.05,5.531-5.548,11.22-10.938,16.856-16.381l-1.942,2.948c-1.939,1.829-3.914,3.629-5.794,5.517a2.635,2.635,0,0,0-.692,1.733c.065,3.106.172,6.212.427,9.307a8.2,8.2,0,0,0,1.082,2.436l-1.933,3.94c3.038.774,5.706,1.456,8.372,2.134-1.212-.206-2.419-.461-3.64-.6-1.54-.184-2.558.147-2.6,2.105-.119,5.172-.627,10.341-.6,15.511C-340.9,1183.2-340.539,1191.314-340.313,1199.422Z" transform="translate(146.814 160.434)" fill="#283c59"/>
    <path id="Trazado_632749" data-name="Trazado 632749" d="M-366.734,1139.168c-.006,4.22.042,8.442-.025,12.662-.113,7.176-.305,14.347-.444,21.522-.065,3.259-.076,6.52-.113,9.782-6.633,1.026-9.1-1.012-9.106-7.575q-.013-13.893,0-27.785c.014-5.805,1.419-7.218,7.317-7.682A8.86,8.86,0,0,0-366.734,1139.168Z" transform="translate(103.27 177.055)" fill="#244b81"/>
    <path id="Trazado_632750" data-name="Trazado 632750" d="M-347.835,1181.739c-.226-8.108-.588-16.217-.633-24.329-.031-5.169.478-10.339.6-15.511.045-1.959,1.063-2.289,2.6-2.105,1.221.144,2.428.4,3.64.6.862,1.7,2.431,3.38,2.47,5.1.237,10.164.153,20.333.1,30.5-.017,3.1-1.179,5.5-4.672,5.986Z" transform="translate(154.336 178.117)" fill="#293a53"/>
    <path id="Trazado_632751" data-name="Trazado 632751" d="M-378.157,1085.269c-8.058-4.415-11.859-11.531-12.046-20.409-.192-9.016,3.431-16.342,11.39-21.147.229,3.734.4,7.476.738,11.2.054.6.805,1.142,1.232,1.71-2.329,4.974-2.871,9.951-.011,14.931-.642.653-1.84,1.309-1.834,1.956C-378.663,1077.432-378.363,1081.349-378.157,1085.269Z" transform="translate(78.106 2.726)" fill="#1f5599"/>
    <path id="Trazado_632752" data-name="Trazado 632752" d="M-336.147,1137.327l-4.768,8.638a42.14,42.14,0,0,1-.579-4.531c-.031-13.908.008-27.814-.054-41.722a49.915,49.915,0,0,0-.726-6q4.43-4.736,8.858-9.477c.017,3.931.059,7.86.031,11.789-.011,1.636.579,2.072,2.021,1.269-.011.221.065.506-.045.65-6.322,8.445-7.411,17.583-4.05,27.514A15.376,15.376,0,0,1-336.147,1137.327Z" transform="translate(165.651 76.73)" fill="#29364b"/>
    <path id="Trazado_632753" data-name="Trazado 632753" d="M-356.867,1049.244c10.681,5.882,14.824,15.033,11.594,25.722a19.134,19.134,0,0,1-7.572,10.234c-.653-1.371-1.7-2.694-1.888-4.129-.486-3.637-.594-7.326-.851-10.994l-2.035-7.733c-.421-3.395-1.006-6.783-1.15-10.189C-358.809,1051.211-357.537,1050.213-356.867,1049.244Z" transform="translate(135.524 12.826)" fill="#284062"/>
    <path id="Trazado_632754" data-name="Trazado 632754" d="M-325.457,1110.4c.031,10.678,0,21.362.147,32.039.026,1.817.791,3.626,1.212,5.438q-6.728,6.461-13.456,12.925c-.461-1.21-1.362-2.445-1.3-3.626.209-3.849.769-7.682,1.2-11.52a27.265,27.265,0,0,1,2.075-2.159c5.008-4.211,8.275-9.191,8.5-16.065C-326.9,1121.74-326.025,1116.074-325.457,1110.4Z" transform="translate(171.891 124.512)" fill="#293444"/>
    <path id="Trazado_632755" data-name="Trazado 632755" d="M-337.088,1100.845c-1.441.8-2.032.368-2.021-1.269.028-3.929-.014-7.857-.031-11.789,3.81-3.013,7.518-6.272,12.953-5.333q-.382,11.985-.766,23.973c-.718-3.722-1.436-7.444-2.3-11.9Z" transform="translate(171.375 73.178)" fill="#293546"/>
    <path id="Trazado_632756" data-name="Trazado 632756" d="M-349.72,1063.724l-4.963-.577c-3.612-.006-7.224.07-10.83-.045-2.01-.068-2.894.563-2.773,2.685.144,2.476.04,4.963.045,7.444H-385.2l-.008-10.084q6.419-.31,12.837-.622c6.628-.036,13.255-.124,19.883-.048C-351.563,1062.486-350.644,1063.289-349.72,1063.724Z" transform="translate(87.231 36.938)" fill="#22518f"/>
    <path id="Trazado_632757" data-name="Trazado 632757" d="M-356.553,1121.119q5.757-5.13,11.52-10.26v13.179l4.915-2.722c-2.665,2.555-5.11,5.41-8.063,7.566-2.162,1.577-4.991,2.235-7.524,3.3-.486-.5-1.4-1.009-1.391-1.5C-357.028,1127.495-356.76,1124.306-356.553,1121.119Z" transform="translate(138.581 125.354)" fill="#283f61"/>
    <path id="Trazado_632758" data-name="Trazado 632758" d="M-346.566,1140.925l1.942-2.948,12.86-12.241a5.952,5.952,0,0,1-.995,1.673c-5.282,4.386-2.1,9.968-3,15.728,3.106-2.264,5.367-3.914,7.631-5.565q-7.071,6.8-14.146,13.612l-3.247.936C-345.888,1148.228-346.227,1144.576-346.566,1140.925Z" transform="translate(157.812 152.524)" fill="#293950"/>
    <path id="Trazado_632759" data-name="Trazado 632759" d="M-366.578,1140.46c-.667-.859-1.851-1.687-1.908-2.583a81.554,81.554,0,0,1-.02-10.836c.093-1.309,1.218-2.547,1.871-3.818l8.886-6.52a64.788,64.788,0,0,0,.062,7.071,31.23,31.23,0,0,0,1.481,5.218Z" transform="translate(117.431 136.025)" fill="#264774"/>
    <path id="Trazado_632760" data-name="Trazado 632760" d="M-335.022,1142.8l-7.631,5.565c.9-5.76-2.278-11.342,3-15.728a5.954,5.954,0,0,0,.995-1.673q4.091-4.048,8.185-8.094c-.427,3.838-.986,7.671-1.2,11.52-.062,1.181.839,2.417,1.3,3.626Z" transform="translate(164.701 147.293)" fill="#29374b"/>
    <path id="Trazado_632761" data-name="Trazado 632761" d="M-348.551,1050.887c-.67.969-1.942,1.967-1.9,2.911.144,3.405.729,6.794,1.15,10.189-3.239-3.714-7.312-4.6-11.958-3.53-.721-.495-2.066-.995-2.063-1.487.017-3.174.325-6.345.54-9.516C-357.793,1047.475-353.081,1048.258-348.551,1050.887Z" transform="translate(127.207 11.183)" fill="#28436a"/>
    <path id="Trazado_632762" data-name="Trazado 632762" d="M-337.8,1088.775c-3.058,8.377-1.809,17.088-1.922,25.677-.147,10.96-.034,21.921-.034,32.881-6.113.034-6.215.031-6.048-6.006a29.84,29.84,0,0,1,1.246-5.647c.314-.834.579-1.687.944-2.493,2.767-6.094,4.432-11.876,2.224-19.007C-344.039,1105.6-342.242,1096.794-337.8,1088.775Z" transform="translate(159.141 85.021)" fill="#2a3950"/>
    <path id="Trazado_632763" data-name="Trazado 632763" d="M-345.87,1115.661l-2.238,1.97c.435-1.577,1.227-3.146,1.247-4.729.119-9.369.076-18.741.051-28.113-.014-5.8,1.272-8.2-7.289-7.679a6.783,6.783,0,0,1-1.331-.183l-2.657-.656.011-10.031,10.333-.237,2.606.777c-.472,1.377-1.365,2.756-1.354,4.129C-346.364,1085.827-346.1,1100.744-345.87,1115.661Z" transform="translate(136.77 43.433)" fill="#274062"/>
    <path id="Trazado_632764" data-name="Trazado 632764" d="M-347.913,1127.237l-4.915,2.722V1116.78q4.791-4.583,9.581-9.163c.218,3.567.367,7.142.7,10.7a10.212,10.212,0,0,0,1.128,2.764Z" transform="translate(146.376 119.433)" fill="#293d5a"/>
    <path id="Trazado_632765" data-name="Trazado 632765" d="M-384.207,1059.351c-.427-.568-1.179-1.108-1.232-1.71-.334-3.725-.509-7.467-.738-11.2,5.6-4.225,11.828-5.062,18.512-3.459a17.315,17.315,0,0,1-3.007.062c-3.3-.492-4.183.913-4.033,4.09.246,5.26.059,5.268,4.819,6.676C-375.615,1053.183-380.485,1054.789-384.207,1059.351Z" transform="translate(85.47 0)" fill="#205292"/>
    <path id="Trazado_632766" data-name="Trazado 632766" d="M-385.6,1067.278c-.206-3.92-.506-7.837-.531-11.757-.006-.647,1.193-1.3,1.834-1.956,3.293,4.839,8.044,6.456,13.651,6.159-1.93,1.072-5.322-.192-4.9,4.366.579,6.266.124,6.309,6.387,6.5A20.128,20.128,0,0,1-385.6,1067.278Z" transform="translate(85.551 20.717)" fill="#215292"/>
    <path id="Trazado_632767" data-name="Trazado 632767" d="M-347.609,1125.183a10.211,10.211,0,0,1-1.128-2.764c-.334-3.558-.483-7.133-.7-10.7,2.939-1.673,5.873-3.358,8.824-5.016.856-.483,1.755-.891,2.634-1.331a29.847,29.847,0,0,0-1.246,5.647c-.167,6.037-.065,6.04,6.048,6.006l.616.879c-3.055-.574-6.006-.636-8.541,1.6C-343.262,1121.408-345.442,1123.29-347.609,1125.183Z" transform="translate(152.567 115.331)" fill="#293b55"/>
    <path id="Trazado_632768" data-name="Trazado 632768" d="M-349.012,1114.489c-.206,3.188-.475,6.376-.543,9.567-.011.492.9,1,1.391,1.5q-5.791,1.009-11.582,2.012c-.478-1.082-1.275-2.137-1.365-3.25-.206-2.561-.068-5.152-.071-7.73Z" transform="translate(131.04 131.983)" fill="#274267"/>
    <path id="Trazado_632769" data-name="Trazado 632769" d="M-354.589,1115.232c0,2.578-.136,5.17.071,7.73.09,1.113.887,2.168,1.365,3.25l-10.067,5.464a31.23,31.23,0,0,1-1.481-5.218,64.783,64.783,0,0,1-.062-7.071Z" transform="translate(124.447 133.34)" fill="#27446e"/>
    <path id="Trazado_632770" data-name="Trazado 632770" d="M-385.181,1119.947c0-2.478.147-4.966-.034-7.433-.181-2.45.839-3.165,3.129-3.007,2.357.161,4.731.059,7.094.07,0,.791-.006,1.583-.006,2.374-.006,8-.006,8,8.151,7.665l10.18-.011.868.212c-3.815.144-7.631.4-11.447.4C-373.223,1120.218-379.2,1120.046-385.181,1119.947Z" transform="translate(87.19 122.845)" fill="#205191"/>
    <path id="Trazado_632771" data-name="Trazado 632771" d="M-352.509,1056.615c.257,3.669.365,7.357.851,10.995.192,1.436,1.235,2.758,1.888,4.129l-9.242,4.146c-.506-.486-1.453-.983-1.441-1.455.073-3.183.351-6.359.56-9.539A12.53,12.53,0,0,0-352.509,1056.615Z" transform="translate(132.448 26.287)" fill="#274166"/>
    <path id="Trazado_632772" data-name="Trazado 632772" d="M-353.154,1060.374c-.209,3.18-.486,6.356-.56,9.539-.011.472.936.969,1.441,1.455q-5.185-.335-10.373-.667c-2.253-3.041-1.9-10.067.588-11.613Z" transform="translate(125.708 30.804)" fill="#27446d"/>
    <path id="Trazado_632773" data-name="Trazado 632773" d="M-377.289,1053.34c-4.759-1.408-4.573-1.416-4.819-6.676-.15-3.177.738-4.581,4.033-4.09a17.339,17.339,0,0,0,3.007-.062q3.04,1.03,6.082,2.058l-3.174-.252-1.094,10.6Z" transform="translate(92.873 0.468)" fill="#24508c"/>
    <path id="Trazado_632774" data-name="Trazado 632774" d="M-375.976,1067.62c-6.263-.189-5.808-.232-6.387-6.5-.424-4.558,2.968-3.295,4.9-4.366l4.695-1.566a81.591,81.591,0,0,0,.153,8.278c.107.984,1.314,1.848,2.021,2.77Z" transform="translate(92.368 23.684)" fill="#24508d"/>
    <path id="Trazado_632775" data-name="Trazado 632775" d="M-342.374,1131.11l1.04,11.2,3.247-.936q-4.634,4.367-9.265,8.733a8.2,8.2,0,0,1-1.082-2.436c-.254-3.094-.362-6.2-.427-9.307a2.635,2.635,0,0,1,.692-1.733C-346.289,1134.739-344.313,1132.939-342.374,1131.11Z" transform="translate(153.621 162.338)" fill="#2a3b55"/>
    <path id="Trazado_632776" data-name="Trazado 632776" d="M-378.17,1168.027c3.945,4.353,8.03,8.62,14.375,9,12.275.729,21.681,6.515,29.086,16.017l1.961,3.364c2.595,5.051,3.222,10.429,2.931,16.036-.2,3.938-.037,7.894-.037,11.842v11.359c-.495.447-.579.588-.661.588-14.1.057-28.193.144-42.29.065-.851-.006-1.7-1.323-2.547-2.029l-2.86-7.332c-3.363-3.556-6.616-7.227-10.113-10.647-6.2-6.057-12.537-11.961-18.82-17.927-4.5-4.412-8.928-8.894-13.521-13.207a19.373,19.373,0,0,1-6.167-12.4,306.668,306.668,0,0,1,.743-76.254c.4-2.987,1.128-5.929,1.925-10.042,3.3,3.171,5.983,5.754,8.668,8.34,4.714,7.589,6.933,15.573,3.784,24.369-2.334,6.523-1.19,12.687,1.931,18.606,1.653,3.134,1.67,5.2-1.56,7.843-4.452,3.638-5.183,9.234-3.666,14.624a22.97,22.97,0,0,0,4.508,8.589c8.188,9.465,16.678,18.668,25.1,27.93,2.507,2.758,6.1,3.222,8.388,1.252,2.385-2.055,2.524-6.1.079-8.838-7.733-8.665-15.547-17.26-23.328-25.88-.528-.585-1.1-1.133-1.583-1.752-2.529-3.233-3.016-6.568-1.232-8.275,2-1.919,7.08-1.538,9.706.885,4.146,3.824,8.185,7.767,12.3,11.622C-380.177,1166.6-379.139,1167.278-378.17,1168.027Z" transform="translate(7.526 80.788)" fill="#fff"/>
    <path id="Trazado_632777" data-name="Trazado 632777" d="M-370.052,1070.089l.667.5a15.535,15.535,0,0,1,.834,3.479q.1,16.322,0,32.644a17.368,17.368,0,0,1-.9,3.824,14.655,14.655,0,0,0-6.116,12.784c.243,14.889.059,29.783.045,44.678h-25.759v-3.734c0-13.546-.13-27.1.071-40.639.073-4.876-1.238-8.906-4.918-12.04-2.077-1.77-2.708-3.816-2.665-6.515.147-10.044.048-20.095.065-30.14.006-4.327.667-5.042,4.827-5.031C-392.617,1069.939-381.334,1070.024-370.052,1070.089Z" transform="translate(44.16 50.55)" fill="#fff"/>
    <path id="Trazado_632778" data-name="Trazado 632778" d="M-386.565,1104.969q.008,5.024.011,10.05c-5.735.028-11.472.008-17.2.119-1.925.036-2.462-.715-2.535-2.572-.294-7.628-.353-7.628,7.244-7.623C-394.889,1104.943-390.726,1104.96-386.565,1104.969Z" transform="translate(48.562 114.549)" fill="#215da8"/>
    <path id="Trazado_632779" data-name="Trazado 632779" d="M-387,1066.129q0,5.028-.006,10.053c-5.4.011-10.8-.028-16.192.062-1.9.034-2.8-.4-2.872-2.583-.246-7.614-.333-7.62,7.264-7.609C-394.868,1066.058-390.934,1066.1-387,1066.129Z" transform="translate(49.005 43.522)" fill="#215ca8"/>
    <path id="Trazado_632780" data-name="Trazado 632780" d="M-413.541,1163.537v-19.88h65v19.88Z" transform="translate(35.495 185.253)" fill="#fff"/>
    <path id="Trazado_632781" data-name="Trazado 632781" d="M-410.1,1136.161q1.429,3.667,2.86,7.332c-.5,2.688,1.088,2.863,3.171,2.854,11.825-.051,23.651-.014,35.476-.006q0,5.049.008,10.1c-13.275.011-26.55-.009-39.826.076-2.108.014-3.058-.5-2.985-2.812.147-4.61-.042-9.228.1-13.838A14.045,14.045,0,0,1-410.1,1136.161Z" transform="translate(39.412 171.563)" fill="#225da8"/>
    <path id="Trazado_632782" data-name="Trazado 632782" d="M-368.792,1161.113c-13.309.028-26.618.017-39.927.124-2.219.02-2.88-.709-2.905-2.908-.085-7.292-.167-7.295,6.95-7.289q17.933.013,35.866.034Q-368.8,1156.093-368.792,1161.113Z" transform="translate(38.961 198.735)" fill="#235da8"/>
    <path id="Trazado_632783" data-name="Trazado 632783" d="M-396.471,1161.98q-.009-5.02-.017-10.039c4.9-.011,9.807.051,14.705-.094,1-.028,1.973-.836,2.959-1.283q.322,5.707.639,11.41Q-387.329,1161.979-396.471,1161.98Z" transform="translate(66.639 197.868)" fill="#1e57a0"/>
    <path id="Trazado_632784" data-name="Trazado 632784" d="M-355.368,1183.934l10.067-5.464q5.791-1,11.582-2.012c2.532-1.069,5.362-1.727,7.524-3.3,2.953-2.156,5.4-5.011,8.063-7.566l6.495-6.156c2.168-1.893,4.347-3.776,6.506-5.681,2.535-2.235,5.486-2.173,8.541-1.6,2.394,2.719,2.527,5.169.073,8.437-2.145,2.852-4.553,5.508-6.845,8.25q-5.791,6.363-11.582,12.73c-2.315,2.453-4.717,4.83-6.916,7.38-2.665,3.092-2.414,6.857.413,8.979s6.421,1.083,8.711-2.518l12.391-13.5q6.423-7.139,12.84-14.276c1.484-3.767,3.745-7.433,4.254-11.328a11.994,11.994,0,0,0-6-12.472c-.187-1.258-.772-2.623-.475-3.756a69.709,69.709,0,0,1,2.634-7.106,15.376,15.376,0,0,0,.687-11.87c-3.36-9.931-2.272-19.069,4.05-27.514.11-.144.034-.43.045-.65,2.479-2,4.957-4,7.837-6.322.862,4.46,1.58,8.182,2.3,11.9q1.056,23.94,2.089,47.883c.1,2.47-.042,4.949-.076,7.422-.568,5.676-1.441,11.342-1.628,17.031-.223,6.873-3.491,11.854-8.5,16.065a27.239,27.239,0,0,0-2.075,2.159q-4.1,4.049-8.185,8.094l-12.86,12.241c-5.636,5.444-11.325,10.833-16.856,16.381-1.026,1.026-1.422,2.682-2.106,4.05q-1.017,3.124-2.038,6.252h-44.45c-.056-1.244-.147-2.32-.15-3.394-.011-7.007.257-14.024-.088-21.011a33.414,33.414,0,0,1,3.352-16.294Z" transform="translate(116.594 81.082)" fill="#fff"/>
    <path id="Trazado_632785" data-name="Trazado 632785" d="M-394.876,1110.091a17.361,17.361,0,0,0,.9-3.824q.106-16.322,0-32.644a15.536,15.536,0,0,0-.834-3.479c.486.831,1.393,1.659,1.4,2.5q.14,17.225,0,34.456C-393.42,1108.1-394.367,1109.094-394.876,1110.091Z" transform="translate(69.583 50.995)" fill="#215ca8"/>
    <path id="Trazado_632786" data-name="Trazado 632786" d="M-348.431,1187.306c-9.723-.006-19.448-.116-29.168.045-3.013.051-4.087-.661-4.059-3.917.167-17.639.023-35.284.119-52.923.025-4.508-1.345-8.174-4.923-10.955-4.211-3.326-4.123-7.891-4.042-12.693.2-11.481-.059-22.972.189-34.456.039-1.936,1.693-3.835,2.6-5.755l.7-.15q21.99-.013,43.975-.028l3.228,2.247a26.666,26.666,0,0,1,.5,3.66c.037,13.425.056,26.85-.028,40.275-.008,1.377-.726,2.747-1.113,4.121-3.516,2.852-6.927,5.774-7.3,10.757-.136,1.328-.384,2.654-.387,3.983q-.038,25.878-.028,51.755C-348.168,1184.618-348.337,1185.96-348.431,1187.306Z" transform="translate(77.527 44.294)" fill="#fff"/>
    <path id="Trazado_632787" data-name="Trazado 632787" d="M-388.48,1073.431l-.7.15c-.22-3.1-.557-6.2-.546-9.3,0-.529,1.478-1.461,2.309-1.5,3.474-.167,6.958-.062,10.44-.056q0,5.041.009,10.084Z" transform="translate(78.992 37.367)" fill="#1f5499"/>
    <path id="Trazado_632788" data-name="Trazado 632788" d="M-369.97,1147.85c.093-1.346.263-2.688.266-4.033q.025-25.878.028-51.755c0-1.329.252-2.654.387-3.983.023,13.193-.037,26.39.09,39.583.1,10.347.427,20.694.656,31.042q-5.092,0-10.18.011,0-5.024-.008-10.045Z" transform="translate(99.067 83.75)" fill="#234d85"/>
    <path id="Trazado_632789" data-name="Trazado 632789" d="M-379.172,1072.812c-.006-2.481.1-4.968-.045-7.444-.122-2.122.763-2.753,2.773-2.685,3.606.116,7.218.04,10.83.045v10.09Q-372.393,1072.818-379.172,1072.812Z" transform="translate(98.162 37.359)" fill="#244c83"/>
    <path id="Trazado_632790" data-name="Trazado 632790" d="M-372.809,1115.326c.387-1.374,1.105-2.744,1.113-4.121.085-13.425.065-26.85.028-40.275a26.668,26.668,0,0,0-.5-3.66,7.012,7.012,0,0,1,.9,2.292c.057,14.276.073,28.551-.025,42.827C-371.3,1113.37-372.283,1114.348-372.809,1115.326Z" transform="translate(109.884 45.746)" fill="#244c83"/>
    <path id="Trazado_632791" data-name="Trazado 632791" d="M-360.806,1066.263q6.779,0,13.558.006.971.3,1.942.6l-43.978.026,11.514-.628Z" transform="translate(79.796 43.907)" fill="#1e569f"/>
    <path id="Trazado_632792" data-name="Trazado 632792" d="M-336.614,1069.868a6.783,6.783,0,0,0,1.331.183c8.561-.517,7.275,1.882,7.289,7.679.025,9.372.068,18.744-.051,28.113-.02,1.583-.811,3.151-1.246,4.729q-2.658,3.62-5.316,7.244a15.905,15.905,0,0,0-.676,3.211q-.034,23.287.037,46.572a52.187,52.187,0,0,1-5.285.562c-6.65.068-13.3.028-20.369.028-.068-1.306-.181-2.484-.181-3.666-.014-13.662-.133-27.328.059-40.99.065-4.607-1.012-8.431-4.7-11.28-2.168-1.673-2.7-3.765-2.665-6.452.133-11.4.037-22.809.023-34.213,1.634-.534,3.259-1.5,4.9-1.532C-354.519,1069.868-345.565,1069.907-336.614,1069.868Z" transform="translate(117.952 50.491)" fill="#fff"/>
    <path id="Trazado_632793" data-name="Trazado 632793" d="M-351.435,1136.616q-.034-23.288-.037-46.572a15.9,15.9,0,0,1,.676-3.211q.047,30.613.093,61.233-4.4,0-8.812,0,0-5.011-.011-10.019c1.984-.014,3.98.1,5.944-.1C-352.829,1137.868-352.15,1137.079-351.435,1136.616Z" transform="translate(134.142 81.475)" fill="#274165"/>
    <path id="Trazado_632794" data-name="Trazado 632794" d="M-355.77,1115.028c-1.009.036-2.015.1-3.021.1-7.38.037-7.3.034-7.224-7.255.023-2.125.562-3.086,2.838-2.936,2.456.164,4.929.053,7.394.065Q-355.78,1110.017-355.77,1115.028Z" transform="translate(122.262 114.517)" fill="#26456f"/>
    <path id="Trazado_632795" data-name="Trazado 632795" d="M-364.557,1066.083l9.5.009q0,5.01-.011,10.027h-9.5Z" transform="translate(124.939 43.579)" fill="#26446e"/>
    <path id="Trazado_632796" data-name="Trazado 632796" d="M-361.206,1076.114q0-5.015.011-10.027h8.812q0,5.019-.011,10.033Q-356.8,1076.119-361.206,1076.114Z" transform="translate(131.075 43.584)" fill="#264267"/>
    <path id="Trazado_632797" data-name="Trazado 632797" d="M-362.392,1114.978q-.009-5.011-.014-10.022,4.07,0,8.137,0,0,5.011.011,10.022Q-358.323,1114.975-362.392,1114.978Z" transform="translate(128.884 114.568)" fill="#26436a"/>
    <path id="Trazado_632798" data-name="Trazado 632798" d="M-359.729,1066.151q0,5.019-.008,10.036H-367.2q0-1.5-.006-2.993C-367.213,1065.821-367.213,1065.821-359.729,1066.151Z" transform="translate(120.11 43.51)" fill="#254673"/>
    <path id="Trazado_632799" data-name="Trazado 632799" d="M-365.062,1069.634H-348.1q4.4,0,8.812.006,1.331.331,2.657.656c-8.951.039-17.9,0-26.853.189-1.642.034-3.267,1-4.9,1.532Z" transform="translate(117.968 50.064)" fill="#24497a"/>
    <path id="Trazado_632800" data-name="Trazado 632800" d="M-371.219,1166.069c-11.825-.008-23.651-.045-35.476.006-2.083.008-3.669-.167-3.171-2.854.848.706,1.7,2.023,2.547,2.029,14.1.079,28.192-.009,42.29-.065.082,0,.167-.141.661-.588v-11.359c0-3.948-.167-7.905.037-11.843.291-5.607-.336-10.986-2.931-16.036,1.167,3.016,3.2,5.992,3.344,9.055.444,9.31.031,18.654.235,27.978.068,3.061-.921,4.073-3.83,3.686A27.051,27.051,0,0,0-371.219,1166.069Z" transform="translate(42.04 151.835)" fill="#2762ac"/>
    <path id="Trazado_632801" data-name="Trazado 632801" d="M-388.809,1054.372c5.311,5.356,5.291,10.014-.062,16.515-5.7,2.532-10,2.213-13.176-.983a10.111,10.111,0,0,1-1.588-12.665,10.045,10.045,0,0,1,13.007-3.753C-390.016,1053.765-389.417,1054.076-388.809,1054.372Z" transform="translate(50.744 18.703)" fill="#feffff"/>
    <path id="Trazado_632802" data-name="Trazado 632802" d="M-373.47,1109.517q0,5.024.008,10.045c-8.157.333-8.157.333-8.151-7.668,0-.792.006-1.583.006-2.374Q-377.537,1109.52-373.47,1109.517Z" transform="translate(93.805 122.903)" fill="#224f8b"/>
    <path id="Trazado_632803" data-name="Trazado 632803" d="M-365.878,1071.471l-4.695,1.566c-5.61.3-10.361-1.32-13.654-6.159-2.86-4.98-2.318-9.957.011-14.931,3.722-4.562,8.592-6.167,14.321-5.542l4.036,1.574C-358.487,1053.03-355.656,1063.357-365.878,1071.471Z" transform="translate(85.479 7.403)" fill="#fff"/>
    <path id="Trazado_632804" data-name="Trazado 632804" d="M-335.363,1128.784q-6.194,6.749-12.391,13.5a9.789,9.789,0,0,1-1.376-2.877c-.4-3.641-.574-7.306-.831-10.963q5.791-6.367,11.582-12.73c.243,3.383.441,6.769.749,10.146C-337.505,1127.24-338,1129.273-335.363,1128.784Z" transform="translate(151.612 134.211)" fill="#293b55"/>
    <path id="Trazado_632805" data-name="Trazado 632805" d="M-338.788,1107.084a11.994,11.994,0,0,1,6,12.472c-.509,3.9-2.77,7.561-4.254,11.328l-4.129,3.095a16.572,16.572,0,0,1-.789-3.406c-.068-6.87-.054-13.741-.02-20.612C-341.973,1107.909-341.753,1105.928-338.788,1107.084Z" transform="translate(166.133 117.835)" fill="#29374b"/>
    <path id="Trazado_632806" data-name="Trazado 632806" d="M-346.332,1143.548q1.017-3.125,2.038-6.252.365,8.547.735,17.1l-13.566-.017,0-10.118Z" transform="translate(138.521 173.636)" fill="#283f61"/>
    <path id="Trazado_632807" data-name="Trazado 632807" d="M-368.373,1149.892c0-2.484.1-4.974-.042-7.45-.119-2.12.749-2.781,2.77-2.693,2.931.13,5.87.048,8.807.056v10.09Q-362.609,1149.895-368.373,1149.892Z" transform="translate(117.89 178.1)" fill="#254673"/>
    <path id="Trazado_632808" data-name="Trazado 632808" d="M-364.326,1149.855v-10.09l10.169,0v10.1Q-359.24,1149.857-364.326,1149.855Z" transform="translate(125.377 178.14)" fill="#26436c"/>
    <path id="Trazado_632809" data-name="Trazado 632809" d="M-360.728,1149.866v-10.1l10.172-.009q0,5.058,0,10.118Q-355.641,1149.873-360.728,1149.866Z" transform="translate(131.948 178.134)" fill="#264267"/>
    <path id="Trazado_632810" data-name="Trazado 632810" d="M-338.8,1143.339q5.087.009,10.175.011l13.566.017,8.73.068a1.444,1.444,0,0,1-.065.667h-65.523c0,5.582,0,10.652,0,15.723,0,4.568,0,4.553,4.57,4.559q25.763.039,51.524.091l-3.307.647-10.18.008q-4.4,0-8.812.011l-10.175.008h-19.668c-4.938-.229-4.771.984-4.762-5.011q0-5.893,0-11.783c0-4.9,0-4.9,4.762-5.019q3.731,0,7.461,0h11.534Q-343.889,1143.333-338.8,1143.339Z" transform="translate(110.023 184.661)" fill="#244b81"/>
    <path id="Trazado_632811" data-name="Trazado 632811" d="M-367.927,1151.054q5.426,0,10.85,0,0,5.015.011,10.028l-10.85.009Q-367.92,1156.072-367.927,1151.054Z" transform="translate(118.8 198.757)" fill="#264572"/>
    <path id="Trazado_632812" data-name="Trazado 632812" d="M-357.37,1151.051l10.18-.009.017,10.062h-10.192Z" transform="translate(138.081 198.74)" fill="#294062"/>
    <path id="Trazado_632813" data-name="Trazado 632813" d="M-364.077,1161.083q0-5.012-.011-10.028,5.087,0,10.175-.006l.011,10.036Z" transform="translate(125.812 198.753)" fill="#26446d"/>
    <path id="Trazado_632814" data-name="Trazado 632814" d="M-362.221,1151.054q0,5.019.011,10.034c-8.855.39-8.855.39-8.841-8.369,0-.557.008-1.111.011-1.667Q-366.63,1151.055-362.221,1151.054Z" transform="translate(113.094 198.757)" fill="#244879"/>
    <path id="Trazado_632815" data-name="Trazado 632815" d="M-360.477,1161.092l-.011-10.036q4.4-.008,8.812-.011,0,5.028.006,10.053Q-356.071,1161.094-360.477,1161.092Z" transform="translate(132.386 198.746)" fill="#274166"/>
    <path id="Trazado_632816" data-name="Trazado 632816" d="M-353.751,1161.544l-.017-10.062q1.653-.327,3.307-.647l4.836-.034v10.751Z" transform="translate(144.659 198.301)" fill="#283d5b"/>
    <path id="Trazado_632817" data-name="Trazado 632817" d="M-351.86,1072.44l-8.9-1.286c-1.323-2.264-3.29-4.386-3.827-6.826-1.162-5.26,1.622-8.925,6.122-11.427,4.646-1.065,8.719-.184,11.958,3.53l2.035,7.733A12.53,12.53,0,0,1-351.86,1072.44Z" transform="translate(124.414 18.738)" fill="#fff"/>
    <path id="Trazado_632818" data-name="Trazado 632818" d="M-311.514,1163.943l-4.836.034q-25.763-.047-51.524-.091c-4.567-.005-4.57.009-4.57-4.559,0-5.07,0-10.141,0-15.723h65.522q.038,10.077.073,20.151Z" transform="translate(110.548 185.158)" fill="#fefeff"/>
    <path id="Trazado_632819" data-name="Trazado 632819" d="M-349.188,1164.188q-.038-10.077-.073-20.151a1.442,1.442,0,0,0,.065-.667c.24.359.69.712.693,1.071.051,6.545.048,13.091.048,19.637,0,.082-.113.232-.167.229A3.585,3.585,0,0,1-349.188,1164.188Z" transform="translate(152.889 184.727)" fill="#283d5b"/>
    <path id="Trazado_632820" data-name="Trazado 632820" d="M-344.29,1120.213c.257,3.657.432,7.323.831,10.963a9.788,9.788,0,0,0,1.376,2.877c-2.289,3.6-5.884,4.641-8.711,2.518s-3.078-5.887-.413-8.979C-349.007,1125.043-346.6,1122.666-344.29,1120.213Z" transform="translate(145.941 142.437)" fill="#2a3e5b"/>
  </g>
</svg>
