<svg xmlns="http://www.w3.org/2000/svg" width="262.132" height="300.651" viewBox="0 0 262.132 300.651">
  <g id="Grupo_904008" data-name="Grupo 904008" transform="translate(250.38 -1002)">
    <path id="Trazado_632700" data-name="Trazado 632700" d="M-188.035,1119.74c-.189,4.466-.55,8.932-.5,13.4.029,2.6-.584,3.634-3.388,3.5-4.579-.214-9.175-.022-13.764,0-.4,1.029-1.154,2.057-1.156,3.089-.061,32.776-.037,65.55-.1,98.324,0,1.338-.719,2.676-1.1,4.014q-12.1-.015-24.193-.027a44.293,44.293,0,0,1-.535-4.93q-.044-70.852-.022-141.7,0-32.113.044-64.222l7.383-.6a47.138,47.138,0,0,0,5.34,2.229c12.6,3.592,21.3,11.777,27.134,23.2a41.31,41.31,0,0,1,4.294,19.15c-.022,7.847.049,15.693-.042,23.54-.025,2.028.589,2.774,2.674,2.725,4.8-.11,9.609-.012,14.414,0a7.363,7.363,0,0,1-2.352.967c-3.8.1-7.6.157-11.394,0-2.124-.084-2.954.486-2.873,2.747C-187.988,1110-188.064,1114.876-188.035,1119.74Z" transform="translate(25.591 41.597)" fill="#5581c1"/>
    <path id="Trazado_632701" data-name="Trazado 632701" d="M-207.155,1031.181q-.022,32.11-.044,64.222-.011,70.848.022,141.7a44.293,44.293,0,0,0,.535,4.93c-7.852.019-15.7-.035-23.552.1-2.438.042-2.988-1-2.963-3.177.083-7.262.029-14.525.029-21.789q0-38.127-.007-76.259c0-4.809.594-4.306-4.471-4.333-4.1-.022-8.2-.005-12.713-.005v-3.744c0-19.727.191-39.457-.059-59.181-.221-17.493,12.327-33.861,27.409-39.562,2.787-1.053,5.49-2.328,8.23-3.5q3.793.151,7.589.307Z" transform="translate(0 41.598)" fill="#71aee1"/>
    <path id="Trazado_632702" data-name="Trazado 632702" d="M-214.481,1140.41c-.029-4.864.047-9.735-.133-14.594-.081-2.261.749-2.831,2.873-2.747,3.793.155,7.6.1,11.394,0A7.363,7.363,0,0,0-198,1122.1c.155-1.547.444-3.094.444-4.638q.041-48.361.025-96.723c0-1.075.074-2.148.113-3.223.182-.317.363-.636.543-.953q16.856-.092,33.707-.182,0,8.864-.007,17.733c-4.316,0-8.642.187-12.944-.066-2.922-.172-3.955.6-3.815,3.678.253,5.578.074,11.176.074,16.769,0,21.477.054,42.96-.069,64.438-.017,2.811.869,3.491,3.5,3.415,4.4-.125,8.807.113,13.211.192q.018,8.96.034,17.923c-4.709.022-9.42.11-14.127.032-1.873-.029-2.585.535-2.583,2.5q.077,41.656.012,83.31c0,1.9.651,2.6,2.575,2.57,4.707-.074,9.418.025,14.127.052q.074,8.622.15,17.245a.457.457,0,0,0-.273.4q-15.173-.033-30.341-.069c-3.887-.012-3.889-.039-3.889-3.953q0-49.341-.042-98.684a12.5,12.5,0,0,0-1.009-3.376,5.53,5.53,0,0,0-1.876-.825c-3.712-.079-7.427-.069-11.141-.005a5.236,5.236,0,0,0-1.7.7Z" transform="translate(52.037 20.926)" fill="#3b5071"/>
    <path id="Trazado_632703" data-name="Trazado 632703" d="M-193.649,1098.433q-.015-8.964-.034-17.923c.061-10.383.219-20.773.12-31.161-.027-2.855.908-4.014,3.695-3.707a2.88,2.88,0,0,0,.292,0q57.634-.21,115.269-.378a12.145,12.145,0,0,1,3.295.965c-19.29.027-38.582.091-57.872.027-2.337-.007-2.988.671-2.968,2.981.086,10.574-.007,21.151-.037,31.728-7.852.022-15.7.108-23.555.024-2.1-.022-3.025.447-2.914,2.762.179,3.722.169,7.461.007,11.186-.113,2.563,1.112,3.25,3.361,3.221,4.024-.052,8.05-.093,12.072.008,3.7.093,7.4.378,11.1.577V1132.3c.567.277.737.432.908.435q29.867.092,59.736.159a7.037,7.037,0,0,1-2.362.955c-19.022.054-38.047.15-57.067.012-19.85-.145-39.7-.577-59.547-.751-2.688-.022-3.457-.776-3.425-3.5C-193.445,1119.218-193.6,1108.825-193.649,1098.433Z" transform="translate(82.502 62.955)" fill="#ea6856"/>
    <path id="Trazado_632704" data-name="Trazado 632704" d="M-193.664,1055.026q0-8.868.007-17.733v-34.814a11.091,11.091,0,0,1,2.146-.469q29.852.015,59.7.074l-.081,35.2c-7.554.017-15.114.155-22.666-.01-2.848-.061-3.911.891-3.815,3.683.128,3.626.15,7.267-.01,10.891-.108,2.465.81,3.243,3.238,3.211,7.751-.1,15.5-.007,23.258.01q.037,17.431.079,34.861a27.146,27.146,0,0,1-2.88.295q-27.363.03-54.725.012c-4.115,0-4.1-.012-4.12-4.026Q-193.588,1070.617-193.664,1055.026Z" transform="translate(82.53 0.015)" fill="#ea6856"/>
    <path id="Trazado_632705" data-name="Trazado 632705" d="M-193.517,1141.032q-.074-8.621-.15-17.245V1089.02a13.672,13.672,0,0,1,2.075-.383q29.893.026,59.785.086-.052,17.6-.1,35.2c-7.854.02-15.708.105-23.559.02-2.1-.025-3.025.449-2.914,2.762.177,3.722.16,7.464.007,11.188-.1,2.426.744,3.285,3.209,3.253,7.753-.1,15.512-.007,23.267.012l.064,35.18.01.248q-24.085-.067-48.167-.133c-4.007-.012-8.014,0-12.367,0-.064-1.213-.167-2.244-.167-3.273-.012-9.693.022-19.388-.052-29.081A11.157,11.157,0,0,0-193.517,1141.032Z" transform="translate(82.526 126.069)" fill="#e96654"/>
    <path id="Trazado_632706" data-name="Trazado 632706" d="M-168.437,1176.316l-.064-35.18.118-.118c7.829.022,15.659.01,23.486.091,1.7.017,2.49-.427,2.445-2.3q-.155-6.309,0-12.622c.049-1.9-.8-2.278-2.467-2.264-7.827.076-15.656.064-23.486.084l-.106-.111.1-35.194q30.32-.026,60.644-.054.041,41.935.086,83.87v3.417c-.506.216-.766.427-1.024.427Q-138.573,1176.358-168.437,1176.316Z" transform="translate(119.131 126.088)" fill="#e13239"/>
    <path id="Trazado_632707" data-name="Trazado 632707" d="M-168.419,1089.943q-.041-17.43-.079-34.861l.128-.13c7.849.025,15.7.027,23.55.093,1.52.012,2.384-.29,2.35-2.087q-.129-6.769,0-13.54c.032-1.787-.827-2.1-2.354-2.087-7.849.069-15.7.069-23.55.093l-.125-.128q.041-17.6.081-35.2l60.664-.1c.071,1.166.206,2.332.206,3.5q.022,28.5,0,57c-.007,9.2-.071,18.406-.108,27.61q-28.629-.007-57.254-.022C-166.079,1090.083-167.25,1089.992-168.419,1089.943Z" transform="translate(119.144 0)" fill="#e1333a"/>
    <path id="Trazado_632708" data-name="Trazado 632708" d="M-107.793,1132.318q-29.871-.073-59.736-.159c-.172,0-.341-.157-.908-.435V1098.17l.064-.714c7.923.037,15.845.042,23.766.132,1.711.02,2.18-.695,2.153-2.283-.071-4.206-.1-8.416.01-12.619.049-1.91-.813-2.274-2.475-2.256-7.825.074-15.652.061-23.476.081l-.118-.12c.03-10.574.123-21.151.037-31.725-.02-2.31.631-2.988,2.968-2.981,19.29.064,38.582,0,57.872-.027.088.968.25,1.935.25,2.9q.022,40.311,0,80.625A24.4,24.4,0,0,1-107.793,1132.318Z" transform="translate(119.127 63.527)" fill="#e13239"/>
    <path id="Trazado_632709" data-name="Trazado 632709" d="M-225.391,1061.346l-7.383.6,0-.287v-51.244l4.633-.965c9.978,2.291,17.424,7.486,20.437,17.783.273.933.587,1.854.884,2.779q-.015,5.344-.022,10.685c-1.176,5.944-3.882,11.134-8.622,14.863C-218.443,1057.9-222.06,1059.446-225.391,1061.346Z" transform="translate(25.619 10.836)" fill="#f7ab88"/>
    <path id="Trazado_632710" data-name="Trazado 632710" d="M-212.716,1009.794l-4.633.965V1062q-3.793-.155-7.589-.307c-3.695-2.588-7.761-4.782-11.014-7.839-7.54-7.085-9.489-19.268-5.129-28.607a19.993,19.993,0,0,0,.685-1.917l1.736-2.384.611-1.161,1.149-1.2.007-.007,1.154-1.179.017-.017c.39-.385.778-.773,1.169-1.159l.012-.012,1.223-1.122a29.267,29.267,0,0,1,17.886-5.878A13.851,13.851,0,0,1-212.716,1009.794Z" transform="translate(10.199 10.49)" fill="#ffcfa5"/>
    <path id="Trazado_632711" data-name="Trazado 632711" d="M-222.711,1179.207c.383-1.338,1.1-2.677,1.1-4.014.061-32.774.037-65.547.1-98.324,0-1.031.754-2.06,1.156-3.089q-.029,51.245-.086,102.49C-220.442,1177.668-219.664,1180.013-222.711,1179.207Z" transform="translate(40.263 104.451)" fill="#71aee1"/>
    <path id="Trazado_632712" data-name="Trazado 632712" d="M-214.082,1067.321a5.236,5.236,0,0,1,1.7-.7c3.715-.064,7.429-.074,11.141,0a5.531,5.531,0,0,1,1.876.825Q-206.725,1067.383-214.082,1067.321Z" transform="translate(52.819 93.961)" fill="#5581c1"/>
    <path id="Trazado_632713" data-name="Trazado 632713" d="M-240.423,1013.99l-1.736,2.384Z" transform="translate(11.963 17.447)" fill="#ffe7d1"/>
    <path id="Trazado_632714" data-name="Trazado 632714" d="M-206.869,1016.455c-.179.317-.361.636-.543.953-.111-.2-.223-.4-.336-.6Z" transform="translate(62.036 21.034)" fill="#5581c1"/>
    <path id="Trazado_632715" data-name="Trazado 632715" d="M-240.054,1013.028l-1.149,1.2Z" transform="translate(13.354 16.047)" fill="#ffe7d1"/>
    <path id="Trazado_632716" data-name="Trazado 632716" d="M-239.578,1012.545l-1.154,1.179Z" transform="translate(14.039 15.344)" fill="#ffe7d1"/>
    <path id="Trazado_632717" data-name="Trazado 632717" d="M-239.086,1012.066c-.39.386-.778.773-1.169,1.159C-239.867,1012.839-239.477,1012.452-239.086,1012.066Z" transform="translate(14.734 14.647)" fill="#ffe7d1"/>
    <path id="Trazado_632718" data-name="Trazado 632718" d="M-238.551,1011.6l-1.223,1.122Z" transform="translate(15.433 13.975)" fill="#ffe7d1"/>
    <path id="Trazado_632719" data-name="Trazado 632719" d="M-152.681,1076.868l-.064.714c-3.7-.2-7.4-.484-11.1-.577-4.022-.1-8.048-.059-12.072-.008-2.249.029-3.474-.658-3.361-3.221.162-3.724.172-7.463-.007-11.186-.11-2.315.815-2.784,2.914-2.762,7.852.083,15.7,0,23.555-.024l.118.118Q-152.692,1068.4-152.681,1076.868Z" transform="translate(103.434 84.114)" fill="#e1333a"/>
    <path id="Trazado_632720" data-name="Trazado 632720" d="M-152.791,1034.169c-7.753-.017-15.507-.11-23.258-.01-2.428.032-3.346-.746-3.238-3.211.16-3.624.138-7.265.01-10.891-.1-2.792.967-3.744,3.815-3.683,7.552.165,15.111.027,22.666.01l.125.128q0,8.761.007,17.527Z" transform="translate(103.438 20.913)" fill="#e1333a"/>
    <path id="Trazado_632721" data-name="Trazado 632721" d="M-152.805,1120.243c-7.756-.019-15.514-.115-23.267-.012-2.465.032-3.307-.827-3.209-3.253.152-3.724.169-7.466-.007-11.188-.11-2.313.81-2.787,2.914-2.762,7.852.086,15.705,0,23.559-.019l.106.105.022,17.011Z" transform="translate(103.435 146.981)" fill="#e1333a"/>
    <path id="Trazado_632722" data-name="Trazado 632722" d="M-168.446,1120.111l-.022-17.012c7.829-.017,15.659-.005,23.486-.081,1.672-.015,2.517.361,2.467,2.264q-.162,6.309,0,12.622c.044,1.871-.741,2.315-2.445,2.3C-152.787,1120.121-160.617,1120.133-168.446,1120.111Z" transform="translate(119.194 146.995)" fill="#c0141e"/>
    <path id="Trazado_632723" data-name="Trazado 632723" d="M-168.444,1034.012q0-8.765-.007-17.527c7.852-.024,15.7-.024,23.55-.093,1.527-.012,2.386.3,2.354,2.087q-.122,6.768,0,13.54c.034,1.8-.83,2.1-2.35,2.087C-152.745,1034.039-160.595,1034.037-168.444,1034.012Z" transform="translate(119.218 20.941)" fill="#c0141e"/>
    <path id="Trazado_632724" data-name="Trazado 632724" d="M-168.444,1076.847q-.011-8.471-.022-16.945c7.825-.02,15.652-.008,23.476-.081,1.662-.017,2.524.346,2.475,2.256-.11,4.2-.081,8.414-.01,12.619.027,1.588-.442,2.3-2.153,2.283C-152.6,1076.889-160.521,1076.884-168.444,1076.847Z" transform="translate(119.196 84.135)" fill="#c0141e"/>
  </g>
</svg>
