<svg xmlns="http://www.w3.org/2000/svg" width="135" height="136" viewBox="0 0 135 136">
  <g id="Grupo_909101" data-name="Grupo 909101" transform="translate(-525.42 -8972)">
    <ellipse id="Elipse_7123" data-name="Elipse 7123" cx="67.5" cy="68" rx="67.5" ry="68" transform="translate(525.42 8972)" fill="#f1b62b"/>
    <g id="Grupo_904067" data-name="Grupo 904067" transform="translate(1116.668 8312.649)">
      <path id="Trazado_633126" data-name="Trazado 633126" d="M-545.567,756.708q0,8.941.008,17.882c0,.917,0,1.834,0,2.751a4.648,4.648,0,0,1-.076.577l-.088.281a1.753,1.753,0,0,1-1.646.944c-5.236.008-10.471,0-15.707.01a1.87,1.87,0,0,1-1.61-.823,2.085,2.085,0,0,1-.166-1.1q-.013-10.035-.006-20.07v-.551h-1.758c-.995,0-1.99-.013-2.985,0a1.588,1.588,0,0,1-1.679-1.671c-.035-1.224-.01-2.449-.01-3.674,0-3.751-.029-7.5.018-11.252a11.045,11.045,0,0,1,.417-3.161,10.978,10.978,0,0,1,3.087-4.8,15.518,15.518,0,0,1,2.779-1.945,5.909,5.909,0,0,1,1.283-.427c.344-.1.693-.191,1.129-.311-1.551-3.837-.534-7.043,2.549-9.643a7.121,7.121,0,0,1,5.491-1.7,8.049,8.049,0,0,1,6.127,3.937,7.739,7.739,0,0,1,.551,7.324c.984.383,1.925.715,2.836,1.113a9.617,9.617,0,0,1,3.052,2.35,9.2,9.2,0,0,1,2.092,3.34,11.144,11.144,0,0,1,.727,3.659c-.034,5.021,0,10.043-.025,15.064a1.6,1.6,0,0,1-1.8,1.789c-1.515.019-3.031.009-4.546.012Zm-13.285-24.423-.371.181-1.828.03-1.225.207-.168.018-.375.173a1.26,1.26,0,0,0-.362.045,8.249,8.249,0,0,0-3.761,3.173,7.125,7.125,0,0,0-1.11,3.86q0,6.5,0,13c0,.132.011.264.017.4h3.186V737.307h3.213v38.58h4.8V753.411h3.232v22.466h4.8V737.319h3.255v16.043h3.144c0-3.719.019-7.408-.009-11.1a14.231,14.231,0,0,0-.336-4.476,7.29,7.29,0,0,0-1.257-2.383,10.535,10.535,0,0,0-2.018-1.784,8.62,8.62,0,0,0-1.613-.727l-.376-.173-.168-.018-1.225-.209-1.827-.028-.371-.182a1.734,1.734,0,0,1-.481-2.644,5.628,5.628,0,0,0,1.315-1.937,4.339,4.339,0,0,0-.459-4.176,4.319,4.319,0,0,0-2.439-1.96c-.407-.13-.846-.157-1.265-.256a3.313,3.313,0,0,0-2.243.377,5.123,5.123,0,0,0-2.578,2.881,3.855,3.855,0,0,0-.168,2.5,5.265,5.265,0,0,0,1.581,2.6A1.736,1.736,0,0,1-558.852,732.285Z" transform="translate(-0.003 -28.538)" fill="#090b0b"/>
      <path id="Trazado_633127" data-name="Trazado 633127" d="M-438.452,704.434l-.031.165-.188.829c-.129.656-.247,1.315-.39,1.968a19.9,19.9,0,0,1-.478,1.937c-.208.634-.775.833-1.376.977-.881.212-1.4-.383-1.95-.859-.9-.774-1.762-1.589-2.65-2.376a.352.352,0,0,0-.322-.045c-.9.547-1.781,1.143-2.7,1.66-.856.481-1.751.9-2.641,1.315-.65.3-1.315.58-1.984.841-.685.268-1.383.5-2.076.751-.574.2-1.142.435-1.729.6-.864.237-1.735.464-2.616.618-1.346.236-2.7.457-4.056.59-1.39.136-2.791.193-4.189.222-1.714.036-3.429.007-5.143.01a1.591,1.591,0,0,1-1.55-.745,2.028,2.028,0,0,1-.275-.915c-.024-2.082-.032-4.164,0-6.245a1.681,1.681,0,0,1,.713-1.5,1.4,1.4,0,0,1,.651-.244c.9-.031,1.807,0,2.709-.027,1.387-.046,2.778-.068,4.157-.207a32.939,32.939,0,0,0,3.9-.629,37.979,37.979,0,0,0,3.774-1.088c1.346-.452,2.685-.94,3.984-1.51,1.089-.478,2.122-1.086,3.165-1.664.153-.085.356-.21.115-.536-.731-.99-1.406-2.024-2.058-3.069a1.728,1.728,0,0,1,1.5-2.574c4.715-.005,9.43.014,14.145-.013a1.812,1.812,0,0,1,1.636,2.509,11.287,11.287,0,0,0-.435,2.055c-.245,1.122-.518,2.238-.758,3.36-.166.777-.3,1.561-.443,2.342l-.186.659-.026.329Zm-22.233,5.171.12-.01.4-.024c.962-.253,1.933-.479,2.885-.768a30.277,30.277,0,0,0,3.052-1.041,40.081,40.081,0,0,0,3.659-1.769c1.337-.735,2.618-1.57,3.924-2.36a1.962,1.962,0,0,1,2.253.123c.433.423.9.812,1.363,1.2.3.252.616.48.96.746.737-3.312,1.449-6.514,2.166-9.737h-9.34c.315.49.607.924.877,1.372a5.483,5.483,0,0,1,.828,1.511,1.593,1.593,0,0,1-.924,1.77c-1.516.852-2.986,1.793-4.529,2.59-1.16.6-2.4,1.042-3.616,1.527-.652.26-1.32.48-1.992.682-.629.189-1.272.331-1.909.493-.89.227-1.77.515-2.673.665-1.191.2-2.4.287-3.6.423-.427.006-.855,0-1.281.025-.1.005-.189.1-.284.156l-1.376.021-1.83.068v3.2l7.608-.28.832-.178.547-.026.831-.153.178-.018.1-.009.17-.01Z" transform="translate(-59.552 -12.91)" fill="#090b0b"/>
      <path id="Trazado_633128" data-name="Trazado 633128" d="M-473.389,848.267l7.042.009,2.166.194.62.087.634.034c.915.137,1.837.238,2.743.422.855.174,1.692.436,2.537.657.768.2,1.555.347,2.3.606,1.186.411,2.363.859,3.513,1.36s2.309,1.068,3.433,1.66c.859.453,1.669,1,2.509,1.485a.413.413,0,0,0,.37.013c.915-.807,1.809-1.638,2.722-2.447a5.787,5.787,0,0,1,.708-.467,3.726,3.726,0,0,1,.4-.188,2.145,2.145,0,0,1,1.548.2c.206.222.514.412.6.673.217.687.335,1.405.495,2.111.233,1.028.47,2.056.7,3.084.165.736.324,1.474.488,2.21.242,1.088.494,2.173.727,3.263.176.826.322,1.658.491,2.484a8.282,8.282,0,0,0,.272,1.117,1.718,1.718,0,0,1-1.581,2.359c-1.362.036-2.725.009-4.087.009-3.368,0-6.737-.036-10.1.021a1.756,1.756,0,0,1-1.75-1.918,5.145,5.145,0,0,1,.713-1.483c.293-.487.66-.93.986-1.4a7.194,7.194,0,0,1,.544-.826c.312-.337.057-.458-.174-.583-.632-.341-1.267-.678-1.911-.994-.973-.478-1.937-.987-2.941-1.392-1.146-.464-2.33-.837-3.5-1.232-.352-.118-.724-.176-1.087-.262l-.559-.18-.261-.026-.657-.165-.17-.016-.871-.211-.445-.083-.355-.031c-.773-.1-1.544-.242-2.32-.276-2.046-.09-4.095-.188-6.141-.168a1.7,1.7,0,0,1-1.759-1.784q-.032-3.075,0-6.151a1.572,1.572,0,0,1,.578-1.358l.263-.2a.066.066,0,0,1,.064-.018Zm1.839,6.439c.955,0,1.861-.05,2.759.012,1.288.089,2.574.23,3.853.4,1.245.168,2.491.353,3.715.627,1.148.257,2.275.621,3.4.974.694.217,1.373.487,2.046.763q1.12.459,2.215.975c1,.474,2.015.927,2.973,1.477A23.106,23.106,0,0,1-448,861.679a1.527,1.527,0,0,1,.188,2.082c-.34.486-.666.981-1,1.472-.148.22-.294.441-.465.7h9.373c-.768-3.229-1.388-6.462-2.2-9.74-.858.732-1.6,1.371-2.354,2.005a1.781,1.781,0,0,1-1.824.278c-.748-.462-1.47-.969-2.227-1.416-1.112-.657-2.215-1.345-3.379-1.9-1.193-.565-2.448-1-3.69-1.458-.966-.354-1.945-.682-2.935-.962-.756-.214-1.546-.306-2.308-.5a28.763,28.763,0,0,0-5.456-.673c-1.663-.1-3.336-.04-5-.049-.087,0-.174.013-.275.021Z" transform="translate(-59.551 -108.947)" fill="#090b0b"/>
      <path id="Trazado_633129" data-name="Trazado 633129" d="M-450.716,777.462c0-1.165.005-2.266,0-3.367,0-.67.49-.983.953-1.271a1.526,1.526,0,0,1,1.787.2c1.147.771,2.345,1.464,3.514,2.2,1.144.724,2.271,1.477,3.418,2.2.886.556,1.794,1.079,2.689,1.621,1.016.616,2.032,1.232,3.042,1.858a1.988,1.988,0,0,1,.564,1.72c-.147.849-.774,1.134-1.415,1.495-.8.448-1.529,1.007-2.306,1.489-1.581.98-3.183,1.928-4.761,2.914-1.308.817-2.595,1.669-3.894,2.5a8.787,8.787,0,0,1-1.437.852,1.492,1.492,0,0,1-1.062-.027,1.669,1.669,0,0,1-1.093-1.744c.063-.974.015-1.956.015-2.991h-.5c-7.258,0-14.516-.014-21.773.015a1.717,1.717,0,0,1-1.828-1.83c.005-1.99-.023-3.982.02-5.971a2.76,2.76,0,0,1,.413-1.374,1.34,1.34,0,0,1,1.16-.489c1.7.009,3.4,0,5.1,0h17.4Zm-20.832,6.431h.585q10.792,0,21.584.012a2.636,2.636,0,0,1,1.15.294,1.572,1.572,0,0,1,.732,1.456c.031.541.006,1.086.006,1.681a1.948,1.948,0,0,0,.315-.117c1.013-.643,2.022-1.293,3.036-1.935q2.224-1.407,4.455-2.8c.239-.149.294-.243.022-.411-1.08-.668-2.153-1.348-3.231-2.019-1.005-.625-2.015-1.243-3.022-1.864-.5-.311-1.009-.625-1.575-.976,0,.624-.02,1.144,0,1.663a1.818,1.818,0,0,1-1.831,1.815c-7.225-.02-14.451-.011-21.676-.011h-.555Z" transform="translate(-59.556 -62.253)" fill="#070706"/>
      <path id="Trazado_633130" data-name="Trazado 633130" d="M-345.467,673.147c.008.2.023.4.023.594q0,6.072,0,12.145c0,.183-.015.366-.023.549l-.22.491a.1.1,0,0,1-.006.08l-.158.218a1.46,1.46,0,0,1-1.335.621q-6.362.037-12.724,0a1.543,1.543,0,0,1-1.61-1.632c-.019-4.256-.029-8.513.006-12.769a1.566,1.566,0,0,1,1.736-1.7c4.18.011,8.36,0,12.54.011a1.472,1.472,0,0,1,1.573.966Zm-3.256,1.842h-9.547v9.6h9.547Z" transform="translate(-129.469 -0.001)" fill="#070706"/>
      <path id="Trazado_633131" data-name="Trazado 633131" d="M-360.263,898.163c-2.647,0-5.3-.043-7.941.023a1.85,1.85,0,0,1-1.647-2.008,9.147,9.147,0,0,1,.91-1.776c.315-.539.69-1.042,1.024-1.57.863-1.364,1.716-2.734,2.576-4.1.676-1.076,1.364-2.145,2.032-3.225.55-.889,1.08-1.791,1.615-2.688a2.241,2.241,0,0,1,1.617-.669c1.024.083,1.373.894,1.822,1.594.934,1.458,1.851,2.928,2.765,4.4q1.491,2.4,2.961,4.811c.6.976,1.161,1.971,1.763,2.942.346.558.047,1.018-.2,1.46a1.583,1.583,0,0,1-1.54.82C-355.09,898.145-357.677,898.163-360.263,898.163Zm5.108-3.255-5-7.978-.182-.048c-1.7,2.629-3.3,5.324-5.018,8.026Z" transform="translate(-124.314 -129.857)" fill="#090b0b"/>
      <path id="Trazado_633132" data-name="Trazado 633132" d="M-353.662,792.942a8.017,8.017,0,0,1-7.82-8.228,7.946,7.946,0,0,1,8.1-7.858,8.027,8.027,0,0,1,7.95,8.022A8.286,8.286,0,0,1-353.662,792.942Zm4.982-7.966a4.949,4.949,0,0,0-4.779-4.888,4.815,4.815,0,0,0-4.779,4.462c-.007,3.225,1.946,5.146,5.095,5.141A4.786,4.786,0,0,0-348.68,784.976Z" transform="translate(-129.499 -64.872)" fill="#090b0b"/>
      <path id="Trazado_633133" data-name="Trazado 633133" d="M-571.3,678.154c0-1.581-.033-3.128.011-4.671a1.593,1.593,0,0,1,1.748-1.734c1.544.019,3.089,0,4.664,0v3.193h-3.165v3.208Z" fill="#070706"/>
      <path id="Trazado_633134" data-name="Trazado 633134" d="M-568.052,910.383h3.184v3.25h-2.015c-.9,0-1.807-.041-2.706.01a1.622,1.622,0,0,1-1.687-1.675c-.044-1.573-.013-3.149-.013-4.757h3.237Z" transform="translate(-0.004 -145.327)" fill="#070706"/>
      <path id="Trazado_633135" data-name="Trazado 633135" d="M-546.149,918.787v-3.173h8.028v3.173Z" transform="translate(-15.527 -150.513)" fill="#090b0b"/>
      <path id="Trazado_633136" data-name="Trazado 633136" d="M-546.132,675.007v-3.155h8.019v3.155Z" transform="translate(-15.538 -0.065)" fill="#070706"/>
      <path id="Trazado_633137" data-name="Trazado 633137" d="M-568.034,705.071h-3.195v-8.023h3.195Z" transform="translate(-0.048 -15.615)" fill="#070706"/>
      <path id="Trazado_633138" data-name="Trazado 633138" d="M-571.19,877.726h3.174v8.035h-3.174Z" transform="translate(-0.072 -127.129)" fill="#070706"/>
      <path id="Trazado_633139" data-name="Trazado 633139" d="M-450.519,848.418l-2.166-.194A4.355,4.355,0,0,1-450.519,848.418Z" transform="translate(-73.213 -108.895)" fill="#514f54"/>
      <path id="Trazado_633140" data-name="Trazado 633140" d="M-387.376,856.98a2.145,2.145,0,0,0-1.548-.2,3.718,3.718,0,0,0-.4.188c0-.045-.016-.107.006-.132A1.4,1.4,0,0,1-387.376,856.98Z" transform="translate(-112.317 -114.032)" fill="#9b999d"/>
      <path id="Trazado_633141" data-name="Trazado 633141" d="M-446,875.1l.871.211C-445.436,875.332-445.776,875.466-446,875.1Z" transform="translate(-77.342 -125.509)" fill="#514f54"/>
      <path id="Trazado_633142" data-name="Trazado 633142" d="M-380.388,724.67l.188-.829A.675.675,0,0,1-380.388,724.67Z" transform="translate(-117.834 -32.152)" fill="#9b999d"/>
      <path id="Trazado_633143" data-name="Trazado 633143" d="M-443.274,875.7l.657.165Z" transform="translate(-79.021 -125.875)" fill="#514f54"/>
      <path id="Trazado_633144" data-name="Trazado 633144" d="M-379.24,720.141l.186-.659Z" transform="translate(-118.543 -29.461)" fill="#9b999d"/>
      <path id="Trazado_633145" data-name="Trazado 633145" d="M-440.876,876.193l.559.18Z" transform="translate(-80.501 -126.183)" fill="#514f54"/>
      <path id="Trazado_633146" data-name="Trazado 633146" d="M-379.816,722.579l.194-.515Z" transform="translate(-118.187 -31.055)" fill="#9b999d"/>
      <path id="Trazado_633147" data-name="Trazado 633147" d="M-444.773,849.056l-.634-.034Z" transform="translate(-77.705 -109.413)" fill="#514f54"/>
      <path id="Trazado_633148" data-name="Trazado 633148" d="M-471.9,848.267l-.509.2Z" transform="translate(-61.038 -108.947)" fill="#514f54"/>
      <path id="Trazado_633149" data-name="Trazado 633149" d="M-320.131,710.606l.22-.491Z" transform="translate(-155.024 -23.68)" fill="#514f54"/>
      <path id="Trazado_633150" data-name="Trazado 633150" d="M-319.876,674.723l-.2-.421Z" transform="translate(-155.059 -1.577)" fill="#514f54"/>
      <path id="Trazado_633151" data-name="Trazado 633151" d="M-448.084,874.8l.355.031Z" transform="translate(-76.053 -125.325)" fill="#514f54"/>
      <path id="Trazado_633152" data-name="Trazado 633152" d="M-473,848.849l-.263.2Z" transform="translate(-60.511 -109.306)" fill="#514f54"/>
      <path id="Trazado_633153" data-name="Trazado 633153" d="M-504.491,874.827l.088-.281Z" transform="translate(-41.238 -125.166)" fill="#514f54"/>
      <path id="Trazado_633154" data-name="Trazado 633154" d="M-320.56,711.824l.159-.218Z" transform="translate(-154.76 -24.6)" fill="#514f54"/>
      <path id="Trazado_633155" data-name="Trazado 633155" d="M-504.075,818.993l.041-.091Z" transform="translate(-41.495 -90.823)" fill="#514f54"/>
      <path id="Trazado_633156" data-name="Trazado 633156" d="M-542.4,738.15a8.624,8.624,0,0,1,1.613.727,10.534,10.534,0,0,1,2.018,1.784,7.29,7.29,0,0,1,1.257,2.383,14.228,14.228,0,0,1,.336,4.476c.028,3.689.009,7.378.009,11.1h-3.144V742.575h-3.255v38.559h-4.8V758.667H-551.6v22.476h-4.8v-38.58h-3.213v16.063H-562.8c-.006-.134-.017-.267-.017-.4q0-6.5,0-13a7.125,7.125,0,0,1,1.11-3.86,8.248,8.248,0,0,1,3.761-3.173,1.26,1.26,0,0,1,.362-.045l.376-.173.168-.018c.418-.013.867.16,1.225-.207l1.828-.03.371-.181a1.736,1.736,0,0,0,.506-2.609,5.265,5.265,0,0,1-1.581-2.6,3.855,3.855,0,0,1,.168-2.5,5.123,5.123,0,0,1,2.578-2.881,3.314,3.314,0,0,1,2.243-.377c.418.1.857.126,1.265.256a4.319,4.319,0,0,1,2.439,1.96,4.339,4.339,0,0,1,.459,4.176,5.629,5.629,0,0,1-1.315,1.937,1.734,1.734,0,0,0,.481,2.644l.372.182,1.827.028c.357.372.807.194,1.225.209l.168.018Z" transform="translate(-5.241 -33.793)" fill="#d0dff3"/>
      <path id="Trazado_633157" data-name="Trazado 633157" d="M-546.5,755.893c-.358.366-.807.193-1.225.207Z" transform="translate(-14.555 -51.934)" fill="#9b999d"/>
      <path id="Trazado_633158" data-name="Trazado 633158" d="M-512.892,756.1c-.418-.015-.869.162-1.225-.209Z" transform="translate(-35.297 -51.93)" fill="#9b999d"/>
      <path id="Trazado_633159" data-name="Trazado 633159" d="M-548.77,756.481l-.375.173Z" transform="translate(-13.678 -52.297)" fill="#9b999d"/>
      <path id="Trazado_633160" data-name="Trazado 633160" d="M-510.1,756.654l-.376-.173Z" transform="translate(-37.545 -52.297)" fill="#9b999d"/>
      <path id="Trazado_633161" data-name="Trazado 633161" d="M-519.489,755.521l-.372-.182Z" transform="translate(-31.752 -51.592)" fill="#9b999d"/>
      <path id="Trazado_633162" data-name="Trazado 633162" d="M-539.377,755.34l-.371.181Z" transform="translate(-19.478 -51.593)" fill="#9b999d"/>
      <path id="Trazado_633163" data-name="Trazado 633163" d="M-461.519,712.323c1.2-.136,2.411-.225,3.6-.423.9-.15,1.783-.438,2.673-.665.637-.162,1.28-.3,1.909-.493.672-.2,1.341-.423,1.992-.682,1.215-.485,2.456-.929,3.616-1.527,1.544-.8,3.013-1.737,4.529-2.59a1.593,1.593,0,0,0,.924-1.77,5.485,5.485,0,0,0-.828-1.511c-.27-.448-.563-.882-.877-1.372h9.34c-.717,3.223-1.429,6.425-2.166,9.737-.344-.266-.662-.494-.96-.746-.463-.391-.93-.78-1.363-1.2a1.962,1.962,0,0,0-2.253-.123c-1.306.79-2.587,1.626-3.924,2.36a40.106,40.106,0,0,1-3.659,1.769,30.287,30.287,0,0,1-3.052,1.041c-.952.288-1.923.514-2.885.768l-.4.024-.12.01-.6.194-.17.01-.1.009-.178.018-.831.153-.547.026a.669.669,0,0,0-.832.178l-7.608.28v-3.2l1.83-.068,1.376-.021a5.922,5.922,0,0,0,.934.059A2.408,2.408,0,0,0-461.519,712.323Z" transform="translate(-64.816 -18.233)" fill="#dd2430"/>
      <path id="Trazado_633164" data-name="Trazado 633164" d="M-456.349,730.111a2.408,2.408,0,0,1-.631.24,5.922,5.922,0,0,1-.934-.059c.095-.054.187-.151.284-.156C-457.2,730.114-456.776,730.117-456.349,730.111Z" transform="translate(-69.985 -36.022)" fill="#9a1f26"/>
      <path id="Trazado_633165" data-name="Trazado 633165" d="M-446.415,738.048a.669.669,0,0,1,.832-.178Z" transform="translate(-77.083 -40.766)" fill="#971d23"/>
      <path id="Trazado_633166" data-name="Trazado 633166" d="M-464.46,730.639l-1.83.068Z" transform="translate(-64.816 -36.347)" fill="#9a1f26"/>
      <path id="Trazado_633167" data-name="Trazado 633167" d="M-442.812,737.671l.831-.153Z" transform="translate(-79.306 -40.593)" fill="#971d23"/>
      <path id="Trazado_633168" data-name="Trazado 633168" d="M-439.46,737.111l.6-.194Z" transform="translate(-81.375 -40.222)" fill="#971d23"/>
      <path id="Trazado_633169" data-name="Trazado 633169" d="M-437.583,736.851l.4-.025Z" transform="translate(-82.534 -40.166)" fill="#971d23"/>
      <path id="Trazado_633170" data-name="Trazado 633170" d="M-440.176,737.458l.1-.009Z" transform="translate(-80.933 -40.551)" fill="#971d23"/>
      <path id="Trazado_633171" data-name="Trazado 633171" d="M-466.277,859.926v-3.169c.1-.008.188-.022.275-.021,1.669.009,3.342-.055,5,.049a28.764,28.764,0,0,1,5.456.673c.762.2,1.552.289,2.308.5.99.28,1.968.607,2.935.962,1.242.455,2.5.893,3.69,1.458,1.164.552,2.267,1.239,3.379,1.9.757.447,1.478.953,2.227,1.416a1.781,1.781,0,0,0,1.824-.278c.75-.634,1.5-1.274,2.354-2.005.812,3.278,1.432,6.512,2.2,9.74H-444c.171-.256.317-.477.466-.7.332-.492.657-.987,1-1.472a1.527,1.527,0,0,0-.188-2.082,23.117,23.117,0,0,0-2.593-1.742c-.958-.55-1.973-1-2.973-1.477q-1.094-.517-2.215-.975c-.673-.276-1.353-.545-2.047-.763-1.125-.353-2.251-.717-3.4-.974-1.224-.274-2.471-.459-3.715-.627-1.279-.173-2.565-.315-3.853-.4C-464.416,859.876-465.322,859.926-466.277,859.926Z" transform="translate(-64.824 -114.167)" fill="#dd2430"/>
      <path id="Trazado_633172" data-name="Trazado 633172" d="M-466.285,791.306v-3.216h.555c7.225,0,14.451-.009,21.676.011a1.818,1.818,0,0,0,1.831-1.815c-.025-.519,0-1.039,0-1.662.567.351,1.07.665,1.575.976,1.007.622,2.017,1.24,3.022,1.864,1.078.671,2.151,1.351,3.231,2.019.272.168.217.262-.022.411q-2.234,1.391-4.455,2.8c-1.014.642-2.023,1.292-3.036,1.935a1.935,1.935,0,0,1-.315.117c0-.6.024-1.14-.007-1.681a1.572,1.572,0,0,0-.732-1.455,2.635,2.635,0,0,0-1.15-.294q-10.792-.025-21.585-.012Z" transform="translate(-64.819 -69.667)" fill="#de2430"/>
      <path id="Trazado_633173" data-name="Trazado 633173" d="M-343.454,680.215v9.6H-353v-9.6Z" transform="translate(-134.737 -5.226)" fill="#ffbf22"/>
      <path id="Trazado_633174" data-name="Trazado 633174" d="M-347.839,902.543h-10.2c1.716-2.7,3.315-5.4,5.018-8.026l.182.048Z" transform="translate(-131.63 -137.492)" fill="#009fd1"/>
      <path id="Trazado_633175" data-name="Trazado 633175" d="M-343.439,790.188A4.786,4.786,0,0,1-347.9,794.9c-3.149.006-5.1-1.916-5.095-5.141a4.815,4.815,0,0,1,4.779-4.462A4.949,4.949,0,0,1-343.439,790.188Z" transform="translate(-134.74 -70.084)" fill="#57a54e"/>
    </g>
  </g>
</svg>
