<svg xmlns="http://www.w3.org/2000/svg" width="136" height="136" viewBox="0 0 136 136">
  <g id="Grupo_909098" data-name="Grupo 909098" transform="translate(-390 -8396)">
    <circle id="Elipse_7120" data-name="Elipse 7120" cx="68" cy="68" r="68" transform="translate(390 8396)" fill="#f1b62b"/>
    <g id="Grupo_904062" data-name="Grupo 904062" transform="translate(405.98 8405.697)">
      <path id="Trazado_632848" data-name="Trazado 632848" d="M-246.418,275.806h.55c.256.091.507.2.768.269a25.5,25.5,0,0,1,2.741.722A17.7,17.7,0,0,1-239.6,278.2a9.988,9.988,0,0,1,1.969,1.511,23.976,23.976,0,0,1,2.3,2.743,15.962,15.962,0,0,1,1.114,2.142l.194.377.021.146.138.224.037.241.2.417.052.345.136.387.026.258.174.562c.069.686.178,1.372.2,2.06a14.747,14.747,0,0,1-.092,2.131,20.2,20.2,0,0,1-.444,2.507,12.576,12.576,0,0,1-1.083,2.644,14.579,14.579,0,0,1-2.282,3.283,26.442,26.442,0,0,1-5.037,3.781,1.379,1.379,0,0,0-.813,1.314c.044,1.375-.093,2.756-.121,4.135a4.915,4.915,0,0,1-.6,2.068,5.785,5.785,0,0,1-2.347,2.569l-.27.193a.118.118,0,0,1-.069.019l-.308.165-.149.02-.237.2-.165.024-.386.153-.256.032-.651.181-2.087,0-.561-.172-.257-.032-.384-.154-.167-.025-.24-.2-.141-.018-.654-.381a6.033,6.033,0,0,1-2.94-4.317l-.182-.823q-.01-2.153-.02-4.307l-.248-.25q-1.134-.785-2.268-1.571c-.551-.383-1.127-.736-1.642-1.162-.735-.608-1.424-1.27-2.178-1.948a5.149,5.149,0,0,0-.061.573q-.005,6.258,0,12.515c0,.7.022.754.7.867a6.66,6.66,0,0,1,3.534,1.767c.845.8,1.712,1.576,2.49,2.435,1.636,1.808,3.253,3.635,4.812,5.508a38.67,38.67,0,0,1,2.375,3.289c.6.892,1.12,1.832,1.65,2.765.722,1.274,1.449,2.547,2.118,3.849.457.891.81,1.834,1.226,2.747a3.249,3.249,0,0,0,.609,1.115c1.072.944,2.212,1.811,3.317,2.72.912.75,1.81,1.517,2.713,2.278,1.187,1,2.38,1.993,3.549,3.013a.906.906,0,0,1,.258.615q.018,15.494.01,30.989c0,.132-.013.263-.021.413-2.351,0-4.672-.009-6.992.01a.737.737,0,0,1-.7-.393c-.768-1.144-1.563-2.27-2.343-3.406q-1.568-2.282-3.128-4.568-1.159-1.7-2.313-3.394c-.726-1.073-1.434-2.157-2.17-3.223-.694-1-1.425-1.983-2.121-2.987q-1.846-2.663-3.669-5.343c-.565-.827-1.1-1.679-1.69-2.484a1.367,1.367,0,0,0-.776-.506c-.842-.148-1.7-.208-2.552-.3-.274-.03-.548-.058-.872-.093v.6q0,8.55,0,17.1a13.574,13.574,0,0,1-.1,1.552,4.52,4.52,0,0,1-1.962,3.257,5.744,5.744,0,0,1-3.388.976q-19.068-.006-38.137,0h-.646c.083.935.1,1.82.26,2.676.105.546-.109.532-.494.532q-11.138-.008-22.277,0h-.564c.054-.305.1-.538.135-.773.122-.874.244-1.749.357-2.624q.139-1.075.259-2.153c.081-.717.146-1.435.228-2.152.105-.917.221-1.832.331-2.747l.164-1.015.08-.8.16-.416-.01-.368.036-.622a.965.965,0,0,0,0-1.185l-.021-.17-.206-.41-.02-.158-.156-.4-.044-.246-.169-.371c-.058-.184-.114-.367-.173-.551-.247-.77-.5-1.539-.742-2.309-.158-.494-.331-.984-.462-1.486-.153-.584-.247-1.182-.4-1.765-.244-.91-.536-1.808-.777-2.719-.207-.786-.374-1.582-.554-2.375-.216-.957-.449-1.912-.632-2.875-.164-.861-.261-1.736-.4-2.6-.188-1.133-.421-2.258-.583-3.394-.215-1.514-.4-3.033-.559-4.554-.1-.973-.136-1.954-.215-2.931-.044-.533-.117-1.064-.178-1.6.058-.077.164-.153.166-.231a7.8,7.8,0,0,0-.031-.95c-.035-.367-.1-.732-.151-1.1l-.016-1.293.025-4.857,0-.642a9.148,9.148,0,0,1,.463-1.107,5.4,5.4,0,0,1,4.023-2.843l1.284,0,.733.085v-.6q0-15.334-.005-30.669a4.714,4.714,0,0,1,.353-1.732,4.9,4.9,0,0,1,4.454-3.036q15.241.022,30.483.006,12.629,0,25.257.015a5.327,5.327,0,0,1,1.63.337,7.056,7.056,0,0,1,1.1.613c.234.13.405.2.6-.14a19.985,19.985,0,0,1,1.235-1.837,13.032,13.032,0,0,1,3.925-3.5,19.628,19.628,0,0,1,3.21-1.422,16.452,16.452,0,0,1,2.116-.5l1.008-.092q2.915.01,5.831.016C-246.505,275.9-246.462,275.837-246.418,275.806Zm-1.752,24.03-.067-.74-.054-.722-.154-1.292-.027-.635a2.836,2.836,0,0,0-.009-.68c-.029-.117-.215-.2-.329-.294l-1.164.006c-.09.064-.244.116-.259.194a2.962,2.962,0,0,0,0,.588l-.026.544-.156,1.382-.033.268-.174,1.381-.169,2.084h2.866Zm-.53,11.838a1.374,1.374,0,0,0,.406-.048,2.971,2.971,0,0,0,1.986-2.19c.193-1.342.177-2.715.252-4.088h-6.533c0,.973-.033,1.919.013,2.861a5.119,5.119,0,0,0,.295,1.674,2.828,2.828,0,0,0,2.189,1.786A1.308,1.308,0,0,0-248.7,311.674Zm-36.35,21.193-.2-.6-.019-.239,0-.115-.013-.447V331.1l.015-.538,0-.116.018-.239.193-.6a6.972,6.972,0,0,1,.319-1.057,6.744,6.744,0,0,1,2.854-3.022c.117-.065.221-.153.332-.23a2.3,2.3,0,0,0-.408-.374.9.9,0,0,0-.406-.029q-2.84,0-5.681,0c-.176,0-.351.032-.523.049v9.637h4.129Zm-25.263,38.849-.031-.529c-.009-.419.159-.867-.2-1.229l-.026-.337-.157-1.222-.025-.337-.192-1.3c-.071-.707-.135-1.414-.216-2.119-.042-.357-.166-.567-.626-.564-4.077.023-8.154.014-12.23.014-.644,0-.65,0-.746.632-.012.075-.014.152-.022.228-.1.958-.2,1.918-.308,2.875-.155,1.327-.321,2.652-.482,3.978l-.187,1.212-.021.339-.165.377a1.453,1.453,0,0,0,.478.19q7.528.015,15.055,0c.146,0,.42-.1.418-.141a3.713,3.713,0,0,0-.15-.68l-.018-.354Zm61.258-80.777v-1.012l.19-.825.025-.168.375-.767.024-.09.147-.195c.071-.109.14-.22.213-.328a4.348,4.348,0,0,1,2.9-1.81,4.15,4.15,0,0,1,3.023.443,6.466,6.466,0,0,1,1.573,1.273,4.2,4.2,0,0,1,.908,1.9,5.056,5.056,0,0,1-.813,4.169,4.328,4.328,0,0,1-2.9,1.818l-.163.029-.371.078-.3.005h-.793c-.094.038-.272.085-.269.114.042.408.108.813.168,1.219l.018.459c.016.533-.177,1.093.207,1.578l.009.172a4.527,4.527,0,0,0-.027.766,9.55,9.55,0,0,0,.221.977l.01.281c-.008.008-.023.018-.021.024a.355.355,0,0,0,.023.059l.033.579a4.893,4.893,0,0,0,.653-.318c.91-.623,1.791-1.291,2.718-1.886a10.285,10.285,0,0,0,3.438-3.658,11.079,11.079,0,0,0,1.224-2.969,12.721,12.721,0,0,0,.186-4.031,7.362,7.362,0,0,0-.414-2.011,12.95,12.95,0,0,0-1.622-3.051,11.911,11.911,0,0,0-2.139-2.248,9.633,9.633,0,0,0-2.9-1.6,9.792,9.792,0,0,0-2.973-.661c-1.619-.028-3.238-.042-4.857-.057a10.013,10.013,0,0,0-3.9.679,15.836,15.836,0,0,0-2.746,1.567,7.639,7.639,0,0,0-1.623,1.434,11.336,11.336,0,0,0-2.537,5.056,11.362,11.362,0,0,0,.139,5.333,15.841,15.841,0,0,0,.908,2.214,9.967,9.967,0,0,0,2.849,3.487,29.68,29.68,0,0,0,2.561,1.762c.481.324.97.637,1.557,1.022.222-2.127.434-4.168.655-6.285-.444,0-.822.013-1.2,0a4.643,4.643,0,0,1-3.266-1.5,5.23,5.23,0,0,1-.577-6.012,4.671,4.671,0,0,1,2.984-2.172,4.325,4.325,0,0,1,2.649.161,4.665,4.665,0,0,1,2.242,1.628l.193.237.024.094.14.2.047.163.38.861.059.265c0,.23,0,.46,0,.69-.026.621-.071,1.242-.075,1.863,0,.121.15.347.229.346a1.948,1.948,0,0,0,.756-.142A7.452,7.452,0,0,0-249.055,290.938ZM-323.7,323.756l.065.193.052.348.161.657.022.351c-.018.227-.111.48.2.6l.046.43.155.383a1.94,1.94,0,0,0,.043.406c.343,1.066.688,2.133,1.05,3.194.155.455.353.9.532,1.343l.134-.022v-.614q0-16.115.013-32.231a3.443,3.443,0,0,1,.291-1.391,3.265,3.265,0,0,1,3.248-1.967q22.624.013,45.247,0a1.278,1.278,0,0,1,.365.008,7.575,7.575,0,0,1,1.6.543,3.126,3.126,0,0,1,1.512,2.9q.014,7.542,0,15.084c0,.351-.015.7.008,1.054.008.132.079.338.168.367a.93.93,0,0,0,.519-.035c.1-.029.152-.176.248-.235a11.526,11.526,0,0,1,1.778-1.039c.423-.164.559-.336.558-.757-.01-3.225-.006-6.449-.006-9.674q0-8,0-16a1.706,1.706,0,0,0-1-1.786,3.188,3.188,0,0,0-1.162-.148q-27.254-.01-54.508,0a7.071,7.071,0,0,0-.867.06,1.092,1.092,0,0,0-.373.135,1.785,1.785,0,0,0-.855,1.792q.011,16.161,0,32.322a4.572,4.572,0,0,0,.245,1.694A15.611,15.611,0,0,1-323.7,323.756Zm6.862,4.53.182-.031,2.113,0,.181.015c.068.288.223.342.461.169a1.8,1.8,0,0,1,.4.063,5.49,5.49,0,0,1,2.833,2.437.828.828,0,0,0,.816.5c3.635-.02,7.269-.012,10.9-.009.2,0,.41.032.611.049v3.159H-308.79c.31.613.578,1.114.82,1.627.394.835.8,1.667,1.147,2.523.254.629.418,1.294.623,1.943l.187.457.025.241.16.5.023.239.206.6.03.356.141.471.05.444.109.449h10.136v3.228h-.566c-2.9,0-5.807.007-8.71-.008-.37,0-.479.11-.463.468.026.579.028,1.162,0,1.741a10.615,10.615,0,0,1-.163,1.1h9.9v3.23h-2.309q-3.69,0-7.381,0c-.345,0-.579.061-.611.479a5.2,5.2,0,0,1-.209,1.025c-.238.827-.479,1.655-.753,2.47s-.595,1.64-.907,2.491h35.109c0-4.413,0-8.784-.013-13.154a.75.75,0,0,0-.295-.479c-.6-.48-1.232-.923-1.839-1.4-.371-.29-.72-.609-1.172-1v.66q0,4.31,0,8.62a3.867,3.867,0,0,1-.436,1.974,2.815,2.815,0,0,1-1.97,1.434l-.429.172c-.212.014-.424.039-.636.039q-4.664,0-9.328,0c-.212,0-.425-.022-.637-.034l-.513-.185a2.514,2.514,0,0,1-1.916-1.551l-.2-.237-.034-.17-.148-.379c-.017-.228-.049-.455-.049-.683q0-4.988,0-9.977c0-.227.037-.454.057-.681l.146-.38.012-.175.148-.2a.714.714,0,0,1,.066-.207,3.484,3.484,0,0,1,2.978-1.554c3.022-.006,6.044,0,9.066,0,.19,0,.379-.02.606-.033a1.122,1.122,0,0,0-.094-.173c-.751-.836-1.537-1.644-2.24-2.518a1.14,1.14,0,0,0-1.022-.476c-2.121.019-4.243.039-6.364,0a3.089,3.089,0,0,1-2.927-1.692l-.209-.321-.034-.171-.149-.379c-.015-.32-.043-.639-.044-.959q0-4.668,0-9.336c0-.319.029-.639.044-.959l.149-.379.029-.172.211-.32a2.5,2.5,0,0,1,1.986-1.537c1.006-.109,2.024-.116,3.036-.165.166-.008.332,0,.6,0a16.894,16.894,0,0,1-1.514-1.422,15.9,15.9,0,0,1-1.08-1.658c-.5-.153-1.071-.281-1.6-.5a2.711,2.711,0,0,1-1.822-2.522c-.063-3.422-.01-6.845-.045-10.267a3.31,3.31,0,0,1,3.307-3.229c3.239,0,6.478-.016,9.716.018a3.786,3.786,0,0,1,1.511.392,2.856,2.856,0,0,1,1.742,2.7c.025,3.376.016,6.753.005,10.129a2.179,2.179,0,0,1-.191.959c-.243.473-.059.7.325.941s.5-.084.672-.265a5.841,5.841,0,0,1,2.505-1.491V298.835h-45.627v29.749l.729-.157C-316.9,328.62-316.845,328.5-316.837,328.286Zm51.59-5.52c-.434-.445-.87-.9-1.312-1.342-.78-.785-1.558-1.573-2.355-2.341a2.259,2.259,0,0,0-.729-.485,2.427,2.427,0,0,0-2.824.674c-.177.164-.163.309.038.485.672.588,1.314,1.211,1.984,1.8q1.952,1.719,3.924,3.415a.372.372,0,0,1,.037.633c-.546.592-1.066,1.208-1.615,1.8a.459.459,0,0,1-.733.005c-.82-.748-1.671-1.462-2.5-2.2-1.714-1.534-3.416-3.082-5.132-4.613-1.786-1.593-3.6-3.153-5.371-4.765a2.134,2.134,0,0,0-2.23-.632,1.649,1.649,0,0,0-.807,2.621c1.073,1.059,2.231,2.033,3.358,3.037,1.274,1.135,2.538,2.281,3.837,3.387.766.652,1.621,1.2,2.383,1.859.783.676,1.505,1.423,2.245,2.147q1.244,1.217,2.471,2.451a11.111,11.111,0,0,1,.87.943c.088.111.134.393.063.469-.587.63-1.206,1.232-1.818,1.84a.33.33,0,0,1-.553,0c-1.512-1.531-3.057-3.03-4.554-4.574a3.177,3.177,0,0,0-3.816-.881,2.962,2.962,0,0,0-1.31,3.957,14.935,14.935,0,0,0,1.407,1.848c.976,1.147,1.982,2.269,2.979,3.4q1.085,1.23,2.178,2.452a31.121,31.121,0,0,0,2.3,2.5,23.925,23.925,0,0,0,2.879,2.134,13,13,0,0,0,3.87,1.664,38.7,38.7,0,0,0,3.986.7c1.2.178,2.407.293,3.61.447a.742.742,0,0,0,.722-.233,14.319,14.319,0,0,1,1.14-1.037c1.052-.9,2.118-1.792,3.163-2.7,1.434-1.252,2.853-2.522,4.282-3.779.887-.78,1.783-1.549,2.712-2.355-.472-1.037-.917-2.066-1.407-3.073-.353-.724-.766-1.419-1.156-2.125-.553-1-1.042-2.049-1.679-2.995-1.133-1.683-2.327-3.328-3.554-4.944a31.391,31.391,0,0,0-2.26-2.588c-1.148-1.211-2.353-2.367-3.507-3.572a4.3,4.3,0,0,0-4.739-1.144c-.336.127-.8.223-.9.694l2.846,2.736Zm-52.7,37.972h1.7c1.665,0,3.331.007,5-.01.159,0,.414-.1.461-.224.532-1.348,1.081-2.692,1.529-4.069a21.665,21.665,0,0,0,1.029-5.713,34.553,34.553,0,0,0-.164-4.516,19.352,19.352,0,0,0-.553-3.07,26.775,26.775,0,0,0-1-3.1c-.433-1.117-.941-2.207-1.458-3.288-.626-1.307-1.3-2.591-1.945-3.889a2.327,2.327,0,0,0-1.707-1.373,2.285,2.285,0,0,0-2.438.99,2.448,2.448,0,0,0-.227,2.33c.481,1.264,1.084,2.481,1.616,3.727q.568,1.331,1.081,2.686a20.186,20.186,0,0,1,.937,2.659,8.886,8.886,0,0,1-.637,5.954.43.43,0,0,1-.394.148c-.769-.353-1.523-.741-2.283-1.113-.349-.171-.3-.439-.2-.731a4.428,4.428,0,0,0,.3-.862,6.6,6.6,0,0,0,.057-2.439,7.843,7.843,0,0,0-2.12-4.189,1.773,1.773,0,0,1-.164-.195c-.64-.817-1.33-1.6-1.907-2.459a44.8,44.8,0,0,1-2.349-3.821c-.565-1.057-.935-2.217-1.426-3.316a23.248,23.248,0,0,1-1.335-4.5c-.24-1.083-.379-2.189-.644-3.264a1.928,1.928,0,0,0-2.149-1.468,1.927,1.927,0,0,0-1.618,2c.056,2.657.063,5.316.178,7.971.081,1.878.3,3.749.469,5.622.085.943.153,1.891.3,2.825.256,1.61.56,3.213.862,4.815.276,1.465.516,2.942.882,4.386.649,2.56,1.371,5.1,2.083,7.644.322,1.148.694,2.281,1.041,3.423a.532.532,0,0,0,.6.447C-322.349,360.728-320.149,360.738-317.949,360.738Zm81.568,13.038V347.4a2.04,2.04,0,0,0-.01-.411.565.565,0,0,0-.157-.3c-.456-.4-.921-.789-1.387-1.177q-1.4-1.169-2.809-2.333-1.708-1.417-3.415-2.835c-.187-.155-.327-.213-.56,0-.98.873-2,1.7-2.984,2.572-.946.831-1.859,1.7-2.805,2.531q-2.184,1.919-4.4,3.8c-.328.279-.382.5-.1.858.362.46.661.97.992,1.455q1.151,1.689,2.306,3.375,1.521,2.207,3.053,4.406c.578.833,1.162,1.663,1.736,2.5q1.491,2.175,2.972,4.358c.762,1.125,1.506,2.261,2.268,3.385.84,1.24,1.683,2.478,2.546,3.7a1.056,1.056,0,0,0,.6.469C-237.84,373.814-237.138,373.776-236.381,373.776Zm-71.484-9.689c.071.793.119,1.5.2,2.2.15,1.256.342,2.507.472,3.765.045.436.205.548.626.548q19.456-.016,38.912,0a1.881,1.881,0,0,0,1.978-1.961c-.044-1.328-.01-2.658-.01-3.987q0-7.1.007-14.21c0-.41-.115-.564-.545-.651-.741-.148-1.456-.422-2.183-.638-.161-.048-.328-.075-.552-.125v.624c0,3.652-.008,7.3.005,10.955a3.5,3.5,0,0,1-.884,2.417,3.234,3.234,0,0,1-2.526,1.062q-17.439-.015-34.879-.007Zm19.3-19.579v9.681c.178.014.341.038.5.038,2.933,0,5.865-.006,8.8.01.423,0,.54-.126.537-.548-.018-2.9-.01-5.8-.011-8.707v-.475Zm0-29.523c.4.161.447-.184.549-.393a5.02,5.02,0,0,1,2.343-2.333,5.329,5.329,0,0,1,2.566-.434,4.884,4.884,0,0,1,3.222,1.32c.344.308.692.611,1.116.984v-8.773h-9.8Zm35.556-24.257c.01-1.025-.541-1.743-1.281-1.8a1.409,1.409,0,0,0-1.395.793,1.624,1.624,0,0,0,.047,1.762,2.3,2.3,0,0,0,2.321.7.388.388,0,0,0,.206-.262C-253.063,291.487-253.04,291.049-253.015,290.728Zm7.348.159a6.007,6.007,0,0,0,.012.867c.023.153.158.4.259.411a2.907,2.907,0,0,0,1.864-.238c.648-.4.8-.9.6-1.863a1.418,1.418,0,0,0-2.255-.795C-245.778,289.72-245.7,290.294-245.667,290.887Z" transform="translate(334.349 -275.806)" fill="#0a0c0d"/>
      <path id="Trazado_632849" data-name="Trazado 632849" d="M-114.144,275.806c-.044.031-.088.091-.132.091q-2.916,0-5.831-.016a.215.215,0,0,1,0-.075Z" transform="translate(202.075 -275.806)" fill="#838d99"/>
      <path id="Trazado_632850" data-name="Trazado 632850" d="M-334.362,417.446h-.1v-1.375l.087-.9c.051.366.115.73.151,1.1a7.794,7.794,0,0,1,.031.95C-334.2,417.293-334.3,417.369-334.362,417.446Z" transform="translate(334.465 -361.877)" fill="#828d99"/>
      <path id="Trazado_632851" data-name="Trazado 632851" d="M-334.369,399.073l-.025,4.857a.06.06,0,0,1-.072,0v-4.86Z" transform="translate(334.465 -351.934)" fill="#838d99"/>
      <path id="Trazado_632852" data-name="Trazado 632852" d="M-334.465,411.776a.06.06,0,0,0,.072,0l.016,1.293-.087.9Z" transform="translate(334.465 -359.783)" fill="#bec5cf"/>
      <path id="Trazado_632853" data-name="Trazado 632853" d="M-121.728,275.806a.215.215,0,0,0,0,.075l-1.008.092c0-.055,0-.111,0-.167Z" transform="translate(203.699 -275.806)" fill="#bec5cf"/>
      <path id="Trazado_632854" data-name="Trazado 632854" d="M-334.369,398.037l-.1-.007v-.642l.1.007Q-334.367,397.715-334.369,398.037Z" transform="translate(334.465 -350.897)" fill="#bec5cf"/>
      <path id="Trazado_632855" data-name="Trazado 632855" d="M-265.046,360.788l-.029.172-.149.379c-.016.32-.044.639-.044.959q0,4.668,0,9.336c0,.32.028.639.044.959l.149.379.034.171.209.321a3.088,3.088,0,0,0,2.927,1.692c2.121.042,4.243.022,6.364,0a1.14,1.14,0,0,1,1.022.476c.7.874,1.489,1.682,2.24,2.518a1.13,1.13,0,0,1,.094.173c-.227.013-.416.033-.606.033-3.022,0-6.044,0-9.066,0a3.484,3.484,0,0,0-2.978,1.554.713.713,0,0,0-.066.207l-.148.2-.011.175-.146.38c-.02.227-.056.454-.057.681q-.006,4.988,0,9.977c0,.228.032.455.049.683l.148.379.034.17.2.237a2.514,2.514,0,0,0,1.916,1.551l.513.185c.213.012.425.034.637.034q4.664,0,9.328,0c.212,0,.424-.026.636-.039l.429-.172a2.815,2.815,0,0,0,1.97-1.434,3.866,3.866,0,0,0,.436-1.974q-.007-4.31,0-8.62v-.66c.452.386.8.706,1.172,1,.607.473,1.237.917,1.839,1.4a.75.75,0,0,1,.295.479c.016,4.37.013,8.74.013,13.154h-35.109c.312-.851.63-1.664.907-2.491s.515-1.643.753-2.47a5.2,5.2,0,0,0,.209-1.025c.032-.418.266-.479.611-.479q3.69.009,7.381,0h2.309V388.2h-9.9a10.6,10.6,0,0,0,.162-1.1c.025-.579.023-1.162,0-1.741-.016-.357.093-.47.463-.468,2.9.015,5.807.008,8.71.008h.566v-3.229h-10.136l-.109-.449-.051-.444-.141-.471-.03-.356-.206-.6-.023-.239-.16-.5-.025-.241-.187-.457c-.2-.649-.368-1.314-.622-1.943-.346-.856-.753-1.687-1.147-2.523-.242-.513-.51-1.014-.82-1.627H-271.8v-3.159c-.2-.017-.406-.049-.611-.049-3.635,0-7.27-.011-10.9.009a.828.828,0,0,1-.816-.5,5.49,5.49,0,0,0-2.833-2.437,1.8,1.8,0,0,0-.4-.063l-.461-.169-.181-.015a1.43,1.43,0,0,1,.439-.158c1.817-.011,3.634-.007,5.452-.007h.508c0-.968-.017-1.867.008-2.765.011-.365-.1-.467-.462-.463-1.878.018-3.757.008-5.635.01-.148,0-.3.018-.5.031v3.121l-1.925.235-.182.031-.283.141-.729.157V336.03h45.627v16.523a5.84,5.84,0,0,0-2.505,1.491c-.171.181-.285.511-.672.265s-.567-.467-.325-.941a2.179,2.179,0,0,0,.191-.959c.011-3.376.02-6.753,0-10.129a2.856,2.856,0,0,0-1.742-2.7,3.787,3.787,0,0,0-1.511-.392c-3.238-.035-6.478-.017-9.716-.018a3.31,3.31,0,0,0-3.307,3.229c.035,3.422-.018,6.845.045,10.267a2.711,2.711,0,0,0,1.822,2.522c.533.219,1.1.347,1.6.5a15.9,15.9,0,0,0,1.08,1.658,16.874,16.874,0,0,0,1.513,1.422c-.267,0-.433-.007-.6,0-1.013.049-2.03.056-3.036.165a2.5,2.5,0,0,0-1.986,1.537Zm-6.758-8.57v-3.157h-16.345v3.157Zm3.2,13.044v-3.176h-9.676v3.176Zm-9.667-22.734v3.16h9.685v-3.16Zm-9.885-.009v3.176h6.523v-3.176Z" transform="translate(307.812 -313.001)" fill="#5dbee2"/>
      <path id="Trazado_632856" data-name="Trazado 632856" d="M-307.276,342.33c-.015-.143-.03-.286-.046-.43l-.2-.6-.022-.351-.161-.657c-.017-.116-.035-.232-.052-.348l-.065-.193a15.62,15.62,0,0,0-.5-2.04,4.57,4.57,0,0,1-.245-1.694q0-16.161,0-32.322a1.785,1.785,0,0,1,.855-1.792,1.092,1.092,0,0,1,.373-.135,7.084,7.084,0,0,1,.867-.06q27.254,0,54.508,0a3.188,3.188,0,0,1,1.162.148,1.706,1.706,0,0,1,1,1.786q0,8,0,16c0,3.225,0,6.449.006,9.674,0,.421-.135.592-.558.757a11.522,11.522,0,0,0-1.778,1.039c-.1.059-.151.205-.248.235a.929.929,0,0,1-.519.035c-.089-.029-.159-.236-.168-.367-.023-.35-.008-.7-.008-1.054q0-7.542,0-15.084a3.126,3.126,0,0,0-1.512-2.9,7.575,7.575,0,0,0-1.6-.543,1.278,1.278,0,0,0-.365-.008q-22.624,0-45.247,0a3.264,3.264,0,0,0-3.248,1.967,3.442,3.442,0,0,0-.291,1.391q-.024,16.115-.013,32.231v.614l-.134.022c-.179-.447-.377-.888-.532-1.343-.362-1.06-.707-2.127-1.05-3.194a1.949,1.949,0,0,1-.043-.406Zm34.534-37.381H-285.8c0,.93,0,1.828,0,2.726,0,.6,0,.6.621.6h12.439Z" transform="translate(318.474 -291.804)" fill="#838d99"/>
      <path id="Trazado_632857" data-name="Trazado 632857" d="M-186.08,386.23l2.425-2.3L-186.5,381.2c.1-.471.564-.567.9-.694a4.3,4.3,0,0,1,4.739,1.144c1.154,1.205,2.359,2.362,3.507,3.572a31.4,31.4,0,0,1,2.26,2.588c1.227,1.616,2.421,3.261,3.554,4.944.637.946,1.126,1.992,1.679,2.995.39.706.8,1.4,1.156,2.125.491,1.006.935,2.035,1.407,3.073-.929.806-1.825,1.575-2.712,2.355-1.43,1.257-2.848,2.527-4.282,3.779-1.045.912-2.112,1.8-3.163,2.7a14.3,14.3,0,0,0-1.14,1.037.742.742,0,0,1-.722.233c-1.2-.154-2.411-.269-3.611-.447a38.719,38.719,0,0,1-3.986-.7,13.005,13.005,0,0,1-3.87-1.664,23.913,23.913,0,0,1-2.879-2.134,31.094,31.094,0,0,1-2.3-2.5q-1.1-1.219-2.178-2.452c-1-1.13-2-2.252-2.979-3.4a14.92,14.92,0,0,1-1.407-1.848,2.962,2.962,0,0,1,1.31-3.957,3.177,3.177,0,0,1,3.816.881c1.5,1.545,3.042,3.044,4.554,4.575a.33.33,0,0,0,.553,0c.611-.608,1.231-1.21,1.818-1.84.071-.076.024-.358-.063-.469a11.135,11.135,0,0,0-.87-.943q-1.229-1.231-2.471-2.451c-.74-.724-1.463-1.471-2.245-2.147-.762-.657-1.616-1.206-2.383-1.859-1.3-1.105-2.563-2.252-3.837-3.387-1.127-1-2.285-1.978-3.358-3.037a1.649,1.649,0,0,1,.807-2.621,2.135,2.135,0,0,1,2.23.632c1.768,1.613,3.584,3.173,5.371,4.765,1.717,1.53,3.418,3.079,5.132,4.613.827.74,1.678,1.455,2.5,2.2a.459.459,0,0,0,.733,0c.549-.59,1.069-1.206,1.615-1.8a.372.372,0,0,0-.037-.633q-1.969-1.7-3.924-3.415c-.67-.59-1.312-1.213-1.984-1.8-.2-.176-.215-.321-.038-.485a2.427,2.427,0,0,1,2.824-.674,2.258,2.258,0,0,1,.729.485c.8.768,1.575,1.556,2.355,2.341C-186.949,385.332-186.514,385.785-186.08,386.23Z" transform="translate(255.182 -339.27)" fill="#eec4a4"/>
      <path id="Trazado_632858" data-name="Trazado 632858" d="M-312.593,434.706c-2.2,0-4.4-.01-6.6.01a.532.532,0,0,1-.6-.447c-.346-1.141-.719-2.275-1.04-3.423-.712-2.543-1.434-5.085-2.083-7.644-.366-1.444-.606-2.92-.882-4.386-.3-1.6-.606-3.205-.862-4.815-.148-.934-.216-1.882-.3-2.825-.168-1.873-.387-3.744-.469-5.622-.115-2.655-.122-5.314-.178-7.971a1.927,1.927,0,0,1,1.618-2,1.928,1.928,0,0,1,2.149,1.468c.265,1.076.4,2.182.644,3.264a23.249,23.249,0,0,0,1.335,4.5c.491,1.1.861,2.258,1.426,3.316a44.78,44.78,0,0,0,2.349,3.821c.577.859,1.267,1.642,1.906,2.459a1.774,1.774,0,0,0,.164.195,7.843,7.843,0,0,1,2.12,4.189,6.593,6.593,0,0,1-.057,2.439,4.417,4.417,0,0,1-.3.862c-.107.292-.152.56.2.731.76.373,1.513.761,2.283,1.113a.429.429,0,0,0,.394-.148,8.887,8.887,0,0,0,.637-5.954,20.193,20.193,0,0,0-.937-2.659q-.515-1.353-1.081-2.686c-.532-1.246-1.135-2.463-1.616-3.727a2.448,2.448,0,0,1,.227-2.33,2.284,2.284,0,0,1,2.438-.99A2.327,2.327,0,0,1-308,406.823c.644,1.3,1.319,2.582,1.945,3.889.518,1.081,1.026,2.172,1.458,3.288a26.783,26.783,0,0,1,1,3.1,19.365,19.365,0,0,1,.553,3.07,34.569,34.569,0,0,1,.164,4.516,21.666,21.666,0,0,1-1.029,5.713c-.447,1.377-1,2.722-1.529,4.069-.047.12-.3.222-.461.224-1.665.016-3.331.01-5,.01Z" transform="translate(328.993 -349.774)" fill="#eec4a4"/>
      <path id="Trazado_632859" data-name="Trazado 632859" d="M-108.639,477.791c-.756,0-1.458.037-2.152-.022a1.056,1.056,0,0,1-.6-.469c-.863-1.224-1.706-2.461-2.546-3.7-.762-1.125-1.507-2.261-2.268-3.385q-1.478-2.184-2.972-4.358c-.574-.837-1.158-1.666-1.736-2.5q-1.527-2.2-3.053-4.406-1.16-1.682-2.306-3.375c-.331-.486-.63-.995-.992-1.455-.28-.357-.226-.579.1-.858q2.213-1.886,4.4-3.8c.946-.831,1.86-1.7,2.805-2.531.986-.867,2-1.7,2.984-2.572.233-.208.373-.151.56,0q1.707,1.418,3.415,2.835,1.4,1.166,2.809,2.333c.466.388.931.777,1.387,1.177a.565.565,0,0,1,.157.3,2.042,2.042,0,0,1,.01.411v26.38Z" transform="translate(206.608 -379.821)" fill="#e9685b"/>
      <path id="Trazado_632860" data-name="Trazado 632860" d="M-265.2,482.364h.624q17.44,0,34.879.006a3.234,3.234,0,0,0,2.526-1.062,3.5,3.5,0,0,0,.884-2.417c-.013-3.651,0-7.3,0-10.955v-.624c.224.05.391.078.552.125.727.216,1.442.49,2.183.638.43.086.546.241.545.651q-.016,7.1-.007,14.209c0,1.329-.034,2.66.01,3.987a1.881,1.881,0,0,1-1.978,1.961q-19.456-.025-38.912,0c-.421,0-.581-.112-.626-.548-.13-1.258-.322-2.509-.472-3.765C-265.086,483.865-265.133,483.157-265.2,482.364Z" transform="translate(291.689 -394.083)" fill="#828d99"/>
      <path id="Trazado_632861" data-name="Trazado 632861" d="M-129,302.726l-.018-.459c0-.252-.026-.506-.01-.757a4.447,4.447,0,0,1,.111-.576h.793l.3-.005.371-.078.059.079.1-.107a4.328,4.328,0,0,0,2.9-1.818,5.057,5.057,0,0,0,.813-4.169,4.2,4.2,0,0,0-.908-1.9,6.465,6.465,0,0,0-1.573-1.273,4.15,4.15,0,0,0-3.023-.443,4.348,4.348,0,0,0-2.9,1.81c-.073.107-.142.218-.213.328l-.147.195-.024.09-.375.767-.024.167-.19.825v2.111h-.743a4.883,4.883,0,0,0,.006-2.658l-.059-.265-.38-.861-.047-.163-.141-.2-.024-.094-.193-.237a4.665,4.665,0,0,0-2.242-1.628,4.325,4.325,0,0,0-2.649-.161,4.672,4.672,0,0,0-2.984,2.172,5.231,5.231,0,0,0,.577,6.012,4.642,4.642,0,0,0,3.266,1.5c.376.016.754,0,1.2,0-.221,2.117-.433,4.158-.655,6.285-.587-.385-1.076-.7-1.557-1.022a29.684,29.684,0,0,1-2.561-1.762,9.967,9.967,0,0,1-2.849-3.487,15.84,15.84,0,0,1-.908-2.214,11.362,11.362,0,0,1-.139-5.333,11.335,11.335,0,0,1,2.537-5.056,7.638,7.638,0,0,1,1.623-1.434,15.833,15.833,0,0,1,2.746-1.567,10.012,10.012,0,0,1,3.9-.679c1.619.015,3.238.029,4.857.057a9.793,9.793,0,0,1,2.973.661,9.631,9.631,0,0,1,2.9,1.6,11.911,11.911,0,0,1,2.139,2.248,12.95,12.95,0,0,1,1.622,3.051,7.364,7.364,0,0,1,.414,2.011,12.722,12.722,0,0,1-.186,4.032,11.077,11.077,0,0,1-1.224,2.969,10.285,10.285,0,0,1-3.438,3.658c-.927.6-1.808,1.263-2.718,1.886a4.9,4.9,0,0,1-.653.318c-.012-.215-.023-.4-.033-.579a.061.061,0,0,0,0-.083l-.01-.28-.194-1.743-.009-.172Z" transform="translate(218.239 -281.278)" fill="#ffe293"/>
      <path id="Trazado_632862" data-name="Trazado 632862" d="M-296.624,513.754l.031.529q.075.515.15,1.031l.018.354v.6a3.133,3.133,0,0,1-.343.04q-7.447,0-14.9.01c-.328,0-.376-.16-.4-.4l.021-.339.187-1.212c.161-1.326.328-2.652.482-3.978.111-.957.206-1.916.308-2.875.008-.076.01-.153.022-.228.1-.627.1-.632.746-.632,4.077,0,8.154.01,12.23-.014.46,0,.584.208.626.564.082.705.145,1.413.216,2.119l.192,1.3c.008.112.016.224.025.337q.079.611.157,1.222c.009.112.017.224.026.337Q-296.723,513.14-296.624,513.754Z" transform="translate(320.628 -418.373)" fill="#ea685c"/>
      <path id="Trazado_632863" data-name="Trazado 632863" d="M-214.736,455.473h9.828v.474c0,2.9-.008,5.8.011,8.707,0,.422-.114.55-.537.548-2.933-.015-5.865-.007-8.8-.01-.163,0-.325-.024-.5-.038Z" transform="translate(260.519 -386.771)" fill="#bec5cf"/>
      <path id="Trazado_632864" data-name="Trazado 632864" d="M-214.748,362.714v-9.629h9.8v8.773c-.424-.374-.772-.676-1.116-.984a4.885,4.885,0,0,0-3.222-1.32,5.328,5.328,0,0,0-2.566.434,5.02,5.02,0,0,0-2.343,2.333C-214.3,362.531-214.343,362.875-214.748,362.714Z" transform="translate(260.526 -323.535)" fill="#bec5cf"/>
      <path id="Trazado_632865" data-name="Trazado 632865" d="M-211.416,409.48l-.018.239,0,.116-.015.538v.367l.013.447,0,.115.019.239.2.6.613,1.715h-4.129v-9.637c.172-.017.347-.049.523-.049q2.841-.005,5.681,0a.9.9,0,0,1,.406.029,2.3,2.3,0,0,1,.408.374c-.111.077-.215.165-.332.23a6.745,6.745,0,0,0-2.854,3.022,6.984,6.984,0,0,0-.319,1.057Z" transform="translate(260.519 -355.079)" fill="#bec5cf"/>
      <path id="Trazado_632866" data-name="Trazado 632866" d="M-118.169,359.384a2.828,2.828,0,0,1-2.189-1.786,5.12,5.12,0,0,1-.295-1.674c-.046-.942-.013-1.889-.013-2.861h6.533c-.075,1.373-.059,2.746-.252,4.088a2.971,2.971,0,0,1-1.986,2.19,1.374,1.374,0,0,1-.406.048Z" transform="translate(202.427 -323.52)" fill="#bec5cf"/>
      <path id="Trazado_632867" data-name="Trazado 632867" d="M-288.189,407.484l1.925-.235v-3.121c.2-.013.35-.031.5-.031,1.878,0,3.757.008,5.635-.01.364,0,.473.1.462.463-.026.9-.008,1.8-.008,2.765h-.508c-1.818,0-3.635,0-5.452.007a1.43,1.43,0,0,0-.439.158Z" transform="translate(305.884 -355.034)" fill="#05080a"/>
      <path id="Trazado_632868" data-name="Trazado 632868" d="M-113.63,328.212l.027.635.154,1.292.054.722.067.74.244,2.086h-2.866l.169-2.084a1.482,1.482,0,0,0,.174-1.381l.033-.268.156-1.382.026-.544.26-.782,1.164-.006Z" transform="translate(199.507 -307.572)" fill="#ffe394"/>
      <path id="Trazado_632869" data-name="Trazado 632869" d="M-126.467,311.909c-.025.321-.048.758-.1,1.191a.388.388,0,0,1-.206.261,2.3,2.3,0,0,1-2.321-.7,1.624,1.624,0,0,1-.047-1.762,1.409,1.409,0,0,1,1.395-.793C-127.007,310.166-126.457,310.884-126.467,311.909Z" transform="translate(207.801 -296.987)" fill="#fac655"/>
      <path id="Trazado_632870" data-name="Trazado 632870" d="M-102.583,312.157c-.032-.593-.111-1.167.484-1.617a1.418,1.418,0,0,1,2.255.795c.2.967.044,1.463-.6,1.863a2.907,2.907,0,0,1-1.864.238c-.1-.008-.237-.258-.259-.411A6.012,6.012,0,0,1-102.583,312.157Z" transform="translate(191.265 -297.076)" fill="#fac655"/>
      <path id="Trazado_632871" data-name="Trazado 632871" d="M-312.327,530.5c.023.242.07.4.4.4q7.447-.018,14.9-.01a3.146,3.146,0,0,0,.343-.04v-.6a3.718,3.718,0,0,1,.15.68c0,.041-.272.141-.418.141q-7.528.011-15.055,0a1.453,1.453,0,0,1-.478-.19Z" transform="translate(320.894 -432.951)" fill="#6e322b"/>
      <path id="Trazado_632872" data-name="Trazado 632872" d="M-113.462,311.3a4.884,4.884,0,0,1-.007,2.658h.743v-1.1a7.463,7.463,0,0,1,.169,1.2,1.949,1.949,0,0,1-.756.142c-.078,0-.229-.225-.229-.346,0-.621.05-1.242.075-1.863C-113.457,311.763-113.463,311.533-113.462,311.3Z" transform="translate(198.02 -297.729)" fill="#5b5b5f"/>
      <path id="Trazado_632873" data-name="Trazado 632873" d="M-100.581,336.472l.194,1.743a9.6,9.6,0,0,1-.221-.977A4.526,4.526,0,0,1-100.581,336.472Z" transform="translate(190.038 -313.274)" fill="#5b5b5f"/>
      <path id="Trazado_632874" data-name="Trazado 632874" d="M-101.141,331.894q.1.789.207,1.578C-101.318,332.987-101.125,332.427-101.141,331.894Z" transform="translate(190.382 -310.447)" fill="#5b5b5f"/>
      <path id="Trazado_632875" data-name="Trazado 632875" d="M-317.727,503.138v-1.185A.966.966,0,0,1-317.727,503.138Z" transform="translate(324.127 -415.477)" fill="#828d99"/>
      <path id="Trazado_632876" data-name="Trazado 632876" d="M-101.3,327.208a4.443,4.443,0,0,0-.111.576c-.016.251,0,.5.01.757-.06-.406-.127-.811-.168-1.219C-101.576,327.293-101.4,327.246-101.3,327.208Z" transform="translate(190.628 -307.553)" fill="#5b5b5f"/>
      <path id="Trazado_632877" data-name="Trazado 632877" d="M-109.659,332.737l-.154-1.292Z" transform="translate(195.717 -310.169)" fill="#a99465"/>
      <path id="Trazado_632878" data-name="Trazado 632878" d="M-115.333,335.039a1.482,1.482,0,0,1-.174,1.381Z" transform="translate(199.234 -312.389)" fill="#a99465"/>
      <path id="Trazado_632879" data-name="Trazado 632879" d="M-114.812,330.724l-.156,1.382Z" transform="translate(198.901 -309.724)" fill="#a99465"/>
      <path id="Trazado_632880" data-name="Trazado 632880" d="M-114.118,369.594l1.391,0A1.308,1.308,0,0,1-114.118,369.594Z" transform="translate(198.376 -333.731)" fill="#5b5b5f"/>
      <path id="Trazado_632881" data-name="Trazado 632881" d="M-322.475,386.747a1.122,1.122,0,0,1,1.284,0Z" transform="translate(327.06 -344.199)" fill="#bec5cf"/>
      <path id="Trazado_632882" data-name="Trazado 632882" d="M-110.43,328.212l-.338-.973c.115.1.3.176.329.294A2.836,2.836,0,0,1-110.43,328.212Z" transform="translate(196.307 -307.572)" fill="#a99465"/>
      <path id="Trazado_632883" data-name="Trazado 632883" d="M-272.011,523.256q-.1-.615-.2-1.229C-271.852,522.389-272.02,522.837-272.011,523.256Z" transform="translate(296.015 -427.875)" fill="#6e322b"/>
      <path id="Trazado_632884" data-name="Trazado 632884" d="M-129.439,363.209a.6.6,0,0,1-.182-.822Z" transform="translate(208.003 -329.28)" fill="#bec5cf"/>
      <path id="Trazado_632885" data-name="Trazado 632885" d="M-273.061,514.964l-.192-1.3Z" transform="translate(296.659 -422.708)" fill="#6e322b"/>
      <path id="Trazado_632886" data-name="Trazado 632886" d="M-311.818,526.848l-.187,1.212Z" transform="translate(320.593 -430.853)" fill="#6e322b"/>
      <path id="Trazado_632887" data-name="Trazado 632887" d="M-318.853,511.828q.082-.508.164-1.015Q-318.771,511.321-318.853,511.828Z" transform="translate(324.823 -420.949)" fill="#5b5b5f"/>
      <path id="Trazado_632888" data-name="Trazado 632888" d="M-272.53,519.173q-.078-.611-.157-1.222Q-272.608,518.562-272.53,519.173Z" transform="translate(296.31 -425.358)" fill="#6e322b"/>
      <path id="Trazado_632889" data-name="Trazado 632889" d="M-111.408,311.4l.19-.825Z" transform="translate(196.702 -297.279)" fill="#5b5b5f"/>
      <path id="Trazado_632890" data-name="Trazado 632890" d="M-114.258,327.255l-.26.782a2.963,2.963,0,0,1,0-.588C-114.5,327.371-114.348,327.319-114.258,327.255Z" transform="translate(198.632 -307.582)" fill="#a99465"/>
      <path id="Trazado_632891" data-name="Trazado 632891" d="M-114.483,308.357l.38.861Z" transform="translate(198.601 -295.91)" fill="#5b5b5f"/>
      <path id="Trazado_632892" data-name="Trazado 632892" d="M-271.458,527.656q-.075-.516-.15-1.031Q-271.533,527.14-271.458,527.656Z" transform="translate(295.643 -430.715)" fill="#6e322b"/>
      <path id="Trazado_632893" data-name="Trazado 632893" d="M-108.922,377.918l-.651.18Z" transform="translate(195.569 -338.872)" fill="#5b5b5f"/>
      <path id="Trazado_632894" data-name="Trazado 632894" d="M-120.666,376.208l-.654-.381Z" transform="translate(202.824 -337.58)" fill="#5b5b5f"/>
      <path id="Trazado_632895" data-name="Trazado 632895" d="M-115.937,378.105l-.561-.172Z" transform="translate(199.846 -338.881)" fill="#5b5b5f"/>
      <path id="Trazado_632896" data-name="Trazado 632896" d="M-110.846,308.9l.375-.767Z" transform="translate(196.355 -295.77)" fill="#5b5b5f"/>
      <path id="Trazado_632897" data-name="Trazado 632897" d="M-259.816,449.332l.206.6Z" transform="translate(288.361 -382.978)" fill="#203b45"/>
      <path id="Trazado_632898" data-name="Trazado 632898" d="M-305.868,405.254l.2.6C-305.979,405.734-305.886,405.482-305.868,405.254Z" transform="translate(316.819 -355.755)" fill="#5b5b5f"/>
      <path id="Trazado_632899" data-name="Trazado 632899" d="M-109.2,337.452l-.067-.74Z" transform="translate(195.381 -313.422)" fill="#a99465"/>
      <path id="Trazado_632900" data-name="Trazado 632900" d="M-205.856,424.063l-.2-.6Z" transform="translate(255.155 -367.002)" fill="#5b5b5f"/>
      <path id="Trazado_632901" data-name="Trazado 632901" d="M-306.3,402.617l.161.657Z" transform="translate(317.072 -354.126)" fill="#5b5b5f"/>
      <path id="Trazado_632902" data-name="Trazado 632902" d="M-70.5,305.064l.174.562Z" transform="translate(171.436 -293.876)" fill="#5b5b5f"/>
      <path id="Trazado_632903" data-name="Trazado 632903" d="M-206.052,417.1l.193-.6Z" transform="translate(255.155 -362.702)" fill="#5b5b5f"/>
      <path id="Trazado_632904" data-name="Trazado 632904" d="M-282.191,413l.461.169C-281.968,413.343-282.123,413.289-282.191,413Z" transform="translate(302.18 -360.539)" fill="#05080a"/>
      <path id="Trazado_632905" data-name="Trazado 632905" d="M-259.2,451.828l.142.471Z" transform="translate(287.98 -384.519)" fill="#203b45"/>
      <path id="Trazado_632906" data-name="Trazado 632906" d="M-216.557,489.257l-.513-.185Z" transform="translate(261.96 -407.522)" fill="#203b45"/>
      <path id="Trazado_632907" data-name="Trazado 632907" d="M-318.113,500.846l-.206-.41Z" transform="translate(324.493 -414.54)" fill="#828d99"/>
      <path id="Trazado_632908" data-name="Trazado 632908" d="M-318.228,507.088l.156-.409c0,.123.007.245.01.368Z" transform="translate(324.437 -418.396)" fill="#828d99"/>
      <path id="Trazado_632909" data-name="Trazado 632909" d="M-318.228,507.682l.166-.04-.16.416Z" transform="translate(324.437 -418.991)" fill="#5b5b5f"/>
      <path id="Trazado_632910" data-name="Trazado 632910" d="M-260.3,447.413l.16.5Z" transform="translate(288.657 -381.793)" fill="#203b45"/>
      <path id="Trazado_632911" data-name="Trazado 632911" d="M-187.575,489.089l-.429.172Z" transform="translate(244.009 -407.532)" fill="#203b45"/>
      <path id="Trazado_632912" data-name="Trazado 632912" d="M-71.578,301.385l.2.417Z" transform="translate(172.102 -291.604)" fill="#5b5b5f"/>
      <path id="Trazado_632913" data-name="Trazado 632913" d="M-70.922,303.379l.136.387Z" transform="translate(171.697 -292.835)" fill="#5b5b5f"/>
      <path id="Trazado_632914" data-name="Trazado 632914" d="M-117.792,377.6l-.384-.154Z" transform="translate(200.882 -338.581)" fill="#5b5b5f"/>
      <path id="Trazado_632915" data-name="Trazado 632915" d="M-319.167,497.743l-.169-.371Z" transform="translate(325.121 -412.648)" fill="#828d99"/>
      <path id="Trazado_632916" data-name="Trazado 632916" d="M-260.85,445.589l.187.457Z" transform="translate(288.999 -380.666)" fill="#203b45"/>
      <path id="Trazado_632917" data-name="Trazado 632917" d="M-72.6,298.8l.193.377Z" transform="translate(172.732 -290.009)" fill="#5b5b5f"/>
      <path id="Trazado_632918" data-name="Trazado 632918" d="M-305.18,407.938l.155.383Z" transform="translate(316.378 -357.412)" fill="#5b5b5f"/>
      <path id="Trazado_632919" data-name="Trazado 632919" d="M-289.4,413.19l.283-.141C-289.131,413.267-289.19,413.383-289.4,413.19Z" transform="translate(306.635 -360.569)" fill="#05080a"/>
      <path id="Trazado_632920" data-name="Trazado 632920" d="M-106.815,377.432l-.386.153Z" transform="translate(194.104 -338.572)" fill="#5b5b5f"/>
      <path id="Trazado_632921" data-name="Trazado 632921" d="M-318.622,499.383l-.156-.4Z" transform="translate(324.776 -413.645)" fill="#828d99"/>
      <path id="Trazado_632922" data-name="Trazado 632922" d="M-206.147,420.776v0Z" transform="translate(255.215 -365.115)" fill="#5b5b5f"/>
      <path id="Trazado_632923" data-name="Trazado 632923" d="M-223.047,452.69l.145-.38Z" transform="translate(265.652 -384.817)" fill="#203b45"/>
      <path id="Trazado_632924" data-name="Trazado 632924" d="M-258.7,454.221l.109.449Z" transform="translate(287.669 -385.997)" fill="#203b45"/>
      <path id="Trazado_632925" data-name="Trazado 632925" d="M-222.924,483.341l-.148-.379Z" transform="translate(265.667 -403.748)" fill="#203b45"/>
      <path id="Trazado_632926" data-name="Trazado 632926" d="M-223.09,401.605l.149-.379Z" transform="translate(265.678 -353.268)" fill="#203b45"/>
      <path id="Trazado_632927" data-name="Trazado 632927" d="M-222.406,433.4l-.209-.321Z" transform="translate(265.385 -372.943)" fill="#203b45"/>
      <path id="Trazado_632928" data-name="Trazado 632928" d="M-222.943,432.026l-.149-.379Z" transform="translate(265.679 -372.055)" fill="#203b45"/>
      <path id="Trazado_632929" data-name="Trazado 632929" d="M-104.444,376.369l-.308.165Z" transform="translate(192.591 -337.915)" fill="#5b5b5f"/>
      <path id="Trazado_632930" data-name="Trazado 632930" d="M-222.623,400.26l.211-.32Z" transform="translate(265.39 -352.473)" fill="#203b45"/>
      <path id="Trazado_632931" data-name="Trazado 632931" d="M-129.938,350.719l-.248-.25Z" transform="translate(208.299 -321.919)" fill="#bec5cf"/>
      <path id="Trazado_632932" data-name="Trazado 632932" d="M-115.542,306.55l.193.237Z" transform="translate(199.255 -294.794)" fill="#5b5b5f"/>
      <path id="Trazado_632933" data-name="Trazado 632933" d="M-105.523,376.854l-.237.2Z" transform="translate(193.214 -338.215)" fill="#5b5b5f"/>
      <path id="Trazado_632934" data-name="Trazado 632934" d="M-119,377.067l-.24-.2Z" transform="translate(201.539 -338.225)" fill="#5b5b5f"/>
      <path id="Trazado_632935" data-name="Trazado 632935" d="M-103.5,375.815l-.27.193Z" transform="translate(191.983 -337.573)" fill="#5b5b5f"/>
      <path id="Trazado_632936" data-name="Trazado 632936" d="M-222.4,484.634l-.2-.237Z" transform="translate(265.372 -404.634)" fill="#203b45"/>
      <path id="Trazado_632937" data-name="Trazado 632937" d="M-222.636,451.537l.148-.2Z" transform="translate(265.398 -384.219)" fill="#203b45"/>
      <path id="Trazado_632938" data-name="Trazado 632938" d="M-72.036,300.171l.138.224Z" transform="translate(172.385 -290.854)" fill="#5b5b5f"/>
      <path id="Trazado_632939" data-name="Trazado 632939" d="M-96.876,326.913l-.1.107-.059-.079Z" transform="translate(187.827 -307.37)" fill="#5b5b5f"/>
      <path id="Trazado_632940" data-name="Trazado 632940" d="M-114.974,307.417l.141.2Z" transform="translate(198.904 -295.329)" fill="#5b5b5f"/>
      <path id="Trazado_632941" data-name="Trazado 632941" d="M-109.8,307.582l.147-.195Z" transform="translate(195.71 -295.311)" fill="#5b5b5f"/>
      <path id="Trazado_632942" data-name="Trazado 632942" d="M-306.611,401.2l.065.193Z" transform="translate(317.262 -353.253)" fill="#5b5b5f"/>
      <path id="Trazado_632943" data-name="Trazado 632943" d="M-98.494,327.191l-.3.005Z" transform="translate(188.911 -307.542)" fill="#5b5b5f"/>
      <path id="Trazado_632944" data-name="Trazado 632944" d="M-100.021,341.764a.061.061,0,0,1,0,.083.35.35,0,0,1-.023-.059C-100.044,341.782-100.028,341.772-100.021,341.764Z" transform="translate(189.682 -316.542)" fill="#5b5b5f"/>
      <path id="Trazado_632945" data-name="Trazado 632945" d="M-206.11,418.814l0-.116Z" transform="translate(255.191 -364.058)" fill="#5b5b5f"/>
      <path id="Trazado_632946" data-name="Trazado 632946" d="M-206.107,422.652l0-.115Z" transform="translate(255.192 -366.429)" fill="#5b5b5f"/>
      <path id="Trazado_632947" data-name="Trazado 632947" d="M-266.7,373.265h-16.345v-3.157H-266.7Z" transform="translate(302.705 -334.048)" fill="#05080a"/>
      <path id="Trazado_632948" data-name="Trazado 632948" d="M-247.565,407.345h-9.676v-3.176h9.676Z" transform="translate(286.77 -355.085)" fill="#05080a"/>
      <path id="Trazado_632949" data-name="Trazado 632949" d="M-257.216,353.023h9.686v3.16h-9.686Z" transform="translate(286.755 -323.496)" fill="#05080a"/>
      <path id="Trazado_632950" data-name="Trazado 632950" d="M-283.067,353h6.523v3.176h-6.523Z" transform="translate(302.721 -323.482)" fill="#0a0c0d"/>
      <path id="Trazado_632951" data-name="Trazado 632951" d="M-235.963,310.182v3.329H-248.4c-.618,0-.62,0-.621-.6,0-.9,0-1.8,0-2.726Z" transform="translate(281.695 -297.037)" fill="#0a0c0d"/>
    </g>
  </g>
</svg>
