<svg xmlns="http://www.w3.org/2000/svg" width="136" height="136" viewBox="0 0 136 136">
  <g id="Grupo_909100" data-name="Grupo 909100" transform="translate(-1094 -8396)">
    <circle id="Elipse_7122" data-name="Elipse 7122" cx="68" cy="68" r="68" transform="translate(1094 8396)" fill="#f1b62b"/>
    <g id="Grupo_904064" data-name="Grupo 904064" transform="translate(1106.34 8403.753)">
      <path id="Trazado_633024" data-name="Trazado 633024" d="M-413.7-91.415v-1.751c.192-.015.308-.033.425-.033,1.838,0,3.678-.049,5.514.021a8.591,8.591,0,0,1,4.687,1.589,9.109,9.109,0,0,1,3.087,3.678,8.2,8.2,0,0,1,.756,3.161c.088,3.983.042,7.97.042,11.955q0,14.122,0,28.242a9.03,9.03,0,0,1-2.435,6.268,8.822,8.822,0,0,1-3.541,2.377,9.259,9.259,0,0,1-3.23.513c-5.136-.023-10.273-.01-15.409-.01h-.591v3.557c.126.007.274.022.421.023,1.8,0,3.611-.07,5.41.025a4.994,4.994,0,0,1,4.263,2.819,5.8,5.8,0,0,1,.689,3.087c-.039,1.133.008,2.268-.017,3.4a5.164,5.164,0,0,1-1.533,3.47,5.22,5.22,0,0,1-4.1,1.66q-19.713-.005-39.426,0a5.2,5.2,0,0,1-4.358-2.194,4.835,4.835,0,0,1-1.056-3.053c.006-1.408-.024-2.817,0-4.226a5.041,5.041,0,0,1,2.034-3.821,5.423,5.423,0,0,1,3.873-1.179c1.612.06,3.227.014,4.875.014v-3.581h-.562c-5.291,0-10.582.007-15.873-.011a8.365,8.365,0,0,1-2.985-.59,8.994,8.994,0,0,1-4.78-4.231,7.832,7.832,0,0,1-1.016-3.779c.006-13.555-.017-27.109.025-40.663a8.087,8.087,0,0,1,2.939-6.153,13.357,13.357,0,0,1,2.34-1.588,9.025,9.025,0,0,1,1.7-.558l1.226-.228h6.262v3.641c-1.749,0-3.4.009-5.041,0a6.017,6.017,0,0,0-2.52.453,5.059,5.059,0,0,0-2.855,2.951c-.326.012-.314.188-.2.413l-.029.2c-.459.149-.193.5-.219.775a1.527,1.527,0,0,1,.016.153q0,19.932-.008,39.863c0,.308-.005.617-.008.925.025.272-.239.627.22.776l.028.2c-.115.226-.125.4.2.413a2.176,2.176,0,0,0,.115.331,5.225,5.225,0,0,0,4.8,3.056q18.707.039,37.413.012c.146,0,.292-.021.423-.03v-3.551h-24.666c-3.762,0-7.524.01-11.286-.013a3.427,3.427,0,0,1-1.522-.294,3.7,3.7,0,0,1-2.143-3.5q.018-17.8.016-35.609a4.825,4.825,0,0,1,.239-1.59A3.287,3.287,0,0,1-468.9-85.75c1.574-.5,3.184-.085,4.85-.267v3.68h-3.615V-46.3h3.559V-62.916c0-1.2,0-2.4.005-3.606a.719.719,0,0,1,.115-.462c.893-.9,1.8-1.79,2.714-2.677a2.1,2.1,0,0,0,.793-1.755c-.091-1.488-.024-2.986-.027-4.48q-.006-4.147-.016-8.293,0-3.613,0-7.226.008-4.865.015-9.73c0-2.077.024-4.154-.011-6.23a1.809,1.809,0,0,0-1.124-1.865l-.434-.152-3.768-.009-.235.457-.039.587-.216.573-.042.189-.2.62a11.079,11.079,0,0,1-1.492,3.363,13.316,13.316,0,0,1-2.526,3.033,15.514,15.514,0,0,1-3.593,2.443,13.935,13.935,0,0,1-4.439,1.282,19.315,19.315,0,0,1-3.832-.107,10.076,10.076,0,0,1-2.248-.511,14.927,14.927,0,0,1-2.843-1.267,13.955,13.955,0,0,1-3.686-3.059,13.963,13.963,0,0,1-1.832-2.675,21.318,21.318,0,0,1-1.35-3.5,13.6,13.6,0,0,1-.272-5.077,12.7,12.7,0,0,1,1.022-3.685,14.156,14.156,0,0,1,2.06-3.544,16.314,16.314,0,0,1,2.857-2.664,15.981,15.981,0,0,1,2.877-1.652c.665-.314,1.438-.389,2.135-.647a11.086,11.086,0,0,1,4.453-.441,11.285,11.285,0,0,1,1.951.349,12.053,12.053,0,0,1,2,.544,25.052,25.052,0,0,1,2.708,1.35,12.026,12.026,0,0,1,2.966,2.46,12.457,12.457,0,0,1,2.645,4.222c.35,1.009.569,2.063.834,3.1.1.386.225.638.72.62,1.115-.041,2.233-.012,3.349-.012a4.815,4.815,0,0,1,2.957,1.021,5.752,5.752,0,0,1,1.979,2.492,4.946,4.946,0,0,1,.262,1.792c.019,5.256.011,10.512.012,15.768,0,.189.01.377.015.566q0,3.613,0,7.226v9.952l.127.07c.625-.639,1.252-1.275,1.873-1.917.77-.8,1.52-1.612,2.315-2.382a1.177,1.177,0,0,1,.754-.257c3.517-.016,7.034-.011,10.551-.011h.548v-5.457q0-3.611,0-7.223c.008-2.9.009-5.805.03-8.708,0-.418-.329-.4-.545-.471-.827-.258-1.687-.417-2.5-.712a13.893,13.893,0,0,1-2.74-1.213,14.246,14.246,0,0,1-3.424-2.984,18.245,18.245,0,0,1-2.317-3.825,14.691,14.691,0,0,1-1.042-7.321,11.89,11.89,0,0,1,.83-3.358,17.231,17.231,0,0,1,1.433-2.72,12.671,12.671,0,0,1,3.021-3.38,14.006,14.006,0,0,1,4.148-2.339,15.183,15.183,0,0,1,6.241-.854,8.81,8.81,0,0,1,1.466.248,23.7,23.7,0,0,1,2.483.706,13.975,13.975,0,0,1,3.594,2.085,12.683,12.683,0,0,1,2.9,2.992c.584.87,1.054,1.817,1.557,2.74a3.851,3.851,0,0,1,.223.68l.213.5.016.175.186.546.029.263.212.676.059.406a1.4,1.4,0,0,0,.188,1.341v2.155a1.293,1.293,0,0,0-.2,1.236l-.025.41-.237.766-.023.275-.111.3a11.505,11.505,0,0,1-2.1,4.36,16.756,16.756,0,0,1-2.266,2.5,11.148,11.148,0,0,1-4.009,2.435c-1.081.33-2.174.622-3.262.93l-.332.178a1.729,1.729,0,0,0-.051.3q0,4.214,0,8.429a2.122,2.122,0,0,0,.029.253q0,3.612,0,7.224v5.427h16.162V-84.2c.01-.7.03-1.4.029-2.1,0-1.708-.019-3.416-.03-5.124.01-.188.029-.375.029-.563q0-7.961.012-15.923a3.651,3.651,0,0,1,.177-1.552,6.675,6.675,0,0,1,2.13-2.671,5.457,5.457,0,0,1,3.4-.933c1.08.04,2.162.008,3.306.008l.216-.928a.391.391,0,0,0,.19-.619l.043-.3.234-.654.018-.182.183-.448.023-.169.2-.32c.346-.73.661-1.478,1.045-2.188a12.494,12.494,0,0,1,3.22-3.678,18.41,18.41,0,0,1,2.953-1.779,9.337,9.337,0,0,1,1.825-.723,14.331,14.331,0,0,1,2.591-.59,11.451,11.451,0,0,1,4.87.343c.7.241,1.463.332,2.142.622a19.675,19.675,0,0,1,2.3,1.256,10.637,10.637,0,0,1,1.7,1.155,14.754,14.754,0,0,1,3.29,4.091,21.229,21.229,0,0,1,1.242,2.884,9.348,9.348,0,0,1,.4,2.034c.091.811.119,1.631.136,2.449a12.455,12.455,0,0,1-.848,4.473,14.283,14.283,0,0,1-4.123,6.028,11.763,11.763,0,0,1-3.852,2.382,18.941,18.941,0,0,1-3.259.91,15.758,15.758,0,0,1-3.774.176,20.426,20.426,0,0,1-3.41-.839,10.487,10.487,0,0,1-1.1-.412,10.6,10.6,0,0,1-3.6-2.315,22.486,22.486,0,0,1-2.424-2.739,11.289,11.289,0,0,1-1.789-3.78c-.192-.742-.391-1.483-.587-2.224l.091-.155-.208-.094-3.768,0a1.206,1.206,0,0,0-1.155.665,1.907,1.907,0,0,0-.428,1.276q.02,7.868.009,15.736c0,.1.011.2.017.307v12.7h3.582v25.2h3.506V-82.366h-3.6v-3.591c1.479,0,2.883-.016,4.285.013a2.053,2.053,0,0,1,.9.275,3.8,3.8,0,0,1,2.116,3.582q-.02,13.991-.006,27.981v.6h3.553v-.646q0-14.686-.009-29.372a12.22,12.22,0,0,0-.2-1.92,4.8,4.8,0,0,0-1.475-2.606,5.272,5.272,0,0,0-3.858-1.506c-1.58-.025-3.16-.005-4.741-.007-.166,0-.332-.015-.567-.026Zm21.239-29.493-.2-.047c-.074-.378-.287-.268-.623-.135l.372.3c.223.436.449.872.67,1.31a6.393,6.393,0,0,0,.4.8,3.435,3.435,0,0,0,2.273.008l-.192-.178-2.492-1.887Zm-83.413-.078-.062-.069.073.059c.3.616.579,1.241.9,1.844.131.244.334.6.54.623a15.128,15.128,0,0,0,1.93.03l.076-.14c-.637-.542-1.243-1.13-1.924-1.611A9.687,9.687,0,0,0-475.874-120.986Zm32.487,15.858.139.16.031-.039-.18-.111c.007-.067.042-.146.018-.2-.312-.662-.627-1.323-.957-1.975-.062-.123-.193-.3-.3-.3-.687-.027-1.376-.014-2.064-.014l-.065.176c.722.583,1.423,1.193,2.173,1.736A6.865,6.865,0,0,0-443.388-105.128Zm-26.8-2.572.195-.419c.036-.183.075-.365.107-.549.129-.718.289-1.433.376-2.156a8.125,8.125,0,0,0-.363-2.983c-.3-1.172.019-1.025-1.352-1.032-.746,0-1.492,0-2.139,0,.1,1.392.207,2.7.27,4.01a14.5,14.5,0,0,1-.089,1.576l-.015.287-.11.613c-.245.447-.245.488-.007.7Zm21.269-3.526,3.168-.016c.395-.277.18-.488-.075-.694l-.055-.6-.067-.524a3.854,3.854,0,0,1-.11-.74c.064-1.531.148-3.062.226-4.61h-3.117l-.256.424-.054.394-.16.531-.03.195-.213,1.341c.034.76.036,1.524.113,2.28a15.36,15.36,0,0,0,.319,1.579C-449.287-111.413-449.323-111.168-448.921-111.227Zm13.238-6.8-.112-.378h-6.15a10.186,10.186,0,0,0-.508,3.687c.033.86.132,1.718.2,2.576l.186.417.116.465h6.158l.113-.449.2-.475.042-.676c.387-.267.149-.64.167-.971v-2.078c-.019-.33.222-.705-.169-.97l-.036-.577C-435.475-117.669-435.293-117.951-435.682-118.026Zm34.68,7.74.207,1.034.033.5.173.631.05.459h6.171a11.844,11.844,0,0,0,.028-7.139h-6.175A13.771,13.771,0,0,0-401-110.286Zm-16.434,83.181a1.829,1.829,0,0,0-1.8-1.088c-.893-.007-1.786,0-2.679,0H-424.4a4.941,4.941,0,0,1-.059.709,3.891,3.891,0,0,1-3.671,2.891q-10.717.02-21.435-.009a3.773,3.773,0,0,1-2.62-1.066,4.063,4.063,0,0,1-1.149-2.519c-1.844,0-3.664-.052-5.48.022a1.776,1.776,0,0,0-1.678,1.793c-.031,1.2-.012,2.4,0,3.606a1.529,1.529,0,0,0,.11.535,1.968,1.968,0,0,0,2.1,1.241q13.036-.018,26.072-.007c4.276,0,8.553.006,12.83-.006a2.15,2.15,0,0,0,1.687-.613l.208-.267.075-.234.191-.463,0-4.059ZM-460.487-46.29h28.818c0-.744-.016-1.462,0-2.179s.053-1.427.12-2.137a3.551,3.551,0,0,1,3.38-2.879c3.452.021,6.9.006,10.357.006h.532V-75.1h-32.416v10.812h-10.8Zm32.468,7.249h.612c6.079,0,12.159-.011,18.238.008a6.405,6.405,0,0,0,4.161-1.13,4.721,4.721,0,0,0,1.916-2.831,16.437,16.437,0,0,0,.23-2.733c.036-1.367.009-2.736.009-4.111h-25.166Zm-.059,3.668h-21.562v7.114h21.562ZM-483.4-114.821a13,13,0,0,0-.006,7.164h6.107a11.839,11.839,0,0,0,.049-7.164Zm-3.744,7.193a16.934,16.934,0,0,1,.022-7.215c-.989,0-1.948.019-2.9-.009a.563.563,0,0,0-.649.55c-.113.631-.219,1.264-.344,1.892a9.775,9.775,0,0,0,.4,4.422.552.552,0,0,0,.38.344C-489.213-107.615-488.187-107.628-487.143-107.628Zm82.791-7.215c-.887,0-1.846.016-2.8-.008a.5.5,0,0,0-.587.478c-.123.662-.275,1.32-.4,1.982a9.264,9.264,0,0,0,.478,4.51.406.406,0,0,0,.286.242c1.039.018,2.08.011,3.038.011-.1-1.249-.26-2.427-.262-3.605S-404.448-113.586-404.353-114.843Zm-27.625,3.607c.987,0,2.014.009,3.039-.015.107,0,.265-.189.3-.318.149-.5.248-1.018.385-1.523a9.724,9.724,0,0,0-.316-5,.629.629,0,0,0-.47-.339c-.615-.041-1.234-.016-1.851-.016h-1.06c.106,1.279.284,2.459.279,3.639S-431.864-112.461-431.978-111.236Zm41.366,3.608c1.074,0,2.1.006,3.123-.01a.389.389,0,0,0,.287-.229,14.123,14.123,0,0,0,.546-2.634,16.665,16.665,0,0,0-.265-3.207c-.18-1.143-.234-1.135-1.406-1.135h-2.258A16.773,16.773,0,0,1-390.612-107.628ZM-453.321-72.4l-.135-.1-4.452,4.382.145.172h4.442Zm54.234-31.572c.531.82,1,1.552,1.486,2.267a.42.42,0,0,0,.363-.069c.493-.695.961-1.408,1.492-2.2Zm-82.894,0c.531.811,1,1.54,1.492,2.255a.344.344,0,0,0,.323-.008c.509-.718,1-1.45,1.539-2.247Zm44.769-3.6h-3.3c.522.811.988,1.544,1.475,2.263a.362.362,0,0,0,.329-.037C-438.214-106.056-437.735-106.785-437.212-107.567Zm-.017-14.557c-.5-.806-.963-1.557-1.446-2.294a.375.375,0,0,0-.338-.037c-.5.744-.97,1.5-1.495,2.33Zm-41.451,3.6c-.506-.814-.961-1.561-1.439-2.295a.371.371,0,0,0-.341-.018c-.494.737-.966,1.49-1.491,2.313Zm82.884-.006c-.5-.8-.959-1.546-1.438-2.278a.37.37,0,0,0-.334-.036c-.495.737-.969,1.487-1.5,2.314Zm-6.2,17.125.147-.128c-.306-.6-.606-1.212-.921-1.811-.119-.226-.256-.605-.414-.621-.7-.069-1.4-.03-2.184-.03A11.041,11.041,0,0,0-401.993-101.4Zm12.557-2.6c-.78,0-1.443-.014-2.106.012a.54.54,0,0,0-.388.249c-.36.714-.69,1.444-1.088,2.289A9.121,9.121,0,0,0-389.436-104Zm-45.089-.942a10.607,10.607,0,0,0,3.586-2.667c-.384,0-.67.025-.951,0-.89-.093-1.676-.035-1.831,1.094,0,.026-.053.043-.067.07C-434.016-105.986-434.242-105.521-434.525-104.942Zm-53.654.942-.1.207c1.01.737,2.017,1.478,3.036,2.2.079.056.238,0,.359,0a.876.876,0,0,0-.016-.324c-.278-.579-.56-1.157-.87-1.719-.083-.151-.265-.338-.411-.347C-486.845-104.021-487.513-104-488.179-104Zm41.387-18.106c.744,0,1.359.024,1.971-.015a.71.71,0,0,0,.488-.331c.387-.735.731-1.493,1.106-2.276A9.6,9.6,0,0,0-446.792-122.106Zm12.306-2.612c.378.81.708,1.548,1.07,2.269a.621.621,0,0,0,.4.326c.655.035,1.312.015,2.081.015A10.048,10.048,0,0,0-434.486-124.718Zm29.213,6.22c.669,0,1.268.024,1.865-.015a.712.712,0,0,0,.508-.306c.39-.731.734-1.487,1.1-2.246A8.553,8.553,0,0,0-405.273-118.5Zm-83.017,0c.387,0,.644-.021.9,0,.931.089,1.779.054,1.969-1.137.009-.061.083-.109.113-.169.187-.378.37-.757.555-1.136l-.166-.121A13.42,13.42,0,0,0-488.29-118.5Zm15.816,14.5c-.662,0-1.325-.009-1.986.01a.434.434,0,0,0-.3.215c-.336.652-.653,1.315-.975,1.975l.124.116A6.253,6.253,0,0,0-472.474-104Z" transform="translate(494.789 129.343)" fill="#070809"/>
      <path id="Trazado_633025" data-name="Trazado 633025" d="M-448.5,6.533c0-.308.008-.617.008-.925q0-19.932.008-39.863a1.527,1.527,0,0,0-.016-.153l.219-.775.029-.2.2-.413a5.06,5.06,0,0,1,2.855-2.951,6.017,6.017,0,0,1,2.52-.453c1.646.012,3.292,0,5.041,0v-1.856l3.528.006q0,3.613,0,7.226l-3.529-.008v-1.819c-1.666.182-3.276-.235-4.85.267a3.286,3.286,0,0,0-2.173,2.124,4.823,4.823,0,0,0-.239,1.59q-.019,17.8-.016,35.609a3.7,3.7,0,0,0,2.143,3.5,3.427,3.427,0,0,0,1.522.294c3.762.024,7.524.013,11.286.013H-405.3v3.551c-.13.01-.277.03-.423.03q-18.707,0-37.413-.012a5.225,5.225,0,0,1-4.8-3.056,2.169,2.169,0,0,1-.115-.331l-.2-.413-.028-.2Z" transform="translate(468.384 78.978)" fill="#dde1e6"/>
      <path id="Trazado_633026" data-name="Trazado 633026" d="M-314.132-33.819v-7.225h3.492v1.823c.235.011.4.025.567.026,1.58,0,3.16-.018,4.741.007a5.272,5.272,0,0,1,3.858,1.506A4.8,4.8,0,0,1-300-35.075a12.223,12.223,0,0,1,.2,1.92q.019,14.686.009,29.372v.646h-3.553v-.6q0-13.991.006-27.981a3.8,3.8,0,0,0-2.116-3.582,2.053,2.053,0,0,0-.9-.275c-1.4-.029-2.807-.013-4.285-.013v1.764Z" transform="translate(391.729 78.971)" fill="#dde1e6"/>
      <path id="Trazado_633027" data-name="Trazado 633027" d="M-344.173-41.057c.011,1.708.025,3.416.03,5.124,0,.7-.018,1.4-.028,2.1l-3.534.006v-1.764h-9.1v1.764l-3.533-.006q0-3.613,0-7.224l3.532.006v1.821h9.1v-1.821Z" transform="translate(418.086 78.978)" fill="#dde1e6"/>
      <path id="Trazado_633028" data-name="Trazado 633028" d="M-390.354-41.043q0,3.611,0,7.223h-3.5v-1.762h-9.088v1.764h-3.575q0-3.613,0-7.226h3.575v1.82h9.088v-1.819Z" transform="translate(444.435 78.971)" fill="#dde1e6"/>
      <path id="Trazado_633029" data-name="Trazado 633029" d="M-343.012-43.381v1.821h-9.1V-45.14h9.1Z" transform="translate(413.393 81.307)" fill="#070809"/>
      <path id="Trazado_633030" data-name="Trazado 633030" d="M-389.11-43.377v1.819H-398.2v-3.577h9.088Z" transform="translate(439.686 81.304)" fill="#070809"/>
      <path id="Trazado_633031" data-name="Trazado 633031" d="M-331.6-91.9a1.293,1.293,0,0,1,.2-1.236Z" transform="translate(401.737 108.686)" fill="#182c33"/>
      <path id="Trazado_633032" data-name="Trazado 633032" d="M-331.4-99.931a1.4,1.4,0,0,1-.188-1.341Z" transform="translate(401.741 113.329)" fill="#182c33"/>
      <path id="Trazado_633033" data-name="Trazado 633033" d="M-313.2-82.249a1.206,1.206,0,0,1,1.155-.665Z" transform="translate(391.195 102.856)" fill="#838d99"/>
      <path id="Trazado_633034" data-name="Trazado 633034" d="M-439.418-45.338l-1.226.228C-440.314-45.61-439.851-45.395-439.418-45.338Z" transform="translate(463.901 81.474)" fill="#dde1e6"/>
      <path id="Trazado_633035" data-name="Trazado 633035" d="M-332.113-88.534l.237-.766Z" transform="translate(401.986 106.499)" fill="#182c33"/>
      <path id="Trazado_633036" data-name="Trazado 633036" d="M-300.931-95.029a.391.391,0,0,1-.19.619Z" transform="translate(384.306 109.768)" fill="#182c33"/>
      <path id="Trazado_633037" data-name="Trazado 633037" d="M-331.888-103.114l-.212-.676Z" transform="translate(401.979 114.766)" fill="#182c33"/>
      <path id="Trazado_633038" data-name="Trazado 633038" d="M-300.344-97.259l-.234.654Z" transform="translate(383.996 111.04)" fill="#182c33"/>
      <path id="Trazado_633039" data-name="Trazado 633039" d="M-332.413-105.128l-.186-.546Z" transform="translate(402.264 115.84)" fill="#182c33"/>
      <path id="Trazado_633040" data-name="Trazado 633040" d="M-429.085-78.095l.2-.62Z" transform="translate(457.306 100.461)" fill="#838d99"/>
      <path id="Trazado_633041" data-name="Trazado 633041" d="M-428.529-79.916l.216-.573Z" transform="translate(456.989 101.473)" fill="#838d99"/>
      <path id="Trazado_633042" data-name="Trazado 633042" d="M-332.92-106.743l-.213-.5Z" transform="translate(402.568 116.734)" fill="#182c33"/>
      <path id="Trazado_633043" data-name="Trazado 633043" d="M-418.615-82.9l.434.152Z" transform="translate(451.334 102.848)" fill="#838d99"/>
      <path id="Trazado_633044" data-name="Trazado 633044" d="M-427.936-82.462l.235-.457Z" transform="translate(456.651 102.859)" fill="#838d99"/>
      <path id="Trazado_633045" data-name="Trazado 633045" d="M-299.81-98.726l-.183.448Z" transform="translate(383.663 111.877)" fill="#182c33"/>
      <path id="Trazado_633046" data-name="Trazado 633046" d="M-332.425-86.573l.111-.3Z" transform="translate(402.164 105.117)" fill="#182c33"/>
      <path id="Trazado_633047" data-name="Trazado 633047" d="M-360.278-62.193l.332-.178Z" transform="translate(418.054 91.137)" fill="#838d99"/>
      <path id="Trazado_633048" data-name="Trazado 633048" d="M-301.735-82.907l.208.094-.091.155Z" transform="translate(384.656 102.852)" fill="#838d99"/>
      <path id="Trazado_633049" data-name="Trazado 633049" d="M-299.317-99.865l-.2.32Z" transform="translate(383.389 112.527)" fill="#182c33"/>
      <path id="Trazado_633050" data-name="Trazado 633050" d="M-414.93,25.756v-18h10.8V-3.051h32.416V18.567h-.532c-3.453,0-6.9.015-10.357-.006a3.551,3.551,0,0,0-3.38,2.879c-.067.71-.1,1.424-.12,2.137s0,1.435,0,2.179Zm39.651-14.378h-36.028v3.553h36.028Zm0-7.212h-25.2V7.712h25.2Zm-18.046,14.424h-3.559v3.561h3.559Zm-10.761-.006V22.14h3.537V18.585Zm-3.67,3.574V18.594h-3.555v3.565Z" transform="translate(449.231 57.297)" fill="#ffe494"/>
      <path id="Trazado_633051" data-name="Trazado 633051" d="M-339.339,66.555v-10.8h25.166c0,1.375.027,2.743-.009,4.111a16.427,16.427,0,0,1-.23,2.733,4.721,4.721,0,0,1-1.916,2.831,6.405,6.405,0,0,1-4.161,1.13c-6.079-.019-12.159-.008-18.238-.008Zm21.589-3.608V59.363h-3.61v3.584Zm-18,0h3.575V59.36h-3.575Zm7.217-3.6v3.591h3.553V59.351Z" transform="translate(406.109 23.748)" fill="#ffcc58"/>
      <path id="Trazado_633052" data-name="Trazado 633052" d="M-371.887,112.2l-.075.234-.207.267a2.151,2.151,0,0,1-1.687.613c-4.276.012-8.553.006-12.829.006q-13.037,0-26.072.007a1.968,1.968,0,0,1-2.1-1.241,1.528,1.528,0,0,1-.11-.535c-.009-1.2-.028-2.4,0-3.606a1.776,1.776,0,0,1,1.678-1.793c1.816-.074,3.636-.022,5.48-.022a4.064,4.064,0,0,0,1.148,2.519,3.773,3.773,0,0,0,2.62,1.066q10.717.043,21.435.009a3.891,3.891,0,0,0,3.671-2.891,4.933,4.933,0,0,0,.059-.709h2.482c.893,0,1.786-.005,2.679,0a1.829,1.829,0,0,1,1.8,1.088l.207.463q0,2.029,0,4.059Z" transform="translate(449.259 -4.98)" fill="#838d99"/>
      <path id="Trazado_633053" data-name="Trazado 633053" d="M-428.015-24.239l3.529.008q.008,4.147.016,8.293c0,1.494-.064,2.992.027,4.48a2.1,2.1,0,0,1-.793,1.755c-.91.887-1.821,1.774-2.714,2.677a.719.719,0,0,0-.115.462c-.009,1.2-.005,2.4-.005,3.606V13.662h-3.559v-36.04h3.615Z" transform="translate(458.758 69.384)" fill="#5ec1e5"/>
      <path id="Trazado_633054" data-name="Trazado 633054" d="M-368.115,89.433v7.114h-21.562V89.433Z" transform="translate(434.825 4.537)" fill="#98a2af"/>
      <path id="Trazado_633055" data-name="Trazado 633055" d="M-314.132-24.225h3.493V-22.4h3.6V6.454h-3.506v-25.2h-3.582Z" transform="translate(391.729 69.376)" fill="#5ec1e5"/>
      <path id="Trazado_633056" data-name="Trazado 633056" d="M-406.521-24.223h3.575v1.811h9.088v-1.813h3.5v5.457h-.548c-3.517,0-7.034-.005-10.551.011a1.177,1.177,0,0,0-.754.257c-.795.771-1.545,1.586-2.315,2.382-.622.642-1.249,1.278-1.873,1.917l-.127-.07Z" transform="translate(444.434 69.376)" fill="#5ec1e5"/>
      <path id="Trazado_633057" data-name="Trazado 633057" d="M-360.334-24.239l3.533.006v1.815h9.1v-1.814l3.534-.006c0,1.8,0,3.6,0,5.427h-16.162Z" transform="translate(418.086 69.384)" fill="#5ec1e5"/>
      <path id="Trazado_633058" data-name="Trazado 633058" d="M-276.236-89.429l-.033-.5-.207-1.034a13.774,13.774,0,0,1,.487-4.511h6.175a11.843,11.843,0,0,1-.028,7.139h-6.171l-.05-.459Q-276.15-89.114-276.236-89.429Z" transform="translate(370.262 110.024)" fill="#5ec1e5"/>
      <path id="Trazado_633059" data-name="Trazado 633059" d="M-468.945-95.534h6.15a11.839,11.839,0,0,1-.049,7.164h-6.107A13,13,0,0,1-468.945-95.534Z" transform="translate(480.334 110.056)" fill="#5ec1e5"/>
      <path id="Trazado_633060" data-name="Trazado 633060" d="M-365.771-101.378q0,1.039,0,2.078-.084.485-.167.971-.021.338-.042.676l-.2.475-.113.449h-6.158l-.116-.465-.186-.417c-.069-.859-.168-1.716-.2-2.576a10.186,10.186,0,0,1,.509-3.687h6.15l.112.378.207.573.036.577Z" transform="translate(425.29 114.815)" fill="#5ec1e5"/>
      <path id="Trazado_633061" data-name="Trazado 633061" d="M-482.3-88.383c-1.044,0-2.07.013-3.095-.016a.552.552,0,0,1-.38-.344,9.775,9.775,0,0,1-.4-4.422c.125-.629.231-1.262.344-1.892a.563.563,0,0,1,.649-.55c.957.028,1.916.009,2.9.009A16.936,16.936,0,0,0-482.3-88.383Z" transform="translate(489.941 110.098)" fill="#57b6d8"/>
      <path id="Trazado_633062" data-name="Trazado 633062" d="M-289.425-95.6c-.095,1.257-.254,2.433-.253,3.61s.164,2.356.262,3.6c-.958,0-2,.006-3.038-.011a.406.406,0,0,1-.286-.242,9.264,9.264,0,0,1-.478-4.51c.124-.662.277-1.32.4-1.982a.5.5,0,0,1,.587-.478C-291.271-95.58-290.312-95.6-289.425-95.6Z" transform="translate(379.861 110.096)" fill="#57b6d8"/>
      <path id="Trazado_633063" data-name="Trazado 633063" d="M-348.555-96.78c.113-1.225.3-2.4.308-3.577s-.173-2.36-.279-3.639h1.06c.618,0,1.237-.024,1.851.016a.63.63,0,0,1,.47.339,9.724,9.724,0,0,1,.316,5c-.137.505-.236,1.021-.385,1.523-.038.129-.2.315-.3.318C-346.541-96.77-347.568-96.78-348.555-96.78Z" transform="translate(411.366 114.887)" fill="#57b6d8"/>
      <path id="Trazado_633064" data-name="Trazado 633064" d="M-252.249-88.37a16.773,16.773,0,0,0,.027-7.215h2.258c1.172,0,1.226-.009,1.406,1.135a16.657,16.657,0,0,1,.265,3.207,14.12,14.12,0,0,1-.546,2.634.389.389,0,0,1-.287.229C-250.15-88.364-251.175-88.37-252.249-88.37Z" transform="translate(356.426 110.085)" fill="#57b6d8"/>
      <path id="Trazado_633065" data-name="Trazado 633065" d="M-385.819-96.73l-3.168.016-.31-.446a15.368,15.368,0,0,1-.319-1.579c-.077-.756-.079-1.52-.113-2.28l.213-1.341.03-.195.16-.531.054-.394.256-.424h3.117c-.079,1.548-.163,3.079-.226,4.61a3.854,3.854,0,0,0,.11.74l.067.524.055.6Z" transform="translate(434.855 114.831)" fill="#5ec1e5"/>
      <path id="Trazado_633066" data-name="Trazado 633066" d="M-444.854-89.093q.055-.307.11-.613c0-.1.01-.191.015-.287a14.49,14.49,0,0,0,.088-1.576c-.063-1.31-.173-2.618-.27-4.01.647,0,1.393,0,2.139,0,1.371.007,1.053-.14,1.352,1.032a8.126,8.126,0,0,1,.363,2.983c-.087.723-.247,1.438-.376,2.156-.033.183-.071.366-.107.549l-.195.419-3.125.042Q-444.858-88.746-444.854-89.093Z" transform="translate(466.335 110.083)" fill="#5ec1e5"/>
      <path id="Trazado_633067" data-name="Trazado 633067" d="M-404.337,3.111V7.567h-4.442l-.145-.172,4.452-4.382Z" transform="translate(445.805 53.837)" fill="#e55441"/>
      <path id="Trazado_633068" data-name="Trazado 633068" d="M-271.981-70.264h3.342c-.531.791-1,1.5-1.492,2.2a.419.419,0,0,1-.363.069C-270.984-68.712-271.45-69.444-271.981-70.264Z" transform="translate(367.683 95.64)" fill="#57b6d8"/>
      <path id="Trazado_633069" data-name="Trazado 633069" d="M-464.971-70.269h3.354c-.541.8-1.03,1.53-1.539,2.247a.344.344,0,0,1-.323.008C-463.969-68.729-464.44-69.458-464.971-70.269Z" transform="translate(477.778 95.643)" fill="#57b6d8"/>
      <path id="Trazado_633070" data-name="Trazado 633070" d="M-365.131-78.646c-.523.783-1,1.512-1.5,2.226a.362.362,0,0,1-.329.037c-.486-.719-.952-1.452-1.475-2.263Z" transform="translate(422.708 100.422)" fill="#57b6d8"/>
      <path id="Trazado_633071" data-name="Trazado 633071" d="M-365.137-115.667h-3.279c.525-.827,1-1.586,1.495-2.33a.375.375,0,0,1,.338.037C-366.1-117.224-365.64-116.473-365.137-115.667Z" transform="translate(422.696 122.885)" fill="#57b6d8"/>
      <path id="Trazado_633072" data-name="Trazado 633072" d="M-461.629-107.271H-464.9c.525-.823,1-1.575,1.491-2.313a.371.371,0,0,1,.341.018C-462.59-108.832-462.134-108.085-461.629-107.271Z" transform="translate(477.738 118.09)" fill="#57b6d8"/>
      <path id="Trazado_633073" data-name="Trazado 633073" d="M-268.663-107.275h-3.271c.53-.826,1-1.577,1.5-2.314a.37.37,0,0,1,.334.036C-269.621-108.821-269.163-108.075-268.663-107.275Z" transform="translate(367.656 118.088)" fill="#57b6d8"/>
      <path id="Trazado_633074" data-name="Trazado 633074" d="M-283.225-67.752a11.041,11.041,0,0,1-3.372-2.589c.781,0,1.488-.039,2.184.03.158.015.3.394.414.621.315.6.615,1.207.921,1.811Z" transform="translate(376.021 95.69)" fill="#57b6d8"/>
      <path id="Trazado_633075" data-name="Trazado 633075" d="M-254.268-70.346a9.121,9.121,0,0,1-3.581,2.55c.4-.846.727-1.575,1.088-2.289a.54.54,0,0,1,.388-.249C-255.711-70.36-255.048-70.346-254.268-70.346Z" transform="translate(359.621 95.689)" fill="#57b6d8"/>
      <path id="Trazado_633076" data-name="Trazado 633076" d="M-354.485-76.122c.283-.579.509-1.044.737-1.507.014-.028.064-.045.067-.07.156-1.129.942-1.187,1.832-1.094.28.03.567,0,.951,0A10.608,10.608,0,0,1-354.485-76.122Z" transform="translate(414.749 100.523)" fill="#57b6d8"/>
      <path id="Trazado_633077" data-name="Trazado 633077" d="M-479.534-70.349c.666,0,1.334-.021,2,.016.146.008.328.2.411.347.31.562.591,1.14.87,1.719a.875.875,0,0,1,.016.324c-.122,0-.28.059-.359,0-1.019-.725-2.026-1.466-3.036-2.2Z" transform="translate(486.144 95.692)" fill="#57b6d8"/>
      <path id="Trazado_633078" data-name="Trazado 633078" d="M-383.045-115.978a9.6,9.6,0,0,1,3.566-2.623c-.376.783-.72,1.541-1.106,2.276a.71.71,0,0,1-.488.331C-381.686-115.954-382.3-115.978-383.045-115.978Z" transform="translate(431.042 123.215)" fill="#57b6d8"/>
      <path id="Trazado_633079" data-name="Trazado 633079" d="M-354.395-118.576a10.048,10.048,0,0,1,3.556,2.611c-.769,0-1.427.02-2.081-.015a.621.621,0,0,1-.4-.326C-353.687-117.028-354.017-117.766-354.395-118.576Z" transform="translate(414.698 123.201)" fill="#57b6d8"/>
      <path id="Trazado_633080" data-name="Trazado 633080" d="M-379.6-76.261a6.876,6.876,0,0,1-1.2-.565c-.75-.543-1.451-1.153-2.173-1.736l.065-.176c.688,0,1.377-.013,2.064.014.105,0,.236.176.3.3.33.652.645,1.313.957,1.975.024.052-.011.132-.018.2Z" transform="translate(431.005 100.476)" fill="#57b6d8"/>
      <path id="Trazado_633081" data-name="Trazado 633081" d="M-286.382-107.5a8.553,8.553,0,0,1,3.472-2.566c-.366.759-.71,1.515-1.1,2.246a.712.712,0,0,1-.508.306C-285.114-107.479-285.713-107.5-286.382-107.5Z" transform="translate(375.898 118.348)" fill="#57b6d8"/>
      <path id="Trazado_633082" data-name="Trazado 633082" d="M-450.754-109.9a9.634,9.634,0,0,1,1.536.735c.681.481,1.286,1.069,1.924,1.611l-.076.14a15.129,15.129,0,0,1-1.93-.03c-.206-.026-.409-.38-.54-.623-.323-.6-.6-1.228-.9-1.844Z" transform="translate(469.668 118.257)" fill="#57b6d8"/>
      <path id="Trazado_633083" data-name="Trazado 633083" d="M-479.659-107.494a13.419,13.419,0,0,1,3.367-2.559l.166.121c-.184.379-.367.759-.555,1.136-.03.061-.1.109-.113.169-.19,1.191-1.038,1.226-1.969,1.137C-479.015-107.515-479.272-107.494-479.659-107.494Z" transform="translate(486.158 118.339)" fill="#57b6d8"/>
      <path id="Trazado_633084" data-name="Trazado 633084" d="M-447.165-70.343a6.253,6.253,0,0,1-3.135,2.316l-.124-.116c.323-.66.639-1.323.975-1.975a.434.434,0,0,1,.3-.215C-448.49-70.353-447.828-70.343-447.165-70.343Z" transform="translate(469.48 95.686)" fill="#57b6d8"/>
      <path id="Trazado_633085" data-name="Trazado 633085" d="M-256.936-109.59l2.492,1.887.192.178a3.435,3.435,0,0,1-2.273-.008,6.38,6.38,0,0,1-.4-.8c-.221-.438-.447-.874-.67-1.31l.252-.168.2.047Z" transform="translate(359.477 118.203)" fill="#57b6d8"/>
      <path id="Trazado_633086" data-name="Trazado 633086" d="M-389.516-100.311l-.213,1.341Z" transform="translate(434.855 112.781)" fill="#3d89a1"/>
      <path id="Trazado_633087" data-name="Trazado 633087" d="M-276.441-84.975l.207,1.034Z" transform="translate(370.227 104.032)" fill="#3d89a1"/>
      <path id="Trazado_633088" data-name="Trazado 633088" d="M-356.444-99.349l-.169-.97C-356.222-100.054-356.463-99.679-356.444-99.349Z" transform="translate(415.963 112.786)" fill="#182c33"/>
      <path id="Trazado_633089" data-name="Trazado 633089" d="M-356.608-92.251q.083-.485.167-.971C-356.459-92.892-356.221-92.518-356.608-92.251Z" transform="translate(415.96 108.737)" fill="#182c33"/>
      <path id="Trazado_633090" data-name="Trazado 633090" d="M-448.356-27.384l-.219.775C-448.549-26.881-448.815-27.235-448.356-27.384Z" transform="translate(468.455 71.178)" fill="#182c33"/>
      <path id="Trazado_633091" data-name="Trazado 633091" d="M-380.725-88.125l-.075-.694C-380.545-88.612-380.331-88.4-380.725-88.125Z" transform="translate(429.761 106.225)" fill="#182c33"/>
      <path id="Trazado_633092" data-name="Trazado 633092" d="M-448.574,69.739l.22.776C-448.813,70.366-448.549,70.011-448.574,69.739Z" transform="translate(468.455 15.772)" fill="#182c33"/>
      <path id="Trazado_633093" data-name="Trazado 633093" d="M-257.839-110.159l-.252.168-.372-.3C-258.126-110.427-257.913-110.538-257.839-110.159Z" transform="translate(359.97 118.547)" fill="#182c33"/>
      <path id="Trazado_633094" data-name="Trazado 633094" d="M-275.883-81.395l.173.631Z" transform="translate(369.909 101.99)" fill="#3d89a1"/>
      <path id="Trazado_633095" data-name="Trazado 633095" d="M-356.973-102.423l-.207-.573C-356.791-102.921-356.973-102.639-356.973-102.423Z" transform="translate(416.286 114.313)" fill="#182c33"/>
      <path id="Trazado_633096" data-name="Trazado 633096" d="M-445.024-80.477q0,.348-.007.7C-445.269-79.989-445.269-80.03-445.024-80.477Z" transform="translate(466.505 101.466)" fill="#3d89a1"/>
      <path id="Trazado_633097" data-name="Trazado 633097" d="M-357.169-88.914l.2-.475Z" transform="translate(416.28 106.55)" fill="#182c33"/>
      <path id="Trazado_633098" data-name="Trazado 633098" d="M-389-102l-.16.531Z" transform="translate(434.533 113.745)" fill="#3d89a1"/>
      <path id="Trazado_633099" data-name="Trazado 633099" d="M-388.768-88.2l.31.446C-388.861-87.7-388.825-87.944-388.768-88.2Z" transform="translate(434.326 105.874)" fill="#182c33"/>
      <path id="Trazado_633100" data-name="Trazado 633100" d="M-388.411-103.9l-.256.424Z" transform="translate(434.249 114.831)" fill="#3d89a1"/>
      <path id="Trazado_633101" data-name="Trazado 633101" d="M-447.823-28.819l-.2.413C-448.137-28.631-448.15-28.807-447.823-28.819Z" transform="translate(468.152 71.997)" fill="#182c33"/>
      <path id="Trazado_633102" data-name="Trazado 633102" d="M-372.473-89.294l.186.417Z" transform="translate(425.011 106.496)" fill="#182c33"/>
      <path id="Trazado_633103" data-name="Trazado 633103" d="M-381.019-90.924l-.067-.524Z" transform="translate(429.924 107.725)" fill="#182c33"/>
      <path id="Trazado_633104" data-name="Trazado 633104" d="M-448.023,72.018l.2.413C-448.147,72.418-448.138,72.244-448.023,72.018Z" transform="translate(468.152 14.472)" fill="#182c33"/>
      <path id="Trazado_633105" data-name="Trazado 633105" d="M-314.494,109.145l-.207-.463Z" transform="translate(392.053 -6.444)" fill="#182c33"/>
      <path id="Trazado_633106" data-name="Trazado 633106" d="M-314.656,119.674l.192-.463Z" transform="translate(392.028 -12.451)" fill="#182c33"/>
      <path id="Trazado_633107" data-name="Trazado 633107" d="M-437.519-79.512l.195-.419Z" transform="translate(462.118 101.155)" fill="#3d89a1"/>
      <path id="Trazado_633108" data-name="Trazado 633108" d="M-444.507-82.572c0,.1-.01.192-.015.287Q-444.514-82.428-444.507-82.572Z" transform="translate(466.113 102.661)" fill="#3d89a1"/>
      <path id="Trazado_633109" data-name="Trazado 633109" d="M-256.341-109.528l-.213-.178Z" transform="translate(358.882 118.141)" fill="#182c33"/>
      <path id="Trazado_633110" data-name="Trazado 633110" d="M-315.313,121.1l.207-.267Z" transform="translate(392.402 -13.377)" fill="#182c33"/>
      <path id="Trazado_633111" data-name="Trazado 633111" d="M-375.142-72.957l.18.111-.031.039-.14-.16Z" transform="translate(426.533 97.182)" fill="#57b6d8"/>
      <path id="Trazado_633112" data-name="Trazado 633112" d="M-250.064-104.719l-.192-.178Z" transform="translate(355.289 115.397)" fill="#182c33"/>
      <path id="Trazado_633113" data-name="Trazado 633113" d="M-450.824-109.989l-.073-.059.061.069Z" transform="translate(469.75 118.336)" fill="#57b6d8"/>
      <path id="Trazado_633114" data-name="Trazado 633114" d="M-343.012-26.567v1.814h-9.1v-3.578h9.1Z" transform="translate(413.393 71.718)" fill="#070809"/>
      <path id="Trazado_633115" data-name="Trazado 633115" d="M-389.111-26.566v1.813H-398.2v-3.575h9.088Z" transform="translate(439.687 71.717)" fill="#070809"/>
      <path id="Trazado_633116" data-name="Trazado 633116" d="M-370.467,30.543V34.1h-36.028V30.543Z" transform="translate(444.419 38.132)" fill="#040506"/>
      <path id="Trazado_633117" data-name="Trazado 633117" d="M-356.084,13.752V17.3h-25.2V13.752Z" transform="translate(430.038 47.711)" fill="#040506"/>
      <path id="Trazado_633118" data-name="Trazado 633118" d="M-369.352,47.334V50.9h-3.559V47.334Z" transform="translate(425.261 28.553)" fill="#040506"/>
      <path id="Trazado_633119" data-name="Trazado 633119" d="M-389.677,47.321h3.537v3.555h-3.537Z" transform="translate(434.825 28.561)" fill="#040506"/>
      <path id="Trazado_633120" data-name="Trazado 633120" d="M-402.943,50.907H-406.5V47.342h3.555Z" transform="translate(444.421 28.549)" fill="#040506"/>
      <path id="Trazado_633121" data-name="Trazado 633121" d="M-293.871,67.735h-3.61V64.151h3.61Z" transform="translate(382.23 18.96)" fill="#070809"/>
      <path id="Trazado_633122" data-name="Trazado 633122" d="M-330.975,67.731V64.145h3.575v3.586Z" transform="translate(401.337 18.963)" fill="#040506"/>
      <path id="Trazado_633123" data-name="Trazado 633123" d="M-314.172,64.122h3.553v3.591h-3.553Z" transform="translate(391.751 18.976)" fill="#070809"/>
    </g>
  </g>
</svg>
