<svg xmlns="http://www.w3.org/2000/svg" width="135" height="136" viewBox="0 0 135 136">
  <g id="Grupo_909102" data-name="Grupo 909102" transform="translate(-945.42 -8972)">
    <ellipse id="Elipse_7124" data-name="Elipse 7124" cx="67.5" cy="68" rx="67.5" ry="68" transform="translate(945.42 8972)" fill="#f1b62b"/>
    <g id="Grupo_904068" data-name="Grupo 904068" transform="translate(1005.504 8032.536)">
      <path id="Trazado_633176" data-name="Trazado 633176" d="M-3.965,993.784c.992-.065,1.984-.131,2.976-.192.137-.008.276.008.414.013q0,9.9-.011,19.8c0,.443.142.549.565.549q26.131-.014,52.262-.013a2.15,2.15,0,0,0,.51-.127,2,2,0,0,0,.157-.536q.012-9.5.007-19V993.6a13.674,13.674,0,0,0,4.834-.01V1003.8h.661c6.683,0,13.365.013,20.048-.014a2.567,2.567,0,0,1,2.43,1.213,4.736,4.736,0,0,1,.345,1.1q-.006,4.352-.011,8.7,0,7.765,0,15.531v.732a10.378,10.378,0,0,0-4.8.009v-22.389c-.251-.023-.454-.057-.656-.057q-8.756,0-17.512.006c-.183,0-.548-.189-.49.282-.006,2.4-.051,4.8-.005,7.193a2.656,2.656,0,0,1-2.829,2.8q-10.452-.019-20.905-.005h-.654v11.625h.651q10.453,0,20.906,0a2.425,2.425,0,0,1,2.429,1.232,3.4,3.4,0,0,1,.373,1.453c.03,3.962.017,7.924.017,11.886q0,14.18,0,28.361c0,.208.013.416.02.624-.008.407.307.253.487.253,2.917.01,5.833.006,8.75.008.239,0,.478.021.644.029v4.813H55.825c-.19,0-.381.012-.572.018a2.608,2.608,0,0,1-2.2-1.494,1.721,1.721,0,0,1-.093-.6,1.326,1.326,0,0,0,.017-.155q0-20.479-.007-40.958c0-.674-.021-.7-.71-.7H33.863c-.683,0-.712.03-.712.7q0,7.947,0,15.893c0,2.518,0,5.037-.01,7.556a1.8,1.8,0,0,1-.205.561c-1.236-.006-2.473-.02-3.71-.016a8.133,8.133,0,0,0-.859.09v-41.141a2.809,2.809,0,0,0-.322-.039q-3.335,0-6.671,0a2.564,2.564,0,0,0-.308.035,1.917,1.917,0,0,0-.2.58q-.015,15.844-.008,31.688c0,.329.007.659.01.988a2.226,2.226,0,0,1-2.106,2.091H-4.085v-4.819h.529q9.538,0,19.075-.008a1.591,1.591,0,0,0,.514-.2c.007-.173.021-.346.021-.519q0-14.641,0-29.282v-.56H15.4q-9.04,0-18.08,0a2.833,2.833,0,0,1-1.955-.667,3.915,3.915,0,0,1-.5-.661l-.2-.317-.03-.4a1.038,1.038,0,0,0,.022-.154q-.005-11.248-.011-22.5c0-.208.015-.416.023-.624l.211-.006Z" transform="translate(-28.306 -29.553)" fill="#324a5b"/>
      <circle id="Elipse_7125" data-name="Elipse 7125" cx="11.735" cy="11.735" r="11.735" transform="translate(38.773 1035.512)" fill="#ededee"/>
      <circle id="Elipse_7126" data-name="Elipse 7126" cx="11.735" cy="11.735" r="11.735" transform="translate(38.773 1000.894)" fill="#ededee"/>
      <circle id="Elipse_7127" data-name="Elipse 7127" cx="11.735" cy="11.735" r="11.735" transform="translate(15.287 941.322)" fill="#ededee"/>
      <circle id="Elipse_7128" data-name="Elipse 7128" cx="11.735" cy="11.735" r="11.735" transform="translate(-55.411 1010.539)" fill="#ededee"/>
      <path id="Trazado_633177" data-name="Trazado 633177" d="M-29.915,1120.008a6.179,6.179,0,0,0-1.859-4.306,5.614,5.614,0,0,0-4.106-1.688,6,6,0,0,0-4.634,2.241,5.776,5.776,0,0,0-1.323,3.759,5.752,5.752,0,0,0,1.729,4.189,5.654,5.654,0,0,0,4.221,1.781A5.98,5.98,0,0,0-29.915,1120.008Z" transform="translate(-7.677 -97.665)" fill="#ededee"/>
      <path id="Trazado_633178" data-name="Trazado 633178" d="M-13.084,942c.065.068.118.175.2.2.616.176,1.229.373,1.856.493a7.863,7.863,0,0,1,2.07.955,9.911,9.911,0,0,1,3.652,3.4,11.659,11.659,0,0,1,1.349,2.816,9.725,9.725,0,0,1,.656,3.832,12.52,12.52,0,0,1-.611,3.012,16.763,16.763,0,0,1-1.276,2.746,9.1,9.1,0,0,1-1.263,1.57,9.013,9.013,0,0,1-.983.975,8.955,8.955,0,0,1-2.706,1.693c-.685.243-1.365.5-2.047.75-.138,0-.277-.021-.414-.013-.992.062-1.985.128-2.976.192l-1.151-.207-.211.006-.3.019a6.992,6.992,0,0,0-.865-.379,8.291,8.291,0,0,1-3.589-1.99,17.564,17.564,0,0,1-2.16-2.225,6.05,6.05,0,0,1-1.349-2.719,9.563,9.563,0,0,0-.581-1.774,1.4,1.4,0,0,1-.112-.451c.022-1.107,0-2.22.115-3.317.074-.693.442-1.352.546-2.045.151-1.008.994-1.654,1.244-2.6.055-.207.3-.368.472-.538a20.874,20.874,0,0,1,2.107-2.068,8.213,8.213,0,0,1,3.1-1.6c.675-.151,1.338-.359,2-.551.045-.013.066-.11.1-.168Zm-.211,5.545-.506-.049a1.484,1.484,0,0,0-1.8,0l-.407.02-.315.1a5.933,5.933,0,0,0-4.06,4.248,5.554,5.554,0,0,0,.076,3.287A5.828,5.828,0,0,0-18,958.235a9.09,9.09,0,0,0,1.452.676l.563.242.4.029a2.02,2.02,0,0,0,1.972-.006l.3-.02c.229.065.428.073.466-.237a3.407,3.407,0,0,0,.71-.23,11.28,11.28,0,0,0,1.47-.963,5.447,5.447,0,0,0,1.549-2.185,6.588,6.588,0,0,0,.319-2.846,5.086,5.086,0,0,0-.973-2.753,5.656,5.656,0,0,0-3.3-2.323Z" transform="translate(-16.69 -0.383)" fill="#ededee"/>
      <path id="Trazado_633179" data-name="Trazado 633179" d="M60.756,1146.544a8.1,8.1,0,0,1,.859-.09c1.237,0,2.474.009,3.71.016l.389.192c.942.343,1.908.633,2.82,1.041a9.644,9.644,0,0,1,3.4,2.792c.514.618.853,1.377,1.31,2.045a15.253,15.253,0,0,1,1.141,3.063,1,1,0,0,1,.017.362c0,.9-.058,1.811.018,2.708a6.151,6.151,0,0,1-.514,2.475,10.165,10.165,0,0,1-1.068,2.323,14.753,14.753,0,0,1-1.9,2.353,10.081,10.081,0,0,1-1.916,1.439,8.821,8.821,0,0,1-3.325,1.318c-.535.079-1.074.127-1.611.2-.25.034-.5.094-.744.143a.734.734,0,0,1-.2.038c-.61-.058-1.221-.113-1.828-.191-.178-.023-.342-.141-.52-.182a10.213,10.213,0,0,1-2.871-1.082,17.342,17.342,0,0,1-2.121-1.457,11.115,11.115,0,0,1-2.967-4.017,7.791,7.791,0,0,1-.561-2.022,10.675,10.675,0,0,1-.35-2.854,11.938,11.938,0,0,1,.7-3.368,13.327,13.327,0,0,1,1.891-3.3,10.393,10.393,0,0,1,2.616-2.331,6.951,6.951,0,0,1,2.788-1.292A3.689,3.689,0,0,0,60.756,1146.544Zm-3.449,11.03a5.939,5.939,0,0,0,11.877.142,5.939,5.939,0,1,0-11.877-.142Z" transform="translate(-60.695 -116.012)" fill="#ededee"/>
      <path id="Trazado_633180" data-name="Trazado 633180" d="M-5.293,1048.095l.2.317Z" transform="translate(-28.344 -60.385)" fill="#a9aeb7"/>
      <path id="Trazado_633181" data-name="Trazado 633181" d="M180.724,1103.6a6.117,6.117,0,0,1-6-6.029,5.912,5.912,0,0,1,5.96-5.893,6.065,6.065,0,0,1,4.233,1.755,5.866,5.866,0,0,1,.03,8.261A7.235,7.235,0,0,1,180.724,1103.6Z" transform="translate(-130.15 -85.031)" fill="#76cbf5"/>
      <path id="Trazado_633182" data-name="Trazado 633182" d="M-29.915,1120.008a5.98,5.98,0,0,1-5.972,5.976,5.654,5.654,0,0,1-4.221-1.781,5.752,5.752,0,0,1-1.729-4.189,5.776,5.776,0,0,1,1.323-3.759,6,6,0,0,1,4.634-2.241,5.614,5.614,0,0,1,4.106,1.688A6.179,6.179,0,0,1-29.915,1120.008Z" transform="translate(-7.677 -97.665)" fill="#4faf98"/>
      <path id="Trazado_633183" data-name="Trazado 633183" d="M181.25,1171.45a5.753,5.753,0,0,1,3.613,1.7,5.6,5.6,0,0,1,1.737,4.249,5.93,5.93,0,0,1-11.859-.108A5.672,5.672,0,0,1,176.63,1173,6.1,6.1,0,0,1,181.25,1171.45Z" transform="translate(-130.162 -130.147)" fill="#e8584a"/>
      <path id="Trazado_633184" data-name="Trazado 633184" d="M125.3,966.229l-.173-.011-.572-.239-.195-.019-.418-.213a5.965,5.965,0,0,1-3.246-4.033,5.831,5.831,0,0,1,6.37-7.186,5.9,5.9,0,0,1,2.764.965,12.915,12.915,0,0,1,1.617,1.6l.651,1.349c.009.063.018.126.027.188l.242.775.064.714c0,.2,0,.41,0,.615q-.035.357-.07.714l-.214.644c-.006.059-.012.118-.018.177l-.681,1.391a5.14,5.14,0,0,1-2.588,2.108l-.227.191-.195.02-.633.227-.191.018Z" transform="translate(-99.498 -7.443)" fill="#e8584a"/>
      <path id="Trazado_633185" data-name="Trazado 633185" d="M131.522,981.51l2.318-.007c-.375.42-.874.224-1.315.228A4.412,4.412,0,0,1,131.522,981.51Z" transform="translate(-105.719 -22.724)" fill="#f1b0a3"/>
      <path id="Trazado_633186" data-name="Trazado 633186" d="M145.681,973.791l.681-1.391A1.618,1.618,0,0,1,145.681,973.791Z" transform="translate(-113.727 -17.576)" fill="#f1afa3"/>
      <path id="Trazado_633187" data-name="Trazado 633187" d="M146.322,961.835l-.651-1.349A1.781,1.781,0,0,1,146.322,961.835Z" transform="translate(-113.721 -10.838)" fill="#f1afa3"/>
      <path id="Trazado_633188" data-name="Trazado 633188" d="M147.473,964.8l-.242-.775C147.673,964.169,147.449,964.522,147.473,964.8Z" transform="translate(-114.604 -12.838)" fill="#f1afa3"/>
      <path id="Trazado_633189" data-name="Trazado 633189" d="M147.29,971.154q.107-.323.214-.644C147.491,970.744,147.683,971.046,147.29,971.154Z" transform="translate(-114.637 -16.507)" fill="#f1afa3"/>
      <path id="Trazado_633190" data-name="Trazado 633190" d="M137.3,981.166l.633-.227C137.815,981.281,137.569,981.26,137.3,981.166Z" transform="translate(-108.986 -22.405)" fill="#f1b0a3"/>
      <path id="Trazado_633191" data-name="Trazado 633191" d="M129.806,980.941l.572.239C130.124,981.252,129.9,981.253,129.806,980.941Z" transform="translate(-104.749 -22.406)" fill="#f1b0a3"/>
      <path id="Trazado_633192" data-name="Trazado 633192" d="M147.938,968.066c0-.205,0-.41,0-.615Z" transform="translate(-115.001 -14.777)" fill="#f1afa3"/>
      <path id="Trazado_633193" data-name="Trazado 633193" d="M128.4,980.406l.418.213Z" transform="translate(-103.951 -22.104)" fill="#f1b0a3"/>
      <path id="Trazado_633194" data-name="Trazado 633194" d="M139.2,980.644l.227-.191-.015.257Z" transform="translate(-110.063 -22.13)" fill="#f1b0a3"/>
      <path id="Trazado_633195" data-name="Trazado 633195" d="M-9.1,954.674l.407-.02,1.8,0,.506.05.217.073a5.655,5.655,0,0,1,3.3,2.323,5.086,5.086,0,0,1,.973,2.753,6.588,6.588,0,0,1-.319,2.846A5.446,5.446,0,0,1-3.76,964.88a11.274,11.274,0,0,1-1.47.963,3.381,3.381,0,0,1-.71.23l-.466.238-.3.02-1.972.006-.4-.029c-.066-.363-.338-.247-.563-.242a9.09,9.09,0,0,1-1.452-.676,5.828,5.828,0,0,1-2.308-3.08,5.553,5.553,0,0,1-.076-3.287,5.934,5.934,0,0,1,4.06-4.248Z" transform="translate(-23.598 -7.538)" fill="#ffc649"/>
      <path id="Trazado_633196" data-name="Trazado 633196" d="M-2.151,981.54l1.972-.006A2.02,2.02,0,0,1-2.151,981.54Z" transform="translate(-30.121 -22.742)" fill="#fed78c"/>
      <path id="Trazado_633197" data-name="Trazado 633197" d="M-.39,954.258l-1.8,0A1.484,1.484,0,0,1-.39,954.258Z" transform="translate(-30.101 -7.146)" fill="#f9e1b3"/>
      <path id="Trazado_633198" data-name="Trazado 633198" d="M-3.645,993.784l-1.151-.207Z" transform="translate(-28.625 -29.553)" fill="#a9aeb7"/>
      <path id="Trazado_633199" data-name="Trazado 633199" d="M-4.364,980.9c.225-.006.5-.122.563.242Z" transform="translate(-28.869 -22.368)" fill="#fed78c"/>
      <path id="Trazado_633200" data-name="Trazado 633200" d="M3.07,981.18l.466-.238C3.5,981.252,3.3,981.244,3.07,981.18Z" transform="translate(-33.074 -22.407)" fill="#fed78c"/>
      <path id="Trazado_633201" data-name="Trazado 633201" d="M-3.535,954.7l-.315.1Z" transform="translate(-29.16 -7.569)" fill="#f9e1b3"/>
      <path id="Trazado_633202" data-name="Trazado 633202" d="M3.332,954.837l-.217-.073Z" transform="translate(-33.099 -7.602)" fill="#f9e1b3"/>
      <path id="Trazado_633203" data-name="Trazado 633203" d="M64.329,1164.353a5.939,5.939,0,1,1,5.883,6A5.962,5.962,0,0,1,64.329,1164.353Z" transform="translate(-67.717 -122.789)" fill="#ffc64a"/>
    </g>
  </g>
</svg>
