<svg xmlns="http://www.w3.org/2000/svg" width="134" height="134" viewBox="0 0 134 134">
  <g id="Grupo_909106" data-name="Grupo 909106" transform="translate(-734 -3242.636)">
    <circle id="Elipse_7251" data-name="Elipse 7251" cx="67" cy="67" r="67" transform="translate(734 3242.636)" fill="#179587"/>
    <g id="Grupo_904922" data-name="Grupo 904922" transform="translate(5.853 3410.211)">
      <path id="Trazado_634434" data-name="Trazado 634434" d="M852.935,9.455a4.717,4.717,0,0,1-.946,2.323,5.851,5.851,0,0,1-2,1.765,6.125,6.125,0,0,1-3.061.71q-12.806-.005-25.612,0a1.5,1.5,0,0,1-1.4-.643,1.367,1.367,0,0,1,.329-1.8c2.067-1.8,4.139-3.6,6.2-5.411a.939.939,0,0,0,.273-.6c.034-.678.012-1.358.013-2.038A6.253,6.253,0,0,1,827.47.657,5.513,5.513,0,0,1,831-2.145a9.644,9.644,0,0,1,2.22-.263c4.5-.023,9,0,13.507-.017a6.084,6.084,0,0,1,5.1,2.314,4.824,4.824,0,0,1,1.109,2.6Q852.938,5.973,852.935,9.455Zm-28.117,2.013c.231.023.338.044.446.044,7.289,0,14.578-.011,21.867.007A3.155,3.155,0,0,0,850.311,8.3c.012-1.557-.012-3.114.006-4.67A3.22,3.22,0,0,0,847.061.335c-4.77.021-9.539,0-14.31.015a3.021,3.021,0,0,0-1.122.171,3.177,3.177,0,0,0-2.139,3.145q0,1.444,0,2.887a1.512,1.512,0,0,1-.481,1.251c-.444.378-.88.767-1.319,1.151Z" transform="translate(-40.228 -91.499)" fill="#18273d"/>
      <path id="Trazado_634435" data-name="Trazado 634435" d="M847.941-143.7a4.6,4.6,0,0,1,2.033.652,5.762,5.762,0,0,1,2.922,3.657,6.132,6.132,0,0,1,.186,1.543c.023,1.585.032,3.171,0,4.755a5.835,5.835,0,0,1-3.2,5.292,6.035,6.035,0,0,1-3,.679q-12.717,0-25.434-.007a2.192,2.192,0,0,1-1.018-.193,1.347,1.347,0,0,1-.187-2.27q3.115-2.71,6.215-5.436a.868.868,0,0,0,.256-.558c.031-.692,0-1.386.013-2.08a5.971,5.971,0,0,1,2.539-5.059,4.721,4.721,0,0,1,2.594-.973c.07.006.14.018.21.018q7.445,0,14.891-.007C847.292-143.686,847.616-143.694,847.941-143.7Zm-.329,2.705a1.766,1.766,0,0,0-.474-.141q-3.966-.014-7.932-.007c-2.206,0-4.411,0-6.617.01a1.667,1.667,0,0,0-.471.149,2.98,2.98,0,0,0-2.518,2.359c-.083,1.239-.092,2.485-.108,3.728a1.783,1.783,0,0,1-.66,1.474c-.978.807-1.918,1.659-2.872,2.494-.357.312-.712.627-1.068.94l.044.1h22.016a3.31,3.31,0,0,0,.677-.028,3.9,3.9,0,0,0,.941-.288,3.058,3.058,0,0,0,1.748-2.924c.013-1.457.014-2.915,0-4.372a6.367,6.367,0,0,0-.149-1.3A2.944,2.944,0,0,0,847.612-140.993Z" transform="translate(-40.233 -0.282)" fill="#18273d"/>
      <path id="Trazado_634436" data-name="Trazado 634436" d="M850.71-56.659l-.157-.02a.982.982,0,0,0-.212-.181c-.551-.244-1.118-.456-1.658-.724a6.8,6.8,0,0,1-.847-.586l-.008-.007-.163-.162-.006-.007L847-59.105c-.011-.022-.022-.043-.033-.065l-.067-.1a.2.2,0,0,0-.018-.073l-.228-.357a.692.692,0,0,0-.031-.064l-.483-1.379-.012-.163c0-.248-.006-.5-.006-.743q0-2.823,0-5.647c0-.248.005-.5.008-.744l.011-.162.823-1.886a5.462,5.462,0,0,1,3.633-2.531,10.227,10.227,0,0,1,1.928-.163c4.728-.012,9.457-.052,14.184.018a5.652,5.652,0,0,1,5.169,3.7,8.176,8.176,0,0,1,.434,3.567,2.176,2.176,0,0,0,.937,2.1c1,.765,1.907,1.664,2.853,2.505l1.37,1.17.066.044,1.118.98h0l.316.263a.138.138,0,0,1,.028.071l.316.606,0,.492c-.025.012-.067.018-.073.036-.3.9-1,1.011-1.822,1.01q-11.754-.015-23.508-.01c-.846,0-1.692-.052-2.538-.072C851.154-56.7,850.932-56.672,850.71-56.659Zm23.456-2.6.081-.1c-.151-.117-.308-.227-.451-.351-1.193-1.029-2.377-2.07-3.579-3.089a1.743,1.743,0,0,1-.652-1.436c.01-.92.016-1.841,0-2.76a4.384,4.384,0,0,0-.143-1.258,3.3,3.3,0,0,0-3.144-2.212c-4.77.021-9.541.014-14.311.005a3.181,3.181,0,0,0-3.219,3.2c-.01,1.614-.016,3.228.009,4.841a3.332,3.332,0,0,0,.226,1.153,3.116,3.116,0,0,0,3.074,2.021q10.872,0,21.743,0C873.919-59.246,874.042-59.256,874.166-59.262Z" transform="translate(-57.281 -45.799)" fill="#15253b"/>
      <path id="Trazado_634437" data-name="Trazado 634437" d="M770.342-74.109c-2.265,0-4.53-.023-6.795.007a5.874,5.874,0,0,1-4.94-2.228,5.686,5.686,0,0,1-1.052-2.332,4.242,4.242,0,0,1,.029-2.354,9.959,9.959,0,0,1,.886-2.03,13.113,13.113,0,0,1,3.246-3.584,15.027,15.027,0,0,1,3.7-2.067,13.977,13.977,0,0,1,6.575-.8,15.665,15.665,0,0,1,3.182.786,13.14,13.14,0,0,1,6.054,4.242,8.3,8.3,0,0,1,1.942,3.4,5.627,5.627,0,0,1-.154,3.09,5.733,5.733,0,0,1-3.037,3.4,5.788,5.788,0,0,1-2.543.477Q773.888-74.115,770.342-74.109Zm6.1-10.964a.144.144,0,0,0-.027-.033,10.486,10.486,0,0,0-4.651-1.681,11.091,11.091,0,0,0-5.05.523,11.479,11.479,0,0,0-5.517,4.05,12.068,12.068,0,0,0-.743,1.307c-.045.029-.118.05-.13.09a2.928,2.928,0,0,0-.05,1.846,3.021,3.021,0,0,0,3.1,2.134q7.026.02,14.052,0a3.159,3.159,0,0,0,2.232-.835,2.874,2.874,0,0,0,.555-3.45,17.732,17.732,0,0,0-1.252-1.817A8.968,8.968,0,0,0,776.442-85.073Z" transform="translate(0 -35.218)" fill="#18273d"/>
      <path id="Trazado_634438" data-name="Trazado 634438" d="M948.909-16.983l.149.055.7.458a13.009,13.009,0,0,1,3.287,2.983,9.353,9.353,0,0,1,1.671,2.837,4.914,4.914,0,0,1,.159,2.783,5.779,5.779,0,0,1-1.9,3.219,5.354,5.354,0,0,1-3.491,1.325c-5,.006-9.992.022-14.988-.007a5.619,5.619,0,0,1-4.993-3.6,6.123,6.123,0,0,1-.293-3.118,6.161,6.161,0,0,1,1.2-2.606,13.963,13.963,0,0,1,5.46-4.7c.473-.23.981-.387,1.474-.578l.354-.15.253-.073.435-.151.16-.018.522-.144.159-.022.775-.148.41-.047c.357.077.717.193,1.04-.095l1.06,0c.226.3.517.143.789.113l.335-.018.495.054.693.139.159.015.522.144.158.024.519.163.155.027.355.139.154.03.7.3.154.037.189.119.153.044.189.119.153.044.186.125.152.051Zm-1.006,2.6c-.03-.045-.049-.108-.09-.131a12.825,12.825,0,0,0-4.287-1.449,10.912,10.912,0,0,0-5.479.629,11.125,11.125,0,0,0-5.356,4.2,2.839,2.839,0,0,0-.777,1.879,2.86,2.86,0,0,0,2.831,3.215c4.868-.01,9.736.007,14.6-.019a3.293,3.293,0,0,0,1.439-.376,2.863,2.863,0,0,0,1.283-3.552,9,9,0,0,0-1.995-2.75A24.584,24.584,0,0,0,947.9-14.382Z" transform="translate(-110.883 -80.938)" fill="#18273d"/>
      <path id="Trazado_634439" data-name="Trazado 634439" d="M762.35,67.372a5.046,5.046,0,0,1-3.477-1.866,5.485,5.485,0,0,1-1.419-4.049,6.336,6.336,0,0,1,1.267-3.242,13.546,13.546,0,0,1,2.782-3.043,15.21,15.21,0,0,1,3.981-2.276A14.042,14.042,0,0,1,780.06,55.84a11.736,11.736,0,0,1,2.927,4.069,5.288,5.288,0,0,1,.047,3.717,5.437,5.437,0,0,1-1.806,2.581,5.277,5.277,0,0,1-2.723,1.163c-.07-.006-.14-.018-.21-.018l-14.76.012C763.14,67.363,762.745,67.369,762.35,67.372ZM776.32,56.466l-.193-.16a10.313,10.313,0,0,0-1.43-.738,12.36,12.36,0,0,0-2.75-.748,10.709,10.709,0,0,0-5.521.641,19.188,19.188,0,0,0-2.532,1.315,10.191,10.191,0,0,0-2.794,2.779,11.319,11.319,0,0,0-.634,1.169c-.027.005-.072,0-.079.017a2.548,2.548,0,0,0-.023,2.171,3.049,3.049,0,0,0,2.992,1.888q6.984.024,13.968-.007a4.338,4.338,0,0,0,1.485-.308,2.858,2.858,0,0,0,1.432-4.07,11.364,11.364,0,0,0-3.124-3.531,5.252,5.252,0,0,0-.792-.42Z" transform="translate(-0.027 -126.636)" fill="#15253b"/>
      <path id="Trazado_634440" data-name="Trazado 634440" d="M958.965-63.241a7.9,7.9,0,0,1-5.324,6.609,7.8,7.8,0,0,1-7.3-1.114,7.641,7.641,0,0,1-2.9-4.131,7.732,7.732,0,0,1-.283-3.225,7.792,7.792,0,0,1,3.089-5.406,7.6,7.6,0,0,1,3.608-1.552,8.036,8.036,0,0,1,3.244.187,7.905,7.905,0,0,1,4.721,3.471,5.951,5.951,0,0,1,1.045,2.79,2.826,2.826,0,0,0,.089.4Q958.959-64.226,958.965-63.241Zm-2.732-1.8a5.343,5.343,0,0,0-1.149-2.5,5.257,5.257,0,0,0-6.346-1.316,5.148,5.148,0,0,0-2.846,3.877,4.961,4.961,0,0,0,.479,3.146,5.247,5.247,0,0,0,3.05,2.651,4.952,4.952,0,0,0,3.827-.231,4.989,4.989,0,0,0,2.987-3.911c.051-.073.144-.145.146-.22q.021-.634,0-1.269C956.378-64.9,956.285-64.968,956.234-65.042Z" transform="translate(-119.897 -46.483)" fill="#18273d"/>
      <path id="Trazado_634441" data-name="Trazado 634441" d="M780.529-142.718a7.54,7.54,0,0,1,4.21,1.762,7.856,7.856,0,0,1,2.721,4.593,7.979,7.979,0,0,1-4.53,8.8,7.641,7.641,0,0,1-4.41.614,7.724,7.724,0,0,1-6.069-4.492,5.661,5.661,0,0,1-.677-2.437l0-1.885a6.522,6.522,0,0,1,1.017-3.091,7.626,7.626,0,0,1,2.387-2.554,7.131,7.131,0,0,1,3.044-1.228c.177-.025.352-.055.528-.082Zm-6.1,8.753c.131.373.253.751.4,1.12a4.944,4.944,0,0,0,3.372,3.034,5.071,5.071,0,0,0,3.323-.14,4.98,4.98,0,0,0,3.151-3.382,5.076,5.076,0,0,0-.319-3.814,4.982,4.982,0,0,0-3.746-2.824,5,5,0,0,0-3.852.793,5.081,5.081,0,0,0-2.26,3.422A2.559,2.559,0,0,0,774.425-133.965Z" transform="translate(-9.277 -0.915)" fill="#18273d"/>
      <path id="Trazado_634442" data-name="Trazado 634442" d="M775.671-.307l.153-.044.187-.121.153-.046.7-.3.155-.034.52-.153.159-.021.691-.145.5-.028h1.183l.5.029.692.146.158.022.535.2.828.294c.083.07.162.144.249.209.671.5,1.345.991,2.014,1.491.163.122.313.26.469.391h0l.16.175a.06.06,0,0,1,.027.059l.472.625.04.137.149.195a.065.065,0,0,1,.021.061l.482.957.024.151.152.358a18.516,18.516,0,0,1,.35,2.227,7.606,7.606,0,0,1-2.794,6.273,7.278,7.278,0,0,1-3.531,1.711,7.8,7.8,0,0,1-7.632-2.582,6.887,6.887,0,0,1-1.692-3.283,8.035,8.035,0,0,1-.279-1.588A7.97,7.97,0,0,1,774.973.149Zm-1.387,6.136a2.543,2.543,0,0,0-.061,1.79,15.774,15.774,0,0,0,.767,1.849,5,5,0,0,0,3.166,2.356,5.3,5.3,0,0,0,3.188-.212,5.411,5.411,0,0,0,3.3-4.189,5.534,5.534,0,0,0-.5-2.974,5.274,5.274,0,0,0-7.687-2A5.037,5.037,0,0,0,774.284,5.828Z" transform="translate(-9.072 -92.29)" fill="#18273d"/>
      <path id="Trazado_634443" data-name="Trazado 634443" d="M859.077-28.334c.222-.012.444-.039.665-.034.846.02,1.692.072,2.538.072q11.754.009,23.508.01c.817,0,1.523-.113,1.822-1.01.006-.018.048-.024.073-.036a1.334,1.334,0,0,1-1.158,1.174c-.155.015-.311.01-.466.01q-12.81,0-25.62-.007A10.411,10.411,0,0,1,859.077-28.334Z" transform="translate(-65.648 -74.125)" fill="#595d74"/>
      <path id="Trazado_634444" data-name="Trazado 634444" d="M870.083-143.98c-.325,0-.649.012-.974.012q-7.445.005-14.891.007c-.07,0-.14-.012-.21-.018a2.477,2.477,0,0,1,.581-.147c2.09-.012,4.18-.009,6.271-.009,2.839,0,5.678,0,8.517.007A3.5,3.5,0,0,1,870.083-143.98Z" transform="translate(-62.375 0)" fill="#595d74"/>
      <path id="Trazado_634445" data-name="Trazado 634445" d="M845.839-59.755c0,.248-.008.5-.008.744q0,2.823,0,5.647c0,.248,0,.5.006.743a1.816,1.816,0,0,1-.155-.5q-.017-3.043,0-6.086A2.1,2.1,0,0,1,845.839-59.755Z" transform="translate(-56.993 -54.482)" fill="#595d74"/>
      <path id="Trazado_634446" data-name="Trazado 634446" d="M913.484,18.411l0-6.964a1.538,1.538,0,0,1,.15.451q.015,3.007,0,6.013A1.809,1.809,0,0,1,913.484,18.411Z" transform="translate(-100.777 -100.455)" fill="#595d74"/>
      <path id="Trazado_634447" data-name="Trazado 634447" d="M806.137,2.846c-.156-.131-.306-.269-.469-.391-.67-.5-1.343-.994-2.014-1.491-.087-.064-.166-.139-.249-.209a5.093,5.093,0,0,1,1.026.515C805.029,1.76,805.571,2.317,806.137,2.846Z" transform="translate(-29.702 -93.551)" fill="#595d74"/>
      <path id="Trazado_634448" data-name="Trazado 634448" d="M850.968-30.78a6.805,6.805,0,0,0,.847.586c.54.268,1.107.48,1.658.724a.982.982,0,0,1,.212.181c-.617-.243-1.253-.446-1.841-.744A4.736,4.736,0,0,1,850.968-30.78Z" transform="translate(-60.412 -73.19)" fill="#595d74"/>
      <path id="Trazado_634449" data-name="Trazado 634449" d="M847-65.536l-.823,1.886A3.237,3.237,0,0,1,847-65.536Z" transform="translate(-57.317 -50.749)" fill="#595d74"/>
      <path id="Trazado_634450" data-name="Trazado 634450" d="M987.856-50.607q-.007-.985-.014-1.97c.051.076.144.151.146.228.015.52.015,1.041.005,1.561C987.992-50.727,987.9-50.668,987.856-50.607Z" transform="translate(-148.788 -59.116)" fill="#8a939f"/>
      <path id="Trazado_634451" data-name="Trazado 634451" d="M932.1-38.4l-1.37-1.17Z" transform="translate(-111.914 -67.517)" fill="#595d74"/>
      <path id="Trazado_634452" data-name="Trazado 634452" d="M771.512-123.083l0,1.885c-.047-.093-.131-.184-.134-.278-.014-.459-.012-.918,0-1.377C771.383-122.931,771.466-123.006,771.512-123.083Z" transform="translate(-9.018 -13.593)" fill="#595d74"/>
      <path id="Trazado_634453" data-name="Trazado 634453" d="M793.241-143.017l-1.781,0A2.489,2.489,0,0,1,793.241-143.017Z" transform="translate(-21.989 -0.616)" fill="#595d74"/>
      <path id="Trazado_634454" data-name="Trazado 634454" d="M935.9-35.161l-1.118-.98Z" transform="translate(-114.53 -69.729)" fill="#595d74"/>
      <path id="Trazado_634455" data-name="Trazado 634455" d="M793.6-1.2h0Z" transform="translate(-22.609 -92.29)" fill="#595d74"/>
      <path id="Trazado_634456" data-name="Trazado 634456" d="M962.009-18.773c-.323.288-.684.171-1.04.095Z" transform="translate(-131.437 -80.943)" fill="#595d74"/>
      <path id="Trazado_634457" data-name="Trazado 634457" d="M846.169-39.16l.483,1.379Z" transform="translate(-57.314 -67.779)" fill="#595d74"/>
      <path id="Trazado_634458" data-name="Trazado 634458" d="M967.686-18.668c-.273.03-.564.185-.789-.113h.761Z" transform="translate(-135.264 -80.938)" fill="#595d74"/>
      <path id="Trazado_634459" data-name="Trazado 634459" d="M848.593-33.416l.664.758Z" transform="translate(-58.879 -71.488)" fill="#595d74"/>
      <path id="Trazado_634460" data-name="Trazado 634460" d="M814.046,11.146l-.482-.957Z" transform="translate(-36.261 -99.643)" fill="#595d74"/>
      <path id="Trazado_634461" data-name="Trazado 634461" d="M958.4-18.373l-.775.148Z" transform="translate(-129.277 -81.201)" fill="#595d74"/>
      <path id="Trazado_634462" data-name="Trazado 634462" d="M789.757-1.12l-.691.145Z" transform="translate(-20.444 -92.341)" fill="#595d74"/>
      <path id="Trazado_634463" data-name="Trazado 634463" d="M972.16-18.219l-.693-.139Z" transform="translate(-138.215 -81.211)" fill="#595d74"/>
      <path id="Trazado_634464" data-name="Trazado 634464" d="M979.83-16.137l-.7-.3Z" transform="translate(-143.165 -82.45)" fill="#595d74"/>
      <path id="Trazado_634465" data-name="Trazado 634465" d="M782.084,1.316l-.7.456Z" transform="translate(-15.485 -93.914)" fill="#595d74"/>
      <path id="Trazado_634466" data-name="Trazado 634466" d="M986.062-13.1l-.7-.458Z" transform="translate(-147.187 -84.313)" fill="#595d74"/>
      <path id="Trazado_634467" data-name="Trazado 634467" d="M785.444-.124l-.7.3Z" transform="translate(-17.656 -92.984)" fill="#595d74"/>
      <path id="Trazado_634468" data-name="Trazado 634468" d="M797.852-.966l-.692-.146Z" transform="translate(-25.67 -92.346)" fill="#595d74"/>
      <path id="Trazado_634469" data-name="Trazado 634469" d="M812.114,7.941l-.472-.625Z" transform="translate(-35.02 -97.788)" fill="#595d74"/>
      <path id="Trazado_634470" data-name="Trazado 634470" d="M974.4-17.781l-.522-.144Z" transform="translate(-139.769 -81.49)" fill="#595d74"/>
      <path id="Trazado_634471" data-name="Trazado 634471" d="M939.229-31.826l-.316-.606Z" transform="translate(-117.196 -72.124)" fill="#595d74"/>
      <path id="Trazado_634472" data-name="Trazado 634472" d="M956.226-17.892l-.522.144Z" transform="translate(-128.037 -81.512)" fill="#595d74"/>
      <path id="Trazado_634473" data-name="Trazado 634473" d="M787.669-.65l-.52.153Z" transform="translate(-19.206 -92.644)" fill="#595d74"/>
      <path id="Trazado_634474" data-name="Trazado 634474" d="M976.312-17.289l-.519-.163Z" transform="translate(-141.008 -81.796)" fill="#595d74"/>
      <path id="Trazado_634475" data-name="Trazado 634475" d="M800.093-.439l-.535-.2Z" transform="translate(-27.218 -92.652)" fill="#595d74"/>
      <path id="Trazado_634476" data-name="Trazado 634476" d="M954.46-17.434l-.435.151Z" transform="translate(-126.953 -81.807)" fill="#595d74"/>
      <path id="Trazado_634477" data-name="Trazado 634477" d="M978.051-16.778l-.355-.139Z" transform="translate(-142.237 -82.141)" fill="#595d74"/>
      <path id="Trazado_634478" data-name="Trazado 634478" d="M815.143,13.676l-.152-.358Z" transform="translate(-37.183 -101.663)" fill="#595d74"/>
      <path id="Trazado_634479" data-name="Trazado 634479" d="M847.618-35.088l.227.357Z" transform="translate(-58.249 -70.409)" fill="#595d74"/>
      <path id="Trazado_634480" data-name="Trazado 634480" d="M969.074-18.667l-.028-.114.363.1Z" transform="translate(-136.652 -80.938)" fill="#8a939f"/>
      <path id="Trazado_634481" data-name="Trazado 634481" d="M938.257-33.111l-.316-.263Z" transform="translate(-116.568 -71.515)" fill="#595d74"/>
      <path id="Trazado_634482" data-name="Trazado 634482" d="M952.665-16.8l-.354.15Z" transform="translate(-125.846 -82.216)" fill="#595d74"/>
      <path id="Trazado_634483" data-name="Trazado 634483" d="M783.976.85l-.187.121Z" transform="translate(-17.036 -93.613)" fill="#595d74"/>
      <path id="Trazado_634484" data-name="Trazado 634484" d="M984.6-13.942l-.187-.128Z" transform="translate(-146.574 -83.979)" fill="#595d74"/>
      <path id="Trazado_634485" data-name="Trazado 634485" d="M983.646-14.44l-.186-.125Z" transform="translate(-145.958 -83.66)" fill="#595d74"/>
      <path id="Trazado_634486" data-name="Trazado 634486" d="M982.683-14.905l-.188-.119Z" transform="translate(-145.335 -83.363)" fill="#595d74"/>
      <path id="Trazado_634487" data-name="Trazado 634487" d="M981.721-15.364l-.189-.119Z" transform="translate(-144.714 -83.067)" fill="#595d74"/>
      <path id="Trazado_634488" data-name="Trazado 634488" d="M811.274,6.83l-.16-.175Z" transform="translate(-34.679 -97.361)" fill="#595d74"/>
      <path id="Trazado_634489" data-name="Trazado 634489" d="M813.234,9.662l-.149-.195Z" transform="translate(-35.952 -99.177)" fill="#595d74"/>
      <path id="Trazado_634490" data-name="Trazado 634490" d="M850.485-31.257l.163.162Z" transform="translate(-60.1 -72.882)" fill="#595d74"/>
      <path id="Trazado_634491" data-name="Trazado 634491" d="M848.312-33.876l.067.1Z" transform="translate(-58.697 -71.191)" fill="#595d74"/>
      <path id="Trazado_634492" data-name="Trazado 634492" d="M834.131,16.5,837,13.984c.439-.384.875-.772,1.319-1.151a1.513,1.513,0,0,0,.481-1.251q0-1.444,0-2.887a3.176,3.176,0,0,1,2.139-3.145,3.021,3.021,0,0,1,1.122-.171c4.77-.011,9.54.006,14.31-.015a3.22,3.22,0,0,1,3.256,3.293c-.018,1.557.006,3.114-.006,4.67a3.155,3.155,0,0,1-3.179,3.219c-7.289-.018-14.578-.006-21.867-.007C834.469,16.54,834.362,16.52,834.131,16.5Zm15.1-6.912c-1.046,0-2.092-.009-3.138.006a3.063,3.063,0,0,0-.827.131,1.354,1.354,0,0,0-.864,1.357,1.293,1.293,0,0,0,1.143,1.2c.422.032.847.043,1.27.041,2.021-.007,4.041-.038,6.062-.026a1.363,1.363,0,0,0,1.094-1.8,1.475,1.475,0,0,0-1.432-.911C851.432,9.572,850.329,9.585,849.227,9.584Z" transform="translate(-49.541 -96.527)" fill="#ffc251"/>
      <path id="Trazado_634493" data-name="Trazado 634493" d="M857.047-136.063a2.944,2.944,0,0,1,2.553,2.2,6.367,6.367,0,0,1,.149,1.3c.018,1.457.017,2.914,0,4.372a3.058,3.058,0,0,1-1.748,2.924,3.9,3.9,0,0,1-.941.288,3.309,3.309,0,0,1-.677.028H834.372l-.044-.1c.356-.314.71-.628,1.068-.94.955-.835,1.895-1.687,2.872-2.494a1.783,1.783,0,0,0,.66-1.474c.016-1.243.026-2.488.108-3.728a2.98,2.98,0,0,1,2.518-2.359c.07.006.141.016.211.016q7.239,0,14.479-.009C856.511-136.044,856.779-136.057,857.047-136.063ZM845.466-131.8a1.327,1.327,0,0,0-.938,1.315,1.365,1.365,0,0,0,1.123,1.259c2.4-.022,4.807,0,7.211,0a1.3,1.3,0,0,0,1.314-1.187,1.314,1.314,0,0,0-1.043-1.388,1.044,1.044,0,0,0-.351-.145q-3.46-.012-6.92,0A1.246,1.246,0,0,0,845.466-131.8Z" transform="translate(-49.668 -5.212)" fill="#f1f0f1"/>
      <path id="Trazado_634494" data-name="Trazado 634494" d="M870.214-136.333c-.268.006-.536.019-.8.019q-7.239.006-14.479.009c-.07,0-.141-.011-.211-.016a1.667,1.667,0,0,1,.47-.149c2.206-.011,4.411-.01,6.617-.01q3.966,0,7.932.007A1.766,1.766,0,0,1,870.214-136.333Z" transform="translate(-62.835 -4.941)" fill="#8a939f"/>
      <path id="Trazado_634495" data-name="Trazado 634495" d="M878.935-54.282c-.124.005-.247.016-.371.016q-10.872,0-21.743,0a3.116,3.116,0,0,1-3.074-2.021,3.334,3.334,0,0,1-.226-1.153c-.025-1.613-.018-3.227-.009-4.841a3.181,3.181,0,0,1,3.219-3.2c4.77.009,9.541.016,14.311-.005a3.3,3.3,0,0,1,3.144,2.212,4.382,4.382,0,0,1,.143,1.258c.02.919.014,1.84,0,2.76a1.742,1.742,0,0,0,.652,1.436c1.2,1.019,2.386,2.059,3.579,3.089.144.124.3.235.451.351Zm-15.022-6.945c-1.146,0-2.291,0-3.437,0a1.36,1.36,0,0,0-1.4,1.326,1.4,1.4,0,0,0,1.377,1.418q3.458.016,6.916,0a1.445,1.445,0,0,0,1.4-1.413,1.428,1.428,0,0,0-1.417-1.339C866.2-61.211,865.058-61.227,863.912-61.227Z" transform="translate(-62.049 -50.779)" fill="#e14355"/>
      <path id="Trazado_634496" data-name="Trazado 634496" d="M781.439-76.841a8.967,8.967,0,0,1,2.516,2.134,17.733,17.733,0,0,1,1.252,1.817,2.874,2.874,0,0,1-.555,3.45,3.159,3.159,0,0,1-2.232.835q-7.026.014-14.052,0a3.021,3.021,0,0,1-3.1-2.134,2.929,2.929,0,0,1,.05-1.846c.012-.039.085-.06.13-.09.049.061.087.157.149.176a10.658,10.658,0,0,0,1.22.339,14.335,14.335,0,0,0,2.29.331c1.1.019,2.2-.1,3.305-.154A.445.445,0,0,0,772.5-72c.425-.106.85-.211,1.274-.32a11.731,11.731,0,0,0,1.508-.409,18.517,18.517,0,0,0,2.428-1.141c.869-.513,1.669-1.144,2.5-1.725a2.584,2.584,0,0,0,.433-.316C780.918-76.207,781.174-76.528,781.439-76.841Z" transform="translate(-4.997 -43.45)" fill="#659a32"/>
      <path id="Trazado_634497" data-name="Trazado 634497" d="M782-80.12c-.265.313-.521.634-.8.934a2.587,2.587,0,0,1-.433.316c-.829.58-1.629,1.211-2.5,1.725A18.516,18.516,0,0,1,775.841-76a11.735,11.735,0,0,1-1.508.409c-.424.109-.849.214-1.274.32a.446.446,0,0,1-.083.015c-1.1.058-2.2.173-3.305.154a14.333,14.333,0,0,1-2.29-.331,10.662,10.662,0,0,1-1.22-.339c-.062-.019-.1-.116-.149-.176a12.057,12.057,0,0,1,.743-1.307,11.479,11.479,0,0,1,5.517-4.05,11.091,11.091,0,0,1,5.05-.523,10.486,10.486,0,0,1,4.651,1.681A.145.145,0,0,1,782-80.12Z" transform="translate(-5.558 -40.171)" fill="#73ac38"/>
      <path id="Trazado_634498" data-name="Trazado 634498" d="M952.9-6.367a24.585,24.585,0,0,1,2.174,1.642,9,9,0,0,1,1.995,2.75,2.863,2.863,0,0,1-1.283,3.552,3.293,3.293,0,0,1-1.439.376c-4.868.027-9.736.01-14.6.019a2.86,2.86,0,0,1-2.831-3.215,6.507,6.507,0,0,1,.716.034c.585.09,1.165.223,1.751.3.334.043.68-.009,1.017.019.214.017.422.139.634.144.167,0,.338-.15.506-.146a8.831,8.831,0,0,0,2.879-.341,22.363,22.363,0,0,0,2.4-.715,25.911,25.911,0,0,0,3.072-1.665,14.447,14.447,0,0,0,1.955-1.521A11.783,11.783,0,0,0,952.9-6.367Z" transform="translate(-115.883 -88.953)" fill="#63bbc2"/>
      <path id="Trazado_634499" data-name="Trazado 634499" d="M952.952-9.45a11.783,11.783,0,0,1-1.062,1.231A14.45,14.45,0,0,1,949.935-6.7a25.917,25.917,0,0,1-3.072,1.665,22.362,22.362,0,0,1-2.4.715,8.831,8.831,0,0,1-2.879.341c-.168,0-.338.151-.506.146-.212,0-.42-.127-.634-.144-.337-.028-.682.024-1.017-.019-.587-.077-1.166-.209-1.751-.3a6.507,6.507,0,0,0-.716-.034,2.839,2.839,0,0,1,.777-1.879,11.124,11.124,0,0,1,5.356-4.2,10.912,10.912,0,0,1,5.479-.629,12.826,12.826,0,0,1,4.287,1.449C952.9-9.558,952.922-9.495,952.952-9.45Z" transform="translate(-115.932 -85.87)" fill="#73c3d0"/>
      <path id="Trazado_634500" data-name="Trazado 634500" d="M781.222,64.612a5.257,5.257,0,0,1,.792.42,11.365,11.365,0,0,1,3.124,3.531,2.858,2.858,0,0,1-1.432,4.07,4.339,4.339,0,0,1-1.485.308q-6.984.035-13.968.007a3.049,3.049,0,0,1-2.992-1.888,2.548,2.548,0,0,1,.023-2.171c.007-.015.052-.012.079-.017.436.071.873.133,1.307.214a7.612,7.612,0,0,0,1.524.29,19.375,19.375,0,0,0,4.242-.143c.412-.1.847-.11,1.267-.186a5.067,5.067,0,0,0,.831-.225c.513-.189,1.032-.373,1.523-.612.8-.389,1.6-.8,2.371-1.243a8.879,8.879,0,0,0,1.31-.95C780.253,65.573,780.728,65.082,781.222,64.612Z" transform="translate(-4.924 -134.782)" fill="#846bab"/>
      <path id="Trazado_634501" data-name="Trazado 634501" d="M781.828,61.451c-.493.47-.969.961-1.485,1.4a8.871,8.871,0,0,1-1.31.95c-.772.446-1.568.854-2.371,1.243-.491.238-1.009.423-1.523.612a5.063,5.063,0,0,1-.831.225c-.42.076-.855.084-1.267.186a19.374,19.374,0,0,1-4.242.143,7.612,7.612,0,0,1-1.524-.29c-.434-.081-.871-.143-1.307-.214a11.342,11.342,0,0,1,.634-1.169,10.192,10.192,0,0,1,2.795-2.779,19.187,19.187,0,0,1,2.532-1.315,10.709,10.709,0,0,1,5.521-.641,12.36,12.36,0,0,1,2.75.748,10.313,10.313,0,0,1,1.43.738l.193.16Z" transform="translate(-5.531 -131.621)" fill="#927ab5"/>
      <path id="Trazado_634502" data-name="Trazado 634502" d="M810.36,64.322l-.193-.16Z" transform="translate(-34.068 -134.492)" fill="#846bab"/>
      <path id="Trazado_634503" data-name="Trazado 634503" d="M961.193-58.356a4.989,4.989,0,0,1-2.987,3.911,4.952,4.952,0,0,1-3.827.231,5.246,5.246,0,0,1-3.05-2.651,4.959,4.959,0,0,1-.479-3.146,5.147,5.147,0,0,1,2.846-3.877,5.257,5.257,0,0,1,6.346,1.316,5.343,5.343,0,0,1,1.149,2.5Q961.192-59.211,961.193-58.356Z" transform="translate(-124.854 -51.457)" fill="#ffc351"/>
      <path id="Trazado_634504" data-name="Trazado 634504" d="M980.174-50.389l0-1.712c.051.074.144.147.147.223q.023.634,0,1.269C980.319-50.535,980.225-50.463,980.174-50.389Z" transform="translate(-143.835 -59.424)" fill="#6e6044"/>
      <path id="Trazado_634505" data-name="Trazado 634505" d="M779.326-130.912a5.081,5.081,0,0,1,2.26-3.422,5,5,0,0,1,3.852-.793,4.983,4.983,0,0,1,3.746,2.824,5.076,5.076,0,0,1,.319,3.814,4.98,4.98,0,0,1-3.151,3.382,5.071,5.071,0,0,1-3.323.14A4.944,4.944,0,0,1,779.658-128c-.143-.369-.264-.747-.4-1.12Q779.295-130.017,779.326-130.912Z" transform="translate(-14.113 -5.758)" fill="#ffc351"/>
      <path id="Trazado_634506" data-name="Trazado 634506" d="M779.089-123.068q-.032.9-.064,1.79A2.559,2.559,0,0,1,779.089-123.068Z" transform="translate(-13.876 -13.602)" fill="#706244"/>
      <path id="Trazado_634507" data-name="Trazado 634507" d="M779.331,10.8a5.25,5.25,0,0,1,9.864-1.38,5.535,5.535,0,0,1,.5,2.974,5.412,5.412,0,0,1-3.3,4.189,5.3,5.3,0,0,1-3.188.212,5,5,0,0,1-3.166-2.356,15.764,15.764,0,0,1-.767-1.849Q779.3,11.694,779.331,10.8Z" transform="translate(-14.119 -97.261)" fill="#ffc351"/>
      <path id="Trazado_634508" data-name="Trazado 634508" d="M779.088,18.632q-.03.9-.061,1.79A2.543,2.543,0,0,1,779.088,18.632Z" transform="translate(-13.876 -105.094)" fill="#706244"/>
      <path id="Trazado_634509" data-name="Trazado 634509" d="M867.927,17.268c1.1,0,2.2-.012,3.307,0a1.475,1.475,0,0,1,1.432.911,1.363,1.363,0,0,1-1.093,1.8c-2.021-.012-4.041.019-6.062.026-.423,0-.848-.01-1.27-.041a1.293,1.293,0,0,1-1.143-1.2,1.354,1.354,0,0,1,.863-1.357,3.063,3.063,0,0,1,.827-.131C865.835,17.259,866.881,17.268,867.927,17.268Z" transform="translate(-68.241 -104.211)" fill="#18273d"/>
      <path id="Trazado_634510" data-name="Trazado 634510" d="M871.714-124.05a1.314,1.314,0,0,1,1.043,1.388,1.3,1.3,0,0,1-1.314,1.187c-2.4,0-4.808-.017-7.211,0a1.365,1.365,0,0,1-1.123-1.259,1.327,1.327,0,0,1,.938-1.315c.692,0,1.383.01,2.075.008Q868.918-124.04,871.714-124.05Z" transform="translate(-68.25 -12.968)" fill="#15253b"/>
      <path id="Trazado_634511" data-name="Trazado 634511" d="M873.429-124.324q-2.8.008-5.592.015c-.692,0-1.383,0-2.075-.008a1.247,1.247,0,0,1,.4-.15q3.46-.015,6.92,0A1.044,1.044,0,0,1,873.429-124.324Z" transform="translate(-69.964 -12.695)" fill="#595d74"/>
      <path id="Trazado_634512" data-name="Trazado 634512" d="M874.057-53.469c1.146,0,2.292.016,3.437-.006a1.428,1.428,0,0,1,1.417,1.339,1.445,1.445,0,0,1-1.4,1.413q-3.458.014-6.916,0a1.4,1.4,0,0,1-1.377-1.418,1.36,1.36,0,0,1,1.4-1.326C871.766-53.471,872.912-53.469,874.057-53.469Z" transform="translate(-72.194 -58.537)" fill="#18273d"/>
    </g>
  </g>
</svg>
