<svg xmlns="http://www.w3.org/2000/svg" width="134" height="134" viewBox="0 0 134 134">
  <g id="Grupo_909102" data-name="Grupo 909102" transform="translate(-391 -2764.636)">
    <circle id="Elipse_5076" data-name="Elipse 5076" cx="67" cy="67" r="67" transform="translate(391 2764.636)" fill="#179587"/>
    <g id="Grupo_904918" data-name="Grupo 904918" transform="translate(-26.551 1802.288)">
      <path id="Trazado_633974" data-name="Trazado 633974" d="M473.062,1066.581c.447.472.883.953,1.342,1.414q2.38,2.394,4.774,4.775a3.012,3.012,0,0,0,.265.211,2.913,2.913,0,0,1,.4,1.871q-.013,10.655,0,21.309c0,.177.01.354.015.531s-.015.354-.015.531c0,5.824.015,11.648-.008,17.473a5.736,5.736,0,0,1-3.563,5.571,5.33,5.33,0,0,1-2.119.508c-9.277.033-18.554.05-27.83,0a5.521,5.521,0,0,1-4.751-2.81,6.424,6.424,0,0,1-.943-3.595q.025-22.289.008-44.577a5.973,5.973,0,0,1,3.685-5.782,4.96,4.96,0,0,1,1.95-.433c2.193-.055,4.388-.023,6.582-.027.209,0,.417-.022.626-.033.208.013.416.036.624.036q7.5,0,15-.006a1.8,1.8,0,0,1,1.25.4c.407.358.764.773,1.153,1.152C472.022,1065.6,472.544,1066.086,473.062,1066.581Zm-5.3,0h-.548c-6.759,0-13.519.019-20.278-.012a3.145,3.145,0,0,0-3.237,3.22q.027,22.384,0,44.767a3.144,3.144,0,0,0,3.217,3.227c3.258-.047,6.517-.013,9.776-.013,5.646,0,11.292.007,16.939-.012a3.544,3.544,0,0,0,1.432-.286,3,3,0,0,0,1.754-3q-.006-19.141,0-38.282v-.564h-.578q-3.412,0-6.824,0a1.517,1.517,0,0,1-1.644-1.637c-.006-1.452,0-2.9,0-4.356Zm6.694,5.98-3.613-3.69v3.69Z" transform="translate(0 -49.038)" fill="#080808"/>
      <path id="Trazado_633975" data-name="Trazado 633975" d="M468.7,1011.55a9.982,9.982,0,0,1-1.193.133c-.144,0-.415-.192-.415-.3-.006-1.874,0-3.749.049-5.623a12.387,12.387,0,0,1,.239-1.945c.141-.754.338-1.5.521-2.242.137-.556.258-1.119.441-1.66a20.037,20.037,0,0,1,.82-2.117c.526-1.119,1.051-2.246,1.685-3.306a21.672,21.672,0,0,1,3.371-4.452c1.167-1.14,2.39-2.231,3.653-3.264a21.332,21.332,0,0,1,5.285-3.116,35.992,35.992,0,0,1,3.555-1.322c.979-.294,2.015-.39,3.014-.621a20.5,20.5,0,0,1,5.659-.345,39.921,39.921,0,0,1,4.027.529,12.638,12.638,0,0,1,2.043.432,32.728,32.728,0,0,1,3.722,1.387,29.685,29.685,0,0,1,3.905,2.184,33.276,33.276,0,0,1,3.658,2.881,25.078,25.078,0,0,1,2.567,2.766,24.209,24.209,0,0,1,3.6,5.878,28.806,28.806,0,0,1,1.542,4.376,25.159,25.159,0,0,1,.821,6.831,1.714,1.714,0,0,1-1.531,1.376c-8.049-.026-16.1-.01-24.146-.031a.888.888,0,0,0-.878.53c-.813,1.419-1.635,2.832-2.453,4.248-.1.171-.19.346-.3.543l-1.371-.746a10.7,10.7,0,0,0-.959-.59c-.288-.14-.284-.312-.152-.537.916-1.562,1.841-3.118,2.741-4.69a.664.664,0,0,0-.025-.552c-.417-.747-.881-1.468-1.307-2.21-1.889-3.292-3.762-6.593-5.659-9.881-1.416-2.453-2.868-4.886-4.281-7.341-.163-.282-.243-.26-.453-.091-.488.392-.99.767-1.488,1.146a21.063,21.063,0,0,0-4.481,4.726,24.284,24.284,0,0,0-3.623,7.661,23.185,23.185,0,0,0-.823,5.492c-.027,1.061.05,2.126.1,3.188.014.3-.02.486-.382.509S469.066,1011.492,468.7,1011.55Zm14.735-24.626c.737,1.271,1.452,2.505,2.169,3.739,1.393,2.4,2.794,4.791,4.18,7.193q2.522,4.37,5.017,8.755a.652.652,0,0,0,.666.388q11.083-.013,22.165-.008c.171,0,.342-.014.514-.023A24.1,24.1,0,0,0,483.436,986.924Z" transform="translate(-15.788)" fill="#0d0d0d"/>
      <path id="Trazado_633976" data-name="Trazado 633976" d="M471.082,1022.221c.365-.058.729-.142,1.1-.165s.4-.209.382-.509c-.05-1.062-.127-2.127-.1-3.188a23.189,23.189,0,0,1,.823-5.492,24.285,24.285,0,0,1,3.623-7.661,21.064,21.064,0,0,1,4.481-4.726c.5-.379,1-.754,1.488-1.146.211-.169.291-.191.453.091,1.413,2.455,2.865,4.887,4.281,7.341,1.9,3.288,3.77,6.589,5.659,9.881.426.742.89,1.463,1.307,2.21a.664.664,0,0,1,.025.552c-.9,1.571-1.825,3.128-2.741,4.69-.132.226-.136.4.152.537a10.669,10.669,0,0,1,.959.59l-1.739,2.987c-.518-.495-1.04-.984-1.553-1.484-.389-.38-.746-.794-1.153-1.152a1.8,1.8,0,0,0-1.25-.4q-7.5.018-15,.005c-.208,0-.416-.023-.624-.036Z" transform="translate(-18.169 -10.671)" fill="#da2831"/>
      <path id="Trazado_633977" data-name="Trazado 633977" d="M585.01,1160.647c2.484,0,4.969.019,7.453-.005a6.065,6.065,0,0,1,5.817,4.185,5.9,5.9,0,0,1,.241,1.785c.028,2.1.056,4.2,0,6.291a5.862,5.862,0,0,1-5.9,5.823c-5.146.036-10.292.057-15.437,0a5.753,5.753,0,0,1-5.173-3.323,5.355,5.355,0,0,1-.6-2.674c.021-2.274-.036-4.55.028-6.823a4.841,4.841,0,0,1,.918-2.493,5.724,5.724,0,0,1,3.679-2.577,7.8,7.8,0,0,1,1.563-.18C580.074,1160.636,582.542,1160.646,585.01,1160.647Zm-.011,3.025c-2.533,0-5.066-.022-7.6.008a3.036,3.036,0,0,0-2.968,2.966c-.026,2.032,0,4.065-.007,6.1a3.061,3.061,0,0,0,2.95,2.967q7.6,0,15.2-.008a2.561,2.561,0,0,0,1.121-.211,3.082,3.082,0,0,0,1.833-2.85c.021-1.968.024-3.937-.009-5.9a3.2,3.2,0,0,0-.31-1.316,3.073,3.073,0,0,0-3.045-1.759C589.774,1163.687,587.386,1163.671,585,1163.672Z" transform="translate(-78.03 -106.985)" fill="#080808"/>
      <path id="Trazado_633978" data-name="Trazado 633978" d="M537.267,1108.108c-.005-.177-.015-.353-.015-.53q0-10.654,0-21.309a2.914,2.914,0,0,0-.4-1.871c.3-.485.643-.952.9-1.46.211-.415.379-.324.632-.069.506.509,1.022,1.008,1.54,1.5a2.654,2.654,0,0,0,.34.24,9.77,9.77,0,0,1-.886.955c-.236.2-.21.311-.025.488.435.418.872.834,1.3,1.261q2.8,2.795,5.588,5.594,3.641,3.638,7.292,7.265c.332.328.312.482-.063.787a25.93,25.93,0,0,1-4.5,2.97c-.328.169-.33.318-.183.594.169.316.308.647.46.972l-1.274.514c-.383-.343-.781-.67-1.147-1.031q-1.877-1.847-3.731-3.716c-.2-.2-.318-.218-.524-.007q-.816.836-1.677,1.627c-.217.2-.174.347,0,.515.314.311.639.611.951.925q1.415,1.426,2.824,2.858c-.749.179-1.5.352-2.246.54a4.481,4.481,0,0,0-.539.207c-.092-.433-.2-.864-.268-1.3-.039-.259-.135-.375-.4-.339-.708.1-1.416.2-2.127.267-.29.025-.394.1-.378.4.021.383,0,.768,0,1.152Z" transform="translate(-57.41 -60.455)" fill="#74c2e2"/>
      <path id="Trazado_633979" data-name="Trazado 633979" d="M617.138,1003.832c2.016,0,4.032-.022,6.048.006a5.669,5.669,0,0,1,5.4,3.534,6.275,6.275,0,0,1,.529,2.315c.076,1.8.045,3.612.016,5.417a11.069,11.069,0,0,1-.219,2.465,5.334,5.334,0,0,1-1.823,2.856,5.759,5.759,0,0,1-2.057,1.187,5.488,5.488,0,0,1-1.444.311c-4.338.024-8.677.064-13.014-.008a5.948,5.948,0,0,1-5.182-3.93,7.824,7.824,0,0,1-.359-2.591c0-1.951-.008-3.9,0-5.854a5.9,5.9,0,0,1,4.535-5.51,10.4,10.4,0,0,1,1.758-.188C613.268,1003.817,615.2,1003.832,617.138,1003.832Zm-.021,3.025q-3,0-6,0a3.089,3.089,0,0,0-3.077,3.083c-.013,1.984-.017,3.968,0,5.951a3.085,3.085,0,0,0,2.982,2.989q6.048-.016,12.1,0a3.056,3.056,0,0,0,2.994-2.972c.007-2.032.013-4.064-.009-6.1a2.613,2.613,0,0,0-.236-1.113,3.139,3.139,0,0,0-3.091-1.852C620.892,1006.884,619,1006.856,617.117,1006.857Z" transform="translate(-98.087 -13.424)" fill="#080808"/>
      <path id="Trazado_633980" data-name="Trazado 633980" d="M572.975,1065.017v-1.438c.1-.045.16-.093.217-.093,1.048.01,2.1,0,3.143.049a1.355,1.355,0,0,1,1.219,1.324,25.459,25.459,0,0,1-.685,6.359,24.71,24.71,0,0,1-1.595,4.789,26.417,26.417,0,0,1-4.814,7.313c-.257.272-.511.547-.779.808a1.5,1.5,0,0,1-2.305-.009c-1.634-1.631-3.248-3.282-4.881-4.914-1.591-1.59-3.2-3.164-4.794-4.75q-4.174-4.154-8.338-8.318a1.489,1.489,0,0,1-.419-1.574,1.427,1.427,0,0,1,1.344-1.053c.193-.01.386-.031.579-.031q4.792,0,9.583,0h.538v3.085h-6.834l14.367,14.335a23.913,23.913,0,0,0,5.942-14.352h-1.489Z" transform="translate(-64.576 -49.014)" fill="#0d0d0d"/>
      <path id="Trazado_633981" data-name="Trazado 633981" d="M580.8,1067.282v1.527h1.489a23.912,23.912,0,0,1-5.942,14.352l-14.367-14.335h6.834v-1.554l3.778.018-1.875,2c.607.6,1.183,1.144,1.734,1.715.3.315.554.34.868.011.613-.643,1.242-1.272,1.876-1.895s1.28-1.231,1.922-1.845Z" transform="translate(-72.4 -51.279)" fill="#efd386"/>
      <path id="Trazado_633982" data-name="Trazado 633982" d="M550.426,1134.482q-1.412-1.429-2.824-2.858c-.311-.314-.637-.614-.951-.925-.169-.168-.213-.316,0-.515q.862-.789,1.677-1.627c.206-.211.323-.195.524.007q1.853,1.87,3.731,3.716c.366.36.764.688,1.147,1.031q.893.947,1.785,1.894c.052.055.1.12.15.173.521.5.967,1.181,1.587,1.435a5.9,5.9,0,0,0,2.107.066q11.858,0,23.717,0h.559v3.072h-.482q-13.165,0-26.33.011a2.111,2.111,0,0,1-1.609-.7C553.631,1137.66,552.025,1136.075,550.426,1134.482Z" transform="translate(-63.17 -87.753)" fill="#0d0d0d"/>
      <path id="Trazado_633983" data-name="Trazado 633983" d="M590.036,1058.4c-.641.614-1.288,1.223-1.922,1.845s-1.263,1.251-1.876,1.895c-.313.329-.563.3-.868-.011-.551-.57-1.127-1.117-1.734-1.715l1.875-2c.682-.66,1.368-1.318,2.046-1.982,1.246-1.222,2.477-2.459,3.741-3.661a1.363,1.363,0,0,1,.847-.359q12.02-.029,24.041-.015c.046,0,.092.011.164.019v3.013h-.578q-11.15,0-22.3-.009a1.192,1.192,0,0,0-.943.368c-.764.788-1.544,1.561-2.313,2.344A1.74,1.74,0,0,0,590.036,1058.4Z" transform="translate(-85.322 -42.406)" fill="#080808"/>
      <path id="Trazado_633984" data-name="Trazado 633984" d="M552.735,1107.142c-.152-.325-.291-.656-.46-.972-.147-.276-.145-.425.183-.594a25.929,25.929,0,0,0,4.5-2.97c.375-.305.394-.459.063-.787q-3.658-3.62-7.292-7.265-2.8-2.794-5.588-5.594c-.427-.427-.864-.843-1.3-1.261-.184-.177-.211-.291.025-.488a9.734,9.734,0,0,0,.886-.955c.253-.226.517-.442.755-.683.216-.218.357-.232.6.008,1.659,1.668,3.343,3.313,5.008,4.975,1.9,1.9,3.793,3.818,5.7,5.721q2.322,2.323,4.662,4.627a1.792,1.792,0,0,1,.573,1.784,2.125,2.125,0,0,1-.606.876,27.258,27.258,0,0,1-6.637,4.8c-.282.148-.409.137-.534-.174C553.119,1107.828,552.914,1107.49,552.735,1107.142Z" transform="translate(-60.896 -62.097)" fill="#0d0d0d"/>
      <path id="Trazado_633985" data-name="Trazado 633985" d="M541.438,1143.065c0-.384.024-.77,0-1.152-.016-.294.088-.374.378-.4.711-.062,1.419-.171,2.127-.267.268-.036.363.079.4.339.067.437.176.867.268,1.3.029.348.057.7.088,1.043.019.224.019.418-.289.441-.831.063-1.662.129-2.491.214-.372.038-.48-.108-.461-.462S541.448,1143.417,541.438,1143.065Z" transform="translate(-60.145 -95.409)" fill="#0d0d0d"/>
      <path id="Trazado_633986" data-name="Trazado 633986" d="M472.3,1071.087v3.045c0,1.452,0,2.9,0,4.356a1.517,1.517,0,0,0,1.644,1.637q3.412.007,6.824,0h.578v.564q0,19.141,0,38.282a3,3,0,0,1-1.754,3,3.541,3.541,0,0,1-1.432.286c-5.647.019-11.293.013-16.939.013-3.259,0-6.518-.034-9.776.013a3.144,3.144,0,0,1-3.217-3.227q.036-22.383,0-44.767a3.145,3.145,0,0,1,3.237-3.221c6.759.031,13.519.012,20.278.012Zm-21.084,27.078h18.06V1095.2h-18.06Zm6.06-15.045v3.018h15.043v-3.018Zm21.071,21.062v-2.959H463.3v2.959Zm-12.067,3.057H451.222v2.969h15.057Zm.04-18.092v3.017H478.34v-3.017Zm-15.1,3.02h12.033v-3H451.216Zm9.043,9.058h-9.04v2.95h9.04Zm16.572,12.022H471v3.023h5.828Zm-25.615-36.184h6.013v-2.932h-6.013Zm21.106,21.106h6.02V1095.2h-6.02Zm3.008,9.072h-5.842v2.953h5.842Zm-.008-21.1h3.012v-3h-3.012Z" transform="translate(-4.537 -53.548)" fill="#efd386"/>
      <path id="Trazado_633987" data-name="Trazado 633987" d="M519.146,1080.473h-3.613v-3.691Z" transform="translate(-44.69 -56.953)" fill="#efae1e"/>
      <path id="Trazado_633988" data-name="Trazado 633988" d="M507.611,991.515a24.1,24.1,0,0,1,34.71,20.044c-.171.008-.343.023-.514.023q-11.082,0-22.165.008a.652.652,0,0,1-.666-.389q-2.488-4.389-5.017-8.755c-1.386-2.4-2.787-4.8-4.18-7.193C509.063,994.02,508.348,992.786,507.611,991.515Z" transform="translate(-39.963 -4.591)" fill="#9eb715"/>
      <path id="Trazado_633989" data-name="Trazado 633989" d="M589.444,1168.142c2.388,0,4.775.016,7.163-.007a3.073,3.073,0,0,1,3.045,1.759,3.2,3.2,0,0,1,.31,1.316c.033,1.968.029,3.936.009,5.9a3.083,3.083,0,0,1-1.833,2.85,2.565,2.565,0,0,1-1.121.211q-7.6.02-15.2.007a3.061,3.061,0,0,1-2.95-2.967c.005-2.033-.019-4.066.007-6.1a3.036,3.036,0,0,1,2.968-2.966C584.378,1168.122,586.911,1168.143,589.444,1168.142Zm-6.018,1.539v2.961H592.4v-2.961Zm11.99,8.991V1175.7h-8.968v2.971Zm.033-6.045h2.99v-2.937h-2.99Zm-12.057,6.052v-2.972h-2.969v2.972Z" transform="translate(-82.475 -111.456)" fill="#73c1df"/>
      <path id="Trazado_633990" data-name="Trazado 633990" d="M621.548,1011.326c1.887,0,3.775.028,5.661-.009a3.139,3.139,0,0,1,3.091,1.852,2.613,2.613,0,0,1,.236,1.113c.022,2.032.016,4.064.009,6.1a3.056,3.056,0,0,1-2.994,2.972q-6.048-.024-12.1,0a3.085,3.085,0,0,1-2.982-2.989c-.018-1.984-.015-3.967,0-5.951a3.089,3.089,0,0,1,3.077-3.083Q618.549,1011.329,621.548,1011.326Zm-4.519,1.51v2.993H623v-2.993Zm8.99,9.018v-2.968h-5.958v2.968Zm.043-9.016v2.989h2.962v-2.989Zm-9.077,9.014v-2.965H614.02v2.965Z" transform="translate(-102.519 -17.895)" fill="#116ea4"/>
      <path id="Trazado_633991" data-name="Trazado 633991" d="M455.625,1133.85v-2.963h18.06v2.963Z" transform="translate(-8.948 -89.233)" fill="#080808"/>
      <path id="Trazado_633992" data-name="Trazado 633992" d="M470.649,1100.934h15.043v3.018H470.649Z" transform="translate(-17.911 -71.362)" fill="#0d0d0d"/>
      <path id="Trazado_633993" data-name="Trazado 633993" d="M500.626,1148.771H485.575v-2.959h15.051Z" transform="translate(-26.816 -98.137)" fill="#080808"/>
      <path id="Trazado_633994" data-name="Trazado 633994" d="M470.7,1160.725v2.969H455.644v-2.969Z" transform="translate(-8.959 -107.034)" fill="#080808"/>
      <path id="Trazado_633995" data-name="Trazado 633995" d="M493.069,1115.873H505.09v3.017H493.069Z" transform="translate(-31.287 -80.275)" fill="#0d0d0d"/>
      <path id="Trazado_633996" data-name="Trazado 633996" d="M455.629,1118.917v-3h12.033v3Z" transform="translate(-8.95 -80.299)" fill="#0d0d0d"/>
      <path id="Trazado_633997" data-name="Trazado 633997" d="M464.678,1145.813v2.95h-9.04v-2.95Z" transform="translate(-8.955 -98.138)" fill="#080808"/>
      <path id="Trazado_633998" data-name="Trazado 633998" d="M510.51,1175.617v3.023h-5.828v-3.023Z" transform="translate(-38.216 -115.919)" fill="#0d0d0d"/>
      <path id="Trazado_633999" data-name="Trazado 633999" d="M455.629,1081.579v-2.933h6.013v2.933Z" transform="translate(-8.95 -58.065)" fill="#080808"/>
      <path id="Trazado_634000" data-name="Trazado 634000" d="M507.952,1133.847v-2.969h6.02v2.969Z" transform="translate(-40.167 -89.227)" fill="#080808"/>
      <path id="Trazado_634001" data-name="Trazado 634001" d="M506.769,1160.73v2.953h-5.842v-2.953Z" transform="translate(-35.976 -107.038)" fill="#080808"/>
      <path id="Trazado_634002" data-name="Trazado 634002" d="M515.391,1103.981v-3H518.4v3Z" transform="translate(-44.605 -71.393)" fill="#0d0d0d"/>
      <path id="Trazado_634003" data-name="Trazado 634003" d="M590.17,1171.967h8.977v2.961H590.17Z" transform="translate(-89.22 -113.742)" fill="#080808"/>
      <path id="Trazado_634004" data-name="Trazado 634004" d="M606.631,1189.862h-8.968v-2.971h8.968Z" transform="translate(-93.69 -122.646)" fill="#080808"/>
      <path id="Trazado_634005" data-name="Trazado 634005" d="M619.975,1174.927v-2.937h2.99v2.937Z" transform="translate(-107.002 -113.756)" fill="#080808"/>
      <path id="Trazado_634006" data-name="Trazado 634006" d="M585.7,1189.877h-2.969v-2.972H585.7Z" transform="translate(-84.779 -122.654)" fill="#080808"/>
      <path id="Trazado_634007" data-name="Trazado 634007" d="M623.786,1015.085h5.97v2.993h-5.97Z" transform="translate(-109.275 -20.143)" fill="#0d0d0d"/>
      <path id="Trazado_634008" data-name="Trazado 634008" d="M637.26,1033.051H631.3v-2.969h5.958Z" transform="translate(-113.76 -29.091)" fill="#080808"/>
      <path id="Trazado_634009" data-name="Trazado 634009" d="M646.179,1015.089h2.962v2.989h-2.962Z" transform="translate(-122.636 -20.145)" fill="#0d0d0d"/>
      <path id="Trazado_634010" data-name="Trazado 634010" d="M619.291,1033.05h-2.965v-2.965h2.965Z" transform="translate(-104.825 -29.092)" fill="#080808"/>
    </g>
  </g>
</svg>
