<svg xmlns="http://www.w3.org/2000/svg" width="134" height="134" viewBox="0 0 134 134">
  <g id="Grupo_909110" data-name="Grupo 909110" transform="translate(-1084 -2764.636)">
    <circle id="Elipse_5078" data-name="Elipse 5078" cx="67" cy="67" r="67" transform="translate(1084 2764.636)" fill="#179587"/>
    <g id="Grupo_904920" data-name="Grupo 904920" transform="translate(292.625 2201.982)">
      <path id="Trazado_634046" data-name="Trazado 634046" d="M828.679,609.785c-.233.226-.056.385.091.547a8,8,0,0,1,.915,1.02,1.217,1.217,0,0,1-.183,1.782c-.759.8-1.549,1.565-2.323,2.349-.57.576-1.127,1.166-1.708,1.732a1.461,1.461,0,0,1-2.328-.005Q818.05,612.1,812.943,607a1.505,1.505,0,0,1,.017-2.369q1.923-1.931,3.854-3.854c.847-.843,1.529-.856,2.476,0a9.821,9.821,0,0,0,.932.667l1.909-2.049c-.175-.146-.481-.388-.771-.647a1.484,1.484,0,0,1-.491-1.929l.178-.268.005-.007a2.159,2.159,0,0,0,.365-.237c.447-.434.885-.878,1.322-1.323q1.13-1.152,2.255-2.309a1.525,1.525,0,0,1,1.781.025c.012.043.008.1.036.126a1.476,1.476,0,0,1-.021,2.22c-.184.177-.349.374-.522.561-.525.509-1.04,1.029-1.579,1.524-.286.264-.3.433,0,.728q3.814,3.777,7.588,7.595c.287.291.439.291.719.007,1.63-1.651,3.278-3.284,4.918-4.925q1.877-1.878,3.75-3.761c.154-.154.35-.292.113-.523q-.868-.848-1.739-1.693a1.388,1.388,0,0,0-.134-.185q-2.959-2.973-5.922-5.941c-.109-.109-.232-.2-.315-.276-.813.8-1.593,1.531-2.335,2.3a1.6,1.6,0,0,1-2.482.2,1.508,1.508,0,0,1,.2-2.122c1.159-1.174,2.345-2.323,3.5-3.5a1.522,1.522,0,0,1,2.226.013c.327.345.644.7.915.994,1-.542,1.88-1.1,2.821-1.5a10.675,10.675,0,0,1,4.979-.887,12.057,12.057,0,0,1,5.464,1.6c.384.228.808.388,1.2.606a1.306,1.306,0,0,1,.656,1.241,1.368,1.368,0,0,1-.927,1.328,10.628,10.628,0,0,0-3.09,1.475,8.508,8.508,0,0,0-2.949,3.813.526.526,0,0,0,.089.448c.372.415.765.813,1.173,1.194a1.482,1.482,0,0,1,.008,2.2c-.238.237-.472.481-.729.7-.274.231-.154.391.043.586q1.808,1.789,3.6,3.591c.492.494.971,1,1.531,1.581.3-.506.553-.937.8-1.37q2.9-5,5.789-10.007,2.277-3.948,4.537-7.906c.4-.7.893-1.244,1.766-1.062a4.4,4.4,0,0,1,1.22.557c1.8,1.026,3.585,2.068,5.376,3.106.412.238.8.517,1.234.717a1.675,1.675,0,0,1,1.066,1.9,2.908,2.908,0,0,0-.006.322c-.047.087-.131.174-.134.263-.021.59-.025,1.18-.033,1.771q-.01.638-.02,1.275c-.049.084-.138.167-.141.253-.02.593-.021,1.186-.029,1.779a1.674,1.674,0,0,1-.733,1.766,5.629,5.629,0,0,1-1.225.431c-.566.162-1.14.293-1.755.448.165.609.344,1.2.48,1.794s.482,1.195.1,1.834a1.609,1.609,0,0,1-1.053.82c-.644.146-1.28.324-1.917.5a.246.246,0,0,0-.145.145c-.084.288.407.919.71.92,1.886,0,3.771.01,5.657-.005a1.627,1.627,0,0,1,1.365.532c.045.052.281.024.354-.046.68-.652,1.353-1.312,2.007-1.989.253-.262.019-.576-.028-.847-.133-.771-.4-1.524-.476-2.3a12.678,12.678,0,0,1-.01-2.575,22.006,22.006,0,0,1,.508-2.262,10.82,10.82,0,0,1,1.336-3.208,12.391,12.391,0,0,1,3.461-3.821,14.619,14.619,0,0,1,2.853-1.639,13.9,13.9,0,0,1,2.994-.79,11.313,11.313,0,0,1,2.675-.169,21.327,21.327,0,0,1,3.033.514c.539.117,1.048.368,1.578.534a1.472,1.472,0,0,1,.416,2.434c-1.231,1.2-2.43,2.426-3.643,3.641l-4.044,4.053c.8.78,1.6,1.56,2.4,2.345q1.391,1.367,2.778,2.74a1.7,1.7,0,0,1,.139.264,2.722,2.722,0,0,1,.294,1.043,1.39,1.39,0,0,1-.972,1.178,1.525,1.525,0,0,1-1.632-.386c-1.3-1.312-2.6-2.628-3.909-3.933-.782-.78-1.581-1.542-2.373-2.311h0l-.173-.217-.024-.15-.084-.183a2.025,2.025,0,0,1,.787-1.845c.732-.667,1.4-1.4,2.095-2.111l4.431-4.506a.518.518,0,0,0-.215-.089c-.846-.01-1.692-.025-2.537,0a8.873,8.873,0,0,0-4.1,1.3,9.247,9.247,0,0,0-3.437,3.263,23.155,23.155,0,0,0-1.168,2.5c-.052.048-.143.091-.151.146-.135.836-.314,1.67-.371,2.512a10.033,10.033,0,0,0,.68,4.135,9.818,9.818,0,0,0,2.389,3.688,9.986,9.986,0,0,0,3.633,2.3,10.868,10.868,0,0,0,3.183.649,8.369,8.369,0,0,0,1.951-.16,11.969,11.969,0,0,0,2.44-.63,10.015,10.015,0,0,0,5.326-5.1,14.662,14.662,0,0,0,.61-1.92.254.254,0,0,0,.021-.071l.143-.214.038-.343.151-.745q0-1.106,0-2.211a1.893,1.893,0,0,0-.029-.553c-.071-.2-.2-.2-.262.032l-.027.03-.153.153a.035.035,0,0,0-.031.031l-.153.153a.035.035,0,0,0-.031.031l-.153.153a.035.035,0,0,0-.031.031l-.153.153a.035.035,0,0,0-.031.031l-.153.153a.034.034,0,0,0-.031.031l-.154.152a.035.035,0,0,0-.03.031l-.154.153a.035.035,0,0,0-.03.031l-.154.153a.035.035,0,0,0-.03.031l-.154.153a.035.035,0,0,0-.03.031l-.154.153a.035.035,0,0,0-.03.031l-.154.153-.03.031-.154.153-.03.031-.154.153-.03.031-.154.153-.03.031-.155.153-.029.03-.155.154-.029.029-.156.154-.028.029-.168.152-.022.015-.188.157a3.847,3.847,0,0,1-.994.159,2.968,2.968,0,0,1-.843-.36,7.3,7.3,0,0,1-.378-1.011,1.263,1.263,0,0,1,.483-1.181c1.674-1.666,3.36-3.321,5.01-5.01a1.5,1.5,0,0,1,2.579.547,12.8,12.8,0,0,1,.905,6.442,13.038,13.038,0,0,1-7.138,10.365,13.432,13.432,0,0,1-7.3,1.435c-.35-.023-.7-.11-1.143-.183,1.264,1.249,2.441,2.4,3.607,3.567q2.1,2.1,4.189,4.211a1.547,1.547,0,0,1-.039,2.545c-1.237,1.21-2.455,2.44-3.683,3.659-.206.2-.214.358-.074.653.437.926.8,1.889,1.171,2.845a.524.524,0,0,0,.577.414c1.778-.021,3.557.021,5.335-.023a1.6,1.6,0,0,1,1.624,1.623q-.063,4.3,0,8.6a1.58,1.58,0,0,1-1.5,1.637,1.619,1.619,0,0,1-1.489-1.684c.029-2.222.01-4.444.01-6.666v-.514c-1.776,0-3.49,0-5.2,0a2.453,2.453,0,0,1-.677-.079c-.744-.218-.962-.824-1.176-1.5a25.106,25.106,0,0,0-1.881-4.437,1.554,1.554,0,0,1,.33-2.112q1.706-1.687,3.408-3.38c.142-.142.343-.258.069-.531q-3.951-3.928-7.866-7.892c-.187-.189-.277-.187-.462,0-1.2,1.207-2.415,2.394-3.612,3.6a1.3,1.3,0,0,1-1.587.359c-.318-.127-.605-.329-.923-.457-1.4-.563-2.791-1.132-4.2-1.657a1.691,1.691,0,0,1-1.26-1.647c.039-1.608.011-3.218.011-4.827v-.476H858.1v.516c0,1.594.022,3.188-.016,4.781a4.152,4.152,0,0,1-.342,1.1l-.181.187h0l-.2.167-.154.041-.384.163-.167.024-.385.157-.168.024a4.755,4.755,0,0,0-.679.17c-.4.163-.785.36-1.177.542l-.163.034-.207.14-.164.037-2.438,1.126-.307,0-.96-.592,0,0-.182-.182,0,0-.182-.182,0,0-.182-.182,0,0-.182-.182,0,0-.182-.182,0,0-.182-.182,0,0-.182-.182,0,0-.182-.182,0,0-.182-.182,0,0-.182-.182,0,0-.182-.182,0,0-.182-.182,0,0-.182-.182,0,0-.182-.182,0,0-.182-.182,0,0-.182-.182,0,0-.182-.182,0,0-.182-.183,0,0-.182-.182,0,0-.261-.165c-.461.449-.926.893-1.381,1.347-.262.262-.508.541-.761.812a1.84,1.84,0,0,0-.213.16c-1.86,1.867-3.711,3.744-5.586,5.6-.3.293-.282.453-.005.723q1.586,1.55,3.142,3.132a4.368,4.368,0,0,1,.633.77c.4.653.044,1.237-.247,1.8a21.463,21.463,0,0,0-1.636,3.919l-.307.841-.119.275-.067.086-.082.114-.088.09-.106.087-.089.078-.262.12-.214.106-.339.033a2.341,2.341,0,0,0-.356-.054q-2.32-.006-4.641,0a2.269,2.269,0,0,0-.355.056l-.116.116a1.7,1.7,0,0,0-.056.308q0,5.5,0,11a1.206,1.206,0,0,0,.116.354l5.673.021.391.162a.211.211,0,0,1,.075.02l.259.2.007,0,.316.383.039.163.337.937.025.167.154.386.033.166a2.8,2.8,0,0,0,.131.583c.171.373.379.728.572,1.091l.04.166,1.068,2.408-.005.238-.413.838-.006,0-.176.183-.005,0-.178.182-.006,0-.179.181-.005,0-.178.182-.006,0-.179.181-.005,0-.178.182-.006,0-.179.181-.005,0-.179.181-.006,0-.177.182-.006,0-.179.181-.005,0-.179.181-.006,0-.178.181-.006,0-.178.181-.006,0-.178.181-.006,0-.178.181-.006,0-.178.181-.006,0-.178.181-.006,0-.178.181-.006,0-.178.181-.006,0-.178.181c-.26.245-.007.382.127.517,2.634,2.653,5.273,5.3,7.971,8.012.4-.387.781-.744,1.15-1.112.922-.92,1.827-1.858,2.764-2.762a1.484,1.484,0,0,1,1.773-.246q2.451,1.077,4.929,2.092c1.038.428,1.246.7,1.246,1.823q0,2.276,0,4.552v.535h11.784v-.435c0-1.609-.026-3.219.009-4.828a1.473,1.473,0,0,1,1.157-1.672c.592-.23,1.228-.355,1.808-.608,1.169-.511,2.314-1.079,3.469-1.623l1.287.179c1.294,1.318,2.586,2.639,3.893,3.944.055.055.3.011.378-.065q1.053-1.012,2.074-2.056c.59-.6,1.166-1.215,1.749-1.823.044-.013.1-.012.129-.041,1.308-1.31,2.6-2.634,3.926-3.927.306-.3.088-.439-.079-.606-1.127-1.124-2.272-2.231-3.39-3.364a1.5,1.5,0,0,1-.3-2.077,21.194,21.194,0,0,0,1.752-4.188,4.476,4.476,0,0,1,.375-1.039,1.479,1.479,0,0,1,1.373-.792c2.3,0,4.594-.011,6.891-.019a1.5,1.5,0,0,1,1.448,1.091,1.368,1.368,0,0,1-.541,1.564,1.939,1.939,0,0,1-.948.313c-1.93.028-3.861.014-5.767.014l-1.552,3.766c.638.605,1.366,1.286,2.083,1.978q.958.924,1.9,1.868a1.56,1.56,0,0,1-.015,2.495q-2.946,2.939-5.894,5.876-2.1,2.1-4.187,4.212a1.7,1.7,0,0,1-2.488-.024c-1.17-1.208-2.362-2.393-3.547-3.587-.126-.127-.267-.24-.371-.334l-3.682,1.52v.881c0,1.641-.033,3.282.014,4.921a1.622,1.622,0,0,1-1.477,1.473c-4.921-.028-9.842-.013-14.763-.016a1.406,1.406,0,0,1-1.458-1.457c-.008-1.946,0-3.892,0-5.784-1.082-.469-2.121-.923-3.163-1.37a.8.8,0,0,0-.99.24q-1.711,1.766-3.479,3.476a2.518,2.518,0,0,1-.986.622,1.336,1.336,0,0,1-1.321-.462c-2.633-2.623-5.277-5.238-7.9-7.875a.674.674,0,0,0-1-.1c-2.1,1.247-4.223,2.452-6.333,3.68-1.346.783-2.674,1.595-4.026,2.367-1.608.919-3.234,1.807-4.848,2.717-.262.148-.5.337-.744.5.3.528.606,1.005.863,1.505a1.6,1.6,0,0,1-.665,1.747,1.529,1.529,0,0,1-2.139-.661c-.439-.894-.987-1.733-1.467-2.607a1.4,1.4,0,0,1,.586-1.853c1.554-.915,3.117-1.814,4.679-2.714,1.038-.6,2.082-1.186,3.064-1.745-.643-1.063-1.268-2.07-1.868-3.091-1.635-2.785-3.3-5.555-4.877-8.371a4.436,4.436,0,0,1,1.883-6.167c2.417-1.377,4.83-2.759,7.3-4.173a6.782,6.782,0,0,0-.562-.406c-1.456-.835-2.921-1.655-4.375-2.494q-4.772-2.754-9.535-5.523a1.527,1.527,0,0,1-.606-2.236q2.907-5.03,5.82-10.057a1.477,1.477,0,0,1,2.009-.562c1.524.788,2.986,1.695,4.479,2.544.942.536,1.9,1.049,2.838,1.585.585.333,1.152.7,1.733,1.036q2.99,1.738,5.984,3.466c.144.083.285.172.427.258l.291.161,0,0c.376.24.745.491,1.135.7.054.029.265-.1.308-.2.392-.9.734-1.825,1.155-2.711a.552.552,0,0,0-.129-.752c-1.237-1.225-2.472-2.451-3.688-3.7a2.486,2.486,0,0,1-.484-.8c-.22-.542.08-1,.323-1.45l0,0,.179-.182,0,0,.181-.181,0,0,.181-.181,0,0,.181-.181,0,0,.181-.181,0,0,.181-.181,0,0,.181-.181,0,0,.181-.181,0,0,.181-.181,0,0,.181-.181,0,0,.181-.181,0,0,.181-.181,0,0,.181-.181,0,0,.181-.181,0,0,.181-.181,0,0,.181-.181,0,0,.181-.181,0,0,.181-.181,0,0,.172-.192h0l.183-.183h0l.182-.183h0l.183-.183h0l.182-.183h0l.182-.183h0l.183-.183h0l.182-.183h0l.182-.183h0l.183-.183h0l.182-.183h0l.183-.183h0l.183-.183h0l.183-.183h0l.183-.183h0l.182-.183h0l.182-.183h0l.176-.189.018-.1-.211-.239-.009,0-.175-.178-.009-.005-.175-.179-.009-.005-.175-.179-.009-.005-.175-.179-.009-.005-.175-.179-.009-.005-.175-.179-.009-.005-.175-.179-.009-.005-.175-.179-.009-.005-.175-.179-.009-.005-.175-.179-.009-.005-.174-.18-.008,0-.176-.179-.009,0-.175-.18-.008,0-.176-.179-.009,0-.175-.178-.009-.005-.175-.179-.009-.005-.175-.179-.009-.005-.175-.179-.009-.005-.175-.179-.009-.005-.175-.179-.009-.005-.175-.179-.009-.005-.175-.179-.009-.005-.175-.179-.009-.005-.175-.179-.009-.005-.175-.179-.009-.005-.175-.179-.009-.005-.174-.18-.008,0-.176-.179-.009,0-.371-.465c-.355.376-.656.7-.956,1.016q-.6.644-1.2,1.289l-.009,0-1.506.191c-.028,0-.057-.011-.085-.018l-.273-.183h0l-.185-.175-.006,0-.178-.179-.007,0-.177-.18-.007,0-.177-.18-.007,0-.177-.179-.007,0c-.139-.314-.278-.311-.416,0l-.007,0-.177.179-.007,0-.177.179-.007,0-.177.179-.007,0-.177.179-.007,0-.177.179-.007,0-.177.179-.007,0-.177.179-.007,0-.177.179-.007,0Zm-7.825,19.758-.165-.18-.311-.638.677-1.645.163-.189a.275.275,0,0,1,.033-.083l.387-.692a.1.1,0,0,1,.033-.064l.287-.445.033-.087.186-.331.185-.312c.184-.259.377-.513.541-.785.017-.028-.136-.16-.21-.243a.254.254,0,0,1-.082-.034l-.331-.187-.312-.185-.555-.335-.089-.034-.332-.185-.134-.07-.387-.248a.239.239,0,0,0-.084-.022l-.251.219a.141.141,0,0,1-.02.074l-.155.21c-.352.624-.708,1.247-1.055,1.874-.405.732-.8,1.468-1.206,2.2-.14.206-.293.4-.418.62-.459.789-.909,1.584-1.368,2.386.179.112.306.195.436.271l5.229,3.034.456.259.088.034.327.186.317.186.2.138.444.23.326.186a.147.147,0,0,1,.071.036l.444.286a.393.393,0,0,1,.082.034l.688.386a.143.143,0,0,1,.07.036l.442.286.087.034.328.186.316.183.326.19.317.18.326.187a.156.156,0,0,1,.072.035l.443.287a.457.457,0,0,1,.081.035l.69.384a.144.144,0,0,1,.071.034l.44.289a.4.4,0,0,1,.085.033l.832.573.127-.193q0-.528,0-1.056.011-3.26.023-6.518l.383-.773.1-.1.774-.381.54-.036.116-.156-.522-.186a.143.143,0,0,1-.07-.035l-.443-.285-.086-.034-.286-.161-.316.368-.336.555-.034.089-.185.327-.185.316-.555.97a.146.146,0,0,1-.035.072l-.287.443a.4.4,0,0,1-.035.082l-.53.821-.009.01a2.394,2.394,0,0,1-1.542.365l-.169-.043-.187-.136-.347-.323-.182-.329-.029-.173,0-.729.033-.173.322-.565a.4.4,0,0,1,.034-.082l.384-.689a.139.139,0,0,1,.035-.07l.286-.443a.407.407,0,0,1,.034-.085l.217-.406.151-.328.339-.463.032-.088.187-.33.169-.517-.391-.272a.3.3,0,0,1-.082-.033l-.332-.186-.425-.233-.446-.286a.285.285,0,0,1-.085-.033l-.331-.187-.131-.079c-.1-.213-.2-.217-.3,0l-.036.1-.136.194a.3.3,0,0,1-.033.085l-.185.331-.184.312-.191.33-.177.314-.186.33-.185.313-.139.2a.286.286,0,0,1-.033.078l-.385.693a.107.107,0,0,1-.033.066l-.294.438-.369.378-.193.136-.171.041a2.516,2.516,0,0,1-1.551-.362Zm10.575,20.245a1.7,1.7,0,0,0-.4-.343,1.545,1.545,0,0,0-1.745.512,1.457,1.457,0,0,0,1.669,2.206,1.253,1.253,0,0,0,.929-1.023A1.123,1.123,0,0,0,831.429,649.788Zm13.151-63.005a.776.776,0,0,0-.246-.093c-.78-.008-1.562-.028-2.341,0a6.985,6.985,0,0,0-3.2,1.007c-.736.236-.831.547-.324,1.055.418.419.839.835,1.257,1.255.55.554,1.1,1.111,1.7,1.72a12.855,12.855,0,0,1,4.282-4.708Zm28.983,21.528c-.245.278-.664.535-.7.839a18.847,18.847,0,0,0-.034,2.372c1.2.516,2.348,1.015,3.5,1.5a.368.368,0,0,0,.324-.026c.574-.573,1.132-1.163,1.694-1.747.47-.442.945-.877,1.408-1.326s.443-.536-.109-.916a12.422,12.422,0,0,1-3.1-3.221c-.221-.317-.309-.243-.5-.057q-1.2,1.193-2.387,2.391A.78.78,0,0,0,873.562,608.311Zm-56.94-3.126c-.673.466-.7.621-.163,1.152q2.563,2.55,5.13,5.1c.8.8,1.59,1.606,2.407,2.386.113.108.44.177.525.1.647-.568,1.258-1.177,1.915-1.807l-.955-.872c0-.015,0-.034-.014-.043q-3.6-3.611-7.2-7.221c-.184-.185-.337-.14-.5.029C817.391,604.4,817.006,604.792,816.623,605.184Zm12.5,37.975c-.442.217-.9.41-1.323.655-1.209.695-2.4,1.412-3.608,2.117-.841.493-1.693.967-2.525,1.476a1.358,1.358,0,0,0-.558,1.906c.309.524.615,1.05.928,1.572.483.807.972,1.611,1.458,2.416.3.547.585,1.1.895,1.639q1.318,2.3,2.654,4.594a1.41,1.41,0,0,0,1.843.637c1.873-1.051,3.731-2.129,5.587-3.211a.376.376,0,0,0,.1-.347,1.451,1.451,0,0,1,.379-1.934q1.616-1.627,3.241-3.246c.718-.717.71-.713.322-1.621s-.767-1.85-1.141-2.754h-4.511l.415.34a4.329,4.329,0,0,1,1.613,3.024,4.393,4.393,0,0,1-4.918,4.742,4.265,4.265,0,0,1-3.59-2.691c-.141-.313-.229-.65-.342-.976l-.01-1.289.127-.409a4.187,4.187,0,0,1,.184-.642,4.689,4.689,0,0,1,2.228-2.346l.2-.127.256-.06c.339-.058.683-.1,1.015-.185a.353.353,0,0,0,.182-.281c-.04-.925-.1-1.849-.154-2.774-.013-.248,0-.5,0-.871Zm39.055-49.779q.023-.5.046-.991c.057-.67.116-1.341.163-2.012,0-.026-.113-.059-.174-.089-.176-.1-.35-.208-.528-.305q-.923-.5-1.849-1a4.279,4.279,0,0,0-.38-.275c-.9-.517-1.795-1.029-2.7-1.547-.737,1.272-1.456,2.5-2.166,3.741q-2.293,3.992-4.58,7.988c-1.336,2.323-2.668,4.648-4.033,6.954a.415.415,0,0,0,.086.615l2.489,2.47.563.56c.013-.267.027-.415.027-.563,0-1.042.044-2.086-.012-3.126a1.546,1.546,0,0,1,1.552-1.542c.84.045,1.685,0,2.528,0H861.8l-.109-.235a7.842,7.842,0,0,1-.627-1.406c-.208-.889.379-1.611,1.432-1.847.742-.166,1.47-.394,2.227-.6-.126-.43-.246-.82-.354-1.213s-.182-.8-.311-1.188a1.529,1.529,0,0,1,.831-1.927c.975-.3,1.973-.528,2.961-.787.108-.137.293-.265.309-.412A12.438,12.438,0,0,0,868.182,593.38ZM845.567,604.24l-2.822-2.84c-.156-.163-.321-.318-.466-.491-.2-.239-.361-.2-.566.006q-1.792,1.8-3.6,3.593c-.183.182-.223.334,0,.532.283.253.536.54.8.81l4.644,4.678c.085-.026.123-.027.142-.045.449-.434.916-.851,1.34-1.308a1.541,1.541,0,0,1,2.428-.023c1.2,1.257,2.445,2.468,3.684,3.686.12.118.363.246.488.2.462-.167.9-.4,1.345-.616.176-.084.349-.172.558-.275-2.119-2.121-4.167-4.176-6.222-6.223C846.75,605.35,846.153,604.8,845.567,604.24Zm-17.106,1.587c-1.344-1.338-2.628-2.624-3.928-3.894a.435.435,0,0,0-.425-.01c-.569.532-1.118,1.085-1.652,1.651a.382.382,0,0,0,.031.368q1.815,1.847,3.665,3.66a.493.493,0,0,0,.481,0C827.239,607.051,827.817,606.461,828.46,605.828Z" fill="#2a2929"/>
      <path id="Trazado_634047" data-name="Trazado 634047" d="M907.566,651.636a4.149,4.149,0,0,0,.342-1.1c.038-1.593.016-3.187.016-4.781v-.516h11.783v.476c0,1.609.028,3.219-.011,4.827a1.691,1.691,0,0,0,1.26,1.647c1.41.526,2.805,1.094,4.2,1.657.317.128.6.33.923.457a1.3,1.3,0,0,0,1.587-.359c1.2-1.207,2.414-2.395,3.612-3.6.185-.186.275-.188.462,0q3.921,3.958,7.866,7.892c.274.273.073.389-.069.531q-1.7,1.7-3.408,3.38a1.554,1.554,0,0,0-.33,2.112,25.1,25.1,0,0,1,1.881,4.437c.215.677.432,1.283,1.176,1.5a2.454,2.454,0,0,0,.677.079c1.715.007,3.429,0,5.2,0v.514c0,2.222.019,4.444-.01,6.666a1.619,1.619,0,0,0,1.489,1.684q0,1.445,0,2.89c-2.3.008-4.594.024-6.891.019a1.479,1.479,0,0,0-1.373.792,4.479,4.479,0,0,0-.375,1.039,21.189,21.189,0,0,1-1.752,4.188,1.5,1.5,0,0,0,.3,2.077c1.118,1.133,2.263,2.24,3.39,3.364.168.167.385.307.079.606-1.324,1.294-2.618,2.617-3.926,3.927-.028.028-.085.028-.129.041-.937.061-1.874.178-2.81.169-1.762-.018-3.523-.109-5.284-.169l-1.287-.179c-.591-.12-1.184-.23-1.771-.363-1.06-.239-2.121-.473-3.174-.742a26.7,26.7,0,0,1-2.673-.775,29.243,29.243,0,0,1-3.419-1.456c-1.69-.887-3.339-1.856-4.971-2.846-.876-.531-1.684-1.174-2.513-1.779a1.288,1.288,0,0,1-.241-.361c.283.1.576.172.847.3a10.842,10.842,0,0,0,3.867.981,29.18,29.18,0,0,0,4.065-.137,11.274,11.274,0,0,0,3.935-1.187,14.408,14.408,0,0,0,5.866-5.022,15.053,15.053,0,0,0,2.32-5.655,14.38,14.38,0,0,0-.046-5.64,15.726,15.726,0,0,0-1.575-4.274c-.7-1.307-1.333-1.687-2.545-1.124l-2.009-1.968a1.52,1.52,0,0,0-.677-2.282,14.459,14.459,0,0,0-5.84-2.038,14.728,14.728,0,0,0-13.968,6.253,13.568,13.568,0,0,0-2.538,7.217,26.947,26.947,0,0,0,.2,4.02,16.092,16.092,0,0,0,.593,2.314c-.123-.078-.293-.128-.361-.239-.521-.846-1.064-1.682-1.521-2.562a32.868,32.868,0,0,1-2.436-5.432c-.5-1.61-1.112-3.2-1.451-4.838a43.93,43.93,0,0,1-.873-6.184,36.437,36.437,0,0,1,.685-9.744c.253-.271.5-.55.761-.812.455-.454.92-.9,1.381-1.347l.261.165,0,0,.182.182,0,0,.182.183,0,0,.182.182,0,0,.182.182,0,0,.182.182,0,0,.182.182,0,0,.182.182,0,0,.182.182,0,0,.182.182,0,0,.182.182,0,0,.182.182,0,0,.182.182,0,0,.182.182,0,0,.182.182,0,0,.182.182,0,0,.182.182,0,0,.182.182,0,0,.182.182,0,0,.182.182,0,0a.911.911,0,0,0,.96.592l.307,0a5.753,5.753,0,0,0,2.438-1.126l.164-.037.207-.14.162-.034a3,3,0,0,0,.49-.113c.46-.189.911-.4,1.365-.6l.168-.024.385-.157.167-.024.384-.163.154-.041.2-.167h0Z" transform="translate(-49.825 -37.996)" fill="#ffd800"/>
      <path id="Trazado_634048" data-name="Trazado 634048" d="M851.2,597.939a1.6,1.6,0,0,0,2.482-.2c.742-.77,1.523-1.5,2.335-2.3.083.073.206.167.315.276q2.963,2.968,5.922,5.941a1.346,1.346,0,0,1,.133.185c-.137.163-.264.337-.414.487q-1.275,1.286-2.559,2.563a6.028,6.028,0,0,1-3.767,1.9,5.749,5.749,0,0,1-3.536-.7,18.507,18.507,0,0,1-3.493-3.2c.174-.187.339-.384.522-.561a1.476,1.476,0,0,0,.021-2.22c-.028-.025-.025-.084-.036-.126.089-.019.209-.007.261-.061.605-.626,1.2-1.261,1.8-1.9C851.2,598.009,851.193,597.969,851.2,597.939Z" transform="translate(-22.349 -7.284)" fill="#c5ced0"/>
      <path id="Trazado_634049" data-name="Trazado 634049" d="M1009.847,621.871a.257.257,0,0,1-.021.071c-.511.4-1.009.816-1.534,1.194a11.109,11.109,0,0,1-6.923,2.21,2.03,2.03,0,0,0-.239-.34c-.13-.124-.306-.2-.433-.329q-2.957-2.946-5.9-5.9a1.766,1.766,0,0,1-.233-.417c.792.77,1.591,1.532,2.373,2.311,1.309,1.3,2.607,2.621,3.909,3.933a1.525,1.525,0,0,0,1.632.386,1.391,1.391,0,0,0,.972-1.178,2.722,2.722,0,0,0-.294-1.043,1.7,1.7,0,0,0-.139-.264l1.5-1.39a2.967,2.967,0,0,0,.843.36,3.847,3.847,0,0,0,.994-.159l.188-.157.022-.015.168-.152.028-.029.156-.154.029-.029.155-.154.029-.03.155-.153.03-.031.154-.153.03-.031.154-.153.03-.031.154-.153.03-.031.154-.153a.035.035,0,0,1,.03-.031l.154-.153a.035.035,0,0,1,.03-.031l.154-.153a.035.035,0,0,1,.03-.031l.154-.153a.035.035,0,0,1,.03-.031l.154-.153a.036.036,0,0,1,.03-.031l.154-.152a.034.034,0,0,1,.03-.031l.154-.152a.035.035,0,0,1,.031-.031l.153-.153a.035.035,0,0,1,.031-.031l.153-.153a.035.035,0,0,1,.031-.031l.153-.153a.035.035,0,0,1,.031-.031l.153-.153.027-.03.291.521q0,1.106,0,2.211l-.151.745-.038.343Z" transform="translate(-112.351 -21.095)" fill="#c0c9cb"/>
      <path id="Trazado_634050" data-name="Trazado 634050" d="M870.073,676.838c-.243.454-.543.908-.323,1.45a2.487,2.487,0,0,0,.484.8c1.216,1.246,2.451,2.472,3.688,3.7a.552.552,0,0,1,.129.752c-.421.887-.763,1.81-1.155,2.711-.043.1-.254.228-.308.2-.39-.214-.759-.465-1.135-.7.323.158.649.31.967.476.219.114.318.113.422-.17.3-.819.639-1.626,1-2.42a.643.643,0,0,0-.136-.849q-1.867-1.832-3.7-3.7a1.535,1.535,0,0,1-.089-2.173C869.95,676.868,870.019,676.86,870.073,676.838Z" transform="translate(-35.231 -57.48)" fill="#7f8485"/>
      <path id="Trazado_634051" data-name="Trazado 634051" d="M838.955,607.226q-1.127,1.155-2.255,2.309c-.437.445-.875.888-1.322,1.323a2.162,2.162,0,0,1-.365.237c.321-.352.63-.715.964-1.053q1.262-1.276,2.544-2.53A2.6,2.6,0,0,1,838.955,607.226Z" transform="translate(-13.961 -14.552)" fill="#7f8485"/>
      <path id="Trazado_634052" data-name="Trazado 634052" d="M867.661,646.259q.6-.645,1.2-1.289c.3-.321.6-.639.956-1.016l.371.465c-.266-.178-.461-.131-.685.117-.458.506-.956.976-1.446,1.452A2.748,2.748,0,0,1,867.661,646.259Z" transform="translate(-34.093 -37.201)" fill="#7f8485"/>
      <path id="Trazado_634053" data-name="Trazado 634053" d="M965.289,611.614c.007-.593.009-1.186.029-1.779,0-.086.092-.169.141-.253-.01.572-.012,1.144-.035,1.715A1,1,0,0,1,965.289,611.614Z" transform="translate(-94.299 -16.005)" fill="#7f8485"/>
      <path id="Trazado_634054" data-name="Trazado 634054" d="M965.784,602.984c.009-.59.012-1.181.033-1.771,0-.089.087-.176.134-.263-.006.577,0,1.155-.023,1.732C965.925,602.783,965.834,602.883,965.784,602.984Z" transform="translate(-94.604 -10.682)" fill="#7f8485"/>
      <path id="Trazado_634055" data-name="Trazado 634055" d="M863.71,650.167l1.506-.191A1.079,1.079,0,0,1,863.71,650.167Z" transform="translate(-31.657 -40.915)" fill="#7f8485"/>
      <path id="Trazado_634056" data-name="Trazado 634056" d="M859.258,647.187c.139-.311.278-.314.416,0Z" transform="translate(-28.911 -39.05)" fill="#7f8485"/>
      <path id="Trazado_634057" data-name="Trazado 634057" d="M887.719,658.62l.211.239Z" transform="translate(-46.463 -46.245)" fill="#7f8485"/>
      <path id="Trazado_634058" data-name="Trazado 634058" d="M862.777,649.951l.273.183Z" transform="translate(-31.082 -40.9)" fill="#7f8485"/>
      <path id="Trazado_634059" data-name="Trazado 634059" d="M834.713,617.336l-.178.268Z" transform="translate(-13.665 -20.787)" fill="#7f8485"/>
      <path id="Trazado_634060" data-name="Trazado 634060" d="M874.114,699.79l-.291-.161Z" transform="translate(-37.893 -71.535)" fill="#7f8485"/>
      <path id="Trazado_634061" data-name="Trazado 634061" d="M884.107,663.364l-.183.183Z" transform="translate(-44.123 -49.171)" fill="#7f8485"/>
      <path id="Trazado_634062" data-name="Trazado 634062" d="M883.627,663.844l-.182.183Z" transform="translate(-43.827 -49.467)" fill="#7f8485"/>
      <path id="Trazado_634063" data-name="Trazado 634063" d="M884.587,662.884l-.182.183Z" transform="translate(-44.419 -48.875)" fill="#7f8485"/>
      <path id="Trazado_634064" data-name="Trazado 634064" d="M883.148,664.324l-.182.183Z" transform="translate(-43.531 -49.763)" fill="#7f8485"/>
      <path id="Trazado_634065" data-name="Trazado 634065" d="M882.667,664.805l-.183.183Z" transform="translate(-43.234 -50.06)" fill="#7f8485"/>
      <path id="Trazado_634066" data-name="Trazado 634066" d="M882.188,665.284l-.182.183Z" transform="translate(-42.939 -50.355)" fill="#7f8485"/>
      <path id="Trazado_634067" data-name="Trazado 634067" d="M881.707,665.764l-.182.183Z" transform="translate(-42.643 -50.651)" fill="#7f8485"/>
      <path id="Trazado_634068" data-name="Trazado 634068" d="M881.227,666.245l-.183.183Z" transform="translate(-42.346 -50.948)" fill="#7f8485"/>
      <path id="Trazado_634069" data-name="Trazado 634069" d="M885.067,662.4l-.183.183Z" transform="translate(-44.714 -48.579)" fill="#7f8485"/>
      <path id="Trazado_634070" data-name="Trazado 634070" d="M880.267,667.2l-.183.183Z" transform="translate(-41.754 -51.539)" fill="#7f8485"/>
      <path id="Trazado_634071" data-name="Trazado 634071" d="M879.8,667.684l-.172.192Z" transform="translate(-41.476 -51.835)" fill="#7f8485"/>
      <path id="Trazado_634072" data-name="Trazado 634072" d="M879.333,668.192l-.181.181Z" transform="translate(-41.18 -52.148)" fill="#7f8485"/>
      <path id="Trazado_634073" data-name="Trazado 634073" d="M878.854,668.673l-.181.181Z" transform="translate(-40.884 -52.445)" fill="#7f8485"/>
      <path id="Trazado_634074" data-name="Trazado 634074" d="M878.375,669.154l-.181.181Z" transform="translate(-40.589 -52.742)" fill="#7f8485"/>
      <path id="Trazado_634075" data-name="Trazado 634075" d="M877.895,669.634l-.181.181Z" transform="translate(-40.293 -53.038)" fill="#7f8485"/>
      <path id="Trazado_634076" data-name="Trazado 634076" d="M877.415,670.114l-.181.181Z" transform="translate(-39.997 -53.334)" fill="#7f8485"/>
      <path id="Trazado_634077" data-name="Trazado 634077" d="M876.934,670.594l-.181.181Z" transform="translate(-39.7 -53.63)" fill="#7f8485"/>
      <path id="Trazado_634078" data-name="Trazado 634078" d="M876.454,671.074l-.181.181Z" transform="translate(-39.404 -53.926)" fill="#7f8485"/>
      <path id="Trazado_634079" data-name="Trazado 634079" d="M875.974,671.553l-.181.181Z" transform="translate(-39.108 -54.221)" fill="#7f8485"/>
      <path id="Trazado_634080" data-name="Trazado 634080" d="M875.495,672.033l-.181.181Z" transform="translate(-38.813 -54.517)" fill="#7f8485"/>
      <path id="Trazado_634081" data-name="Trazado 634081" d="M875.015,672.514l-.181.181Z" transform="translate(-38.517 -54.814)" fill="#7f8485"/>
      <path id="Trazado_634082" data-name="Trazado 634082" d="M874.536,672.994l-.181.181Z" transform="translate(-38.221 -55.11)" fill="#7f8485"/>
      <path id="Trazado_634083" data-name="Trazado 634083" d="M874.056,673.475l-.181.181Z" transform="translate(-37.925 -55.406)" fill="#7f8485"/>
      <path id="Trazado_634084" data-name="Trazado 634084" d="M873.576,673.955l-.181.181Z" transform="translate(-37.629 -55.702)" fill="#7f8485"/>
      <path id="Trazado_634085" data-name="Trazado 634085" d="M873.1,674.435l-.181.181Z" transform="translate(-37.333 -55.998)" fill="#7f8485"/>
      <path id="Trazado_634086" data-name="Trazado 634086" d="M872.616,674.915l-.181.181Z" transform="translate(-37.037 -56.294)" fill="#7f8485"/>
      <path id="Trazado_634087" data-name="Trazado 634087" d="M872.135,675.4l-.181.181Z" transform="translate(-36.741 -56.59)" fill="#7f8485"/>
      <path id="Trazado_634088" data-name="Trazado 634088" d="M871.655,675.874l-.181.181Z" transform="translate(-36.445 -56.886)" fill="#7f8485"/>
      <path id="Trazado_634089" data-name="Trazado 634089" d="M871.176,676.354l-.179.182Z" transform="translate(-36.151 -57.182)" fill="#7f8485"/>
      <path id="Trazado_634090" data-name="Trazado 634090" d="M885.547,661.924l-.183.183Z" transform="translate(-45.01 -48.283)" fill="#7f8485"/>
      <path id="Trazado_634091" data-name="Trazado 634091" d="M886.027,661.444l-.183.183Z" transform="translate(-45.306 -47.987)" fill="#7f8485"/>
      <path id="Trazado_634092" data-name="Trazado 634092" d="M886.507,660.964l-.183.183Z" transform="translate(-45.602 -47.691)" fill="#7f8485"/>
      <path id="Trazado_634093" data-name="Trazado 634093" d="M886.987,660.483l-.182.183Z" transform="translate(-45.899 -47.394)" fill="#7f8485"/>
      <path id="Trazado_634094" data-name="Trazado 634094" d="M887.466,660l-.182.183Z" transform="translate(-46.195 -47.098)" fill="#7f8485"/>
      <path id="Trazado_634095" data-name="Trazado 634095" d="M887.939,659.507l-.176.189Z" transform="translate(-46.49 -46.792)" fill="#7f8485"/>
      <path id="Trazado_634096" data-name="Trazado 634096" d="M887.239,658.142l.175.178Z" transform="translate(-46.167 -45.951)" fill="#7f8485"/>
      <path id="Trazado_634097" data-name="Trazado 634097" d="M886.759,657.662l.175.179Z" transform="translate(-45.871 -45.655)" fill="#7f8485"/>
      <path id="Trazado_634098" data-name="Trazado 634098" d="M886.279,657.182l.175.179Z" transform="translate(-45.575 -45.359)" fill="#7f8485"/>
      <path id="Trazado_634099" data-name="Trazado 634099" d="M885.8,656.7l.175.179Z" transform="translate(-45.279 -45.063)" fill="#7f8485"/>
      <path id="Trazado_634100" data-name="Trazado 634100" d="M885.319,656.222l.175.179Z" transform="translate(-44.983 -44.767)" fill="#7f8485"/>
      <path id="Trazado_634101" data-name="Trazado 634101" d="M884.839,655.742l.175.179Z" transform="translate(-44.687 -44.471)" fill="#7f8485"/>
      <path id="Trazado_634102" data-name="Trazado 634102" d="M884.359,655.262l.175.179Z" transform="translate(-44.391 -44.175)" fill="#7f8485"/>
      <path id="Trazado_634103" data-name="Trazado 634103" d="M883.879,654.782l.175.179Z" transform="translate(-44.095 -43.879)" fill="#7f8485"/>
      <path id="Trazado_634104" data-name="Trazado 634104" d="M883.4,654.3l.175.179Z" transform="translate(-43.799 -43.583)" fill="#7f8485"/>
      <path id="Trazado_634105" data-name="Trazado 634105" d="M882.919,653.822l.175.179Z" transform="translate(-43.503 -43.287)" fill="#7f8485"/>
      <path id="Trazado_634106" data-name="Trazado 634106" d="M882.44,653.338l.174.18Z" transform="translate(-43.207 -42.988)" fill="#7f8485"/>
      <path id="Trazado_634107" data-name="Trazado 634107" d="M881.959,652.86l.176.179Z" transform="translate(-42.911 -42.693)" fill="#7f8485"/>
      <path id="Trazado_634108" data-name="Trazado 634108" d="M881.48,652.378l.175.18Z" transform="translate(-42.615 -42.396)" fill="#7f8485"/>
      <path id="Trazado_634109" data-name="Trazado 634109" d="M880.747,666.724l-.182.183Z" transform="translate(-42.051 -51.243)" fill="#7f8485"/>
      <path id="Trazado_634110" data-name="Trazado 634110" d="M881,651.9l.176.179Z" transform="translate(-42.319 -42.101)" fill="#7f8485"/>
      <path id="Trazado_634111" data-name="Trazado 634111" d="M880.519,651.422l.175.178Z" transform="translate(-42.023 -41.807)" fill="#7f8485"/>
      <path id="Trazado_634112" data-name="Trazado 634112" d="M854.907,651.587l.189-.172Z" transform="translate(-26.228 -41.802)" fill="#7f8485"/>
      <path id="Trazado_634113" data-name="Trazado 634113" d="M880.039,650.942l.175.179Z" transform="translate(-41.727 -41.511)" fill="#7f8485"/>
      <path id="Trazado_634114" data-name="Trazado 634114" d="M855.418,651.114l.177-.179Z" transform="translate(-26.543 -41.506)" fill="#7f8485"/>
      <path id="Trazado_634115" data-name="Trazado 634115" d="M879.559,650.462l.175.179Z" transform="translate(-41.431 -41.215)" fill="#7f8485"/>
      <path id="Trazado_634116" data-name="Trazado 634116" d="M855.9,650.634l.177-.179Z" transform="translate(-26.839 -41.21)" fill="#7f8485"/>
      <path id="Trazado_634117" data-name="Trazado 634117" d="M879.079,649.982l.175.179Z" transform="translate(-41.135 -40.919)" fill="#7f8485"/>
      <path id="Trazado_634118" data-name="Trazado 634118" d="M856.378,650.154l.177-.179Z" transform="translate(-27.135 -40.914)" fill="#7f8485"/>
      <path id="Trazado_634119" data-name="Trazado 634119" d="M878.6,649.5l.175.179Z" transform="translate(-40.839 -40.623)" fill="#7f8485"/>
      <path id="Trazado_634120" data-name="Trazado 634120" d="M862.285,649.49l.185.175Z" transform="translate(-30.778 -40.615)" fill="#7f8485"/>
      <path id="Trazado_634121" data-name="Trazado 634121" d="M856.858,649.674l.177-.179Z" transform="translate(-27.431 -40.618)" fill="#7f8485"/>
      <path id="Trazado_634122" data-name="Trazado 634122" d="M878.119,649.022l.175.179Z" transform="translate(-40.543 -40.327)" fill="#7f8485"/>
      <path id="Trazado_634123" data-name="Trazado 634123" d="M861.8,649.012l.178.179Z" transform="translate(-30.482 -40.32)" fill="#7f8485"/>
      <path id="Trazado_634124" data-name="Trazado 634124" d="M857.338,649.194l.177-.179Z" transform="translate(-27.727 -40.322)" fill="#7f8485"/>
      <path id="Trazado_634125" data-name="Trazado 634125" d="M877.639,648.542l.175.179Z" transform="translate(-40.247 -40.031)" fill="#7f8485"/>
      <path id="Trazado_634126" data-name="Trazado 634126" d="M861.324,648.532l.177.18Z" transform="translate(-30.185 -40.024)" fill="#7f8485"/>
      <path id="Trazado_634127" data-name="Trazado 634127" d="M857.818,648.714l.177-.179Z" transform="translate(-28.023 -40.026)" fill="#7f8485"/>
      <path id="Trazado_634128" data-name="Trazado 634128" d="M877.159,648.062l.175.179Z" transform="translate(-39.951 -39.735)" fill="#7f8485"/>
      <path id="Trazado_634129" data-name="Trazado 634129" d="M860.844,648.052l.177.18Z" transform="translate(-29.889 -39.728)" fill="#7f8485"/>
      <path id="Trazado_634130" data-name="Trazado 634130" d="M858.3,648.234l.177-.179Z" transform="translate(-28.319 -39.73)" fill="#7f8485"/>
      <path id="Trazado_634131" data-name="Trazado 634131" d="M876.679,647.582l.175.179Z" transform="translate(-39.655 -39.439)" fill="#7f8485"/>
      <path id="Trazado_634132" data-name="Trazado 634132" d="M860.363,647.574l.177.179Z" transform="translate(-29.593 -39.434)" fill="#7f8485"/>
      <path id="Trazado_634133" data-name="Trazado 634133" d="M858.778,647.754l.177-.179Z" transform="translate(-28.616 -39.434)" fill="#7f8485"/>
      <path id="Trazado_634134" data-name="Trazado 634134" d="M876.2,647.1l.175.179Z" transform="translate(-39.359 -39.143)" fill="#7f8485"/>
      <path id="Trazado_634135" data-name="Trazado 634135" d="M875.719,646.622l.175.179Z" transform="translate(-39.063 -38.847)" fill="#7f8485"/>
      <path id="Trazado_634136" data-name="Trazado 634136" d="M875.239,646.142l.175.179Z" transform="translate(-38.767 -38.551)" fill="#7f8485"/>
      <path id="Trazado_634137" data-name="Trazado 634137" d="M874.76,645.658l.174.18Z" transform="translate(-38.471 -38.252)" fill="#7f8485"/>
      <path id="Trazado_634138" data-name="Trazado 634138" d="M874.279,645.18l.176.179Z" transform="translate(-38.175 -37.957)" fill="#7f8485"/>
      <path id="Trazado_634139" data-name="Trazado 634139" d="M877.369,663.779a36.437,36.437,0,0,0-.685,9.744,43.934,43.934,0,0,0,.873,6.184c.34,1.642.955,3.228,1.451,4.838a32.883,32.883,0,0,0,2.436,5.432c.458.88,1,1.716,1.521,2.562.069.112.238.161.361.239.092.184.2.363.275.552a14.353,14.353,0,0,0,5.8,6.829c.47.3.951.577,1.427.865a1.283,1.283,0,0,0,.241.361c.829.605,1.638,1.248,2.513,1.779,1.633.99,3.281,1.96,4.971,2.846a29.207,29.207,0,0,0,3.419,1.456,26.663,26.663,0,0,0,2.673.775c1.052.269,2.114.5,3.174.742.588.133,1.181.243,1.771.363-1.155.544-2.3,1.112-3.469,1.623-.58.254-1.216.378-1.808.608a1.473,1.473,0,0,0-1.157,1.672c-.035,1.608-.009,3.218-.009,4.827v.435H891.364v-.535q0-2.276,0-4.552c0-1.124-.208-1.395-1.246-1.823q-2.476-1.019-4.929-2.092a1.484,1.484,0,0,0-1.773.246c-.937.9-1.841,1.842-2.764,2.762-.369.368-.749.725-1.15,1.112-2.7-2.71-5.337-5.359-7.971-8.012-.134-.135-.387-.272-.127-.517l.178-.181.006,0,.178-.181.006,0,.178-.181.006,0,.178-.181.006,0,.178-.181.006,0L872.5,704l.006,0,.178-.181.006,0,.178-.181.006,0,.178-.181.006,0,.179-.181.005,0,.179-.181.006,0,.177-.182.006,0,.179-.181,0,0,.179-.181.006,0,.178-.182,0,0,.179-.181.006,0,.178-.182,0,0,.179-.181.006,0,.178-.182.005,0,.176-.182.006,0a.8.8,0,0,0,.413-.838q0-.119.005-.238a3.044,3.044,0,0,0-.158-.725c-.28-.573-.6-1.124-.911-1.683l-.04-.166a4.362,4.362,0,0,0-.155-.5c-.174-.4-.365-.785-.549-1.177-.011-.055-.022-.111-.033-.166l-.154-.386-.025-.167-.337-.936-.039-.163-.316-.383-.007,0-.259-.2a.213.213,0,0,0-.075-.02l-.391-.162-5.674-.021c-.01-.2-.029-.4-.029-.595q0-5.262,0-10.523c0-.183-.021-.365-.031-.548l.116-.116,5.351,0,.339-.032.214-.106.262-.12.089-.078.106-.087.088-.09.082-.114.067-.086.119-.275.307-.841a21.463,21.463,0,0,1,1.636-3.919c.292-.564.648-1.147.247-1.8a4.374,4.374,0,0,0-.633-.77q-1.56-1.577-3.142-3.132c-.277-.27-.291-.43.005-.723,1.875-1.851,3.726-3.728,5.586-5.6A1.827,1.827,0,0,1,877.369,663.779Z" transform="translate(-33.265 -49.427)" fill="#ffac00"/>
      <path id="Trazado_634140" data-name="Trazado 634140" d="M993.377,622.915a11.109,11.109,0,0,0,6.923-2.21c.525-.379,1.023-.8,1.534-1.194a14.662,14.662,0,0,1-.61,1.92,10.015,10.015,0,0,1-5.325,5.1,11.961,11.961,0,0,1-2.441.63,8.369,8.369,0,0,1-1.951.16,10.87,10.87,0,0,1-3.183-.649,9.987,9.987,0,0,1-3.633-2.3,9.814,9.814,0,0,1-2.389-3.687,10.034,10.034,0,0,1-.68-4.135c.057-.842.237-1.676.371-2.511.009-.056.1-.1.151-.146a3.294,3.294,0,0,0,.508,2.06,21.531,21.531,0,0,0,1.757,2.808,10.672,10.672,0,0,0,2.271,2.077,17.692,17.692,0,0,0,2.81,1.4,4.841,4.841,0,0,0,2.217.5,1.184,1.184,0,0,0,.365.164c.31.024.624.008.937.009Z" transform="translate(-104.359 -18.663)" fill="#828888"/>
      <path id="Trazado_634141" data-name="Trazado 634141" d="M922.771,609.927c-.843,0-1.687.047-2.528,0a1.546,1.546,0,0,0-1.552,1.542c.056,1.039.014,2.084.012,3.126,0,.148-.013.3-.027.563l-.563-.56-2.489-2.47a.415.415,0,0,1-.086-.615c1.365-2.306,2.7-4.631,4.033-6.954q2.3-3.991,4.58-7.988c.71-1.237,1.429-2.469,2.166-3.741.907.518,1.805,1.03,2.7,1.547a4.291,4.291,0,0,1,.379.275c-.279.464-.563.925-.834,1.394-1.308,2.256-2.638,4.5-3.909,6.776-.776,1.389-1.748,2.687-1.958,4.353A6.414,6.414,0,0,0,922.771,609.927Z" transform="translate(-63.557 -5.675)" fill="#828888"/>
      <path id="Trazado_634142" data-name="Trazado 634142" d="M994.218,611.524h-.368a1.074,1.074,0,0,0-.353-.171c-.314-.023-.632,0-.948,0a4.842,4.842,0,0,1-2.217-.5,17.7,17.7,0,0,1-2.81-1.4,10.675,10.675,0,0,1-2.271-2.077,21.544,21.544,0,0,1-1.757-2.808,3.293,3.293,0,0,1-.508-2.06,23.149,23.149,0,0,1,1.168-2.5,9.247,9.247,0,0,1,3.437-3.263,8.873,8.873,0,0,1,4.1-1.3c.845-.022,1.692-.006,2.537,0a.52.52,0,0,1,.215.089l-4.431,4.506c-.7.707-1.363,1.444-2.095,2.111a2.025,2.025,0,0,0-.787,1.845l.084.183.024.15.173.217h0a1.773,1.773,0,0,0,.233.417q2.943,2.959,5.9,5.9c.127.127.3.2.433.329A2.035,2.035,0,0,1,994.218,611.524Z" transform="translate(-105.201 -7.273)" fill="#c5ced0"/>
      <path id="Trazado_634143" data-name="Trazado 634143" d="M843.94,753.537c.113.326.2.664.342.976a4.265,4.265,0,0,0,3.59,2.691,4.393,4.393,0,0,0,4.918-4.742,4.329,4.329,0,0,0-1.613-3.024l-.415-.34h4.511c.373.9.747,1.833,1.141,2.754s.4.9-.322,1.621q-1.622,1.621-3.241,3.246a1.451,1.451,0,0,0-.379,1.934.376.376,0,0,1-.1.347c-1.856,1.082-3.714,2.16-5.587,3.211a1.41,1.41,0,0,1-1.843-.637q-1.341-2.289-2.654-4.594c-.309-.54-.6-1.092-.895-1.639.585-.335,1.187-.643,1.746-1.017A5.772,5.772,0,0,0,843.94,753.537Z" transform="translate(-17.895 -102.042)" fill="#dd811e"/>
      <path id="Trazado_634144" data-name="Trazado 634144" d="M845.723,613.19a18.507,18.507,0,0,0,3.493,3.2,5.749,5.749,0,0,0,3.536.7,6.028,6.028,0,0,0,3.767-1.9q1.283-1.278,2.559-2.563c.149-.151.276-.324.414-.487q.87.846,1.739,1.693c.237.231.04.37-.113.523q-1.876,1.879-3.75,3.761c-1.64,1.641-3.288,3.274-4.918,4.925-.28.284-.431.284-.719-.007q-3.774-3.817-7.588-7.595c-.3-.3-.285-.465,0-.728C844.682,614.219,845.2,613.7,845.723,613.19Z" transform="translate(-19.456 -17.583)" fill="#828888"/>
      <path id="Trazado_634145" data-name="Trazado 634145" d="M834.281,707.437a.143.143,0,0,0-.071-.034l-.69-.384a.424.424,0,0,0-.081-.034L833,706.7a.156.156,0,0,0-.072-.035l-.326-.187-.317-.18-.326-.19-.316-.183-.328-.186-.087-.034-.442-.286a.139.139,0,0,0-.07-.035l-.688-.386a.4.4,0,0,0-.082-.035l-.444-.286a.146.146,0,0,0-.071-.036l-.326-.186-.444-.23-.2-.138-.317-.186-.327-.186-.088-.034-.456-.259-5.229-3.034c-.131-.076-.257-.159-.436-.271.459-.8.909-1.6,1.368-2.386.125-.215.278-.414.418-.62.046.075.074.179.14.22.59.369,1.18.738,1.784,1.081a5.388,5.388,0,0,0,.754.3l.311.637.165.18,0,.008a1.143,1.143,0,0,0,1.551.362l.171-.041.193-.136.369-.378.1.01a12.207,12.207,0,0,0,1.691-.075,17.726,17.726,0,0,0,1.866-.532l-.026.254a.408.408,0,0,0-.034.085l-.286.443a.139.139,0,0,0-.035.07l-.384.689a.409.409,0,0,0-.034.082l-.322.565-.033.172a.452.452,0,0,0,0,.729l.029.173.182.329.346.323.187.136.169.043a1.112,1.112,0,0,0,1.542-.365l.009-.01.53-.821a.4.4,0,0,0,.034-.082l.287-.443a.145.145,0,0,0,.035-.072l.555-.97.185-.316.185-.327.034-.089.336-.555.315-.368.286.161.086.034.443.285a.139.139,0,0,0,.07.035l.406.342-.541.036-.774.381-.1.1-.383.774q-.012,3.259-.023,6.518,0,.528,0,1.056l-.959-.38a.392.392,0,0,0-.085-.033Z" transform="translate(-5.692 -69.982)" fill="#3da7e0"/>
      <path id="Trazado_634146" data-name="Trazado 634146" d="M886.729,631.776c.586.56,1.183,1.109,1.757,1.681,2.055,2.047,4.1,4.1,6.222,6.223-.209.1-.382.192-.558.275-.446.212-.883.449-1.345.616-.125.045-.368-.082-.488-.2-1.238-1.218-2.485-2.429-3.684-3.686a1.542,1.542,0,0,0-2.428.023c-.424.457-.89.875-1.34,1.308-.019.018-.056.019-.142.045l-4.644-4.678c-.268-.27-.521-.557-.8-.81-.222-.2-.182-.35,0-.532q1.8-1.793,3.6-3.593c.2-.206.367-.245.566-.006.145.173.31.328.466.491a11.217,11.217,0,0,0-1.1,1.138,1.768,1.768,0,0,0-.275,1.606,2.056,2.056,0,0,0,3.243,1C886.11,632.4,886.412,632.079,886.729,631.776Z" transform="translate(-41.162 -27.535)" fill="#2b7ec1"/>
      <path id="Trazado_634147" data-name="Trazado 634147" d="M934.267,612.859a6.415,6.415,0,0,1-.075-2.75c.21-1.666,1.182-2.964,1.958-4.353,1.272-2.276,2.6-4.52,3.909-6.776.272-.468.556-.93.835-1.394q.925.5,1.849,1c.179.1.352.2.528.306-.01.438-.025.877-.026,1.316,0,.262.024.524.037.786q-.023.5-.046.991a4.535,4.535,0,0,0-.14.482c-.071.394-.127.79-.189,1.185-.988.259-1.986.485-2.961.787a1.529,1.529,0,0,0-.831,1.927c.129.388.2.794.311,1.188s.228.783.354,1.213c-.757.207-1.485.435-2.227.6-1.053.236-1.64.958-1.432,1.847a7.847,7.847,0,0,0,.627,1.406l.109.235Z" transform="translate(-75.053 -8.607)" fill="#c5ced0"/>
      <path id="Trazado_634148" data-name="Trazado 634148" d="M839.787,747.266a5.768,5.768,0,0,1-.8.788c-.558.374-1.161.682-1.746,1.017-.486-.8-.975-1.609-1.459-2.416-.313-.522-.619-1.048-.928-1.572a1.358,1.358,0,0,1,.558-1.906c.832-.508,1.684-.983,2.525-1.476,1.2-.705,2.4-1.422,3.608-2.117.426-.245.881-.438,1.323-.655.052.327.131.652.152.981a4.918,4.918,0,0,1-.247,2.483l-.256.06-.2.127a4.689,4.689,0,0,0-2.228,2.346,4.185,4.185,0,0,0-.184.642l-.127.409Z" transform="translate(-13.742 -95.771)" fill="#feaa00"/>
      <path id="Trazado_634149" data-name="Trazado 634149" d="M823.455,637.731c.383-.392.768-.78,1.148-1.176.163-.17.316-.214.5-.03q3.6,3.611,7.2,7.221c.01.01.01.029.014.043a2.235,2.235,0,0,1-.509.182,4.227,4.227,0,0,1-3.441-.975c-1.654-1.534-3.235-3.146-4.83-4.742C823.434,638.154,823.478,637.908,823.455,637.731Z" transform="translate(-6.833 -32.546)" fill="#c0c9cb"/>
      <path id="Trazado_634150" data-name="Trazado 634150" d="M972,643.607a.781.781,0,0,1,.1-.191q1.19-1.2,2.387-2.391c.186-.186.274-.261.5.057a12.421,12.421,0,0,0,3.1,3.221c.552.38.575.463.109.916s-.938.885-1.408,1.326c-.162-.075-.327-.145-.486-.227-1-.518-2.016-1-2.98-1.574A9.645,9.645,0,0,1,972,643.607Z" transform="translate(-98.437 -35.296)" fill="#525863"/>
      <path id="Trazado_634151" data-name="Trazado 634151" d="M844.62,635.18c-.643.634-1.221,1.223-1.829,1.779a.493.493,0,0,1-.481,0q-1.854-1.808-3.665-3.66a.381.381,0,0,1-.031-.368c.534-.566,1.084-1.119,1.652-1.651a.435.435,0,0,1,.425.01C841.993,632.556,843.277,633.842,844.62,635.18Z" transform="translate(-16.16 -29.352)" fill="#515862"/>
      <path id="Trazado_634152" data-name="Trazado 634152" d="M982.567,783.118c1.761.061,3.522.152,5.284.169.936.009,1.873-.109,2.81-.169-.582.608-1.159,1.222-1.749,1.823q-1.024,1.041-2.074,2.056c-.08.077-.323.12-.378.065C985.153,785.757,983.861,784.436,982.567,783.118Z" transform="translate(-104.954 -123.021)" fill="#feaa00"/>
      <path id="Trazado_634153" data-name="Trazado 634153" d="M828.944,691.342a5.38,5.38,0,0,1-.754-.3c-.6-.343-1.194-.713-1.784-1.081-.066-.041-.094-.145-.14-.22.4-.734.8-1.47,1.206-2.2.347-.627.7-1.249,1.055-1.874l.155-.21a.141.141,0,0,0,.02-.074l.251-.219a.239.239,0,0,1,.084.022l.387.248.134.07.332.185.089.034.555.335.312.185.331.187a.254.254,0,0,0,.082.034l-.331,1.028-.185.312-.186.331-.033.087-.287.445a.1.1,0,0,0-.033.064l-.387.691a.277.277,0,0,0-.032.083l-.163.189Z" transform="translate(-8.566 -62.616)" fill="#6dc4ec"/>
      <path id="Trazado_634154" data-name="Trazado 634154" d="M970.781,648.018a9.644,9.644,0,0,0,1.32,1.137c.964.575,1.983,1.056,2.98,1.574.158.082.323.151.486.227-.563.585-1.12,1.174-1.694,1.747a.368.368,0,0,1-.323.026c-1.156-.486-2.306-.986-3.5-1.5a18.846,18.846,0,0,1,.034-2.372C970.117,648.553,970.536,648.3,970.781,648.018Z" transform="translate(-97.218 -39.708)" fill="#7f8485"/>
      <path id="Trazado_634155" data-name="Trazado 634155" d="M822.591,639.862c.023.178-.021.423.079.523,1.6,1.6,3.176,3.209,4.83,4.742a4.227,4.227,0,0,0,3.441.975,2.23,2.23,0,0,0,.509-.182l.955.872c-.657.629-1.268,1.238-1.915,1.807-.085.075-.412.007-.525-.1-.817-.78-1.606-1.589-2.407-2.386q-2.564-2.549-5.13-5.1C821.893,640.483,821.918,640.328,822.591,639.862Z" transform="translate(-5.968 -34.678)" fill="#7f8485"/>
      <path id="Trazado_634156" data-name="Trazado 634156" d="M881.1,592.6a6.984,6.984,0,0,1,3.2-1.007c.779-.027,1.561-.007,2.341,0a.778.778,0,0,1,.247.093,20.3,20.3,0,0,1-1.655,2.078,2.393,2.393,0,0,1-2.478.557,4.106,4.106,0,0,1-1.585-1.166C880.979,592.976,880.9,592.813,881.1,592.6Z" transform="translate(-42.308 -4.902)" fill="#c5ced0"/>
      <path id="Trazado_634157" data-name="Trazado 634157" d="M892.076,632.83c-.317.3-.619.626-.956.906a2.056,2.056,0,0,1-3.243-1,1.768,1.768,0,0,1,.275-1.606,11.2,11.2,0,0,1,1.1-1.138Z" transform="translate(-46.51 -28.59)" fill="#3ca7e1"/>
      <path id="Trazado_634158" data-name="Trazado 634158" d="M844.277,696.238a17.727,17.727,0,0,1-1.866.532,12.206,12.206,0,0,1-1.691.075l.2-.448a.107.107,0,0,0,.033-.065l.385-.693a.289.289,0,0,0,.033-.078l.139-.2.185-.313.186-.33.177-.314.191-.33.184-.312.186-.331a.3.3,0,0,0,.033-.086l.136-.194.036-.1h.3l.131.079.331.187a.283.283,0,0,0,.085.033l.446.286.425.233.332.186a.3.3,0,0,0,.082.033l.391.272-.169.517-.187.33-.032.088-.339.463-.151.329a.1.1,0,0,0-.077.021l-.091.11Z" transform="translate(-17.479 -67.477)" fill="#6dc4ec"/>
      <path id="Trazado_634159" data-name="Trazado 634159" d="M880.249,592.771c-.2.215-.118.378.072.555a4.105,4.105,0,0,0,1.585,1.166,2.393,2.393,0,0,0,2.478-.557,20.3,20.3,0,0,0,1.655-2.078l1.123.237a12.854,12.854,0,0,0-4.282,4.708c-.6-.609-1.149-1.166-1.7-1.72-.417-.42-.839-.836-1.256-1.255C879.418,593.317,879.513,593.007,880.249,592.771Z" transform="translate(-41.461 -5.074)" fill="#7f8485"/>
      <path id="Trazado_634160" data-name="Trazado 634160" d="M856.145,757.479a1.384,1.384,0,0,1-.106-1.789,1.545,1.545,0,0,1,1.745-.512,1.7,1.7,0,0,1,.4.343A2.842,2.842,0,0,1,856.145,757.479Z" transform="translate(-26.754 -105.732)" fill="#eb8377"/>
      <path id="Trazado_634161" data-name="Trazado 634161" d="M855.827,741.353a4.919,4.919,0,0,0,.247-2.483c-.021-.329-.1-.654-.152-.981l.945-.647c0,.373-.011.623,0,.871.05.925.114,1.849.154,2.774a.353.353,0,0,1-.182.281C856.51,741.253,856.166,741.295,855.827,741.353Z" transform="translate(-26.796 -94.73)" fill="#dc811d"/>
      <path id="Trazado_634162" data-name="Trazado 634162" d="M856.764,758.183a2.842,2.842,0,0,0,2.038-1.958,1.123,1.123,0,0,1,.453,1.352,1.253,1.253,0,0,1-.929,1.023A1.381,1.381,0,0,1,856.764,758.183Z" transform="translate(-27.373 -106.437)" fill="#e04f41"/>
      <path id="Trazado_634163" data-name="Trazado 634163" d="M866.223,710.86c.011.182.031.365.031.548q0,5.261,0,10.523c0,.2.019.4.029.595a1.2,1.2,0,0,1-.116-.354q-.01-5.5,0-11A1.7,1.7,0,0,1,866.223,710.86Z" transform="translate(-33.171 -78.461)" fill="#7e5d2c"/>
      <path id="Trazado_634164" data-name="Trazado 634164" d="M916.283,666.324a5.751,5.751,0,0,1-2.438,1.126Z" transform="translate(-62.574 -50.996)" fill="#9f881c"/>
      <path id="Trazado_634165" data-name="Trazado 634165" d="M887.489,752.887c.307.559.631,1.11.911,1.683a3.047,3.047,0,0,1,.158.725Z" transform="translate(-46.321 -104.378)" fill="#7e5d2c"/>
      <path id="Trazado_634166" data-name="Trazado 634166" d="M871.971,710.46l-5.351,0a2.261,2.261,0,0,1,.355-.056q2.32-.006,4.64,0A2.341,2.341,0,0,1,871.971,710.46Z" transform="translate(-33.451 -78.179)" fill="#7e5d2c"/>
      <path id="Trazado_634167" data-name="Trazado 634167" d="M958.024,603.1c-.013-.262-.037-.524-.037-.786,0-.439.016-.877.026-1.316.061.03.175.064.174.089C958.14,601.758,958.081,602.429,958.024,603.1Z" transform="translate(-89.796 -10.711)" fill="#7f8485"/>
      <path id="Trazado_634168" data-name="Trazado 634168" d="M923.455,663.915c-.454.2-.906.409-1.365.6a2.988,2.988,0,0,1-.49.113c.391-.182.777-.379,1.177-.542A4.752,4.752,0,0,1,923.455,663.915Z" transform="translate(-67.356 -49.511)" fill="#9f881c"/>
      <path id="Trazado_634169" data-name="Trazado 634169" d="M885.549,748.089c.184.392.375.781.549,1.177a4.387,4.387,0,0,1,.155.5c-.193-.362-.4-.718-.572-1.091A2.8,2.8,0,0,1,885.549,748.089Z" transform="translate(-45.125 -101.419)" fill="#7e5d2c"/>
      <path id="Trazado_634170" data-name="Trazado 634170" d="M850.911,711.1a1.112,1.112,0,0,1-1.542.365A2.4,2.4,0,0,0,850.911,711.1Z" transform="translate(-22.813 -78.607)" fill="#515862"/>
      <path id="Trazado_634171" data-name="Trazado 634171" d="M836.057,703.793a1.143,1.143,0,0,1-1.551-.362A2.516,2.516,0,0,0,836.057,703.793Z" transform="translate(-13.647 -73.88)" fill="#525863"/>
      <path id="Trazado_634172" data-name="Trazado 634172" d="M957.1,610.733c.062-.4.117-.792.189-1.185a4.528,4.528,0,0,1,.14-.482,12.438,12.438,0,0,1-.02,1.255C957.4,610.468,957.212,610.6,957.1,610.733Z" transform="translate(-89.251 -15.687)" fill="#7f8485"/>
      <path id="Trazado_634173" data-name="Trazado 634173" d="M838.425,689.585l.331-1.028c.074.084.227.215.21.243C838.8,689.072,838.609,689.326,838.425,689.585Z" transform="translate(-16.064 -64.707)" fill="#525863"/>
      <path id="Trazado_634174" data-name="Trazado 634174" d="M911.5,668.3a.911.911,0,0,1-.96-.592Z" transform="translate(-60.535 -51.848)" fill="#9f881c"/>
      <path id="Trazado_634175" data-name="Trazado 634175" d="M856.046,724.889l.959.38-.127.193Z" transform="translate(-26.931 -87.112)" fill="#515862"/>
      <path id="Trazado_634176" data-name="Trazado 634176" d="M884.118,743.768l.337.937Z" transform="translate(-44.242 -98.755)" fill="#7e5d2c"/>
      <path id="Trazado_634177" data-name="Trazado 634177" d="M1034.832,618.07l-.291-.521c.062-.232.191-.233.262-.032A1.9,1.9,0,0,1,1034.832,618.07Z" transform="translate(-137.005 -20.808)" fill="#7f8485"/>
      <path id="Trazado_634178" data-name="Trazado 634178" d="M856.283,704.843l-.555.97Z" transform="translate(-26.735 -74.75)" fill="#515862"/>
      <path id="Trazado_634179" data-name="Trazado 634179" d="M846.688,708.258a.452.452,0,0,1,0-.729Z" transform="translate(-21.046 -76.407)" fill="#515862"/>
      <path id="Trazado_634180" data-name="Trazado 634180" d="M889.6,759.789a.8.8,0,0,1-.413.838Z" transform="translate(-47.367 -108.634)" fill="#7e5d2c"/>
      <path id="Trazado_634181" data-name="Trazado 634181" d="M853.946,708.929l-.53.821Z" transform="translate(-25.309 -77.27)" fill="#515862"/>
      <path id="Trazado_634182" data-name="Trazado 634182" d="M1034.908,625.71l.151-.745Z" transform="translate(-137.231 -25.491)" fill="#7f8485"/>
      <path id="Trazado_634183" data-name="Trazado 634183" d="M859.864,703.239l.774-.381Z" transform="translate(-29.285 -73.526)" fill="#515862"/>
      <path id="Trazado_634184" data-name="Trazado 634184" d="M858.614,704.878,859,704.1Z" transform="translate(-28.514 -74.295)" fill="#515862"/>
      <path id="Trazado_634185" data-name="Trazado 634185" d="M835.528,695.162l.387-.691Z" transform="translate(-14.278 -68.354)" fill="#525863"/>
      <path id="Trazado_634186" data-name="Trazado 634186" d="M852.69,722.96l.69.384Z" transform="translate(-24.861 -85.923)" fill="#515862"/>
      <path id="Trazado_634187" data-name="Trazado 634187" d="M841.7,699.807l-.385.693Z" transform="translate(-17.846 -71.645)" fill="#525863"/>
      <path id="Trazado_634188" data-name="Trazado 634188" d="M884.449,705.78l-.307.841Z" transform="translate(-44.257 -75.328)" fill="#7e5d2c"/>
      <path id="Trazado_634189" data-name="Trazado 634189" d="M843.569,717.683l.688.386Z" transform="translate(-19.236 -82.668)" fill="#515862"/>
      <path id="Trazado_634190" data-name="Trazado 634190" d="M848,704.283l.384-.689Z" transform="translate(-21.971 -73.98)" fill="#515862"/>
      <path id="Trazado_634191" data-name="Trazado 634191" d="M862.641,702.213l-.406-.342.522.186Z" transform="translate(-30.747 -72.917)" fill="#515862"/>
      <path id="Trazado_634192" data-name="Trazado 634192" d="M847.074,706.17l.322-.565Z" transform="translate(-21.398 -75.22)" fill="#515862"/>
      <path id="Trazado_634193" data-name="Trazado 634193" d="M858.566,701.486l-.336.555Z" transform="translate(-28.277 -72.68)" fill="#515862"/>
      <path id="Trazado_634194" data-name="Trazado 634194" d="M836.505,686.959l-.555-.335Z" transform="translate(-14.538 -63.515)" fill="#525863"/>
      <path id="Trazado_634195" data-name="Trazado 634195" d="M850.891,699.371l.339-.464Z" transform="translate(-23.752 -71.09)" fill="#525863"/>
      <path id="Trazado_634196" data-name="Trazado 634196" d="M885.063,746.648l.154.386Z" transform="translate(-44.825 -100.531)" fill="#7e5d2c"/>
      <path id="Trazado_634197" data-name="Trazado 634197" d="M883.19,742.345l.316.383Z" transform="translate(-43.67 -97.877)" fill="#7e5d2c"/>
      <path id="Trazado_634198" data-name="Trazado 634198" d="M928.7,662.954l-.384.163Z" transform="translate(-71.501 -48.918)" fill="#9f881c"/>
      <path id="Trazado_634199" data-name="Trazado 634199" d="M927.264,663.443l-.385.157Z" transform="translate(-70.612 -49.22)" fill="#9f881c"/>
      <path id="Trazado_634200" data-name="Trazado 634200" d="M845.546,718.782l.442.286Z" transform="translate(-20.456 -83.346)" fill="#515862"/>
      <path id="Trazado_634201" data-name="Trazado 634201" d="M849.1,702.7l.286-.443Z" transform="translate(-22.645 -73.155)" fill="#515862"/>
      <path id="Trazado_634202" data-name="Trazado 634202" d="M842.2,716.848l.444.286Z" transform="translate(-18.39 -82.154)" fill="#515862"/>
      <path id="Trazado_634203" data-name="Trazado 634203" d="M840.756,701.787l-.2.448-.1-.01Z" transform="translate(-17.32 -72.866)" fill="#525863"/>
      <path id="Trazado_634204" data-name="Trazado 634204" d="M861.341,701.321l-.443-.285Z" transform="translate(-29.923 -72.403)" fill="#515862"/>
      <path id="Trazado_634205" data-name="Trazado 634205" d="M849.956,701.125l.023-.02.091-.11a.1.1,0,0,1,.077-.021l-.217.406Z" transform="translate(-23.159 -72.363)" fill="#515862"/>
      <path id="Trazado_634206" data-name="Trazado 634206" d="M881.282,741.347l.391.162Z" transform="translate(-42.493 -97.262)" fill="#7e5d2c"/>
      <path id="Trazado_634207" data-name="Trazado 634207" d="M854.675,724.05l.44.289Z" transform="translate(-26.085 -86.595)" fill="#515862"/>
      <path id="Trazado_634208" data-name="Trazado 634208" d="M855.175,707.56l-.287.443Z" transform="translate(-26.217 -76.426)" fill="#515862"/>
      <path id="Trazado_634209" data-name="Trazado 634209" d="M836.385,713.574l.456.259Z" transform="translate(-14.806 -80.135)" fill="#515862"/>
      <path id="Trazado_634210" data-name="Trazado 634210" d="M836.624,693.588l.287-.445Z" transform="translate(-14.954 -67.535)" fill="#525863"/>
      <path id="Trazado_634211" data-name="Trazado 634211" d="M852.161,696.029l-.391-.272Z" transform="translate(-24.294 -69.147)" fill="#525863"/>
      <path id="Trazado_634212" data-name="Trazado 634212" d="M848.864,694.117l-.446-.286Z" transform="translate(-22.227 -67.959)" fill="#525863"/>
      <path id="Trazado_634213" data-name="Trazado 634213" d="M851.323,722.121l.443.287Z" transform="translate(-24.018 -85.405)" fill="#515862"/>
      <path id="Trazado_634214" data-name="Trazado 634214" d="M848.009,756.657l.127-.409Z" transform="translate(-21.974 -106.451)" fill="#dd811e"/>
      <path id="Trazado_634215" data-name="Trazado 634215" d="M833.88,685.473l-.387-.248Z" transform="translate(-13.023 -62.652)" fill="#525863"/>
      <path id="Trazado_634216" data-name="Trazado 634216" d="M845.365,694.043l-.186.331Z" transform="translate(-20.229 -68.09)" fill="#525863"/>
      <path id="Trazado_634217" data-name="Trazado 634217" d="M851.022,695.372l-.332-.186Z" transform="translate(-23.628 -68.795)" fill="#525863"/>
      <path id="Trazado_634218" data-name="Trazado 634218" d="M844.39,695.722l-.191.33Z" transform="translate(-19.625 -69.126)" fill="#525863"/>
      <path id="Trazado_634219" data-name="Trazado 634219" d="M847.664,693.444l-.331-.187Z" transform="translate(-21.558 -67.605)" fill="#525863"/>
      <path id="Trazado_634220" data-name="Trazado 634220" d="M847.243,710.212l-.182-.329Z" transform="translate(-21.39 -77.858)" fill="#515862"/>
      <path id="Trazado_634221" data-name="Trazado 634221" d="M850.283,721.542l.326.187Z" transform="translate(-23.377 -85.048)" fill="#515862"/>
      <path id="Trazado_634222" data-name="Trazado 634222" d="M837.458,692.384l.186-.331Z" transform="translate(-15.468 -66.863)" fill="#525863"/>
      <path id="Trazado_634223" data-name="Trazado 634223" d="M851.86,698.146l.187-.33Z" transform="translate(-24.349 -70.417)" fill="#525863"/>
      <path id="Trazado_634224" data-name="Trazado 634224" d="M838.543,688.167l-.331-.187Z" transform="translate(-15.933 -64.351)" fill="#525863"/>
      <path id="Trazado_634225" data-name="Trazado 634225" d="M848.6,720.577l.326.19Z" transform="translate(-22.342 -84.453)" fill="#515862"/>
      <path id="Trazado_634226" data-name="Trazado 634226" d="M835.184,686.238l-.332-.185Z" transform="translate(-13.861 -63.163)" fill="#525863"/>
      <path id="Trazado_634227" data-name="Trazado 634227" d="M860.215,700.688l-.286-.161Z" transform="translate(-29.325 -72.089)" fill="#515862"/>
      <path id="Trazado_634228" data-name="Trazado 634228" d="M832.871,685.167l-.251.219Z" transform="translate(-12.484 -62.616)" fill="#525863"/>
      <path id="Trazado_634229" data-name="Trazado 634229" d="M846.925,719.615l.328.186Z" transform="translate(-21.306 -83.86)" fill="#515862"/>
      <path id="Trazado_634230" data-name="Trazado 634230" d="M857.843,703.164l-.185.327Z" transform="translate(-27.925 -73.715)" fill="#515862"/>
      <path id="Trazado_634231" data-name="Trazado 634231" d="M841.161,716.269l.326.186Z" transform="translate(-17.751 -81.797)" fill="#515862"/>
      <path id="Trazado_634232" data-name="Trazado 634232" d="M837.8,714.338l.327.186Z" transform="translate(-15.681 -80.606)" fill="#515862"/>
      <path id="Trazado_634233" data-name="Trazado 634233" d="M843.436,697.4l-.186.33Z" transform="translate(-19.04 -70.162)" fill="#525863"/>
      <path id="Trazado_634234" data-name="Trazado 634234" d="M901,658.313l-.261-.165Z" transform="translate(-54.491 -45.954)" fill="#9f881c"/>
      <path id="Trazado_634235" data-name="Trazado 634235" d="M846.5,692.792h-.3C846.3,692.575,846.4,692.579,846.5,692.792Z" transform="translate(-20.859 -67.219)" fill="#525863"/>
      <path id="Trazado_634236" data-name="Trazado 634236" d="M882.5,741.82l.259.2Z" transform="translate(-43.243 -97.553)" fill="#7e5d2c"/>
      <path id="Trazado_634237" data-name="Trazado 634237" d="M920.841,665.862l-.207.14Z" transform="translate(-66.761 -50.711)" fill="#9f881c"/>
      <path id="Trazado_634238" data-name="Trazado 634238" d="M906.4,663.567l-.182-.182Z" transform="translate(-57.872 -49.184)" fill="#9f881c"/>
      <path id="Trazado_634239" data-name="Trazado 634239" d="M905.922,663.088l-.182-.182Z" transform="translate(-57.576 -48.889)" fill="#9f881c"/>
      <path id="Trazado_634240" data-name="Trazado 634240" d="M906.882,664.047l-.182-.182Z" transform="translate(-58.168 -49.48)" fill="#9f881c"/>
      <path id="Trazado_634241" data-name="Trazado 634241" d="M907.362,664.527l-.182-.182Z" transform="translate(-58.464 -49.776)" fill="#9f881c"/>
      <path id="Trazado_634242" data-name="Trazado 634242" d="M907.842,665.007l-.182-.182Z" transform="translate(-58.76 -50.072)" fill="#9f881c"/>
      <path id="Trazado_634243" data-name="Trazado 634243" d="M908.322,665.487l-.182-.182Z" transform="translate(-59.056 -50.368)" fill="#9f881c"/>
      <path id="Trazado_634244" data-name="Trazado 634244" d="M908.8,665.967l-.182-.182Z" transform="translate(-59.352 -50.664)" fill="#9f881c"/>
      <path id="Trazado_634245" data-name="Trazado 634245" d="M929.924,662.411l-.2.168Z" transform="translate(-72.366 -48.583)" fill="#9f881c"/>
      <path id="Trazado_634246" data-name="Trazado 634246" d="M909.282,666.447l-.182-.182Z" transform="translate(-59.648 -50.96)" fill="#9f881c"/>
      <path id="Trazado_634247" data-name="Trazado 634247" d="M905.441,662.608l-.182-.182Z" transform="translate(-57.279 -48.593)" fill="#9f881c"/>
      <path id="Trazado_634248" data-name="Trazado 634248" d="M909.762,666.927l-.182-.182Z" transform="translate(-59.944 -51.256)" fill="#9f881c"/>
      <path id="Trazado_634249" data-name="Trazado 634249" d="M910.242,667.407l-.182-.182Z" transform="translate(-60.24 -51.552)" fill="#9f881c"/>
      <path id="Trazado_634250" data-name="Trazado 634250" d="M930.432,661.922l-.181.187Z" transform="translate(-72.691 -48.282)" fill="#9f881c"/>
      <path id="Trazado_634251" data-name="Trazado 634251" d="M904.961,662.128l-.182-.182Z" transform="translate(-56.983 -48.297)" fill="#9f881c"/>
      <path id="Trazado_634252" data-name="Trazado 634252" d="M904.481,661.648l-.182-.182Z" transform="translate(-56.687 -48.001)" fill="#9f881c"/>
      <path id="Trazado_634253" data-name="Trazado 634253" d="M832.318,685.93l-.155.211Z" transform="translate(-12.202 -63.087)" fill="#525863"/>
      <path id="Trazado_634254" data-name="Trazado 634254" d="M904,661.168l-.182-.182Z" transform="translate(-56.392 -47.705)" fill="#9f881c"/>
      <path id="Trazado_634255" data-name="Trazado 634255" d="M903.522,660.687l-.182-.182Z" transform="translate(-56.096 -47.408)" fill="#9f881c"/>
      <path id="Trazado_634256" data-name="Trazado 634256" d="M903.042,660.207l-.182-.182Z" transform="translate(-55.8 -47.112)" fill="#9f881c"/>
      <path id="Trazado_634257" data-name="Trazado 634257" d="M902.562,659.727l-.182-.182Z" transform="translate(-55.504 -46.816)" fill="#9f881c"/>
      <path id="Trazado_634258" data-name="Trazado 634258" d="M902.083,659.246l-.182-.183Z" transform="translate(-55.209 -46.519)" fill="#9f881c"/>
      <path id="Trazado_634259" data-name="Trazado 634259" d="M845.886,693.313l-.136.194Z" transform="translate(-20.581 -67.64)" fill="#525863"/>
      <path id="Trazado_634260" data-name="Trazado 634260" d="M901.6,658.766l-.182-.182Z" transform="translate(-54.913 -46.223)" fill="#9f881c"/>
      <path id="Trazado_634261" data-name="Trazado 634261" d="M835.019,696.679l.162-.189Z" transform="translate(-13.964 -69.599)" fill="#525863"/>
      <path id="Trazado_634262" data-name="Trazado 634262" d="M842.545,699.079l-.139.2Z" transform="translate(-18.519 -71.196)" fill="#525863"/>
      <path id="Trazado_634263" data-name="Trazado 634263" d="M834.229,703.119l-.165-.18Z" transform="translate(-13.375 -73.576)" fill="#525863"/>
      <path id="Trazado_634264" data-name="Trazado 634264" d="M839.189,703.915l-.193.136Z" transform="translate(-16.416 -74.178)" fill="#525863"/>
      <path id="Trazado_634265" data-name="Trazado 634265" d="M993.916,617.946l-.084-.183Z" transform="translate(-111.901 -21.05)" fill="#c0c9cb"/>
      <path id="Trazado_634266" data-name="Trazado 634266" d="M879.767,771.1l-.178.181Z" transform="translate(-41.449 -115.612)" fill="#7e5d2c"/>
      <path id="Trazado_634267" data-name="Trazado 634267" d="M880.246,770.624l-.178.181Z" transform="translate(-41.745 -115.316)" fill="#7e5d2c"/>
      <path id="Trazado_634268" data-name="Trazado 634268" d="M881.677,710.191l-.214.106Z" transform="translate(-42.605 -78.048)" fill="#7e5d2c"/>
      <path id="Trazado_634269" data-name="Trazado 634269" d="M848.626,711.719l-.187-.136Z" transform="translate(-22.24 -78.907)" fill="#515862"/>
      <path id="Trazado_634270" data-name="Trazado 634270" d="M839.483,715.307l.2.138Z" transform="translate(-16.717 -81.203)" fill="#515862"/>
      <path id="Trazado_634271" data-name="Trazado 634271" d="M1034.435,628.018l.143-.214Z" transform="translate(-136.94 -27.242)" fill="#828888"/>
      <path id="Trazado_634272" data-name="Trazado 634272" d="M1025.509,626.5l-.188.157Z" transform="translate(-131.319 -26.438)" fill="#7f8485"/>
      <path id="Trazado_634273" data-name="Trazado 634273" d="M1026.036,626.064l-.168.152Z" transform="translate(-131.657 -26.169)" fill="#7f8485"/>
      <path id="Trazado_634274" data-name="Trazado 634274" d="M1026.537,625.587l-.156.154Z" transform="translate(-131.973 -25.875)" fill="#7f8485"/>
      <path id="Trazado_634275" data-name="Trazado 634275" d="M1027.019,625.108l-.155.154Z" transform="translate(-132.271 -25.579)" fill="#7f8485"/>
      <path id="Trazado_634276" data-name="Trazado 634276" d="M1027.5,624.632l-.155.153Z" transform="translate(-132.567 -25.286)" fill="#7f8485"/>
      <path id="Trazado_634277" data-name="Trazado 634277" d="M1027.983,624.151l-.154.153Z" transform="translate(-132.866 -24.989)" fill="#7f8485"/>
      <path id="Trazado_634278" data-name="Trazado 634278" d="M1028.462,623.671l-.154.153Z" transform="translate(-133.161 -24.693)" fill="#7f8485"/>
      <path id="Trazado_634279" data-name="Trazado 634279" d="M1028.942,623.191l-.154.153Z" transform="translate(-133.457 -24.397)" fill="#7f8485"/>
      <path id="Trazado_634280" data-name="Trazado 634280" d="M1029.422,622.712l-.154.153Z" transform="translate(-133.753 -24.102)" fill="#7f8485"/>
      <path id="Trazado_634281" data-name="Trazado 634281" d="M1029.9,622.232l-.154.153Z" transform="translate(-134.05 -23.806)" fill="#7f8485"/>
      <path id="Trazado_634282" data-name="Trazado 634282" d="M1030.383,621.752l-.154.153Z" transform="translate(-134.346 -23.51)" fill="#7f8485"/>
      <path id="Trazado_634283" data-name="Trazado 634283" d="M1030.863,621.272l-.154.153Z" transform="translate(-134.642 -23.214)" fill="#7f8485"/>
      <path id="Trazado_634284" data-name="Trazado 634284" d="M1031.343,620.793l-.154.153Z" transform="translate(-134.938 -22.918)" fill="#7f8485"/>
      <path id="Trazado_634285" data-name="Trazado 634285" d="M854.632,748.25l.2-.127Z" transform="translate(-26.059 -101.44)" fill="#dc811d"/>
      <path id="Trazado_634286" data-name="Trazado 634286" d="M1031.823,620.314l-.154.152Z" transform="translate(-135.234 -22.623)" fill="#7f8485"/>
      <path id="Trazado_634287" data-name="Trazado 634287" d="M1032.3,619.834l-.154.153Z" transform="translate(-135.531 -22.327)" fill="#7f8485"/>
      <path id="Trazado_634288" data-name="Trazado 634288" d="M1032.784,619.354l-.153.153Z" transform="translate(-135.827 -22.031)" fill="#7f8485"/>
      <path id="Trazado_634289" data-name="Trazado 634289" d="M1033.264,618.874l-.153.153Z" transform="translate(-136.123 -21.735)" fill="#7f8485"/>
      <path id="Trazado_634290" data-name="Trazado 634290" d="M994.285,618.849l-.173-.217Z" transform="translate(-112.073 -21.586)" fill="#c0c9cb"/>
      <path id="Trazado_634291" data-name="Trazado 634291" d="M1033.744,618.394l-.153.153Z" transform="translate(-136.419 -21.439)" fill="#7f8485"/>
      <path id="Trazado_634292" data-name="Trazado 634292" d="M1034.224,617.914l-.153.153Z" transform="translate(-136.715 -21.143)" fill="#7f8485"/>
      <path id="Trazado_634293" data-name="Trazado 634293" d="M888.886,761.983l-.176.182Z" transform="translate(-47.074 -109.987)" fill="#7e5d2c"/>
      <path id="Trazado_634294" data-name="Trazado 634294" d="M888.41,762.466l-.178.182Z" transform="translate(-46.779 -110.285)" fill="#7e5d2c"/>
      <path id="Trazado_634295" data-name="Trazado 634295" d="M887.929,762.948l-.179.181Z" transform="translate(-46.482 -110.582)" fill="#7e5d2c"/>
      <path id="Trazado_634296" data-name="Trazado 634296" d="M887.45,763.427l-.178.182Z" transform="translate(-46.187 -110.878)" fill="#7e5d2c"/>
      <path id="Trazado_634297" data-name="Trazado 634297" d="M886.969,763.908l-.179.181Z" transform="translate(-45.89 -111.175)" fill="#7e5d2c"/>
      <path id="Trazado_634298" data-name="Trazado 634298" d="M886.49,764.387l-.178.182Z" transform="translate(-45.595 -111.47)" fill="#7e5d2c"/>
      <path id="Trazado_634299" data-name="Trazado 634299" d="M886.009,764.868l-.179.181Z" transform="translate(-45.298 -111.767)" fill="#7e5d2c"/>
      <path id="Trazado_634300" data-name="Trazado 634300" d="M885.529,765.347l-.179.181Z" transform="translate(-45.002 -112.062)" fill="#7e5d2c"/>
      <path id="Trazado_634301" data-name="Trazado 634301" d="M885.049,765.826l-.177.182Z" transform="translate(-44.707 -112.357)" fill="#7e5d2c"/>
      <path id="Trazado_634302" data-name="Trazado 634302" d="M884.569,766.308l-.179.181Z" transform="translate(-44.41 -112.655)" fill="#7e5d2c"/>
      <path id="Trazado_634303" data-name="Trazado 634303" d="M884.088,766.786l-.179.181Z" transform="translate(-44.113 -112.949)" fill="#7e5d2c"/>
      <path id="Trazado_634304" data-name="Trazado 634304" d="M883.607,767.265l-.178.181Z" transform="translate(-43.817 -113.245)" fill="#7e5d2c"/>
      <path id="Trazado_634305" data-name="Trazado 634305" d="M883.127,767.745l-.178.181Z" transform="translate(-43.521 -113.541)" fill="#7e5d2c"/>
      <path id="Trazado_634306" data-name="Trazado 634306" d="M882.647,768.225l-.178.181Z" transform="translate(-43.225 -113.837)" fill="#7e5d2c"/>
      <path id="Trazado_634307" data-name="Trazado 634307" d="M882.167,768.705l-.178.181Z" transform="translate(-42.929 -114.133)" fill="#7e5d2c"/>
      <path id="Trazado_634308" data-name="Trazado 634308" d="M881.686,769.184l-.178.181Z" transform="translate(-42.633 -114.428)" fill="#7e5d2c"/>
      <path id="Trazado_634309" data-name="Trazado 634309" d="M881.206,769.664l-.178.181Z" transform="translate(-42.337 -114.724)" fill="#7e5d2c"/>
      <path id="Trazado_634310" data-name="Trazado 634310" d="M880.726,770.144l-.178.181Z" transform="translate(-42.041 -115.02)" fill="#7e5d2c"/>
      <path id="Trazado_634311" data-name="Trazado 634311" d="M882.794,709.673l-.089.078Z" transform="translate(-43.371 -77.729)" fill="#7e5d2c"/>
      <path id="Trazado_634312" data-name="Trazado 634312" d="M883.3,709.212l-.088.09Z" transform="translate(-43.685 -77.445)" fill="#7e5d2c"/>
      <path id="Trazado_634313" data-name="Trazado 634313" d="M883.724,708.69l-.067.086Z" transform="translate(-43.958 -77.123)" fill="#7e5d2c"/>
      <path id="Trazado_634314" data-name="Trazado 634314" d="M931.613,691.88a7.014,7.014,0,0,1-.766.532c-.528.276-.985,0-1.422-.262a11.736,11.736,0,0,0-16.621,4.768,12.622,12.622,0,0,0-1.14,3.721,9.867,9.867,0,0,0,.09,3.73,11.572,11.572,0,0,0,6.213,8.281,11.079,11.079,0,0,0,5.837,1.27,11.678,11.678,0,0,0,7.945-3.566,10.936,10.936,0,0,0,2.457-3.85,18.2,18.2,0,0,0,.738-2.876,10.67,10.67,0,0,0-.245-4.291,10.229,10.229,0,0,0-1.335-3.219,1.555,1.555,0,0,1,.256-2.27c1.212-.563,1.841-.184,2.545,1.124a15.728,15.728,0,0,1,1.575,4.274,14.38,14.38,0,0,1,.046,5.64,15.054,15.054,0,0,1-2.32,5.655,14.408,14.408,0,0,1-5.866,5.022,11.274,11.274,0,0,1-3.935,1.187,29.171,29.171,0,0,1-4.065.137,10.841,10.841,0,0,1-3.867-.981c-.271-.123-.564-.2-.847-.3-.476-.288-.956-.568-1.427-.865a14.354,14.354,0,0,1-5.8-6.829c-.078-.19-.183-.368-.275-.552a16.144,16.144,0,0,1-.593-2.314,26.946,26.946,0,0,1-.2-4.02,13.566,13.566,0,0,1,2.538-7.217,14.749,14.749,0,0,1,19.808-4.214A1.52,1.52,0,0,1,931.613,691.88Z" transform="translate(-59.325 -64.012)" fill="#2b2a28"/>
      <path id="Trazado_634315" data-name="Trazado 634315" d="M1007.964,636.961c.316,0,.634-.021.948,0a1.075,1.075,0,0,1,.353.171c-.312,0-.626.015-.937-.009A1.186,1.186,0,0,1,1007.964,636.961Z" transform="translate(-120.615 -32.883)" fill="#c0c9cb"/>
      <path id="Trazado_634316" data-name="Trazado 634316" d="M850.149,701.03l-.091.11Z" transform="translate(-23.238 -72.399)" fill="#3da7e0"/>
    </g>
  </g>
</svg>
