<svg xmlns="http://www.w3.org/2000/svg" xmlns:xlink="http://www.w3.org/1999/xlink" width="552" height="347.402" viewBox="0 0 552 347.402">
  <defs>
    <linearGradient id="linear-gradient" y1="0.5" x2="1" y2="0.5" gradientUnits="objectBoundingBox">
      <stop offset="0" stop-color="#dae3fe"/>
      <stop offset="1" stop-color="#e9effd"/>
    </linearGradient>
    <linearGradient id="linear-gradient-2" x1="-0.012" y1="0.121" x2="2.262" y2="1.805" gradientUnits="objectBoundingBox">
      <stop offset="0" stop-color="#fe7062"/>
      <stop offset="1" stop-color="#ff928e"/>
    </linearGradient>
    <linearGradient id="linear-gradient-3" x1="2.6" y1="1.58" x2="-0.039" y2="0.223" gradientUnits="objectBoundingBox">
      <stop offset="0" stop-color="#53d8ff"/>
      <stop offset="1" stop-color="#3840f7"/>
    </linearGradient>
    <linearGradient id="linear-gradient-4" x1="4.996" y1="3.569" x2="0.651" y2="0.581" xlink:href="#linear-gradient-3"/>
    <linearGradient id="linear-gradient-5" x1="0.07" y1="0.198" x2="2.152" y2="0.908" gradientUnits="objectBoundingBox">
      <stop offset="0" stop-color="#4042e2"/>
      <stop offset="1" stop-color="#4f52ff"/>
    </linearGradient>
    <linearGradient id="linear-gradient-6" x1="-0.381" y1="0.092" x2="0.861" y2="0.657" xlink:href="#linear-gradient-5"/>
    <linearGradient id="linear-gradient-7" x1="0.568" y1="5.899" x2="0.481" y2="-0.434" xlink:href="#linear-gradient-3"/>
    <linearGradient id="linear-gradient-8" x1="0.639" y1="3.534" x2="0.443" y2="-0.957" xlink:href="#linear-gradient-3"/>
    <linearGradient id="linear-gradient-9" x1="0.483" y1="0.546" x2="0.597" y2="3.565" xlink:href="#linear-gradient-5"/>
    <linearGradient id="linear-gradient-10" x1="0.425" y1="-0.226" x2="0.642" y2="1.612" xlink:href="#linear-gradient-5"/>
    <linearGradient id="linear-gradient-11" x1="-0.957" y1="1.676" x2="0.888" y2="0.085" xlink:href="#linear-gradient-3"/>
    <linearGradient id="linear-gradient-12" x1="0.2" y1="0.695" x2="0.928" y2="-0.105" xlink:href="#linear-gradient-5"/>
    <linearGradient id="linear-gradient-13" x1="-3.186" y1="4.1" x2="1.305" y2="-0.594" xlink:href="#linear-gradient-3"/>
    <linearGradient id="linear-gradient-14" x1="-0.979" y1="2.206" x2="0.548" y2="0.144" xlink:href="#linear-gradient-5"/>
    <linearGradient id="linear-gradient-15" x1="-0.193" y1="1.279" x2="1.138" y2="-0.496" gradientUnits="objectBoundingBox">
      <stop offset="0" stop-color="#09005d"/>
      <stop offset="1" stop-color="#1a0f91"/>
    </linearGradient>
    <linearGradient id="linear-gradient-16" x1="1.27" y1="1.12" x2="-0.215" y2="-0.24" gradientUnits="objectBoundingBox">
      <stop offset="0" stop-color="#ff928e"/>
      <stop offset="1" stop-color="#feb3b1"/>
    </linearGradient>
    <linearGradient id="linear-gradient-17" x1="0.487" y1="0.415" x2="-0.321" y2="10.081" xlink:href="#linear-gradient-16"/>
    <linearGradient id="linear-gradient-18" x1="0.472" y1="0.082" x2="0.522" y2="1.408" xlink:href="#linear-gradient-16"/>
    <linearGradient id="linear-gradient-19" x1="-38.024" y1="-4.02" x2="-38.293" y2="-2.905" xlink:href="#linear-gradient-16"/>
    <linearGradient id="linear-gradient-20" x1="-28.641" y1="0.152" x2="-27.891" y2="1.129" xlink:href="#linear-gradient-15"/>
    <linearGradient id="linear-gradient-21" x1="-160.085" y1="-14.64" x2="-161.185" y2="-11.004" xlink:href="#linear-gradient-16"/>
    <linearGradient id="linear-gradient-22" x1="0.416" y1="0.539" x2="1.357" y2="0.317" xlink:href="#linear-gradient-16"/>
    <linearGradient id="linear-gradient-23" x1="0.915" y1="0.42" x2="2.772" y2="-0.262" xlink:href="#linear-gradient-16"/>
    <linearGradient id="linear-gradient-24" x1="-3.187" y1="3.247" x2="1.675" y2="-0.365" xlink:href="#linear-gradient-15"/>
    <linearGradient id="linear-gradient-25" x1="2.589" y1="-0.343" x2="1.305" y2="0.141" gradientUnits="objectBoundingBox">
      <stop offset="0" stop-color="#e1473d"/>
      <stop offset="1" stop-color="#e9605a"/>
    </linearGradient>
    <linearGradient id="linear-gradient-26" x1="-153.256" y1="-10.263" x2="-153.212" y2="-2.633" xlink:href="#linear-gradient-15"/>
    <linearGradient id="linear-gradient-27" x1="-408.388" y1="-0.843" x2="-408.895" y2="2.39" xlink:href="#linear-gradient-16"/>
    <linearGradient id="linear-gradient-28" x1="-103.894" y1="-11.642" x2="-103.863" y2="-3.075" xlink:href="#linear-gradient-15"/>
    <linearGradient id="linear-gradient-29" x1="-406.535" y1="-0.223" x2="-407.05" y2="2.539" xlink:href="#linear-gradient-16"/>
    <linearGradient id="linear-gradient-30" x1="-61.315" y1="1.276" x2="-59.514" y2="-1.202" xlink:href="#linear-gradient-15"/>
    <linearGradient id="linear-gradient-31" x1="0.348" y1="0.577" x2="-0.339" y2="1.601" xlink:href="#linear-gradient-2"/>
    <linearGradient id="linear-gradient-32" x1="0.444" y1="-0.08" x2="0.556" y2="1.808" xlink:href="#linear-gradient-16"/>
    <linearGradient id="linear-gradient-33" x1="0.726" y1="-0.434" x2="0.358" y2="0.96" xlink:href="#linear-gradient-16"/>
    <linearGradient id="linear-gradient-34" x1="-136.465" y1="-37.766" x2="-135.398" y2="-37.766" xlink:href="#linear-gradient-25"/>
    <linearGradient id="linear-gradient-35" x1="1.356" y1="-2.311" x2="-0.106" y2="2.33" xlink:href="#linear-gradient-16"/>
    <linearGradient id="linear-gradient-36" x1="2.054" y1="-0.48" x2="-8.814" y2="6.829" xlink:href="#linear-gradient-2"/>
    <linearGradient id="linear-gradient-37" x1="0.548" y1="0.352" x2="-1.871" y2="12.584" xlink:href="#linear-gradient-2"/>
    <linearGradient id="linear-gradient-38" x1="9.663" y1="-1.169" x2="-6.51" y2="1.768" xlink:href="#linear-gradient-25"/>
    <linearGradient id="linear-gradient-39" x1="-3.163" y1="15.071" x2="-6.405" y2="27.963" xlink:href="#linear-gradient-5"/>
    <linearGradient id="linear-gradient-40" x1="-95.48" y1="0.5" x2="-94.48" y2="0.5" xlink:href="#linear-gradient-16"/>
    <linearGradient id="linear-gradient-41" x1="-88.578" y1="118.25" x2="-87.704" y2="118.25" xlink:href="#linear-gradient-16"/>
    <linearGradient id="linear-gradient-42" x1="-0.838" y1="0.708" x2="-3.417" y2="1.095" xlink:href="#linear-gradient-5"/>
    <linearGradient id="linear-gradient-43" x1="-38.383" y1="0.28" x2="-37.76" y2="1.495" xlink:href="#linear-gradient-5"/>
    <linearGradient id="linear-gradient-44" x1="7.822" y1="-0.168" x2="3.031" y2="0.269" xlink:href="#linear-gradient-15"/>
    <clipPath id="clip-path">
      <path id="Trazado_634821" data-name="Trazado 634821" d="M1831,1079.288c.274-.279.872-1.355,1.384-4.138a63.195,63.195,0,0,0,0-19.642c-.512-2.783-1.11-3.859-1.384-4.138-.274.279-.872,1.355-1.384,4.138-.5,2.689-4.4,6.177-4.4,9.821s3.906,7.132,4.4,9.821C1830.127,1077.933,1830.724,1079.009,1831,1079.288Z" transform="translate(-1825.213 -1051.37)" fill="none"/>
    </clipPath>
    <linearGradient id="linear-gradient-45" x1="-134.743" y1="0.558" x2="-137.151" y2="0.693" xlink:href="#linear-gradient-5"/>
    <linearGradient id="linear-gradient-46" x1="0.008" y1="0.73" x2="-4.014" y2="2.866" xlink:href="#linear-gradient-5"/>
    <linearGradient id="linear-gradient-47" x1="-236.739" y1="0.5" x2="-235.739" y2="0.5" xlink:href="#linear-gradient-16"/>
    <linearGradient id="linear-gradient-48" x1="2.498" y1="-0.079" x2="1.364" y2="0.258" xlink:href="#linear-gradient-5"/>
    <linearGradient id="linear-gradient-49" x1="0.522" y1="-6.309" x2="0.512" y2="-3.027" xlink:href="#linear-gradient-15"/>
    <linearGradient id="linear-gradient-50" x1="0" y1="0.5" x2="1" y2="0.5" xlink:href="#linear-gradient-16"/>
    <linearGradient id="linear-gradient-51" x1="0.535" y1="-3.483" x2="0.518" y2="-1.486" xlink:href="#linear-gradient-15"/>
    <linearGradient id="linear-gradient-53" x1="5.522" y1="-2.715" x2="0.936" y2="0.132" xlink:href="#linear-gradient-5"/>
    <linearGradient id="linear-gradient-54" x1="1.315" y1="-11.459" x2="0.924" y2="-5.721" xlink:href="#linear-gradient-5"/>
    <linearGradient id="linear-gradient-55" x1="1.381" y1="0.1" x2="-1.008" y2="1.142" xlink:href="#linear-gradient-16"/>
    <linearGradient id="linear-gradient-56" x1="12.117" y1="-5.113" x2="1.996" y2="-0.16" xlink:href="#linear-gradient-5"/>
    <linearGradient id="linear-gradient-57" x1="8.636" y1="2.483" x2="2.63" y2="0.994" xlink:href="#linear-gradient-5"/>
    <linearGradient id="linear-gradient-59" x1="0.911" y1="0.027" x2="-0.726" y2="2.313" xlink:href="#linear-gradient-16"/>
    <linearGradient id="linear-gradient-60" x1="0.966" y1="-0.13" x2="0.134" y2="0.885" xlink:href="#linear-gradient-15"/>
    <linearGradient id="linear-gradient-61" x1="0.415" y1="-1.191" x2="0.45" y2="-0.498" xlink:href="#linear-gradient-15"/>
    <linearGradient id="linear-gradient-62" x1="-13.644" y1="56.012" x2="-15.164" y2="57.35" xlink:href="#linear-gradient-16"/>
    <linearGradient id="linear-gradient-63" x1="-8.42" y1="36.205" x2="-7.397" y2="36.205" xlink:href="#linear-gradient-15"/>
    <linearGradient id="linear-gradient-64" x1="-41.867" y1="159.257" x2="-38.692" y2="156.957" xlink:href="#linear-gradient-16"/>
    <linearGradient id="linear-gradient-65" x1="1.114" y1="-1.222" x2="-0.58" y2="3.818" xlink:href="#linear-gradient-16"/>
    <linearGradient id="linear-gradient-67" x1="3.026" y1="-4.459" x2="0.415" y2="0.478" xlink:href="#linear-gradient-3"/>
  </defs>
  <g id="Grupo_905018" data-name="Grupo 905018" transform="translate(-142.656 -110.76)">
    <path id="Trazado_634678" data-name="Trazado 634678" d="M387.039,165.157c-7.1,4.268-19.919,14.153-31.1,28.9-8.317,10.97-11.294,18-19.016,19.771-5.66,1.3-12.034-1.051-20.78-6.275-18.711-11.177-40.692-3.668-56.6,26.092S249.637,291.582,279,324.971c21.489,24.435-7.409,24.7-24.116,67.048s6.855,89.849,84.377,89.284c77.628-.566,194.976.519,194.978.519,61.289.566,127.415,10.967,184.388-18.311,20.588-10.58,38.793-26.9,48.9-47.9,13.344-27.739,8.886-62.59-8.746-87.551-11.753-16.638-28.671-11.846-42.773-22.8-14.72-11.43-23.574-23.837-2.527-44.179s37.159-34.048,26.519-61c-15.266-38.667-52.311-43.656-93.011-27.267s-89.807,40.871-126.071,30.208c-37.1-10.909-40.738-40.36-86.1-45.379C424.733,156.528,405.03,154.348,387.039,165.157Z" transform="translate(-80.635 -34.557)" fill="url(#linear-gradient)"/>
    <g id="Grupo_904951" data-name="Grupo 904951" transform="translate(151.26 184.95)">
      <path id="Trazado_634679" data-name="Trazado 634679" d="M214.345,441.731c13.989-10.993,19.524-23.182,21.66-30.086a1.488,1.488,0,0,1,2.861.051c14.523,55.045-2.7,87.644-13.387,112.414-8.662,20.068.313,61.033,6.406,86.569l-1.534-.524-1.177,3.446c-4.522-20.241-12.884-46.793-36.44-76.651C156.442,490.948,193.361,458.22,214.345,441.731Z" transform="translate(-177.429 -410.591)" fill="#91b3fa"/>
      <path id="Trazado_634680" data-name="Trazado 634680" d="M288.524,508.6c-1.152,2.636-2.458,5.187-3.843,7.7-1.37,2.521-2.857,4.977-4.386,7.406l-1.166,1.81-1.2,1.786c-.794,1.2-1.625,2.369-2.464,3.536q-2.531,3.489-5.244,6.845c-.909,1.114-1.857,2.2-2.784,3.3s-1.919,2.145-2.877,3.219c-1.93,2.094-3.794,4.175-5.5,6.409a49.007,49.007,0,0,0-7.922,14.625,41.9,41.9,0,0,0-1.8,8.127,52.035,52.035,0,0,0-.263,8.359A69.456,69.456,0,0,0,252.1,598.3c.4,1.355.866,2.694,1.309,4.038.5,1.326.955,2.668,1.488,3.983,1.05,2.635,2.136,5.261,3.336,7.839,2.376,5.168,5.054,10.2,7.847,15.176a.264.264,0,0,1-.452.272c-3.074-4.822-5.927-9.791-8.52-14.905a109.89,109.89,0,0,1-6.67-15.882,71.369,71.369,0,0,1-3.5-16.969,50.767,50.767,0,0,1,.152-8.742,44.223,44.223,0,0,1,1.8-8.59,50.343,50.343,0,0,1,8.219-15.394c1.753-2.314,3.685-4.505,5.629-6.6.951-1.049,1.924-2.078,2.857-3.143s1.864-2.133,2.769-3.224,1.826-2.168,2.706-3.279,1.781-2.207,2.626-3.346,1.738-2.244,2.566-3.4l1.262-1.715,1.23-1.739c.84-1.146,1.626-2.329,2.44-3.5.781-1.186,1.59-2.358,2.359-3.553,1.54-2.389,3.075-4.8,4.5-7.257l0-.006a.264.264,0,0,1,.47.237Z" transform="translate(-229.65 -484.073)" fill="#fff" opacity="0.33"/>
    </g>
    <g id="Grupo_904959" data-name="Grupo 904959" transform="translate(557.325 277.986)">
      <path id="Trazado_634681" data-name="Trazado 634681" d="M1920.594,790.32a3.509,3.509,0,0,0-1.439-2.693,5.226,5.226,0,0,0-3.356-1.034l-94.44,3.106a2.7,2.7,0,0,0-2.852,2.493l4.794,165.6,95.493-.956a5.144,5.144,0,0,0,3.246-1.142,3.455,3.455,0,0,0,1.308-2.692Z" transform="translate(-1818.505 -786.591)" fill="#91b3fa"/>
      <g id="Grupo_904958" data-name="Grupo 904958" transform="translate(11.12 10.066)">
        <g id="Grupo_904952" data-name="Grupo 904952">
          <path id="Trazado_634682" data-name="Trazado 634682" d="M1878.1,844.127l-13.954,0-.694-16.851h14.044Z" transform="translate(-1863.447 -827.272)" fill="#bdd0fb"/>
          <path id="Trazado_634683" data-name="Trazado 634683" d="M1968.483,844.082l-13.275-.005-.551-16.8h13.36Z" transform="translate(-1932.088 -827.272)" fill="#bdd0fb"/>
          <path id="Trazado_634684" data-name="Trazado 634684" d="M2057.133,844.036l-13.8,0-.412-16.76h13.891Z" transform="translate(-1998.509 -827.272)" fill="#bdd0fb"/>
          <path id="Trazado_634685" data-name="Trazado 634685" d="M2147.136,843.991l-13.728,0-.272-16.714h13.815Z" transform="translate(-2066.405 -827.272)" fill="#bdd0fb"/>
        </g>
        <g id="Grupo_904953" data-name="Grupo 904953" transform="translate(1.145 27.599)">
          <path id="Trazado_634686" data-name="Trazado 634686" d="M1882.564,956.164l-13.809.075-.68-16.472,13.9-.047Z" transform="translate(-1868.076 -939.496)" fill="#bdd0fb"/>
          <path id="Trazado_634687" data-name="Trazado 634687" d="M1972,955.823l-13.137.071-.539-16.427,13.22-.045Z" transform="translate(-1935.995 -939.271)" fill="#bdd0fb"/>
          <path id="Trazado_634688" data-name="Trazado 634688" d="M2059.73,955.473l-13.661.074-.4-16.384,13.747-.047Z" transform="translate(-2001.723 -939.041)" fill="#bdd0fb"/>
          <path id="Trazado_634689" data-name="Trazado 634689" d="M2148.8,955.126l-13.587.074-.266-16.34,13.672-.047Z" transform="translate(-2068.912 -938.813)" fill="#bdd0fb"/>
        </g>
        <g id="Grupo_904954" data-name="Grupo 904954" transform="translate(2.267 54.509)">
          <path id="Trazado_634690" data-name="Trazado 634690" d="M1886.941,1065.45l-13.666.119-.666-16.136,13.752-.093Z" transform="translate(-1872.609 -1048.902)" fill="#bdd0fb"/>
          <path id="Trazado_634691" data-name="Trazado 634691" d="M1975.453,1064.824l-13,.114-.528-16.093,13.083-.088Z" transform="translate(-1939.823 -1048.462)" fill="#bdd0fb"/>
          <path id="Trazado_634692" data-name="Trazado 634692" d="M2062.274,1064.184l-13.521.118-.4-16.052,13.605-.092Z" transform="translate(-2004.87 -1048.012)" fill="#bdd0fb"/>
          <path id="Trazado_634693" data-name="Trazado 634693" d="M2150.428,1063.548l-13.448.117-.261-16.009,13.532-.091Z" transform="translate(-2071.368 -1047.565)" fill="#bdd0fb"/>
        </g>
        <g id="Grupo_904955" data-name="Grupo 904955" transform="translate(3.366 80.875)">
          <path id="Trazado_634694" data-name="Trazado 634694" d="M1891.229,1172.518l-13.526.162-.653-15.809,13.61-.136Z" transform="translate(-1877.05 -1156.088)" fill="#bdd0fb"/>
          <path id="Trazado_634695" data-name="Trazado 634695" d="M1978.832,1171.619l-12.87.154-.518-15.768,12.949-.13Z" transform="translate(-1943.572 -1155.441)" fill="#bdd0fb"/>
          <path id="Trazado_634696" data-name="Trazado 634696" d="M2064.766,1170.7l-13.384.16-.388-15.729,13.467-.135Z" transform="translate(-2007.954 -1154.78)" fill="#bdd0fb"/>
          <path id="Trazado_634697" data-name="Trazado 634697" d="M2152.025,1169.786l-13.313.159-.255-15.688,13.395-.134Z" transform="translate(-2073.775 -1154.122)" fill="#bdd0fb"/>
        </g>
        <g id="Grupo_904956" data-name="Grupo 904956" transform="translate(4.443 106.715)">
          <path id="Trazado_634698" data-name="Trazado 634698" d="M1895.43,1277.433l-13.389.2-.64-15.493,13.471-.178Z" transform="translate(-1881.402 -1261.12)" fill="#bdd0fb"/>
          <path id="Trazado_634699" data-name="Trazado 634699" d="M1982.143,1276.272l-12.74.193-.507-15.454,12.818-.17Z" transform="translate(-1947.246 -1260.275)" fill="#bdd0fb"/>
          <path id="Trazado_634700" data-name="Trazado 634700" d="M2067.208,1275.085l-13.25.2-.38-15.416,13.331-.176Z" transform="translate(-2010.975 -1259.411)" fill="#bdd0fb"/>
          <path id="Trazado_634701" data-name="Trazado 634701" d="M2153.59,1273.9l-13.18.2-.25-15.377,13.26-.175Z" transform="translate(-2076.133 -1258.552)" fill="#bdd0fb"/>
        </g>
        <g id="Grupo_904957" data-name="Grupo 904957" transform="translate(5.498 132.044)">
          <path id="Trazado_634702" data-name="Trazado 634702" d="M1899.548,1380.26l-13.255.242-.627-15.187L1899,1365.1Z" transform="translate(-1885.667 -1364.063)" fill="#bdd0fb"/>
          <path id="Trazado_634703" data-name="Trazado 634703" d="M1985.388,1378.848l-12.613.23-.5-15.149,12.689-.208Z" transform="translate(-1950.847 -1363.027)" fill="#bdd0fb"/>
          <path id="Trazado_634704" data-name="Trazado 634704" d="M2069.6,1377.4l-13.118.239-.372-15.112,13.2-.216Z" transform="translate(-2013.937 -1361.969)" fill="#bdd0fb"/>
          <path id="Trazado_634705" data-name="Trazado 634705" d="M2155.124,1375.968l-13.05.238-.245-15.075,13.128-.215Z" transform="translate(-2078.444 -1360.916)" fill="#bdd0fb"/>
        </g>
      </g>
    </g>
    <g id="Grupo_904961" data-name="Grupo 904961" transform="translate(407.655 304.984)">
      <path id="Trazado_634706" data-name="Trazado 634706" d="M1313.948,899.377a3.554,3.554,0,0,0-1.317-2.645,4.573,4.573,0,0,0-3.06-1.03l-91.84,2.589a3.977,3.977,0,0,0-4.1,3.851l4.531,134.186a4.039,4.039,0,0,0,4.281,3.63l90.6-.248c1.131-.01,1.6-.941,2.389-1.656a3.518,3.518,0,0,0,1.2-2.675Z" transform="translate(-1213.626 -895.7)" fill="#7d97f4"/>
      <g id="Grupo_904960" data-name="Grupo 904960" transform="translate(15.584 9.416)">
        <path id="Trazado_634707" data-name="Trazado 634707" d="M1276.753,944.535l-.143-3.357L1306.482,940l.134,3.365Z" transform="translate(-1276.609 -938.454)" fill="#91b3fa" style="mix-blend-mode: overlay;isolation: isolate"/>
        <path id="Trazado_634708" data-name="Trazado 634708" d="M1278.378,982.629l-.143-3.351,29.846-1.157.133,3.358Z" transform="translate(-1277.833 -967.143)" fill="#91b3fa" style="mix-blend-mode: overlay;isolation: isolate"/>
        <path id="Trazado_634709" data-name="Trazado 634709" d="M1280,1020.652l-.143-3.344,29.819-1.136.133,3.352Z" transform="translate(-1279.053 -995.779)" fill="#91b3fa" style="mix-blend-mode: overlay;isolation: isolate"/>
        <path id="Trazado_634710" data-name="Trazado 634710" d="M1281.618,1058.6l-.142-3.338,29.792-1.114.133,3.346Z" transform="translate(-1280.271 -1024.36)" fill="#91b3fa" style="mix-blend-mode: overlay;isolation: isolate"/>
        <path id="Trazado_634711" data-name="Trazado 634711" d="M1283.234,1096.484l-.142-3.332,29.765-1.093.133,3.34Z" transform="translate(-1281.488 -1052.889)" fill="#91b3fa" style="mix-blend-mode: overlay;isolation: isolate"/>
        <path id="Trazado_634712" data-name="Trazado 634712" d="M1286.457,1172.035l-.142-3.32,29.711-1.05.132,3.327Z" transform="translate(-1283.913 -1109.786)" fill="#91b3fa" style="mix-blend-mode: overlay;isolation: isolate"/>
        <path id="Trazado_634713" data-name="Trazado 634713" d="M1291.268,1284.833l-.141-3.3,29.631-.987.131,3.309Z" transform="translate(-1287.535 -1194.736)" fill="#91b3fa" style="mix-blend-mode: overlay;isolation: isolate"/>
        <path id="Trazado_634714" data-name="Trazado 634714" d="M1284.847,1134.295l-.142-3.326,29.738-1.071.132,3.333Z" transform="translate(-1282.702 -1081.365)" fill="#91b3fa" style="mix-blend-mode: overlay;isolation: isolate"/>
        <path id="Trazado_634715" data-name="Trazado 634715" d="M1288.063,1209.7l-.141-3.313,29.685-1.029.132,3.321Z" transform="translate(-1285.123 -1138.156)" fill="#91b3fa" style="mix-blend-mode: overlay;isolation: isolate"/>
        <path id="Trazado_634716" data-name="Trazado 634716" d="M1289.667,1247.3l-.141-3.307,29.658-1.008.132,3.315Z" transform="translate(-1286.33 -1166.473)" fill="#91b3fa" style="mix-blend-mode: overlay;isolation: isolate"/>
        <path id="Trazado_634717" data-name="Trazado 634717" d="M1292.866,1322.294l-.141-3.3,29.6-.965.131,3.3Z" transform="translate(-1288.738 -1222.948)" fill="#91b3fa" style="mix-blend-mode: overlay;isolation: isolate"/>
        <path id="Trazado_634718" data-name="Trazado 634718" d="M1294.461,1359.685l-.14-3.289,29.578-.945.131,3.3Z" transform="translate(-1289.938 -1251.107)" fill="#91b3fa" style="mix-blend-mode: overlay;isolation: isolate"/>
        <path id="Trazado_634719" data-name="Trazado 634719" d="M1296.053,1397.007l-.14-3.283,29.551-.924.131,3.29Z" transform="translate(-1291.136 -1279.215)" fill="#91b3fa" style="mix-blend-mode: overlay;isolation: isolate"/>
        <path id="Trazado_634720" data-name="Trazado 634720" d="M1297.642,1434.259l-.14-3.277,29.525-.9.13,3.284Z" transform="translate(-1292.332 -1307.269)" fill="#91b3fa" style="mix-blend-mode: overlay;isolation: isolate"/>
        <path id="Trazado_634721" data-name="Trazado 634721" d="M1434.258,938.307l-.131-3.367,30.044-1.186.121,3.375Z" transform="translate(-1395.152 -933.755)" fill="#91b3fa" style="mix-blend-mode: overlay;isolation: isolate"/>
        <path id="Trazado_634722" data-name="Trazado 634722" d="M1435.74,976.516l-.13-3.361,30.017-1.164.121,3.369Z" transform="translate(-1396.267 -962.53)" fill="#91b3fa" style="mix-blend-mode: overlay;isolation: isolate"/>
        <path id="Trazado_634723" data-name="Trazado 634723" d="M1437.22,1014.653l-.13-3.354,29.99-1.142.121,3.362Z" transform="translate(-1397.381 -991.252)" fill="#91b3fa" style="mix-blend-mode: overlay;isolation: isolate"/>
        <path id="Trazado_634724" data-name="Trazado 634724" d="M1438.7,1052.719l-.13-3.348,29.962-1.121.12,3.356Z" transform="translate(-1398.492 -1019.92)" fill="#91b3fa" style="mix-blend-mode: overlay;isolation: isolate"/>
        <path id="Trazado_634725" data-name="Trazado 634725" d="M1440.17,1090.714l-.13-3.342,29.935-1.1.12,3.35Z" transform="translate(-1399.601 -1048.534)" fill="#91b3fa" style="mix-blend-mode: overlay;isolation: isolate"/>
        <path id="Trazado_634726" data-name="Trazado 634726" d="M1443.109,1166.49l-.129-3.329,29.881-1.056.12,3.337Z" transform="translate(-1401.813 -1105.602)" fill="#91b3fa" style="mix-blend-mode: overlay;isolation: isolate"/>
        <path id="Trazado_634727" data-name="Trazado 634727" d="M1447.5,1279.625l-.129-3.311,29.8-.992.119,3.318Z" transform="translate(-1405.116 -1190.805)" fill="#91b3fa" style="mix-blend-mode: overlay;isolation: isolate"/>
        <path id="Trazado_634728" data-name="Trazado 634728" d="M1441.641,1128.637l-.129-3.336,29.908-1.078.12,3.343Z" transform="translate(-1400.708 -1077.094)" fill="#91b3fa" style="mix-blend-mode: overlay;isolation: isolate"/>
        <path id="Trazado_634729" data-name="Trazado 634729" d="M1444.575,1204.272l-.129-3.323,29.854-1.035.119,3.331Z" transform="translate(-1402.917 -1134.056)" fill="#91b3fa" style="mix-blend-mode: overlay;isolation: isolate"/>
        <path id="Trazado_634730" data-name="Trazado 634730" d="M1446.037,1241.983l-.129-3.317,29.827-1.014.119,3.325Z" transform="translate(-1404.017 -1162.456)" fill="#91b3fa" style="mix-blend-mode: overlay;isolation: isolate"/>
        <path id="Trazado_634731" data-name="Trazado 634731" d="M1448.955,1317.2l-.128-3.3,29.773-.971.119,3.312Z" transform="translate(-1406.213 -1219.1)" fill="#91b3fa" style="mix-blend-mode: overlay;isolation: isolate"/>
        <path id="Trazado_634732" data-name="Trazado 634732" d="M1450.409,1354.7l-.128-3.3,29.746-.95.118,3.306Z" transform="translate(-1407.308 -1247.343)" fill="#91b3fa" style="mix-blend-mode: overlay;isolation: isolate"/>
        <path id="Trazado_634733" data-name="Trazado 634733" d="M1451.861,1392.129l-.128-3.292,29.719-.929.118,3.3Z" transform="translate(-1408.401 -1275.533)" fill="#91b3fa" style="mix-blend-mode: overlay;isolation: isolate"/>
        <path id="Trazado_634734" data-name="Trazado 634734" d="M1453.311,1429.491l-.127-3.286,29.692-.908.118,3.294Z" transform="translate(-1409.492 -1303.67)" fill="#91b3fa" style="mix-blend-mode: overlay;isolation: isolate"/>
      </g>
    </g>
    <g id="Grupo_904963" data-name="Grupo 904963" transform="translate(186.902 138.647)">
      <ellipse id="Elipse_7283" data-name="Elipse 7283" cx="151.092" cy="163.089" rx="151.092" ry="163.089" transform="matrix(0.044, -0.999, 0.999, 0.044, 0, 301.893)" fill="url(#linear-gradient-2)"/>
      <g id="Grupo_904962" data-name="Grupo 904962" transform="translate(21.182 10.813)" opacity="0.68">
        <path id="Trazado_634735" data-name="Trazado 634735" d="M920.515,417.754c-.014,13.336-.5,26.673-1.541,39.973-1.066,13.3-2.7,26.554-5.067,39.691a232.444,232.444,0,0,1-10.141,38.732,90.923,90.923,0,0,1-8.808,18.07,36.208,36.208,0,0,1-6.621,7.7,18.928,18.928,0,0,1-4.348,2.795,13.058,13.058,0,0,1-5.09,1.193,12.884,12.884,0,0,1-5.146-.942,17.778,17.778,0,0,1-4.45-2.642,34.374,34.374,0,0,1-6.765-7.585,87.982,87.982,0,0,1-8.935-18.008,184.526,184.526,0,0,1-5.968-19.139c-1.667-6.469-3.068-13-4.274-19.564-2.409-13.13-4.055-26.386-5.172-39.678s-1.671-26.632-1.754-39.973c-.039-6.669.166-13.337.409-20q.39-9.995,1.138-19.971c1.007-13.3,2.5-26.565,4.712-39.723,1.109-6.577,2.4-13.127,3.953-19.618a188.772,188.772,0,0,1,5.6-19.227,87.128,87.128,0,0,1,8.564-18.128,32.983,32.983,0,0,1,6.61-7.618,16.893,16.893,0,0,1,4.377-2.613,12.369,12.369,0,0,1,5.036-.887,13.4,13.4,0,0,1,4.974,1.159,19.4,19.4,0,0,1,4.319,2.686,36.756,36.756,0,0,1,6.75,7.484,90.1,90.1,0,0,1,9.255,17.782,222.616,222.616,0,0,1,10.972,38.47,377.887,377.887,0,0,1,5.626,39.61C919.9,391.076,920.475,404.415,920.515,417.754Zm-2.536,0c.032-13.271-.464-26.545-1.559-39.77a383.948,383.948,0,0,0-5.137-39.455,221.066,221.066,0,0,0-10.354-38.347,89,89,0,0,0-8.885-17.679,35.833,35.833,0,0,0-6.469-7.384,14.731,14.731,0,0,0-8.762-3.774,11.444,11.444,0,0,0-4.708.893,16.047,16.047,0,0,0-4.122,2.543,32.053,32.053,0,0,0-6.309,7.489,86.01,86.01,0,0,0-8.192,18,187.288,187.288,0,0,0-5.288,19.155c-1.451,6.471-2.644,13-3.655,19.558-4,26.249-5.29,52.858-5.191,79.393q-.076,19.9,1.35,39.779c.979,13.233,2.487,26.433,4.751,39.5,1.135,6.533,2.461,13.033,4.051,19.466a182.659,182.659,0,0,0,5.72,19.007,86.444,86.444,0,0,0,8.585,17.758,32.955,32.955,0,0,0,6.392,7.324,13.29,13.29,0,0,0,8.666,3.356,13.97,13.97,0,0,0,8.539-3.748,34.74,34.74,0,0,0,6.262-7.451,89.341,89.341,0,0,0,8.457-17.826,230.608,230.608,0,0,0,9.657-38.5c2.252-13.071,3.74-26.273,4.732-39.505C917.52,444.3,917.986,431.028,917.978,417.754Z" transform="translate(-730.192 -269.738)" fill="#fff" style="mix-blend-mode: soft-light;isolation: isolate"/>
        <path id="Trazado_634736" data-name="Trazado 634736" d="M757.037,415.175a194.571,194.571,0,0,1-6.927,50.958,163.926,163.926,0,0,1-21.379,46.706c-9.585,14.242-21.791,26.874-36.376,36.036a96.642,96.642,0,0,1-23.4,10.685,87.831,87.831,0,0,1-50.871.029,96.7,96.7,0,0,1-23.42-10.663c-14.605-9.149-26.839-21.773-36.452-36.015a164.228,164.228,0,0,1-21.451-46.728,184.607,184.607,0,0,1-5.2-25.27,189.142,189.142,0,0,1,.02-51.474,184.5,184.5,0,0,1,5.219-25.261A164.149,164.149,0,0,1,558.3,317.492c9.618-14.224,21.849-26.831,36.446-35.95a97.184,97.184,0,0,1,23.4-10.612,87.03,87.03,0,0,1,50.769.027,97.085,97.085,0,0,1,23.373,10.636c14.577,9.132,26.78,21.748,36.37,35.971a163.832,163.832,0,0,1,21.416,46.665A194.553,194.553,0,0,1,757.037,415.175Zm-2.908,0a191.8,191.8,0,0,0-6.57-50.251A163,163,0,0,0,727.05,318.63a132.716,132.716,0,0,0-15.838-19.846,110.652,110.652,0,0,0-19.606-16.122A94.709,94.709,0,0,0,668.592,272a84.271,84.271,0,0,0-50.12.027,94.614,94.614,0,0,0-22.99,10.684,110.547,110.547,0,0,0-19.571,16.137,132.643,132.643,0,0,0-15.8,19.851,162.691,162.691,0,0,0-20.437,46.273,186.276,186.276,0,0,0-4.907,24.887,194.507,194.507,0,0,0,.02,50.625,186.155,186.155,0,0,0,4.93,24.877A162.6,162.6,0,0,0,560.194,511.6a132.533,132.533,0,0,0,15.8,19.823,110.078,110.078,0,0,0,19.563,16.1,95.1,95.1,0,0,0,22.966,10.633,83.51,83.51,0,0,0,50.018.029,95.161,95.161,0,0,0,22.99-10.611,110.216,110.216,0,0,0,19.6-16.085,132.644,132.644,0,0,0,15.84-19.817,162.91,162.91,0,0,0,20.546-46.254A191.776,191.776,0,0,0,754.129,415.175Z" transform="translate(-499.448 -267.159)" fill="#fff" style="mix-blend-mode: soft-light;isolation: isolate"/>
        <path id="Trazado_634737" data-name="Trazado 634737" d="M455,626.3c11.33-.164,22.661-.234,33.991-.353l33.991-.2c11.33-.085,22.661-.076,33.991-.1l33.991-.059,67.982.178,33.991.219c11.33.13,22.661.206,33.991.381a.128.128,0,0,1,0,.257c-11.33.176-22.661.252-33.991.381l-33.991.219-67.982.178-33.991-.059c-11.33-.026-22.661-.017-33.991-.1l-33.991-.2c-11.33-.119-22.661-.189-33.991-.353a.191.191,0,0,1,0-.382Z" transform="translate(-443.003 -536.899)" fill="#fff" style="mix-blend-mode: soft-light;isolation: isolate"/>
        <path id="Trazado_634738" data-name="Trazado 634738" d="M614.375,396.216c8.044-.164,16.088-.234,24.133-.353l24.133-.2c8.044-.085,16.088-.076,24.133-.1l24.133-.059,24.133.067c8.044.041,16.088.018,24.133.11l24.133.219c8.044.13,16.089.206,24.133.381a.128.128,0,0,1,0,.257c-8.044.176-16.089.251-24.133.381l-24.133.218c-8.044.092-16.088.07-24.133.11l-24.133.067-24.133-.059c-8.044-.026-16.089-.017-24.133-.1l-24.133-.2c-8.044-.119-16.088-.189-24.133-.353a.191.191,0,0,1,0-.383Z" transform="translate(-562.94 -363.744)" fill="#fff" style="mix-blend-mode: soft-light;isolation: isolate"/>
        <path id="Trazado_634739" data-name="Trazado 634739" d="M407.263,856.39l36.944-.353,36.944-.2c12.315-.085,24.629-.076,36.944-.1l36.944-.059,73.888.178,36.944.218c12.315.13,24.629.206,36.944.381a.128.128,0,0,1,0,.257c-12.315.176-24.629.252-36.944.381l-36.944.219-73.888.178-36.944-.059c-12.315-.026-24.629-.017-36.944-.1l-36.944-.2-36.944-.353a.191.191,0,0,1,0-.382Z" transform="translate(-407.074 -710.054)" fill="#fff" style="mix-blend-mode: soft-light;isolation: isolate"/>
        <path id="Trazado_634740" data-name="Trazado 634740" d="M455,1086.476c11.33-.164,22.661-.234,33.991-.353l33.991-.2c11.33-.085,22.661-.076,33.991-.1l33.991-.059,67.982.178,33.991.218c11.33.13,22.661.205,33.991.381a.128.128,0,0,1,0,.257c-11.33.175-22.661.251-33.991.381l-33.991.219-67.982.178-33.991-.059c-11.33-.026-22.661-.017-33.991-.1l-33.991-.2c-11.33-.119-22.661-.189-33.991-.353a.191.191,0,0,1,0-.382Z" transform="translate(-443.003 -883.208)" fill="#fff" style="mix-blend-mode: soft-light;isolation: isolate"/>
        <path id="Trazado_634741" data-name="Trazado 634741" d="M825.625,1318.14H632.563a.67.67,0,1,1,0-1.34H825.625a.67.67,0,0,1,0,1.34Z" transform="translate(-576.264 -1057.079)" fill="#fff" style="mix-blend-mode: soft-light;isolation: isolate"/>
      </g>
    </g>
    <g id="Grupo_904980" data-name="Grupo 904980" transform="translate(566.747 133.118)">
      <g id="Grupo_904969" data-name="Grupo 904969" transform="translate(0 4.27)">
        <g id="Grupo_904964" data-name="Grupo 904964">
          <path id="Trazado_634742" data-name="Trazado 634742" d="M1856.963,319.058a.615.615,0,0,1-.377-.633c.035-.336.076-.671.122-1a.615.615,0,1,1,1.217.171c-.044.312-.083.633-.117.954a.615.615,0,0,1-.676.547A.622.622,0,0,1,1856.963,319.058Z" transform="translate(-1856.582 -292.519)" fill="#91b3fa"/>
          <path id="Trazado_634743" data-name="Trazado 634743" d="M1859.846,240.913a.615.615,0,0,1-.361-.72c.158-.622.34-1.248.54-1.86a.615.615,0,1,1,1.168.382c-.192.586-.366,1.185-.517,1.78a.615.615,0,0,1-.747.444A.648.648,0,0,1,1859.846,240.913Zm1.644-4.69-.02-.009a.615.615,0,0,1-.307-.813c.139-.308.286-.619.436-.922q.2-.412.418-.814a.615.615,0,1,1,1.085.578q-.206.386-.4.781c-.144.291-.285.589-.418.884A.615.615,0,0,1,1861.49,236.224Zm2.43-4.334a.615.615,0,0,1-.275-.915c.362-.531.747-1.057,1.143-1.562a.615.615,0,0,1,.967.759c-.38.484-.748.987-1.095,1.5A.615.615,0,0,1,1863.92,231.889Zm3.149-3.844a.615.615,0,0,1-.205-1c.45-.46.922-.91,1.4-1.339a.615.615,0,0,1,.818.917c-.46.41-.911.841-1.343,1.281A.614.614,0,0,1,1867.069,228.045Zm3.779-3.231a.615.615,0,0,1-.123-1.069c.523-.373,1.067-.733,1.615-1.071a.615.615,0,1,1,.644,1.047c-.525.323-1.045.668-1.546,1.025A.614.614,0,0,1,1870.847,224.814Zm4.286-2.517a.615.615,0,0,1-.03-1.124c.58-.275,1.178-.535,1.776-.772a.615.615,0,1,1,.453,1.143c-.573.227-1.145.476-1.7.74A.614.614,0,0,1,1875.133,222.3Zm4.658-1.732a.615.615,0,0,1,.07-1.161c.619-.17,1.252-.322,1.882-.452a.615.615,0,1,1,.247,1.2c-.6.124-1.21.269-1.8.433A.614.614,0,0,1,1879.792,220.564Zm4.886-.9a.615.615,0,0,1,.176-1.181c.639-.06,1.289-.1,1.931-.117a.615.615,0,1,1,.033,1.229c-.615.017-1.237.054-1.849.112A.615.615,0,0,1,1884.678,219.669Zm23.947,9.56a.616.616,0,0,1-.229-.164c-.4-.463-.83-.919-1.266-1.355a.615.615,0,0,1,.87-.869c.454.455.9.931,1.322,1.415a.615.615,0,0,1-.7.973Zm-18.982-9.589a.615.615,0,0,1,.285-1.181c.641.053,1.289.129,1.923.225a.615.615,0,1,1-.184,1.216c-.607-.092-1.226-.164-1.841-.215A.607.607,0,0,1,1889.643,219.64Zm15.4,6.149a.61.61,0,0,1-.151-.089c-.479-.384-.979-.758-1.485-1.111a.615.615,0,1,1,.7-1.009c.528.368,1.05.759,1.551,1.16a.615.615,0,0,1-.618,1.048Zm-10.5-5.3a.615.615,0,0,1,.392-1.162c.62.165,1.244.353,1.853.559a.615.615,0,0,1-.394,1.165c-.583-.2-1.181-.378-1.774-.536A.612.612,0,0,1,1894.538,220.486Zm6.366,2.547a.548.548,0,0,1-.062-.029c-.34-.186-.689-.368-1.037-.539q-.309-.153-.62-.3a.615.615,0,0,1,.518-1.115q.324.151.646.31c.363.179.727.369,1.082.563a.615.615,0,0,1-.528,1.108Z" transform="translate(-1858.752 -218.371)" fill="#91b3fa"/>
          <path id="Trazado_634744" data-name="Trazado 634744" d="M2065.227,269.329a.613.613,0,0,1-.282-.235c-.172-.266-.352-.535-.535-.8a.615.615,0,1,1,1.009-.7c.191.275.379.556.559.834a.615.615,0,0,1-.75.9Z" transform="translate(-2012.902 -255.215)" fill="#91b3fa"/>
        </g>
        <g id="Grupo_904965" data-name="Grupo 904965" transform="translate(3.703 33.633)">
          <path id="Trazado_634745" data-name="Trazado 634745" d="M2082.393,356.442a.615.615,0,0,1-.365-.705c.071-.312.138-.629.2-.941a.615.615,0,0,1,1.208.232c-.063.326-.132.657-.207.983a.615.615,0,0,1-.736.462A.634.634,0,0,1,2082.393,356.442Z" transform="translate(-2029.935 -354.297)" fill="#91b3fa"/>
          <path id="Trazado_634746" data-name="Trazado 634746" d="M1894.522,389.4a.615.615,0,0,1,.435-1.149c.618.214,1.251.409,1.882.578a.615.615,0,1,1-.319,1.188c-.659-.177-1.32-.38-1.965-.6Zm-3.021-1.245-.033-.015-.294-.143c-.517-.255-1.03-.528-1.527-.811a.615.615,0,1,1,.609-1.068c.476.271.968.533,1.463.777l.282.138a.615.615,0,0,1-.5,1.123Zm8.146,2.5a.615.615,0,0,1,.323-1.177c.645.095,1.3.167,1.954.216a.615.615,0,0,1-.091,1.226c-.681-.05-1.367-.126-2.041-.226A.615.615,0,0,1,1899.647,390.653Zm-12.673-5.211a.618.618,0,0,1-.13-.073c-.55-.4-1.093-.833-1.614-1.276a.615.615,0,1,1,.8-.937c.5.424,1.018.835,1.545,1.221a.615.615,0,0,1-.6,1.064Zm17.938,5.485a.615.615,0,0,1,.208-1.183c.652-.027,1.313-.078,1.962-.152a.615.615,0,0,1,.138,1.222c-.678.077-1.367.13-2.049.159A.611.611,0,0,1,1904.911,390.927Zm-21.881-8.993a.616.616,0,0,1-.216-.15c-.465-.5-.918-1.022-1.347-1.554a.615.615,0,0,1,.958-.772c.41.51.844,1.01,1.289,1.488a.615.615,0,0,1-.684.988Zm27.107,8.284a.615.615,0,0,1,.094-1.167c.637-.148,1.276-.32,1.9-.512a.615.615,0,1,1,.362,1.175c-.652.2-1.32.381-1.984.535A.613.613,0,0,1,1910.137,390.218Zm5.006-1.663a.615.615,0,0,1-.013-1.131c.6-.263,1.2-.55,1.774-.854a.615.615,0,0,1,.572,1.088c-.6.318-1.227.618-1.853.892A.612.612,0,0,1,1915.144,388.555Zm4.614-2.56a.608.608,0,0,1-.273-.221.615.615,0,0,1,.16-.855c.54-.369,1.073-.763,1.585-1.169a.615.615,0,1,1,.764.963c-.535.424-1.092.835-1.656,1.221A.614.614,0,0,1,1919.758,385.995Zm4.06-3.373a.615.615,0,0,1-.2-1c.462-.464.912-.949,1.338-1.443a.615.615,0,1,1,.931.8c-.445.516-.915,1.023-1.4,1.508A.615.615,0,0,1,1923.818,382.621Zm3.357-4.07a.615.615,0,0,1-.276-.914c.366-.541.719-1.1,1.046-1.667a.615.615,0,0,1,1.064.616c-.342.591-.71,1.177-1.092,1.741A.615.615,0,0,1,1927.174,378.551Zm2.544-4.622-.012-.005a.615.615,0,0,1-.318-.809q.119-.274.233-.55c.173-.421.338-.852.49-1.282a.615.615,0,1,1,1.159.411c-.159.448-.331.9-.512,1.338q-.118.288-.243.574A.615.615,0,0,1,1929.718,373.93Z" transform="translate(-1878.911 -366.772)" fill="#91b3fa"/>
          <path id="Trazado_634747" data-name="Trazado 634747" d="M1872.436,392.438a.614.614,0,0,1-.286-.241c-.176-.28-.351-.569-.52-.859a.615.615,0,1,1,1.062-.619c.162.278.33.555.5.823a.615.615,0,0,1-.755.9Z" transform="translate(-1871.547 -381.478)" fill="#91b3fa"/>
        </g>
        <g id="Grupo_904968" data-name="Grupo 904968" transform="translate(7.304 7.146)">
          <g id="Grupo_904966" data-name="Grupo 904966">
            <path id="Trazado_634748" data-name="Trazado 634748" d="M1887.556,277.526a.34.34,0,0,0,.313.241l4.133.155a18.013,18.013,0,0,0,3.7,4.513l-.654,4.082a.34.34,0,0,0,.176.353l4.375,2.339a.34.34,0,0,0,.391-.051l3.03-2.811a18.019,18.019,0,0,0,5.809.57l2.425,3.35a.34.34,0,0,0,.374.126l4.748-1.44a.34.34,0,0,0,.241-.313l.155-4.133a18.018,18.018,0,0,0,4.513-3.7l4.082.654a.34.34,0,0,0,.353-.175l2.339-4.375a.339.339,0,0,0-.051-.391l-2.811-3.03a18.015,18.015,0,0,0,.57-5.809l3.35-2.425a.34.34,0,0,0,.126-.374l-1.44-4.748a.34.34,0,0,0-.312-.241l-4.133-.155a18.009,18.009,0,0,0-3.7-4.513l.654-4.082a.34.34,0,0,0-.175-.353l-4.375-2.339a.34.34,0,0,0-.391.051l-3.03,2.811a18.018,18.018,0,0,0-5.809-.57l-2.425-3.35a.34.34,0,0,0-.374-.126l-4.748,1.44a.34.34,0,0,0-.241.313l-.155,4.133a18.02,18.02,0,0,0-4.513,3.7l-4.081-.654a.339.339,0,0,0-.353.175l-2.339,4.375a.34.34,0,0,0,.051.391l2.811,3.03a18.017,18.017,0,0,0-.57,5.809l-3.35,2.425a.34.34,0,0,0-.126.374Z" transform="translate(-1886.102 -247.25)" fill="#91b3fa"/>
          </g>
          <g id="Grupo_904967" data-name="Grupo 904967" transform="translate(16.681 16.681)">
            <path id="Trazado_634749" data-name="Trazado 634749" d="M1956.542,324.088a4.909,4.909,0,1,1,.69.226A4.984,4.984,0,0,1,1956.542,324.088Zm3.367-8.143a3.966,3.966,0,0,0-.552-.181,3.9,3.9,0,1,0,.552.181Z" transform="translate(-1953.515 -314.663)" fill="#bdd0fb"/>
          </g>
          <path id="Trazado_634750" data-name="Trazado 634750" d="M1931.911,308.459a12.319,12.319,0,0,1-3.275-1.991.246.246,0,0,1-.069-.281.246.246,0,0,1,.387-.094,11.737,11.737,0,0,0,18.448-4.5,11.726,11.726,0,0,0-21.2-9.963,11.829,11.829,0,0,0-.508,1.077,11.692,11.692,0,0,0-.865,5.016.239.239,0,0,1-.018.105.246.246,0,0,1-.473-.081,12.218,12.218,0,1,1,7.569,10.714Z" transform="translate(-1914.869 -275.615)" fill="#bdd0fb"/>
        </g>
      </g>
      <g id="Grupo_904974" data-name="Grupo 904974" transform="translate(60.537)">
        <g id="Grupo_904970" data-name="Grupo 904970" transform="translate(3.569 3.636)">
          <path id="Trazado_634751" data-name="Trazado 634751" d="M2116.875,233.564l2.315-.1a10.094,10.094,0,0,0,2.268,2.357l-.184,2.309a.19.19,0,0,0,.114.19l2.548,1.112a.19.19,0,0,0,.216-.046l1.568-1.7a10.093,10.093,0,0,0,3.27.06l1.5,1.764a.19.19,0,0,0,.214.054l2.588-1.015a.191.191,0,0,0,.121-.185l-.1-2.315a10.1,10.1,0,0,0,2.356-2.268l2.309.184a.19.19,0,0,0,.189-.114l1.112-2.548a.19.19,0,0,0-.046-.216l-1.7-1.568a10.09,10.09,0,0,0,.061-3.27l1.763-1.5a.19.19,0,0,0,.054-.214l-1.015-2.588a.19.19,0,0,0-.185-.121l-2.315.1a10.1,10.1,0,0,0-2.268-2.357l.184-2.309a.19.19,0,0,0-.113-.19l-2.548-1.112a.19.19,0,0,0-.216.046l-1.568,1.7a10.093,10.093,0,0,0-3.27-.061l-1.5-1.763a.19.19,0,0,0-.214-.054l-2.588,1.015a.191.191,0,0,0-.121.185l.1,2.316a10.093,10.093,0,0,0-2.357,2.268l-2.309-.184a.19.19,0,0,0-.189.114l-1.112,2.548a.191.191,0,0,0,.046.216l1.7,1.568a10.09,10.09,0,0,0-.061,3.27l-1.763,1.5a.19.19,0,0,0-.053.214l1.015,2.588A.19.19,0,0,0,2116.875,233.564Z" transform="translate(-2115.662 -215.81)" fill="#91b3fa"/>
        </g>
        <g id="Grupo_904971" data-name="Grupo 904971" transform="translate(12.737 12.803)">
          <path id="Trazado_634752" data-name="Trazado 634752" d="M2154.4,258.085a2.718,2.718,0,1,1,.588.167h0A2.716,2.716,0,0,1,2154.4,258.085Zm.628-.076h0Zm1.253-4.49a2.249,2.249,0,0,0-.485-.138,2.222,2.222,0,0,0-.727,4.385h0a2.223,2.223,0,0,0,1.212-4.247Z" transform="translate(-2152.713 -252.86)" fill="#bdd0fb"/>
        </g>
        <g id="Grupo_904972" data-name="Grupo 904972">
          <path id="Trazado_634753" data-name="Trazado 634753" d="M2101.961,270.966a.614.614,0,0,1-.37-.453c-.065-.335-.118-.675-.16-1.012a.615.615,0,1,1,1.22-.152c.038.31.088.623.147.931a.615.615,0,0,1-.837.685Z" transform="translate(-2101.379 -252.061)" fill="#91b3fa"/>
          <path id="Trazado_634754" data-name="Trazado 634754" d="M2101.62,215.808a.615.615,0,0,1-.378-.627c.034-.36.082-.725.141-1.085.054-.324.118-.65.192-.967a.615.615,0,0,1,1.2.277c-.067.293-.127.593-.177.892-.055.332-.1.668-.13,1a.615.615,0,0,1-.846.51Zm1.389-5.032-.032-.014a.615.615,0,0,1-.29-.82,15.48,15.48,0,0,1,1.021-1.813.615.615,0,1,1,1.028.674,14.213,14.213,0,0,0-.94,1.668A.615.615,0,0,1,2103.008,210.777Zm3.042-4.242a.615.615,0,0,1-.195-1.009,15.665,15.665,0,0,1,1.583-1.348.615.615,0,0,1,.733.987,14.4,14.4,0,0,0-1.458,1.242A.615.615,0,0,1,2106.05,206.535Zm4.317-2.934a.615.615,0,0,1-.018-1.129,15.569,15.569,0,0,1,1.949-.722.615.615,0,1,1,.349,1.179,14.364,14.364,0,0,0-1.794.665A.612.612,0,0,1,2110.367,203.6Zm5.062-1.267a.615.615,0,0,1,.191-1.182,15.544,15.544,0,0,1,2.079,0,.615.615,0,0,1-.081,1.227,14.37,14.37,0,0,0-1.914,0A.612.612,0,0,1,2115.429,202.334Zm5.188.559a.615.615,0,0,1,.405-1.159,15.516,15.516,0,0,1,1.955.711.615.615,0,0,1-.5,1.124,14.275,14.275,0,0,0-1.8-.654A.617.617,0,0,1,2120.617,202.893Z" transform="translate(-2101.239 -201.116)" fill="#91b3fa"/>
          <path id="Trazado_634755" data-name="Trazado 634755" d="M2198.128,214.681a.615.615,0,0,1-.164-.1c-.239-.2-.487-.4-.739-.585a.615.615,0,0,1,.731-.988c.273.2.543.416.8.636a.615.615,0,0,1-.631,1.038Z" transform="translate(-2173.287 -209.974)" fill="#91b3fa"/>
        </g>
        <g id="Grupo_904973" data-name="Grupo 904973" transform="translate(4.697 13.332)">
          <path id="Trazado_634756" data-name="Trazado 634756" d="M2221.552,257.16a.615.615,0,0,1-.381-.545c-.012-.312-.035-.628-.068-.94a.615.615,0,1,1,1.223-.129c.036.339.061.682.074,1.021a.615.615,0,0,1-.848.593Z" transform="translate(-2196.138 -254.995)" fill="#91b3fa"/>
          <path id="Trazado_634757" data-name="Trazado 634757" d="M2135.489,284.19c-.364-.149-.726-.315-1.077-.492a.615.615,0,0,1,.553-1.1,14.249,14.249,0,0,0,1.734.734.615.615,0,0,1-.4,1.161C2136.025,284.4,2135.754,284.3,2135.489,284.19Zm3.882,1.012a.615.615,0,0,1,.308-1.179,14.335,14.335,0,0,0,1.88.106.615.615,0,1,1,.012,1.229,15.541,15.541,0,0,1-2.042-.115A.6.6,0,0,1,2139.37,285.2Zm5.127-.265a.615.615,0,0,1,.1-1.168,14.309,14.309,0,0,0,1.8-.542.615.615,0,0,1,.431,1.151,15.536,15.536,0,0,1-1.958.589A.612.612,0,0,1,2144.5,284.938Zm4.728-2a.615.615,0,0,1-.1-1.085,14.509,14.509,0,0,0,1.514-1.121.615.615,0,1,1,.794.938,15.607,15.607,0,0,1-1.643,1.217A.614.614,0,0,1,2149.226,282.943Zm3.779-3.478a.615.615,0,0,1-.255-.943,14.272,14.272,0,0,0,1.044-1.568.615.615,0,1,1,1.066.612,15.488,15.488,0,0,1-1.135,1.7A.615.615,0,0,1,2153,279.465Zm2.369-4.557a.615.615,0,0,1-.352-.753,14.48,14.48,0,0,0,.447-1.831.615.615,0,0,1,1.211.214,15.73,15.73,0,0,1-.486,1.986.615.615,0,0,1-.771.4Z" transform="translate(-2130.646 -267.655)" fill="#91b3fa"/>
          <path id="Trazado_634758" data-name="Trazado 634758" d="M2121.343,307.314a.62.62,0,0,1-.155-.092c-.263-.214-.523-.44-.772-.672a.615.615,0,1,1,.837-.9c.229.214.469.422.711.619a.615.615,0,0,1-.622,1.046Z" transform="translate(-2120.22 -292.992)" fill="#91b3fa"/>
        </g>
        <path id="Trazado_634759" data-name="Trazado 634759" d="M2139.893,249.119l-.142-.06h0a7.038,7.038,0,0,1-1.287-.732.247.247,0,0,1-.084-.293.263.263,0,0,1,.028-.05.246.246,0,0,1,.343-.056,6.518,6.518,0,0,0,1.2.68,6.461,6.461,0,0,0,8.506-3.337c.019-.044.038-.088.056-.132a6.461,6.461,0,0,0-11.9-5.037c-.019.043-.037.086-.055.129a6.448,6.448,0,0,0-.433,3.278.247.247,0,0,1-.212.275.246.246,0,0,1-.275-.213,6.946,6.946,0,0,1,.466-3.527q.029-.07.059-.139a6.953,6.953,0,0,1,12.805,5.42q-.029.072-.06.143a6.953,6.953,0,0,1-9.011,3.652Z" transform="translate(-2127.081 -227.168)" fill="#bdd0fb"/>
      </g>
      <g id="Grupo_904979" data-name="Grupo 904979" transform="translate(42.315 4.002)">
        <g id="Grupo_904975" data-name="Grupo 904975">
          <path id="Trazado_634760" data-name="Trazado 634760" d="M2027.746,248.257a.246.246,0,0,1-.151-.253c.022-.209.051-.419.088-.626a.246.246,0,1,1,.484.085c-.034.2-.062.394-.083.592a.246.246,0,0,1-.338.2Z" transform="translate(-2027.593 -239.781)" fill="#91b3fa"/>
          <path id="Trazado_634761" data-name="Trazado 634761" d="M2029.275,223.973a.246.246,0,0,1-.14-.3c.073-.229.157-.458.249-.68q.1-.244.216-.485a.246.246,0,1,1,.443.213q-.109.228-.2.459c-.087.211-.166.428-.235.644a.246.246,0,0,1-.31.159Zm1.054-2.2a.235.235,0,0,1-.042-.022.246.246,0,0,1-.07-.341,9.218,9.218,0,0,1,.76-1,.246.246,0,1,1,.37.324,8.7,8.7,0,0,0-.719.945A.245.245,0,0,1,2030.329,221.776Zm1.606-1.833a.246.246,0,0,1-.067-.413,9.163,9.163,0,0,1,1-.755.246.246,0,1,1,.268.412,8.709,8.709,0,0,0-.949.714A.247.247,0,0,1,2031.934,219.943Zm2.044-1.328a.246.246,0,0,1-.011-.45,9.28,9.28,0,0,1,1.169-.456.246.246,0,0,1,.147.469,8.849,8.849,0,0,0-1.107.432A.245.245,0,0,1,2033.978,218.615Zm2.325-.729a.246.246,0,0,1,.052-.47,9.2,9.2,0,0,1,1.248-.125.246.246,0,1,1,.015.492,8.691,8.691,0,0,0-1.181.118A.243.243,0,0,1,2036.3,217.886Zm7.835,2.521a.245.245,0,0,1-.081-.054,8.691,8.691,0,0,0-.892-.784.246.246,0,0,1,.3-.391,9.141,9.141,0,0,1,.943.829.246.246,0,0,1-.268.4Zm-5.4-2.6a.246.246,0,0,1,.12-.472,9.09,9.09,0,0,1,1.235.218.246.246,0,1,1-.119.477,8.658,8.658,0,0,0-1.169-.207A.251.251,0,0,1,2038.737,217.811Zm3.465,1.118-.028-.014q-.216-.122-.442-.234c-.182-.09-.369-.175-.555-.251l-.074-.03a.246.246,0,0,1,.183-.457l.078.032c.2.081.394.17.586.265q.238.118.466.247a.246.246,0,0,1-.215.442Z" transform="translate(-2028.745 -217.292)" fill="#91b3fa"/>
          <path id="Trazado_634762" data-name="Trazado 634762" d="M2092.947,232.723a.243.243,0,0,1-.113-.094c-.107-.167-.222-.332-.341-.49a.246.246,0,0,1,.394-.294c.126.168.247.342.36.518a.246.246,0,0,1-.3.361Z" transform="translate(-2076.397 -228.169)" fill="#91b3fa"/>
        </g>
        <g id="Grupo_904976" data-name="Grupo 904976" transform="translate(1.169 10.616)">
          <path id="Trazado_634763" data-name="Trazado 634763" d="M2098.613,261.267a.246.246,0,0,1-.144-.29c.051-.191.1-.387.133-.583a.246.246,0,1,1,.483.093c-.04.207-.087.413-.141.616a.246.246,0,0,1-.3.175Z" transform="translate(-2082.094 -260.195)" fill="#91b3fa"/>
          <path id="Trazado_634764" data-name="Trazado 634764" d="M2039.686,272.377l-.011,0c-.066-.03-.131-.062-.2-.094a9.25,9.25,0,0,1-.886-.5.246.246,0,0,1,.265-.414,8.834,8.834,0,0,0,.839.473l.186.089a.246.246,0,0,1-.2.451Zm1.12.433a.246.246,0,0,1,.167-.462,8.645,8.645,0,0,0,1.136.271.246.246,0,0,1-.082.485,9.125,9.125,0,0,1-1.2-.287Zm-3.14-1.725a.248.248,0,0,1-.066-.04,9.117,9.117,0,0,1-.885-.861.246.246,0,1,1,.365-.329,8.677,8.677,0,0,0,.838.814.246.246,0,0,1-.252.415Zm5.5,2.123a.246.246,0,0,1,.1-.473,8.664,8.664,0,0,0,1.167-.042.246.246,0,1,1,.051.489,9.2,9.2,0,0,1-1.233.045A.252.252,0,0,1,2043.17,273.208Zm2.383-.247a.246.246,0,0,1,.035-.467,8.8,8.8,0,0,0,1.115-.35.246.246,0,1,1,.178.458,9.275,9.275,0,0,1-1.177.37A.246.246,0,0,1,2045.553,272.961Zm2.233-.869a.246.246,0,0,1-.025-.443,8.72,8.72,0,0,0,.982-.632.246.246,0,0,1,.293.394,9.132,9.132,0,0,1-1.038.669A.246.246,0,0,1,2047.786,272.091Zm1.924-1.431a.233.233,0,0,1-.082-.055.246.246,0,0,1,0-.348,8.613,8.613,0,0,0,.778-.872.246.246,0,1,1,.388.3,9.2,9.2,0,0,1-.822.922A.246.246,0,0,1,2049.71,270.66Zm1.471-1.893-.031-.015a.246.246,0,0,1-.089-.336c.1-.169.192-.344.279-.52s.165-.349.239-.527a.246.246,0,0,1,.32-.133h0a.246.246,0,0,1,.133.321c-.078.188-.163.375-.253.556s-.191.371-.295.549A.245.245,0,0,1,2051.181,268.767Z" transform="translate(-2035.58 -265.48)" fill="#91b3fa"/>
          <path id="Trazado_634765" data-name="Trazado 634765" d="M2032.8,272.59a.242.242,0,0,1-.11-.09c-.118-.173-.231-.353-.336-.534a.246.246,0,0,1,.425-.247c.1.172.207.342.318.506a.246.246,0,0,1-.3.365Z" transform="translate(-2032.317 -268.776)" fill="#91b3fa"/>
        </g>
        <g id="Grupo_904977" data-name="Grupo 904977" transform="translate(2.358 2.307)">
          <path id="Trazado_634766" data-name="Trazado 634766" d="M2037.58,236.17a.108.108,0,0,0,.1.076l1.3.049a5.692,5.692,0,0,0,1.168,1.425l-.206,1.288a.107.107,0,0,0,.055.111l1.381.738a.108.108,0,0,0,.124-.016l.957-.887a5.691,5.691,0,0,0,1.834.18l.766,1.058a.108.108,0,0,0,.118.04l1.5-.455a.107.107,0,0,0,.076-.1l.049-1.3a5.688,5.688,0,0,0,1.425-1.168l1.289.206a.107.107,0,0,0,.112-.055l.738-1.381a.107.107,0,0,0-.016-.123l-.887-.957a5.7,5.7,0,0,0,.18-1.834l1.057-.766a.107.107,0,0,0,.04-.118l-.455-1.5a.107.107,0,0,0-.1-.076l-1.3-.049a5.68,5.68,0,0,0-1.168-1.425l.206-1.288a.107.107,0,0,0-.055-.112l-1.381-.738a.107.107,0,0,0-.124.016l-.957.887a5.691,5.691,0,0,0-1.834-.18l-.766-1.058a.107.107,0,0,0-.118-.04l-1.5.455a.108.108,0,0,0-.076.1l-.049,1.3a5.68,5.68,0,0,0-1.425,1.169l-1.288-.206a.107.107,0,0,0-.112.055l-.738,1.381a.107.107,0,0,0,.016.123l.887.957a5.686,5.686,0,0,0-.18,1.834l-1.057.766a.107.107,0,0,0-.04.118Z" transform="translate(-2037.121 -226.613)" fill="#91b3fa"/>
        </g>
        <g id="Grupo_904978" data-name="Grupo 904978" transform="translate(7.533 7.482)">
          <path id="Trazado_634767" data-name="Trazado 634767" d="M2059.051,250.679a1.636,1.636,0,1,1,.228.075h0A1.634,1.634,0,0,1,2059.051,250.679Zm.287-.164h0Zm.773-2.408a1.171,1.171,0,0,0-.161-.053,1.145,1.145,0,1,0-.552,2.222h0a1.145,1.145,0,0,0,1.257-1.7A1.135,1.135,0,0,0,2060.111,248.107Z" transform="translate(-2058.037 -247.529)" fill="#bdd0fb"/>
        </g>
        <path id="Trazado_634768" data-name="Trazado 634768" d="M2051.006,245.58q-.187-.077-.37-.174h0l-.007,0a4.058,4.058,0,0,1-.7-.477.246.246,0,0,1-.069-.281.255.255,0,0,1,.04-.066.246.246,0,0,1,.347-.028,3.581,3.581,0,0,0,.622.423h0a3.535,3.535,0,0,0,4.753-1.4l.028-.052q.086-.161.155-.328a3.533,3.533,0,1,0-6.8-1.167.246.246,0,0,1-.491.024,4.015,4.015,0,0,1,.3-1.722q.078-.189.174-.37a4.025,4.025,0,0,1,7.275,3.421,4.075,4.075,0,0,1-.176.373A4.03,4.03,0,0,1,2051.006,245.58Z" transform="translate(-2043.333 -232.749)" fill="#bdd0fb"/>
      </g>
    </g>
    <g id="Grupo_904981" data-name="Grupo 904981" transform="translate(142.656 318.359)">
      <path id="Trazado_634769" data-name="Trazado 634769" d="M184.526,1079.207c-.015.088.121.12.16.04,1.64-3.36,15.556-32.77,9.46-51.189-6.15-18.581-42-50.743-34.109-77.482a.638.638,0,0,0-1.13-.552c-7.242,10.118-25.336,39.68-10.688,65.218C166.186,1046.567,194.932,1019.28,184.526,1079.207Z" transform="translate(-142.656 -949.754)" fill="#bdd0fb"/>
      <path id="Trazado_634770" data-name="Trazado 634770" d="M188.9,1023.257a20.724,20.724,0,0,0-2.274,5.6,29.845,29.845,0,0,0-.573,2.975,28.276,28.276,0,0,0-.211,3.03,26.963,26.963,0,0,0,.58,6.054,30.874,30.874,0,0,0,1.817,5.807,34.531,34.531,0,0,0,2.835,5.361c.53.861,1.124,1.674,1.707,2.5.3.4.615.8.922,1.194l.464.595.487.57a68.95,68.95,0,0,0,8.51,8.378c3.023,2.552,6.183,4.856,8.913,7.491a30.127,30.127,0,0,1,3.7,4.242,26.169,26.169,0,0,1,2.724,4.906,34.577,34.577,0,0,1,1.752,5.41l.315,1.4c.1.469.171.944.262,1.415.191.941.3,1.9.439,2.854a101.2,101.2,0,0,1,.69,11.618v.01a.546.546,0,0,0,1.091.019l.135-2.947c.032-.984.032-1.969.048-2.955-.005-.986-.031-1.973-.049-2.961-.062-.987-.1-1.976-.183-2.964a42.419,42.419,0,0,0-2.478-11.721,28.282,28.282,0,0,0-2.829-5.406,30.765,30.765,0,0,0-3.9-4.675c-1.43-1.422-2.943-2.721-4.453-3.983s-3.018-2.5-4.493-3.747a66.276,66.276,0,0,1-8.167-8.1,41.2,41.2,0,0,1-6.165-9.5,29.7,29.7,0,0,1-2.7-10.892,26.222,26.222,0,0,1,.948-8.436,18.556,18.556,0,0,1,.954-2.663l.014-.03a.476.476,0,0,0-.838-.45Z" transform="translate(-175.151 -1004.897)" fill="#fff" opacity="0.47"/>
    </g>
    <g id="Grupo_904985" data-name="Grupo 904985" transform="translate(212.539 217.177)">
      <g id="Grupo_904983" data-name="Grupo 904983" transform="translate(0)">
        <path id="Trazado_634771" data-name="Trazado 634771" d="M759.811,656.253c-27.959-26.518-75.267-49.456-116.766-49.514l-3.57,43.476q1.668-.049,3.348-.052c34.553,0,68.088,19.485,88.515,44.173,5.658-11.9,17.382-19.727,22.9-31.821Z" transform="translate(-586.426 -590.431)" fill="url(#linear-gradient-3)"/>
        <path id="Trazado_634772" data-name="Trazado 634772" d="M514.778,540.833,447.6,573.476l9.553,7.143H517.81l2.874-37.983Z" transform="translate(-442.029 -540.833)" fill="url(#linear-gradient-4)"/>
        <g id="Grupo_904982" data-name="Grupo 904982">
          <path id="Trazado_634773" data-name="Trazado 634773" d="M497.833,540.833l-6.443,84.958-66.008-48.819a.736.736,0,0,1,.118-1.254Z" transform="translate(-425.083 -540.833)" fill="url(#linear-gradient-5)"/>
          <path id="Trazado_634774" data-name="Trazado 634774" d="M708.286,724.249c6.249-14.178,17.852-42.789,27.834-54.4-28.41-30.187-73.629-52.52-118.348-52.582l-3.57,43.476q1.668-.049,3.348-.051C654,660.694,701.929,686.763,708.286,724.249Z" transform="translate(-567.407 -598.356)" fill="url(#linear-gradient-6)"/>
        </g>
      </g>
      <g id="Grupo_904984" data-name="Grupo 904984" transform="translate(70.452 25.927)">
        <path id="Trazado_634775" data-name="Trazado 634775" d="M965.9,756.22a.234.234,0,0,1-.181-.085c-7.878-9.547-19.779-18.983-34.414-27.288a.235.235,0,1,1,.232-.409c14.684,8.333,26.63,17.807,34.544,27.4a.235.235,0,0,1-.181.385Z" transform="translate(-876.412 -707.922)" fill="#91b3fa"/>
        <path id="Trazado_634776" data-name="Trazado 634776" d="M827.419,681.685a.232.232,0,0,1-.11-.027,192.1,192.1,0,0,0-27.8-12.015.235.235,0,0,1,.151-.445,192.582,192.582,0,0,1,27.866,12.044.235.235,0,0,1-.11.442Z" transform="translate(-777.196 -663.353)" fill="#91b3fa"/>
        <path id="Trazado_634777" data-name="Trazado 634777" d="M726.586,650.109a.234.234,0,0,1-.068-.01A144.336,144.336,0,0,0,710,646.082a.235.235,0,0,1,.082-.463,144.823,144.823,0,0,1,16.569,4.031.235.235,0,0,1-.068.46Z" transform="translate(-709.809 -645.616)" fill="#91b3fa"/>
      </g>
    </g>
    <g id="Grupo_904988" data-name="Grupo 904988" transform="translate(341.135 110.76)">
      <g id="Grupo_904987" data-name="Grupo 904987">
        <path id="Trazado_634778" data-name="Trazado 634778" d="M1010.718,111.994l-7.811-.782,1.847,3.812-36.012,62.181h64.545l14.142,4.153,6.163-3.441Z" transform="translate(-962.816 -111.1)" fill="url(#linear-gradient-7)"/>
        <path id="Trazado_634779" data-name="Trazado 634779" d="M1053.447,355.138V435.11c7.047,5.757,7.915,28.335,14.328,35.356,7.118-6.935,20.67-21.586,29.6-26.9V355.138Z" transform="translate(-1026.562 -294.67)" fill="url(#linear-gradient-8)"/>
        <g id="Grupo_904986" data-name="Grupo 904986">
          <path id="Trazado_634780" data-name="Trazado 634780" d="M945.594,181.094h83.812l-44.139-70.229a.224.224,0,0,0-.383.007L944.9,179.891A.8.8,0,0,0,945.594,181.094Z" transform="translate(-944.792 -110.76)" fill="url(#linear-gradient-9)"/>
          <path id="Trazado_634781" data-name="Trazado 634781" d="M1021.171,372.225v94.444c7.986,5.757,14.05,14,20.463,21.017,7.118-6.935,15.475-21.156,24.166-26.642V372.225Z" transform="translate(-1002.272 -307.529)" fill="url(#linear-gradient-10)"/>
        </g>
      </g>
      <path id="Trazado_634782" data-name="Trazado 634782" d="M978.013,198.275H963.951a.752.752,0,0,1-.655-1.119l34.192-60.948a.235.235,0,1,1,.41.23l-34.192,60.948a.282.282,0,0,0,.246.42h14.062a.235.235,0,1,1,0,.47Z" transform="translate(-958.644 -129.82)" fill="#91b3fa"/>
    </g>
    <g id="Grupo_904989" data-name="Grupo 904989" transform="translate(286.409 280.341)">
      <path id="Trazado_634783" data-name="Trazado 634783" d="M785.617,920.385c1.2,19.176,1.778,34.012,2.05,44.145a1.353,1.353,0,0,0,1.353,1.316h0a1.755,1.755,0,0,0,1.756-1.733c.318-25.028.275-72.317-3.938-98.774-9.671-60.726-42.408-34.068-55.55-68.232a1.565,1.565,0,0,0-2.942.061c-4.2,12.559-13.558,50.253,16.685,70.156C781.677,891.442,783.183,881.633,785.617,920.385Z" transform="translate(-723.62 -796.107)" fill="#91b3fa"/>
      <path id="Trazado_634784" data-name="Trazado 634784" d="M748.6,818.01a23.543,23.543,0,0,0,1.675,6.419,33.889,33.889,0,0,0,3.143,5.848,40.275,40.275,0,0,0,9.223,9.483,62.638,62.638,0,0,0,5.564,3.7l2.936,1.8c.968.618,1.912,1.275,2.869,1.911a80.925,80.925,0,0,1,10.683,8.739,68.265,68.265,0,0,1,8.721,10.725l1.789,2.963c.315.484.551,1.012.818,1.523l.782,1.542.781,1.542.669,1.593c.435,1.066.906,2.118,1.31,3.194l1.092,3.272c.169.549.391,1.082.517,1.643l.427,1.668c.278,1.114.581,2.222.815,3.343l.6,3.386.3,1.691.189,1.706.37,3.41c.075.567.1,1.138.122,1.708l.07,1.712.136,3.42a.4.4,0,0,1-.79.051l0-.024-.292-3.382-.144-1.69c-.041-.564-.085-1.127-.179-1.685l-.481-3.353-.243-1.674-.35-1.655-.7-3.306c-.266-1.093-.609-2.166-.9-3.253l-.451-1.625c-.133-.547-.362-1.063-.538-1.6L798,879.587c-.416-1.041-.9-2.055-1.341-3.084l-.682-1.536-.791-1.482L794.4,872c-.269-.49-.507-1-.823-1.461l-1.793-2.836a68.777,68.777,0,0,0-8.567-10.289,83.186,83.186,0,0,0-10.432-8.452c-.937-.619-1.86-1.258-2.808-1.86l-2.881-1.754a62.827,62.827,0,0,1-5.747-3.892,38.622,38.622,0,0,1-9.369-10.257,33.2,33.2,0,0,1-1.629-3.091,16.2,16.2,0,0,1-.691-1.6c-.192-.55-.431-1.08-.582-1.644a26.888,26.888,0,0,1-.843-3.378,16.592,16.592,0,0,1-.3-3.483.337.337,0,0,1,.672-.029Z" transform="translate(-741.912 -812.336)" fill="#fff" opacity="0.47"/>
    </g>
    <g id="Grupo_904990" data-name="Grupo 904990" transform="translate(351.253 211.966)">
      <path id="Trazado_634785" data-name="Trazado 634785" d="M1173.444,612.307c-64.409.088-119.558,36.193-143.4,93.271h0s0,.016,0,.017c-.022.05-.044.106-.066.156l.029,0c-12.514,27.489-5.01,74.018-4.024,121.726l42.9,0h1.832a3.428,3.428,0,0,0,3.423-3.613c-1.949-36.164-3.628-72.548,1.493-102.928a54.8,54.8,0,0,1,12.121-26.155A111.948,111.948,0,0,1,1173.666,655c1.12,0,2.236-.012,3.348.02Z" transform="translate(-1013.653 -589.411)" fill="url(#linear-gradient-11)"/>
      <path id="Trazado_634786" data-name="Trazado 634786" d="M1136.357,597.181a1.057,1.057,0,0,0-1.058-.97c-63.989.457-118.7,36.952-142.426,95.016h0v0l-.066.152h.029c-12.32,27.567-5.238,73.931-4.075,121.733a2.311,2.311,0,0,0,2.308,2.257h45.319a1.056,1.056,0,0,0,1.053-1.111c-2.055-39.524-4.421-74.283.969-107.133A56.936,56.936,0,0,1,1050.748,680a111.131,111.131,0,0,1,85.751-40.316c.732,0,1.463,0,2.192.005a1.053,1.053,0,0,0,1.061-1.139Z" transform="translate(-985.682 -577.297)" fill="url(#linear-gradient-12)"/>
      <path id="Trazado_634787" data-name="Trazado 634787" d="M1598.465,577.015l.166-.123-1.592-8.792-.151-.073-.028-.161-.157.072-64.936-31.317,4.479,59.061-1.132.519-5.242,21.209,6.675,5.368,1.661-1.227,0,.028,60.2-44.521.058-.043Z" transform="translate(-1395.219 -532.453)" fill="url(#linear-gradient-13)"/>
      <path id="Trazado_634788" data-name="Trazado 634788" d="M1503.834,519.773l6.443,84.958,66.988-49.544Z" transform="translate(-1375.624 -519.773)" fill="url(#linear-gradient-14)"/>
    </g>
    <g id="Grupo_904997" data-name="Grupo 904997" transform="translate(321.262 178.758)">
      <g id="Grupo_904992" data-name="Grupo 904992" transform="translate(0 47.576)">
        <path id="Trazado_634789" data-name="Trazado 634789" d="M1490.507,783.159c-3.492-5.232-7.593-6.973-13.67-6.271-12.772,1.476-24.893,7.727-37.286,10.913-8.44,2.169-17.32,3.583-26.018,2.275q-4.241-.682-8.442-1.237l-.193-.027a408.826,408.826,0,0,0-73.584-2.541,33.7,33.7,0,0,0-9.067,1.788c-31.723,10.992-61.013,25.611-80.164,16.959-4.439,5.893-2.982,17.694-6.1,38.3,34.861,25.946,74.474,2.14,88.811-1.065-3.138,23.287-3.623,58.05,5.263,106.413a4.481,4.481,0,0,0,1.74,2.813c11.466,8.39,51.687,11.868,77.933-.024a4.717,4.717,0,0,0,2.739-3.927c1.753-21.867,6.961-60.309,16.872-88.552,8.993-3.992,17.385-8.9,26.027-13.477a100.494,100.494,0,0,0,24.11-17.82c6.928-6.947,12.994-15.292,14.765-24.941A27,27,0,0,0,1490.507,783.159Z" transform="translate(-1144.063 -727.525)" fill="url(#linear-gradient-15)"/>
        <g id="Grupo_904991" data-name="Grupo 904991">
          <path id="Trazado_634790" data-name="Trazado 634790" d="M864.786,577.844s29.208,6.442,46.973,14.644a16.221,16.221,0,0,1,7.945,7.988c5.313,11.638,19.567,43.132,50.4,57.06-4.44,5.893-9.946,15.841-13.06,36.442-18.516-13.781-34.5-36.8-42.175-74.54a15.061,15.061,0,0,1-13.134-.364c-3.852-1.871-8.3-4.524-11.637-6.611a15.252,15.252,0,0,1-6.766-9.086c-1.27-4.984-.522-9.367-.522-14.07l-15.013-4.651A5.339,5.339,0,0,1,864.786,577.844Z" transform="translate(-864.478 -577.844)" fill="url(#linear-gradient-16)"/>
          <path id="Trazado_634791" data-name="Trazado 634791" d="M983.067,661.636a.234.234,0,0,1-.182-.087c-.106-.131-10.658-13.083-14.252-15.114-1.8-1.018-2.815-2.093-3.1-3.287a3.9,3.9,0,0,1,.8-3.117.235.235,0,0,1,.241-.1l12.75,2.555a.234.234,0,0,1,.107.052l6.778,5.818a.235.235,0,1,1-.306.356l-6.732-5.777-12.534-2.512a3.362,3.362,0,0,0-.642,2.616c.247,1.045,1.212,2.05,2.87,2.986,3.67,2.074,13.95,14.69,14.385,15.227a.235.235,0,0,1-.182.383Z" transform="translate(-940.471 -624.566)" fill="url(#linear-gradient-17)"/>
        </g>
      </g>
      <g id="Grupo_904995" data-name="Grupo 904995" transform="translate(214.561 0)">
        <g id="Grupo_904994" data-name="Grupo 904994">
          <path id="Trazado_634792" data-name="Trazado 634792" d="M1813.561,663.222s2.844,32.379,5.651,42.351c.426,1.513-2.295,4.362-3.669,5.147-4.765,2.723-18.5,5.457-30.116.172-2.567-1.168-3.355-4.471-3.237-7.265l1.377-32.577Z" transform="translate(-1769.666 -594.52)" fill="url(#linear-gradient-18)"/>
          <g id="Grupo_904993" data-name="Grupo 904993">
            <path id="Trazado_634793" data-name="Trazado 634793" d="M1749.953,488.919s-10.2,23.427-10.883,35.723-3.335,20.275,10.883,22.751,26.195-4.607,32.683-16.855c0,0,10.167-18.873,7.886-26.6S1749.953,488.919,1749.953,488.919Z" transform="translate(-1736.739 -463.346)" fill="url(#linear-gradient-19)"/>
            <path id="Trazado_634794" data-name="Trazado 634794" d="M1772.648,443.955l-.809-.357a1.951,1.951,0,0,1-.954-2.681c2-3.874,5.913-12.75.864-14.821-6.507-2.669-32.282-7.925-37.843-17.071-5.345-8.79-.609-20.137,6.508-23.364a.98.98,0,0,1,1.282.418l.593,1.122a.966.966,0,0,0,1.782-.183h0a.961.961,0,0,1,1.739-.249c1.709,2.736,6.324,7.172,18.666,9.45,17.54,3.237,29.136,10.335,29.425,22.455a.967.967,0,0,0,1.495.8c1.3-.789,3.368-1.159,6.137,1.169,4.817,4.051,2.846,14.557-7.714,23.2a.96.96,0,0,0,.046,1.547c1.914,1.246,4.768,4.212-2.626,8.164-7.649,4.089-13.36,3.753-15.559,3.39a.962.962,0,0,1-.78-1.161l2.348-10.653a.966.966,0,0,0-.943-1.174Z" transform="translate(-1731.609 -385.569)" fill="url(#linear-gradient-20)"/>
            <path id="Trazado_634795" data-name="Trazado 634795" d="M1895.678,595.6s3.891-14.965,10.6-10.769-3.482,16.767-8.876,17.327Z" transform="translate(-1855.081 -534.97)" fill="url(#linear-gradient-21)"/>
          </g>
        </g>
        <path id="Trazado_634796" data-name="Trazado 634796" d="M1828.932,430.831a.118.118,0,0,1-.117-.112c-.519-10.687-14.968-15.75-27.717-20.216-8.872-3.108-17.251-6.044-19.364-10.461a.118.118,0,0,1,.212-.1c2.071,4.329,10.405,7.249,19.229,10.341,12.818,4.491,27.347,9.581,27.873,20.426a.117.117,0,0,1-.112.123Z" transform="translate(-1769.323 -396.335)" fill="#91b3fa"/>
      </g>
      <g id="Grupo_904996" data-name="Grupo 904996" transform="translate(198.366 24.801)">
        <path id="Trazado_634797" data-name="Trazado 634797" d="M1733.242,514.678l-37.075,3.652s31.8,8.97,34.139,5.761c0,0,25.653,15.093,40.406,37.382,10.9-6.51,20.625-15.331,12.229-26.208C1770.38,528.706,1753.734,517.053,1733.242,514.678Z" transform="translate(-1688.742 -507.533)" fill="url(#linear-gradient-22)"/>
        <path id="Trazado_634798" data-name="Trazado 634798" d="M1708.628,500.338a2.939,2.939,0,0,0,2.941-3.833c-1.662-5.165-6.855-12.789-23.087-10.174-6.092.982-13.832,4.411-20.336,7.777a3.665,3.665,0,0,0,1.826,6.917C1682.974,500.529,1700.9,499.975,1708.628,500.338Z" transform="translate(-1666.159 -485.8)" fill="url(#linear-gradient-23)"/>
        <path id="Trazado_634799" data-name="Trazado 634799" d="M2032.487,679.815a30.639,30.639,0,0,0,8.107,4.952,27.8,27.8,0,0,0,11.622,2.713c18.04-.384,17.666-29.223,14.054-41.568-3.874-13.244-14.378-23.134-25.254-30.986a156.225,156.225,0,0,0-31.353-17.047c3.792,6.831-2.8,16.176-12.228,26.208,4.881,8.1,9.118,16.562,13.556,24.907,4.4,8.276,9.761,15.644,15.208,23.279A43.66,43.66,0,0,0,2032.487,679.815Z" transform="translate(-1915.465 -570.147)" fill="url(#linear-gradient-24)"/>
      </g>
    </g>
    <g id="Grupo_905003" data-name="Grupo 905003" transform="translate(558.985 342.653)">
      <g id="Grupo_905002" data-name="Grupo 905002">
        <path id="Trazado_634800" data-name="Trazado 634800" d="M1988.169,1145.457s-10.546,12.844-14.425,9.749,6.594-19.965,6.594-19.965Z" transform="translate(-1936.343 -1113.638)" fill="url(#linear-gradient-25)"/>
        <path id="Trazado_634801" data-name="Trazado 634801" d="M2032.918,1494.338a.741.741,0,0,1,.02-.191c.952-3.776,5.679-6.128,5.679-6.128l1.873.147a12.99,12.99,0,0,1,.766,6.278c0,.025-.013.05-.019.074A44.46,44.46,0,0,1,2032.918,1494.338Z" transform="translate(-1981.524 -1379.125)" fill="url(#linear-gradient-26)"/>
        <path id="Trazado_634802" data-name="Trazado 634802" d="M2056.865,1477.337l-.793,3.819a.625.625,0,0,1-.534.514,5.311,5.311,0,0,1-1.229-.02.785.785,0,0,1-.622-.922l.552-3.391Z" transform="translate(-1997.145 -1371.086)" fill="url(#linear-gradient-27)"/>
        <path id="Trazado_634803" data-name="Trazado 634803" d="M1965.861,1495.956a.507.507,0,0,1,.045-.085,14.474,14.474,0,0,1,8.606-5.4l2.422-.077a11.619,11.619,0,0,1,1.1,5.346,11.179,11.179,0,0,1-3.692.528C1971.144,1496.355,1967.35,1496.079,1965.861,1495.956Z" transform="translate(-1931.059 -1380.91)" fill="url(#linear-gradient-28)"/>
        <path id="Trazado_634804" data-name="Trazado 634804" d="M2002.884,1473.77c-.027.181-.359,2.925-.488,3.988a.527.527,0,0,1-.445.476,5.542,5.542,0,0,1-1.664-.026.717.717,0,0,1-.543-.719v-4.307Z" transform="translate(-1956.559 -1367.96)" fill="url(#linear-gradient-29)"/>
        <path id="Trazado_634805" data-name="Trazado 634805" d="M2002.832,1273.193a215.634,215.634,0,0,0-5.736,50.136,1.081,1.081,0,0,0,.858,1.054,12.591,12.591,0,0,0,2.708.313,1,1,0,0,0,.956-.838c.819-4.8,5.519-31.863,8.2-36.256,0,0,1.762,24.1,1.2,36.6a.592.592,0,0,0,.523.616,9.948,9.948,0,0,0,2.174-.006.793.793,0,0,0,.707-.673c.583-4.065,3.941-28.262,3.8-45.694-.008-.983-2.6-5.257-2.6-5.257Z" transform="translate(-1954.564 -1217.455)" fill="url(#linear-gradient-30)"/>
        <path id="Trazado_634806" data-name="Trazado 634806" d="M1999.179,1134.094c8.039-1.163,16.87-.1,21.156.444a5.652,5.652,0,0,1,3.572,1.917c3.627,4.2,11.585,15.688,2.218,27.266a17.466,17.466,0,0,1-4.059-2.967c1.036-2.922,1.121-6.655-1.051-11.232a10.776,10.776,0,0,1-.277,1.076,66.616,66.616,0,0,0-3.146,19.194.6.6,0,0,1-.377.561c-3.939,1.579-11.523.639-14.069.26a.856.856,0,0,1-.716-.972c.9-6.488-2.145-15.975-4.563-22.2C1996.911,1144.977,1998.679,1134.784,1999.179,1134.094Z" transform="translate(-1954.936 -1112.382)" fill="url(#linear-gradient-31)"/>
        <path id="Trazado_634807" data-name="Trazado 634807" d="M2036.786,1097.57l1.11,9.175a.858.858,0,0,1-.608.927,9.68,9.68,0,0,1-6.14-.084,1,1,0,0,1-.592-1.14l1.4-6.458Z" transform="translate(-1979.729 -1085.288)" fill="url(#linear-gradient-32)"/>
        <g id="Grupo_904998" data-name="Grupo 904998" transform="translate(46.269 1.556)">
          <path id="Trazado_634808" data-name="Trazado 634808" d="M2021.058,1073.04c-.871.144-.687,9.47.364,10.031,2.359.648,7.188-1.545,8.049-3.265l-.734-6.615A40.626,40.626,0,0,0,2021.058,1073.04Z" transform="translate(-2018.451 -1068.272)" fill="url(#linear-gradient-33)"/>
          <path id="Trazado_634809" data-name="Trazado 634809" d="M2019.722,1060.4a5.426,5.426,0,0,1,.841,2.125c.087.429-.156,1.394.238,1.677.267.192.839.016,1.133-.021a.981.981,0,0,1,.889.182.935.935,0,0,1,.169.509,15.772,15.772,0,0,1,.113,2.1c0,.229.011.5.207.622a.5.5,0,0,0,.311.052.766.766,0,0,0,.682-.533c.09-.388-.219-.746-.323-1.131a2.23,2.23,0,0,1-.055-.544,3.872,3.872,0,0,1,.423-2.094,8.739,8.739,0,0,0,.942-1.945,4.967,4.967,0,0,0,.152-3.176,3.321,3.321,0,0,0-1.439-1.54,9.078,9.078,0,0,1-1.773-1.837c-.625-.748-2.03-.719-2.9-.485a8.053,8.053,0,0,1-2.283.653,4.767,4.767,0,0,1-.98-.216c-1.017-.265-2.725-.1-3.017,1.167a2.932,2.932,0,0,1-.137.614c-.112.236-.344.392-.486.611-.575.888.053,1.756.813,2.258,1.217.8,1.951.327,3.256.029a4.112,4.112,0,0,1,1.5-.121A2.715,2.715,0,0,1,2019.722,1060.4Z" transform="translate(-2012.203 -1054.223)" fill="url(#linear-gradient-34)"/>
          <path id="Trazado_634810" data-name="Trazado 634810" d="M2049.044,1089.96s-.437-2.364.471-2.779,2.077.065,1.548,1.641C2050.406,1090.783,2049.044,1089.96,2049.044,1089.96Z" transform="translate(-2039.849 -1078.919)" fill="url(#linear-gradient-35)"/>
          <path id="Trazado_634811" data-name="Trazado 634811" d="M2017.671,1063.11h-.01c-.009,0-.923-.1-1.066-1.417a3.177,3.177,0,0,1,.636-2.306,1.417,1.417,0,0,1,1-.542.1.1,0,0,1,.106.1.1.1,0,0,1-.1.106,1.22,1.22,0,0,0-.86.471,3.008,3.008,0,0,0-.589,2.153c.125,1.151.877,1.237.884,1.238a.1.1,0,0,1-.009.2Z" transform="translate(-2015.495 -1057.701)" fill="url(#linear-gradient-36)"/>
          <path id="Trazado_634812" data-name="Trazado 634812" d="M2037.042,1059.065h0a2.013,2.013,0,0,1-1.172-.4,3.28,3.28,0,0,1-.677-.823,2.956,2.956,0,0,0-.658-.793,2.207,2.207,0,0,0-1.663-.281,8.139,8.139,0,0,0-1.029.278c-.233.074-.472.15-.714.211a2.749,2.749,0,0,1-1.849-.058.1.1,0,1,1,.085-.184,2.56,2.56,0,0,0,1.715.046c.236-.059.473-.135.7-.208a8.319,8.319,0,0,1,1.055-.285,2.338,2.338,0,0,1,1.82.318,3.154,3.154,0,0,1,.706.844,3.084,3.084,0,0,0,.632.774,1.806,1.806,0,0,0,1.054.358.1.1,0,0,1,0,.2Z" transform="translate(-2025.008 -1055.949)" fill="url(#linear-gradient-37)"/>
        </g>
        <path id="Trazado_634813" data-name="Trazado 634813" d="M2092.614,1165.829a24.537,24.537,0,0,0,1.006-9.645l-.438.05a24.056,24.056,0,0,1-.982,9.444Z" transform="translate(-2026.137 -1129.399)" fill="url(#linear-gradient-38)"/>
        <path id="Trazado_634814" data-name="Trazado 634814" d="M2048.7,1315.4a.22.22,0,0,0,.213-.165c.485-1.868,4.112-3.922,4.148-3.942a.22.22,0,1,0-.216-.384c-.156.087-3.828,2.166-4.359,4.216a.22.22,0,0,0,.158.269A.23.23,0,0,0,2048.7,1315.4Z" transform="translate(-1993.237 -1245.814)" fill="url(#linear-gradient-39)"/>
        <path id="Trazado_634815" data-name="Trazado 634815" d="M2066.908,1243.426a17.456,17.456,0,0,0,4.059,2.967,33.706,33.706,0,0,1-7.419,6.6l-.388.87a2.165,2.165,0,0,1-1.874,1.279c-4.482.214-5.722-.737-1.6-3.614A15.963,15.963,0,0,0,2066.908,1243.426Z" transform="translate(-1999.778 -1195.054)" fill="url(#linear-gradient-40)"/>
        <path id="Trazado_634816" data-name="Trazado 634816" d="M1955.514,1164.828s5.655,5.879,6.961,8.011-.148,6.017-3.116,5.115-6.423-11.1-6.423-11.1Z" transform="translate(-1921.333 -1135.904)" fill="url(#linear-gradient-41)"/>
        <g id="Grupo_905001" data-name="Grupo 905001">
          <path id="Trazado_634817" data-name="Trazado 634817" d="M1960.763,1131.086s-4.97,13.106-6.54,15.833c-1.823,3.165-7.145,1.148-6.88-1.5s6.484-13.6,6.484-13.6Z" transform="translate(-1917.116 -1110.511)" fill="url(#linear-gradient-42)"/>
          <path id="Trazado_634818" data-name="Trazado 634818" d="M1880.53,1059.932l-30.887-10.709.324,28.98,31.407-7.008Z" transform="translate(-1843.598 -1048.904)" fill="url(#linear-gradient-43)"/>
          <ellipse id="Elipse_7284" data-name="Elipse 7284" cx="3.035" cy="14.893" rx="3.035" ry="14.893" transform="translate(2.981)" fill="#91b3fa"/>
          <path id="Trazado_634819" data-name="Trazado 634819" d="M1842.051,1079.288c.274-.279.872-1.355,1.384-4.138a63.195,63.195,0,0,0,0-19.642c-.512-2.783-1.11-3.859-1.384-4.138-.274.279-.872,1.355-1.384,4.138a63.195,63.195,0,0,0,0,19.642C1841.179,1077.933,1841.776,1079.009,1842.051,1079.288Z" transform="translate(-1836.265 -1050.52)" fill="url(#linear-gradient-44)"/>
          <g id="Grupo_905000" data-name="Grupo 905000" transform="translate(0 0.85)">
            <g id="Grupo_904999" data-name="Grupo 904999" clip-path="url(#clip-path)">
              <path id="Trazado_634820" data-name="Trazado 634820" d="M1832.876,1093.4c0,2.531,1.363,4.582,4.061,4.582a4.591,4.591,0,1,0,0-9.164C1834.239,1088.818,1832.876,1090.869,1832.876,1093.4Z" transform="translate(-1830.98 -1079.552)" fill="url(#linear-gradient-45)"/>
            </g>
          </g>
          <path id="Trazado_634822" data-name="Trazado 634822" d="M1976.3,1089.617a17.308,17.308,0,0,0-5.789.286,30.917,30.917,0,0,1-.228,12.1h6.354a2.059,2.059,0,0,0,2.035-1.737,28.951,28.951,0,0,0,.291-8.084A3.047,3.047,0,0,0,1976.3,1089.617Z" transform="translate(-1934.388 -1079.212)" fill="url(#linear-gradient-46)"/>
          <path id="Trazado_634823" data-name="Trazado 634823" d="M1977.594,1098.017h4.95a.525.525,0,0,0,.441-.811.2.2,0,0,0-.338.218.123.123,0,0,1-.1.19h-4.95a.123.123,0,0,1-.123-.123v-.352a.123.123,0,0,1,.123-.123h4.987a.2.2,0,1,0,0-.4h-4.987a.526.526,0,0,0-.526.525v.352A.526.526,0,0,0,1977.594,1098.017Z" transform="translate(-1939.493 -1084.569)" fill="#91b3fa"/>
          <path id="Trazado_634824" data-name="Trazado 634824" d="M1979.378,1106.878h4.95a.525.525,0,0,0,.441-.811.2.2,0,1,0-.338.219.123.123,0,0,1-.1.19h-4.95a.124.124,0,0,1-.123-.123V1106a.123.123,0,0,1,.123-.123h4.987a.2.2,0,1,0,0-.4h-4.987a.526.526,0,0,0-.525.525v.352A.526.526,0,0,0,1979.378,1106.878Z" transform="translate(-1940.837 -1091.237)" fill="#91b3fa"/>
          <path id="Trazado_634825" data-name="Trazado 634825" d="M1884.571,1065.766a.2.2,0,0,0,.061-.393l-23.393-7.444a.2.2,0,0,0-.122.383l23.393,7.444A.2.2,0,0,0,1884.571,1065.766Z" transform="translate(-1852.127 -1055.449)" fill="#91b3fa"/>
          <path id="Trazado_634826" data-name="Trazado 634826" d="M1964.843,1092.137a.2.2,0,0,0,.076-.387l-1.2-.492a.2.2,0,0,0-.152.372l1.2.492A.2.2,0,0,0,1964.843,1092.137Z" transform="translate(-1929.236 -1080.526)" fill="#91b3fa"/>
          <path id="Trazado_634827" data-name="Trazado 634827" d="M1977.594,1117.255h4.95a.525.525,0,0,0,.441-.811.2.2,0,0,0-.338.219.123.123,0,0,1-.1.19h-4.95a.123.123,0,0,1-.123-.123v-.352a.123.123,0,0,1,.123-.123h4.987a.2.2,0,0,0,0-.4h-4.987a.526.526,0,0,0-.526.525v.352A.526.526,0,0,0,1977.594,1117.255Z" transform="translate(-1939.493 -1099.047)" fill="#91b3fa"/>
          <path id="Trazado_634828" data-name="Trazado 634828" d="M1975.721,1128.774h4.951a.525.525,0,0,0,.441-.811.2.2,0,1,0-.338.218.123.123,0,0,1-.1.19h-4.951a.123.123,0,0,1-.123-.123v-.353a.123.123,0,0,1,.123-.123h4.987a.2.2,0,1,0,0-.4h-4.987a.525.525,0,0,0-.525.525v.353A.526.526,0,0,0,1975.721,1128.774Z" transform="translate(-1938.085 -1107.715)" fill="#91b3fa"/>
          <path id="Trazado_634829" data-name="Trazado 634829" d="M1952.472,1162.181a3.318,3.318,0,0,0,.7-.077,3.259,3.259,0,0,0,2.3-1.863l3.955-8.787a.2.2,0,0,0-.367-.165l-3.955,8.787a2.861,2.861,0,0,1-2.019,1.635,2.8,2.8,0,0,1-2.465-.63l-.111-.1a.2.2,0,1,0-.271.3l.118.105A3.187,3.187,0,0,0,1952.472,1162.181Z" transform="translate(-1919.257 -1125.626)" fill="#91b3fa"/>
          <path id="Trazado_634830" data-name="Trazado 634830" d="M1988.585,1143.341a.2.2,0,0,0,.183-.118l.441-.98a.2.2,0,1,0-.367-.165l-.441.98a.2.2,0,0,0,.183.283Z" transform="translate(-1948.009 -1118.693)" fill="#91b3fa"/>
          <path id="Trazado_634831" data-name="Trazado 634831" d="M1835.187,1094.966a.2.2,0,0,0,.2-.187,3.533,3.533,0,0,1,1.246-2.693,4.433,4.433,0,0,1,3.15-.646.2.2,0,0,0,.076-.4,4.767,4.767,0,0,0-3.469.72,3.914,3.914,0,0,0-1.4,2.985.2.2,0,0,0,.186.215Z" transform="translate(-1832.568 -1080.326)" fill="#91b3fa"/>
        </g>
        <path id="Trazado_634832" data-name="Trazado 634832" d="M1959.194,1149.322s-1.611-1.368-2.87,0-1.508,3.754-1.252,3.871S1963.113,1151.377,1959.194,1149.322Z" transform="translate(-1922.872 -1123.778)" fill="url(#linear-gradient-47)"/>
      </g>
    </g>
    <g id="Grupo_905004" data-name="Grupo 905004" transform="translate(395.565 342.856)">
      <path id="Trazado_634833" data-name="Trazado 634833" d="M1174.725,1156.979a1.205,1.205,0,0,1-.792-.5c-2.713-3.911-22.37-34.469,5.938-60.922,26.873-25.112,38.848-30.062,40.906-45.255a1.789,1.789,0,0,1,3.4-.494c5.534,12.183,13.859,40.466-17.24,57.86-34.305,19.187-32.257,41.489-30.831,47.854a1.209,1.209,0,0,1-1.381,1.46Z" transform="translate(-1164.767 -1048.757)" fill="#91b3fa"/>
      <path id="Trazado_634834" data-name="Trazado 634834" d="M1216.34,1390.549a1.743,1.743,0,0,1-1.444-1.506c-.637-5.225-1.989-24.716,12.489-29.41,15.938-5.167,28.188,9.913,40.138-1.2a.879.879,0,0,1,1.464.816c-1.223,5.967-6.259,19.716-26.777,21.859-21.961,2.293-24.5,4.723-24.16,7.849a1.468,1.468,0,0,1-1.71,1.594Z" transform="translate(-1202.226 -1281.624)" fill="#bdd0fb"/>
      <path id="Trazado_634835" data-name="Trazado 634835" d="M1231.067,1116.746a22.656,22.656,0,0,1-1.234,3.132c-.479,1.013-1.006,2-1.574,2.968s-1.172,1.912-1.827,2.822-1.328,1.808-2.05,2.667a48.655,48.655,0,0,1-9.968,8.994,61.9,61.9,0,0,1-5.76,3.458,52.334,52.334,0,0,0-5.587,3.489,56.292,56.292,0,0,0-9.746,8.851,52.237,52.237,0,0,0-7.327,10.926,45,45,0,0,0-4.512,25.631,53.089,53.089,0,0,0,3.222,12.825.2.2,0,0,1-.371.148,51.748,51.748,0,0,1-3.533-12.887,45.39,45.39,0,0,1-.421-6.7c.023-1.12.067-2.241.173-3.357.041-.559.116-1.115.176-1.673.081-.555.146-1.112.246-1.664a46.5,46.5,0,0,1,4.087-12.782,52.139,52.139,0,0,1,7.425-11.189,57.414,57.414,0,0,1,9.91-9.065,53.524,53.524,0,0,1,5.7-3.587l1.457-.8c.486-.258.959-.538,1.432-.818l.71-.418.7-.441.7-.44.684-.46a53.359,53.359,0,0,0,5.234-4c.831-.719,1.632-1.472,2.419-2.239s1.538-1.572,2.257-2.4a44.774,44.774,0,0,0,3.991-5.252c.6-.924,1.161-1.873,1.675-2.848a25.991,25.991,0,0,0,1.372-3l0-.01a.182.182,0,0,1,.346.116Z" transform="translate(-1176.514 -1099.745)" fill="#fff" opacity="0.47"/>
      <path id="Trazado_634836" data-name="Trazado 634836" d="M1219.223,1398.8a3.27,3.27,0,0,0,.024-.537l0-.535q.007-.534.027-1.068.041-1.068.126-2.133c.116-1.42.289-2.836.531-4.241a31.84,31.84,0,0,1,2.463-8.182,18.035,18.035,0,0,1,2.268-3.651,12.741,12.741,0,0,1,3.223-2.861,11.49,11.49,0,0,1,4.045-1.509,12.886,12.886,0,0,1,2.156-.195c.361-.013.721.011,1.081.022.359.027.719.052,1.076.1.718.089,1.413.214,2.116.332l2.1.371q2.1.382,4.191.8c2.79.553,5.568,1.158,8.357,1.672,1.395.253,2.794.48,4.2.621a19.859,19.859,0,0,0,4.21.026,10.788,10.788,0,0,0,3.982-1.214,13.142,13.142,0,0,0,3.288-2.6.163.163,0,0,1,.238.223,13.484,13.484,0,0,1-3.349,2.7,11.179,11.179,0,0,1-4.109,1.3,20.249,20.249,0,0,1-4.3-.015c-1.424-.14-2.833-.365-4.235-.616-2.8-.509-5.581-1.108-8.368-1.653s-5.586-1.07-8.378-1.486c-.347-.047-.7-.073-1.046-.1-.35-.013-.7-.039-1.049-.028a12.437,12.437,0,0,0-2.086.175,11.056,11.056,0,0,0-3.9,1.428,12.355,12.355,0,0,0-3.139,2.753,17.763,17.763,0,0,0-2.243,3.561,31.514,31.514,0,0,0-2.505,8.076c-.253,1.394-.437,2.8-.564,4.212q-.094,1.059-.144,2.121-.024.531-.036,1.063l-.008.531a2.432,2.432,0,0,0,.033.529.141.141,0,1,1-.276.008Z" transform="translate(-1205.747 -1293.44)" fill="#fff" opacity="0.47"/>
    </g>
    <g id="Grupo_905005" data-name="Grupo 905005" transform="translate(184.261 335.312)">
      <path id="Rectngulo_294924" data-name="Rectngulo 294924" d="M37.429,0h3.11A37.429,37.429,0,0,1,77.967,37.429v75.19a0,0,0,0,1,0,0H0a0,0,0,0,1,0,0V37.429A37.429,37.429,0,0,1,37.429,0Z" transform="translate(10.063)" fill="url(#linear-gradient-48)"/>
      <path id="Trazado_634837" data-name="Trazado 634837" d="M388.767,1130.887H310.8V1027.529a9.261,9.261,0,0,1,9.261-9.261h59.445a9.261,9.261,0,0,1,9.261,9.261Z" transform="translate(-310.8 -1018.268)" fill="#7d97f4"/>
    </g>
    <g id="Grupo_905017" data-name="Grupo 905017" transform="translate(193.432 172.122)">
      <g id="Grupo_905006" data-name="Grupo 905006" transform="translate(0 80.104)">
        <path id="Trazado_634838" data-name="Trazado 634838" d="M606,767.1a.68.68,0,0,1-.68-.68V685.138a.68.68,0,0,1,1.36,0v81.285A.68.68,0,0,1,606,767.1Z" transform="translate(-541.618 -683.969)" fill="#7d97f4"/>
        <path id="Trazado_634839" data-name="Trazado 634839" d="M531.525,767.1a.68.68,0,0,1-.68-.68V685.138a.68.68,0,0,1,1.36,0v81.285A.68.68,0,0,1,531.525,767.1Z" transform="translate(-485.568 -683.969)" fill="#7d97f4"/>
        <path id="Trazado_634840" data-name="Trazado 634840" d="M348.543,767.618a.681.681,0,0,1-.626-.946l34.775-81.8a.68.68,0,1,1,1.252.532l-34.775,81.8A.68.68,0,0,1,348.543,767.618Z" transform="translate(-347.863 -683.969)" fill="#7d97f4"/>
        <path id="Trazado_634841" data-name="Trazado 634841" d="M435.354,767.618a.681.681,0,0,1-.626-.946l34.775-81.8a.68.68,0,1,1,1.252.532L435.98,767.2A.68.68,0,0,1,435.354,767.618Z" transform="translate(-413.193 -683.969)" fill="#7d97f4"/>
        <path id="Trazado_634842" data-name="Trazado 634842" d="M512.539,684.4H480.684a.959.959,0,0,1-.959-.958h0a.959.959,0,0,1,.959-.958h31.855a.958.958,0,0,1,.958.958h0A.958.958,0,0,1,512.539,684.4Z" transform="translate(-447.097 -682.483)" fill="#7d97f4"/>
        <path id="Trazado_634843" data-name="Trazado 634843" d="M489.139,736.367H467.6a.68.68,0,1,1,0-1.36h21.544a.68.68,0,0,1,0,1.36Z" transform="translate(-437.457 -722.011)" fill="#7d97f4"/>
        <rect id="Rectngulo_294925" data-name="Rectngulo 294925" width="21.544" height="1.36" transform="translate(23.528 28.467)" fill="#7d97f4"/>
        <rect id="Rectngulo_294926" data-name="Rectngulo 294926" width="21.544" height="1.36" transform="translate(17.128 43.938)" fill="#7d97f4"/>
        <path id="Trazado_634844" data-name="Trazado 634844" d="M409.439,923.936H387.895a.68.68,0,0,1,0-1.36h21.544a.68.68,0,0,1,0,1.36Z" transform="translate(-377.478 -863.168)" fill="#7d97f4"/>
        <path id="Trazado_634845" data-name="Trazado 634845" d="M383.216,986.46H361.672a.68.68,0,1,1,0-1.36h21.544a.68.68,0,0,1,0,1.36Z" transform="translate(-357.743 -910.221)" fill="#7d97f4"/>
      </g>
      <g id="Grupo_905016" data-name="Grupo 905016" transform="translate(34.858)">
        <g id="Grupo_905015" data-name="Grupo 905015">
          <g id="Grupo_905012" data-name="Grupo 905012" transform="translate(0 12.306)">
            <g id="Grupo_905007" data-name="Grupo 905007" transform="translate(16.799 62.26)">
              <path id="Trazado_634846" data-name="Trazado 634846" d="M564.822,680.278c-1.444.125-3.949.327-5.924.414a5.7,5.7,0,0,1-2.265-.222c0,.044,0,.086,0,.125a.409.409,0,0,0,.388.386,69.356,69.356,0,0,0,7.757.008.291.291,0,0,0,.237-.437A2.359,2.359,0,0,0,564.822,680.278Z" transform="translate(-556.633 -675.286)" fill="#7d97f4"/>
              <path id="Trazado_634847" data-name="Trazado 634847" d="M558.9,671.827c1.975-.087,4.481-.29,5.924-.415-1.419-1.741-5.924-2.915-5.924-2.915h-1.272a5.335,5.335,0,0,0-.992,3.108A5.7,5.7,0,0,0,558.9,671.827Z" transform="translate(-556.631 -666.42)" fill="url(#linear-gradient-49)"/>
              <path id="Trazado_634848" data-name="Trazado 634848" d="M559.777,660.1l.119,2.356a.538.538,0,0,0,.459.506,2.1,2.1,0,0,0,.956-.079.637.637,0,0,0,.428-.489l.411-2.294Z" transform="translate(-558.999 -660.102)" fill="url(#linear-gradient-50)"/>
            </g>
            <g id="Grupo_905009" data-name="Grupo 905009" transform="translate(0 60.058)">
              <g id="Grupo_905008" data-name="Grupo 905008" transform="translate(0 2.187)">
                <path id="Trazado_634849" data-name="Trazado 634849" d="M489.79,679.569a1.143,1.143,0,0,1-1.028-.76l0,.009a.814.814,0,0,0,.548.928,3.582,3.582,0,0,0,1.518.238,1.509,1.509,0,0,0,1.138-.525l0,0A3.82,3.82,0,0,1,489.79,679.569Z" transform="translate(-488.739 -674.165)" fill="#7d97f4"/>
                <path id="Trazado_634850" data-name="Trazado 634850" d="M492.813,660.04h-1.049c-1.6-.033-2.6,3.338-2.93,4.644a1.143,1.143,0,0,0,1.028.76,3.82,3.82,0,0,0,2.178-.115,10.026,10.026,0,0,0,1.5-3.772A1.324,1.324,0,0,0,492.813,660.04Z" transform="translate(-488.81 -660.04)" fill="url(#linear-gradient-51)"/>
              </g>
              <path id="Trazado_634851" data-name="Trazado 634851" d="M499.392,651.2l-.582,2.317a.629.629,0,0,0,.327.713,2.232,2.232,0,0,0,1.207.292.526.526,0,0,0,.429-.35l.855-2.438Z" transform="translate(-496.303 -651.203)" fill="url(#linear-gradient-50)"/>
            </g>
            <path id="Trazado_634852" data-name="Trazado 634852" d="M498.413,553.7c.725.643,3.083.728,3.083.728,8.494-20.385,11.968-23.281,11.968-23.281-1.227,7.694-.2,24.728-.2,24.728a5.1,5.1,0,0,0,3.209,0,131.307,131.307,0,0,1,4.337-32.243c-5.741-.129-8.793-2.094-9.79-2.882C506.236,528.463,498.413,553.7,498.413,553.7Z" transform="translate(-496.019 -492.969)" fill="#7d97f4"/>
            <path id="Trazado_634853" data-name="Trazado 634853" d="M549.2,425.58c-1.086,5.42-.7,15.12-.441,19.545a8.759,8.759,0,0,1-1.5,4.144.369.369,0,0,0,.149.519,25.592,25.592,0,0,0,9.768,2.708.658.658,0,0,0,.662-.491,128.423,128.423,0,0,1,7.4-20.94C560.85,424.058,549.2,425.58,549.2,425.58Z" transform="translate(-532.742 -421.244)" fill="url(#linear-gradient-53)"/>
            <path id="Trazado_634854" data-name="Trazado 634854" d="M560.755,550.581a.272.272,0,0,1-.232-.413,8.53,8.53,0,0,1,3.368-2.924.272.272,0,1,1,.236.49,8.139,8.139,0,0,0-3.14,2.717A.272.272,0,0,1,560.755,550.581Z" transform="translate(-542.731 -512.889)" fill="url(#linear-gradient-54)"/>
            <g id="Grupo_905010" data-name="Grupo 905010" transform="translate(9.505 4.336)">
              <path id="Trazado_634855" data-name="Trazado 634855" d="M527.717,487.722a18.645,18.645,0,0,0,3.443,8.2l.784-.639a24.212,24.212,0,0,1-.391-7.841A9.385,9.385,0,0,0,527.717,487.722Z" transform="translate(-527.577 -472.167)" fill="url(#linear-gradient-55)"/>
              <path id="Trazado_634856" data-name="Trazado 634856" d="M535.321,432.692l-1.214-6.687s-8.109,6.2-6.815,15.555a9.386,9.386,0,0,1,3.837-.276A13.121,13.121,0,0,1,535.321,432.692Z" transform="translate(-527.152 -426.005)" fill="url(#linear-gradient-56)"/>
            </g>
            <g id="Grupo_905011" data-name="Grupo 905011" transform="translate(29.365 9.82)">
              <path id="Trazado_634857" data-name="Trazado 634857" d="M610.546,448.169l-3.13,6.741c.506,4.07,2.692,5.829,5.049,6.5a14.3,14.3,0,0,1,1.051-4.39C610.5,453.915,610.546,448.169,610.546,448.169Z" transform="translate(-607.416 -448.169)" fill="url(#linear-gradient-57)"/>
              <path id="Trazado_634858" data-name="Trazado 634858" d="M628.874,483.957a14.3,14.3,0,0,0-1.051,4.39c6.289,2.44,7.953-2.292,7.953-2.292l-1.162-.205A6.589,6.589,0,0,1,628.874,483.957Z" transform="translate(-622.774 -475.102)" fill="url(#linear-gradient-50)"/>
            </g>
            <path id="Trazado_634859" data-name="Trazado 634859" d="M590.48,409.98l-1.511,5.555a1.081,1.081,0,0,1-1.445.719,22.026,22.026,0,0,1-2.178-.995,1.456,1.456,0,0,1-.513-2.093l3.141-4.684Z" transform="translate(-560.868 -408.482)" fill="url(#linear-gradient-59)"/>
          </g>
          <path id="Trazado_634860" data-name="Trazado 634860" d="M547.916,477.412,509.2,491.5a2.965,2.965,0,0,0-1.685,4.013l.118.258a2.756,2.756,0,0,0,3.666,1.36l37.6-17.392Z" transform="translate(-502.665 -448.05)" fill="url(#linear-gradient-60)"/>
          <path id="Trazado_634861" data-name="Trazado 634861" d="M678.853,358.749a20.888,20.888,0,1,0,21.269,20.885A21.079,21.079,0,0,0,678.853,358.749Zm0,38.7A17.82,17.82,0,1,1,697,379.634,17.983,17.983,0,0,1,678.853,397.451Z" transform="translate(-615.805 -358.749)" fill="url(#linear-gradient-61)"/>
          <g id="Grupo_905013" data-name="Grupo 905013" transform="translate(43.091 1.263)">
            <path id="Trazado_634862" data-name="Trazado 634862" d="M663.194,386.091a.173.173,0,0,1-.172-.151c-.063-.5-.108-1-.133-1.5a.173.173,0,0,1,.165-.181.171.171,0,0,1,.181.164c.024.49.068.985.13,1.473a.173.173,0,0,1-.15.194Zm.146-5.84-.031,0a.173.173,0,0,1-.14-.2,19.265,19.265,0,0,1,1.149-3.933h0a19.907,19.907,0,0,1,18.527-12.263,20.18,20.18,0,0,1,10.728,3.066.173.173,0,1,1-.184.293,19.836,19.836,0,0,0-10.544-3.013,19.562,19.562,0,0,0-18.207,12.048h0a18.918,18.918,0,0,0-1.128,3.862A.173.173,0,0,1,663.34,380.252Z" transform="translate(-662.889 -363.852)" fill="#91b3fa"/>
          </g>
          <g id="Grupo_905014" data-name="Grupo 905014" transform="translate(25.894 6.6)">
            <path id="Trazado_634863" data-name="Trazado 634863" d="M607.143,394.768c.014.1-1.26,6.339-1.26,6.339l-3.549-.8.328-6.1S606.912,393.171,607.143,394.768Z" transform="translate(-600.12 -391.785)" fill="url(#linear-gradient-62)"/>
            <path id="Trazado_634864" data-name="Trazado 634864" d="M596.892,389.2l-.424,3.2a.446.446,0,0,0,0,.122c.036.251.222,1.1,1.083.86a4.05,4.05,0,0,1,1.992-.26.45.45,0,0,1,.31.521,19.483,19.483,0,0,1-.817,2.909.449.449,0,0,1-.545.266,14.52,14.52,0,0,1-3.129-1.28.451.451,0,0,1-.219-.405c.034-.807.128-3.26.049-3.947-.075-.645-.867-1.032-1.21-1.17a.443.443,0,0,1-.246-.247,1.167,1.167,0,0,1,.785-1.7.451.451,0,0,0,.285-.583,1.17,1.17,0,0,1,.656-1.617,1.65,1.65,0,0,1,1.969.475.451.451,0,0,0,.574.068.356.356,0,0,1,.406.014.443.443,0,0,0,.628-.19,1.345,1.345,0,0,1,1.563-.779c1.591.272,1.771,2.035,1.351,3.068s-2.127.639-2.984.119a1.927,1.927,0,0,0-1.864.241A.448.448,0,0,0,596.892,389.2Z" transform="translate(-593.553 -385.421)" fill="url(#linear-gradient-63)"/>
            <path id="Trazado_634865" data-name="Trazado 634865" d="M595.058,405.914s.482-1.9-.19-2.345-1.667-.216-1.448,1.111C593.692,406.33,595.058,405.914,595.058,405.914Z" transform="translate(-593.389 -398.922)" fill="url(#linear-gradient-64)"/>
          </g>
          <path id="Trazado_634866" data-name="Trazado 634866" d="M541.308,518.083l3.66-.3,1.585,1.461s-.375.518-1.547.22a16.774,16.774,0,0,0-2.779-.371s-1.619.73-1.638-.636Z" transform="translate(-527.759 -478.433)" fill="url(#linear-gradient-65)"/>
          <path id="Trazado_634867" data-name="Trazado 634867" d="M656.928,487.506c.317.247,1.4-.269,2.065-.626a.764.764,0,0,0,.369-.9c-.16-.5-.426-1.154-.754-1.236C658.064,484.606,655.624,486.487,656.928,487.506Z" transform="translate(-615.027 -453.561)" fill="url(#linear-gradient-50)"/>
          <path id="Trazado_634868" data-name="Trazado 634868" d="M512.222,536.249a.174.174,0,0,1-.056-.01c-1.528-.529-1.884-1.434-1.913-2.1a2.333,2.333,0,0,1,1.521-2.249l4.649-1.813a.173.173,0,1,1,.126.322l-4.649,1.813a1.988,1.988,0,0,0-1.3,1.911c.035.814.6,1.416,1.68,1.789a.173.173,0,0,1-.057.337Z" transform="translate(-504.928 -487.675)" fill="#91b3fa"/>
          <path id="Trazado_634869" data-name="Trazado 634869" d="M540.712,527.438a.173.173,0,0,1-.063-.334l.6-.235a.173.173,0,0,1,.126.322l-.6.235A.172.172,0,0,1,540.712,527.438Z" transform="translate(-527.722 -485.261)" fill="#91b3fa"/>
        </g>
        <path id="Trazado_634870" data-name="Trazado 634870" d="M690.978,403.081l7.046,5.484,13.527-11.087,3.49,3.985-17.017,17.8-10.9-11.943Z" transform="translate(-638.033 -387.895)" fill="url(#linear-gradient-67)"/>
      </g>
    </g>
  </g>
</svg>
