<svg xmlns="http://www.w3.org/2000/svg" width="134" height="134" viewBox="0 0 134 134">
  <g id="Grupo_909108" data-name="Grupo 909108" transform="translate(-391 -3703.636)">
    <circle id="Elipse_7253" data-name="Elipse 7253" cx="67" cy="67" r="67" transform="translate(391 3703.636)" fill="#179587"/>
    <g id="Grupo_904924" data-name="Grupo 904924" transform="translate(-817.93 3349.626)">
      <path id="Trazado_634545" data-name="Trazado 634545" d="M1438.8,564.415c-.716-.394-1.467-.736-2.139-1.193a7.166,7.166,0,0,1-2.768-3.678,1.232,1.232,0,0,0-.1-.181.445.445,0,0,0,0-.123,7.673,7.673,0,0,1-.165-4.021c.059-.279.113-.558.17-.837.07-.163.14-.325.209-.488a8.079,8.079,0,0,1,4.79-4.532,9.552,9.552,0,0,1,1.263-.294,8.867,8.867,0,0,1,3.807.295c.123.057.245.117.371.169a7.675,7.675,0,0,1,4.719,5.257c.087.308.214.6.322.906v2.5a5.248,5.248,0,0,0-.316.76,7.438,7.438,0,0,1-1.784,3.255,8.4,8.4,0,0,1-3.39,2.239,7.866,7.866,0,0,1-3.131.314C1440.032,564.674,1439.418,564.531,1438.8,564.415Z" transform="translate(-130.835 -112.643)" fill="#df2541"/>
      <path id="Trazado_634546" data-name="Trazado 634546" d="M1438.591,405.246l.184-.054c.417-.091.831-.206,1.252-.269a8.769,8.769,0,0,1,3.735.242,25.363,25.363,0,0,1,2.478,1.423,7.1,7.1,0,0,1,2.683,4.039c.1.376.217.748.326,1.122v2.33a4.1,4.1,0,0,0-.317.716,7.474,7.474,0,0,1-1.8,3.292,8.179,8.179,0,0,1-3.289,2.154c-.66.112-1.317.267-1.981.325a7.846,7.846,0,0,1-3.093-.331c-.19-.071-.386-.13-.569-.216a8.018,8.018,0,0,1-4.011-3.87q-.219-.464-.441-.927a1.247,1.247,0,0,0-.02-.285,7.269,7.269,0,0,1-.152-3.77c.068-.3.119-.612.178-.918l.593-1.328c.007-.041.015-.081.022-.123l.326-.46a.034.034,0,0,0,.006-.048l.338-.451.066-.084.98-1.005.013-.008.162-.154.092-.034.577-.465.09-.024,1.151-.666.178-.044Z" transform="translate(-130.809 -18.463)" fill="#5178bb"/>
      <path id="Trazado_634547" data-name="Trazado 634547" d="M1248.361,419.8q0-20.5,0-41c0-.749.052-1.5.081-2.246h5.035q0,19.978,0,39.956c0,1.1.049,2.209.075,3.313a3.1,3.1,0,0,0-.324-.264c-.82-.5-1.641-1.392-2.46-1.356S1249.164,419.233,1248.361,419.8Z" transform="translate(-9.931)" fill="#fefefe"/>
      <path id="Trazado_634548" data-name="Trazado 634548" d="M1248.565,603.653a4.021,4.021,0,0,1-.08-.569q-.006-4.8,0-9.593a6.038,6.038,0,0,0,.837.208,12.763,12.763,0,0,0,2.043.144,21.816,21.816,0,0,0,2.277-.352,6.774,6.774,0,0,0-.08.736q-.008,4.714,0,9.427Z" transform="translate(-10.012 -141.712)" fill="#fefefe"/>
      <path id="Trazado_634549" data-name="Trazado 634549" d="M1453.885,593.5l0,10.14h-4.827a1.215,1.215,0,0,1-.158-.4q-.01-4.885,0-9.77c.618.116,1.232.259,1.855.343A7.865,7.865,0,0,0,1453.885,593.5Z" transform="translate(-140.934 -141.702)" fill="#d0e6eb"/>
      <path id="Trazado_634550" data-name="Trazado 634550" d="M1478.76,498.342l-.154.086a2.092,2.092,0,0,1-.037-.3c.009-.556.026-1.112.036-1.667.005-.29,0-.58,0-.87l.153.086Z" transform="translate(-160.319 -77.76)" fill="#adca74"/>
      <path id="Trazado_634551" data-name="Trazado 634551" d="M1233.291,558.325c-.047-.6-.124-1.2-.132-1.8a9.225,9.225,0,0,1,.135-1.207,6.855,6.855,0,0,1,1.253-2.976,6.927,6.927,0,0,1,2.059-2.037c.489-.309,1.026-.542,1.542-.809l.324-.167a7.373,7.373,0,0,1,2.709-.393,7.493,7.493,0,0,1,2.45.395,2.492,2.492,0,0,0,.285.155,7.574,7.574,0,0,1,4.228,3.907c.154.319.323.632.484.948.024.16.04.322.073.481a7.84,7.84,0,0,1,.18,3.058c-.088.481-.173.963-.26,1.445-.214.419-.431.837-.641,1.259a7.5,7.5,0,0,1-2.718,2.939c-.412.269-.865.474-1.3.709l-.2.151h-.135a21.793,21.793,0,0,1-2.277.352,12.76,12.76,0,0,1-2.043-.144,6.038,6.038,0,0,1-.837-.208c-.677-.379-1.38-.719-2.025-1.146a7.185,7.185,0,0,1-2.469-2.853c-.147-.3-.284-.6-.426-.9l-.08-.25c-.006-.081-.012-.163-.018-.244l-.144-.339Z" transform="translate(-0.001 -112.605)" fill="#64c5f3"/>
      <path id="Trazado_634552" data-name="Trazado 634552" d="M1305.052,510.972c-.768-.691-1.541-1.379-2.3-2.077-.443-.405-.867-.831-1.308-1.239a1.8,1.8,0,0,0-.343-.2,2.3,2.3,0,0,0-.268-.4c-.312-.305-.643-.592-.966-.887l-2.586-2.357a1.369,1.369,0,0,0-.145-.19c-1-.944-2.02-1.874-3.01-2.83a12.355,12.355,0,0,0-2.732-2.068,9.907,9.907,0,0,0-4.563-1.227c-3.021-.041-6.044-.018-9.066-.023.073-.467.173-.932.21-1.4a15.958,15.958,0,0,0,.076-2.038,10.881,10.881,0,0,0-.286-1.537c3.2,0,6.4-.009,9.6.008a6.293,6.293,0,0,1,1.5.188c1.129.287,2.253.6,3.362.954a10.682,10.682,0,0,1,3.422,1.867c1.133.912,2.177,1.934,3.261,2.907.282.253.568.5.853.752a.641.641,0,0,0,.085.131c.778.732,1.554,1.466,2.34,2.19.473.436.96.855,1.441,1.282a1.891,1.891,0,0,0,.155.209c.423.437.85.871,1.275,1.307Z" transform="translate(-29.139 -75.736)" fill="#e65b6b"/>
      <path id="Trazado_634553" data-name="Trazado 634553" d="M1356.468,533.2q0-3.34.009-6.679a3.63,3.63,0,0,1,.493.332c1.228,1.147,2.444,2.306,3.67,3.455q1.9,1.783,3.816,3.555l1.246,1.171h0l.171.164h0l.171.164.227.181.513.493h0l1.09.991h0l.172.159.23.183.431.324h0l.247.174h0l.252.165h0l.254.164-.005.027.18.131.409.2.186.126.229.048.175.124.158.039.186.122.23.04.263.129.484.141.168.034.249.036.279.115.553.049.749.135,9.57.014c-.056.279-.111.559-.17.837a7.672,7.672,0,0,0,.165,4.021.44.44,0,0,1,0,.123c-3.314,0-6.629.029-9.942-.022a12.313,12.313,0,0,1-3.526-.705,14.512,14.512,0,0,1-5.4-3.031c-1.975-1.783-3.9-3.624-5.84-5.443q-1.093-1.022-2.172-2.059A1.425,1.425,0,0,1,1356.468,533.2Z" transform="translate(-80.555 -97.963)" fill="#cd1236"/>
      <path id="Trazado_634554" data-name="Trazado 634554" d="M1297.273,525.137l2.586,2.357c.323.295.654.581.966.887a2.3,2.3,0,0,1,.268.4q-1.721,3.24-3.44,6.48a18.464,18.464,0,0,1-2.565,3.938,13.875,13.875,0,0,1-5.416,3.708,13.276,13.276,0,0,1-4.8.885c-2.371-.02-4.742-.009-7.114-.011.086-.482.171-.964.26-1.445a7.84,7.84,0,0,0-.18-3.058c-.033-.158-.049-.321-.073-.481,2.174,0,4.349-.018,6.522,0a9.764,9.764,0,0,0,4.147-.819,8.676,8.676,0,0,0,4.123-3.847c1.343-2.437,2.639-4.9,3.943-7.358C1296.78,526.24,1297.016,525.683,1297.273,525.137Z" transform="translate(-29.134 -97.06)" fill="#394e70"/>
      <path id="Trazado_634555" data-name="Trazado 634555" d="M1263.75,593.2l.2-.151Z" transform="translate(-19.985 -141.427)" fill="#fefefe"/>
      <path id="Trazado_634556" data-name="Trazado 634556" d="M1233.286,414.236c-.046-.6-.118-1.2-.127-1.8a9.973,9.973,0,0,1,.124-1.214q.013-.163.026-.327l.144-.423.017-.16.316-.756a8,8,0,0,1,3.369-3.737c.421-.249.878-.437,1.319-.652a15.778,15.778,0,0,1,2.39-.374,16.289,16.289,0,0,1,2.439.319c.108.016.214.041.321.062l.176.053.162.088a8.052,8.052,0,0,1,4.449,4.574,1.929,1.929,0,0,0,.212.338c.059.456.117.911.178,1.367.005.039.045.074.047.112.026.653.092,1.308.057,1.957a11.758,11.758,0,0,1-.279,1.538c-.111.221-.229.438-.331.663a7.283,7.283,0,0,1-2.568,3.183c-.665.441-1.4.782-2.1,1.168-.767.123-1.531.294-2.3.357a5.924,5.924,0,0,1-2.977-.425c-.7-.32-1.363-.727-2.042-1.1l-.245-.175-.232-.173-.346-.328h0l-.167-.167h0l-.186-.224-.189-.253-.456-.528-.041-.139-.46-.691-.031-.144-.32-.671c-.007-.053-.015-.106-.021-.159l-.15-.339q-.007-.08-.015-.16l-.146-.423Z" transform="translate(-0.002 -18.446)" fill="#a1c36b"/>
      <path id="Trazado_634557" data-name="Trazado 634557" d="M1277.765,425.423a11.759,11.759,0,0,0,.28-1.538c.035-.649-.031-1.3-.057-1.957,0-.038-.042-.073-.047-.112-.062-.456-.12-.911-.178-1.367,3.284,0,6.568-.043,9.85.038a15.838,15.838,0,0,1,3.182.6,12.393,12.393,0,0,1,4.62,2.215c1.091.823,2.1,1.76,3.106,2.689,2.205,2.038,4.385,4.1,6.574,6.159a.411.411,0,0,1,.061.107,2.533,2.533,0,0,0-.09.468q-.011,3.1-.009,6.206a.916.916,0,0,1-.165-.1q-1.029-.957-2.055-1.919c-1.7-1.6-3.386-3.207-5.1-4.784a62.349,62.349,0,0,0-5.454-4.9,9.362,9.362,0,0,0-2.7-1.309c-.116-.221-.275-.3-.5-.148l-.164-.024c-.122-.214-.28-.3-.5-.137l-.163-.027-.671-.136c-.887,0-1.774-.012-2.661-.014Z" transform="translate(-29.14 -28.664)" fill="#8ab853"/>
      <path id="Trazado_634558" data-name="Trazado 634558" d="M1356.479,461.189q0-3.1.009-6.206a2.542,2.542,0,0,1,.09-.468c.7.633,1.389,1.27,2.09,1.9.483.433.977.853,1.466,1.279a.777.777,0,0,0,.106.165q1.154,1.091,2.312,2.177c.467.437.937.871,1.406,1.306.5.481,1,.967,1.507,1.443a26.947,26.947,0,0,0,3.852,3.313,9.508,9.508,0,0,0,4.985,1.557c3.074.052,6.149.024,9.223.029-.065.348-.121.7-.2,1.043a6.609,6.609,0,0,0,0,2.9c.077.345.132.7.2,1.043q-3.721,0-7.443,0a19.249,19.249,0,0,1-4.475-.313,16.734,16.734,0,0,1-4.971-1.978,23.792,23.792,0,0,1-3.476-2.822q-.855-.776-1.706-1.554a.871.871,0,0,0-.108-.158q-1.846-1.726-3.7-3.449Z" transform="translate(-80.562 -50.925)" fill="#5ea320"/>
      <path id="Trazado_634559" data-name="Trazado 634559" d="M1370.841,439.038c-.469-.435-.939-.869-1.406-1.306q-1.159-1.085-2.312-2.177a.782.782,0,0,1-.106-.165c.581-1.109,1.154-2.222,1.744-3.326.861-1.612,1.708-3.233,2.614-4.819.431-.755.983-1.44,1.481-2.157l.166-.179,0,0,.7-.684.024-.031.145-.134.023-.034.321-.3.444-.36.479-.359.187-.14.412-.3.087-.03.313-.195.021-.008,1.746-.935.25-.041.661-.3.172-.017.329-.144.336-.037.328-.135.338-.029.328-.135.5-.022.577-.143,8.577-.022a.112.112,0,0,0,.064.033c-.059.307-.11.614-.178.919a7.27,7.27,0,0,0,.152,3.77,1.275,1.275,0,0,1,.02.285c-2.218,0-4.437,0-6.655.017a9.955,9.955,0,0,0-3.524.625,7.978,7.978,0,0,0-3.988,3.1c-.926,1.432-1.7,2.965-2.521,4.462-.67,1.218-1.323,2.446-1.972,3.676C1371.416,437.847,1371.135,438.446,1370.841,439.038Z" transform="translate(-87.446 -28.623)" fill="#2c3756"/>
      <path id="Trazado_634560" data-name="Trazado 634560" d="M1448.877,386.763a1.857,1.857,0,0,0,.157-.515c.01-2.994.015-5.988,0-8.983,0-.41.123-.507.515-.5q1.933.036,3.867,0c.365-.006.468.092.467.463-.014,3.2-.006,6.4-.005,9.606a8.769,8.769,0,0,0-3.735-.242c-.421.063-.835.178-1.252.269C1448.885,386.83,1448.881,386.8,1448.877,386.763Z" transform="translate(-140.922 -0.135)" fill="#d0e6ec"/>
      <path id="Trazado_634561" data-name="Trazado 634561" d="M1264.016,406.137l-.161-.088Z" transform="translate(-20.053 -19.264)" fill="#fefefe"/>
      <path id="Trazado_634562" data-name="Trazado 634562" d="M1448.884,531.269q0-4.984,0-9.968c.432.1.86.225,1.3.3a5.44,5.44,0,0,0,1.421.137c.82-.088,1.627-.285,2.44-.437a3.27,3.27,0,0,0-.156.7q-.017,4.311,0,8.623a5.564,5.564,0,0,0,.076.652,8.865,8.865,0,0,0-3.807-.295A9.556,9.556,0,0,0,1448.884,531.269Z" transform="translate(-140.924 -94.551)" fill="#d0e6eb"/>
      <path id="Trazado_634563" data-name="Trazado 634563" d="M1448.88,459.25q0-4.988,0-9.977a7.846,7.846,0,0,0,3.093.331c.665-.058,1.321-.214,1.981-.325a5.443,5.443,0,0,0-.078.652q-.008,4.313,0,8.626a3.25,3.25,0,0,0,.156.7c-.092-.017-.183-.037-.275-.052a15.105,15.105,0,0,0-2.493-.378A13.6,13.6,0,0,0,1448.88,459.25Z" transform="translate(-140.924 -47.501)" fill="#d0e6ec"/>
      <path id="Trazado_634564" data-name="Trazado 634564" d="M1243.626,477.326a7.8,7.8,0,0,1,3.374,2.288,7.563,7.563,0,0,1,1.455,2.454,1.17,1.17,0,0,0,.168.247,10.882,10.882,0,0,1,.286,1.537,15.957,15.957,0,0,1-.076,2.038c-.038.471-.138.936-.211,1.4a1.587,1.587,0,0,0-.176.286,7.608,7.608,0,0,1-1.441,2.406,7.905,7.905,0,0,1-3.633,2.388,9.11,9.11,0,0,1-4.821-.06,8.045,8.045,0,0,1-4.142-3.189,9.042,9.042,0,0,1-.456-.817l-.32-.671c-.007-.053-.014-.106-.02-.158l-.151-.34-.015-.16-.136-.343q-.014-.163-.027-.326a12.308,12.308,0,0,1-.127-1.339c0-.557.082-1.113.127-1.67l.027-.326.136-.342c0-.053.01-.107.015-.161l.151-.34.02-.159.32-.671.032-.156.457-.68a7.6,7.6,0,0,1,4.741-3.353,8.151,8.151,0,0,1,4.165.143C1243.44,477.282,1243.533,477.3,1243.626,477.326Z" transform="translate(0 -65.554)" fill="#e96a76"/>
      <path id="Trazado_634565" data-name="Trazado 634565" d="M1236,487.166l-.457.68Z" transform="translate(-1.561 -72.255)" fill="#fad6d5"/>
      <path id="Trazado_634566" data-name="Trazado 634566" d="M1235.551,438.2l.46.691Z" transform="translate(-1.564 -40.265)" fill="#e5eed5"/>
      <path id="Trazado_634567" data-name="Trazado 634567" d="M1236.995,440.59l.456.528Z" transform="translate(-2.507 -41.828)" fill="#e5eed5"/>
      <path id="Trazado_634568" data-name="Trazado 634568" d="M1239.87,443.967l.346.328Z" transform="translate(-4.386 -44.035)" fill="#e5eed5"/>
      <path id="Trazado_634569" data-name="Trazado 634569" d="M1238.855,442.845l.186.224Z" transform="translate(-3.722 -43.302)" fill="#e5eed5"/>
      <path id="Trazado_634570" data-name="Trazado 634570" d="M1241.535,445.412l.245.175Z" transform="translate(-5.473 -44.978)" fill="#e5eed5"/>
      <path id="Trazado_634571" data-name="Trazado 634571" d="M1239.39,443.488l.167.167Z" transform="translate(-4.072 -43.722)" fill="#e5eed5"/>
      <path id="Trazado_634572" data-name="Trazado 634572" d="M1438.8,477.248a13.608,13.608,0,0,1,2.39-.425,15.115,15.115,0,0,1,2.493.378c.092.015.184.035.275.052a22.587,22.587,0,0,1,2.149,1.195,6.092,6.092,0,0,1,2.025,2.294l.627,1.191.021.154.148.344.015.156.154.509.035.236c0,.29,0,.58,0,.87-.01.556-.027,1.112-.036,1.667a2.073,2.073,0,0,0,.037.3l-.035.236-.153.509-.016.155-.148.344-.021.154-.628,1.191a6.106,6.106,0,0,1-2.022,2.292,23.087,23.087,0,0,1-2.151,1.2c-.813.151-1.62.349-2.44.437a5.436,5.436,0,0,1-1.421-.137c-.437-.071-.865-.2-1.3-.3-.632-.327-1.293-.608-1.891-.989a7.371,7.371,0,0,1-3-3.843,1.122,1.122,0,0,0-.1-.175c-.065-.347-.121-.7-.2-1.043a6.606,6.606,0,0,1,0-2.9c.077-.345.132-.695.2-1.043a22,22,0,0,1,1.313-2.343A7.348,7.348,0,0,1,1438.8,477.248Z" transform="translate(-130.842 -65.498)" fill="#72aa26"/>
      <path id="Trazado_634573" data-name="Trazado 634573" d="M1476.419,489.314l-.627-1.191Z" transform="translate(-158.505 -72.88)" fill="#adca74"/>
      <path id="Trazado_634574" data-name="Trazado 634574" d="M1478.288,493.953l-.154-.509Z" transform="translate(-160.035 -76.356)" fill="#adca74"/>
      <path id="Trazado_634575" data-name="Trazado 634575" d="M1477.811,492.347l-.148-.344C1477.711,492.118,1477.761,492.232,1477.811,492.347Z" transform="translate(-159.726 -75.415)" fill="#adca74"/>
      <path id="Trazado_634576" data-name="Trazado 634576" d="M1475.79,508.991l.627-1.191Z" transform="translate(-158.503 -85.734)" fill="#adca74"/>
      <path id="Trazado_634577" data-name="Trazado 634577" d="M1478.134,504.957l.153-.509Z" transform="translate(-160.035 -83.545)" fill="#adca74"/>
      <path id="Trazado_634578" data-name="Trazado 634578" d="M1477.661,506.708l.148-.344Z" transform="translate(-159.726 -84.796)" fill="#adca74"/>
      <path id="Trazado_634579" data-name="Trazado 634579" d="M1248.562,521.336a9.11,9.11,0,0,0,4.821.06,1.762,1.762,0,0,1,.166.508c.01,2.9.005,5.8.011,8.706a6.046,6.046,0,0,0,.08.693,7.491,7.491,0,0,0-2.45-.395,7.374,7.374,0,0,0-2.709.392q0-4.676,0-9.353A4.709,4.709,0,0,1,1248.562,521.336Z" transform="translate(-10.01 -94.577)" fill="#fefefe"/>
      <path id="Trazado_634580" data-name="Trazado 634580" d="M1341.217,493.52c.318-.541.653-1.071.949-1.623q1.577-2.938,3.131-5.888c.367-.691.722-1.389,1.087-2.081.021-.04.084-.058.127-.086,0,.142,0,.284,0,.426q0,4.707.008,9.415c0,.105.11.21.168.316q-.7,1.339-1.406,2.68c-.075.143-.131.3-.2.444-.481-.427-.968-.846-1.441-1.282-.786-.724-1.562-1.458-2.34-2.19A.647.647,0,0,1,1341.217,493.52Z" transform="translate(-70.592 -70.083)" fill="#3a4f70"/>
      <path id="Trazado_634581" data-name="Trazado 634581" d="M1404.714,564.1l.749.135Z" transform="translate(-112.072 -122.516)" fill="#df2541"/>
      <path id="Trazado_634582" data-name="Trazado 634582" d="M1306.749,435.022l-.671-.136Z" transform="translate(-47.637 -38.102)" fill="#a1c36b"/>
      <path id="Trazado_634583" data-name="Trazado 634583" d="M1310.907,435.823l-.5-.148C1310.632,435.525,1310.791,435.6,1310.907,435.823Z" transform="translate(-50.464 -38.567)" fill="#a1c36b"/>
      <path id="Trazado_634584" data-name="Trazado 634584" d="M1308.984,435.336l-.5-.137C1308.705,435.039,1308.863,435.123,1308.984,435.336Z" transform="translate(-49.207 -38.252)" fill="#a1c36b"/>
      <path id="Trazado_634585" data-name="Trazado 634585" d="M1356.659,489.689c-.058-.105-.168-.21-.168-.316q-.014-4.707-.008-9.415,0-.213,0-.427l.026-.163.132-.183c.2-.43.4-.863.617-1.287.115-.226.261-.437.394-.655q1.848,1.724,3.7,3.449a.884.884,0,0,1,.108.159c-.542,1-1.091,1.99-1.626,2.991-.915,1.715-1.82,3.436-2.734,5.151C1356.967,489.235,1356.806,489.458,1356.659,489.689Z" transform="translate(-80.565 -65.773)" fill="#2c3856"/>
      <path id="Trazado_634586" data-name="Trazado 634586" d="M1356.691,482.844l-.132.183Z" transform="translate(-80.614 -69.431)" fill="#3a4f70"/>
    </g>
  </g>
</svg>
