<svg xmlns="http://www.w3.org/2000/svg" width="134" height="134" viewBox="0 0 134 134">
  <g id="Grupo_909109" data-name="Grupo 909109" transform="translate(-741.756 -3703.636)">
    <circle id="Elipse_7254" data-name="Elipse 7254" cx="67" cy="67" r="67" transform="translate(741.756 3703.636)" fill="#179587"/>
    <g id="Grupo_904925" data-name="Grupo 904925" transform="translate(-573.6 2912.786)">
      <path id="Trazado_634587" data-name="Trazado 634587" d="M1511.343,1005.091a1.1,1.1,0,0,0-.336-.192,15.46,15.46,0,0,1-6.893-2.852,13.984,13.984,0,0,1-4.071-4.49,24.275,24.275,0,0,1-1.336-2.832,20.785,20.785,0,0,1-.553-2.1,10.19,10.19,0,0,1-.255-4.033c.1-.834.253-1.666.435-2.486a16.106,16.106,0,0,1,.533-1.76,13.292,13.292,0,0,1,1.492-2.911,15.042,15.042,0,0,1,3.4-3.679,13.4,13.4,0,0,1,4.035-2.249,18.287,18.287,0,0,1,3.429-.913,22.769,22.769,0,0,1,3.967-.006,10.889,10.889,0,0,1,2.56.448,18,18,0,0,1,3.085,1.231,15.37,15.37,0,0,1,4.936,4.119,14.988,14.988,0,0,1,2.378,4.266,23.054,23.054,0,0,1,.586,2.438.891.891,0,0,0,.093.186,1.457,1.457,0,0,0-.023.382,9.094,9.094,0,0,1,.14,3.3c-.068.434-.082.876-.121,1.315a1.007,1.007,0,0,0-.1.229,12.881,12.881,0,0,1-1.146,3.713,15.385,15.385,0,0,1-4.36,5.448,14.993,14.993,0,0,1-7.769,3.26.876.876,0,0,0-.167-.029c-1.062.026-2.124.052-3.186.087-.079,0-.155.071-.233.109Zm4.974-3.052a1.115,1.115,0,0,0,.257-.008,13.554,13.554,0,0,0,5.005-2.46c.369-.295.3-.454.045-.759a9.352,9.352,0,0,0-3.46-2.585,20.587,20.587,0,0,0-2.546-.739c-4.243-.672-7.568.837-10.169,4.256.634.389,1.2.775,1.8,1.1a13.046,13.046,0,0,0,4.588,1.443A11.785,11.785,0,0,0,1516.316,1002.039Zm5.89-6.448c.47.482.945.958,1.407,1.448.177.188.272.128.4-.052a10.118,10.118,0,0,0,1.6-3.133,15.059,15.059,0,0,0,.626-2.731,20.188,20.188,0,0,0-.077-3.327,11.077,11.077,0,0,0-1.386-4.067,11.513,11.513,0,0,0-1.381-2.023,11.707,11.707,0,0,0-3.5-2.856,26.271,26.271,0,0,0-2.718-1.124,13.921,13.921,0,0,0-1.41-.4c-.521-.094-1.064-.069-1.587-.157a9.667,9.667,0,0,0-3.945.352,14.6,14.6,0,0,0-3.454,1.4,13.541,13.541,0,0,0-2.489,1.9,12.117,12.117,0,0,0-2.8,4.049,8.782,8.782,0,0,0-.618,1.844,13.345,13.345,0,0,0-.334,3.731,13.176,13.176,0,0,0,.99,4.289,28.3,28.3,0,0,0,1.9,3.209c.227-.254.351-.4.485-.542a25.294,25.294,0,0,1,1.86-1.883,10.853,10.853,0,0,1,4.692-2.4,19.073,19.073,0,0,1,2.669-.474,12.136,12.136,0,0,1,4.262.464,12.781,12.781,0,0,1,3.1,1.328C1521.093,994.792,1521.642,995.2,1522.207,995.591Z" transform="translate(-101.598 -103.168)" fill="#040506"/>
      <path id="Trazado_634588" data-name="Trazado 634588" d="M1355.918,812.515c.641.142,1.287.266,1.923.429a15.518,15.518,0,0,1,3.846,1.6,15.326,15.326,0,0,1,5.057,4.665,14.931,14.931,0,0,1,1.918,3.9,15.044,15.044,0,0,1-4.508,16.051,15.376,15.376,0,0,1-2.953,2.054,19.61,19.61,0,0,1-3.7,1.408,17.209,17.209,0,0,1-2.98.392,7.034,7.034,0,0,1-1.525,0c-1.052-.131-2.1-.285-3.141-.494a13.817,13.817,0,0,1-5.357-2.475,14.987,14.987,0,0,1-4.56-5.272,16.632,16.632,0,0,1-1.41-3.869,14.339,14.339,0,0,1-.274-4.728,14.079,14.079,0,0,1,1.507-5.152,16.514,16.514,0,0,1,2.038-3.083,15.375,15.375,0,0,1,6.6-4.585,29.66,29.66,0,0,1,3.107-.768,1.174,1.174,0,0,0,.3-.183h.523a1.333,1.333,0,0,0,.328.1q1.455.054,2.91.087A1.587,1.587,0,0,0,1355.918,812.515Zm8.477,22.321a.714.714,0,0,0,.158-.128,12.218,12.218,0,0,0,2.106-6.127,11.663,11.663,0,0,0-.756-5.246,12.752,12.752,0,0,0-7.825-7.527,13.712,13.712,0,0,0-1.375-.352c-.7-.117-1.394-.29-2.1-.342a12.6,12.6,0,0,0-5.659.895,12.781,12.781,0,0,0-6.235,5.213,12.137,12.137,0,0,0-1.836,5.848,11.7,11.7,0,0,0,.148,2.772,15.126,15.126,0,0,0,.885,2.839,10.738,10.738,0,0,0,1.927,3.1c4.03-4.675,8.916-6.3,14.861-4.379.3.125.607.234.9.378.635.317,1.261.652,1.891.979l.967.763,1.733,1.669Zm-8.4,5.294a1.606,1.606,0,0,0,.432.008,13.879,13.879,0,0,0,4.051-1.605c.634-.4,1.237-.851,1.854-1.279a9.722,9.722,0,0,0-4.212-3.235,19.031,19.031,0,0,0-2.127-.581c-.429-.06-.857-.155-1.287-.173a10.268,10.268,0,0,0-4.984,1.055,9.2,9.2,0,0,0-3.842,3.385,11.883,11.883,0,0,0,3.777,1.988,13.506,13.506,0,0,0,2.672.588A10.543,10.543,0,0,0,1356,840.13Z" transform="translate(0 0)" fill="#040506"/>
      <path id="Trazado_634589" data-name="Trazado 634589" d="M1528.86,830.218c-.086.386-.17.774-.257,1.16a14.24,14.24,0,0,1-2.531,5.376,15.286,15.286,0,0,1-5.872,4.8,16.433,16.433,0,0,1-2.665.935,15.44,15.44,0,0,1-3.73.546,12.569,12.569,0,0,1-3.562-.355,28.17,28.17,0,0,1-2.859-.883,15.1,15.1,0,0,1-8.337-8.3,24.6,24.6,0,0,1-.879-2.864,15.424,15.424,0,0,1-.3-4.1,8.508,8.508,0,0,1,.292-1.66,13.413,13.413,0,0,1,.393-1.551,18.644,18.644,0,0,1,.925-2.385,15.29,15.29,0,0,1,4.019-4.992,14.154,14.154,0,0,1,4.852-2.667c.932-.281,1.9-.46,2.843-.7a1.739,1.739,0,0,0,.359-.182h.524a2.6,2.6,0,0,0,.421.091c1.007.05,2.015.076,3.021.141.515.033,1.025.131,1.537.2.924.3,1.877.529,2.766.909a15.273,15.273,0,0,1,5.728,4.3,13.475,13.475,0,0,1,2.338,3.873c.3.8.531,1.622.793,2.435a1.572,1.572,0,0,0,.005.335,11.6,11.6,0,0,1,.3,4.217C1528.923,829.334,1528.9,829.777,1528.86,830.218ZM1516,833.528a12.572,12.572,0,0,0-1.979-.25,11.87,11.87,0,0,0-2.509.326,12.769,12.769,0,0,0-2.322.852,9.049,9.049,0,0,0-3.649,3.256,12.249,12.249,0,0,0,4.165,2.091,12.74,12.74,0,0,0,12.228-2.618A9.333,9.333,0,0,0,1516,833.528Zm.349-18.077c-.4-.074-.79-.159-1.187-.221a12.448,12.448,0,0,0-7.468,1.2,12.711,12.711,0,0,0-4.625,3.8,11.931,11.931,0,0,0-2.218,4.7,29.152,29.152,0,0,0-.365,3.15,3.147,3.147,0,0,0-.018.558,4.427,4.427,0,0,0,.165.605,12.585,12.585,0,0,0,2.906,6.6c.1-.106.189-.187.262-.281a12.487,12.487,0,0,1,3.827-3.308,12.854,12.854,0,0,1,5.675-1.629,13.389,13.389,0,0,1,7.042,1.685c.6.353,1.175.752,1.762,1.13l1.722,1.771c.013-.005.1-.014.137-.062.17-.244.325-.5.487-.749a11.533,11.533,0,0,0,1.837-5.217,12.531,12.531,0,0,0-2.64-9.252,12.233,12.233,0,0,0-4.855-3.7C1518.007,815.9,1517.164,815.705,1516.347,815.451Z" transform="translate(-101.632 0)" fill="#040506"/>
      <path id="Trazado_634590" data-name="Trazado 634590" d="M1346.378,978.054c-.4-.95-.25-1.632.482-2.025a7.842,7.842,0,0,1,1.226-.557c.886-.293,1.778-.577,2.684-.8a11.586,11.586,0,0,1,1.911-.258c.636-.044,1.277-.016,1.917-.017a13.648,13.648,0,0,1,3.93.663,14.744,14.744,0,0,1,3.609,1.6,15.238,15.238,0,0,1,6.043,6.8,2.256,2.256,0,0,0,.1.456,13.67,13.67,0,0,1,1.089,4.3,14.669,14.669,0,0,1-.538,5.707,21.9,21.9,0,0,1-1.3,3.042c-.311.644-.731,1.235-1.1,1.849-.15.2-.288.419-.454.611a15.443,15.443,0,0,1-6.909,4.726,12.35,12.35,0,0,1-2.919.688,1.137,1.137,0,0,0-.36.177h-.7a.677.677,0,0,0-.213-.091q-1.337-.055-2.675-.093a.793.793,0,0,0-.253.086,15.931,15.931,0,0,1-9.646-5.012,14.817,14.817,0,0,1-3.053-5.011,10.119,10.119,0,0,1-.764-3.268,32.323,32.323,0,0,1-.031-3.928,14.321,14.321,0,0,1,2.361-6.346,9.25,9.25,0,0,1,.747-1.012,1.336,1.336,0,0,1,2.051-.337c.633.935.635,1.166-.054,2.1a14.275,14.275,0,0,0-2.191,4.333,10.925,10.925,0,0,0-.231,1.219,1.726,1.726,0,0,0-.176.5c-.018.966-.014,1.933,0,2.9a2.01,2.01,0,0,0,.11.451c.026.095.049.19.079.284.284.9.506,1.826.872,2.691a21.342,21.342,0,0,0,1.294,2.4,8.212,8.212,0,0,0,.689.891c.543-.6,1.011-1.2,1.557-1.705a13,13,0,0,1,4.309-2.683,11.879,11.879,0,0,1,3.573-.789,21.859,21.859,0,0,1,3.413.155,9.4,9.4,0,0,1,1.712.483,1.408,1.408,0,0,1,.283.163c.814.428,1.644.829,2.439,1.29a12.633,12.633,0,0,1,2.746,2.468c.182.193.331.23.484,0a16.263,16.263,0,0,0,.952-1.486c.288-.557.418-1.206.753-1.727a2.265,2.265,0,0,0,.312-1.218c.054-.06.15-.116.155-.18.09-1.088.236-2.177.229-3.265a7.711,7.711,0,0,0-.379-2.893c-.206-.511-.307-1.062-.474-1.589-.018-.059-.159-.078-.242-.116-.133-.255-.287-.5-.394-.767a8.222,8.222,0,0,0-1.5-2.3,21.152,21.152,0,0,0-2.009-1.875,8.831,8.831,0,0,0-2.969-1.687,2.331,2.331,0,0,1-.771-.291c-.527-.468-1.189-.306-1.776-.47l-.437-.117a2.544,2.544,0,0,0-.607-.162q-1.451-.026-2.9,0a1.761,1.761,0,0,0-.5.172c-.325.064-.654.112-.975.194-.534.138-1.071.273-1.59.457-.441.156-.843.436-1.29.559A1.689,1.689,0,0,1,1346.378,978.054Zm9.847,17.372a10,10,0,0,0-10.213,4.291c.582.355,1.152.737,1.752,1.063a13.08,13.08,0,0,0,4.458,1.418,11.714,11.714,0,0,0,4.614-.228,1.065,1.065,0,0,0,.257-.006,13.66,13.66,0,0,0,4.787-2.312c.2-.151.372-.333.548-.493a9.716,9.716,0,0,0-6.2-3.734Z" transform="translate(-0.144 -103.1)" fill="#040506"/>
      <path id="Trazado_634591" data-name="Trazado 634591" d="M1445.3,901.908c-.192.985-.344,1.982-.589,2.954a17.408,17.408,0,0,1-.84,2.59,6.852,6.852,0,0,1-1.557,2.72,3.138,3.138,0,0,1-2.84.809.879.879,0,0,0-.979.381,17.089,17.089,0,0,1-6.016,4.866,2.439,2.439,0,0,1-.655.311c-.591.1-.727.52-.836,1.006a3.15,3.15,0,0,1-2.51,2.539,18.577,18.577,0,0,1-6.873.28,5.128,5.128,0,0,1-2.717-.808,3.408,3.408,0,0,1-1.389-2.495.67.67,0,0,0-.325-.472,18.794,18.794,0,0,1-6.712-5.074.5.5,0,0,0-.424-.155,3.361,3.361,0,0,1-4.089-1.621,20.322,20.322,0,0,1-1.845-4.479,11.627,11.627,0,0,1-.6-3.968,3.232,3.232,0,0,1,1.933-2.7c.2-.1.445-.1.634-.2.161-.09.376-.26.391-.412a17.617,17.617,0,0,1,2.5-7.339c.151-.253.153-.4-.026-.577a3.5,3.5,0,0,1,.028-4.779,21.187,21.187,0,0,1,6.7-4.773,3.394,3.394,0,0,1,4.292,1.584,1.383,1.383,0,0,1,.076.339c.406-.067.813-.107,1.205-.2a13.157,13.157,0,0,1,4.14-.284c.887.07,1.766.23,2.648.356.34.049.513-.15.656-.407a3.149,3.149,0,0,1,1.383-1.289,3.372,3.372,0,0,1,3.117.01,21.447,21.447,0,0,1,6.448,4.709,3.161,3.161,0,0,1,.907,2.519,3.779,3.779,0,0,1-.592,1.657.971.971,0,0,0-.03,1.2,27.989,27.989,0,0,1,1.353,2.706,24.052,24.052,0,0,1,.854,2.635,4.785,4.785,0,0,1,.187,1.259c0,.436.281.517.588.583a3.355,3.355,0,0,1,2.406,2.618Zm-38.487-.947a.616.616,0,0,0-.633.736c.132.926.306,1.849.512,2.762a15.478,15.478,0,0,0,1.621,4.008.683.683,0,0,0,1.107.26c.116-.077.246-.136.355-.222a1.3,1.3,0,0,1,1.857.15c.25.288.462.61.706.9a15.717,15.717,0,0,0,6.879,4.94,1.378,1.378,0,0,1,.975,2,.683.683,0,0,0,.183.79,1.958,1.958,0,0,0,1.333.333,2.5,2.5,0,0,0,.576.154,24.424,24.424,0,0,0,5.494-.247.761.761,0,0,0,.607-.986,1.416,1.416,0,0,1,.714-1.828c.28-.134.6-.176.891-.3a15.649,15.649,0,0,0,4.1-2.394,14.52,14.52,0,0,0,3.015-3.225c.363-.568.773-1.129,1.574-.952a4.161,4.161,0,0,1,.951.405.66.66,0,0,0,.957-.178,4.446,4.446,0,0,0,.577-1.007,24.154,24.154,0,0,0,.823-2.422c.3-1.109.544-2.232.742-3.362a.629.629,0,0,0-.516-.8c-.436-.055-.874-.1-1.312-.138a1.365,1.365,0,0,1-1.025-.984c-.224-1.3-.417-2.616-.712-3.9a8.368,8.368,0,0,0-.788-2.068c-.526-.977-1.172-1.888-1.74-2.843a1.242,1.242,0,0,1-.118-1.279,2.219,2.219,0,0,1,.813-.834c.673-.489.692-.839.136-1.446a18.425,18.425,0,0,0-5.331-3.894.844.844,0,0,0-1.32.542,1.957,1.957,0,0,1-1.257,1.68,2.906,2.906,0,0,1-.6-.043,13.159,13.159,0,0,0-3.707-.645,31.439,31.439,0,0,0-3.159.173,9.848,9.848,0,0,0-2.077.471,1.463,1.463,0,0,1-2.055-.79,5.63,5.63,0,0,1-.266-.8c-.206-.654-.628-.921-1.346-.543-.362.19-.715.4-1.073.6a18.181,18.181,0,0,0-4.346,3.378.761.761,0,0,0,.09,1.2c.219.185.473.329.688.518a1.36,1.36,0,0,1,.3,2.085c-.248.344-.488.694-.712,1.054a14.543,14.543,0,0,0-1.841,4.418c-.259,1.12-.318,2.288-.464,3.434a1.217,1.217,0,0,1-.954,1.058Z" transform="translate(-41.562 -43.172)" fill="#040506"/>
      <path id="Trazado_634592" data-name="Trazado 634592" d="M1360.569,981.9l.437.117c.031.045.055.125.092.13a4.2,4.2,0,0,1,2.029,1.166,10.22,10.22,0,0,1,2,1.833c.32.468.731.872,1.071,1.327a6.478,6.478,0,0,1,.43.786,14.5,14.5,0,0,1,1.231,2.311,16.681,16.681,0,0,1,.791,3.6,12.985,12.985,0,0,1-.835,6.137c-.129.316-.1.766-.533.919a21.057,21.057,0,0,0-1.774-1.2c-.656-.358-1.371-.606-2.06-.9a1.407,1.407,0,0,0-.283-.163,9.4,9.4,0,0,0-1.712-.483,21.858,21.858,0,0,0-3.413-.155,11.877,11.877,0,0,0-3.573.789,13,13,0,0,0-4.309,2.683c-.547.51-1.014,1.105-1.557,1.705a8.227,8.227,0,0,1-.689-.891,21.372,21.372,0,0,1-1.294-2.4c-.365-.866-.588-1.792-.872-2.691-.03-.094-.052-.189-.079-.284a1.551,1.551,0,0,0,.06-.358c-.026-.388-.107-.775-.1-1.161.014-.779.072-1.557.112-2.336a10.87,10.87,0,0,1,.231-1.219,14.274,14.274,0,0,1,2.191-4.333c.69-.935.688-1.165.054-2.1a3.886,3.886,0,0,0,.67-.329c.708-.529,1.4-1.082,2.094-1.627a1.69,1.69,0,0,0,1.722.349c.447-.124.849-.4,1.29-.559.519-.184,1.056-.319,1.589-.457.32-.083.65-.13.975-.194.59-.036,1.179-.1,1.769-.1C1359.072,981.812,1359.821,981.868,1360.569,981.9Zm-6,5.69-.277,1.027c-.058.12-.164.24-.168.362-.019.587-.021,1.175,0,1.762a1.338,1.338,0,0,0,.167.419,5.122,5.122,0,0,0,1.333,2.774,3.942,3.942,0,0,0,2.007,1.318,4.079,4.079,0,0,0,3.439-.547,5.164,5.164,0,0,0,2.054-2.852c.047-.044.126-.081.136-.133a8.41,8.41,0,0,0,.26-1.521,3.955,3.955,0,0,0-.324-2.171,4.072,4.072,0,0,0-.272-.713,10.324,10.324,0,0,0-.949-1.412,3.832,3.832,0,0,0-3.161-1.538,15.379,15.379,0,0,0-1.784.28.4.4,0,0,0-.181.107q-.719.665-1.433,1.336Z" transform="translate(-4.744 -107.82)" fill="#4578bc"/>
      <path id="Trazado_634593" data-name="Trazado 634593" d="M1490.68,831.848a1.4,1.4,0,0,1-1.362,1.336,1.378,1.378,0,0,1-1.344-1.353,1.433,1.433,0,0,1,1.313-1.4A1.5,1.5,0,0,1,1490.68,831.848Z" transform="translate(-95.34 -11.478)" fill="#060607"/>
      <path id="Trazado_634594" data-name="Trazado 634594" d="M1429.233,833.5a1.331,1.331,0,0,1-1.287,1.42,1.354,1.354,0,1,1-.052-2.706A1.345,1.345,0,0,1,1429.233,833.5Z" transform="translate(-56.224 -12.609)" fill="#060607"/>
      <path id="Trazado_634595" data-name="Trazado 634595" d="M1428.125,1031.24a1.409,1.409,0,0,1,1.332,1.4,1.326,1.326,0,0,1-1.367,1.311,1.39,1.39,0,0,1-1.368-1.389A1.445,1.445,0,0,1,1428.125,1031.24Z" transform="translate(-56.356 -139.279)" fill="#060708"/>
      <path id="Trazado_634596" data-name="Trazado 634596" d="M1560.348,962.826a1.3,1.3,0,0,1-1.318,1.345,1.4,1.4,0,0,1-1.394-1.327,1.427,1.427,0,0,1,1.384-1.381A1.344,1.344,0,0,1,1560.348,962.826Z" transform="translate(-139.674 -94.87)" fill="#060607"/>
      <path id="Trazado_634597" data-name="Trazado 634597" d="M1557.3,902.854a1.531,1.531,0,0,1-1.383-1.338,1.51,1.51,0,0,1,1.4-1.4,1.371,1.371,0,0,1-.013,2.741Z" transform="translate(-138.584 -55.824)" fill="#060607"/>
      <path id="Trazado_634598" data-name="Trazado 634598" d="M1488.172,1030.924a1.325,1.325,0,0,1,1.336-1.323,1.352,1.352,0,0,1,1.318,1.356,1.319,1.319,0,0,1-1.346,1.325A1.3,1.3,0,0,1,1488.172,1030.924Z" transform="translate(-95.466 -138.235)" fill="#060607"/>
      <path id="Trazado_634599" data-name="Trazado 634599" d="M1361.369,963.06a1.376,1.376,0,0,1-1.375,1.35,1.423,1.423,0,0,1-1.335-1.334,1.355,1.355,0,1,1,2.71-.016Z" transform="translate(-13.037 -95.026)" fill="#060607"/>
      <path id="Trazado_634600" data-name="Trazado 634600" d="M1562.565,943.758a1.41,1.41,0,0,1-1.348-1.362,1.434,1.434,0,0,1,1.243-1.327c.9.076,1.406.411,1.442,1.355A1.324,1.324,0,0,1,1562.565,943.758Z" transform="translate(-141.955 -81.89)" fill="#060708"/>
      <path id="Trazado_634601" data-name="Trazado 634601" d="M1447.331,1036.072a1.328,1.328,0,0,1,1.313-1.359,1.406,1.406,0,0,1,1.339,1.384,1.384,1.384,0,0,1-1.364,1.349A1.308,1.308,0,0,1,1447.331,1036.072Z" transform="translate(-69.471 -141.489)" fill="#070708"/>
      <path id="Trazado_634602" data-name="Trazado 634602" d="M1449.511,828.923a1.319,1.319,0,0,1-1.292,1.361,1.382,1.382,0,0,1-1.354-1.381,1.4,1.4,0,0,1,1.325-1.351A1.361,1.361,0,0,1,1449.511,828.923Z" transform="translate(-69.177 -9.642)" fill="#060607"/>
      <path id="Trazado_634603" data-name="Trazado 634603" d="M1358.323,903.012c-.715.117-1.376-.744-1.363-1.323a1.461,1.461,0,0,1,1.37-1.344,1.373,1.373,0,0,1,1.328,1.347A1.294,1.294,0,0,1,1358.323,903.012Z" transform="translate(-11.957 -55.972)" fill="#060607"/>
      <path id="Trazado_634604" data-name="Trazado 634604" d="M1470.176,828.36a1.244,1.244,0,0,1-1.276,1.36,1.354,1.354,0,0,1-1.358-1.344,1.389,1.389,0,0,1,1.341-1.369C1469.55,827.022,1470.319,827.614,1470.176,828.36Z" transform="translate(-82.337 -9.297)" fill="#070708"/>
      <path id="Trazado_634605" data-name="Trazado 634605" d="M1563.346,921.74a1.346,1.346,0,0,1-1.291,1.367,1.45,1.45,0,0,1-1.373-1.343,1.4,1.4,0,0,1,1.287-1.348A1.275,1.275,0,0,1,1563.346,921.74Z" transform="translate(-141.614 -68.746)" fill="#060607"/>
      <path id="Trazado_634606" data-name="Trazado 634606" d="M1470.646,1035.591a1.321,1.321,0,1,1-2.641-.048,1.318,1.318,0,0,1,1.31-1.326A1.344,1.344,0,0,1,1470.646,1035.591Z" transform="translate(-82.631 -141.174)" fill="#060607"/>
      <path id="Trazado_634607" data-name="Trazado 634607" d="M1356.09,922.11a1.285,1.285,0,0,1-1.451,1.288,1.432,1.432,0,0,1-1.272-1.315,1.508,1.508,0,0,1,1.388-1.36A1.339,1.339,0,0,1,1356.09,922.11Z" transform="translate(-9.67 -68.94)" fill="#070708"/>
      <path id="Trazado_634608" data-name="Trazado 634608" d="M1356.718,942.846a1.306,1.306,0,0,1-1.289,1.36,1.341,1.341,0,0,1-.081-2.68A1.265,1.265,0,0,1,1356.718,942.846Z" transform="translate(-10.108 -82.181)" fill="#060708"/>
      <path id="Trazado_634609" data-name="Trazado 634609" d="M1415.5,1014.706c.371-.614.791-1.206,1.1-1.849a21.913,21.913,0,0,0,1.3-3.042,14.673,14.673,0,0,0,.538-5.707,13.673,13.673,0,0,0-1.09-4.3,2.273,2.273,0,0,1-.1-.456c.317.9.7,1.779.931,2.7a15.254,15.254,0,0,1-2.459,12.457A1.308,1.308,0,0,1,1415.5,1014.706Z" transform="translate(-49.218 -118.985)" fill="#38373b"/>
      <path id="Trazado_634610" data-name="Trazado 634610" d="M1518.509,937.392l0-1.4c.054.055.159.114.155.164C1518.631,936.566,1518.864,937.018,1518.509,937.392Z" transform="translate(-114.774 -78.656)" fill="#bdbbbf"/>
      <path id="Trazado_634611" data-name="Trazado 634611" d="M1526.963,1000.107c-.564-.387-1.113-.8-1.7-1.155a12.777,12.777,0,0,0-3.1-1.328,12.131,12.131,0,0,0-4.262-.464,19.1,19.1,0,0,0-2.669.474,10.857,10.857,0,0,0-4.692,2.4,25.245,25.245,0,0,0-1.86,1.883c-.135.139-.259.288-.485.542a28.226,28.226,0,0,1-1.9-3.209,13.182,13.182,0,0,1-.99-4.289,13.346,13.346,0,0,1,.334-3.731,8.756,8.756,0,0,1,.618-1.844,12.117,12.117,0,0,1,2.8-4.049,13.557,13.557,0,0,1,2.489-1.9,14.61,14.61,0,0,1,3.454-1.4,9.669,9.669,0,0,1,3.945-.352c.523.088,1.065.063,1.587.157a13.849,13.849,0,0,1,1.41.4l-.205.125c.384.316.772.62,1.142.944.594.521,1.168,1.067,1.767,1.583a9.151,9.151,0,0,1,1.828,2.443,16.923,16.923,0,0,1,1.052,2.307c.221.558.356,1.15.529,1.726.058.662.149,1.324.166,1.988.028,1.053.007,2.107.007,3.161-.116.458-.214.921-.352,1.372-.22.724-.463,1.441-.708,2.157C1527.155,1000.086,1527.034,1000.088,1526.963,1000.107Zm-6.588-5.249a5.784,5.784,0,0,0,2.421-3.138,5.981,5.981,0,0,0-1.211-6.048,3.874,3.874,0,0,0-4.564-1.217,5.118,5.118,0,0,0-3.17,4.4,10.7,10.7,0,0,0,.066,2.09,4.316,4.316,0,0,0,.662,1.9,5.815,5.815,0,0,0,1.79,1.909c.018.051.02.131.056.15a3.935,3.935,0,0,0,2.364.466C1519.336,995.3,1519.953,995.354,1520.375,994.857Z" transform="translate(-106.355 -107.684)" fill="#ec7974"/>
      <path id="Trazado_634612" data-name="Trazado 634612" d="M1529.694,1038.5a11.781,11.781,0,0,1-4.48.248,13.045,13.045,0,0,1-4.588-1.443c-.6-.324-1.167-.71-1.8-1.1,2.6-3.419,5.926-4.928,10.169-4.257a8.252,8.252,0,0,1,2.326,1.829,2.557,2.557,0,0,1,.518,2.571,3.28,3.28,0,0,1-1.73,1.815A3.629,3.629,0,0,0,1529.694,1038.5Z" transform="translate(-114.976 -139.632)" fill="#fef0ee"/>
      <path id="Trazado_634613" data-name="Trazado 634613" d="M1556.86,992.5c-.173-.577-.308-1.169-.529-1.727a16.914,16.914,0,0,0-1.052-2.307,9.153,9.153,0,0,0-1.828-2.443c-.6-.516-1.173-1.061-1.767-1.583-.37-.324-.757-.627-1.141-.944l.2-.125a26.207,26.207,0,0,1,2.718,1.124,11.7,11.7,0,0,1,3.5,2.857,11.511,11.511,0,0,1,1.381,2.023,11.081,11.081,0,0,1,1.386,4.066,20.218,20.218,0,0,1,.077,3.327,15.063,15.063,0,0,1-.626,2.731,10.117,10.117,0,0,1-1.6,3.133c-.128.18-.223.24-.4.052-.462-.489-.937-.966-1.408-1.448.071-.019.192-.021.205-.059.245-.716.488-1.433.708-2.157.137-.451.236-.914.352-1.372.477-.15.416-.553.314-.862a5.262,5.262,0,0,1-.069-2.737A1.738,1.738,0,0,0,1556.86,992.5Z" transform="translate(-135.161 -108.813)" fill="#e86260"/>
      <path id="Trazado_634614" data-name="Trazado 634614" d="M1547.5,1038.776a3.638,3.638,0,0,1,.415-.336,3.281,3.281,0,0,0,1.731-1.815,2.557,2.557,0,0,0-.518-2.571,8.252,8.252,0,0,0-2.326-1.829,20.582,20.582,0,0,1,2.546.739,9.349,9.349,0,0,1,3.46,2.585c.259.305.324.465-.045.759a13.555,13.555,0,0,1-5.005,2.46A1.12,1.12,0,0,1,1547.5,1038.776Z" transform="translate(-132.777 -139.906)" fill="#d1d6d7"/>
      <path id="Trazado_634615" data-name="Trazado 634615" d="M1367.147,838.212l-.967-.763a5.089,5.089,0,0,0-1.875-1.129,5.571,5.571,0,0,0-.913-.228c-5.945-1.92-10.831-.3-14.861,4.379a10.733,10.733,0,0,1-1.927-3.1,15.128,15.128,0,0,1-.885-2.839,11.685,11.685,0,0,1-.148-2.772,12.133,12.133,0,0,1,1.836-5.847,12.781,12.781,0,0,1,6.235-5.213,12.6,12.6,0,0,1,5.659-.895c.7.052,1.4.225,2.1.342a5.364,5.364,0,0,1,.613.357,17.459,17.459,0,0,1,3.319,2.926c.282.361.57.718.855,1.076a1.594,1.594,0,0,0,.116.31,7.688,7.688,0,0,1,.58.9,28.974,28.974,0,0,1,1.113,2.735,8.573,8.573,0,0,1,.517,2.429,13.942,13.942,0,0,1-.136,3.932c-.23.865-.412,1.741-.616,2.613C1367.543,837.676,1367.668,838.2,1367.147,838.212Zm-8.178-4.76a3.939,3.939,0,0,0,3.335-1.946,6.226,6.226,0,0,0,.36-6.627,4.4,4.4,0,0,0-3.2-2.482,3.924,3.924,0,0,0-3.52,1.054,6.2,6.2,0,0,0-1.094,7.51A4.376,4.376,0,0,0,1358.969,833.452Z" transform="translate(-4.696 -4.693)" fill="#ffe740"/>
      <path id="Trazado_634616" data-name="Trazado 634616" d="M1369.488,876.642a10.542,10.542,0,0,1-3.667.152,13.507,13.507,0,0,1-2.672-.588,11.876,11.876,0,0,1-3.777-1.988,9.2,9.2,0,0,1,3.842-3.385,10.267,10.267,0,0,1,4.984-1.055c.431.018.858.113,1.287.173a14.192,14.192,0,0,1,1.453,1.056,4.889,4.889,0,0,1,1.3,1.515,2.556,2.556,0,0,1-1.1,3.335A11.848,11.848,0,0,1,1369.488,876.642Z" transform="translate(-13.493 -36.512)" fill="#fdf0ee"/>
      <path id="Trazado_634617" data-name="Trazado 634617" d="M1393.933,825.169c-.285-.358-.573-.715-.855-1.076a17.465,17.465,0,0,0-3.319-2.926,5.372,5.372,0,0,0-.613-.357,13.7,13.7,0,0,1,1.375.352,12.751,12.751,0,0,1,7.825,7.527,11.666,11.666,0,0,1,.756,5.246,12.219,12.219,0,0,1-2.107,6.127.714.714,0,0,1-.158.128,7.071,7.071,0,0,1-.449-.989c-.1-.34-.076-.713-.155-1.061a3.709,3.709,0,0,0-.293-.667v-.087c.116-.089.314-.163.335-.271.1-.51.26-1.023.324-1.517a29.444,29.444,0,0,0,.115-3.5c0-.1-.163-.2-.25-.294-.029-.324-.049-.648-.09-.97a2.474,2.474,0,0,0-.179-.957c-.2-.321-.2-.543,0-.759a1.811,1.811,0,0,1-.353-.4c-.195-.446-.344-.911-.532-1.36-.082-.2-.292-.365-.312-.559C1394.929,826.054,1394.352,825.668,1393.933,825.169Z" transform="translate(-32.442 -5.352)" fill="#ffc030"/>
      <path id="Trazado_634618" data-name="Trazado 634618" d="M1387.193,876.961a11.86,11.86,0,0,0,1.653-.785,2.556,2.556,0,0,0,1.1-3.335,4.888,4.888,0,0,0-1.3-1.515,14.2,14.2,0,0,0-1.453-1.056,19.029,19.029,0,0,1,2.127.581,9.721,9.721,0,0,1,4.212,3.235c-.618.428-1.22.878-1.854,1.279a13.873,13.873,0,0,1-4.051,1.605A1.606,1.606,0,0,1,1387.193,876.961Z" transform="translate(-31.197 -36.831)" fill="#d2d6d6"/>
      <path id="Trazado_634619" data-name="Trazado 634619" d="M1406,866.64a3.7,3.7,0,0,1,.293.667c.08.348.056.721.155,1.061a7.065,7.065,0,0,0,.449.989l-.211.352-1.733-1.669c.521-.017.4-.536.613-.789.057-.079.115-.158.172-.238Z" transform="translate(-42.503 -34.521)" fill="#fcc52f"/>
      <path id="Trazado_634620" data-name="Trazado 634620" d="M1394.629,864.658a5.585,5.585,0,0,1,.913.228,5.086,5.086,0,0,1,1.875,1.129c-.63-.328-1.256-.662-1.891-.979C1395.236,864.892,1394.928,864.783,1394.629,864.658Z" transform="translate(-35.931 -33.259)" fill="#e3c35d"/>
      <path id="Trazado_634621" data-name="Trazado 634621" d="M1505.076,832.776a29.183,29.183,0,0,1,.365-3.15,11.931,11.931,0,0,1,2.218-4.7,12.709,12.709,0,0,1,4.625-3.8,12.448,12.448,0,0,1,7.468-1.2c.4.063.792.147,1.188.221.708.512,1.42,1.017,2.122,1.537a13.575,13.575,0,0,1,3.305,3.785,12.264,12.264,0,0,1,1.531,3.914,18.6,18.6,0,0,1,.356,2.865c.033.523-.134,1.057-.147,1.588a10.162,10.162,0,0,1-1.064,4.107c-.045.1-.228.129-.347.192-.587-.378-1.161-.777-1.762-1.13a13.387,13.387,0,0,0-7.041-1.685,12.855,12.855,0,0,0-5.675,1.629,12.488,12.488,0,0,0-3.827,3.308c-.073.094-.163.175-.262.281a12.582,12.582,0,0,1-2.906-6.6Zm13.236.736a7.036,7.036,0,0,0,1.538-.332,5.213,5.213,0,0,0,2.7-2.946,6.335,6.335,0,0,0,.372-3.188,5.805,5.805,0,0,0-1.458-3.213,4.034,4.034,0,0,0-5.433-.768,5.434,5.434,0,0,0-2.213,3.292,6.127,6.127,0,0,0,.723,4.819A4.46,4.46,0,0,0,1518.312,833.511Z" transform="translate(-106.224 -4.698)" fill="#a4d7dd"/>
      <path id="Trazado_634622" data-name="Trazado 634622" d="M1523.149,876.349a12.25,12.25,0,0,1-4.165-2.09,9.048,9.048,0,0,1,3.649-3.256,12.765,12.765,0,0,1,2.322-.852,11.869,11.869,0,0,1,2.509-.326,12.574,12.574,0,0,1,1.979.25,9.966,9.966,0,0,0,.767.669,4.228,4.228,0,0,1,1.655,1.779,2.382,2.382,0,0,1-.36,2.639,3.553,3.553,0,0,1-.71.692,5.484,5.484,0,0,1-1.336.649c-.5.148-1.056.116-1.57.239a9.005,9.005,0,0,1-3.339-.183C1524.081,876.5,1523.616,876.42,1523.149,876.349Z" transform="translate(-115.076 -36.547)" fill="#fef0ef"/>
      <path id="Trazado_634623" data-name="Trazado 634623" d="M1554.469,838.781c.119-.062.3-.094.347-.192a10.157,10.157,0,0,0,1.064-4.107c.013-.531.181-1.064.147-1.588a18.66,18.66,0,0,0-.356-2.865,12.265,12.265,0,0,0-1.532-3.914,13.572,13.572,0,0,0-3.305-3.785c-.7-.52-1.414-1.025-2.122-1.537.817.254,1.66.446,2.445.775a12.233,12.233,0,0,1,4.855,3.7,12.53,12.53,0,0,1,2.64,9.252,11.534,11.534,0,0,1-1.837,5.217c-.162.25-.317.505-.487.749-.034.048-.124.057-.137.062Z" transform="translate(-133.996 -5.342)" fill="#60bed4"/>
      <path id="Trazado_634624" data-name="Trazado 634624" d="M1530.441,876.789c.467.071.932.149,1.4.209a9.005,9.005,0,0,0,3.339.183c.513-.123,1.066-.091,1.57-.239a5.484,5.484,0,0,0,1.336-.649,3.553,3.553,0,0,0,.71-.692,2.382,2.382,0,0,0,.36-2.639,4.227,4.227,0,0,0-1.655-1.779,9.942,9.942,0,0,1-.767-.669,9.333,9.333,0,0,1,5.935,3.656A12.74,12.74,0,0,1,1530.441,876.789Z" transform="translate(-122.368 -36.987)" fill="#d2d6d7"/>
      <path id="Trazado_634625" data-name="Trazado 634625" d="M1505.029,855.523q.073.581.147,1.163a4.409,4.409,0,0,1-.165-.605A3.147,3.147,0,0,1,1505.029,855.523Z" transform="translate(-106.177 -27.445)" fill="#122f2e"/>
      <path id="Trazado_634626" data-name="Trazado 634626" d="M1370.166,1038.444a11.71,11.71,0,0,1-4.614.228,13.08,13.08,0,0,1-4.458-1.418c-.6-.326-1.17-.708-1.752-1.063a10,10,0,0,1,10.213-4.291c.119.1.237.2.359.3.562.451,1.164.859,1.679,1.358a2.621,2.621,0,0,1-.344,4.125C1370.894,1037.945,1370.528,1038.191,1370.166,1038.444Z" transform="translate(-13.473 -139.574)" fill="#fef0ee"/>
      <path id="Trazado_634627" data-name="Trazado 634627" d="M1394.2,1000.594c.434-.154.4-.6.533-.919a12.982,12.982,0,0,0,.835-6.138,16.681,16.681,0,0,0-.791-3.6,14.505,14.505,0,0,0-1.231-2.311,6.487,6.487,0,0,0-.43-.786c-.34-.455-.751-.859-1.071-1.327a10.216,10.216,0,0,0-2-1.833,4.2,4.2,0,0,0-2.029-1.166c-.037-.006-.062-.085-.092-.13.587.164,1.25,0,1.776.47a2.329,2.329,0,0,0,.771.291,8.834,8.834,0,0,1,2.968,1.687,21.15,21.15,0,0,1,2.009,1.875,8.22,8.22,0,0,1,1.5,2.3c.106.266.261.512.394.767.1.312.188.631.312.934a8.793,8.793,0,0,1,.668,3.785,7.545,7.545,0,0,1-.273,2.857,1.658,1.658,0,0,0-.071.368,3.606,3.606,0,0,1-.131.632c-.285.717-.561,1.442-.9,2.133-.305.618-.692,1.2-.971,1.668Z" transform="translate(-31.667 -108.183)" fill="#2f5da7"/>
      <path id="Trazado_634628" data-name="Trazado 634628" d="M1388.045,1038.786c.362-.253.728-.5,1.084-.759a2.621,2.621,0,0,0,.344-4.125c-.515-.5-1.118-.907-1.68-1.358-.122-.1-.24-.2-.359-.3a9.718,9.718,0,0,1,6.2,3.734c-.177.16-.351.342-.549.493a13.659,13.659,0,0,1-4.787,2.312A1.058,1.058,0,0,1,1388.045,1038.786Z" transform="translate(-31.352 -139.917)" fill="#d2d6d6"/>
      <path id="Trazado_634629" data-name="Trazado 634629" d="M1398.481,1027.446l1.772,1.558c.278-.472.666-1.05.971-1.668.341-.692.617-1.416.9-2.133a3.617,3.617,0,0,0,.131-.632l.076.1a2.263,2.263,0,0,1-.312,1.217c-.335.521-.465,1.169-.753,1.727a16.228,16.228,0,0,1-.952,1.486c-.153.23-.3.193-.484,0a12.633,12.633,0,0,0-2.746-2.468c-.8-.461-1.625-.862-2.439-1.29.689.3,1.4.544,2.06.9A21.018,21.018,0,0,1,1398.481,1027.446Z" transform="translate(-35.943 -135.035)" fill="#11192c"/>
      <path id="Trazado_634630" data-name="Trazado 634630" d="M1414.541,1010.764l-.076-.1a1.628,1.628,0,0,1,.071-.368,7.551,7.551,0,0,0,.273-2.857,8.794,8.794,0,0,0-.669-3.785c-.124-.3-.209-.622-.312-.934.084.038.224.057.242.116.167.527.269,1.079.474,1.59a7.713,7.713,0,0,1,.379,2.893c.007,1.088-.139,2.177-.229,3.264C1414.691,1010.648,1414.595,1010.7,1414.541,1010.764Z" transform="translate(-48.151 -121.129)" fill="#11192a"/>
      <path id="Trazado_634631" data-name="Trazado 634631" d="M1379.7,981.755c-.748-.033-1.5-.089-2.245-.091-.59,0-1.179.066-1.769.1a1.767,1.767,0,0,1,.505-.172q1.451-.026,2.9,0A2.549,2.549,0,0,1,1379.7,981.755Z" transform="translate(-23.875 -107.674)" fill="#142951"/>
      <path id="Trazado_634632" data-name="Trazado 634632" d="M1345.6,1010.889c-.04.779-.1,1.557-.112,2.336-.007.386.075.774.1,1.162a1.546,1.546,0,0,1-.06.358,2.017,2.017,0,0,1-.11-.451c-.009-.967-.013-1.934,0-2.9A1.729,1.729,0,0,1,1345.6,1010.889Z" transform="translate(-4.61 -126.327)" fill="#131f3b"/>
      <path id="Trazado_634633" data-name="Trazado 634633" d="M1426.42,922.4a1.959,1.959,0,0,1-1.333-.333.683.683,0,0,1-.183-.79,1.378,1.378,0,0,0-.975-2,15.718,15.718,0,0,1-6.879-4.94c-.244-.295-.456-.617-.706-.905a1.3,1.3,0,0,0-1.858-.15c-.109.086-.238.145-.355.222a.683.683,0,0,1-1.107-.26,15.485,15.485,0,0,1-1.621-4.007c-.207-.913-.38-1.836-.512-2.762a.616.616,0,0,1,.633-.735c.414.077.835.238,1.221-.088a1.216,1.216,0,0,0,.954-1.058c.146-1.146.205-2.313.464-3.434a14.533,14.533,0,0,1,1.84-4.417c.224-.36.464-.71.712-1.054a1.36,1.36,0,0,0-.3-2.085c-.215-.189-.469-.333-.688-.518a.761.761,0,0,1-.09-1.2,18.182,18.182,0,0,1,4.346-3.378c.358-.2.711-.406,1.072-.6.718-.377,1.141-.11,1.346.543a5.614,5.614,0,0,0,.266.8,1.463,1.463,0,0,0,2.056.79,9.846,9.846,0,0,1,2.077-.471,31.441,31.441,0,0,1,3.159-.173,13.163,13.163,0,0,1,3.707.645,2.906,2.906,0,0,0,.6.043c.445-.018.648.325.879.608.735.9,1.512,1.77,2.17,2.723a19.872,19.872,0,0,1,2.043,4.249c.151.419.243.859.389,1.281a6.013,6.013,0,0,1,.475,2.095c0,.113.032.227.039.341.039.626.077,1.252.106,1.878,0,.029-.085.062-.13.094-.179-.744-.322-1.5-.544-2.231a9.554,9.554,0,0,0-1.871-3.357,10.915,10.915,0,0,0-5.033-3.523,12.291,12.291,0,0,0-3.167-.66,11.286,11.286,0,0,0-4.72.866,1.43,1.43,0,0,0-.985,2.092,1.882,1.882,0,0,0-.368.185c-.407.33-.819.659-1.2,1.022a1.967,1.967,0,0,0-.29.556c-.029,0-.068,0-.085-.013a1.306,1.306,0,0,0-2.128.305,10.829,10.829,0,0,0-1.761,4.615,11.082,11.082,0,0,0,.511,5.269,11.326,11.326,0,0,0,4.056,5.359,10.529,10.529,0,0,0,5.627,2.065,11.2,11.2,0,0,0,4.2-.476,11.545,11.545,0,0,0,3.647-1.951,10.728,10.728,0,0,0,3.251-4.246c.137-.321.32-.622.482-.933a2.6,2.6,0,0,1-.036.618c-.2.651-.405,1.3-.656,1.936a21.565,21.565,0,0,1-1.122,2.583,16.535,16.535,0,0,1-1.773,2.633c-.806.953-1.749,1.789-2.633,2.677a13.272,13.272,0,0,1-3.042,2.16C1429.3,921.643,1428.016,922.472,1426.42,922.4Z" transform="translate(-46.276 -47.952)" fill="#a6a5a5"/>
      <path id="Trazado_634634" data-name="Trazado 634634" d="M1453.62,922.386c1.6.071,2.881-.758,4.191-1.484a13.278,13.278,0,0,0,3.041-2.16c.884-.887,1.827-1.723,2.633-2.677a16.543,16.543,0,0,0,1.773-2.633,21.613,21.613,0,0,0,1.122-2.583c.25-.633.456-1.285.656-1.936a2.591,2.591,0,0,0,.036-.618c.016-.22.014-.442.05-.659.146-.891.351-1.776.44-2.673a9.08,9.08,0,0,0-.116-1.614c.046-.031.132-.064.13-.093-.029-.626-.067-1.252-.106-1.879-.007-.115-.042-.228-.039-.341a6.007,6.007,0,0,0-.475-2.095c-.146-.422-.238-.862-.389-1.281a19.892,19.892,0,0,0-2.043-4.249c-.658-.953-1.435-1.824-2.17-2.723-.231-.283-.434-.626-.879-.608a1.957,1.957,0,0,0,1.257-1.68.844.844,0,0,1,1.32-.542,18.426,18.426,0,0,1,5.331,3.894c.556.607.537.957-.136,1.446a2.221,2.221,0,0,0-.813.834,1.243,1.243,0,0,0,.118,1.279c.568.955,1.214,1.866,1.74,2.843a8.369,8.369,0,0,1,.788,2.068c.3,1.288.489,2.6.712,3.9a1.365,1.365,0,0,0,1.025.984c.438.043.876.083,1.312.138a.629.629,0,0,1,.516.8c-.2,1.13-.447,2.253-.742,3.362a24.121,24.121,0,0,1-.823,2.422,4.422,4.422,0,0,1-.577,1.007.659.659,0,0,1-.957.178,4.167,4.167,0,0,0-.951-.405c-.8-.177-1.211.384-1.574.952a14.531,14.531,0,0,1-3.015,3.225,15.648,15.648,0,0,1-4.1,2.394c-.288.121-.611.163-.891.3a1.416,1.416,0,0,0-.714,1.828.761.761,0,0,1-.607.986,24.433,24.433,0,0,1-5.495.247A2.5,2.5,0,0,1,1453.62,922.386Z" transform="translate(-73.476 -47.936)" fill="#898788"/>
      <path id="Trazado_634635" data-name="Trazado 634635" d="M1413.869,937c-.386.326-.806.165-1.221.088Z" transform="translate(-47.399 -79.304)" fill="#858585"/>
      <path id="Trazado_634636" data-name="Trazado 634636" d="M1370.394,990.555q.716-.669,1.433-1.336a.394.394,0,0,1,.181-.107,15.373,15.373,0,0,1,1.784-.28,3.832,3.832,0,0,1,3.161,1.538,10.3,10.3,0,0,1,.949,1.412,4.061,4.061,0,0,1,.272.712,9.416,9.416,0,0,1,.171,1.142,7.007,7.007,0,0,1-.243,2.683,5.163,5.163,0,0,1-2.054,2.852,4.08,4.08,0,0,1-3.439.547,3.941,3.941,0,0,1-2.007-1.318,5.122,5.122,0,0,1-1.333-2.774c-.036-.518-.092-1.036-.1-1.555a8.082,8.082,0,0,1,.1-.988l.277-1.027a1.594,1.594,0,0,0,.253-.292C1370.01,991.367,1370.2,990.96,1370.394,990.555Zm5.365,3.815.1-.03a13.255,13.255,0,0,0-.49-1.681,1.78,1.78,0,0,0-1.472-1.192,1.731,1.731,0,0,0-1.638,1.06,3.776,3.776,0,0,0,.313,4.123,1.54,1.54,0,0,0,2.29.114A3.22,3.22,0,0,0,1375.759,994.371Z" transform="translate(-19.728 -112.286)" fill="#050606"/>
      <path id="Trazado_634637" data-name="Trazado 634637" d="M1393.74,1002.741a7,7,0,0,0,.242-2.683,9.385,9.385,0,0,0-.171-1.142,3.95,3.95,0,0,1,.324,2.172,8.423,8.423,0,0,1-.26,1.521C1393.866,1002.659,1393.787,1002.7,1393.74,1002.741Z" transform="translate(-35.365 -118.707)" fill="#304d64"/>
      <path id="Trazado_634638" data-name="Trazado 634638" d="M1369.132,1000.537a8.052,8.052,0,0,0-.1.988c.007.519.063,1.037.1,1.555a1.341,1.341,0,0,1-.168-.419c-.018-.587-.016-1.175,0-1.762C1368.967,1000.776,1369.073,1000.657,1369.132,1000.537Z" transform="translate(-19.587 -119.738)" fill="#1c3d79"/>
      <path id="Trazado_634639" data-name="Trazado 634639" d="M1371.058,993.58c-.2.4-.384.812-.591,1.21a1.6,1.6,0,0,1-.253.292Z" transform="translate(-20.393 -115.311)" fill="#141e2e"/>
      <path id="Trazado_634640" data-name="Trazado 634640" d="M1531.308,999.227a5.811,5.811,0,0,1-1.789-1.909,4.316,4.316,0,0,1-.662-1.9,10.713,10.713,0,0,1-.066-2.09,5.119,5.119,0,0,1,3.17-4.4,3.874,3.874,0,0,1,4.564,1.217,5.982,5.982,0,0,1,1.211,6.048,5.784,5.784,0,0,1-2.421,3.138,9.506,9.506,0,0,1-1.263.354A4.424,4.424,0,0,1,1531.308,999.227Zm4.029-5.013.118-.031a11.421,11.421,0,0,0-.5-1.684c-.613-1.311-2.051-1.711-2.99-.273a3.487,3.487,0,0,0-.533,2.516,2.935,2.935,0,0,0,1.035,2.009,1.4,1.4,0,0,0,1.844,0A2.9,2.9,0,0,0,1535.337,994.215Z" transform="translate(-121.295 -112.158)" fill="#050606"/>
      <path id="Trazado_634641" data-name="Trazado 634641" d="M1567.922,1008.479a1.738,1.738,0,0,1,.419,1.549,5.261,5.261,0,0,0,.069,2.736c.1.31.163.713-.314.862,0-1.054.021-2.108-.007-3.161C1568.071,1009.8,1567.98,1009.141,1567.922,1008.479Z" transform="translate(-146.222 -124.793)" fill="#e9696a"/>
      <path id="Trazado_634642" data-name="Trazado 634642" d="M1535.777,1017.786a4.424,4.424,0,0,0,2.744.458,9.5,9.5,0,0,0,1.263-.354c-.422.5-1.038.447-1.587.512a3.935,3.935,0,0,1-2.364-.466C1535.8,1017.917,1535.795,1017.837,1535.777,1017.786Z" transform="translate(-125.764 -130.716)" fill="#ba6f6d"/>
      <path id="Trazado_634643" data-name="Trazado 634643" d="M1373.858,837.917a4.376,4.376,0,0,1-4.118-2.49,6.2,6.2,0,0,1,1.094-7.51,3.923,3.923,0,0,1,3.52-1.054,4.4,4.4,0,0,1,3.2,2.482,6.226,6.226,0,0,1-.36,6.627A3.939,3.939,0,0,1,1373.858,837.917Zm1.855-5.437a9.462,9.462,0,0,0-.484-1.8c-.693-1.419-2.016-1.689-3-.328a3.6,3.6,0,0,0,.249,4.338c.783.815,1.334.921,2.248.082A3.518,3.518,0,0,0,1375.713,832.479Z" transform="translate(-19.585 -9.157)" fill="#050506"/>
      <path id="Trazado_634644" data-name="Trazado 634644" d="M1404.321,845.1l-.262.373c-.057.08-.114.159-.172.238.2-.871.386-1.748.616-2.613a13.952,13.952,0,0,0,.136-3.932,8.582,8.582,0,0,0-.517-2.429,29,29,0,0,0-1.113-2.735,7.665,7.665,0,0,0-.579-.9,1.572,1.572,0,0,1-.116-.31c.419.5,1,.886,1.07,1.627.02.194.229.362.312.559.188.449.337.915.532,1.36a1.811,1.811,0,0,0,.353.4c-.207.216-.2.438,0,.759a2.474,2.474,0,0,1,.179.957c.042.322.061.646.09.97.029.531.089,1.063.077,1.592a10.188,10.188,0,0,1-.167,1.347c-.083.521-.191,1.037-.278,1.557-.06.361-.1.725-.156,1.088Z" transform="translate(-40.822 -12.984)" fill="#ffcf34"/>
      <path id="Trazado_634645" data-name="Trazado 634645" d="M1407.834,856.624c.051-.363.1-.727.156-1.088.087-.52.2-1.037.278-1.557a10.188,10.188,0,0,0,.167-1.347c.013-.53-.048-1.062-.077-1.592.087.1.251.2.25.294a29.5,29.5,0,0,1-.115,3.5c-.064.494-.224,1.008-.324,1.517C1408.148,856.462,1407.95,856.535,1407.834,856.624Z" transform="translate(-44.335 -24.592)" fill="#fcc52f"/>
      <path id="Trazado_634646" data-name="Trazado 634646" d="M1533.252,837.989a4.461,4.461,0,0,1-3.776-2.336,6.127,6.127,0,0,1-.723-4.819,5.433,5.433,0,0,1,2.214-3.292,4.034,4.034,0,0,1,5.432.768,5.807,5.807,0,0,1,1.458,3.213,6.333,6.333,0,0,1-.372,3.188,5.212,5.212,0,0,1-2.7,2.946A7.031,7.031,0,0,1,1533.252,837.989Zm1.95-5.571.12-.029a9.716,9.716,0,0,0-.51-1.768,1.613,1.613,0,0,0-2.986-.227,3.313,3.313,0,0,0-.54,2.382,3.163,3.163,0,0,0,.761,1.9c.746.755,1.362,1,2.316.077A2.881,2.881,0,0,0,1535.2,832.418Z" transform="translate(-121.164 -9.176)" fill="#050506"/>
      <path id="Trazado_634647" data-name="Trazado 634647" d="M1439.176,913.423a1.963,1.963,0,0,1,.29-.556c.377-.364.789-.692,1.2-1.022a1.883,1.883,0,0,1,.368-.185,1.522,1.522,0,0,0,1.815.5c.734-.281,1.509-.456,2.266-.677h2.275l1.432.343a6.748,6.748,0,0,1,2.832,1.507,8.33,8.33,0,0,1,2.9,8.317,7.939,7.939,0,0,1-1.75,3.651,8.486,8.486,0,0,1-5.457,3.038,6.756,6.756,0,0,1-3.128-.248,12.984,12.984,0,0,1-1.785-.632,8.147,8.147,0,0,1-2.954-2.483,8.632,8.632,0,0,1-1.687-4.51,6.3,6.3,0,0,1,.329-2.851,18.382,18.382,0,0,1,1-2.269C1439.583,914.509,1439.681,914.221,1439.176,913.423Z" transform="translate(-63.38 -63.059)" fill="#fff"/>
      <path id="Trazado_634648" data-name="Trazado 634648" d="M1440.451,906.593c-.757.221-1.532.4-2.266.677a1.522,1.522,0,0,1-1.815-.5,1.43,1.43,0,0,1,.985-2.092,11.286,11.286,0,0,1,4.72-.866,12.293,12.293,0,0,1,3.167.66,10.916,10.916,0,0,1,5.033,3.523,9.556,9.556,0,0,1,1.871,3.357c.222.731.365,1.487.544,2.231a9.09,9.09,0,0,1,.116,1.613c-.089.9-.294,1.781-.44,2.673-.036.217-.034.439-.05.659-.162.311-.345.612-.482.933a10.729,10.729,0,0,1-3.251,4.246,11.547,11.547,0,0,1-3.647,1.951,11.2,11.2,0,0,1-4.2.476,10.529,10.529,0,0,1-5.626-2.065,11.325,11.325,0,0,1-4.056-5.359,11.081,11.081,0,0,1-.511-5.269,10.831,10.831,0,0,1,1.761-4.615,1.306,1.306,0,0,1,2.128-.305c.016.016.056.009.085.013.5.8.407,1.086-.054,1.922a18.4,18.4,0,0,0-1,2.269,6.3,6.3,0,0,0-.329,2.851,8.632,8.632,0,0,0,1.687,4.51,8.146,8.146,0,0,0,2.954,2.483,12.976,12.976,0,0,0,1.785.631,6.752,6.752,0,0,0,3.128.248,8.484,8.484,0,0,0,5.457-3.038,7.939,7.939,0,0,0,1.75-3.65,8.33,8.33,0,0,0-2.9-8.318,6.75,6.75,0,0,0-2.832-1.507l-1.432-.343c-.095-.055-.188-.156-.284-.158-.59-.013-1.182-.01-1.772,0C1440.6,906.44,1440.524,906.539,1440.451,906.593Z" transform="translate(-58.72 -58.171)" fill="#040506"/>
      <path id="Trazado_634649" data-name="Trazado 634649" d="M1380.352,998.98a3.219,3.219,0,0,1-.893,2.394,1.54,1.54,0,0,1-2.29-.114,3.777,3.777,0,0,1-.313-4.123,1.732,1.732,0,0,1,1.638-1.061,1.78,1.78,0,0,1,1.472,1.192,13.214,13.214,0,0,1,.49,1.681Z" transform="translate(-24.321 -116.895)" fill="#f9c7ba"/>
      <path id="Trazado_634650" data-name="Trazado 634650" d="M1539.94,998.925a2.9,2.9,0,0,1-1.028,2.533,1.4,1.4,0,0,1-1.844,0,2.932,2.932,0,0,1-1.035-2.009,3.484,3.484,0,0,1,.532-2.516c.939-1.439,2.377-1.039,2.99.273a11.37,11.37,0,0,1,.5,1.684Z" transform="translate(-125.898 -116.868)" fill="#f9c7bb"/>
      <path id="Trazado_634651" data-name="Trazado 634651" d="M1380.4,837.162a3.517,3.517,0,0,1-.988,2.294c-.914.839-1.464.733-2.248-.082a3.6,3.6,0,0,1-.249-4.338c.984-1.361,2.307-1.091,3,.328A9.48,9.48,0,0,1,1380.4,837.162Z" transform="translate(-24.27 -13.841)" fill="#f9c7bc"/>
      <path id="Trazado_634652" data-name="Trazado 634652" d="M1539.926,837.1a2.88,2.88,0,0,1-.839,2.339c-.953.921-1.569.678-2.315-.077a3.163,3.163,0,0,1-.761-1.9,3.313,3.313,0,0,1,.54-2.382,1.613,1.613,0,0,1,2.986.227,9.712,9.712,0,0,1,.51,1.768Z" transform="translate(-125.888 -13.857)" fill="#f9c7ba"/>
      <path id="Trazado_634653" data-name="Trazado 634653" d="M1457.986,911.19c.073-.054.144-.152.218-.154.59-.014,1.182-.017,1.772,0,.1,0,.189.1.284.158Z" transform="translate(-76.254 -62.768)" fill="#363539"/>
    </g>
  </g>
</svg>
