<svg xmlns="http://www.w3.org/2000/svg" width="947" height="599.089" viewBox="0 0 947 599.089">
  <g id="Grupo_909117" data-name="Grupo 909117" transform="translate(-320.433 -11405.911)">
    <path id="Trazado_644605" data-name="Trazado 644605" d="M67,0A67,67,0,1,1,0,67,67,67,0,0,1,67,0Z" transform="translate(398.433 11405.911)" fill="#21e819"/>
    <path id="Trazado_644608" data-name="Trazado 644608" d="M67,0A67,67,0,1,1,0,67,67,67,0,0,1,67,0Z" transform="translate(1028.433 11420.411)" fill="#fce90b"/>
    <path id="Trazado_644609" data-name="Trazado 644609" d="M67,0A67,67,0,1,1,0,67,67,67,0,0,1,67,0Z" transform="translate(320.433 11729.289)" fill="#dea92c"/>
    <path id="Trazado_644610" data-name="Trazado 644610" d="M67,0A67,67,0,1,1,0,67,67,67,0,0,1,67,0Z" transform="translate(1133.433 11729.289)" fill="#ea131c"/>
    <path id="Trazado_644606" data-name="Trazado 644606" d="M26.511,14.658V19H23.426V6.2h5.106a5.948,5.948,0,0,1,2.6.541,4.074,4.074,0,0,1,1.749,1.538,4.2,4.2,0,0,1,.62,2.263,3.7,3.7,0,0,1-1.34,2.993,5.561,5.561,0,0,1-3.678,1.121Zm0-2.382h2.021a1.906,1.906,0,0,0,1.367-.448,1.665,1.665,0,0,0,.47-1.266,2.059,2.059,0,0,0-.483-1.433,1.712,1.712,0,0,0-1.318-.545H26.511Zm14.247-.105-.976-.07a1.752,1.752,0,0,0-1.793.879V19H35.027V9.49H37.8l.1,1.222a2.294,2.294,0,0,1,2.083-1.4,2.888,2.888,0,0,1,.826.105Zm5.669,7a4.889,4.889,0,0,1-3.542-1.305,4.507,4.507,0,0,1-1.354-3.4v-.246a5.84,5.84,0,0,1,.541-2.575,3.955,3.955,0,0,1,1.578-1.727,4.763,4.763,0,0,1,2.461-.611,4.117,4.117,0,0,1,3.164,1.244,4.887,4.887,0,0,1,1.16,3.467v1.151H44.546a2.135,2.135,0,0,0,.694,1.257,2.066,2.066,0,0,0,1.389.457,2.662,2.662,0,0,0,2.2-.984l1.354,1.6a3.784,3.784,0,0,1-1.569,1.217A5.3,5.3,0,0,1,46.427,19.176ZM46.093,11.6q-1.3,0-1.547,1.723h2.988v-.229a1.467,1.467,0,0,0-.36-1.1A1.434,1.434,0,0,0,46.093,11.6ZM55.3,15.476l1.5-5.985h3.12L56.824,19H53.8L50.7,9.49h3.129Zm10.107,3.7a4.889,4.889,0,0,1-3.542-1.305,4.507,4.507,0,0,1-1.354-3.4v-.246a5.84,5.84,0,0,1,.541-2.575,3.955,3.955,0,0,1,1.578-1.727,4.763,4.763,0,0,1,2.461-.611,4.117,4.117,0,0,1,3.164,1.244,4.887,4.887,0,0,1,1.16,3.467v1.151H63.53a2.135,2.135,0,0,0,.694,1.257,2.066,2.066,0,0,0,1.389.457,2.662,2.662,0,0,0,2.2-.984l1.354,1.6A3.784,3.784,0,0,1,67.6,18.723,5.3,5.3,0,0,1,65.411,19.176ZM65.077,11.6q-1.3,0-1.547,1.723h2.988v-.229a1.467,1.467,0,0,0-.36-1.1A1.434,1.434,0,0,0,65.077,11.6ZM73.33,9.49l.1,1.116a3.225,3.225,0,0,1,2.716-1.292,2.713,2.713,0,0,1,2.219.888,4.226,4.226,0,0,1,.76,2.672V19H76.151V13a1.6,1.6,0,0,0-.29-1.059,1.342,1.342,0,0,0-1.055-.338,1.413,1.413,0,0,0-1.292.686V19H70.553V9.49Zm11.452,7.4a1.317,1.317,0,0,0,.967-.338,1.241,1.241,0,0,0,.334-.945H88.86a3.288,3.288,0,0,1-1.121,2.566,4.168,4.168,0,0,1-2.887,1,4.22,4.22,0,0,1-3.27-1.3,5.125,5.125,0,0,1-1.2-3.6v-.123a5.792,5.792,0,0,1,.532-2.544,3.872,3.872,0,0,1,1.534-1.7,4.573,4.573,0,0,1,2.373-.593,4.116,4.116,0,0,1,2.944,1.028,3.647,3.647,0,0,1,1.09,2.786H86.083A1.626,1.626,0,0,0,85.722,12a1.244,1.244,0,0,0-.967-.4q-1.151,0-1.345,1.468a10.357,10.357,0,0,0-.062,1.283,4.068,4.068,0,0,0,.343,1.986A1.187,1.187,0,0,0,84.782,16.891ZM93.237,19H90.266V9.49h2.971ZM90.091,7.038A1.322,1.322,0,0,1,90.548,6a1.943,1.943,0,0,1,2.373,0,1.322,1.322,0,0,1,.457,1.037,1.322,1.322,0,0,1-.457,1.037,1.943,1.943,0,0,1-2.373,0A1.322,1.322,0,0,1,90.091,7.038Zm4.6,7.119a5.613,5.613,0,0,1,.554-2.536,3.96,3.96,0,0,1,1.591-1.709,4.791,4.791,0,0,1,2.435-.6,4.373,4.373,0,0,1,3.366,1.323,5.076,5.076,0,0,1,1.23,3.6v.105a4.925,4.925,0,0,1-1.235,3.529,4.384,4.384,0,0,1-3.344,1.305,4.434,4.434,0,0,1-3.261-1.217,4.761,4.761,0,0,1-1.327-3.3Zm2.962.185a3.538,3.538,0,0,0,.413,1.934,1.376,1.376,0,0,0,1.222.615q1.582,0,1.617-2.435v-.3q0-2.558-1.635-2.558-1.485,0-1.608,2.206ZM99.671,5.5H102.8l-2.443,2.76-2.417,0Zm8.218,3.99.1,1.116A3.225,3.225,0,0,1,110.7,9.314a2.713,2.713,0,0,1,2.219.888,4.226,4.226,0,0,1,.76,2.672V19H110.71V13a1.6,1.6,0,0,0-.29-1.059,1.342,1.342,0,0,0-1.055-.338,1.413,1.413,0,0,0-1.292.686V19h-2.962V9.49Zm8.473,12.955-1.494-.7.3-.6a4.874,4.874,0,0,0,.642-2.18v-2.2h2.373l-.009,1.907a4.767,4.767,0,0,1-.519,2.057A5.226,5.226,0,0,1,116.361,22.445ZM127.453,9.49l.1,1.116a3.27,3.27,0,0,1,2.716-1.292,2.407,2.407,0,0,1,2.435,1.433,3.165,3.165,0,0,1,2.795-1.433q2.892,0,2.971,3.5V19h-2.971V13a1.813,1.813,0,0,0-.246-1.063,1.048,1.048,0,0,0-.9-.334,1.4,1.4,0,0,0-1.31.782l.009.123V19h-2.971V13.015a1.906,1.906,0,0,0-.237-1.081,1.045,1.045,0,0,0-.905-.334,1.42,1.42,0,0,0-1.3.782V19h-2.962V9.49ZM143.282,19h-2.971V9.49h2.971ZM140.136,7.038A1.322,1.322,0,0,1,140.593,6a1.943,1.943,0,0,1,2.373,0,1.322,1.322,0,0,1,.457,1.037,1.322,1.322,0,0,1-.457,1.037,1.943,1.943,0,0,1-2.373,0A1.322,1.322,0,0,1,140.136,7.038Zm8.42.088V9.49h1.564v2.057h-1.564V15.9a1.111,1.111,0,0,0,.193.747,1.037,1.037,0,0,0,.765.211,4.345,4.345,0,0,0,.738-.053v2.118a5.466,5.466,0,0,1-1.67.255,3.1,3.1,0,0,1-2.259-.721,2.954,2.954,0,0,1-.729-2.188v-4.72h-1.213V9.49h1.213V7.126ZM154.409,19h-2.971V9.49h2.971ZM151.263,7.038A1.322,1.322,0,0,1,151.72,6a1.943,1.943,0,0,1,2.373,0,1.322,1.322,0,0,1,.457,1.037,1.322,1.322,0,0,1-.457,1.037,1.943,1.943,0,0,1-2.373,0A1.322,1.322,0,0,1,151.263,7.038Zm4.623,7.137a6.421,6.421,0,0,1,.475-2.549,3.821,3.821,0,0,1,1.362-1.709,3.591,3.591,0,0,1,2.065-.6,2.855,2.855,0,0,1,2.32,1l.105-.826H164.9V18.64a4.009,4.009,0,0,1-.584,2.184,3.75,3.75,0,0,1-1.692,1.424,6.219,6.219,0,0,1-2.566.5,5.365,5.365,0,0,1-2.026-.4,3.657,3.657,0,0,1-1.5-1.028l1.239-1.74a2.716,2.716,0,0,0,2.18.976,1.764,1.764,0,0,0,1.969-2.021v-.3a2.781,2.781,0,0,1-2.153.94,3.437,3.437,0,0,1-2.812-1.332,5.517,5.517,0,0,1-1.072-3.564Zm2.971.185a3.383,3.383,0,0,0,.439,1.85,1.387,1.387,0,0,0,1.23.681,1.573,1.573,0,0,0,1.4-.642v-4a1.534,1.534,0,0,0-1.38-.65,1.4,1.4,0,0,0-1.239.708A3.858,3.858,0,0,0,158.856,14.359ZM171.943,19a3.344,3.344,0,0,1-.281-.853,2.754,2.754,0,0,1-2.285,1.028,3.374,3.374,0,0,1-2.285-.813,2.588,2.588,0,0,1-.94-2.043,2.66,2.66,0,0,1,1.143-2.338,5.821,5.821,0,0,1,3.322-.791h.914v-.5q0-1.316-1.134-1.316a.927.927,0,0,0-1.055,1.042H166.38a2.655,2.655,0,0,1,1.173-2.239,4.931,4.931,0,0,1,2.993-.86,4.323,4.323,0,0,1,2.874.888,3.086,3.086,0,0,1,1.081,2.435v4.21a4.311,4.311,0,0,0,.4,2V19Zm-1.854-1.934a1.652,1.652,0,0,0,.918-.237,1.487,1.487,0,0,0,.523-.536V14.772h-.861q-1.547,0-1.547,1.389a.848.848,0,0,0,.272.655A.986.986,0,0,0,170.089,17.066Zm10.072-.176a1.317,1.317,0,0,0,.967-.338,1.241,1.241,0,0,0,.334-.945h2.777a3.288,3.288,0,0,1-1.121,2.566,4.168,4.168,0,0,1-2.887,1,4.22,4.22,0,0,1-3.27-1.3,5.125,5.125,0,0,1-1.2-3.6v-.123A5.792,5.792,0,0,1,176.3,11.6a3.872,3.872,0,0,1,1.534-1.7,4.573,4.573,0,0,1,2.373-.593,4.116,4.116,0,0,1,2.944,1.028,3.647,3.647,0,0,1,1.09,2.786h-2.777A1.626,1.626,0,0,0,181.1,12a1.244,1.244,0,0,0-.967-.4q-1.151,0-1.345,1.468a10.357,10.357,0,0,0-.062,1.283,4.068,4.068,0,0,0,.343,1.986A1.187,1.187,0,0,0,180.161,16.891ZM188.616,19h-2.971V9.49h2.971ZM185.47,7.038A1.322,1.322,0,0,1,185.927,6,1.943,1.943,0,0,1,188.3,6a1.322,1.322,0,0,1,.457,1.037,1.322,1.322,0,0,1-.457,1.037,1.943,1.943,0,0,1-2.373,0A1.322,1.322,0,0,1,185.47,7.038Zm4.6,7.119a5.613,5.613,0,0,1,.554-2.536,3.96,3.96,0,0,1,1.591-1.709,4.791,4.791,0,0,1,2.435-.6,4.373,4.373,0,0,1,3.366,1.323,5.076,5.076,0,0,1,1.23,3.6v.105a4.925,4.925,0,0,1-1.235,3.529,4.384,4.384,0,0,1-3.344,1.305,4.434,4.434,0,0,1-3.261-1.217,4.761,4.761,0,0,1-1.327-3.3Zm2.962.185a3.538,3.538,0,0,0,.413,1.934,1.376,1.376,0,0,0,1.222.615q1.582,0,1.617-2.435v-.3q0-2.558-1.635-2.558-1.485,0-1.608,2.206ZM195.05,5.5h3.129l-2.443,2.76-2.417,0Zm8.218,3.99.1,1.116a3.225,3.225,0,0,1,2.716-1.292,2.713,2.713,0,0,1,2.219.888,4.226,4.226,0,0,1,.76,2.672V19h-2.971V13a1.6,1.6,0,0,0-.29-1.059,1.342,1.342,0,0,0-1.055-.338,1.413,1.413,0,0,0-1.292.686V19H200.49V9.49Zm8.473,12.955-1.494-.7.3-.6a4.874,4.874,0,0,0,.642-2.18v-2.2h2.373l-.009,1.907a4.767,4.767,0,0,1-.519,2.057A5.226,5.226,0,0,1,211.74,22.445ZM62.467,37.171l-.976-.07a1.752,1.752,0,0,0-1.793.879V44H56.736V34.49h2.777l.1,1.222a2.294,2.294,0,0,1,2.083-1.4,2.888,2.888,0,0,1,.826.105Zm5.669,7a4.889,4.889,0,0,1-3.542-1.305,4.507,4.507,0,0,1-1.354-3.4v-.246a5.84,5.84,0,0,1,.541-2.575,3.955,3.955,0,0,1,1.578-1.727,4.763,4.763,0,0,1,2.461-.611,4.117,4.117,0,0,1,3.164,1.244,4.887,4.887,0,0,1,1.16,3.467v1.151H66.255a2.135,2.135,0,0,0,.694,1.257,2.066,2.066,0,0,0,1.389.457,2.662,2.662,0,0,0,2.2-.984l1.354,1.6a3.784,3.784,0,0,1-1.569,1.217A5.3,5.3,0,0,1,68.136,44.176ZM67.8,36.6q-1.3,0-1.547,1.723h2.988v-.229a1.467,1.467,0,0,0-.36-1.1A1.434,1.434,0,0,0,67.8,36.6Zm8.429-1.09a3.251,3.251,0,0,1,4.8-.264A4.186,4.186,0,0,1,81.847,38v6H78.876V38.067a1.674,1.674,0,0,0-.308-1.112,1.322,1.322,0,0,0-1.046-.356,1.424,1.424,0,0,0-1.292.58V44H73.268V30.5H76.23ZM88.851,44a3.344,3.344,0,0,1-.281-.853,2.754,2.754,0,0,1-2.285,1.028A3.374,3.374,0,0,1,84,43.363a2.588,2.588,0,0,1-.94-2.043A2.66,2.66,0,0,1,84.2,38.981a5.821,5.821,0,0,1,3.322-.791h.914v-.5q0-1.316-1.134-1.316a.927.927,0,0,0-1.055,1.042H83.288a2.655,2.655,0,0,1,1.173-2.239,4.931,4.931,0,0,1,2.993-.86,4.323,4.323,0,0,1,2.874.888,3.086,3.086,0,0,1,1.081,2.435v4.21a4.311,4.311,0,0,0,.4,2V44ZM87,42.066a1.652,1.652,0,0,0,.918-.237,1.487,1.487,0,0,0,.523-.536V39.772h-.861q-1.547,0-1.547,1.389a.848.848,0,0,0,.272.655A.986.986,0,0,0,87,42.066Zm14.88-2.742a5.8,5.8,0,0,1-.967,3.595,3.238,3.238,0,0,1-2.725,1.257,2.81,2.81,0,0,1-2.338-1.151L95.724,44H93.07V30.5h2.962v4.755a2.711,2.711,0,0,1,2.136-.94,3.239,3.239,0,0,1,2.742,1.274,5.826,5.826,0,0,1,.967,3.586Zm-2.971-.189a3.866,3.866,0,0,0-.365-1.952,1.229,1.229,0,0,0-1.121-.584,1.418,1.418,0,0,0-1.389.763v3.773a1.426,1.426,0,0,0,1.406.755,1.258,1.258,0,0,0,1.327-1.018A7.309,7.309,0,0,0,98.906,39.135Zm7.4,4.865h-2.971V34.49h2.971ZM103.16,32.038A1.322,1.322,0,0,1,103.617,31a1.943,1.943,0,0,1,2.373,0,1.405,1.405,0,0,1,0,2.074,1.943,1.943,0,0,1-2.373,0A1.322,1.322,0,0,1,103.16,32.038ZM111.255,44h-2.971V30.5h2.971Zm4.948,0h-2.971V34.49H116.2Zm-3.146-11.962A1.322,1.322,0,0,1,113.514,31a1.943,1.943,0,0,1,2.373,0,1.405,1.405,0,0,1,0,2.074,1.943,1.943,0,0,1-2.373,0A1.322,1.322,0,0,1,113.056,32.038Zm8.42.088V34.49h1.564v2.057h-1.564V40.9a1.111,1.111,0,0,0,.193.747,1.037,1.037,0,0,0,.765.211,4.345,4.345,0,0,0,.738-.053v2.118a5.466,5.466,0,0,1-1.67.255,3.1,3.1,0,0,1-2.259-.721,2.954,2.954,0,0,1-.729-2.188v-4.72H117.3V34.49h1.213V32.126ZM129.562,44a3.344,3.344,0,0,1-.281-.853A2.754,2.754,0,0,1,127,44.176a3.374,3.374,0,0,1-2.285-.813,2.588,2.588,0,0,1-.94-2.043,2.66,2.66,0,0,1,1.143-2.338,5.821,5.821,0,0,1,3.322-.791h.914v-.5q0-1.316-1.134-1.316a.927.927,0,0,0-1.055,1.042H124a2.655,2.655,0,0,1,1.173-2.239,4.931,4.931,0,0,1,2.993-.86,4.323,4.323,0,0,1,2.874.888,3.086,3.086,0,0,1,1.081,2.435v4.21a4.311,4.311,0,0,0,.4,2V44Zm-1.854-1.934a1.652,1.652,0,0,0,.918-.237,1.487,1.487,0,0,0,.523-.536V39.772h-.861q-1.547,0-1.547,1.389a.848.848,0,0,0,.272.655A.986.986,0,0,0,127.708,42.066Zm10.072-.176a1.317,1.317,0,0,0,.967-.338,1.241,1.241,0,0,0,.334-.945h2.777a3.288,3.288,0,0,1-1.121,2.566,4.168,4.168,0,0,1-2.887,1,4.22,4.22,0,0,1-3.27-1.3,5.125,5.125,0,0,1-1.2-3.6v-.123a5.792,5.792,0,0,1,.532-2.544,3.872,3.872,0,0,1,1.534-1.7,4.573,4.573,0,0,1,2.373-.593,4.116,4.116,0,0,1,2.944,1.028,3.647,3.647,0,0,1,1.09,2.786h-2.777a1.626,1.626,0,0,0-.36-1.134,1.244,1.244,0,0,0-.967-.4q-1.151,0-1.345,1.468a10.357,10.357,0,0,0-.062,1.283,4.068,4.068,0,0,0,.343,1.986A1.187,1.187,0,0,0,137.78,41.891ZM146.235,44h-2.971V34.49h2.971Zm-3.146-11.962A1.322,1.322,0,0,1,143.546,31a1.943,1.943,0,0,1,2.373,0,1.405,1.405,0,0,1,0,2.074,1.943,1.943,0,0,1-2.373,0A1.322,1.322,0,0,1,143.089,32.038Zm4.6,7.119a5.613,5.613,0,0,1,.554-2.536,3.96,3.96,0,0,1,1.591-1.709,4.791,4.791,0,0,1,2.435-.6,4.373,4.373,0,0,1,3.366,1.323,5.076,5.076,0,0,1,1.23,3.6v.105a4.925,4.925,0,0,1-1.235,3.529,4.384,4.384,0,0,1-3.344,1.305,4.434,4.434,0,0,1-3.261-1.217,4.761,4.761,0,0,1-1.327-3.3Zm2.962.185a3.538,3.538,0,0,0,.413,1.934,1.376,1.376,0,0,0,1.222.615q1.582,0,1.617-2.435v-.3q0-2.558-1.635-2.558-1.485,0-1.608,2.206Zm2.021-8.842H155.8l-2.443,2.76-2.417,0Zm8.218,3.99.1,1.116a3.225,3.225,0,0,1,2.716-1.292,2.713,2.713,0,0,1,2.219.888,4.226,4.226,0,0,1,.76,2.672V44h-2.971V38a1.6,1.6,0,0,0-.29-1.059,1.342,1.342,0,0,0-1.055-.338,1.413,1.413,0,0,0-1.292.686V44h-2.962V34.49ZM176.6,39.852l1.582-5.361h3.173l-3.876,11.1-.167.4a2.944,2.944,0,0,1-2.918,1.846,4.642,4.642,0,0,1-1.222-.175v-2.11h.387a2.026,2.026,0,0,0,.954-.18,1.094,1.094,0,0,0,.488-.647l.237-.633-3.3-9.605H175.1ZM63.917,62.171l-.976-.07a1.752,1.752,0,0,0-1.793.879V69H58.186V59.49h2.777l.1,1.222a2.294,2.294,0,0,1,2.083-1.4,2.888,2.888,0,0,1,.826.105Zm5.669,7a4.889,4.889,0,0,1-3.542-1.305,4.507,4.507,0,0,1-1.354-3.4v-.246a5.84,5.84,0,0,1,.541-2.575,3.955,3.955,0,0,1,1.578-1.727,4.763,4.763,0,0,1,2.461-.611,4.117,4.117,0,0,1,3.164,1.244,4.887,4.887,0,0,1,1.16,3.467v1.151H67.7a2.135,2.135,0,0,0,.694,1.257,2.066,2.066,0,0,0,1.389.457,2.662,2.662,0,0,0,2.2-.984l1.354,1.6a3.784,3.784,0,0,1-1.569,1.217A5.3,5.3,0,0,1,69.586,69.176ZM69.252,61.6q-1.3,0-1.547,1.723h2.988v-.229a1.467,1.467,0,0,0-.36-1.1A1.434,1.434,0,0,0,69.252,61.6Zm9.554,5.291a1.317,1.317,0,0,0,.967-.338,1.241,1.241,0,0,0,.334-.945h2.777a3.288,3.288,0,0,1-1.121,2.566,4.168,4.168,0,0,1-2.887,1,4.22,4.22,0,0,1-3.27-1.3,5.125,5.125,0,0,1-1.2-3.6v-.123a5.792,5.792,0,0,1,.532-2.544,3.872,3.872,0,0,1,1.534-1.7,4.573,4.573,0,0,1,2.373-.593,4.116,4.116,0,0,1,2.944,1.028,3.647,3.647,0,0,1,1.09,2.786H80.106A1.626,1.626,0,0,0,79.746,62a1.244,1.244,0,0,0-.967-.4q-1.151,0-1.345,1.468a10.357,10.357,0,0,0-.062,1.283,4.068,4.068,0,0,0,.343,1.986A1.187,1.187,0,0,0,78.805,66.891Zm4.957-2.733a5.613,5.613,0,0,1,.554-2.536,3.96,3.96,0,0,1,1.591-1.709,4.791,4.791,0,0,1,2.435-.6,4.373,4.373,0,0,1,3.366,1.323,5.076,5.076,0,0,1,1.23,3.6v.105A4.925,4.925,0,0,1,91.7,67.871a4.384,4.384,0,0,1-3.344,1.305A4.434,4.434,0,0,1,85.1,67.958a4.761,4.761,0,0,1-1.327-3.3Zm2.962.185a3.538,3.538,0,0,0,.413,1.934,1.376,1.376,0,0,0,1.222.615q1.582,0,1.617-2.435v-.3q0-2.558-1.635-2.558-1.485,0-1.608,2.206ZM96.964,59.49l.1,1.116a3.225,3.225,0,0,1,2.716-1.292A2.713,2.713,0,0,1,102,60.2a4.226,4.226,0,0,1,.76,2.672V69H99.785V63a1.6,1.6,0,0,0-.29-1.059A1.342,1.342,0,0,0,98.44,61.6a1.413,1.413,0,0,0-1.292.686V69H94.186V59.49Zm12.41,6.838a.684.684,0,0,0-.4-.606,6.016,6.016,0,0,0-1.5-.475,6.853,6.853,0,0,1-1.828-.646,3.062,3.062,0,0,1-1.1-.971,2.319,2.319,0,0,1-.378-1.31,2.628,2.628,0,0,1,1.081-2.158,4.453,4.453,0,0,1,2.83-.848,4.934,4.934,0,0,1,3.023.853,2.666,2.666,0,0,1,1.143,2.241h-2.971q0-1.143-1.2-1.143a1.194,1.194,0,0,0-.782.259.8.8,0,0,0-.316.646.737.737,0,0,0,.387.642,3.654,3.654,0,0,0,1.235.4,10.671,10.671,0,0,1,1.49.378,2.706,2.706,0,0,1,2.145,2.646,2.491,2.491,0,0,1-1.156,2.118,5.068,5.068,0,0,1-2.993.817,5.172,5.172,0,0,1-2.18-.439,3.645,3.645,0,0,1-1.494-1.2,2.707,2.707,0,0,1-.536-1.591h2.769a1.145,1.145,0,0,0,.439.962,1.808,1.808,0,0,0,1.081.3,1.422,1.422,0,0,0,.91-.246A.787.787,0,0,0,109.374,66.328Zm7.69-9.2V59.49h1.564v2.057h-1.564V65.9a1.111,1.111,0,0,0,.193.747,1.037,1.037,0,0,0,.765.211,4.345,4.345,0,0,0,.738-.053v2.118a5.466,5.466,0,0,1-1.67.255,3.1,3.1,0,0,1-2.259-.721,2.954,2.954,0,0,1-.729-2.188v-4.72h-1.213V59.49H114.1V57.126Zm8.481,5.045-.976-.07a1.752,1.752,0,0,0-1.793.879V69h-2.962V59.49h2.777l.1,1.222a2.294,2.294,0,0,1,2.083-1.4,2.888,2.888,0,0,1,.826.105Zm6.732,5.8a3.054,3.054,0,0,1-2.54,1.2,3,3,0,0,1-2.369-.91,3.826,3.826,0,0,1-.8-2.615V59.49h2.962v6.179a1.065,1.065,0,0,0,1.187,1.222,1.548,1.548,0,0,0,1.45-.729V59.49h2.979V69h-2.777Zm8.508-1.081a1.317,1.317,0,0,0,.967-.338,1.241,1.241,0,0,0,.334-.945h2.777a3.288,3.288,0,0,1-1.121,2.566,4.168,4.168,0,0,1-2.887,1,4.22,4.22,0,0,1-3.27-1.3,5.125,5.125,0,0,1-1.2-3.6v-.123a5.792,5.792,0,0,1,.532-2.544,3.872,3.872,0,0,1,1.534-1.7,4.573,4.573,0,0,1,2.373-.593,4.116,4.116,0,0,1,2.944,1.028,3.647,3.647,0,0,1,1.09,2.786h-2.777a1.626,1.626,0,0,0-.36-1.134,1.244,1.244,0,0,0-.967-.4q-1.151,0-1.345,1.468a10.357,10.357,0,0,0-.062,1.283,4.068,4.068,0,0,0,.343,1.986A1.187,1.187,0,0,0,140.786,66.891Zm9.352,0a1.317,1.317,0,0,0,.967-.338,1.241,1.241,0,0,0,.334-.945h2.777a3.288,3.288,0,0,1-1.121,2.566,4.168,4.168,0,0,1-2.887,1,4.22,4.22,0,0,1-3.27-1.3,5.125,5.125,0,0,1-1.2-3.6v-.123a5.792,5.792,0,0,1,.532-2.544,3.872,3.872,0,0,1,1.534-1.7,4.573,4.573,0,0,1,2.373-.593,4.116,4.116,0,0,1,2.944,1.028,3.647,3.647,0,0,1,1.09,2.786h-2.777a1.626,1.626,0,0,0-.36-1.134,1.244,1.244,0,0,0-.967-.4q-1.151,0-1.345,1.468a10.357,10.357,0,0,0-.062,1.283,4.068,4.068,0,0,0,.343,1.986A1.187,1.187,0,0,0,150.138,66.891ZM158.593,69h-2.971V59.49h2.971Zm-3.146-11.962A1.322,1.322,0,0,1,155.9,56a1.943,1.943,0,0,1,2.373,0,1.405,1.405,0,0,1,0,2.074,1.943,1.943,0,0,1-2.373,0A1.322,1.322,0,0,1,155.446,57.038Zm4.6,7.119a5.613,5.613,0,0,1,.554-2.536,3.96,3.96,0,0,1,1.591-1.709,4.791,4.791,0,0,1,2.435-.6,4.373,4.373,0,0,1,3.366,1.323,5.076,5.076,0,0,1,1.23,3.6v.105a4.925,4.925,0,0,1-1.235,3.529,4.384,4.384,0,0,1-3.344,1.305,4.434,4.434,0,0,1-3.261-1.217,4.761,4.761,0,0,1-1.327-3.3Zm2.962.185a3.538,3.538,0,0,0,.413,1.934,1.376,1.376,0,0,0,1.222.615q1.582,0,1.617-2.435v-.3q0-2.558-1.635-2.558-1.485,0-1.608,2.206Zm2.021-8.842h3.129l-2.443,2.76-2.417,0Zm8.218,3.99.1,1.116a3.225,3.225,0,0,1,2.716-1.292,2.713,2.713,0,0,1,2.219.888,4.226,4.226,0,0,1,.76,2.672V69h-2.971V63a1.6,1.6,0,0,0-.29-1.059,1.342,1.342,0,0,0-1.055-.338,1.413,1.413,0,0,0-1.292.686V69h-2.962V59.49Z" transform="translate(343 11571.016)" fill="#12263f"/>
    <path id="Trazado_644607" data-name="Trazado 644607" d="M73.295,14.658V19H70.21V6.2h5.106a5.948,5.948,0,0,1,2.6.541,4.074,4.074,0,0,1,1.749,1.538,4.2,4.2,0,0,1,.62,2.263,3.7,3.7,0,0,1-1.34,2.993,5.561,5.561,0,0,1-3.678,1.121Zm0-2.382h2.021a1.906,1.906,0,0,0,1.367-.448,1.665,1.665,0,0,0,.47-1.266A2.059,2.059,0,0,0,76.67,9.13a1.712,1.712,0,0,0-1.318-.545H73.295Zm14.247-.105-.976-.07a1.752,1.752,0,0,0-1.793.879V19H81.811V9.49h2.777l.1,1.222a2.294,2.294,0,0,1,2.083-1.4,2.888,2.888,0,0,1,.826.105Zm5.669,7a4.889,4.889,0,0,1-3.542-1.305,4.507,4.507,0,0,1-1.354-3.4v-.246a5.84,5.84,0,0,1,.541-2.575,3.955,3.955,0,0,1,1.578-1.727,4.763,4.763,0,0,1,2.461-.611,4.117,4.117,0,0,1,3.164,1.244,4.887,4.887,0,0,1,1.16,3.467v1.151H91.33a2.135,2.135,0,0,0,.694,1.257,2.066,2.066,0,0,0,1.389.457,2.662,2.662,0,0,0,2.2-.984l1.354,1.6a3.784,3.784,0,0,1-1.569,1.217A5.3,5.3,0,0,1,93.211,19.176ZM92.877,11.6q-1.3,0-1.547,1.723h2.988v-.229a1.467,1.467,0,0,0-.36-1.1A1.434,1.434,0,0,0,92.877,11.6Zm14.361,2.716a5.735,5.735,0,0,1-1,3.538,3.2,3.2,0,0,1-2.694,1.323,2.742,2.742,0,0,1-2.153-.958v4.438H98.431V9.49H101.2l.088.879a2.742,2.742,0,0,1,2.241-1.055,3.224,3.224,0,0,1,2.733,1.3,5.805,5.805,0,0,1,.976,3.564Zm-2.962-.185q0-2.531-1.477-2.531a1.394,1.394,0,0,0-1.406.756V16.1a1.439,1.439,0,0,0,1.424.791q1.415,0,1.459-2.443ZM113.9,19a3.344,3.344,0,0,1-.281-.853,2.754,2.754,0,0,1-2.285,1.028,3.374,3.374,0,0,1-2.285-.813,2.588,2.588,0,0,1-.94-2.043,2.66,2.66,0,0,1,1.143-2.338,5.821,5.821,0,0,1,3.322-.791h.914v-.5q0-1.316-1.134-1.316a.927.927,0,0,0-1.055,1.042h-2.962a2.655,2.655,0,0,1,1.173-2.239,4.931,4.931,0,0,1,2.993-.86,4.323,4.323,0,0,1,2.874.888,3.086,3.086,0,0,1,1.081,2.435v4.21a4.311,4.311,0,0,0,.4,2V19Zm-1.854-1.934a1.652,1.652,0,0,0,.918-.237,1.487,1.487,0,0,0,.523-.536V14.772h-.861q-1.547,0-1.547,1.389a.848.848,0,0,0,.272.655A.986.986,0,0,0,112.046,17.066Zm11.8-4.9-.976-.07a1.752,1.752,0,0,0-1.793.879V19h-2.962V9.49H120.9l.1,1.222a2.294,2.294,0,0,1,2.083-1.4,2.888,2.888,0,0,1,.826.105ZM130.011,19a3.344,3.344,0,0,1-.281-.853,2.754,2.754,0,0,1-2.285,1.028,3.374,3.374,0,0,1-2.285-.813,2.588,2.588,0,0,1-.94-2.043,2.66,2.66,0,0,1,1.143-2.338,5.821,5.821,0,0,1,3.322-.791h.914v-.5q0-1.316-1.134-1.316a.927.927,0,0,0-1.055,1.042h-2.962a2.655,2.655,0,0,1,1.173-2.239,4.931,4.931,0,0,1,2.993-.86,4.323,4.323,0,0,1,2.874.888,3.086,3.086,0,0,1,1.081,2.435v4.21a4.311,4.311,0,0,0,.4,2V19Zm-1.854-1.934a1.652,1.652,0,0,0,.918-.237,1.487,1.487,0,0,0,.523-.536V14.772h-.861q-1.547,0-1.547,1.389a.848.848,0,0,0,.272.655A.986.986,0,0,0,128.156,17.066Zm10.072-.176a1.317,1.317,0,0,0,.967-.338,1.241,1.241,0,0,0,.334-.945h2.777a3.288,3.288,0,0,1-1.121,2.566,4.168,4.168,0,0,1-2.887,1,4.22,4.22,0,0,1-3.27-1.3,5.125,5.125,0,0,1-1.2-3.6v-.123a5.792,5.792,0,0,1,.532-2.544,3.872,3.872,0,0,1,1.534-1.7,4.573,4.573,0,0,1,2.373-.593,4.116,4.116,0,0,1,2.944,1.028,3.647,3.647,0,0,1,1.09,2.786h-2.777a1.626,1.626,0,0,0-.36-1.134,1.244,1.244,0,0,0-.967-.4q-1.151,0-1.345,1.468a10.357,10.357,0,0,0-.062,1.283,4.068,4.068,0,0,0,.343,1.986A1.187,1.187,0,0,0,138.228,16.891ZM146.683,19h-2.971V9.49h2.971ZM143.537,7.038A1.322,1.322,0,0,1,143.994,6a1.943,1.943,0,0,1,2.373,0,1.322,1.322,0,0,1,.457,1.037,1.322,1.322,0,0,1-.457,1.037,1.943,1.943,0,0,1-2.373,0A1.322,1.322,0,0,1,143.537,7.038Zm4.6,7.119a5.613,5.613,0,0,1,.554-2.536,3.96,3.96,0,0,1,1.591-1.709,4.791,4.791,0,0,1,2.435-.6,4.373,4.373,0,0,1,3.366,1.323,5.076,5.076,0,0,1,1.23,3.6v.105a4.925,4.925,0,0,1-1.235,3.529,4.384,4.384,0,0,1-3.344,1.305,4.434,4.434,0,0,1-3.261-1.217,4.761,4.761,0,0,1-1.327-3.3Zm2.962.185a3.538,3.538,0,0,0,.413,1.934,1.376,1.376,0,0,0,1.222.615q1.582,0,1.617-2.435v-.3q0-2.558-1.635-2.558-1.485,0-1.608,2.206ZM153.117,5.5h3.129L153.8,8.26l-2.417,0Zm8.218,3.99.1,1.116a3.225,3.225,0,0,1,2.716-1.292,2.713,2.713,0,0,1,2.219.888,4.226,4.226,0,0,1,.76,2.672V19h-2.971V13a1.6,1.6,0,0,0-.29-1.059,1.342,1.342,0,0,0-1.055-.338,1.413,1.413,0,0,0-1.292.686V19h-2.962V9.49Z" transform="translate(973 11585.516)" fill="#12263f"/>
    <path id="Trazado_644611" data-name="Trazado 644611" d="M75.057,16.609H70.829L70.091,19H66.8L71.489,6.2h2.9L79.118,19H75.8Zm-3.489-2.382h2.751l-1.38-4.438ZM83.037,19H80.067V5.5h2.971Zm4.948,0H85.015V9.49h2.971ZM84.839,7.038A1.322,1.322,0,0,1,85.3,6a1.943,1.943,0,0,1,2.373,0,1.322,1.322,0,0,1,.457,1.037,1.322,1.322,0,0,1-.457,1.037,1.943,1.943,0,0,1-2.373,0A1.322,1.322,0,0,1,84.839,7.038Zm9.949,9.29a.684.684,0,0,0-.4-.606,6.016,6.016,0,0,0-1.5-.475,6.853,6.853,0,0,1-1.828-.646,3.062,3.062,0,0,1-1.1-.971,2.319,2.319,0,0,1-.378-1.31,2.628,2.628,0,0,1,1.081-2.158,4.453,4.453,0,0,1,2.83-.848,4.934,4.934,0,0,1,3.023.853,2.666,2.666,0,0,1,1.143,2.241H94.692q0-1.143-1.2-1.143a1.194,1.194,0,0,0-.782.259.8.8,0,0,0-.316.646.737.737,0,0,0,.387.642,3.654,3.654,0,0,0,1.235.4,10.671,10.671,0,0,1,1.49.378,2.706,2.706,0,0,1,2.145,2.646,2.491,2.491,0,0,1-1.156,2.118,5.068,5.068,0,0,1-2.993.817,5.172,5.172,0,0,1-2.18-.439,3.645,3.645,0,0,1-1.494-1.2,2.707,2.707,0,0,1-.536-1.591h2.769a1.145,1.145,0,0,0,.439.962,1.808,1.808,0,0,0,1.081.3,1.422,1.422,0,0,0,.91-.246A.787.787,0,0,0,94.788,16.328Zm7.69-9.2V9.49h1.564v2.057h-1.564V15.9a1.111,1.111,0,0,0,.193.747,1.037,1.037,0,0,0,.765.211,4.345,4.345,0,0,0,.738-.053v2.118a5.466,5.466,0,0,1-1.67.255,3.1,3.1,0,0,1-2.259-.721,2.954,2.954,0,0,1-.729-2.188v-4.72H98.3V9.49h1.213V7.126ZM110.565,19a3.344,3.344,0,0,1-.281-.853A2.754,2.754,0,0,1,108,19.176a3.374,3.374,0,0,1-2.285-.813,2.588,2.588,0,0,1-.94-2.043,2.66,2.66,0,0,1,1.143-2.338,5.821,5.821,0,0,1,3.322-.791h.914v-.5q0-1.316-1.134-1.316a.927.927,0,0,0-1.055,1.042H105a2.655,2.655,0,0,1,1.173-2.239,4.931,4.931,0,0,1,2.993-.86,4.323,4.323,0,0,1,2.874.888,3.086,3.086,0,0,1,1.081,2.435v4.21a4.311,4.311,0,0,0,.4,2V19Zm-1.854-1.934a1.652,1.652,0,0,0,.918-.237,1.487,1.487,0,0,0,.523-.536V14.772h-.861q-1.547,0-1.547,1.389a.848.848,0,0,0,.272.655A.986.986,0,0,0,108.71,17.066Zm8.851-7.576.1,1.116a3.27,3.27,0,0,1,2.716-1.292,2.407,2.407,0,0,1,2.435,1.433A3.165,3.165,0,0,1,125.6,9.314q2.892,0,2.971,3.5V19H125.6V13a1.813,1.813,0,0,0-.246-1.063,1.048,1.048,0,0,0-.9-.334,1.4,1.4,0,0,0-1.31.782l.009.123V19h-2.971V13.015a1.906,1.906,0,0,0-.237-1.081,1.045,1.045,0,0,0-.905-.334,1.42,1.42,0,0,0-1.3.782V19h-2.962V9.49ZM133.39,19h-2.971V9.49h2.971ZM130.243,7.038A1.322,1.322,0,0,1,130.7,6a1.943,1.943,0,0,1,2.373,0,1.322,1.322,0,0,1,.457,1.037,1.322,1.322,0,0,1-.457,1.037,1.943,1.943,0,0,1-2.373,0A1.322,1.322,0,0,1,130.243,7.038Zm9.571,12.138a4.889,4.889,0,0,1-3.542-1.305,4.507,4.507,0,0,1-1.354-3.4v-.246a5.84,5.84,0,0,1,.541-2.575,3.955,3.955,0,0,1,1.578-1.727,4.763,4.763,0,0,1,2.461-.611,4.117,4.117,0,0,1,3.164,1.244,4.887,4.887,0,0,1,1.16,3.467v1.151h-5.889a2.135,2.135,0,0,0,.694,1.257,2.066,2.066,0,0,0,1.389.457,2.662,2.662,0,0,0,2.2-.984l1.354,1.6A3.784,3.784,0,0,1,142,18.723,5.3,5.3,0,0,1,139.815,19.176Zm-.334-7.576q-1.3,0-1.547,1.723h2.988v-.229a1.467,1.467,0,0,0-.36-1.1A1.434,1.434,0,0,0,139.481,11.6Zm8.253-2.109.1,1.116a3.225,3.225,0,0,1,2.716-1.292,2.713,2.713,0,0,1,2.219.888,4.226,4.226,0,0,1,.76,2.672V19h-2.971V13a1.6,1.6,0,0,0-.29-1.059,1.342,1.342,0,0,0-1.055-.338,1.413,1.413,0,0,0-1.292.686V19h-2.962V9.49Zm10.881-2.364V9.49h1.564v2.057h-1.564V15.9a1.111,1.111,0,0,0,.193.747,1.037,1.037,0,0,0,.765.211,4.345,4.345,0,0,0,.738-.053v2.118a5.466,5.466,0,0,1-1.67.255,3.1,3.1,0,0,1-2.259-.721,2.954,2.954,0,0,1-.729-2.188v-4.72H154.44V9.49h1.213V7.126Zm2.092,7.031a5.613,5.613,0,0,1,.554-2.536,3.96,3.96,0,0,1,1.591-1.709,4.791,4.791,0,0,1,2.435-.6,4.373,4.373,0,0,1,3.366,1.323,5.076,5.076,0,0,1,1.23,3.6v.105a4.925,4.925,0,0,1-1.235,3.529,4.384,4.384,0,0,1-3.344,1.305,4.434,4.434,0,0,1-3.261-1.217,4.761,4.761,0,0,1-1.327-3.3Zm2.962.185a3.538,3.538,0,0,0,.413,1.934,1.376,1.376,0,0,0,1.222.615q1.582,0,1.617-2.435v-.3q0-2.558-1.635-2.558-1.485,0-1.608,2.206Z" transform="translate(265 11894.394)" fill="#12263f"/>
    <path id="Trazado_644612" data-name="Trazado 644612" d="M81.411,14.474h-1.67V19H76.657V6.2h5.036a5.621,5.621,0,0,1,3.56,1.01,3.421,3.421,0,0,1,1.283,2.853,4.155,4.155,0,0,1-.541,2.213A3.837,3.837,0,0,1,84.3,13.7l2.672,5.167V19h-3.3ZM79.742,12.1h1.951a1.751,1.751,0,0,0,1.323-.463,1.788,1.788,0,0,0,.444-1.291,1.809,1.809,0,0,0-.448-1.3,1.735,1.735,0,0,0-1.318-.471H79.742Zm13.122,7.075a4.889,4.889,0,0,1-3.542-1.305,4.507,4.507,0,0,1-1.354-3.4v-.246a5.84,5.84,0,0,1,.541-2.575,3.955,3.955,0,0,1,1.578-1.727,4.763,4.763,0,0,1,2.461-.611,4.117,4.117,0,0,1,3.164,1.244,4.887,4.887,0,0,1,1.16,3.467v1.151H90.983a2.135,2.135,0,0,0,.694,1.257,2.066,2.066,0,0,0,1.389.457,2.662,2.662,0,0,0,2.2-.984l1.354,1.6a3.784,3.784,0,0,1-1.569,1.217A5.3,5.3,0,0,1,92.864,19.176ZM92.53,11.6q-1.3,0-1.547,1.723h2.988v-.229a1.467,1.467,0,0,0-.36-1.1A1.434,1.434,0,0,0,92.53,11.6Zm10.512,4.729a.684.684,0,0,0-.4-.606,6.016,6.016,0,0,0-1.5-.475,6.853,6.853,0,0,1-1.828-.646,3.062,3.062,0,0,1-1.1-.971,2.319,2.319,0,0,1-.378-1.31,2.628,2.628,0,0,1,1.081-2.158,4.453,4.453,0,0,1,2.83-.848,4.934,4.934,0,0,1,3.023.853,2.666,2.666,0,0,1,1.143,2.241h-2.971q0-1.143-1.2-1.143a1.194,1.194,0,0,0-.782.259.8.8,0,0,0-.316.646.737.737,0,0,0,.387.642,3.654,3.654,0,0,0,1.235.4,10.671,10.671,0,0,1,1.49.378A2.706,2.706,0,0,1,105.9,16.24a2.491,2.491,0,0,1-1.156,2.118,5.068,5.068,0,0,1-2.993.817,5.172,5.172,0,0,1-2.18-.439,3.645,3.645,0,0,1-1.494-1.2,2.707,2.707,0,0,1-.536-1.591h2.769a1.145,1.145,0,0,0,.439.962,1.808,1.808,0,0,0,1.081.3,1.422,1.422,0,0,0,.91-.246A.787.787,0,0,0,103.041,16.328Zm13.069-2.013a5.735,5.735,0,0,1-1,3.538,3.2,3.2,0,0,1-2.694,1.323,2.742,2.742,0,0,1-2.153-.958v4.438H107.3V9.49h2.769l.088.879A2.742,2.742,0,0,1,112.4,9.314a3.224,3.224,0,0,1,2.733,1.3,5.805,5.805,0,0,1,.976,3.564Zm-2.962-.185q0-2.531-1.477-2.531a1.394,1.394,0,0,0-1.406.756V16.1a1.439,1.439,0,0,0,1.424.791q1.415,0,1.459-2.443Zm9.932,3.841a3.054,3.054,0,0,1-2.54,1.2,3,3,0,0,1-2.369-.91,3.826,3.826,0,0,1-.8-2.615V9.49h2.962v6.179a1.065,1.065,0,0,0,1.187,1.222,1.548,1.548,0,0,0,1.45-.729V9.49h2.979V19h-2.777Zm9.088,1.2a4.889,4.889,0,0,1-3.542-1.305,4.507,4.507,0,0,1-1.354-3.4v-.246a5.84,5.84,0,0,1,.541-2.575,3.955,3.955,0,0,1,1.578-1.727,4.763,4.763,0,0,1,2.461-.611,4.117,4.117,0,0,1,3.164,1.244,4.887,4.887,0,0,1,1.16,3.467v1.151h-5.889a2.135,2.135,0,0,0,.694,1.257,2.066,2.066,0,0,0,1.389.457,2.662,2.662,0,0,0,2.2-.984l1.354,1.6a3.784,3.784,0,0,1-1.569,1.217A5.3,5.3,0,0,1,132.168,19.176Zm-.334-7.576q-1.3,0-1.547,1.723h2.988v-.229a1.467,1.467,0,0,0-.36-1.1A1.434,1.434,0,0,0,131.834,11.6Zm10.512,4.729a.684.684,0,0,0-.4-.606,6.016,6.016,0,0,0-1.5-.475,6.853,6.853,0,0,1-1.828-.646,3.062,3.062,0,0,1-1.1-.971,2.319,2.319,0,0,1-.378-1.31,2.628,2.628,0,0,1,1.081-2.158,4.453,4.453,0,0,1,2.83-.848,4.934,4.934,0,0,1,3.023.853,2.666,2.666,0,0,1,1.143,2.241h-2.971q0-1.143-1.2-1.143a1.194,1.194,0,0,0-.782.259.8.8,0,0,0-.316.646.737.737,0,0,0,.387.642,3.654,3.654,0,0,0,1.235.4,10.671,10.671,0,0,1,1.49.378A2.706,2.706,0,0,1,145.2,16.24a2.491,2.491,0,0,1-1.156,2.118,5.068,5.068,0,0,1-2.993.817,5.172,5.172,0,0,1-2.18-.439,3.645,3.645,0,0,1-1.494-1.2,2.707,2.707,0,0,1-.536-1.591h2.769a1.145,1.145,0,0,0,.439.962,1.808,1.808,0,0,0,1.081.3,1.422,1.422,0,0,0,.91-.246A.787.787,0,0,0,142.346,16.328Zm7.69-9.2V9.49H151.6v2.057h-1.564V15.9a1.111,1.111,0,0,0,.193.747,1.037,1.037,0,0,0,.765.211,4.345,4.345,0,0,0,.738-.053v2.118a5.466,5.466,0,0,1-1.67.255,3.1,3.1,0,0,1-2.259-.721,2.954,2.954,0,0,1-.729-2.188v-4.72h-1.213V9.49h1.213V7.126ZM158.122,19a3.344,3.344,0,0,1-.281-.853,2.754,2.754,0,0,1-2.285,1.028,3.374,3.374,0,0,1-2.285-.813,2.588,2.588,0,0,1-.94-2.043,2.66,2.66,0,0,1,1.143-2.338,5.821,5.821,0,0,1,3.322-.791h.914v-.5q0-1.316-1.134-1.316a.927.927,0,0,0-1.055,1.042h-2.962a2.655,2.655,0,0,1,1.173-2.239,4.931,4.931,0,0,1,2.993-.86,4.323,4.323,0,0,1,2.874.888,3.086,3.086,0,0,1,1.081,2.435v4.21a4.311,4.311,0,0,0,.4,2V19Zm-1.854-1.934a1.652,1.652,0,0,0,.918-.237,1.487,1.487,0,0,0,.523-.536V14.772h-.861q-1.547,0-1.547,1.389a.848.848,0,0,0,.272.655A.986.986,0,0,0,156.268,17.066Z" transform="translate(1078 11894.393)" fill="#12263f"/>
    <g id="Grupo_906635" data-name="Grupo 906635" transform="translate(262.548 11346.071)">
      <path id="Trazado_640325" data-name="Trazado 640325" d="M707.489,1094.315c-.2-6.226-.4-12.456-.683-18.683-.566-12.594-1.446-25.187-3.215-37.675-2.962-20.906-10.75-39.512-16.2-59.7a232.828,232.828,0,0,1-5.15-24.3A278.613,278.613,0,0,1,679,907.932c.13-15.109,1.224-30.362,6.529-44.644,2.881-7.764,6.079-17.5,12.39-23.2,1-.9,2.772-1.893,3.6-2.737,0-.007,0-.014,0-.022.312-.239.616-.485.905-.746.216-1.4.478-2.789.687-4.2.018-.106.032-.216.046-.322-3.26-.263-6.86,2.094-9.728,3.339-6.832,2.972-13.847,5.511-20.656,8.549-3.134,1.4-6.315,2.864-9.375,4.352-2.988,1.453-5.335,3.9-8.337,5.361-3.355,1.634-6.718,3.25-10.129,4.777-2.578,1.155-5.167,2.3-7.738,3.479a71.581,71.581,0,0,0,7.113,14.138c-.091.319-.182.639-.282.956-2.533,8.052-7.472,15.007-10.842,22.69-.827,1.885-1.52,3.81-2.206,5.72l.007,0c1.544.841,1.608,2.723,2.132,4.348,4.352,13.48-2.782,21.268-4.742,33.88-1.572,10.1,2.206,19.232,1.787,29.092-.271,6.364-3.8,11.813-5.438,17.821a66.194,66.194,0,0,0-1.629,8.193c-3.655,26.32-9.575,52.5-14.729,78.612-1.235,6.254-2.3,13.012-3.919,19.618l.014,0c1.66,20.2,1.875,40.852,1.72,61.262h101.2c.443-9.122.777-18.25.805-27.382C708.217,1118.591,707.88,1106.564,707.489,1094.315Zm-22.349-35.339c-1.46-3.265.461-7.627,4.257-7.89a5.286,5.286,0,0,1,4.292,1.08c3.124,2.441,1.812,6.434-.373,9.023C691.153,1063.759,686.295,1061.554,685.141,1058.975Zm11.742,60.967c-2.167,2.568-7.022.366-8.175-2.213-1.46-3.268.461-7.627,4.253-7.891a5.284,5.284,0,0,1,4.292,1.08C700.38,1113.36,699.064,1117.353,696.883,1119.942Z" transform="translate(-182.117 -500.528)" fill="#4f95cf"/>
      <path id="Trazado_640326" data-name="Trazado 640326" d="M647.275,399.809a1.684,1.684,0,0,1,.186,2.706,4.172,4.172,0,0,1-3.379.772c-1.682-.229-3.435-.34-5.12-.423-1.99-.1-3.988-.11-5.983-.178-1.448-.052-4,.222-5.163-.839-1.476-1.349-.214-2.667,1.341-2.991a17.746,17.746,0,0,1,4.3.067c1.025.04,2.069.091,3.106.127,2.212.075,4.428.039,6.639.059A7.636,7.636,0,0,1,647.275,399.809Z" transform="translate(-197.728 -202.838)" fill="#ffbc3b"/>
      <path id="Trazado_640327" data-name="Trazado 640327" d="M617.447,299.628c1.883.119,1.745,2.188.6,3.122-.158.629-1.147.8-1.654,1.183-.76.566-4.906,3.779-5.552,4.467a11.9,11.9,0,0,1-1.959,1.42c-.9.645-3.9,2.928-4.859,1.156a1.8,1.8,0,0,1,.194-1.686,7.131,7.131,0,0,1,2.833-2.338,8.949,8.949,0,0,0,2.77-2.089c.661-.823,4.875-3.747,5.678-4.4A2.93,2.93,0,0,1,617.447,299.628Z" transform="translate(-181.736 -134.751)" fill="#ffbc3b"/>
      <path id="Trazado_640328" data-name="Trazado 640328" d="M613.708,480.669a1.684,1.684,0,0,1-1.772,2.053,4.171,4.171,0,0,1-2.948-1.828c-1.033-1.345-2.2-2.659-3.336-3.905-1.345-1.472-2.758-2.885-4.123-4.336-.993-1.057-3-2.655-3.079-4.23-.1-2,1.725-2.046,3.055-1.179a17.657,17.657,0,0,1,3.007,3.067c.7.756,1.408,1.523,2.117,2.279,1.519,1.61,3.118,3.141,4.677,4.716A7.69,7.69,0,0,1,613.708,480.669Z" transform="translate(-178.002 -249.539)" fill="#ffbc3b"/>
      <path id="Trazado_640329" data-name="Trazado 640329" d="M569.289,407.06c.459,2.88-2.861,2.781-4.962,2.659a10.523,10.523,0,0,1,2.489-3.324C567.849,405.5,569.036,405.461,569.289,407.06Z" transform="translate(-154.561 -207.679)" fill="#ffbc3b"/>
      <path id="Trazado_640330" data-name="Trazado 640330" d="M533.033,512.319c0,.087-.3-.044-.459-.1-.309-.1-.633-.218-.93-.34a12.487,12.487,0,0,0-1.947-.681c-3.415-.807-6.813-2.03-10.153-3.094h-.1c0-.953.048-1.923-.016-2.865-.04-.606-.265-1.29-.289-1.939l.051,0c0,.317,6.145,2.414,6.719,2.588a39.1,39.1,0,0,1,6.6,2.172c.265.134.617.483.882.392h.115a23.782,23.782,0,0,1-.3,3.9Z" transform="translate(-123.521 -274.676)" fill="#dedede"/>
      <path id="Trazado_640331" data-name="Trazado 640331" d="M533.243,522.772c.162.055.459.186.459.1l.186.032c-.055.336-.123.673-.2,1.005a10.934,10.934,0,0,1-.914,2.912,7.916,7.916,0,0,1-.475.744l-.036-.024c-.9-.364-1.824-.886-2.777-1.2-2.976-.973-5.979-2.279-8.859-3.5l-.313,0a21.128,21.128,0,0,0-.1-2.6,12.384,12.384,0,0,1-.1-1.583h.1c3.34,1.064,6.738,2.287,10.153,3.094a12.483,12.483,0,0,1,1.947.681C532.61,522.555,532.934,522.673,533.243,522.772Z" transform="translate(-124.189 -285.229)" fill="#dedede"/>
      <path id="Trazado_640332" data-name="Trazado 640332" d="M521.088,434.123h-.044c-.238-3.43-1.314-6.75-1.836-10.161-.653-4.281-1.044-8.828-2.54-12.919a19.1,19.1,0,0,0-.823-1.923c.254-.016.491-.028.7-.039a9.132,9.132,0,0,0,2.445-.613,6.973,6.973,0,0,0,2.267-1.507,10.333,10.333,0,0,0,1.883-1.808c.051-.079.1-.162.154-.245a9.227,9.227,0,0,0,4.582,3.561,9.062,9.062,0,0,0,2.445.613c.21.012.443.024.7.039a18.226,18.226,0,0,0-.819,1.923c-1.5,4.091-1.891,8.638-2.544,12.919-.471,3.086-1.579,6.24-1.6,9.374,0,.289.043.582.047.87C524.423,434.218,522.738,434.17,521.088,434.123Z" transform="translate(-121.254 -207.081)" fill="#ffbc3b"/>
      <path id="Trazado_640333" data-name="Trazado 640333" d="M532.687,536.72l.036.024a7.4,7.4,0,0,1-1.385,1.476,6.758,6.758,0,0,1-4.894.981,6.462,6.462,0,0,1-4.546-3,7.3,7.3,0,0,1-1.045-2.675,10,10,0,0,1-.115-1.5l.313,0c2.88,1.223,5.884,2.528,8.859,3.5C530.863,535.834,531.785,536.356,532.687,536.72Z" transform="translate(-124.615 -294.409)" fill="#dedede"/>
      <path id="Trazado_640334" data-name="Trazado 640334" d="M537.037,382.28a9.6,9.6,0,0,1-1.144,5.073,10.343,10.343,0,0,1-1.606-3.965c-.21-1.147-.21-3.256,1.009-3.929C536.53,378.782,537.025,381.631,537.037,382.28Z" transform="translate(-133.851 -189.527)" fill="#ffbc3b"/>
      <path id="Trazado_640335" data-name="Trazado 640335" d="M534.624,254.421c.4.51-.075,1.4-.091,2.03-.02.95-.048,6.192.1,7.122a11.835,11.835,0,0,1-.087,2.422c-.048,1.108-.095,4.871-2.085,4.538a1.785,1.785,0,0,1-1.207-1.191,7.085,7.085,0,0,1-.095-3.672,9.05,9.05,0,0,0,.059-3.466c-.241-1.029.055-6.153.04-7.182a2.934,2.934,0,0,1,.538-2.058C533.053,251.556,534.592,252.941,534.624,254.421Z" transform="translate(-131.64 -102.292)" fill="#ffbc3b"/>
      <path id="Trazado_640336" data-name="Trazado 640336" d="M532.5,498.253c-.012.043.008.067-.036.111,0-.036,0-.075-.008-.111Z" transform="translate(-132.666 -271.211)" fill="#8cc295"/>
      <path id="Trazado_640337" data-name="Trazado 640337" d="M479.235,378.292l-.368.186-.091-.277a17.117,17.117,0,0,0-1.745-3.565c-1.808-2.774-4.831-4.056-7.3-6.078a28.477,28.477,0,0,1-10.011-20.243c-.641-12.468,8.871-24.251,21.655-24.54,5.583-.126,11.851,1.072,16.389,4.412a25.337,25.337,0,0,1,8.97,29.3,27.137,27.137,0,0,1-4,7.336c-1.828,2.39-4.542,3.842-6.41,6.117-1.7,2.061-4.068,4.139-4.3,6.971l-.032.3-.17.067c-1.413.127-2.853.174-4.305.182,0-.289-.047-.582-.047-.87.024-3.134,1.131-6.287,1.6-9.374.653-4.281,1.045-8.828,2.544-12.919a18.233,18.233,0,0,1,.819-1.923c2.1.123,5.421.222,4.962-2.659-.253-1.6-1.44-1.559-2.473-.665a10.523,10.523,0,0,0-2.489,3.324c-.253-.016-.487-.028-.7-.039a9.063,9.063,0,0,1-2.445-.613,9.226,9.226,0,0,1-4.582-3.561,9.6,9.6,0,0,0,1.144-5.073c-.012-.649-.507-3.5-1.741-2.821-1.219.673-1.219,2.782-1.009,3.929a10.342,10.342,0,0,0,1.606,3.965c-.051.083-.1.166-.154.245a10.334,10.334,0,0,1-1.883,1.808,6.974,6.974,0,0,1-2.267,1.507,9.134,9.134,0,0,1-2.445.613c-.21.012-.447.024-.7.039a10.521,10.521,0,0,0-2.489-3.324c-1.033-.894-2.216-.934-2.473.665-.459,2.88,2.861,2.782,4.961,2.659a19.078,19.078,0,0,1,.823,1.923c1.5,4.091,1.887,8.638,2.54,12.919.522,3.411,1.6,6.731,1.836,10.161C481.371,378.347,480.291,378.311,479.235,378.292Z" transform="translate(-82.677 -151.337)" fill="#ffbc3b"/>
      <path id="Trazado_640338" data-name="Trazado 640338" d="M519.19,499.467l-.051,0a1.748,1.748,0,0,1,.566-1.484l.368-.186c1.057.02,2.137.055,3.233.087,0,.036,0,.075.008.111.044-.044.024-.067.036-.111,1.65.048,3.336.1,5.013.083,1.452-.008,2.892-.055,4.305-.182l.17-.067c.649.416.681,1.365.681,2.053,0,.938-.052,1.864-.032,2.809.016.677.028,1.357.024,2.034h-.115c-.265.091-.617-.257-.882-.392a39.092,39.092,0,0,0-6.6-2.172C525.335,501.881,519.19,499.784,519.19,499.467Z" transform="translate(-123.514 -270.846)" fill="#dedede"/>
      <path id="Trazado_640339" data-name="Trazado 640339" d="M502.371,406.395a10.521,10.521,0,0,1,2.489,3.324c-2.1.123-5.421.222-4.961-2.659C500.155,405.461,501.339,405.5,502.371,406.395Z" transform="translate(-110.269 -207.679)" fill="#ffbc3b"/>
      <path id="Trazado_640340" data-name="Trazado 640340" d="M438.4,467.243c1.333-.866,3.157-.819,3.059,1.179-.079,1.575-2.085,3.173-3.078,4.23-1.369,1.452-2.778,2.865-4.127,4.336-1.135,1.247-2.3,2.56-3.335,3.905a4.173,4.173,0,0,1-2.944,1.828,1.687,1.687,0,0,1-1.777-2.053,7.7,7.7,0,0,1,2.406-3.363c1.559-1.575,3.157-3.106,4.677-4.716.708-.756,1.417-1.523,2.117-2.279A17.611,17.611,0,0,1,438.4,467.243Z" transform="translate(-59.633 -249.539)" fill="#ffbc3b"/>
      <path id="Trazado_640341" data-name="Trazado 640341" d="M418.578,313.555c1.1,1.151,1.377,2.956-.6,3.221-1.563.206-3.5-1.472-4.72-2.255-1.678-1.08-3.324-2.208-5.017-3.264-1.432-.894-2.936-1.8-4.448-2.568a4.193,4.193,0,0,1-2.338-2.564,1.688,1.688,0,0,1,1.7-2.117,7.67,7.67,0,0,1,3.747,1.749c1.832,1.247,3.628,2.536,5.492,3.735.87.562,1.757,1.116,2.624,1.666A17.867,17.867,0,0,1,418.578,313.555Z" transform="translate(-42.623 -137.761)" fill="#ffbc3b"/>
      <path id="Trazado_640342" data-name="Trazado 640342" d="M398.478,398.855c1.559.325,2.821,1.642,1.341,2.991-1.163,1.061-3.711.787-5.16.839-1.994.067-3.992.079-5.987.178-1.686.083-3.435.194-5.116.423a4.182,4.182,0,0,1-3.383-.772,1.688,1.688,0,0,1,.186-2.706,7.65,7.65,0,0,1,4.079-.7c2.212-.02,4.428.016,6.639-.059,1.037-.036,2.077-.087,3.106-.127A17.716,17.716,0,0,1,398.478,398.855Z" transform="translate(-27.639 -202.838)" fill="#ffbc3b"/>
      <path id="Trazado_640343" data-name="Trazado 640343" d="M946.639,760.045l.007-.2c9.139-.3,19.812-5.618,27.667-11.732l.166.208c-.334,2.642-.176,5.544-.373,7.915a89.43,89.43,0,0,0-.278,14.134c-5.428.327-10.68,1.721-16.3,1.27a68.631,68.631,0,0,1-18.838-4.408c-5.164-2.009-9.755-5.34-14.149-8.657a65.843,65.843,0,0,1-7.926-7.669c-.457-.482-.939-1.122-1.449-1.773,2.983,1.674,6.023,3.264,9.111,4.883a58.938,58.938,0,0,0,11.975,4.425A45.28,45.28,0,0,0,946.639,760.045Z" transform="translate(-395.594 -442.865)" fill="#e39476"/>
      <path id="Trazado_640344" data-name="Trazado 640344" d="M869.763,1532.866c3.124,2.441,1.812,6.434-.373,9.023-2.164,2.572-7.022.366-8.176-2.212-1.46-3.265.461-7.627,4.257-7.89A5.286,5.286,0,0,1,869.763,1532.866Z" transform="translate(-358.19 -981.229)" fill="#37628f"/>
      <path id="Trazado_640345" data-name="Trazado 640345" d="M1195.824,1158.388h-82.809c.116-12.689.281-25.469-.848-38.048a273.975,273.975,0,0,1-1.235-31.825c.236-8.728-.457-17.575-.162-26.366.327-9.832,2.441-19.612,2.846-29.486a126.581,126.581,0,0,1,3.127-21.687c1.787-8.26,1.674-16.769,3.933-25.008,2.283-8.319,4.7-16.59,6.353-25.11,1.5-7.75,2.427-15.566,4.014-23.277a144.97,144.97,0,0,0,.834-52.777c-.83-5.139-1.189-10.251-2.462-15.331-2.494-9.938-7.025-19.629-14.789-26.538-2.87-2.554-6.8-3.789-9.6-6.163-.26-1.389-.566-2.772-.82-4.179-.021-.105-.038-.214-.056-.32,3.251-.366,6.923,1.875,9.829,3.029,6.923,2.755,14.015,5.069,20.917,7.891,3.176,1.3,6.4,2.663,9.509,4.052,3.033,1.358,5.456,3.729,8.5,5.094,3.405,1.526,6.818,3.036,10.275,4.453,7.352,3.018,14.785,5.927,21.677,9.927,9.146,5.3,17.744,10.61,25.025,18.475,6.8,7.352,12.217,17.054,16.921,25.838,5.214,9.723,9.146,20.593,12.671,31.027.851,2.529,2.1,5.076,2.6,7.7.925,4.932,1.259,10.078,2.005,15.067q1.267,8.459,2.311,16.953c1.425,11.51,2.582,23.052,3.581,34.6,1.273,14.732,1.115,29.556,2.695,44.264,1.544,14.409,7.166,27.337,9.593,41.475,1.572,9.171-.26,18.37-.858,27.537-.324,4.939,1.5,9.712,1.435,14.627-.056,4.732-1.326,9.357-1.457,14.107Z" transform="translate(-525.424 -500.658)" fill="#4f95cf"/>
      <path id="Trazado_640346" data-name="Trazado 640346" d="M527.573,733.716c-.5-2.339-.8-4.7-1.238-7.078-.464-2.515-1.031-5.013-1.6-7.507-2.367-10.42-4.151-20.139-.865-30.58,2.951-9.375,8.07-17.972,10.311-27.586,1.537-6.592,1.171-13.216.957-19.935-.268-8.235.162-16.5.211-24.734.035-5.766-.64-14.145,5.076-17.645a3.874,3.874,0,0,1,4.337-.228c4.943,2.234,5.871,9.54,6.086,14.219.6,13.107.106,26.165.053,39.283,0,.71.13,1.15.158,1.8a16.244,16.244,0,0,1,5.329.651c7.644,2.3,12.84,9.1,17.533,15.232,1.066-4.482,3.553-9.906,8.239-11.482a5.752,5.752,0,0,1,4.06-.3,8.9,8.9,0,0,1,5.157,4.236c2.216,4.531-.074,10.177-1.073,14.732a43.13,43.13,0,0,0-1.513,9.509c.014,3.571.608,7.106.7,10.673.07,2.9.056,5.822-.162,8.728a46.11,46.11,0,0,1-1.9,10.43c-2.533,8.052-7.472,15.007-10.842,22.69-.827,1.885-1.52,3.81-2.206,5.72-1.991,5.537-3.933,10.933-8.992,14.81-6.663,5.111-15.577,3.433-22.345-.538a34.347,34.347,0,0,1-9.614-8.4,10.831,10.831,0,0,1-2.4-5.47c-.552-2.962-1.988-5.8-2.832-8.685C527.96,735.415,527.752,734.568,527.573,733.716Z" transform="translate(-125.534 -339.648)" fill="#f5b49b"/>
      <path id="Trazado_640347" data-name="Trazado 640347" d="M988.882,609.17c1.569,3.862-1.84,8.207-4.39,10.831-4.235,4.352-9.769,6.874-15.925,6.079a20.208,20.208,0,0,1-9.171-3.162,27.462,27.462,0,0,1-7.1-6.434c-1.492-2.019-2.67-5.692-1-7.957,1.386-1.879,4.045-2.529,6.276-2.3,2.055.211,4.165.243,6.227.391a49.517,49.517,0,0,0,5.78-.028c2.522-.116,5.062.011,7.57-.316,2.29-.3,4.531-1.249,6.863-.742A6.238,6.238,0,0,1,988.882,609.17Z" transform="translate(-419.857 -344.813)" fill="#fff"/>
      <path id="Trazado_640348" data-name="Trazado 640348" d="M737.13,234.115c-.355-2.494-.637-5-.932-7.479A43.517,43.517,0,0,0,734.8,218.5c-1.692-5.294-4.963-9.906-6.765-15.158a20.858,20.858,0,0,1-1.291-7.331c.042-2.846.419-5.674.665-8.51a95.579,95.579,0,0,1,2.508-14.036c1.46-6.086,3.652-12.376,2.994-18.7-.077-.732-.172-1.46-.264-2.192-.6-4.77,1.006-8.305,3.187-12.4,3.367-6.335,8.386-12.21,14.824-15.587,7.074-3.711,15.714-4.963,23.1-8.172a64,64,0,0,0,9.143-4.911c1.192-.77,2.1-1.762,3.356-2.413,1.893-.982,3.9-1.78,5.843-2.614a33.923,33.923,0,0,1,7.317-2.227,52.547,52.547,0,0,1,23.316,1.242c7.292,2.093,14.866,6.557,16.671,14.493.464,2.04,1.991,1.847,3.845,1.847a23.5,23.5,0,0,1,16.228,2.674c7.092,3.884,9.487,10.627,13.3,17.206,3.388,5.843,8.13,10.725,12.281,16.009,5.28,6.726,9.3,14.321,7.992,23.129a66.986,66.986,0,0,0-1.112,12.077c.127,4.19-1.872,8.935-2.916,12.952-.679,2.6-.929,5.421-1.945,7.873-2.438,5.864-2.835,12.045-2.557,18.285.018.454.039.908.067,1.365a41.138,41.138,0,0,1-.141,5.006,12.837,12.837,0,0,1-.616,3.486c-.355.982-1.178,2.491-2.374,2.67-3.908.577-3.159-10.775-3.219-12.864-.2-6.9-1.418-14.613-5.389-20.453a31.959,31.959,0,0,1-4.172-10.427,48.815,48.815,0,0,1-1.182-11.69c.007-6.265.461-12.59-2.9-18.285-3.068-5.207-9.368-7.507-15.12-7.936-1.379-.106-2.255-.018-3.606-.1-9.3-.559-18.461.081-27.112,3.715a21.328,21.328,0,0,1-8.661,1.558c-7.581-.137-14.754-3.166-22.1-4.707a38,38,0,0,0-10.7-.69c-3.785.26-7.581.5-10.726,2.916a17.82,17.82,0,0,0-5.871,8.7,34.186,34.186,0,0,0-1.432,7.2c-.306,3.057.577,5.966.324,8.995-.44,5.277-1.411,10.339-3.964,15.024-.661,1.221-1.115,2.526-1.674,3.792a21.158,21.158,0,0,1-1.952,3.025,42.339,42.339,0,0,0-4.193,7.025c-2.364,5.794-.873,12.14-.788,18.169.035,2.466.014,5.146-1.608,7.173-1.674,2.09-3.912,1.513-5.509-.366-1.668-1.952-1.85-4.439-2.273-6.856C737.457,236.362,737.285,235.24,737.13,234.115Z" transform="translate(-266.146)" fill="#1e244a"/>
      <path id="Trazado_640349" data-name="Trazado 640349" d="M1103.722,832.359c.018.106.035.215.056.32-.109-.067-.214-.053-.25-.3C1103.593,832.373,1103.659,832.366,1103.722,832.359Z" transform="translate(-524.999 -500.746)" fill="#8cc295"/>
      <path id="Trazado_640350" data-name="Trazado 640350" d="M1085.168,481.062a8.823,8.823,0,0,1-1.5,6.374c-1.347,2.033-4.32,2.3-6.529,1.689a6.49,6.49,0,0,1-2.934-10.87c1.844-1.959,4.967-3.352,7.546-1.987A7.792,7.792,0,0,1,1085.168,481.062Z" transform="translate(-503.557 -255.732)" fill="#2b1a0f"/>
      <path id="Trazado_640351" data-name="Trazado 640351" d="M881.156,1720.585c3.127,2.441,1.812,6.434-.369,9.023-2.167,2.568-7.022.366-8.175-2.213-1.46-3.268.461-7.627,4.253-7.891A5.284,5.284,0,0,1,881.156,1720.585Z" transform="translate(-366.02 -1110.194)" fill="#37628f"/>
      <path id="Trazado_640352" data-name="Trazado 640352" d="M450.989,1047.081c4.352,13.48-2.782,21.269-4.742,33.88-1.572,10.1,2.206,19.232,1.787,29.092-.271,6.364-3.8,11.813-5.438,17.821a66.2,66.2,0,0,0-1.629,8.193c-3.655,26.32-9.575,52.5-14.729,78.612-1.235,6.255-2.3,13.012-3.919,19.618-2.044,8.379-4.96,16.516-10.181,23.08-12.393,15.58-42.192,21.627-57.927,7.271-9.392-8.573-13.005-22.215-14.286-34.429-2.842-27.076,5.308-56.077,14.377-81.278,3.173-8.816,7.454-17.184,10.684-25.979a102.393,102.393,0,0,0,5.956-25.335,47.2,47.2,0,0,1,5.08-17.8c3.49-6.473,9.523-11.127,11.654-18.367,2.9-9.846,1.034-21.258,11.07-27.611,1.122-.711,2.413-1.066,3.293-1.946.179.851.387,1.7.633,2.543.844,2.888,2.28,5.724,2.832,8.685a10.831,10.831,0,0,0,2.4,5.47,34.349,34.349,0,0,0,9.614,8.4c6.768,3.972,15.682,5.649,22.345.538,5.059-3.877,7-9.273,8.992-14.81l.007,0C450.4,1043.574,450.465,1045.456,450.989,1047.081Z" transform="translate(0 -637.834)" fill="#4f95cf"/>
      <path id="Trazado_640353" data-name="Trazado 640353" d="M910.512,775.232c0-.222.007-.44.018-.658a127.752,127.752,0,0,0,.018-13.283c-.13-2.213-.345-4.419-.672-6.607-.141-.929-.44-1.854-.605-2.737-.151-.827.077-2.1-.5-2.783l.408-.707q.791.459,1.593.911c.51.651.992,1.291,1.449,1.773a65.838,65.838,0,0,0,7.925,7.669c4.394,3.317,8.984,6.648,14.149,8.657a68.629,68.629,0,0,0,18.837,4.408c5.618.45,10.87-.943,16.3-1.27q.085,1.214.232,2.413c.07.573.158,1.136.257,1.7-.063.007-.13.014-.193.025.035.242.141.228.25.3.253,1.407.559,2.79.82,4.179a24.466,24.466,0,0,1,.507,5.808,27.055,27.055,0,0,1-2.857,10.585A30.122,30.122,0,0,1,952.7,810.2c-1.344.524-2.674,1.126-4.035,1.6a20.921,20.921,0,0,1-7.809,1.052,39.519,39.519,0,0,1-7.89-1.326c-4.193-1.115-7.693-2.262-11.253-4.875A29.66,29.66,0,0,1,910.5,790.453a14.267,14.267,0,0,1-.2-6.987,17.894,17.894,0,0,0,.3-3.535C910.593,778.363,910.484,776.78,910.512,775.232Z" transform="translate(-391.2 -443.105)" fill="#f5b49b"/>
      <path id="Trazado_640354" data-name="Trazado 640354" d="M1081.827,403.5a2.434,2.434,0,0,1-1.808,3.817c-1.759.264-3.475-.5-5.1-1.066-.739-.26-1.534-.566-2.283-.749a12.9,12.9,0,0,0-2.779.035c-2.7-.084-5.083.953-7.6,1.756a2.825,2.825,0,0,1-2.2-.1c-2.308-1.33-.5-3.585.887-4.823a9.076,9.076,0,0,1,3.053-1.857,26.276,26.276,0,0,1,5.006-1.492,16.648,16.648,0,0,1,4.344-.165C1076.3,399.182,1080.213,400.885,1081.827,403.5Z" transform="translate(-494.372 -202.873)" fill="#1e244a"/>
      <path id="Trazado_640355" data-name="Trazado 640355" d="M891.35,403.5a2.433,2.433,0,0,1-1.808,3.817c-1.759.264-3.472-.5-5.094-1.066-.739-.26-1.534-.566-2.283-.749a12.937,12.937,0,0,0-2.783.035c-2.7-.084-5.079.953-7.6,1.756a2.817,2.817,0,0,1-2.2-.1c-2.308-1.33-.5-3.585.887-4.823a9.041,9.041,0,0,1,3.053-1.857,26.317,26.317,0,0,1,5-1.492,16.659,16.659,0,0,1,4.344-.165C885.821,399.182,889.74,400.885,891.35,403.5Z" transform="translate(-363.516 -202.873)" fill="#1e244a"/>
      <path id="Trazado_640356" data-name="Trazado 640356" d="M897.638,481.062a8.828,8.828,0,0,1-1.5,6.374c-1.347,2.033-4.32,2.3-6.529,1.689a6.492,6.492,0,0,1-2.934-10.87c1.847-1.959,4.967-3.352,7.546-1.987A7.8,7.8,0,0,1,897.638,481.062Z" transform="translate(-374.721 -255.732)" fill="#2b1a0f"/>
      <path id="Trazado_640357" data-name="Trazado 640357" d="M776.6,435.989q-.8-.454-1.593-.911c-3.054-1.752-6.051-3.616-8.988-5.7-5.787-4.1-11.985-8.784-16.255-14.511-2.529-3.388-5.147-6.631-7.792-9.945-2.353-2.948-3.873-6.458-6.152-9.456-2.424-3.194-5.154-3.7-8.52-5.607a28.082,28.082,0,0,1-8.953-7.82,20.023,20.023,0,0,1-2.476-3.617,30.911,30.911,0,0,1-1.784-4.679,15.636,15.636,0,0,1,.408-9.955,8.206,8.206,0,0,1,6.554-4.84c3.736-.373,5.02,2.332,6.961,4.886.155,1.126.327,2.248.524,3.37.422,2.417.6,4.9,2.273,6.856,1.6,1.879,3.834,2.455,5.509.366,1.622-2.026,1.643-4.707,1.608-7.173-.084-6.03-1.576-12.376.788-18.169a42.338,42.338,0,0,1,4.193-7.025,21.153,21.153,0,0,0,1.952-3.025c.559-1.266,1.013-2.572,1.675-3.792,2.554-4.686,3.525-9.748,3.964-15.024.254-3.029-.63-5.938-.324-8.995a34.19,34.19,0,0,1,1.432-7.2,17.82,17.82,0,0,1,5.871-8.7c3.145-2.42,6.941-2.656,10.726-2.916a38,38,0,0,1,10.7.69c7.341,1.541,14.514,4.569,22.1,4.707a21.327,21.327,0,0,0,8.661-1.558c8.65-3.634,17.811-4.274,27.112-3.715,1.351.081,2.227-.007,3.606.1,5.751.429,12.052,2.73,15.119,7.936,3.356,5.7,2.9,12.02,2.9,18.285a48.812,48.812,0,0,0,1.182,11.689,31.957,31.957,0,0,0,4.172,10.427c3.971,5.84,5.192,13.554,5.389,20.453.06,2.089-.69,13.441,3.219,12.864,1.2-.179,2.019-1.689,2.374-2.67a12.835,12.835,0,0,0,.616-3.486,41.138,41.138,0,0,0,.141-5.006c-.028-.457-.049-.911-.067-1.365l.183-.007c3.314-4.957,10.455-2.392,12.425,2.346a16.132,16.132,0,0,1,.418,10.275,32.042,32.042,0,0,1-1.84,4.83,20.889,20.889,0,0,1-2.554,3.736,29,29,0,0,1-9.248,8.07c-2.61,1.481-5.368,2.674-8.042,4.031l-.19-.085c-3.387,7.732-7.57,15.746-12.759,22.007A178.239,178.239,0,0,1,840.2,431.131a56.758,56.758,0,0,1-4.454,3.838c-7.855,6.114-18.528,11.429-27.667,11.732l-.007.2a45.278,45.278,0,0,1-10.385-1.608,58.939,58.939,0,0,1-11.975-4.425C782.621,439.253,779.582,437.663,776.6,435.989ZM842.669,334.17a2.434,2.434,0,0,0,1.808-3.817c-1.614-2.617-5.53-4.32-8.481-4.644a16.649,16.649,0,0,0-4.344.165,26.276,26.276,0,0,0-5.006,1.492,9.077,9.077,0,0,0-3.053,1.857c-1.39,1.238-3.194,3.493-.887,4.823a2.825,2.825,0,0,0,2.2.1c2.519-.8,4.9-1.84,7.6-1.756a12.9,12.9,0,0,1,2.779-.035c.749.183,1.545.489,2.283.749C839.194,333.667,840.911,334.434,842.669,334.17Zm-5.533,27.259a8.825,8.825,0,0,0,1.5-6.374,7.792,7.792,0,0,0-3.416-4.795c-2.579-1.365-5.7.028-7.546,1.988a6.49,6.49,0,0,0,2.934,10.87C832.816,363.726,835.789,363.462,837.136,361.429Zm-15.478,43.483c2.55-2.624,5.959-6.969,4.39-10.831a6.238,6.238,0,0,0-4.862-3.638c-2.332-.506-4.573.443-6.863.742-2.508.327-5.048.2-7.57.316a49.51,49.51,0,0,1-5.78.028c-2.062-.148-4.172-.179-6.227-.391-2.23-.232-4.89.419-6.276,2.3-1.674,2.265-.5,5.938,1,7.957a27.458,27.458,0,0,0,7.1,6.434,20.208,20.208,0,0,0,9.171,3.162C811.889,411.786,817.423,409.264,821.658,404.913ZM783.05,334.17a2.433,2.433,0,0,0,1.808-3.817c-1.611-2.617-5.53-4.32-8.481-4.644a16.66,16.66,0,0,0-4.344.165,26.315,26.315,0,0,0-5,1.492,9.04,9.04,0,0,0-3.053,1.857c-1.39,1.238-3.194,3.493-.887,4.823a2.817,2.817,0,0,0,2.2.1c2.522-.8,4.9-1.84,7.6-1.756a12.932,12.932,0,0,1,2.782-.035c.749.183,1.544.489,2.283.749C779.578,333.667,781.291,334.434,783.05,334.17Zm-4.612,27.259a8.828,8.828,0,0,0,1.5-6.374,7.8,7.8,0,0,0-3.419-4.795c-2.578-1.365-5.7.028-7.546,1.988a6.492,6.492,0,0,0,2.934,10.87C774.119,363.726,777.091,363.462,778.439,361.429Z" transform="translate(-257.023 -129.724)" fill="#f5b49b"/>
      <path id="Trazado_640358" data-name="Trazado 640358" d="M490.771,356.72c-1.612.681-3.354,1.972-3.663,3.386-.167.763.067,1.577-.135,2.332-.337,1.26-1.7,1.888-2.678,2.754a5.592,5.592,0,0,0-1.473,6.021c.627,1.64,2.043,2.987,2.226,4.733.156,1.48-.553,3.223.447,4.326.848.935,2.353.72,3.537,1.156,1.523.561,2.433,2.18,3.911,2.85,2.142.971,4.584-.333,6.934-.438a25.992,25.992,0,0,1,4.241.494,5.62,5.62,0,0,0,4.1-.772c1.243-.946,1.7-2.587,2.623-3.845a18.832,18.832,0,0,1,3.43-3.047,5.805,5.805,0,0,0,2.4-3.779c.156-2.078-1.513-3.813-2.11-5.809a22.363,22.363,0,0,1-.458-4.057c-.136-1.271-.556-2.942-1.874-3.44a20.851,20.851,0,0,0-2.25-.473c-2.356-.6-3.931-2.865-6.175-3.8a7.99,7.99,0,0,0-4.611-.31c-1.445.286-2.909,1.225-4.367,1.249A9.9,9.9,0,0,0,490.771,356.72Z" transform="translate(-98.335 -172.66)" fill="#fff"/>
      <path id="Trazado_640359" data-name="Trazado 640359" d="M1136.845,1270.507c-.608,11.353-10.76,19.57-15.793,29.764-4.4,8.906-4.779,19.187-5.077,29.114" transform="translate(-533.55 -801.758)" fill="none"/>
      <path id="Trazado_640360" data-name="Trazado 640360" d="M934.446,1582.5c-1.109-3.326-1.031-6.694-1.62-10.163-1.416-8.337-2.348-16.749-3.091-25.171-.355-4.019-.139-8.507-1.037-12.435a54.894,54.894,0,0,1-1.111-9.305,205.638,205.638,0,0,0-7.956-45.843c.179,1.075.349,2.154.5,3.24,1.7,11.994,2.577,24.086,3.146,36.182q.035.747.069,1.494c.281,6.227.485,12.457.683,18.683.39,12.249.728,24.276.686,36.561-.028,9.132-.362,18.261-.805,27.382h13.333c-.205-2.745-.579-5.493-.957-8.207C935.735,1590.945,935.716,1586.311,934.446,1582.5Z" transform="translate(-398.66 -945.398)" fill="#ededed"/>
      <path id="Trazado_640361" data-name="Trazado 640361" d="M952.2,894.766c-.83-5.139-1.189-10.251-2.462-15.33-2.494-9.938-7.025-19.629-14.789-26.538-2.871-2.554-6.8-3.789-9.6-6.163a24.466,24.466,0,0,1,.507,5.808A27.054,27.054,0,0,1,923,863.127a30.121,30.121,0,0,1-15.746,14.585c-1.344.524-2.674,1.126-4.035,1.6a20.923,20.923,0,0,1-7.809,1.052,39.51,39.51,0,0,1-7.89-1.326c-4.193-1.115-7.693-2.262-11.253-4.875A29.66,29.66,0,0,1,865.05,857.97a14.267,14.267,0,0,1-.2-6.987,17.894,17.894,0,0,0,.3-3.535c-.823.844-2.6,1.836-3.6,2.737-6.311,5.7-9.509,15.433-12.39,23.2-5.3,14.282-6.4,29.536-6.529,44.644a278.622,278.622,0,0,0,3.247,46.023,232.828,232.828,0,0,0,5.15,24.3c5.166,19.136,12.431,36.854,15.7,56.457a205.636,205.636,0,0,1,7.956,45.843,54.891,54.891,0,0,0,1.111,9.305c.9,3.928.682,8.416,1.037,12.435.743,8.422,1.675,16.833,3.091,25.171.589,3.469.51,6.837,1.62,10.163,1.27,3.807,1.289,8.442,1.843,12.418.378,2.714.752,5.462.957,8.207h49.005c.116-12.689.281-25.469-.848-38.049a274,274,0,0,1-1.235-31.825c.236-8.728-.457-17.575-.162-26.366.327-9.832,2.441-19.611,2.846-29.486a126.618,126.618,0,0,1,3.127-21.687c1.787-8.26,1.674-16.769,3.933-25.008,2.283-8.32,4.7-16.59,6.353-25.11,1.5-7.75,2.427-15.566,4.014-23.277A144.976,144.976,0,0,0,952.2,894.766Z" transform="translate(-345.749 -510.621)" fill="#fffbf2"/>
      <g id="Grupo_906612" data-name="Grupo 906612" transform="translate(557.502 134.614)">
        <path id="Trazado_640362" data-name="Trazado 640362" d="M1037.224,227.587a.879.879,0,0,1-.626-1.5c6.4-6.484,9.346-15.01,11.385-22.5a.879.879,0,1,1,1.7.462c-3.74,13.731-8.079,19.468-11.83,23.269A.877.877,0,0,1,1037.224,227.587Z" transform="translate(-1036.345 -202.946)"/>
      </g>
      <g id="Grupo_906613" data-name="Grupo 906613" transform="translate(571.631 150.438)">
        <path id="Trazado_640363" data-name="Trazado 640363" d="M1082.366,262.659a.88.88,0,0,1-.291-1.71,37.664,37.664,0,0,0,12.47-7.227.879.879,0,0,1,1.16,1.322,39.415,39.415,0,0,1-13.049,7.565A.877.877,0,0,1,1082.366,262.659Z" transform="translate(-1081.486 -253.503)"/>
      </g>
      <g id="Grupo_906614" data-name="Grupo 906614" transform="translate(516.658 129.685)">
        <path id="Trazado_640364" data-name="Trazado 640364" d="M921.333,208.585a.88.88,0,0,1-.859-.694c-1.976-9.155-7.11-16.081-14.085-19a.88.88,0,1,1,.679-1.623c7.513,3.147,13.026,10.529,15.125,20.254a.881.881,0,0,1-.86,1.065Z" transform="translate(-905.849 -187.197)"/>
      </g>
      <g id="Grupo_906615" data-name="Grupo 906615" transform="translate(485.97 145.156)">
        <path id="Trazado_640365" data-name="Trazado 640365" d="M824.364,242.125a.875.875,0,0,1-.427-.111c-5.309-2.953-10.4-4.113-15.136-3.447a.88.88,0,0,1-.245-1.742c5.123-.719,10.586.508,16.236,3.652a.88.88,0,0,1-.428,1.648Z" transform="translate(-807.799 -236.626)"/>
      </g>
      <g id="Grupo_906616" data-name="Grupo 906616" transform="translate(544.103 215.78)">
        <path id="Trazado_640366" data-name="Trazado 640366" d="M1000.761,496.395a7.312,7.312,0,0,1-2.921-.667,13.241,13.241,0,0,1-4.035-2.555.879.879,0,0,1,1.224-1.263,11.577,11.577,0,0,0,3.515,2.206,5.055,5.055,0,0,0,2.808.474,7.3,7.3,0,0,0,1.924-.6c.833-.385,3.365-1.555,1.7-7.017-.549-1.8-1.2-3.614-1.824-5.365-.573-1.6-1.164-3.254-1.685-4.911a12.681,12.681,0,0,1-.46-2.792c-.037-.432-.073-.839-.131-1.254a37.584,37.584,0,0,1,.2-9.605.879.879,0,1,1,1.747.208,36.043,36.043,0,0,0-.2,9.153c.065.461.1.911.142,1.347a11.178,11.178,0,0,0,.385,2.416c.51,1.625,1.1,3.262,1.663,4.846.634,1.771,1.289,3.6,1.85,5.445,1.743,5.726-.476,8.123-2.645,9.125a9.085,9.085,0,0,1-2.386.739A5.53,5.53,0,0,1,1000.761,496.395Z" transform="translate(-993.537 -462.272)" fill="#ab684d"/>
      </g>
      <g id="Grupo_906617" data-name="Grupo 906617" transform="translate(460.439 236.803)">
        <path id="Trazado_640367" data-name="Trazado 640367" d="M739.431,547.911a.879.879,0,0,1-.787-.485,6.082,6.082,0,0,0-2.235-2.11,6.768,6.768,0,0,1-2.835-2.958,5.526,5.526,0,0,1,.172-3.921,9.588,9.588,0,0,0,.369-1.438,2.9,2.9,0,0,0-.281-1.424c-.093-.256-.19-.521-.271-.815a3.394,3.394,0,0,0-1.033-1.949c-1.4-1.149-2.654-1.715-3.526-1.6a1.716,1.716,0,0,0-1.181.8A.879.879,0,1,1,726.388,531a3.424,3.424,0,0,1,2.382-1.526c1.4-.189,3.042.476,4.878,1.981a5.1,5.1,0,0,1,1.615,2.844c.061.224.141.444.226.676a4.462,4.462,0,0,1,.369,2.282,11.113,11.113,0,0,1-.43,1.7,3.922,3.922,0,0,0-.219,2.747,5.208,5.208,0,0,0,2.187,2.153,7.608,7.608,0,0,1,2.822,2.779.88.88,0,0,1-.786,1.274Z" transform="translate(-726.227 -529.439)" fill="#ab684d"/>
      </g>
      <g id="Grupo_906618" data-name="Grupo 906618" transform="translate(614.875 237.309)">
        <path id="Trazado_640368" data-name="Trazado 640368" d="M1220.533,550.069a.88.88,0,0,1-.786-1.274,7.837,7.837,0,0,1,2.9-2.858,5.4,5.4,0,0,0,2.269-2.236,4.131,4.131,0,0,0-.225-2.855,11.436,11.436,0,0,1-.443-1.756,4.573,4.573,0,0,1,.379-2.341c.088-.241.171-.469.234-.7a5.239,5.239,0,0,1,1.658-2.922c1.887-1.548,3.575-2.235,5.013-2.039a3.506,3.506,0,0,1,2.439,1.564.879.879,0,1,1-1.437,1.014,1.8,1.8,0,0,0-1.239-.835c-.907-.122-2.208.465-3.661,1.656a3.525,3.525,0,0,0-1.076,2.026c-.083.3-.182.576-.279.839a3.014,3.014,0,0,0-.291,1.484,10,10,0,0,0,.382,1.488,5.682,5.682,0,0,1,.179,4.029,6.865,6.865,0,0,1-2.916,3.041,6.3,6.3,0,0,0-2.317,2.189A.88.88,0,0,1,1220.533,550.069Z" transform="translate(-1219.654 -531.055)" fill="#ab684d"/>
      </g>
      <g id="Grupo_906619" data-name="Grupo 906619" transform="translate(444.046 329.357)">
        <path id="Trazado_640369" data-name="Trazado 640369" d="M675.254,854.265a1.393,1.393,0,0,1-.487-.091.31.31,0,0,0-.1-.024.879.879,0,1,1,.138-1.753,1.963,1.963,0,0,1,.484.1.9.9,0,0,1,.256-.019c2.335.175,4.368-2.736,5.1-4.607a21.2,21.2,0,0,0,1.015-10.7c-.463-3.378-1.068-6.875-2.9-9.248q-.516-.668-1.039-1.351a.88.88,0,0,1,1.4-1.07q.52.68,1.034,1.344c2.1,2.716,2.76,6.472,3.255,10.086a22.927,22.927,0,0,1-1.12,11.584,11.472,11.472,0,0,1-2.488,3.813,5.754,5.754,0,0,1-4.24,1.913A1.572,1.572,0,0,1,675.254,854.265Z" transform="translate(-673.853 -825.151)" fill="#ab684d"/>
      </g>
      <g id="Grupo_906620" data-name="Grupo 906620" transform="translate(414.088 313.246)">
        <path id="Trazado_640370" data-name="Trazado 640370" d="M579.018,779.112a.879.879,0,0,1-.529-1.582,19.947,19.947,0,0,1,10.146-3.85.88.88,0,0,1,.152,1.752,18.162,18.162,0,0,0-9.241,3.5A.876.876,0,0,1,579.018,779.112Z" transform="translate(-578.138 -773.677)" fill="#ab684d"/>
      </g>
      <g id="Grupo_906621" data-name="Grupo 906621" transform="translate(417.487 334.001)">
        <path id="Trazado_640371" data-name="Trazado 640371" d="M604.384,877.822a4.1,4.1,0,0,1-3.111-1.176,2.223,2.223,0,0,0-.414-.223,1.923,1.923,0,0,1-1.352-1.51.88.88,0,0,1,1.735-.266,3.625,3.625,0,0,0,.356.18,2.916,2.916,0,0,1,.96.617c1.319,1.412,5.039.13,6.663-.953,4.54-3.03,7.82-10.55,4.956-18.52a12.5,12.5,0,0,0-1.658-2.8c-.253-.357-.515-.725-.756-1.092-3.822-5.823-7.6-9.167-11.223-9.938a27.255,27.255,0,0,0-10.486.3.879.879,0,0,1-.358-1.722,29.026,29.026,0,0,1,11.209-.3c4.152.883,8.184,4.381,12.328,10.693.223.34.464.679.719,1.038a13.753,13.753,0,0,1,1.88,3.229c2.363,6.575,1.192,16.022-5.635,20.577A11.827,11.827,0,0,1,604.384,877.822Z" transform="translate(-588.996 -839.986)" fill="#ab684d"/>
      </g>
      <g id="Grupo_906622" data-name="Grupo 906622" transform="translate(410.984 350.812)">
        <path id="Trazado_640372" data-name="Trazado 640372" d="M578.291,924.062a5.271,5.271,0,0,1-4.219-2.194,7.733,7.733,0,0,1-1.587-3.922,10.005,10.005,0,0,1,.058-1.644,4.5,4.5,0,0,0-.136-2.224,11.038,11.038,0,0,0-3.405-3.71l-.46-.373a.88.88,0,0,1,1.113-1.362l.453.367a12.535,12.535,0,0,1,3.9,4.338,5.929,5.929,0,0,1,.293,3.123,8.647,8.647,0,0,0-.056,1.355,6,6,0,0,0,1.229,2.982,3.544,3.544,0,0,0,5.115.748c3.227-2.151,4.53-6.654,4.673-10.151a17.238,17.238,0,0,0-.82-5.738c-.645-2.1-2.371-3.851-4.039-5.542l-.4-.407a17.755,17.755,0,0,0-6.427-4.307.879.879,0,1,1,.616-1.647,19.5,19.5,0,0,1,7.067,4.723l.4.4c1.733,1.756,3.7,3.746,4.469,6.261a18.986,18.986,0,0,1,.9,6.326c-.208,5.09-2.247,9.4-5.454,11.542A5.894,5.894,0,0,1,578.291,924.062Z" transform="translate(-568.219 -893.698)" fill="#ab684d"/>
      </g>
      <g id="Grupo_906623" data-name="Grupo 906623" transform="translate(430.74 367.715)">
        <path id="Trazado_640373" data-name="Trazado 640373" d="M632.219,962.964a.88.88,0,0,1-.842-1.135,31.819,31.819,0,0,1,4.962-10.28c.383-.511.729-.983,1.069-1.447.5-.679.969-1.32,1.53-2.054a.879.879,0,0,1,1.4,1.068c-.55.72-1.016,1.354-1.509,2.026-.344.469-.693.945-1.08,1.461a30.147,30.147,0,0,0-4.686,9.736A.88.88,0,0,1,632.219,962.964Z" transform="translate(-631.339 -947.703)" fill="#ab684d"/>
      </g>
      <g id="Grupo_906624" data-name="Grupo 906624" transform="translate(421.601 404.019)">
        <path id="Trazado_640374" data-name="Trazado 640374" d="M603.021,1256.357a.88.88,0,0,1-.856-1.083c1.031-4.325,1.844-8.723,2.629-12.976.38-2.06.74-4.006,1.123-5.948,1.275-6.46,2.619-13.034,3.919-19.392,3.959-19.364,8.053-39.387,10.8-59.17a66.2,66.2,0,0,1,1.651-8.3,59.989,59.989,0,0,1,2.358-6.594c1.484-3.686,2.885-7.167,3.049-11.03a66.187,66.187,0,0,0-1.06-12.551c-.8-5.331-1.619-10.845-.718-16.639a68.309,68.309,0,0,1,3.138-11.642c2.38-7.065,4.436-13.167,1.638-21.833-.131-.406-.233-.818-.332-1.215-.289-1.166-.539-2.172-1.385-2.633a.88.88,0,1,1,.841-1.545c1.526.831,1.911,2.384,2.251,3.754.1.386.186.75.3,1.1,2.977,9.218.732,15.881-1.644,22.935a66.9,66.9,0,0,0-3.067,11.351c-.86,5.53-.057,10.908.72,16.109a67.508,67.508,0,0,1,1.078,12.885c-.176,4.165-1.7,7.951-3.174,11.612a58.674,58.674,0,0,0-2.293,6.4,64.456,64.456,0,0,0-1.606,8.085c-2.757,19.839-6.857,39.889-10.821,59.28-1.3,6.355-2.643,12.926-3.916,19.38-.382,1.932-.74,3.873-1.119,5.927-.79,4.275-1.606,8.7-2.648,13.064A.88.88,0,0,1,603.021,1256.357Z" transform="translate(-602.141 -1063.694)" fill="#2e5378"/>
      </g>
      <g id="Grupo_906625" data-name="Grupo 906625" transform="translate(398.22 436.442)">
        <path id="Trazado_640375" data-name="Trazado 640375" d="M550.115,1194.917a.877.877,0,0,1-.623-.259c-7.484-7.511-14.157-15.81-21.873-25.96a.879.879,0,1,1,1.4-1.064c7.673,10.094,14.3,18.341,21.718,25.783a.879.879,0,0,1-.623,1.5Z" transform="translate(-527.44 -1167.287)" fill="#2e5378"/>
      </g>
      <g id="Grupo_906626" data-name="Grupo 906626" transform="translate(392.652 479.921)">
        <path id="Trazado_640376" data-name="Trazado 640376" d="M523.662,1310.27a43.542,43.542,0,0,1-13.4-2.353.879.879,0,1,1,.54-1.674c7.439,2.4,13.654,2.879,19.56,1.507a.88.88,0,0,1,.4,1.714A31.134,31.134,0,0,1,523.662,1310.27Z" transform="translate(-509.648 -1306.201)" fill="#2e5378"/>
      </g>
      <g id="Grupo_906627" data-name="Grupo 906627" transform="translate(658.626 414.129)">
        <path id="Trazado_640377" data-name="Trazado 640377" d="M1371.212,1340.8h-.008a.879.879,0,0,1-.871-.887c.055-6.042-.476-12.28-.99-18.313-.446-5.239-.907-10.657-.982-15.918-.137-9.691-.627-19.547-1.1-29.078-.171-3.433-.348-6.982-.505-10.474-.933-20.668-2.345-40.325-4.317-60.094-2.078-20.839-3.839-41.223-2.579-61.516.912-14.683,4.147-30.355,9.888-47.913a.88.88,0,0,1,1.672.546c-5.695,17.414-8.9,32.943-9.8,47.475-1.252,20.162.5,40.469,2.574,61.233,1.975,19.8,3.389,39.49,4.324,60.19.157,3.487.334,7.035.5,10.466.475,9.546.966,19.417,1.1,29.14.074,5.2.532,10.585.976,15.794.517,6.073,1.052,12.352,1,18.478A.879.879,0,0,1,1371.212,1340.8Z" transform="translate(-1359.436 -1095.997)" fill="#2e5378"/>
      </g>
      <g id="Grupo_906628" data-name="Grupo 906628" transform="translate(696.377 599.602)">
        <path id="Trazado_640378" data-name="Trazado 640378" d="M1480.93,1713.936a.879.879,0,0,1-.567-1.552c9.317-7.852,15.845-15.688,19.4-23.292a.879.879,0,0,1,1.593.745c-3.665,7.836-10.348,15.875-19.861,23.892A.875.875,0,0,1,1480.93,1713.936Z" transform="translate(-1480.051 -1688.584)" fill="#2e5378"/>
      </g>
      <g id="Grupo_906629" data-name="Grupo 906629" transform="translate(395.444 236.622)">
        <path id="Trazado_640379" data-name="Trazado 640379" d="M531.2,535.542a.987.987,0,0,1-.369-.072c-.387-.156-.772-.337-1.145-.512a14.21,14.21,0,0,0-1.57-.665c-2.75-.9-5.5-2.072-8.169-3.2l-.77-.327a.989.989,0,0,1,.772-1.822l.771.327c2.626,1.115,5.342,2.269,8.012,3.145a15.794,15.794,0,0,1,1.794.754c.364.171.707.332,1.043.467a.989.989,0,0,1-.37,1.907Z" transform="translate(-518.57 -528.862)" fill="#a19086"/>
      </g>
      <g id="Grupo_906630" data-name="Grupo 906630" transform="translate(395.033 232.437)">
        <path id="Trazado_640380" data-name="Trazado 640380" d="M531.711,521.713a1.931,1.931,0,0,1-.662-.145l-.082-.029c-.383-.128-.709-.246-.995-.363l-.224-.092a9.669,9.669,0,0,0-1.575-.545c-2.614-.616-5.225-1.476-7.751-2.308-.828-.273-1.654-.545-2.476-.807a.989.989,0,0,1,.6-1.885c.828.264,1.659.538,2.493.813,2.486.818,5.056,1.665,7.586,2.261a11.541,11.541,0,0,1,1.873.641l.22.09c.246.1.531.2.872.318l.085.029a.994.994,0,0,1,.992.664,1.016,1.016,0,0,1-.244,1.067A.982.982,0,0,1,531.711,521.713ZM530.8,521h0Z" transform="translate(-517.257 -515.491)" fill="#a19086"/>
      </g>
      <g id="Grupo_906631" data-name="Grupo 906631" transform="translate(395.383 228.031)">
        <path id="Trazado_640381" data-name="Trazado 640381" d="M532.782,508.157a2,2,0,0,1-1.1-.421,1.614,1.614,0,0,0-.142-.092,23.783,23.783,0,0,0-4.6-1.59c-.6-.163-1.224-.333-1.839-.519-.432-.13-4.432-1.487-6.132-2.228a.989.989,0,0,1,.791-1.813c1.6.7,5.511,2.026,5.913,2.148.589.178,1.2.343,1.786.5a25.663,25.663,0,0,1,4.979,1.735,3.321,3.321,0,0,1,.353.216l.1.067a.989.989,0,0,1,.3,1.925A1.266,1.266,0,0,1,532.782,508.157Z" transform="translate(-518.376 -501.412)" fill="#a19086"/>
      </g>
      <g id="Grupo_906632" data-name="Grupo 906632" transform="translate(388.599 189.849)">
        <path id="Trazado_640382" data-name="Trazado 640382" d="M512.9,417.823h-.007a.989.989,0,0,1-.982-1,29.2,29.2,0,0,1,.939-6.181c.261-1.152.507-2.241.674-3.333.133-.872.255-1.755.378-2.643a50.515,50.515,0,0,1,2.213-10.468q.136-.371.278-.721a13.369,13.369,0,0,1-2-.582,10.138,10.138,0,0,1-4.27-2.884c-.285.28-.586.53-.867.763-.168.14-.335.278-.492.418a7.938,7.938,0,0,1-2.6,1.7,13.362,13.362,0,0,1-2,.582q.142.35.278.721a50.5,50.5,0,0,1,2.213,10.467c.123.888.245,1.771.378,2.643.2,1.332.5,2.688.791,4a49.444,49.444,0,0,1,.979,5.4.989.989,0,1,1-1.968.208,47.872,47.872,0,0,0-.944-5.185c-.3-1.342-.6-2.73-.814-4.125-.135-.881-.259-1.773-.382-2.67a49.041,49.041,0,0,0-2.112-10.059q-.241-.66-.5-1.241c-1.617.064-3.6-.022-4.673-1.211a3.017,3.017,0,0,1-.656-2.624,2.31,2.31,0,0,1,1.416-2,2.728,2.728,0,0,1,2.681.737,10.969,10.969,0,0,1,2.422,3.05l.069,0a8.451,8.451,0,0,0,2.167-.56,6.167,6.167,0,0,0,1.939-1.311c.175-.156.36-.31.547-.465a8.524,8.524,0,0,0,.953-.871,11.475,11.475,0,0,1-1.385-3.766c-.319-1.736-.116-4.08,1.507-4.974a1.644,1.644,0,0,1,1.648-.006c1.414.818,1.557,3.648,1.557,3.676a11.138,11.138,0,0,1-.971,5.019,8.189,8.189,0,0,0,3.746,2.7,8.452,8.452,0,0,0,2.167.56l.069,0a10.969,10.969,0,0,1,2.421-3.05,2.728,2.728,0,0,1,2.682-.737,2.31,2.31,0,0,1,1.416,2,3.017,3.017,0,0,1-.657,2.624c-1.077,1.188-3.055,1.275-4.673,1.211q-.26.582-.5,1.24a49.048,49.048,0,0,0-2.111,10.059c-.124.9-.248,1.789-.383,2.67-.177,1.161-.443,2.335-.7,3.47a27.754,27.754,0,0,0-.89,5.759A.989.989,0,0,1,512.9,417.823Zm8.788-28.166a1.506,1.506,0,0,0-.69.387,8.393,8.393,0,0,0-1.439,1.628,3.231,3.231,0,0,0,2.122-.569c.069-.075.277-.305.168-.984a.869.869,0,0,0-.16-.462Zm-22.844.012a1.3,1.3,0,0,0-.139.45c-.108.679.1.908.168.984a3.231,3.231,0,0,0,2.122.569,8.4,8.4,0,0,0-1.439-1.628A1.265,1.265,0,0,0,498.846,389.669Zm11-8.138a3.884,3.884,0,0,0-.335,2.733,9.779,9.779,0,0,0,.514,1.816,10.618,10.618,0,0,0,.275-2.723A5.464,5.464,0,0,0,509.843,381.531Z" transform="translate(-496.699 -379.422)" fill="#a84216"/>
      </g>
      <g id="Grupo_906633" data-name="Grupo 906633" transform="translate(493.387 487.347)">
        <path id="Trazado_640383" data-name="Trazado 640383" d="M846.913,1382a.88.88,0,0,1-.869-.752,153.64,153.64,0,0,0-6.5-25.51c-.848-2.573-1.873-5.22-2.864-7.781-2.135-5.515-4.342-11.217-5.174-17.026a.879.879,0,0,1,1.741-.249c.8,5.61,2.974,11.218,5.073,16.64,1,2.581,2.032,5.249,2.894,7.865a155.28,155.28,0,0,1,6.567,25.805.88.88,0,0,1-.742,1A.968.968,0,0,1,846.913,1382Z" transform="translate(-831.499 -1329.93)" fill="#2e5378"/>
      </g>
      <g id="Grupo_906634" data-name="Grupo 906634" transform="translate(673.033 390.976)">
        <path id="Trazado_640384" data-name="Trazado 640384" d="M1406.347,1039.931a.88.88,0,0,1-.814-1.212,62.662,62.662,0,0,1,5.417-9.774c1.327-2.089,2.7-4.248,3.844-6.447a.879.879,0,1,1,1.56.812c-1.18,2.267-2.573,4.459-3.92,6.578a61.36,61.36,0,0,0-5.273,9.5A.88.88,0,0,1,1406.347,1039.931Z" transform="translate(-1405.468 -1022.024)" fill="#2e5378"/>
      </g>
    </g>
  </g>
</svg>
