<svg xmlns="http://www.w3.org/2000/svg" width="535" height="378.567" viewBox="0 0 535 378.567">
  <g id="Grupo_906528" data-name="Grupo 906528" transform="translate(-25.711 -93.312)">
    <path id="Trazado_639989" data-name="Trazado 639989" d="M490.9,335.311H87.493s22.679-8.794,47.32-32.731,34.347-29.927,64.62-35.56,25.345-23.937,61.954-27.456,59.842-20.417,68.289-28.162,46.466,2.662,54.915,33.716,25.345,20.542,42.944,43.047S485.969,305.038,490.9,335.311Z" transform="translate(14.319 26.801)" fill="#5e732f"/>
    <g id="Grupo_906499" data-name="Grupo 906499" transform="translate(381.32 246.063)">
      <path id="Trazado_639990" data-name="Trazado 639990" d="M325.22,355.724h140.1s16.647-59.209,7.855-65.317-16.374,18.677-24.723-11.176-14.883-66.394-41.663-61.458-29.156,80.483-47.677,83.665S322.161,333.536,325.22,355.724Z" transform="translate(-311.982 -217.322)" fill="#79943c"/>
      <line id="Línea_587" data-name="Línea 587" x2="142.64" transform="translate(0 138.402)" fill="none" stroke="#292e4a" stroke-miterlimit="10" stroke-width="1"/>
    </g>
    <g id="Grupo_906500" data-name="Grupo 906500" transform="translate(73.518 93.311)">
      <path id="Trazado_639991" data-name="Trazado 639991" d="M64.523,161.033H225.536s-23.734-6.882-27.679-15.43-6.738-13.834-14.63-14.492-11.533.658-18.755-10.194-17.745-15.126-26.622-12.166-15.784,28.937-29.923,31.9-18.743.329-23.346,2.96S68.8,160.047,64.523,161.033Z" transform="translate(-64.523 -89.945)" fill="#179587" opacity="0.35" style="isolation: isolate"/>
      <path id="Trazado_639992" data-name="Trazado 639992" d="M311.99,161.964H474.544s3.936-15.864-6.082-20.8-12.165,4.23-21.11-1.763,2.863-41.953-13.238-45.83-36.972,37.016-56.231,35.959-25.344-3.525-32.5,2.115S319.384,160.905,311.99,161.964Z" transform="translate(-7.168 -93.311)" fill="#179587" opacity="0.15" style="isolation: isolate"/>
    </g>
    <g id="Grupo_906503" data-name="Grupo 906503" transform="translate(348.688 143.034)">
      <rect id="Rectángulo_295958" data-name="Rectángulo 295958" width="94.794" height="121.275" fill="#f1b62b"/>
      <g id="Grupo_906502" data-name="Grupo 906502" transform="translate(14.006 21.895)">
        <g id="Grupo_906501" data-name="Grupo 906501">
          <line id="Línea_588" data-name="Línea 588" x2="55.098" fill="none" stroke="#fff" stroke-miterlimit="10" stroke-width="0.977"/>
          <line id="Línea_589" data-name="Línea 589" x2="66.783" transform="translate(0 11.069)" fill="none" stroke="#fff" stroke-miterlimit="10" stroke-width="0.977"/>
          <line id="Línea_590" data-name="Línea 590" x2="66.783" transform="translate(0 22.138)" fill="none" stroke="#fff" stroke-miterlimit="10" stroke-width="0.977"/>
          <line id="Línea_591" data-name="Línea 591" x2="66.783" transform="translate(0 33.208)" fill="none" stroke="#fff" stroke-miterlimit="10" stroke-width="0.977"/>
          <line id="Línea_592" data-name="Línea 592" x2="66.783" transform="translate(0 44.277)" fill="none" stroke="#fff" stroke-miterlimit="10" stroke-width="0.977"/>
          <line id="Línea_593" data-name="Línea 593" x2="66.783" transform="translate(0 55.346)" fill="none" stroke="#fff" stroke-miterlimit="10" stroke-width="0.977"/>
          <line id="Línea_594" data-name="Línea 594" x2="66.783" transform="translate(0 66.415)" fill="none" stroke="#fff" stroke-miterlimit="10" stroke-width="0.977"/>
          <line id="Línea_595" data-name="Línea 595" x2="66.783" transform="translate(0 77.485)" fill="none" stroke="#fff" stroke-miterlimit="10" stroke-width="0.977"/>
        </g>
      </g>
    </g>
    <g id="Grupo_906506" data-name="Grupo 906506" transform="translate(208.691 97.137)">
      <g id="Grupo_906504" data-name="Grupo 906504" transform="translate(0 70.958)">
        <path id="Trazado_639993" data-name="Trazado 639993" d="M295.852,227.549V202.09l-15.965.469a46.228,46.228,0,0,0-4.465-10.767l11.624-10.96-18-18-10.96,11.625a46.227,46.227,0,0,0-10.767-4.465l.469-15.965H222.327l.471,15.965a46.236,46.236,0,0,0-10.768,4.465l-10.96-11.625-18,18,11.625,10.96a46.173,46.173,0,0,0-4.465,10.767l-15.965-.469v25.459l15.965-.471a46.183,46.183,0,0,0,4.465,10.768l-11.625,10.959,18,18,10.96-11.625a46.183,46.183,0,0,0,10.768,4.465l-.471,15.965h25.459l-.469-15.965a46.173,46.173,0,0,0,10.767-4.465l10.96,11.625,18-18-11.624-10.959a46.184,46.184,0,0,0,4.465-10.768Zm-60.8,3.067a15.8,15.8,0,1,1,15.8-15.8A15.8,15.8,0,0,1,235.057,230.617Z" transform="translate(-174.262 -154.024)" fill="#179587" opacity="0.35" style="isolation: isolate"/>
        <path id="Trazado_639994" data-name="Trazado 639994" d="M229.6,177.562a31.8,31.8,0,1,0,31.8,31.8A31.8,31.8,0,0,0,229.6,177.562Zm0,47.6a15.8,15.8,0,1,1,15.8-15.8A15.8,15.8,0,0,1,229.6,225.161Z" transform="translate(-168.807 -148.569)" fill="#179587" opacity="0.6" style="isolation: isolate"/>
      </g>
      <g id="Grupo_906505" data-name="Grupo 906505" transform="translate(52.29)" opacity="0.35" style="isolation: isolate">
        <path id="Trazado_639995" data-name="Trazado 639995" d="M290.67,141.139V125.653l-9.71.286a28.093,28.093,0,0,0-2.716-6.549l7.07-6.666-10.95-10.95-6.666,7.072a28.071,28.071,0,0,0-6.549-2.716l.286-9.711H245.948l.287,9.711a28.071,28.071,0,0,0-6.549,2.716l-6.666-7.072-10.95,10.95,7.07,6.666a28.093,28.093,0,0,0-2.716,6.549l-9.71-.286v15.486l9.71-.286a28.094,28.094,0,0,0,2.716,6.549l-7.07,6.666,10.95,10.95,6.666-7.072a28.072,28.072,0,0,0,6.549,2.716l-.287,9.711h15.486l-.286-9.711a28.072,28.072,0,0,0,6.549-2.716l6.666,7.072,10.95-10.95-7.07-6.666a28.094,28.094,0,0,0,2.716-6.549ZM253.691,143A9.609,9.609,0,1,1,263.3,133.4,9.609,9.609,0,0,1,253.691,143Z" transform="translate(-216.713 -96.417)" fill="#179587"/>
      </g>
    </g>
    <g id="Grupo_906515" data-name="Grupo 906515" transform="translate(73.151 138.403)">
      <path id="Trazado_639996" data-name="Trazado 639996" d="M251.877,295.927c-1.51,5.531-4.426,12.642-5.114,18.968s11.053,9.921,12.575,6.743c.2-.415-2.468-2.617-.249-8.493,2.663-7.051,4.024-10.072,2.774-14.959C260.913,294.475,252.808,292.517,251.877,295.927Z" transform="translate(-21.925 -91.852)" fill="#cc9b74"/>
      <path id="Trazado_639997" data-name="Trazado 639997" d="M352.366,216.767s-18.549,9.573-30.516,8.376-41.285-4.849-52.056,6.1-53.849,63.9-51.755,67.793S268,340.922,278.171,337.631s55.108-49.064,66.446-55.944S372.9,266.429,372.9,266.429Z" transform="translate(-28.592 -109.79)" fill="#cc9b74"/>
      <path id="Trazado_639998" data-name="Trazado 639998" d="M183.5,207.436s32.193,17.178,45.956,18.075,37.925-1.2,55.311,3.591,2.489,13.163,8.592,19.147,49.152,31.009,55.765,35.3,8.376,9.924,3.889,13.788-9.873,2.667-18.249-2.12-24.234-16.156-25.131-13.763,26.925,19.786,30.814,23.056,4.487,8.656-1.795,11.947-11.667,3.589-17.053,0-23.634-17.053-25.729-14.959,9.575,8.377,17.053,13.984c6.978,5.231,12.266,6.957,12.865,11.146s-5.928,11.629-16.753,8.077c-6.382-2.094-23.335-14.659-25.927-12.863S307.835,334.607,307.435,339s-6.183,11.717-22.672,3.789c-10.061-4.837-71.268-47.866-77.649-52.653s-60.338-33.208-60.338-33.208Z" transform="translate(-45.092 -111.952)" fill="#f9cca9"/>
      <path id="Trazado_639999" data-name="Trazado 639999" d="M288.664,255.141s-2.094,9.178-9.274,13.265c.748,5.433-3.291,16.054-11.967,18.979-.748,6.07-5.962,15.939-12.117,18.017" transform="translate(-19.938 -100.896)" fill="none" stroke="#cc9b74" stroke-linecap="round" stroke-linejoin="round" stroke-width="0.972"/>
      <path id="Trazado_640000" data-name="Trazado 640000" d="M226.525,233.366c-.168-2.6,12.166-3.79,20.543-6.583s22.937-7.261,34.9-6.722,26.514,3.645,36.492,4.187,2.6,11.71-6.975,14.5-30.553,9.971-36.617,6.581-11.449-4.787-20.823-3.99S226.924,239.548,226.525,233.366Z" transform="translate(-26.609 -109.037)" fill="#cc9b74"/>
      <ellipse id="Elipse_7359" data-name="Elipse 7359" cx="32.709" cy="77.628" rx="32.709" ry="77.628" transform="matrix(0.932, -0.362, 0.362, 0.932, 360.78, 23.702)" fill="#292e4a"/>
      <line id="Línea_596" data-name="Línea 596" y1="11.593" x2="25.878" transform="translate(430.127 118.645)" fill="none" stroke="#6470b5" stroke-miterlimit="10" stroke-width="0.972"/>
      <path id="Trazado_640001" data-name="Trazado 640001" d="M341.056,206.849s-9.024,3.514-12.6,4.638c-2.443.767-5.324,1.861-6.9,2.476a1.212,1.212,0,0,0-.664,1.626c2.332,5.225,11.842,26.557,14.147,31.989,2.631,6.2,9.775,25.568,10.715,26.695s22.184-7.331,22.184-7.331Z" transform="translate(-4.762 -112.088)" fill="#292e4a"/>
      <path id="Trazado_640002" data-name="Trazado 640002" d="M333.553,213.981l84.764-48.218s8.377,11.368,7.779,23.485,10.471,18.7,10.172,39.639c-.137,9.572,7.479,18.249,7.479,18.249l-80.776,35Z" transform="translate(-1.803 -121.611)" fill="#179587"/>
      <line id="Línea_597" data-name="Línea 597" x1="94.138" y2="54.201" transform="translate(331.75 38.168)" fill="none" stroke="#fff" stroke-miterlimit="10" stroke-width="0.972"/>
      <line id="Línea_598" data-name="Línea 598" y1="20.86" x2="45.485" transform="translate(344.304 100.595)" fill="none" stroke="#292e4a" stroke-miterlimit="10" stroke-width="0.972"/>
      <g id="Grupo_906508" data-name="Grupo 906508" transform="translate(348.903 102.34)">
        <path id="Trazado_640003" data-name="Trazado 640003" d="M356.752,217.64A4.637,4.637,0,1,1,352.116,213,4.636,4.636,0,0,1,356.752,217.64Z" transform="translate(-347.478 -213.002)" fill="#fff"/>
        <g id="Grupo_906507" data-name="Grupo 906507" transform="translate(2.823 2.943)">
          <path id="Trazado_640004" data-name="Trazado 640004" d="M350.693,215.852a.461.461,0,1,1-.461-.461A.46.46,0,0,1,350.693,215.852Z" transform="translate(-349.77 -215.391)" fill="#292e4a"/>
          <path id="Trazado_640005" data-name="Trazado 640005" d="M352.889,215.852a.461.461,0,1,1-.461-.461A.46.46,0,0,1,352.889,215.852Z" transform="translate(-349.261 -215.391)" fill="#292e4a"/>
          <path id="Trazado_640006" data-name="Trazado 640006" d="M350.693,217.856a.461.461,0,1,1-.461-.462A.46.46,0,0,1,350.693,217.856Z" transform="translate(-349.77 -214.927)" fill="#292e4a"/>
          <path id="Trazado_640007" data-name="Trazado 640007" d="M352.889,217.856a.461.461,0,1,1-.461-.462A.46.46,0,0,1,352.889,217.856Z" transform="translate(-349.261 -214.927)" fill="#292e4a"/>
        </g>
      </g>
      <g id="Grupo_906510" data-name="Grupo 906510" transform="translate(367.047 94.761)">
        <circle id="Elipse_7360" data-name="Elipse 7360" cx="4.637" cy="4.637" r="4.637" fill="#fff"/>
        <g id="Grupo_906509" data-name="Grupo 906509" transform="translate(2.823 2.942)">
          <path id="Trazado_640008" data-name="Trazado 640008" d="M365.423,209.7a.461.461,0,1,1-.461-.461A.46.46,0,0,1,365.423,209.7Z" transform="translate(-364.5 -209.238)" fill="#292e4a"/>
          <path id="Trazado_640009" data-name="Trazado 640009" d="M367.619,209.7a.461.461,0,1,1-.461-.461A.46.46,0,0,1,367.619,209.7Z" transform="translate(-363.991 -209.238)" fill="#292e4a"/>
          <path id="Trazado_640010" data-name="Trazado 640010" d="M365.423,211.7a.461.461,0,1,1-.461-.462A.46.46,0,0,1,365.423,211.7Z" transform="translate(-364.5 -208.774)" fill="#292e4a"/>
          <path id="Trazado_640011" data-name="Trazado 640011" d="M367.619,211.7a.461.461,0,1,1-.461-.462A.46.46,0,0,1,367.619,211.7Z" transform="translate(-363.991 -208.774)" fill="#292e4a"/>
        </g>
      </g>
      <ellipse id="Elipse_7361" data-name="Elipse 7361" cx="77.628" cy="32.709" rx="77.628" ry="32.709" transform="matrix(0.362, -0.932, 0.932, 0.362, 0, 144.707)" fill="#292e4a"/>
      <line id="Línea_599" data-name="Línea 599" x1="25.878" y1="11.593" transform="translate(22.001 118.645)" fill="#606060" stroke="#f1b62b" stroke-miterlimit="10" stroke-width="1"/>
      <path id="Trazado_640012" data-name="Trazado 640012" d="M184.789,206.019s8.314,4.662,11.725,6.208c2.042.926,5.136,2.347,6.716,2.961a1.212,1.212,0,0,1,.664,1.626c-2.332,5.225-11.242,25.523-13.547,30.956-2.632,6.2-13.086,28.3-14.026,29.429s-18.873-10.066-18.873-10.066Z" transform="translate(-42.619 -112.281)" fill="#995417"/>
      <path id="Trazado_640013" data-name="Trazado 640013" d="M204.277,213.981l-84.764-48.218s-.786,15.556-12.754,22.338c-10.554,5.98-21.2,18.414-12.675,37.546,5.458,12.25,0,21.489,0,21.489l80.776,35Z" transform="translate(-58.023 -121.611)" fill="#f1b62b"/>
      <line id="Línea_600" data-name="Línea 600" x2="94.138" y2="54.201" transform="translate(52.117 38.168)" fill="none" stroke="#fff" stroke-linecap="round" stroke-linejoin="round" stroke-width="0.972"/>
      <line id="Línea_601" data-name="Línea 601" x1="45.485" y1="20.86" transform="translate(88.216 100.595)" fill="none" stroke="#995417" stroke-miterlimit="10" stroke-width="0.972"/>
      <g id="Grupo_906512" data-name="Grupo 906512" transform="translate(119.828 102.34)">
        <path id="Trazado_640014" data-name="Trazado 640014" d="M161.506,217.64A4.637,4.637,0,1,0,166.144,213,4.637,4.637,0,0,0,161.506,217.64Z" transform="translate(-161.506 -213.002)" fill="#fff"/>
        <g id="Grupo_906511" data-name="Grupo 906511" transform="translate(2.823 2.943)">
          <path id="Trazado_640015" data-name="Trazado 640015" d="M165.994,215.852a.461.461,0,1,0,.462-.461A.461.461,0,0,0,165.994,215.852Z" transform="translate(-163.289 -215.391)" fill="#292e4a"/>
          <path id="Trazado_640016" data-name="Trazado 640016" d="M163.8,215.852a.461.461,0,1,0,.462-.461A.461.461,0,0,0,163.8,215.852Z" transform="translate(-163.798 -215.391)" fill="#292e4a"/>
          <path id="Trazado_640017" data-name="Trazado 640017" d="M165.994,217.856a.461.461,0,1,0,.462-.462A.461.461,0,0,0,165.994,217.856Z" transform="translate(-163.289 -214.927)" fill="#292e4a"/>
          <path id="Trazado_640018" data-name="Trazado 640018" d="M163.8,217.856a.461.461,0,1,0,.462-.462A.461.461,0,0,0,163.8,217.856Z" transform="translate(-163.798 -214.927)" fill="#292e4a"/>
        </g>
      </g>
      <g id="Grupo_906514" data-name="Grupo 906514" transform="translate(101.685 94.761)">
        <circle id="Elipse_7362" data-name="Elipse 7362" cx="4.637" cy="4.637" r="4.637" fill="#fff"/>
        <g id="Grupo_906513" data-name="Grupo 906513" transform="translate(2.823 2.942)">
          <path id="Trazado_640019" data-name="Trazado 640019" d="M151.264,209.7a.461.461,0,1,0,.462-.461A.461.461,0,0,0,151.264,209.7Z" transform="translate(-148.559 -209.238)" fill="#292e4a"/>
          <path id="Trazado_640020" data-name="Trazado 640020" d="M149.068,209.7a.461.461,0,1,0,.462-.461A.461.461,0,0,0,149.068,209.7Z" transform="translate(-149.068 -209.238)" fill="#292e4a"/>
          <path id="Trazado_640021" data-name="Trazado 640021" d="M151.264,211.7a.461.461,0,1,0,.462-.462A.461.461,0,0,0,151.264,211.7Z" transform="translate(-148.559 -208.774)" fill="#292e4a"/>
          <path id="Trazado_640022" data-name="Trazado 640022" d="M149.068,211.7a.461.461,0,1,0,.462-.462A.461.461,0,0,0,149.068,211.7Z" transform="translate(-149.068 -208.774)" fill="#292e4a"/>
        </g>
      </g>
      <path id="Trazado_640023" data-name="Trazado 640023" d="M199.387,283.238c0-6.385,5.585-26.726,10.97-26.128s8.775,4.588,8.178,11.17-6.782,20.343-5.585,22.536,4.587,2.792,2.792,3.99S199.387,292.811,199.387,283.238Z" transform="translate(-32.898 -100.443)" fill="#cc9b74"/>
      <path id="Trazado_640024" data-name="Trazado 640024" d="M217.592,300.911c-1.993-3.455-2.194-9.773,0-16.354s8.018-21.5,9.972-21.939c4.388-1,9.773,3.19,11.168,8.775s-11.045,29.954-9.249,31.749,2.955,2.371,2.507,3.217C230.344,309.462,220.584,306.1,217.592,300.911Z" transform="translate(-29.043 -99.197)" fill="#cc9b74"/>
      <path id="Trazado_640025" data-name="Trazado 640025" d="M232.366,307.855c-.5-3.434,5.165-25.532,9.2-26.43s8.6,3.992,9.2,8.779-5.853,21.031-4.98,22.444c.785,1.271,2.579,2.169,2.439,2.757C247.2,319.675,233.462,315.4,232.366,307.855Z" transform="translate(-25.262 -94.829)" fill="#cc9b74"/>
    </g>
    <g id="Grupo_906517" data-name="Grupo 906517" transform="translate(411.906 256.365)">
      <g id="Grupo_906516" data-name="Grupo 906516" transform="translate(24.444)">
        <path id="Trazado_640026" data-name="Trazado 640026" d="M359.085,372.317H456.3s17.532-45.633,17-60.508-8.5-10.64-3.719-30.554,12.75-53.409-1.594-55.522-41.969,65.888-55.251,70.138-26.031,12.75-37.187,32.939S359.085,372.317,359.085,372.317Z" transform="translate(-359.085 -225.685)" fill="#8ead46"/>
        <path id="Trazado_640027" data-name="Trazado 640027" d="M459.34,226.049S432.534,316.456,403.3,372.233" transform="translate(-348.836 -225.6)" fill="none" stroke="#525730" stroke-miterlimit="10" stroke-width="1"/>
        <path id="Trazado_640028" data-name="Trazado 640028" d="M421.874,265.329s-12.592,50.953-26.505,97.8" transform="translate(-350.676 -216.497)" fill="none" stroke="#525730" stroke-miterlimit="10" stroke-width="1"/>
        <path id="Trazado_640029" data-name="Trazado 640029" d="M456.164,274.977s-25.737,58.47-43.686,85.916" transform="translate(-346.71 -214.261)" fill="none" stroke="#525730" stroke-miterlimit="10" stroke-width="1"/>
      </g>
      <line id="Línea_602" data-name="Línea 602" x2="137.306" transform="translate(0 146.632)" fill="none" stroke="#292e4a" stroke-miterlimit="10" stroke-width="1"/>
    </g>
    <ellipse id="Elipse_7363" data-name="Elipse 7363" cx="16.734" cy="6.621" rx="16.734" ry="6.621" transform="translate(484.326 458.636)" fill="#c3c4c9"/>
    <ellipse id="Elipse_7364" data-name="Elipse 7364" cx="16.734" cy="6.621" rx="16.734" ry="6.621" transform="translate(421.51 458.636)" fill="#c3c4c9"/>
    <path id="Trazado_640030" data-name="Trazado 640030" d="M381.827,286.476H370.438a1.2,1.2,0,0,1-1.118-.769l-7.328-19.063a.729.729,0,0,1,.681-.99h11.388a1.2,1.2,0,0,1,1.12.769l7.327,19.063A.729.729,0,0,1,381.827,286.476Z" transform="translate(77.928 39.944)" fill="#cc9b74"/>
    <path id="Trazado_640031" data-name="Trazado 640031" d="M415.018,387.458l3.86,4.211s-6.257,5.205-7.837,5.673-4.622,0-6.259,0,2.515-1.4,3.86-2.807,2.515-7.078,2.515-7.078Z" transform="translate(87.769 68.174)" fill="#0d4c43" opacity="0.8" style="isolation: isolate"/>
    <path id="Trazado_640032" data-name="Trazado 640032" d="M369.375,387.685s3.422,9.469-.439,9.469H358.759c-1.667,0-11.054-5.433-10.089-6.5s5.878.228,7.457.151,5-.381,6.58-1.75,1.492-1.9,1.492-1.9Z" transform="translate(74.835 68.103)" fill="#0d4c43" opacity="0.8" style="isolation: isolate"/>
    <path id="Trazado_640033" data-name="Trazado 640033" d="M383.508,311.009S367.166,365.4,359.27,405.938H368.2s20.017-54.922,24.141-62.292l2.085,24.566s16.954,28.249,26.429,37.725h6.318s-17.372-32.462-18.425-45.1a197.589,197.589,0,0,1-.351-28.427c.351-7.194,2.807-16.669-.877-21.407Z" transform="translate(77.308 50.455)" fill="#3f4152"/>
    <path id="Trazado_640034" data-name="Trazado 640034" d="M420.561,395.174s-5.246-9.807-10.147-20.736h0c-3.831-3.716-9.68-8.742-14.418-11.2a38.773,38.773,0,0,1-8.18-5.789s16.954,28.249,26.429,37.725Z" transform="translate(83.924 61.219)" fill="#2d2f3b"/>
    <path id="Trazado_640035" data-name="Trazado 640035" d="M361.756,290.581a57.23,57.23,0,0,0-5.439-2.895c-1.872-.76-5.265-2.34-6.727-2.456s-2.632.175-1.754,1.111,3.976,3.45,4.327,4.24-2.631-.145-3.216.381,1.169,1.579,2.4,1.754,3.509-.116,5.029.234,5.382,1.872,5.382,1.872Z" transform="translate(74.588 44.475)" fill="#f9c8a2"/>
    <path id="Trazado_640036" data-name="Trazado 640036" d="M392.906,276.417s-6.4,9.359-7.368,11.026-2.675,5-4.211,7.37c-.469.725-1.755,3.071-2.807,3.158s-20.091-6.755-20.091-6.755l-1.579,5.79s3.773,1.49,6.229,2.807,8.072,4.035,10.089,4.825,9.475,3.685,11.23,2.457,7.96-11.757,7.96-11.757Z" transform="translate(76.747 42.438)" fill="#0d4c43" opacity="0.8" style="isolation: isolate"/>
    <path id="Trazado_640037" data-name="Trazado 640037" d="M371.444,282.859s-.059-5.791-.644-6.959-2.456-6.376-2.982-6.142.76,3.743,0,3.918-4.211-5.556-4.973-5.5-.175,8.422,1.346,10.147,3.45,3.539,3.509,3.89,1.345,4.094,1.345,4.094Z" transform="translate(78.06 40.529)" fill="#f9c8a2"/>
    <path id="Trazado_640038" data-name="Trazado 640038" d="M390.126,255.92s-1.826,9.918-1.508,11.744,3.491,1.667,4.522,3.412.794,6.744.794,6.744h8.727s-.713-6.031-.4-8.252,2.381-10.87,0-13.251S391.316,254.571,390.126,255.92Z" transform="translate(84.102 37.409)" fill="#f9c8a2"/>
    <path id="Trazado_640039" data-name="Trazado 640039" d="M386.709,255.877c.746,3.735,8.78,2.222,10.262,3.068s1.058,4.655,1.587,5.607,1.27-1.376,2.54-.528.634,3.6-.848,3.6c1.164,1.8,1.482,3.6,2.434,3.385s2.645-4.532,2.751-7.556-1.27-5.139-.846-6.939-2.751-3.6-5.4-3.6S385.862,251.646,386.709,255.877Z" transform="translate(83.657 36.95)" fill="#995417"/>
    <path id="Trazado_640040" data-name="Trazado 640040" d="M396.017,273.842s-1.17-1.258,1.286-1.726,12.517-.262,12.985.863-1.17,1.945,0,3.933,1.46,10.177.086,17.781-4.415,16.378-3.6,19.536,2.573,7.721-.585,7.721H383.616c-3.509,0-3.158-1.287-2.339-4.562a34.1,34.1,0,0,0,.935-4.68s-3.158,1.755-4.444-.935-11.7-27.959-11.23-28.777,3.275-2.808,4.094-2.106,9.524,15.167,11,16.025c1.052.615,4.825-3.246,4.825-3.246s2.524-10.165,2.895-12.458C389.875,277.966,392.156,273.842,396.017,273.842Z" transform="translate(78.989 41.387)" fill="#179587"/>
    <path id="Trazado_640041" data-name="Trazado 640041" d="M382.7,291.673s3.6-3.86,5.176-5.088a52.878,52.878,0,0,0,5.967-5.527c.965-1.228-.7-.176-2.106.7s-3.952,3.389-5.134,4.326-3.237,2.88-3.237,2.88Z" transform="translate(82.739 43.384)" fill="#0d4c43" opacity="0.8" style="isolation: isolate"/>
    <path id="Trazado_640042" data-name="Trazado 640042" d="M379.333,308.467s3.977-3.348,4.943-4.262,5.527-4.336,7.194-5.739,5.51-5.09,6.571-5.792,2.026-3.07,2.641-2.367-1.509,3.86-2.641,4.561-7.887,6.142-9.642,7.721-9.451,8.164-9.451,8.164Z" transform="translate(81.869 45.628)" fill="#0d4c43" opacity="0.8" style="isolation: isolate"/>
    <path id="Trazado_640043" data-name="Trazado 640043" d="M386.121,340.707s2.37-8.247,4.475-10.352a20.1,20.1,0,0,0,4.211-6.668c1.93,1.93-1.93,4.561-3.158,8.509S386.6,346.3,386.6,346.3Z" transform="translate(83.531 53.394)" fill="#2d2f3b"/>
    <g id="Grupo_906518" data-name="Grupo 906518" transform="translate(57.039 121.964)">
      <circle id="Elipse_7365" data-name="Elipse 7365" cx="19.056" cy="19.056" r="19.056" transform="translate(465.56 49.13)" fill="#ffd817"/>
      <circle id="Elipse_7366" data-name="Elipse 7366" cx="19.056" cy="19.056" r="19.056" transform="translate(0 49.13)" fill="#ffd817"/>
      <path id="Trazado_640044" data-name="Trazado 640044" d="M453.846,210.706c-4.692,1.717-6.085,3.109-7.8,7.8-1.717-4.693-3.11-6.085-7.8-7.8,4.692-1.718,6.085-3.11,7.8-7.8C447.761,207.6,449.154,208.988,453.846,210.706Z" transform="translate(38.572 -96.564)" fill="#ffd817"/>
      <path id="Trazado_640045" data-name="Trazado 640045" d="M170.776,177.229c-4.692,1.717-6.084,3.109-7.8,7.8-1.717-4.693-3.109-6.085-7.8-7.8,4.693-1.718,6.085-3.11,7.8-7.8C164.692,174.119,166.084,175.511,170.776,177.229Z" transform="translate(-27.035 -104.323)" fill="#ffd817"/>
      <path id="Trazado_640046" data-name="Trazado 640046" d="M98.1,124.375c-4.692,1.718-6.084,3.11-7.8,7.8-1.717-4.692-3.11-6.084-7.8-7.8,4.692-1.717,6.085-3.109,7.8-7.8C92.02,121.266,93.412,122.658,98.1,124.375Z" transform="translate(-43.878 -116.573)" fill="#ffd817"/>
    </g>
    <g id="Grupo_906520" data-name="Grupo 906520" transform="translate(25.711 255.991)">
      <g id="Grupo_906519" data-name="Grupo 906519" transform="translate(8.762)">
        <path id="Trazado_640047" data-name="Trazado 640047" d="M208.364,357.967s-13-12.637-14.8-27.44-1.806-30.329-14.442-31.772-8.665,23.107-13.359,23.468-6.86-66.433-25.634-67.516-14.983,27.789-12.276,43.325c1.691,9.709,2.142,14.477-3.285,14.477-9.135,0-8.63-26.752-11.879-48.415s-9.387-38.271-32.856-38.271-9.748,32.494-2.165,46.213S94.634,302,86.329,304.17s-14.441-20.218-28.162-18.775-19.5,27.079-6.138,40.8-20.94,5.415-19.136,31.772Z" transform="translate(-32.825 -225.279)" fill="#79943c"/>
        <path id="Trazado_640048" data-name="Trazado 640048" d="M74.232,225.381s24.945,80.871,34.28,132.689" transform="translate(-23.228 -225.381)" fill="none" stroke="#525730" stroke-miterlimit="10" stroke-width="0.879"/>
        <path id="Trazado_640049" data-name="Trazado 640049" d="M48.535,276.185s16.86,37.666,50.438,70.11" transform="translate(-29.184 -213.606)" fill="none" stroke="#525730" stroke-miterlimit="10" stroke-width="0.879"/>
        <path id="Trazado_640050" data-name="Trazado 640050" d="M116.919,249.452s11.544,48.932,9.093,103.039" transform="translate(-13.335 -219.802)" fill="none" stroke="#525730" stroke-miterlimit="10" stroke-width="0.879"/>
        <path id="Trazado_640051" data-name="Trazado 640051" d="M154.736,286.121s-1.882,27.052-6,57.871" transform="translate(-5.96 -211.303)" fill="none" stroke="#525730" stroke-miterlimit="10" stroke-width="0.879"/>
      </g>
      <line id="Línea_603" data-name="Línea 603" x2="199.112" transform="translate(0 132.775)" fill="none" stroke="#292e4a" stroke-miterlimit="10" stroke-width="0.879"/>
    </g>
    <g id="Grupo_906522" data-name="Grupo 906522" transform="translate(53.889 280.04)">
      <ellipse id="Elipse_7367" data-name="Elipse 7367" cx="16.734" cy="6.621" rx="16.734" ry="6.621" transform="translate(26.198 178.597)" fill="#c3c4c9"/>
      <ellipse id="Elipse_7368" data-name="Elipse 7368" cx="16.734" cy="6.621" rx="16.734" ry="6.621" transform="translate(0 178.597)" fill="#c3c4c9"/>
      <g id="Grupo_906521" data-name="Grupo 906521" transform="translate(2.854)">
        <path id="Trazado_640052" data-name="Trazado 640052" d="M65.681,271.331l7.043-1.35s6.3,3.711,7.271,10.588S82.5,319.78,82.5,319.78l-14.881-.718Z" transform="translate(-47.479 -239.093)" fill="#fff"/>
        <path id="Trazado_640053" data-name="Trazado 640053" d="M83.391,381.592s.15,6.39,2.115,9.392S92.4,396.3,92.4,396.3s4.543.692,3.619,1.848-19.016,0-20.71,0,1.078-4.773,1.463-6.236.308-10.316.308-10.316Z" transform="translate(-45.374 -213.225)" fill="#a83e63"/>
        <path id="Trazado_640054" data-name="Trazado 640054" d="M65.681,381.592s-1.91,6.39.054,9.392,6.892,5.313,6.892,5.313,4.543.692,3.619,1.848-19.016,0-20.71,0,1.078-4.773,1.463-6.236,2.369-10.316,2.369-10.316Z" transform="translate(-49.956 -213.225)" fill="#a83e63"/>
        <path id="Trazado_640055" data-name="Trazado 640055" d="M60.366,308.057H88.619s4.82,36.1,3.784,55.4-3.236,37.159-3.236,37.159H78.844l1.642-36.749-4.028-27.1s0,34.285-9.522,63.847H57.16l6.425-39.006Z" transform="translate(-49.454 -230.268)" fill="#3f4152"/>
        <path id="Trazado_640056" data-name="Trazado 640056" d="M72.937,321.655c-1.309,0,0,11.958,0,11.958l4.028,27.1C79.531,349.576,74.245,321.655,72.937,321.655Z" transform="translate(-45.932 -227.117)" fill="#2d2f3b"/>
        <path id="Trazado_640057" data-name="Trazado 640057" d="M76.134,358.323l-1.37,30.639H85.087s.653-5.309,1.415-13.258Z" transform="translate(-45.374 -218.618)" fill="#2d2f3b"/>
        <path id="Trazado_640058" data-name="Trazado 640058" d="M98.889,287.289a12.038,12.038,0,0,0,2.053-2.156c.154-.512-.052-1.642,2.206-2.925s3.285-1.334,3.233-.974-2.771,1.334-2.052,1.8,4.516.36,4.875.154,2.566-1.8,3.079-1.18-1.18,2.668-1.745,3.49-4.362,2.925-7.647,3.131-3.644,1.642-3.644,1.642Z" transform="translate(-39.782 -236.53)" fill="#cc9b74"/>
        <path id="Trazado_640059" data-name="Trazado 640059" d="M71.047,270.517a9.918,9.918,0,0,1,5.029,5.954,30.527,30.527,0,0,1,1.95,13.446c-.453,4.374.4,13.345.868,18.58s-.765,13.549,1.391,13.857,4.619.512,5.851-1.027,0-11.29,0-11.29S108,293,108.2,292.177s-1.232-3.7-2.156-3.491-19.708,9.958-19.708,9.958-.328-7.9-1.446-12.01-5.225-13.213-7.279-14.356a48.188,48.188,0,0,0-7.185-2.581Z" transform="translate(-46.378 -239.159)" fill="#dc5181"/>
        <path id="Trazado_640060" data-name="Trazado 640060" d="M83.189,304.971s8.651-6.743,15.12-11.949c-1.267-2.2-10.5,3.475-11.928,3.019-1.53-.488.069-4.046.914-4.482h0c-2.292,1.184-3.9,2.019-3.9,2.019C83.574,296.518,82.984,302.455,83.189,304.971Z" transform="translate(-43.431 -234.092)" fill="#a83e63"/>
        <path id="Trazado_640061" data-name="Trazado 640061" d="M86.107,297.535,78.9,298.981a.83.83,0,0,1-.967-1.017l4.5-17.75a.949.949,0,0,1,.734-.7l7.211-1.446a.83.83,0,0,1,.967,1.017l-4.5,17.75A.947.947,0,0,1,86.107,297.535Z" transform="translate(-44.646 -237.222)" fill="#6470b5"/>
        <path id="Trazado_640062" data-name="Trazado 640062" d="M83.7,281.4c-.14.557-.554.932-.925.84s-.559-.621-.419-1.178.554-.932.925-.839S83.84,280.838,83.7,281.4Z" transform="translate(-43.625 -236.724)" fill="#292e4a"/>
        <path id="Trazado_640063" data-name="Trazado 640063" d="M72.431,293.966a23.336,23.336,0,0,0,2.822-1.643c.77-.616,4.209-4.773,5.287-5.132s3.439-1.232,3.849,0-2.361,2.008-2.566,2.416,1.386-.055,1.436.3-1.282.564-1.694,1.13-1.9,4.927-4.413,4.875a9.878,9.878,0,0,0-4.721,1.283Z" transform="translate(-45.914 -235.252)" fill="#cc9b74"/>
        <path id="Trazado_640064" data-name="Trazado 640064" d="M82.258,255.206c.514,1,.154,3.927-.514,5.569a22.961,22.961,0,0,0-.974,4.825s-1.848.1-2.259,1.026-1.232,3.491-2.976,3.7a8.26,8.26,0,0,0-2.464.565l-.565,5.081s-4,1.18-6.825-1.386a75.557,75.557,0,0,0,1.248-8.427c.086-2.659.958-11.641,5.321-13.181S82.258,255.206,82.258,255.206Z" transform="translate(-47.479 -243.12)" fill="#f9c8a2"/>
        <path id="Trazado_640065" data-name="Trazado 640065" d="M69.106,269.7s4.413,3.182,5.337,7.185,2.464,10.264,1.334,13.857a21.544,21.544,0,0,0-.82,7.288l3.7-1.745.512,5.235-3.387,1.95s-.2,6.672,0,10.573.719,8.007-1.128,8.93-14.269.82-15.6-.822.822-10.264.822-10.264-4.723,2.566-7.391.82-1.437-8.109,0-12.728,4.824-16.629,5.747-20.838S63.973,271.133,69.106,269.7Z" transform="translate(-50.904 -239.159)" fill="#dc5181"/>
        <path id="Trazado_640066" data-name="Trazado 640066" d="M64.137,281.78s-3.284,14.268-3.49,15.911c-2.053.924-4.413,2.052-2.874,1.95s13.091-3.179,15.705-4.413V292.71s-7.9,3.646-9.342,2.722-.1-2.97.1-4.718S64.137,281.78,64.137,281.78Z" transform="translate(-49.426 -236.359)" fill="#a83e63"/>
        <path id="Trazado_640067" data-name="Trazado 640067" d="M67.912,302.461a11.632,11.632,0,0,0,4.389-4.619l-13.883,7.52s-2.156,8.622-.822,10.264c.371.456,1.611.79,3.228,1.019C59.6,313.2,64.911,304.155,67.912,302.461Z" transform="translate(-49.454 -232.636)" fill="#a83e63"/>
        <path id="Trazado_640068" data-name="Trazado 640068" d="M72.179,250.656a6.832,6.832,0,1,0-6.79,7.37,7.124,7.124,0,0,0,1.993-.285c-.181,1.467-.209,2.993-.329,4.486a8.927,8.927,0,0,0,1.511,6.075s2.517-5.742,5.879-6c1.311-.1,1.848-4.234,4.311-4.234a16.318,16.318,0,0,0,5.157-1.078C81.379,251.34,75.84,249.483,72.179,250.656Z" transform="translate(-49.133 -244.905)" fill="#292e4a"/>
      </g>
    </g>
    <line id="Línea_604" data-name="Línea 604" x1="3.414" y2="11.075" transform="translate(218.498 366.142)" fill="none" stroke="#fff" stroke-miterlimit="10" stroke-width="0.972"/>
    <g id="Grupo_906526" data-name="Grupo 906526" transform="translate(123.525 362.293)">
      <g id="Grupo_906525" data-name="Grupo 906525">
        <g id="Grupo_906523" data-name="Grupo 906523">
          <path id="Trazado_640069" data-name="Trazado 640069" d="M262.255,397.134H122.4L105.12,311.682H244.972Z" transform="translate(-105.12 -311.682)" fill="#292e4a"/>
          <path id="Trazado_640070" data-name="Trazado 640070" d="M252.637,388.178H128.974L114.74,317.8H238.4Z" transform="translate(-102.891 -310.264)" fill="#ffd817"/>
        </g>
        <g id="Grupo_906524" data-name="Grupo 906524">
          <path id="Trazado_640071" data-name="Trazado 640071" d="M126.535,397.134H122.4L105.12,311.682h4.132Z" transform="translate(-105.12 -311.682)" fill="#6470b5"/>
        </g>
        <line id="Línea_605" data-name="Línea 605" y1="70.377" x2="21.693" transform="translate(51.829 7.538)" fill="none" stroke="#fff" stroke-miterlimit="10" stroke-width="0.9"/>
        <line id="Línea_606" data-name="Línea 606" x1="21.693" y2="70.377" transform="translate(72.191 7.538)" fill="none" stroke="#fff" stroke-miterlimit="10" stroke-width="0.9"/>
        <line id="Línea_607" data-name="Línea 607" x1="16.389" y2="53.169" transform="translate(78.567 24.745)" fill="none" stroke="#fff" stroke-miterlimit="10" stroke-width="0.9"/>
        <rect id="Rectángulo_295959" data-name="Rectángulo 295959" width="221.325" height="7.819" transform="translate(17.283 85.452)" fill="#6470b5"/>
        <rect id="Rectángulo_295960" data-name="Rectángulo 295960" width="139.554" height="7.819" transform="translate(99.054 85.452)" fill="#292e4a"/>
        <line id="Línea_608" data-name="Línea 608" x2="221.325" transform="translate(17.283 85.452)" fill="none" stroke="#6470b5" stroke-linecap="round" stroke-linejoin="round" stroke-width="0.9"/>
      </g>
      <path id="Trazado_640072" data-name="Trazado 640072" d="M150.561,388.075h50.8l12-15.06,10.211,7.53,33.694-38.161,8.679,7.658,4.339-29.865-27.823,10.976,5.361,4.339L221.013,360l-19.4-15.316Z" transform="translate(-94.589 -309.713)" fill="#ffa200"/>
      <line id="Línea_609" data-name="Línea 609" x2="251.98" transform="translate(5.816 92.962)" fill="none" stroke="#292e4a" stroke-miterlimit="10" stroke-width="1"/>
    </g>
    <g id="Grupo_906527" data-name="Grupo 906527" transform="translate(328.502 378.447)">
      <path id="Trazado_640073" data-name="Trazado 640073" d="M294.913,330.818a19.09,19.09,0,0,1,4.813,1.86,17.5,17.5,0,0,1,3.692,2.716,13.15,13.15,0,0,1,2.42,3.159,7.4,7.4,0,0,1,.946,3.189,1.254,1.254,0,0,1-.386.916,1.186,1.186,0,0,1-.856.383h-7.736a3.137,3.137,0,0,1-1.328-.237,4.405,4.405,0,0,1-1.035-.709c-.117-.117-.3-.313-.56-.59a5.413,5.413,0,0,0-1.093-.856,7.5,7.5,0,0,0-1.77-.767,9.036,9.036,0,0,0-2.6-.325,15.406,15.406,0,0,0-2.156.148,7.828,7.828,0,0,0-1.83.472,3.328,3.328,0,0,0-1.3.916,2.2,2.2,0,0,0-.5,1.476,2.058,2.058,0,0,0,.56,1.477,5.117,5.117,0,0,0,1.89,1.093,25.424,25.424,0,0,0,3.514.973q2.184.473,5.432,1.123a30.579,30.579,0,0,1,5.669,1.653,13.469,13.469,0,0,1,4.045,2.509,9.507,9.507,0,0,1,2.422,3.543,13.205,13.205,0,0,1,.8,4.813,10.812,10.812,0,0,1-.945,4.548,11.481,11.481,0,0,1-2.657,3.661,14.662,14.662,0,0,1-4.134,2.658,21.959,21.959,0,0,1-5.315,1.535v4.193a1.611,1.611,0,0,1-1.593,1.594h-7.737a1.611,1.611,0,0,1-1.594-1.594v-4.37a20.578,20.578,0,0,1-5.108-1.86,17.79,17.79,0,0,1-3.9-2.746,11.656,11.656,0,0,1-2.509-3.337,8.762,8.762,0,0,1-.946-3.631,1.252,1.252,0,0,1,.383-.915,1.192,1.192,0,0,1,.857-.384H280.5a3.306,3.306,0,0,1,1.3.207,3.777,3.777,0,0,1,.946.621q.235.236.708.767a7.412,7.412,0,0,0,1.269,1.093,7.97,7.97,0,0,0,2.009.974,9.3,9.3,0,0,0,2.982.413,17.175,17.175,0,0,0,5.226-.679,2.535,2.535,0,0,0,2.1-2.451,1.8,1.8,0,0,0-.766-1.476,7.9,7.9,0,0,0-2.3-1.093,34.743,34.743,0,0,0-3.927-.974q-2.391-.473-5.639-1.181-6.082-1.3-8.887-4.34a11.5,11.5,0,0,1-2.8-8.12,10.618,10.618,0,0,1,.766-3.986,11.617,11.617,0,0,1,2.215-3.514,14.018,14.018,0,0,1,3.544-2.774,18.61,18.61,0,0,1,4.753-1.832V326.39a1.609,1.609,0,0,1,1.594-1.594h7.737a1.609,1.609,0,0,1,1.593,1.594Z" transform="translate(-271.529 -324.796)" fill="#ffa200"/>
    </g>
  </g>
</svg>
