<svg xmlns="http://www.w3.org/2000/svg" xmlns:xlink="http://www.w3.org/1999/xlink" width="83.173" height="94.257" viewBox="0 0 83.173 94.257">
  <defs>
    <linearGradient id="linear-gradient" x1="0.491" y1="-0.111" x2="0.504" y2="1.004" gradientUnits="objectBoundingBox">
      <stop offset="0.012" stop-color="#ccf3ff"/>
      <stop offset="0.988" stop-color="gray"/>
    </linearGradient>
    <linearGradient id="linear-gradient-2" x1="0.377" y1="-1.189" x2="0.574" y2="1.742" xlink:href="#linear-gradient"/>
    <linearGradient id="linear-gradient-3" x1="0.444" y1="-3.488" x2="0.517" y2="1.606" xlink:href="#linear-gradient"/>
    <linearGradient id="linear-gradient-4" x1="0.471" y1="-1.421" x2="0.525" y2="2.044" xlink:href="#linear-gradient"/>
    <linearGradient id="linear-gradient-5" x1="0.492" y1="-0.171" x2="0.51" y2="1.585" xlink:href="#linear-gradient"/>
    <linearGradient id="linear-gradient-6" x1="0.963" y1="-0.071" x2="0.43" y2="0.523" gradientUnits="objectBoundingBox">
      <stop offset="0.012" stop-color="#ff7b00"/>
      <stop offset="0.988" stop-color="#fff"/>
    </linearGradient>
    <linearGradient id="linear-gradient-7" x1="-0.516" y1="0.194" x2="0.936" y2="0.631" gradientUnits="objectBoundingBox">
      <stop offset="0.012" stop-color="#fff"/>
      <stop offset="0.988"/>
    </linearGradient>
    <linearGradient id="linear-gradient-8" x1="-0.369" y1="0.233" x2="0.993" y2="0.651" xlink:href="#linear-gradient-7"/>
    <linearGradient id="linear-gradient-9" x1="0.964" y1="-0.063" x2="0.451" y2="0.52" xlink:href="#linear-gradient-6"/>
    <linearGradient id="linear-gradient-10" x1="-14.168" y1="-5.65" x2="0.579" y2="0.533" xlink:href="#linear-gradient-7"/>
    <linearGradient id="linear-gradient-11" x1="-0.369" y1="0.395" x2="1.112" y2="0.574" xlink:href="#linear-gradient-7"/>
    <linearGradient id="linear-gradient-12" x1="-1.072" y1="0.324" x2="1.664" y2="0.63" xlink:href="#linear-gradient-7"/>
    <linearGradient id="linear-gradient-13" x1="0.772" y1="-0.028" x2="0.411" y2="0.628" xlink:href="#linear-gradient-6"/>
    <linearGradient id="linear-gradient-14" x1="-1.72" y1="0.394" x2="1.847" y2="0.564" xlink:href="#linear-gradient-7"/>
    <linearGradient id="linear-gradient-15" x1="-1.163" y1="0.414" x2="1.524" y2="0.553" xlink:href="#linear-gradient-7"/>
  </defs>
  <g id="Grupo_878745" data-name="Grupo 878745" transform="translate(-39.798 -207.953)">
    <path id="Trazado_120739" data-name="Trazado 120739" d="M103.237,256.011a14.231,14.231,0,0,1-9.522,2.911c-.208-.016-.418-.025-.635-.041-2.524-.168-10.712-.53-9.738-4.583-2.381,1.037-9.256,4.035-13.477,3.763-2.678-.186-4.286-1.681-3.024-5.822a38.1,38.1,0,0,1-7.937,2.526,36.286,36.286,0,0,1-6.063.787c-5.493.2-10.679-1.134-12.544-5.79-2.614-6.5,5.573-12.287,12.681-10.1-1.584-1.754-8.331-7.224-6.216-11.066,1.737-3.175,13.1-.894,15.906-.241-3.957-7.857-4.4-18.31,6.538-20.152a18.43,18.43,0,0,1,20.973,14.884c3.98-4.543,19.131-9.874,12.407,9.094,4.544-4.608,10.833-10.228,17.033-5.2,6.955,5.621,1.76,13.592-3.571,17.828,4.116-.32,6.955,1.5,3.465,5.123-3.4,3.538-10,5.09-14.756,4.614A12.423,12.423,0,0,1,103.237,256.011Z" transform="translate(0)" fill="#629ba2"/>
    <path id="Trazado_120740" data-name="Trazado 120740" d="M103.237,256.011a14.231,14.231,0,0,1-9.522,2.911c-.208-.016-.418-.025-.635-.041-2.524-.168-10.712-.53-9.738-4.583-2.381,1.037-9.256,4.035-13.477,3.763-2.678-.186-4.286-1.681-3.024-5.822a38.1,38.1,0,0,1-7.937,2.526,36.286,36.286,0,0,1-6.063.787c-5.493.2-10.679-1.134-12.544-5.79-2.614-6.5,5.573-12.287,12.681-10.1-1.584-1.754-8.331-7.224-6.216-11.066,1.737-3.175,13.1-.894,15.906-.241-3.957-7.857-4.4-18.31,6.538-20.152a18.43,18.43,0,0,1,20.973,14.884c3.98-4.543,19.131-9.874,12.407,9.094,4.544-4.608,10.833-10.228,17.033-5.2,6.955,5.621,1.76,13.592-3.571,17.828,4.116-.32,6.955,1.5,3.465,5.123-3.4,3.538-10,5.09-14.756,4.614A12.423,12.423,0,0,1,103.237,256.011Z" transform="translate(0)" fill="url(#linear-gradient)" style="mix-blend-mode: hard-light;isolation: isolate"/>
    <path id="Trazado_120741" data-name="Trazado 120741" d="M75.831,238.582c3.018.283,6.685,4.426,7.594,7.011,1.518-3.425,4.571-8.41,8.769-7.96.129.014.25.037.374.055-.56-3.088-2.125-5.282-6.036-4.786-4.243.539-5.574,5.638-5.574,5.638-3.067-2.114-7.206-3.741-10.965-2.642-4.066,1.19-5.665,4.588-5.89,8.435h.012C66.724,240.366,69.754,238.013,75.831,238.582Z" transform="translate(3.21 3.286)" fill="url(#linear-gradient-2)" style="mix-blend-mode: hard-light;isolation: isolate"/>
    <path id="Trazado_120742" data-name="Trazado 120742" d="M52.587,238.734c-2.363-1.2-7.34-1.078-11.189.309a6.539,6.539,0,0,0-1.1,6.762,7.914,7.914,0,0,0,2.256,3.135,13.115,13.115,0,0,0,6.1-.583C51.692,247.266,57.586,241.279,52.587,238.734Z" transform="translate(0 3.956)" fill="url(#linear-gradient-3)" style="mix-blend-mode: hard-light;isolation: isolate"/>
    <path id="Trazado_120743" data-name="Trazado 120743" d="M97.77,231.42c-1.472,6.028,4.564,9.429,9.654,7.418a23.048,23.048,0,0,0,7.965-5.735c.563-2.815-.172-5.683-3.177-8.112-5.894-4.776-11.865.063-16.344,4.512A1.592,1.592,0,0,1,97.77,231.42Z" transform="translate(7.405 1.99)" fill="url(#linear-gradient-4)" style="mix-blend-mode: hard-light;isolation: isolate"/>
    <path id="Trazado_120744" data-name="Trazado 120744" d="M51.144,238.589a17.842,17.842,0,0,0,9.09,1.66c6.272-.566,6.188-5.355,5.382-10.458,0,0,14.32,8.175,21.407-5.479,0,0-1,6.3,2.239,8.9,4.068,3.261,10.049,2.793,12.3-1a1.6,1.6,0,0,1,.409-.464c6.32-18.429-8.606-13.16-12.555-8.655A18.43,18.43,0,0,0,68.44,208.2C57.5,210.046,57.945,220.5,61.9,228.356,59.1,227.7,47.733,225.422,46,228.6,44.211,231.843,48.737,236.24,51.144,238.589Z" transform="translate(0.765)" fill="url(#linear-gradient-5)" style="mix-blend-mode: hard-light;isolation: isolate"/>
    <path id="Trazado_120745" data-name="Trazado 120745" d="M87.112,264.509l6.007-.756c-7.543,9.369-18.913,21.18-19.268,21.551,4.117-6.169,7.583-11.75,10.824-16.847a15.915,15.915,0,0,0-6.859,2.4c3.4-5.846,11.161-17.185,11.4-17.538a14.231,14.231,0,0,0,9.522-2.911C94.654,255.928,87.77,263.4,87.112,264.509Z" transform="translate(4.497 5.606)" fill="#f5de3a"/>
    <path id="Trazado_120746" data-name="Trazado 120746" d="M87.112,264.509l6.007-.756c-7.543,9.369-18.913,21.18-19.268,21.551,4.117-6.169,7.583-11.75,10.824-16.847a15.915,15.915,0,0,0-6.859,2.4c3.4-5.846,11.161-17.185,11.4-17.538a14.231,14.231,0,0,0,9.522-2.911C94.654,255.928,87.77,263.4,87.112,264.509Z" transform="translate(4.497 5.606)" fill="url(#linear-gradient-6)" style="mix-blend-mode: multiply;isolation: isolate"/>
    <path id="Trazado_120747" data-name="Trazado 120747" d="M92.752,255.911c1.55-1.855,3.1-3.777,4.383-5.506a14.231,14.231,0,0,1-9.522,2.911c-.065.1-.685,1-1.617,2.381A13.987,13.987,0,0,0,92.752,255.911Z" transform="translate(6.101 5.606)" fill="#f2c624" style="mix-blend-mode: multiply;isolation: isolate"/>
    <g id="Grupo_876453" data-name="Grupo 876453" transform="translate(78.348 258.818)">
      <path id="Trazado_120748" data-name="Trazado 120748" d="M86.954,266.351a17.526,17.526,0,0,0-2.6.5c-3.151,4.964-6.522,10.379-10.506,16.346.186-.195,3.4-3.535,7.5-8.02C83.333,272.084,85.18,269.14,86.954,266.351Z" transform="translate(-73.851 -251.105)" fill="url(#linear-gradient-7)" style="mix-blend-mode: screen;isolation: isolate"/>
      <path id="Trazado_120749" data-name="Trazado 120749" d="M91.3,252.986l.031-.1a17.184,17.184,0,0,1-2.571.1c-.241.353-8,11.692-11.4,17.538a15.835,15.835,0,0,1,3.212-1.566c3.709-6.092,10.249-15.647,10.47-15.972C91.122,252.992,91.208,252.984,91.3,252.986Z" transform="translate(-73.389 -252.884)" fill="url(#linear-gradient-8)" style="mix-blend-mode: screen;isolation: isolate"/>
    </g>
    <path id="Trazado_120750" data-name="Trazado 120750" d="M51.617,296.8c.555-.886,10.6-16.824,17.467-29.313a19.707,19.707,0,0,0-9.506,2.959c1.914-3.874,6.048-14.6,8.726-17.795,4.221.272,11.1-2.726,13.477-3.763-4.5,4.631-10.526,13.589-10.526,13.589s6.634-1.754,9.762-1.141c-4.061,5.081-7.888,10.365-12.094,15.351C64.178,282.312,52.357,295.959,51.617,296.8Z" transform="translate(1.561 5.407)" fill="#f5de3a"/>
    <path id="Trazado_120751" data-name="Trazado 120751" d="M51.617,296.8c.555-.886,10.6-16.824,17.467-29.313a19.707,19.707,0,0,0-9.506,2.959c1.914-3.874,6.048-14.6,8.726-17.795,4.221.272,11.1-2.726,13.477-3.763-4.5,4.631-10.526,13.589-10.526,13.589s6.634-1.754,9.762-1.141c-4.061,5.081-7.888,10.365-12.094,15.351C64.178,282.312,52.357,295.959,51.617,296.8Z" transform="translate(1.561 5.407)" fill="url(#linear-gradient-9)" style="mix-blend-mode: multiply;isolation: isolate"/>
    <path id="Trazado_120752" data-name="Trazado 120752" d="M74.935,255.036a72.722,72.722,0,0,1,5.159-6.144c-2.381,1.037-9.256,4.035-13.477,3.763a21.473,21.473,0,0,0-2.226,3.586C68.391,258.014,73.658,255.606,74.935,255.036Z" transform="translate(3.248 5.407)" fill="#f2c624" style="mix-blend-mode: multiply;isolation: isolate"/>
    <g id="Grupo_876454" data-name="Grupo 876454" transform="translate(53.178 254.299)">
      <path id="Trazado_120753" data-name="Trazado 120753" d="M78.327,249.08l.179-.188c-.511.221-1.236.537-2.09.889C77.079,249.551,77.721,249.314,78.327,249.08Z" transform="translate(-48.342 -248.892)" fill="url(#linear-gradient-10)" style="mix-blend-mode: screen;isolation: isolate"/>
      <path id="Trazado_120754" data-name="Trazado 120754" d="M72.435,264.194a18.733,18.733,0,0,0-7.643,1.953,16.212,16.212,0,0,1,4.292-.677c-6.867,12.489-16.912,28.426-17.467,29.313.432-.494,4.641-5.351,9.014-10.425C64.183,278.535,68.762,270.874,72.435,264.194Z" transform="translate(-51.617 -246.871)" fill="url(#linear-gradient-11)" style="mix-blend-mode: screen;isolation: isolate"/>
      <path id="Trazado_120755" data-name="Trazado 120755" d="M69.919,252.085a12.053,12.053,0,0,1-2.544.148c-2.678,3.192-6.812,13.921-8.726,17.795a21.625,21.625,0,0,1,3.571-1.734C64.016,264.517,67.379,255.994,69.919,252.085Z" transform="translate(-50.688 -248.47)" fill="url(#linear-gradient-12)" style="mix-blend-mode: screen;isolation: isolate"/>
    </g>
    <path id="Trazado_120756" data-name="Trazado 120756" d="M55.542,253.653s2.4-.6,4.094-.812C58.18,255.7,47.75,267.236,45.161,269.858c2.781-4.062,4.978-8.437,7.727-12.506-1.826.83-5.613,2.654-5.855,2.766.089-.183,3-6.246,5.1-10.027A36.286,36.286,0,0,0,58.2,249.3C57.078,251.009,56.121,252.543,55.542,253.653Z" transform="translate(0.708 5.461)" fill="#f5de3a"/>
    <path id="Trazado_120757" data-name="Trazado 120757" d="M55.542,253.653s2.4-.6,4.094-.812C58.18,255.7,47.75,267.236,45.161,269.858c2.781-4.062,4.978-8.437,7.727-12.506-1.826.83-5.613,2.654-5.855,2.766.089-.183,3-6.246,5.1-10.027A36.286,36.286,0,0,0,58.2,249.3C57.078,251.009,56.121,252.543,55.542,253.653Z" transform="translate(0.708 5.461)" fill="url(#linear-gradient-13)" style="mix-blend-mode: multiply;isolation: isolate"/>
    <path id="Trazado_120758" data-name="Trazado 120758" d="M55.99,251.661c.446-.726.954-1.521,1.5-2.357a36.286,36.286,0,0,1-6.063.787c-.3.546-.625,1.146-.951,1.763A9.876,9.876,0,0,0,55.99,251.661Z" transform="translate(1.411 5.461)" fill="#f2c624" style="mix-blend-mode: multiply;isolation: isolate"/>
    <g id="Grupo_876455" data-name="Grupo 876455" transform="translate(45.869 255.364)">
      <path id="Trazado_120759" data-name="Trazado 120759" d="M54.255,249.833c-.782.088-1.565.157-2.341.188-2.1,3.781-5.009,9.843-5.1,10.027.136-.061,1.395-.667,2.8-1.332.991-2.032,2.931-5.957,4.451-8.694.05,0,.1-.009.153-.011C54.227,249.953,54.241,249.893,54.255,249.833Z" transform="translate(-44.943 -249.833)" fill="url(#linear-gradient-14)" style="mix-blend-mode: screen;isolation: isolate"/>
      <path id="Trazado_120760" data-name="Trazado 120760" d="M55.036,256.413c-.807.367-2,.928-3.1,1.45-2.325,3.646-4.323,7.472-6.778,11.056,1.142-1.159,3.815-4.055,6.569-7.175C52.791,259.942,53.863,258.151,55.036,256.413Z" transform="translate(-45.161 -248.964)" fill="url(#linear-gradient-15)" style="mix-blend-mode: screen;isolation: isolate"/>
    </g>
  </g>
</svg>
