<svg xmlns="http://www.w3.org/2000/svg" xmlns:xlink="http://www.w3.org/1999/xlink" width="124.999" height="69.324" viewBox="0 0 124.999 69.324">
  <defs>
    <linearGradient id="linear-gradient" x1="0.484" y1="-0.331" x2="0.512" y2="1.057" gradientUnits="objectBoundingBox">
      <stop offset="0.012" stop-color="#ccf3ff"/>
      <stop offset="0.988" stop-color="gray"/>
    </linearGradient>
    <linearGradient id="linear-gradient-2" x1="0.5" y1="1.132" x2="0.5" y2="0.564" gradientUnits="objectBoundingBox">
      <stop offset="0.012" stop-color="#2c5659"/>
      <stop offset="0.988" stop-color="gray"/>
    </linearGradient>
    <linearGradient id="linear-gradient-3" x1="12.279" y1="0.667" x2="12.375" y2="4.576" xlink:href="#linear-gradient"/>
    <linearGradient id="linear-gradient-4" x1="0.474" y1="-0.977" x2="0.518" y2="1.674" xlink:href="#linear-gradient"/>
    <linearGradient id="linear-gradient-5" x1="0.5" y1="1.233" x2="0.5" y2="0.674" xlink:href="#linear-gradient-2"/>
    <linearGradient id="linear-gradient-6" x1="0.504" y1="-0.226" x2="0.498" y2="0.886" xlink:href="#linear-gradient"/>
    <linearGradient id="linear-gradient-7" x1="0.437" y1="-1.501" x2="0.533" y2="1.677" xlink:href="#linear-gradient"/>
    <linearGradient id="linear-gradient-8" x1="0.516" y1="-1.978" x2="0.489" y2="2.534" xlink:href="#linear-gradient"/>
    <linearGradient id="linear-gradient-9" x1="0.508" y1="-0.5" x2="0.493" y2="1.985" xlink:href="#linear-gradient"/>
    <linearGradient id="linear-gradient-10" x1="0.511" y1="-1.472" x2="0.494" y2="1.307" xlink:href="#linear-gradient"/>
  </defs>
  <g id="Grupo_876494" data-name="Grupo 876494" transform="translate(-130.292 -17.202)">
    <g id="Grupo_876469" data-name="Grupo 876469" transform="translate(217.771 50.685)">
      <g id="Grupo_876468" data-name="Grupo 876468" transform="translate(7.909 21.029)">
        <g id="Grupo_876467" data-name="Grupo 876467">
          <g id="Grupo_876466" data-name="Grupo 876466">
            <g id="Grupo_876458" data-name="Grupo 876458" transform="translate(5.136 12.683)">
              <path id="Trazado_120761" data-name="Trazado 120761" d="M154.089,86.28c.045.028.09.068.151.109v-.006a2.439,2.439,0,0,1,.521-.923c.046-.015-.2-.631-1.045-1.055-.2.011-.7,1.14-.582,1.272A8.93,8.93,0,0,0,154.089,86.28Z" transform="translate(-153.118 -84.397)" fill="#74bbc2"/>
              <path id="Trazado_120762" data-name="Trazado 120762" d="M152.229,86.383v.006a.813.813,0,0,0,.588.129,2.973,2.973,0,0,0,.827-.26,1.562,1.562,0,0,0-.894-.8A2.439,2.439,0,0,0,152.229,86.383Z" transform="translate(-151.106 -84.397)" fill="#cce9f0"/>
              <path id="Trazado_120763" data-name="Trazado 120763" d="M153.984,84.722c-.248-.385-1.649-.324-1.763-.317.848.424,1.091,1.04,1.045,1.055a1.562,1.562,0,0,1,.894.8A3.893,3.893,0,0,0,153.984,84.722Z" transform="translate(-151.622 -84.397)" fill="#91c6c9"/>
            </g>
            <g id="Grupo_876459" data-name="Grupo 876459" transform="translate(17.812 2.666)">
              <path id="Trazado_120764" data-name="Trazado 120764" d="M139.484,77.209a2.8,2.8,0,0,1-.6.5,6.8,6.8,0,0,0,1.775.181c.074-.039,1.142-1.215,1.142-1.538C141.022,76.429,139.666,77.31,139.484,77.209Z" transform="translate(-138.597 -74.38)" fill="#addade"/>
              <path id="Trazado_120765" data-name="Trazado 120765" d="M138.891,75.721c-.033.866.068,1.381.243,1.488s1.538-.78,2.318-.86a4.252,4.252,0,0,0-1.142-1.954C140.152,74.259,139.433,75.061,138.891,75.721Z" transform="translate(-138.247 -74.38)" fill="#aedbe6"/>
              <path id="Trazado_120766" data-name="Trazado 120766" d="M141.2,76.53s.033,1.036.288,1.176a2.8,2.8,0,0,0,.6-.5c-.175-.107-.276-.622-.243-1.488C141.491,76.158,141.2,76.53,141.2,76.53Z" transform="translate(-141.203 -74.38)" fill="#91c6c9"/>
            </g>
            <g id="Grupo_876460" data-name="Grupo 876460" transform="translate(2.479 7.681)">
              <path id="Trazado_120767" data-name="Trazado 120767" d="M155.269,81.738a2.436,2.436,0,0,1-.5.411,5.423,5.423,0,0,0,1.475.146c.061-.025.944-1,.944-1.269C156.536,81.087,155.416,81.828,155.269,81.738Z" transform="translate(-154.53 -79.394)" fill="#addade"/>
              <path id="Trazado_120768" data-name="Trazado 120768" d="M154.772,80.5c-.028.713.057,1.141.2,1.233s1.267-.651,1.917-.712a3.451,3.451,0,0,0-.944-1.618C155.818,79.291,155.219,79.957,154.772,80.5Z" transform="translate(-154.236 -79.394)" fill="#aedbe6"/>
              <path id="Trazado_120769" data-name="Trazado 120769" d="M156.684,81.172s.033.859.237.977a2.436,2.436,0,0,0,.5-.411c-.146-.092-.231-.52-.2-1.233C156.921,80.866,156.684,81.172,156.684,81.172Z" transform="translate(-156.684 -79.394)" fill="#91c6c9"/>
            </g>
            <g id="Grupo_876461" data-name="Grupo 876461" transform="translate(15.618 9.97)">
              <path id="Trazado_120770" data-name="Trazado 120770" d="M143.848,81.69a6.167,6.167,0,0,0-1.549.442l.418.242A3.245,3.245,0,0,1,143.848,81.69Z" transform="translate(-141.863 -81.684)" fill="#79aaaa"/>
              <path id="Trazado_120771" data-name="Trazado 120771" d="M144.284,82.374l-.418-.242a5.682,5.682,0,0,0-.418,1.7,4.331,4.331,0,0,0,.757-.249A10.7,10.7,0,0,1,144.284,82.374Z" transform="translate(-143.43 -81.684)" fill="#addade"/>
              <path id="Trazado_120772" data-name="Trazado 120772" d="M144.264,84.162c.012-.26-.022-.605-.61-.577a4.331,4.331,0,0,1-.757.249C143.034,84.081,144.264,84.162,144.264,84.162Z" transform="translate(-142.879 -81.684)" fill="#cce9f0"/>
              <path id="Trazado_120773" data-name="Trazado 120773" d="M141.97,82.374a10.7,10.7,0,0,0-.079,1.211c.588-.028.622.317.61.577.2.022.99-.911,1.007-1.075s-.136-1.334-.407-1.4A3.245,3.245,0,0,0,141.97,82.374Z" transform="translate(-141.116 -81.684)" fill="#91c6c9"/>
            </g>
            <g id="Grupo_876462" data-name="Grupo 876462" transform="translate(8.344 0.047)">
              <path id="Trazado_120774" data-name="Trazado 120774" d="M151.4,73.361a3.069,3.069,0,0,1,.152-1.6c-.287-.024-1.148,1.255-1.192,1.729C150.365,73.49,151.348,73.387,151.4,73.361Z" transform="translate(-150.363 -71.761)" fill="#79aaaa"/>
              <path id="Trazado_120775" data-name="Trazado 120775" d="M150.171,73.49a4.46,4.46,0,0,0,1.142,2.244.23.23,0,0,0,.157,0,3.329,3.329,0,0,0-.107-1.7,3.894,3.894,0,0,1-.152-.671C151.154,73.387,150.171,73.49,150.171,73.49Z" transform="translate(-150.17 -71.761)" fill="#91c6c9"/>
              <path id="Trazado_120776" data-name="Trazado 120776" d="M149.98,72.823a2.323,2.323,0,0,1-2.244,1.209,3.329,3.329,0,0,1,.107,1.7c.623-.12,2.555-1.282,2.522-1.7A7.508,7.508,0,0,0,149.98,72.823Z" transform="translate(-146.542 -71.761)" fill="#addade"/>
              <path id="Trazado_120777" data-name="Trazado 120777" d="M148.161,73.361a3.894,3.894,0,0,0,.152.671,2.323,2.323,0,0,0,2.244-1.209,5.5,5.5,0,0,0-2.244-1.062A3.069,3.069,0,0,0,148.161,73.361Z" transform="translate(-147.12 -71.761)" fill="#cce9f0"/>
            </g>
            <g id="Grupo_876463" data-name="Grupo 876463" transform="translate(0 3.384)">
              <path id="Trazado_120778" data-name="Trazado 120778" d="M158.9,77.887c.062.04.13.1.221.157v0a3.384,3.384,0,0,1,.769-1.368c.068-.017-.295-.933-1.55-1.565-.3.022-1.028,1.685-.859,1.889A14.8,14.8,0,0,0,158.9,77.887Z" transform="translate(-157.46 -75.098)" fill="#74bbc2"/>
              <path id="Trazado_120779" data-name="Trazado 120779" d="M156.146,78.04v0a1.155,1.155,0,0,0,.869.193,4.213,4.213,0,0,0,1.222-.385,2.286,2.286,0,0,0-1.322-1.18A3.384,3.384,0,0,0,156.146,78.04Z" transform="translate(-154.481 -75.098)" fill="#cce9f0"/>
              <path id="Trazado_120780" data-name="Trazado 120780" d="M158.745,75.57c-.367-.559-2.441-.469-2.612-.463,1.255.632,1.618,1.548,1.55,1.565a2.286,2.286,0,0,1,1.322,1.18A5.794,5.794,0,0,0,158.745,75.57Z" transform="translate(-155.249 -75.098)" fill="#91c6c9"/>
            </g>
            <g id="Grupo_876464" data-name="Grupo 876464" transform="translate(8.118 6.76)">
              <path id="Trazado_120781" data-name="Trazado 120781" d="M150.776,79.255a6.584,6.584,0,0,0,.854,1.5l.154-.5A3.322,3.322,0,0,1,150.776,79.255Z" transform="translate(-150.776 -78.474)" fill="#79aaaa"/>
              <path id="Trazado_120782" data-name="Trazado 120782" d="M149.2,80.261l-.154.5s1.657.2,1.883,0a5.447,5.447,0,0,0-.452-.723A10.9,10.9,0,0,1,149.2,80.261Z" transform="translate(-148.193 -78.474)" fill="#addade"/>
              <path id="Trazado_120783" data-name="Trazado 120783" d="M149.446,79.255c-.278.051-.627.182-.452.781a5.447,5.447,0,0,1,.452.723C149.671,80.56,149.446,79.255,149.446,79.255Z" transform="translate(-146.709 -78.474)" fill="#cce9f0"/>
              <path id="Trazado_120784" data-name="Trazado 120784" d="M150.055,80.261a10.9,10.9,0,0,0,1.277-.225c-.175-.6.174-.73.452-.781-.034-.214-1.2-.8-1.379-.78s-1.358.481-1.358.78A3.322,3.322,0,0,0,150.055,80.261Z" transform="translate(-149.047 -78.474)" fill="#91c6c9"/>
            </g>
            <g id="Grupo_876465" data-name="Grupo 876465" transform="translate(23.003)">
              <path id="Trazado_120785" data-name="Trazado 120785" d="M135.894,72.489a6.59,6.59,0,0,0,.859,1.51l.146-.5A3.487,3.487,0,0,1,135.894,72.489Z" transform="translate(-135.894 -71.714)" fill="#79aaaa"/>
              <path id="Trazado_120786" data-name="Trazado 120786" d="M134.3,73.5l-.146.5a5.976,5.976,0,0,0,1.881,0,5.339,5.339,0,0,0-.452-.73A10.715,10.715,0,0,1,134.3,73.5Z" transform="translate(-133.3 -71.714)" fill="#addade"/>
              <path id="Trazado_120787" data-name="Trazado 120787" d="M134.557,72.489c-.276.056-.627.181-.452.78a5.339,5.339,0,0,1,.452.73C134.784,73.8,134.557,72.489,134.557,72.489Z" transform="translate(-131.817 -71.714)" fill="#cce9f0"/>
              <path id="Trazado_120788" data-name="Trazado 120788" d="M135.164,73.5a10.715,10.715,0,0,0,1.283-.228c-.175-.6.176-.724.452-.78-.034-.215-1.2-.8-1.384-.774s-1.356.481-1.356.774A3.487,3.487,0,0,0,135.164,73.5Z" transform="translate(-134.159 -71.714)" fill="#91c6c9"/>
            </g>
          </g>
        </g>
      </g>
      <path id="Trazado_120789" data-name="Trazado 120789" d="M161.334,64.131c2.609-.214,8.563-2.159,5.731-5.573s-10.851-.949-13.758,1.112c.954-3.934-.809-9.594-5.9-8.932-4.706.614-5.289,6.465-5.029,10.191-3.153-3.4-9.523-5.733-11.732-1.261-2.063,4.172,5.4,6.292,8.211,7.278-5.036.993-8.067,6.822,7.849,2.5,2.989,2.713,11.251,4.627,12.116-1.155C166.58,72.869,165.647,65.725,161.334,64.131Z" transform="translate(-130.292 -50.685)" fill="#629ba2"/>
      <path id="Trazado_120790" data-name="Trazado 120790" d="M161.334,64.131c2.609-.214,8.563-2.159,5.731-5.573s-10.851-.949-13.758,1.112c.954-3.934-.809-9.594-5.9-8.932-4.706.614-5.289,6.465-5.029,10.191-3.153-3.4-9.523-5.733-11.732-1.261-2.063,4.172,5.4,6.292,8.211,7.278-5.036.993-8.067,6.822,7.849,2.5,2.989,2.713,11.251,4.627,12.116-1.155C166.58,72.869,165.647,65.725,161.334,64.131Z" transform="translate(-130.292 -50.685)" fill="url(#linear-gradient)" style="mix-blend-mode: hard-light;isolation: isolate"/>
      <path id="Trazado_120791" data-name="Trazado 120791" d="M161.334,64.131c2.609-.214,8.563-2.159,5.731-5.573s-10.851-.949-13.758,1.112c.954-3.934-.809-9.594-5.9-8.932-4.706.614-5.289,6.465-5.029,10.191-3.153-3.4-9.523-5.733-11.732-1.261-2.063,4.172,5.4,6.292,8.211,7.278-5.036.993-8.067,6.822,7.849,2.5,2.989,2.713,11.251,4.627,12.116-1.155C166.58,72.869,165.647,65.725,161.334,64.131Z" transform="translate(-130.292 -50.685)" fill="url(#linear-gradient-2)" style="mix-blend-mode: hard-light;isolation: isolate"/>
      <path id="Trazado_120792" data-name="Trazado 120792" d="M159.643,60.982a2.441,2.441,0,0,0-1.091,3.49l-.238-.028a4,4,0,0,1-1.6-3.1c0-3.338,3.381-3.1,6.2-2.024.047.026.1.046.146.074a.113.113,0,0,1-.008-.022,13.386,13.386,0,0,1,2.161,1.082c.006.144.019.293.039.446A7,7,0,0,0,159.643,60.982Z" transform="translate(-154.151 -50.685)" fill="url(#linear-gradient-3)" style="mix-blend-mode: hard-light;isolation: isolate"/>
      <path id="Trazado_120793" data-name="Trazado 120793" d="M131.493,60.448c-.012-.268-.027-.533-.029-.815l.232.092a.089.089,0,0,0,.1-.041c.723-1.231,1.11-2.556,2.21-3.528a6.339,6.339,0,0,1,3.626-1.792c2.913-.173,4.334,2.148,4.939,4.631-.037.23-.079.455-.131.675.074-.052.164-.1.245-.157.027.138.054.276.077.415a.088.088,0,0,0,.13.052c4.042-2.948,10.115-1.636,12.88,2.278a8.749,8.749,0,0,1-2.454,1.244,15.041,15.041,0,0,0-9.709,2.045c-.6-5.138-8.084-8.012-9.752-2.771A13.4,13.4,0,0,0,131.493,60.448Z" transform="translate(-119.424 -50.685)" fill="url(#linear-gradient-4)" style="mix-blend-mode: hard-light;isolation: isolate"/>
    </g>
    <g id="Grupo_876484" data-name="Grupo 876484" transform="translate(130.292 17.202)">
      <g id="Grupo_876483" data-name="Grupo 876483" transform="translate(15.624 39.234)">
        <g id="Grupo_876482" data-name="Grupo 876482">
          <g id="Grupo_876470" data-name="Grupo 876470" transform="translate(52.056 12.232)">
            <path id="Trazado_120794" data-name="Trazado 120794" d="M176.118,71.519c.077.006.153.015.252.028l-.005-.007a3.254,3.254,0,0,1-.035-1.447,2.426,2.426,0,0,0-1.974-.515,2.792,2.792,0,0,0,.213,1.91A11.627,11.627,0,0,0,176.118,71.519Z" transform="translate(-174.262 -68.667)" fill="#74bbc2"/>
            <path id="Trazado_120795" data-name="Trazado 120795" d="M172.794,71.54l.005.007a1.125,1.125,0,0,0,.779-.265,3.516,3.516,0,0,0,.787-.884,2.1,2.1,0,0,0-1.606-.305A3.254,3.254,0,0,0,172.794,71.54Z" transform="translate(-170.69 -68.667)" fill="#cce9f0"/>
            <path id="Trazado_120796" data-name="Trazado 120796" d="M174.992,68.712c-.553-.273-2.162.787-2.3.866a2.426,2.426,0,0,1,1.974.515,2.1,2.1,0,0,1,1.606.305S175.542,68.987,174.992,68.712Z" transform="translate(-172.602 -68.667)" fill="#91c6c9"/>
          </g>
          <g id="Grupo_876471" data-name="Grupo 876471" transform="translate(33.919 19.696)">
            <path id="Trazado_120797" data-name="Trazado 120797" d="M194.259,78.989c.073,0,.154.017.248.024h0a3.178,3.178,0,0,1-.032-1.46,2.444,2.444,0,0,0-1.972-.507,2.724,2.724,0,0,0,.21,1.9A11.767,11.767,0,0,0,194.259,78.989Z" transform="translate(-192.405 -76.131)" fill="#74bbc2"/>
            <path id="Trazado_120798" data-name="Trazado 120798" d="M190.927,79.013h0a1.142,1.142,0,0,0,.789-.265,3.763,3.763,0,0,0,.787-.885,2.1,2.1,0,0,0-1.608-.31A3.178,3.178,0,0,0,190.927,79.013Z" transform="translate(-188.825 -76.131)" fill="#cce9f0"/>
            <path id="Trazado_120799" data-name="Trazado 120799" d="M193.121,76.174c-.554-.265-2.163.786-2.292.872a2.444,2.444,0,0,1,1.972.507,2.1,2.1,0,0,1,1.608.31S193.676,76.454,193.121,76.174Z" transform="translate(-190.731 -76.131)" fill="#91c6c9"/>
          </g>
          <g id="Grupo_876472" data-name="Grupo 876472" transform="translate(29.113 0.012)">
            <path id="Trazado_120800" data-name="Trazado 120800" d="M195.967,60.582a3.785,3.785,0,0,1-.363,1.009,9.366,9.366,0,0,0,2.221-1.038,7.545,7.545,0,0,0,.262-2.607C197.215,58.584,196.251,60.575,195.967,60.582Z" transform="translate(-194.442 -56.447)" fill="#addade"/>
            <path id="Trazado_120801" data-name="Trazado 120801" d="M195.668,59c.568,1.038,1.047,1.571,1.34,1.578s1.248-2,2.12-2.636a5.776,5.776,0,0,0-2.713-1.5C196.13,56.394,195.853,57.848,195.668,59Z" transform="translate(-195.483 -56.447)" fill="#aedbe6"/>
            <path id="Trazado_120802" data-name="Trazado 120802" d="M197.788,60.411s.76,1.185,1.162,1.18a3.785,3.785,0,0,0,.363-1.009c-.293-.007-.772-.54-1.34-1.578C197.864,59.771,197.788,60.411,197.788,60.411Z" transform="translate(-197.788 -56.447)" fill="#91c6c9"/>
          </g>
          <g id="Grupo_876473" data-name="Grupo 876473" transform="translate(13.403 14.34)">
            <path id="Trazado_120803" data-name="Trazado 120803" d="M212.251,74.2a2.989,2.989,0,0,1-.3.826,7.241,7.241,0,0,0,1.832-.859,5.852,5.852,0,0,0,.227-2.153C213.288,72.542,212.49,74.19,212.251,74.2Z" transform="translate(-210.993 -70.775)" fill="#addade"/>
            <path id="Trazado_120804" data-name="Trazado 120804" d="M212,72.893c.474.853.868,1.3,1.1,1.305s1.037-1.656,1.759-2.186a4.681,4.681,0,0,0-2.251-1.235C212.387,70.727,212.148,71.923,212,72.893Z" transform="translate(-211.85 -70.775)" fill="#aedbe6"/>
            <path id="Trazado_120805" data-name="Trazado 120805" d="M213.764,74.049s.642.986.959.975a2.989,2.989,0,0,0,.3-.826c-.236,0-.63-.452-1.1-1.305C213.827,73.525,213.764,74.049,213.764,74.049Z" transform="translate(-213.764 -70.775)" fill="#91c6c9"/>
          </g>
          <g id="Grupo_876474" data-name="Grupo 876474" transform="translate(30.98 10.17)">
            <path id="Trazado_120806" data-name="Trazado 120806" d="M197.446,66.612c-.367.111-1.511,1.6-1.511,1.6h.666A4.466,4.466,0,0,1,197.446,66.612Z" transform="translate(-195.935 -66.605)" fill="#79aaaa"/>
            <path id="Trazado_120807" data-name="Trazado 120807" d="M196.69,68.216h-.666s.379,2.1.707,2.3a6.925,6.925,0,0,0,.715-.825A12.756,12.756,0,0,1,196.69,68.216Z" transform="translate(-196.024 -66.605)" fill="#addade"/>
            <path id="Trazado_120808" data-name="Trazado 120808" d="M196.739,69.942c-.169-.314-.451-.694-1.122-.249a6.925,6.925,0,0,1-.715.825C195.237,70.714,196.739,69.942,196.739,69.942Z" transform="translate(-194.195 -66.605)" fill="#cce9f0"/>
            <path id="Trazado_120809" data-name="Trazado 120809" d="M194.463,68.216a12.756,12.756,0,0,0,.756,1.477c.671-.445.953-.065,1.122.249a3.916,3.916,0,0,0,.423-1.965c-.1-.211-1.089-1.475-1.456-1.365A4.466,4.466,0,0,0,194.463,68.216Z" transform="translate(-193.797 -66.605)" fill="#91c6c9"/>
          </g>
          <g id="Grupo_876475" data-name="Grupo 876475" transform="translate(22.456)">
            <path id="Trazado_120810" data-name="Trazado 120810" d="M205.97,58.851a4.2,4.2,0,0,1-.943-1.987c-.351.181-.468,2.28-.184,2.876C204.843,59.74,205.927,58.929,205.97,58.851Z" transform="translate(-204.684 -56.436)" fill="#79aaaa"/>
            <path id="Trazado_120811" data-name="Trazado 120811" d="M202.712,59.74a6.067,6.067,0,0,0,2.913,1.83.351.351,0,0,0,.186-.112c-.073-.787-1.317-1.916-1.317-1.916a5.413,5.413,0,0,1-.655-.691C203.8,58.929,202.712,59.74,202.712,59.74Z" transform="translate(-202.553 -56.436)" fill="#91c6c9"/>
            <path id="Trazado_120812" data-name="Trazado 120812" d="M202.68,56.545a3.206,3.206,0,0,1-1.789,3s1.244,1.129,1.317,1.916c.647-.575,2.1-3.3,1.773-3.761A10.136,10.136,0,0,0,202.68,56.545Z" transform="translate(-198.95 -56.436)" fill="#addade"/>
            <path id="Trazado_120813" data-name="Trazado 120813" d="M203.177,58.851a5.413,5.413,0,0,0,.655.691,3.206,3.206,0,0,0,1.789-3c-.5-.317-3.036.138-3.387.319A4.2,4.2,0,0,0,203.177,58.851Z" transform="translate(-201.891 -56.436)" fill="#cce9f0"/>
          </g>
          <g id="Grupo_876476" data-name="Grupo 876476" transform="translate(46.607 0.436)">
            <path id="Trazado_120814" data-name="Trazado 120814" d="M181.442,61.1a3.028,3.028,0,0,1,.378.028l0-.008a4.607,4.607,0,0,1-.057-2.147c.068-.067-1.006-.885-2.917-.751-.344.24-.028,2.7.313,2.821A19.423,19.423,0,0,0,181.442,61.1Z" transform="translate(-178.693 -56.872)" fill="#74bbc2"/>
            <path id="Trazado_120815" data-name="Trazado 120815" d="M176.523,61.122l0,.008a1.621,1.621,0,0,0,1.158-.386,5.932,5.932,0,0,0,1.165-1.308,3.129,3.129,0,0,0-2.384-.461A4.607,4.607,0,0,0,176.523,61.122Z" transform="translate(-173.4 -56.872)" fill="#cce9f0"/>
            <path id="Trazado_120816" data-name="Trazado 120816" d="M179.755,56.939c-.827-.407-3.2,1.156-3.385,1.285,1.911-.134,2.985.684,2.917.751a3.129,3.129,0,0,1,2.384.461S180.585,57.345,179.755,56.939Z" transform="translate(-176.221 -56.872)" fill="#91c6c9"/>
          </g>
          <g id="Grupo_876477" data-name="Grupo 876477" transform="translate(7.489 4.145)">
            <path id="Trazado_120817" data-name="Trazado 120817" d="M218.368,63.755a3.185,3.185,0,0,1-.275.776,7.06,7.06,0,0,0,1.7-.8,5.664,5.664,0,0,0,.2-1.993C219.325,62.219,218.587,63.76,218.368,63.755Z" transform="translate(-217.2 -60.581)" fill="#addade"/>
            <path id="Trazado_120818" data-name="Trazado 120818" d="M218.142,62.549c.437.791.807,1.2,1.026,1.206s.957-1.536,1.627-2.017a4.4,4.4,0,0,0-2.079-1.156C218.5,60.542,218.276,61.655,218.142,62.549Z" transform="translate(-218 -60.581)" fill="#aedbe6"/>
            <path id="Trazado_120819" data-name="Trazado 120819" d="M219.769,63.622s.592.918.893.909a3.185,3.185,0,0,0,.275-.776c-.219-.007-.589-.415-1.026-1.206C219.825,63.13,219.769,63.622,219.769,63.622Z" transform="translate(-219.769 -60.581)" fill="#91c6c9"/>
          </g>
          <g id="Grupo_876478" data-name="Grupo 876478" transform="translate(19.61 11.934)">
            <path id="Trazado_120820" data-name="Trazado 120820" d="M206.736,70.413a9.231,9.231,0,0,0,2.052,1.171l-.162-.695A4.736,4.736,0,0,1,206.736,70.413Z" transform="translate(-206.708 -68.369)" fill="#79aaaa"/>
            <path id="Trazado_120821" data-name="Trazado 120821" d="M204.518,70.889l.162.695s2.1-.927,2.218-1.324a6.919,6.919,0,0,0-1.038-.534A14.631,14.631,0,0,1,204.518,70.889Z" transform="translate(-202.6 -68.369)" fill="#addade"/>
            <path id="Trazado_120822" data-name="Trazado 120822" d="M204.855,68.491c-.293.25-.614.647.017,1.235a6.919,6.919,0,0,1,1.038.534C206.037,69.868,204.855,68.491,204.855,68.491Z" transform="translate(-201.612 -68.369)" fill="#cce9f0"/>
            <path id="Trazado_120823" data-name="Trazado 120823" d="M207.474,70.889a14.631,14.631,0,0,0,1.342-1.163c-.631-.588-.31-.985-.017-1.235a4.272,4.272,0,0,0-2.168.053c-.193.16-1.26,1.51-1.047,1.869A4.736,4.736,0,0,0,207.474,70.889Z" transform="translate(-205.556 -68.369)" fill="#91c6c9"/>
          </g>
          <g id="Grupo_876479" data-name="Grupo 876479" transform="translate(40.55 8.909)">
            <path id="Trazado_120824" data-name="Trazado 120824" d="M185.8,67.388a9.145,9.145,0,0,0,2.051,1.171l-.169-.69A4.917,4.917,0,0,1,185.8,67.388Z" transform="translate(-185.769 -65.344)" fill="#79aaaa"/>
            <path id="Trazado_120825" data-name="Trazado 120825" d="M183.577,67.869l.169.69s2.1-.927,2.22-1.324a7.3,7.3,0,0,0-1.045-.54A14.859,14.859,0,0,1,183.577,67.869Z" transform="translate(-181.667 -65.344)" fill="#addade"/>
            <path id="Trazado_120826" data-name="Trazado 120826" d="M183.923,65.466c-.3.252-.625.645.011,1.229a7.3,7.3,0,0,1,1.045.54C185.1,66.837,183.923,65.466,183.923,65.466Z" transform="translate(-180.68 -65.344)" fill="#cce9f0"/>
            <path id="Trazado_120827" data-name="Trazado 120827" d="M186.532,67.869a14.859,14.859,0,0,0,1.344-1.174c-.636-.584-.312-.977-.011-1.229a4.272,4.272,0,0,0-2.168.053c-.2.153-1.261,1.51-1.047,1.869A4.917,4.917,0,0,0,186.532,67.869Z" transform="translate(-184.622 -65.344)" fill="#91c6c9"/>
          </g>
          <g id="Grupo_876480" data-name="Grupo 876480" transform="translate(0 3.851)">
            <path id="Trazado_120828" data-name="Trazado 120828" d="M226.346,62.33A9.18,9.18,0,0,0,228.4,63.5l-.171-.691A4.917,4.917,0,0,1,226.346,62.33Z" transform="translate(-226.318 -60.287)" fill="#79aaaa"/>
            <path id="Trazado_120829" data-name="Trazado 120829" d="M224.127,62.811l.171.691s2.095-.927,2.219-1.325a7.713,7.713,0,0,0-1.044-.54A14.2,14.2,0,0,1,224.127,62.811Z" transform="translate(-222.218 -60.287)" fill="#addade"/>
            <path id="Trazado_120830" data-name="Trazado 120830" d="M224.472,60.409c-.3.254-.625.645.012,1.228a7.713,7.713,0,0,1,1.044.54C225.65,61.779,224.472,60.409,224.472,60.409Z" transform="translate(-221.229 -60.287)" fill="#cce9f0"/>
            <path id="Trazado_120831" data-name="Trazado 120831" d="M227.08,62.811a14.2,14.2,0,0,0,1.346-1.174c-.637-.583-.311-.974-.012-1.228a4.272,4.272,0,0,0-2.168.052c-.2.156-1.261,1.511-1.047,1.869A4.917,4.917,0,0,0,227.08,62.811Z" transform="translate(-225.171 -60.287)" fill="#91c6c9"/>
          </g>
          <g id="Grupo_876481" data-name="Grupo 876481" transform="translate(29.637 23.656)">
            <path id="Trazado_120832" data-name="Trazado 120832" d="M198.789,81.377a2.193,2.193,0,0,1-.505-1.057,2.369,2.369,0,0,0-.1,1.528S198.762,81.421,198.789,81.377Z" transform="translate(-198.107 -80.092)" fill="#79aaaa"/>
            <path id="Trazado_120833" data-name="Trazado 120833" d="M197.062,81.848a3.211,3.211,0,0,0,1.554.972.318.318,0,0,0,.094-.054c-.04-.429-.7-1.026-.7-1.026a3.757,3.757,0,0,1-.343-.363C197.638,81.421,197.062,81.848,197.062,81.848Z" transform="translate(-196.983 -80.092)" fill="#91c6c9"/>
            <path id="Trazado_120834" data-name="Trazado 120834" d="M197.045,80.151a1.677,1.677,0,0,1-.942,1.589s.662.6.7,1.026c.343-.315,1.113-1.758.932-2A5.3,5.3,0,0,0,197.045,80.151Z" transform="translate(-195.077 -80.092)" fill="#addade"/>
            <path id="Trazado_120835" data-name="Trazado 120835" d="M197.323,81.377a3.757,3.757,0,0,0,.343.363,1.677,1.677,0,0,0,.942-1.589,4.021,4.021,0,0,0-1.79.169A2.193,2.193,0,0,0,197.323,81.377Z" transform="translate(-196.64 -80.092)" fill="#cce9f0"/>
          </g>
        </g>
      </g>
      <path id="Trazado_120836" data-name="Trazado 120836" d="M211.343,30.512c10.014-20.14,14.737-2.222,13.194,4.133,5.158-6.353,14.567-8.823,17.955-3.578,5.991,9.276-6.746,14.8-13.723,16.591,2.074-.459,6.676,1.867,4.963,5.825-1.846,4.27-13.708,1.479-15.924-.315-8.461,8.992-16.218,2.107-19.394,0-33.729,10.271-40.15-2.7-35.231-3.634-18.465-11.179-1.807-14.3,8.8-8.8-4.451-1.986,1.415-16.4,18.453-4.579C188.577,25.453,195.885,2.688,211.343,30.512Z" transform="translate(-154.896 -17.202)" fill="#629ba2"/>
      <path id="Trazado_120837" data-name="Trazado 120837" d="M211.343,30.512c10.014-20.14,14.737-2.222,13.194,4.133,5.158-6.353,14.567-8.823,17.955-3.578,5.991,9.276-6.746,14.8-13.723,16.591,2.074-.459,6.676,1.867,4.963,5.825-1.846,4.27-13.708,1.479-15.924-.315-8.461,8.992-16.218,2.107-19.394,0-33.729,10.271-40.15-2.7-35.231-3.634-18.465-11.179-1.807-14.3,8.8-8.8-4.451-1.986,1.415-16.4,18.453-4.579C188.577,25.453,195.885,2.688,211.343,30.512Z" transform="translate(-154.896 -17.202)" fill="url(#linear-gradient-5)" style="mix-blend-mode: hard-light;isolation: isolate"/>
      <path id="Trazado_120838" data-name="Trazado 120838" d="M211.343,30.512c10.014-20.14,14.737-2.222,13.194,4.133,5.158-6.353,14.567-8.823,17.955-3.578,5.991,9.276-6.746,14.8-13.723,16.591,2.074-.459,6.676,1.867,4.963,5.825-1.846,4.27-13.708,1.479-15.924-.315-8.461,8.992-16.218,2.107-19.394,0-33.729,10.271-40.15-2.7-35.231-3.634-18.465-11.179-1.807-14.3,8.8-8.8-4.451-1.986,1.415-16.4,18.453-4.579C188.577,25.453,195.885,2.688,211.343,30.512Z" transform="translate(-154.896 -17.202)" fill="url(#linear-gradient-6)" style="mix-blend-mode: hard-light;isolation: isolate"/>
      <path id="Trazado_120839" data-name="Trazado 120839" d="M174.64,42.487c1.967-4.952,12.141-.679,12.106,3.711,0,.071.113.09.122.018.252-1.795,1-3.79,2.885-4.417a6.258,6.258,0,0,1,4.656.461c2.36,1.152,4.513,3.35,4.821,5.96-1.708-1.9-4.015-3.425-6.581-3.344-3.248.1-5.055,2.542-5.852,5.4-1.28-3.726-5.858-5.387-9.585-4.644a7.407,7.407,0,0,0-2.179.785A5.424,5.424,0,0,1,174.64,42.487Z" transform="translate(-129.593 -17.202)" fill="url(#linear-gradient-7)" style="mix-blend-mode: hard-light;isolation: isolate"/>
      <path id="Trazado_120840" data-name="Trazado 120840" d="M160.62,39.823a5.343,5.343,0,0,0-1.632-3.2c4.569-4.734,12.135-6.421,14.943-2.282,1.512,2.232,1.64,4.2.922,5.9C172.143,36.807,164.536,36.861,160.62,39.823Z" transform="translate(-90.214 -17.202)" fill="url(#linear-gradient-8)" style="mix-blend-mode: hard-light;isolation: isolate"/>
      <path id="Trazado_120841" data-name="Trazado 120841" d="M193.3,35.487c-1.286-2.385-4.9-3.88-7.363-3.607-3.424.383-4.311,3.106-4.361,5.978a10.979,10.979,0,0,0-5.916-1.685c-.281-9.293,6.066-23.377,18.363-2.293,8.147-15.607,12.256-3.547,11.628,2.339C202.462,33.533,196.437,32.949,193.3,35.487Z" transform="translate(-137.319 -17.202)" fill="url(#linear-gradient-9)" style="mix-blend-mode: hard-light;isolation: isolate"/>
      <path id="Trazado_120842" data-name="Trazado 120842" d="M224.19,42.319c-3.5-1.486.349-11.4,12.088-5.986-.661.078-1.276.249-1.845.293-10.507.813-8.452,6.106-8.233,6.581-3.894-1.716-9.537-.764-11.456,3.3a7.694,7.694,0,0,0-.555,1.611C202.143,40.1,215.5,38.033,224.19,42.319Z" transform="translate(-201.612 -17.202)" fill="url(#linear-gradient-10)" style="mix-blend-mode: hard-light;isolation: isolate"/>
    </g>
  </g>
</svg>
