<svg xmlns="http://www.w3.org/2000/svg" width="295" height="294.387" viewBox="0 0 295 294.387">
  <g id="Grupo_903992" data-name="Grupo 903992" transform="translate(-869 -1462.51)">
    <g id="Grupo_903991" data-name="Grupo 903991" transform="translate(869 1462.51)">
      <path id="Trazado_632604" data-name="Trazado 632604" d="M-511.68,1123.963c.549-.984,1.168-1.937,1.638-2.958,3.071-6.7,5.971-13.483,9.191-20.113,4.655-9.581,9.548-19.045,14.311-28.574,4.718-9.441,9.371-18.914,14.112-28.343,2.508-4.987,5.143-9.908,7.721-14.86q2.576-5.321,5.148-10.637c3.356-6.812,6.672-13.642,10.076-20.431,6.452-12.862,12.983-25.686,19.431-38.553q8.623-17.207,17.122-34.475c3.066-6.228,5.674-12.708,9.107-18.72,3.01-5.274,6.309-10.357,11.062-14.556,5.022-4.433,10.7-7.048,16.8-9.226a12.924,12.924,0,0,0,2.807-1.956h2.243c.4.372.792,1.059,1.2,1.066,3.575.065,7.153.04,10.728-.054.334-.007.65-.659.974-1.012h1.682c.68.565,1.283,1.465,2.052,1.645,14.327,3.337,23.723,12.341,29.822,25.387,2.865,6.132,6.2,12.042,9.216,18.1,5.073,10.186,10.037,20.426,15.1,30.615,2.559,5.139,5.274,10.2,7.847,15.332a17.988,17.988,0,0,1,.932,3.157c-.533-.353-1.309-.584-1.559-1.079-.918-1.83-3.255-3.283-4.505-2.489-1.832,1.166-3.566,2.486-5.122,3.587.227,1.252.418,2.3.608,3.344-1.311-2.3-2.671-4.578-3.919-6.915-1.547-2.893-3-5.835-4.489-8.758-.851-1.977-1.608-4-2.568-5.929q-7.165-14.357-14.432-28.661c-1.883-3.685-3.984-7.26-5.987-10.885-.379-1.01-.755-2.019-1.14-3.026-4.9-12.789-14.46-19.69-27.775-21.527-2.25-.308-4.674.626-7.015.984-10.5.717-17.484,6.84-22.41,15.407-4.454,7.746-8.209,15.9-12.275,23.866a13.353,13.353,0,0,1-.738,2.6c-4.552,8.81-9.2,17.57-13.722,26.4-3.416,6.679-6.709,13.425-9.995,20.169-1.654,3.4-3.176,6.854-4.758,10.282-1.813,3.451-3.671,6.882-5.428,10.361-2.645,5.239-5.225,10.511-7.821,15.776q-5.444,11.042-10.869,22.095l0,0c-1.7,3.183-3.475,6.333-5.087,9.56-.893,1.788-1.521,3.709-2.269,5.569-.178.051-.46.051-.516.166q-3.435,6.758-6.83,13.537c-1.3,2.6-2.606,5.2-3.877,7.819-1.5,3.1-2.975,6.211-4.461,9.319-2.031,3.846-4.122,7.66-6.076,11.544-3.22,6.4-6.419,12.817-9.5,19.288-2.3,4.83-4.183,9.838-3.954,15.311a41.265,41.265,0,0,0,1.017,5.7c1.547,8.305,5.7,14.879,12.916,19.412l1.75,1.655-3.97-1.29a27.731,27.731,0,0,1-1.692,2.68c-2.662,3.384-2.755,3.428-.1,6.634.762.918,2.129,1.311,3.12,2.073a10.142,10.142,0,0,1,1.465,1.755c-6.211-1.727-10.939-5.889-15.054-10.392a46.266,46.266,0,0,1-10.011-18.61,7.6,7.6,0,0,0-1.278-1.9v-16.264Z" transform="translate(511.68 -880.56)" fill="#fea71e"/>
      <path id="Trazado_632605" data-name="Trazado 632605" d="M-332.319,1008.156c1.521,3.557,3.059,7.109,4.564,10.675.781,1.849,1.5,3.725,2.25,5.587v10.656c-.365.367-.925.671-1.066,1.11-1.171,3.688-1.86,7.59-3.468,11.069-3.089,6.688-7.237,12.684-13.474,16.968a45.7,45.7,0,0,1-14.493,6.84c-2.592.514-5.181,1.463-7.775,1.477-19.669.11-39.34.037-59.009.021l-4.856-2.115-.629-1.183c2.166-1.54,4.332-3.077,6.672-4.739l-4.533-3.052q30.5-.021,61-.084a13.037,13.037,0,0,0,3.489-1.037c7.863-1.208,14.117-5.234,19.043-11.289,4.117-5.062,6.669-10.988,6.625-17.524a43.662,43.662,0,0,0-2.063-13.547c-1.617-4.779-4.5-9.13-6.812-13.677q-5.019-9.86-10.009-19.739-2.271-4.193-4.54-8.387l-1.04-2.269c-.671-1.682-1.264-3.4-2.026-5.038-1.741-3.751-3.564-7.462-5.354-11.186l.021-.57a17.27,17.27,0,0,1,3.3,1.972c3.26,3.078,6.2,6.513,9.628,9.378,2.919,2.442,5.978,4.627,7.683,8.158.809,1.671,1.594,3.351,2.43,5.005,3.793,7.506,7.56,15.026,11.441,22.487A30.717,30.717,0,0,0-332.319,1008.156Z" transform="translate(620.505 -778.211)" fill="#f38000"/>
      <path id="Trazado_632606" data-name="Trazado 632606" d="M-438.541,880.56c-.325.353-.64,1-.974,1.012-3.575.094-7.153.119-10.728.054-.4-.007-.8-.694-1.2-1.066Z" transform="translate(592.21 -880.56)" fill="#ffc66e"/>
      <path id="Trazado_632607" data-name="Trazado 632607" d="M-511.68,986.4v0Z" transform="translate(511.68 -739.071)" fill="#ffbd5b"/>
      <path id="Trazado_632608" data-name="Trazado 632608" d="M-401.19,941.9c2.536,4.856,5.108,9.691,7.576,14.579a44.338,44.338,0,0,1,1.734,4.583c-.528-.177-1.332-.2-1.538-.559-.855-1.5-1.482-3.141-2.29-4.676-.886-1.675-2-1.923-3.519-.568-1.549,1.381-3.272,2.568-5.057,3.947l2.933,6.943a11.218,11.218,0,0,1-1.7-2c-3.732-7.3-7.466-14.61-11.065-21.98-1.348-2.762-2.339-5.7-3.491-8.557.25-.781,5.309-5.148,5.938-5.006a3.034,3.034,0,0,1,1.4.795c1.341,1.353,2.62,2.769,3.921,4.16Z" transform="translate(637.433 -816.343)" fill="#fb990e"/>
      <path id="Trazado_632609" data-name="Trazado 632609" d="M-400.245,946.03c-1.3-1.39-2.58-2.807-3.921-4.16a3.035,3.035,0,0,0-1.4-.795c-.629-.142-5.688,4.225-5.938,5.006a17.094,17.094,0,0,1-1.652-2.321c-2.839-5.765-5.622-11.558-8.424-17.341l-.608-3.344c1.556-1.1,3.29-2.421,5.122-3.587,1.25-.794,3.587.659,4.505,2.489.25.5,1.026.727,1.559,1.079q4.238,8.02,8.466,16.045c.8,1.526,1.549,3.082,2.32,4.624C-400.222,944.495-400.233,945.261-400.245,946.03Z" transform="translate(631.321 -828.817)" fill="#fda219"/>
      <path id="Trazado_632610" data-name="Trazado 632610" d="M-398.6,971.471l-.021.57q-1.125-1.69-2.253-3.377l-2.208-4.5-5.641-12.848a49.34,49.34,0,0,1,5.707-4.861c.533-.341,2.433.68,3.134,1.54,1.068,1.313,1.5,3.122,2.456,4.552,1.383,2.075,2.994,4,4.505,5.992,1.975,3.681,4.022,7.324,5.891,11.055,1.117,2.234,1.951,4.611,2.914,6.922-.533-.369-1.276-.617-1.566-1.124-2.248-3.947-4.407-7.94-6.929-12.528-2.192,2-4,3.3-5.321,4.987C-398.606,968.707-398.41,970.242-398.6,971.471Z" transform="translate(649.309 -792.56)" fill="#f78e01"/>
      <path id="Trazado_632611" data-name="Trazado 632611" d="M-404.395,962.045c.194-1.229,0-2.764.668-3.62,1.325-1.685,3.129-2.991,5.321-4.987,2.521,4.587,4.681,8.581,6.929,12.528.29.507,1.033.755,1.566,1.124,2.813,5.3,5.7,10.558,8.427,15.9,4.533,8.894,8.973,17.835,13.413,26.775a27.314,27.314,0,0,1,1.157,3.311,30.717,30.717,0,0,1-2.993-4.033c-3.882-7.461-7.648-14.981-11.441-22.487-.837-1.654-1.622-3.335-2.43-5.005-1.706-3.531-4.765-5.716-7.683-8.158-3.426-2.865-6.368-6.3-9.628-9.378A17.27,17.27,0,0,0-404.395,962.045Z" transform="translate(655.1 -783.134)" fill="#f68900"/>
      <path id="Trazado_632612" data-name="Trazado 632612" d="M-388.673,967.571c-1.512-1.991-3.122-3.917-4.505-5.992-.956-1.43-1.388-3.239-2.456-4.552-.7-.86-2.6-1.881-3.134-1.54a49.538,49.538,0,0,0-5.706,4.858q-2.25-4.473-4.5-8.95l-2.933-6.943c1.785-1.379,3.508-2.566,5.057-3.947,1.521-1.355,2.634-1.108,3.519.568.809,1.535,1.435,3.171,2.29,4.676.206.36,1.01.381,1.538.559Z" transform="translate(645.057 -801.591)" fill="#f99308"/>
      <path id="Trazado_632613" data-name="Trazado 632613" d="M-412.8,932.037c.012-.769.023-1.535.035-2.3q2.566,5.325,5.132,10.647Z" transform="translate(643.871 -814.825)" fill="#ffb95a"/>
      <path id="Trazado_632614" data-name="Trazado 632614" d="M-486.431,939.579q-2.573,5.318-5.148,10.637Q-489.006,944.9-486.431,939.579Z" transform="translate(538.551 -801.662)" fill="#ffc161"/>
      <path id="Trazado_632615" data-name="Trazado 632615" d="M-388.179,985.5q2.251,4.476,4.5,8.95,2.818,6.425,5.641,12.85c-.409.147-1.054.535-1.192.4-1.517-1.472-2.919-3.061-4.424-4.547-2.594-2.563-5.239-5.078-7.863-7.613l-3.9-3.412-4.47-4.482q-1.669-2.247-3.339-4.494c-.965-2.414-1.76-4.914-2.933-7.223-2.879-5.664-5.933-11.24-8.915-16.851-1.383-2.877-2.755-5.76-4.155-8.63-1.608-3.3-3.241-6.583-4.865-9.873l-2.246-5.6c.283-.589.977-1.409.792-1.736-3.44-6.108-1.133-12.67-1.407-19.125l3.79,6.06.245-2.554c1.491,2.923,2.942,5.865,4.489,8.758,1.248,2.337,2.608,4.611,3.919,6.915,2.8,5.784,5.585,11.577,8.424,17.341a17.092,17.092,0,0,0,1.652,2.321c1.152,2.858,2.143,5.8,3.491,8.557,3.6,7.37,7.333,14.675,11.065,21.98A11.221,11.221,0,0,0-388.179,985.5Z" transform="translate(624.261 -835.696)" fill="#ffe400"/>
      <path id="Trazado_632616" data-name="Trazado 632616" d="M-492.673,1040.812c-7.218-4.534-11.369-11.107-12.916-19.412a41.266,41.266,0,0,1-1.017-5.7c-.229-5.473,1.657-10.481,3.954-15.311,3.078-6.471,6.277-12.885,9.5-19.288,1.954-3.884,4.045-7.7,6.076-11.544l2.29-1.612c0,5.281,0,10.175,0,15.07,0,2.08.014,4.16.021,6.239-2.521,5.323-4.9,10.719-7.6,15.951a20.17,20.17,0,0,0-1.161,17.047,20.014,20.014,0,0,0,7.616,9.611c0,3.136-.009,6.272.007,9.408.007,1.753-.769,2.08-2.278,1.4C-489.659,1042-491.175,1041.427-492.673,1040.812Z" transform="translate(518.439 -763.745)" fill="#ffe94f"/>
      <path id="Trazado_632617" data-name="Trazado 632617" d="M-478.078,962.329c1.582-3.428,3.1-6.887,4.758-10.282,3.286-6.744,6.578-13.49,9.995-20.169,4.517-8.829,9.17-17.589,13.722-26.4a13.35,13.35,0,0,0,.738-2.6h1.7c-.4,4.912-.769,9.747-1.211,14.575-.168,1.839.159,3.152,2.384,2.911-.047,1-.086,1.828-.126,2.657-.78,1.851-1.465,3.75-2.36,5.545q-11.532,23.156-23.153,46.269c-1.241,2.461-2.792,4.763-4.2,7.139a4.21,4.21,0,0,1-.311-1.061q-.151-8.065-.257-16.138C-476.417,963.588-476.129,962.193-478.078,962.329Z" transform="translate(556.6 -850.722)" fill="#ffe834"/>
      <path id="Trazado_632618" data-name="Trazado 632618" d="M-462.829,945.488l.126-2.655c-2.225.241-2.552-1.073-2.384-2.911.442-4.828.806-9.663,1.211-14.575h-1.7c4.066-7.971,7.821-16.119,12.275-23.866,4.926-8.567,11.906-14.689,22.41-15.407.979,0,1.958,0,3.194,0-3.416,4.12-3.487,5.776-.722,9.537-1.175.556-2.37,1.119-3.564,1.682a8.477,8.477,0,0,1-1.664,1.01,16.15,16.15,0,0,0-9.277,7.915c-5.351,10.083-10.317,20.37-15.446,30.568C-459.835,939.7-461.343,942.59-462.829,945.488Z" transform="translate(573.311 -873.189)" fill="#ffe729"/>
      <path id="Trazado_632619" data-name="Trazado 632619" d="M-464.281,928.325c1.949-.136,1.661,1.26,1.678,2.449q.119,8.069.257,16.138a4.216,4.216,0,0,0,.311,1.061c-1.269,3.012-2.383,6.1-3.832,9.022q-8.35,16.822-16.891,33.545c-1.379,2.708-2.993,5.3-4.5,7.94a25.536,25.536,0,0,0,.514-3.561c.054-5.732-.03-11.464.056-17.194.026-1.559-.745-1.365-1.711-1.168q5.433-11.049,10.869-22.095c2.6-5.265,5.176-10.537,7.821-15.776C-467.952,935.207-466.094,931.777-464.281,928.325Z" transform="translate(542.802 -816.719)" fill="#ffe83f"/>
      <path id="Trazado_632620" data-name="Trazado 632620" d="M-410.477,941.658l-.245,2.554-3.79-6.059c.273,6.454-2.033,13.016,1.407,19.125.185.327-.509,1.147-.792,1.736q-5.77-11.048-11.537-22.1c-2.379-4.566-4.788-9.116-7.074-13.726-1.376-2.776-2.538-5.657-3.8-8.492.28-.776.858-1.58.792-2.328-.353-4.1-1.028-8.181-1.246-12.287-.105-1.975.229-4.274,3.295-3.9,2,3.624,4.1,7.2,5.987,10.885q7.3,14.287,14.432,28.661C-412.084,937.655-411.327,939.681-410.477,941.658Z" transform="translate(611.814 -859.729)" fill="#ffe50b"/>
      <path id="Trazado_632621" data-name="Trazado 632621" d="M-475.217,949.035c.965-.2,1.736-.39,1.711,1.168-.087,5.73,0,11.462-.056,17.194a25.452,25.452,0,0,1-.514,3.559,10.644,10.644,0,0,1-.558,2.386q-8.514,17.133-17.127,34.216c-1.245,2.458-2.783,4.769-4.187,7.146-.007-2.08-.019-4.16-.021-6.239,0-4.9,0-9.789,0-15.07l-2.29,1.613c1.486-3.108,2.956-6.221,4.461-9.319,1.271-2.617,2.575-5.218,3.877-7.819q3.4-6.775,6.83-13.537c.056-.115.339-.115.516-.166,1.248-2.108,2.65-4.141,3.7-6.34,1.365-2.86,2.449-5.854,3.655-8.789Z" transform="translate(529.62 -789.197)" fill="#ffe847"/>
      <path id="Trazado_632622" data-name="Trazado 632622" d="M-414.179,910.241c-3.066-.374-3.4,1.926-3.295,3.9.217,4.106.893,8.186,1.246,12.287.065.748-.512,1.552-.792,2.328-3.741-7.324-7.289-14.757-11.294-21.938-2.762-4.952-7.027-8.394-12.951-8.889-3.288-.276-6.623-.04-9.936-.035l3.564-1.682c-2.765-3.76-2.694-5.417.722-9.537-1.236,0-2.215,0-3.194,0,2.341-.357,4.765-1.292,7.015-.984,13.315,1.837,22.87,8.737,27.775,21.527C-414.934,908.222-414.557,909.232-414.179,910.241Z" transform="translate(592.529 -873.787)" fill="#ffe616"/>
      <path id="Trazado_632623" data-name="Trazado 632623" d="M-500.654,1004.246c1.5.615,3.014,1.187,4.487,1.853,1.51.685,2.285.358,2.278-1.4-.016-3.136,0-6.272-.007-9.408q3.929,1.661,7.854,3.32a20.22,20.22,0,0,0,3.173.542c4.064.063,8.128.026,12.011.026v9.31l-7.889.781-9.52.021q-5.321-1.7-10.637-3.4Z" transform="translate(526.42 -727.179)" fill="#ffe848"/>
      <path id="Trazado_632624" data-name="Trazado 632624" d="M-495.5,1000.572q5.317,1.7,10.637,3.4l1.131,1.091-2.786.168,2.159,2.723a6.7,6.7,0,0,1-.753.977c-2.129,1.848-4.005,3.676-.168,5.718.1.056-.082.657-.131,1l-.617.159-10.646-3.381a10.136,10.136,0,0,0-1.465-1.755c-.991-.762-2.358-1.155-3.12-2.073-2.659-3.206-2.566-3.251.1-6.634a27.76,27.76,0,0,0,1.692-2.68Z" transform="translate(523.013 -721.85)" fill="#fda319"/>
      <path id="Trazado_632625" data-name="Trazado 632625" d="M-484.192,948.961c-1.206,2.935-2.29,5.929-3.655,8.789-1.052,2.2-2.454,4.232-3.7,6.34.748-1.86,1.376-3.781,2.269-5.569C-487.667,955.294-485.9,952.144-484.192,948.961Z" transform="translate(538.593 -789.12)" fill="#ffe83f"/>
      <path id="Trazado_632626" data-name="Trazado 632626" d="M-370.92,968.869q5,9.871,10.009,19.739c2.313,4.547,5.195,8.9,6.812,13.677a43.664,43.664,0,0,1,2.063,13.547c.044,6.536-2.507,12.462-6.625,17.524-4.926,6.055-11.179,10.081-19.043,11.289q-1.676-.011-3.353-.019l-38.7-.044a17.208,17.208,0,0,1,2.921-.512c11.214-.038,22.431-.021,33.648-.031.752,0,1.5-.115,2.458-.191-2.746-3.433-2.771-5.732-.339-9.333l7.824-2.912c2.211-2.33,4.779-4.417,6.557-7.039,3.79-5.585,4.683-11.742,1.855-18.071-1.376-3.078-3.2-5.952-4.667-8.99-2.793-5.767-5.48-11.583-8.209-17.379l-.853-3.68c1.678-1.57,3.351-3.089,4.966-4.667C-372.656,970.858-371.808,969.843-370.92,968.869Z" transform="translate(634.564 -762.507)" fill="#ffe000"/>
      <path id="Trazado_632627" data-name="Trazado 632627" d="M-412.166,1012.865h-19.08c-2.6-.654-5.2-1.306-8.471-2.126l6.429-6.7-2.4-2.269q10.088,0,20.176,0l4.533,3.052c-2.339,1.662-4.505,3.2-6.672,4.739l.629,1.183Z" transform="translate(607.881 -718.518)" fill="#f48300"/>
      <path id="Trazado_632628" data-name="Trazado 632628" d="M-393.812,970.028l1.04,2.269c-.491.056-1.365.009-1.414.189-.622,2.267-2.332,3.115-4.33,3.938-1.077.444-1.8,1.741-2.69,2.652l-3.3-4.622-2.3-6.613,7.162-7.809Z" transform="translate(651.876 -774.322)" fill="#ffcd00"/>
      <path id="Trazado_632629" data-name="Trazado 632629" d="M-391.252,975.522l-5.833-10-7.162,7.81-2.178-2.3-2.3-6.134c.173-.984.03-2.225.58-2.9a49.4,49.4,0,0,1,5.017-5.169,7.035,7.035,0,0,1,2.241-.909q1.129,1.69,2.253,3.377c1.79,3.725,3.613,7.436,5.354,11.186C-392.516,972.122-391.923,973.84-391.252,975.522Z" transform="translate(649.316 -779.816)" fill="#fcc200"/>
      <path id="Trazado_632630" data-name="Trazado 632630" d="M-404.41,972.059c.886-.911,1.612-2.208,2.69-2.652,2-.823,3.709-1.671,4.33-3.938.049-.18.923-.133,1.414-.189q2.271,4.192,4.54,8.387c-.888.974-1.736,1.989-2.676,2.909-1.615,1.577-3.288,3.1-4.966,4.667.252,1.089.554,2.386.853,3.68Q-401.316,978.491-404.41,972.059Z" transform="translate(655.08 -767.305)" fill="#ffd500"/>
      <path id="Trazado_632631" data-name="Trazado 632631" d="M-398.222,1002.428q-10.088,0-20.176,0h-30.841l-3.412-.063a14.786,14.786,0,0,1,2.655-.5q19.549-.06,39.095-.042,35.448,0,70.9-.019a16.586,16.586,0,0,0,2.921-.516q1.676.007,3.353.019a13.038,13.038,0,0,1-3.489,1.037Q-367.722,1002.456-398.222,1002.428Z" transform="translate(590.591 -719.169)" fill="#fda319"/>
      <path id="Trazado_632632" data-name="Trazado 632632" d="M-456.288,1012.877h-33.071a12.219,12.219,0,0,1,.939-3.274,10.3,10.3,0,0,1,2.69-2.739c2.236-1.64,2.285-3.276.3-5.1q14.862,0,29.722,0l4.863,2.648c-1.661,1.68-3.162,3.283-4.76,4.783C-456.786,1010.3-457.237,1011.431-456.288,1012.877Z" transform="translate(541.519 -718.534)" fill="#fb990e"/>
      <path id="Trazado_632633" data-name="Trazado 632633" d="M-448.93,1001.775h30.841l2.4,2.269-6.429,6.7c3.269.82,5.87,1.472,8.471,2.126q-18.77,0-37.546,0l-1.69-3.071c1.15-.935,2.309-1.834,3.423-2.792C-447.643,1005.441-446.54,1003.775-448.93,1001.775Z" transform="translate(590.282 -718.518)" fill="#f68800"/>
      <path id="Trazado_632634" data-name="Trazado 632634" d="M-431.383,1001.811c2.391,2,1.287,3.666-.528,5.225-1.115.958-2.274,1.858-3.424,2.792l1.69,3.071h-28.624a18,18,0,0,0-1.568-1c-.7-.353-1.446-.622-2.171-.925a10.645,10.645,0,0,1,1.157-2.332c1.168-1.39,2.5-2.652,3.564-3.765l-2.645-3.092,29.138-.033Z" transform="translate(572.735 -718.554)" fill="#f88f01"/>
      <path id="Trazado_632635" data-name="Trazado 632635" d="M-451.342,1001.762l2.645,3.092c-1.068,1.112-2.4,2.374-3.564,3.765a10.648,10.648,0,0,0-1.157,2.332c.724.3,1.47.573,2.171.925a18,18,0,0,1,1.568,1q-12.619,0-25.235,0c-.949-1.446-.5-2.578.682-3.683,1.6-1.5,3.1-3.1,4.76-4.783-1.923-1.047-3.393-1.846-4.863-2.648Q-462.837,1001.764-451.342,1001.762Z" transform="translate(560.145 -718.535)" fill="#f99407"/>
      <path id="Trazado_632636" data-name="Trazado 632636" d="M-475.912,1001.78c1.986,1.82,1.937,3.456-.3,5.1a10.3,10.3,0,0,0-2.69,2.739,12.218,12.218,0,0,0-.939,3.274c-4.176.014-8.352.054-12.528.014a8.077,8.077,0,0,1-2.026-.561c.049-.346.234-.946.131-1-3.837-2.042-1.961-3.87.168-5.718a6.7,6.7,0,0,0,.753-.977l-2.159-2.723c1.2-.072,1.993-.119,2.786-.168Z" transform="translate(532.001 -718.546)" fill="#fc9e16"/>
      <path id="Trazado_632637" data-name="Trazado 632637" d="M-396.394,965.223a7.031,7.031,0,0,0-2.241.909,49.409,49.409,0,0,0-5.017,5.169c-.549.678-.407,1.919-.58,2.9-.376-.575-.792-1.129-1.124-1.727-1.133-2.04-2.239-4.1-3.353-6.146l-1.133-3.342c-.425-3.564,3.332-3.41,5.057-5.625-1.3-1.39-2.641-2.748-3.888-4.183-1.185-1.365-2.276-2.809-3.407-4.218,2.624,2.535,5.27,5.05,7.863,7.613,1.5,1.486,2.907,3.075,4.424,4.547.138.133.783-.255,1.192-.4Z" transform="translate(644.826 -789.118)" fill="#f7ba00"/>
      <path id="Trazado_632638" data-name="Trazado 632638" d="M-484.77,1138.263q-3.926-1.657-7.854-3.32a20.015,20.015,0,0,1-7.616-9.611,20.17,20.17,0,0,1,1.161-17.047c2.7-5.232,5.08-10.628,7.6-15.951,1.4-2.376,2.942-4.687,4.188-7.146q8.64-17.071,17.127-34.216a10.644,10.644,0,0,0,.558-2.385c1.507-2.643,3.122-5.23,4.5-7.938q8.518-16.737,16.891-33.545c1.449-2.921,2.563-6.01,3.832-9.022,1.409-2.377,2.961-4.678,4.2-7.139q11.644-23.1,23.153-46.269c.895-1.795,1.58-3.694,2.36-5.545,1.486-2.9,2.993-5.791,4.459-8.7,5.129-10.2,10.1-20.484,15.446-30.568a16.149,16.149,0,0,1,9.277-7.915,8.477,8.477,0,0,0,1.664-1.01c3.314,0,6.648-.241,9.936.035,5.924.5,10.189,3.937,12.951,8.889,4.005,7.181,7.553,14.614,11.294,21.938,1.26,2.835,2.421,5.716,3.8,8.492,2.285,4.61,4.695,9.16,7.074,13.726q5.756,11.056,11.537,22.1,1.122,2.8,2.248,5.594c-.558.238-1.269.332-1.647.736-2.15,2.295-4.3,4.594-6.3,7.022-1.781,2.169-3.274,1.7-5.059.019a47.091,47.091,0,0,0-4.346-3.286l-5.578-4.529c-3.879-4.138-7.7-8.338-11.67-12.39-1.783-1.82-3.87-3.344-5.819-5-1.309-1.432-2.374-3.271-3.968-4.227-6.155-3.69-19.389-2.566-22.272,6.522-.39.8-1.108,1.6-1.117,2.407q-.126,9.758.023,19.519c.009.734.678,1.458,1.04,2.187q.649,18.437,1.3,36.875c.047,1.3.2,2.6.231,3.9q.4,15.227.769,30.449a20.344,20.344,0,0,1-1.1-3.849c-.185-2.1-.049-4.222-.049-6.337l-.97-.264c-.668,7.5-6.436,11.331-11.025,15.951q-23.327,23.485-46.809,46.823c-4.209,4.192-8.642,8.158-12.836,12.362-5.071,5.087-9.92,10.4-15.037,15.435-1.386,1.36-3.384,2.117-5.139,3.08-1.019.558-2.115.979-3.178,1.46l.243.575h70.64l50.426.037,1.164.552c0,.17.007.344.012.514l-61.678.079-38.7-.009Z" transform="translate(525.148 -866.826)" fill="#fea71e"/>
      <path id="Trazado_632639" data-name="Trazado 632639" d="M-377.589,944.28l3.337,4.494a13.268,13.268,0,0,0,.608,2.316c1.622,3.552,3.309,7.071,4.973,10.6a6.313,6.313,0,0,1-.937,1.825c-1.271,1.211-2.762,2.194-4,3.431-17.435,17.393-34.891,34.762-52.19,52.284-2.309,2.337-4.332,3.493-7.377,1.925l-4.484-3.365-8.983-10.093c1.626.626,3,.685,3.882-1.25a7.454,7.454,0,0,1,1.72-1.818q18.234-18.1,36.475-36.19c6.737-6.676,13.535-13.3,20.239-20.008,1.61-1.61,2.961-3.479,4.431-5.232Z" transform="translate(598.621 -796.822)" fill="#e47217"/>
      <path id="Trazado_632640" data-name="Trazado 632640" d="M-433.447,929.932a47.091,47.091,0,0,1,4.346,3.286c1.785,1.685,3.279,2.15,5.059-.019,1.993-2.428,4.146-4.727,6.3-7.022.379-.4,1.089-.5,1.647-.736,1.622,3.293,3.255,6.578,4.863,9.875,1.4,2.87,2.771,5.753,4.155,8.63l-2.926-2.933c-.932,3.36-1.718,6.232-4.933,7.424q-1.676-1.118-3.353-2.234c-.736-.8-1.444-1.633-2.215-2.4-3.173-3.152-6.365-6.281-9.553-9.42Z" transform="translate(616.263 -820.562)" fill="#fda219"/>
      <path id="Trazado_632641" data-name="Trazado 632641" d="M-425.527,939.529c3.215-1.192,4-4.064,4.933-7.424l2.926,2.933c2.982,5.611,6.036,11.186,8.915,16.851,1.173,2.309,1.968,4.809,2.933,7.223l-2.306-1.08-1.124-1.119a15.619,15.619,0,0,0-2.026-3.049c-3.178-2.989-6.48-5.847-9.735-8.756l-2.248-2.234Z" transform="translate(626.851 -811.654)" fill="#fc9d13"/>
      <path id="Trazado_632642" data-name="Trazado 632642" d="M-409.847,950.915c1.131,1.409,2.222,2.853,3.407,4.218,1.248,1.435,2.589,2.792,3.888,4.183-1.725,2.215-5.482,2.061-5.057,5.625q-1.122-2.24-2.243-4.484c-.633-1.692-1.206-3.412-1.918-5.071-.745-1.736-2.136-3.419.2-4.933l-2.185-2.949Z" transform="translate(642.592 -791.069)" fill="#f2af08"/>
      <path id="Trazado_632643" data-name="Trazado 632643" d="M-411.195,950.067l2.185,2.949c-2.339,1.514-.949,3.2-.2,4.933.713,1.659,1.285,3.379,1.918,5.071q-1.4-2.258-2.79-4.517c-1.664-3.531-3.351-7.05-4.973-10.6a13.267,13.267,0,0,1-.608-2.316Q-413.432,947.828-411.195,950.067Z" transform="translate(640.034 -793.633)" fill="#efa80d"/>
      <path id="Trazado_632644" data-name="Trazado 632644" d="M-494.4,996.717l21.335.051a22.124,22.124,0,0,0,3.187.493c5.323.051,10.647.023,15.643.023v9.282l-7.066.8-25.8,0,7.889-.781v-9.31c-3.884,0-7.948.037-12.011-.026A20.232,20.232,0,0,1-494.4,996.717Z" transform="translate(534.779 -725.279)" fill="#ffe83f"/>
      <path id="Trazado_632645" data-name="Trazado 632645" d="M-485.833,1007.073l25.8,0,30.851-.012h68.761l-2.6-2.778c3.484-1.1,5.737-3.7,7.817-6.485.136-.18.035-.535.044-.809l.6-.042,5.569.054a16.58,16.58,0,0,1-1.489,2.828c-1.9,2.374-3.921,4.65-5.739,6.781l8.352.458,29.166-.012,38.7.044a16.585,16.585,0,0,1-2.921.516q-35.448.042-70.9.019-19.545,0-39.095.042a14.785,14.785,0,0,0-2.655.5l-29.138.033q-11.494,0-22.992,0-14.862,0-29.722,0-8.4-.011-16.8-.023c-.376-.365-.755-.729-1.131-1.091Z" transform="translate(533.506 -724.977)" fill="#ffcd13"/>
      <path id="Trazado_632646" data-name="Trazado 632646" d="M-419.883,1038.09l-5.569-.054a8.859,8.859,0,0,0-2.075-.516c-4.755-.021-9.513.026-14.269.051a2.888,2.888,0,0,1-.514-.082c0-.171-.009-.343-.012-.514l7.293-.584q4.206,0,8.41,0c2.977,0,5.959.03,8.936-.016.7-.009,1.661-.033,2.061-.463,2.388-2.575,4.648-5.272,6.952-7.926a43.7,43.7,0,0,0,4.005,2.771c.589.327,1.491.094,2.25.115-.07-.736.124-1.676-.257-2.171-2.68-3.468-5.48-6.844-8.242-10.249,1.213-.379,2.727-.423,3.582-1.2,2.954-2.676,5.721-5.561,8.478-8.445,6.235-6.513,12.362-13.131,18.65-19.592q7.869-8.083,16.028-15.881c2.131-2.047,4.587-3.755,7.2-5.868,0,.037-.028-.612-.058-1.262l3.3,4.622q3.1,6.432,6.186,12.864c2.729,5.8,5.417,11.612,8.209,17.379,1.47,3.038,3.29,5.912,4.667,8.99,2.827,6.328,1.935,12.486-1.855,18.071-1.778,2.622-4.347,4.709-6.557,7.038-5.931,2.178-12.074,2.351-18.323,2.367C-380.9,1037.579-400.389,1037.885-419.883,1038.09Z" transform="translate(604.4 -766.071)" fill="#f38000"/>
      <path id="Trazado_632647" data-name="Trazado 632647" d="M-401.281,1007.045l-29.166.014-3.131-1.15c2.61-2.4,5.293-4.272,7.132-6.765a4.824,4.824,0,0,1,4.557-2.2q29.651.07,59.3.03c-2.433,3.6-2.407,5.9.339,9.333-.953.077-1.706.189-2.458.192-11.217.01-22.433-.007-33.648.03A17.2,17.2,0,0,0-401.281,1007.045Z" transform="translate(616.088 -724.97)" fill="#ffe300"/>
      <path id="Trazado_632648" data-name="Trazado 632648" d="M-359.606,998.627q-29.647,0-59.3-.03a4.824,4.824,0,0,0-4.557,2.2c-1.839,2.493-4.522,4.36-7.132,6.765l3.131,1.15c-3.022-.166-6.045-.332-8.352-.46,1.818-2.131,3.839-4.407,5.739-6.781a16.585,16.585,0,0,0,1.489-2.828c19.494-.206,38.985-.512,58.479-.556,6.249-.016,12.392-.189,18.323-2.367Q-355.694,997.17-359.606,998.627Z" transform="translate(613.102 -726.619)" fill="#ffd60a"/>
      <path id="Trazado_632649" data-name="Trazado 632649" d="M-370.507,971.3c.03.65.061,1.3.058,1.262-2.612,2.112-5.069,3.821-7.2,5.868q-8.139,7.81-16.028,15.881c-6.288,6.461-12.415,13.079-18.65,19.592-2.757,2.884-5.524,5.77-8.478,8.445-.855.774-2.37.818-3.582,1.2-1.589-1.5-3.241-2.949-4.746-4.536-1.136-1.2-2.08-2.578-3.108-3.875,2.11,1.01,3.566.184,5.111-1.4,6.307-6.468,12.743-12.811,19.131-19.2q14.838-14.838,29.692-29.654a28.942,28.942,0,0,1,3.323-2.5l2.178,2.3Q-371.657,968-370.507,971.3Z" transform="translate(617.875 -771.17)" fill="#ef7d00"/>
      <path id="Trazado_632650" data-name="Trazado 632650" d="M-370.813,970.4a28.908,28.908,0,0,0-3.323,2.5q-14.883,14.792-29.692,29.654c-6.389,6.389-12.824,12.731-19.132,19.2-1.545,1.582-3,2.407-5.111,1.4l-2.8-1.682-4.487-5.048c1.458-.617,3.276-.869,4.321-1.9,17.243-17.091,34.311-34.358,51.648-51.354,2.29-2.246,2.93-4.043,1.8-6.765,1.115,2.049,2.22,4.106,3.353,6.146.332.6.748,1.152,1.124,1.727Q-371.961,967.335-370.813,970.4Z" transform="translate(613.705 -779.182)" fill="#ed7b04"/>
      <path id="Trazado_632651" data-name="Trazado 632651" d="M-370.209,963.456c1.126,2.722.486,4.519-1.8,6.765-17.337,17-34.4,34.263-51.648,51.354-1.045,1.035-2.863,1.288-4.321,1.9l-12.9-12.9c3.045,1.568,5.068.411,7.377-1.926,17.3-17.522,34.755-34.891,52.19-52.284,1.239-1.236,2.729-2.22,4-3.431a6.311,6.311,0,0,0,.937-1.825q1.4,2.261,2.79,4.517,1.122,2.243,2.243,4.484Q-370.774,961.786-370.209,963.456Z" transform="translate(606.325 -786.243)" fill="#ea790d"/>
      <path id="Trazado_632652" data-name="Trazado 632652" d="M-454.516,923.823c2.884-9.088,16.117-10.212,22.272-6.522,1.594.956,2.659,2.795,3.968,4.227.351,4.129.771,8.254,1.023,12.388.171,2.767.1,5.547.136,8.321a18.2,18.2,0,0,0-.439,2.692q-.329,20.856-.587,41.715c-.058,5.22.014,10.443.026,15.666q-.543,13.748-1.087,27.5-3.134,2.254-6.272,4.505l-10.7.019-1.636-.605c-1.886-1.18-3.4-2.664-3.641-5-.327-3.183-.552-6.375-.82-9.564q-.382-15.223-.769-30.449c-.035-1.3-.185-2.6-.231-3.9q-.659-18.437-1.3-36.875Q-454.542,935.878-454.516,923.823Z" transform="translate(588.026 -834.079)" fill="#fff"/>
      <path id="Trazado_632653" data-name="Trazado 632653" d="M-398.585,965.74c.269,3.19.493,6.382.82,9.565.238,2.337,1.755,3.821,3.641,5a7.812,7.812,0,0,0,1.138,2.01c1.876,1.755,1.937,3.167-.012,5.09-4.968,4.9-9.656,10.081-14.586,15.021-4.4,4.41-9.018,8.609-13.472,12.972q-6.86,6.723-13.584,13.586c-3.384,3.454-6.536,7.144-10.027,10.48-4.487,4.291-7.964,10.086-15.082,10.733-.39.035-.741.507-1.11.778h-33.629l-.243-.575c1.063-.482,2.159-.9,3.178-1.46,1.755-.963,3.753-1.72,5.139-3.08,5.118-5.036,9.966-10.348,15.037-15.435,4.195-4.2,8.628-8.17,12.836-12.362q23.457-23.363,46.809-46.823c4.59-4.62,10.357-8.448,11.025-15.951l.97.264c0,2.115-.136,4.239.049,6.337A20.341,20.341,0,0,0-398.585,965.74Z" transform="translate(534.338 -780.66)" fill="#fc9e16"/>
      <path id="Trazado_632654" data-name="Trazado 632654" d="M-480.236,1036.665c.369-.271.72-.743,1.11-.778,7.118-.647,10.6-6.443,15.082-10.733,3.491-3.337,6.644-7.027,10.027-10.48q6.723-6.86,13.584-13.586c4.454-4.363,9.069-8.562,13.472-12.972,4.931-4.94,9.618-10.123,14.586-15.021,1.949-1.923,1.888-3.335.012-5.09A7.812,7.812,0,0,1-413.5,966l1.636.605q.564.82,1.126,1.641l2.248,1.706,4.512,4.5,2.241,2.776,8.983,10.093,1.047,2.669-2.461-.131c.72,1.334,1.346,2.5,1.97,3.657q-.263-.014-.526-.007c-8.233-7.887-16.732-8.754-24.537-2.505a13.389,13.389,0,0,0-4.005,15.33,38.154,38.154,0,0,0,2.253,3.94c-.217.486-.757,1.2-.6,1.423,2.038,2.851,1.269,4.98-1.351,6.992a33.619,33.619,0,0,0-4.106,4.169c-4.784,5.251-9.174,10.994-16.669,12.708-.552.126-.993.724-1.486,1.1Z" transform="translate(553.715 -766.349)" fill="#fa970c"/>
      <path id="Trazado_632655" data-name="Trazado 632655" d="M-464.4,1011.336c.493-.379.935-.977,1.486-1.1,7.494-1.713,11.885-7.457,16.669-12.708a33.6,33.6,0,0,1,4.106-4.169c2.62-2.012,3.388-4.141,1.351-6.992-.156-.22.383-.937.6-1.423q2.4,1.809,4.814,3.617l5.7,5.975,3.342,3.379,4.536,4.463,5.608,5.608,2.215,3.388Z" transform="translate(574.887 -741.02)" fill="#f89103"/>
      <path id="Trazado_632656" data-name="Trazado 632656" d="M-421.008,929.954l3.386,4.452c-.105,1.084.213,2.587-.381,3.188-6.945,7.02-14.042,13.89-21.064,20.833-1.007,1-1.841,2.171-2.755,3.262l-.93-.238V934.434l.78,6.833c2.031-2.26,3.674-4.339,5.578-6.146,2.935-2.781,6.069-5.354,9.064-8.074.4-.367.5-1.073.743-1.622Z" transform="translate(603.824 -820.584)" fill="#d15b29"/>
      <path id="Trazado_632657" data-name="Trazado 632657" d="M-442.657,1007.329l-30.851.012c2.433-.276,4.863-.554,7.066-.8v-9.282c-5,0-10.319.028-15.643-.023a22.107,22.107,0,0,1-3.187-.493l38.7.009a15.824,15.824,0,0,0,2.622.484c3.416.056,6.835.023,10.254.026-1.577,1.582-4.473,2.507-3.3,5.548a18.393,18.393,0,0,0,2.559,3.739Z" transform="translate(546.984 -725.25)" fill="#ffe734"/>
      <path id="Trazado_632658" data-name="Trazado 632658" d="M-455.834,997.3c-3.419,0-6.838.03-10.254-.026a15.849,15.849,0,0,1-2.622-.484l61.678-.079a2.9,2.9,0,0,0,.514.082l5.062,5.005,2.82,2.795,2.6,2.778h-53.057a17.234,17.234,0,0,1,2.907-.514c5.213-.052,10.427-.026,15.643-.026h6.316c-.687-1.713-1.769-3.213-1.75-4.7.016-1.582,1.077-3.152,1.725-4.832Z" transform="translate(569.123 -725.29)" fill="#ffe51a"/>
      <path id="Trazado_632659" data-name="Trazado 632659" d="M-425.829,935.375c-.241.549-.339,1.255-.743,1.622-3,2.72-6.129,5.293-9.064,8.073-1.9,1.807-3.547,3.886-5.578,6.146-.292-2.549-.535-4.69-.78-6.833q-.084-2.846-.164-5.693c-.035-2.774.035-5.555-.136-8.321-.252-4.134-.673-8.258-1.023-12.388,1.949,1.659,4.036,3.183,5.819,5C-433.529,927.037-429.708,931.236-425.829,935.375Z" transform="translate(603.068 -830.534)" fill="#cc552b"/>
      <path id="Trazado_632660" data-name="Trazado 632660" d="M-441.552,1010.077q-1.108-1.7-2.215-3.388a10.863,10.863,0,0,0,2.809-1.461q8.339-8.167,16.507-16.507a10.952,10.952,0,0,0,1.463-2.809l5.592,5.075a19.72,19.72,0,0,1-2.138,3.475c-3.755,4-7.683,7.847-11.422,11.864a18.626,18.626,0,0,0-2.138,3.718l-7.293.584Q-440.97,1010.352-441.552,1010.077Z" transform="translate(602.467 -739.724)" fill="#e06911"/>
      <path id="Trazado_632661" data-name="Trazado 632661" d="M-453.877,918.964q-.025,12.058-.054,24.114c-.362-.729-1.03-1.453-1.04-2.187q-.137-9.759-.023-19.519C-454.984,920.565-454.267,919.766-453.877,918.964Z" transform="translate(587.386 -829.221)" fill="#ffb652"/>
      <path id="Trazado_632662" data-name="Trazado 632662" d="M-441.495,1010.586q-1.122-1.388-2.241-2.776l1.372-4.031-5.884-.472q-1.125-.855-2.248-1.706a51.227,51.227,0,0,0,6.368-.037c1.119-.135,2.141-1.056,3.206-1.622l6.272-4.505a11.461,11.461,0,0,0,.986-2.185c.3-1.3.4-2.652.591-3.982l1.682-1.68.731,4.877c4.966-4.655,9.333-8.557,13.476-12.687,5.347-5.326,10.448-10.9,15.776-16.243,4.272-4.288,8.875-8.254,13.049-12.63,2.914-3.054,5.354-6.562,8-9.866l4.482,3.928,1.124,1.119c-1.47,1.753-2.821,3.622-4.431,5.232-6.7,6.711-13.5,13.332-20.239,20.008q-18.252,18.08-36.475,36.19a7.449,7.449,0,0,0-1.72,1.818C-438.5,1011.271-439.868,1011.212-441.495,1010.586Z" transform="translate(593.472 -799.709)" fill="#df6d1d"/>
      <path id="Trazado_632663" data-name="Trazado 632663" d="M-441.435,981.315l-1.97-3.657,2.461.131-1.047-2.669,4.484,3.365,12.9,12.9,4.487,5.048c-.107,2.159-1.042,3.323-3.374,2.806l-5.569-4.538-4.5-4.491-6.672-7.2Z" transform="translate(602.951 -754.151)" fill="#f89006"/>
      <path id="Trazado_632664" data-name="Trazado 632664" d="M-442.222,926.844q.08,2.846.164,5.693v27.016l.93.238c.914-1.091,1.748-2.267,2.755-3.262,7.022-6.943,14.119-13.813,21.064-20.833.594-.6.276-2.1.381-3.187,3.187,3.138,6.379,6.267,9.553,9.42.771.766,1.479,1.6,2.218,2.4-1.061.963-2.155,1.893-3.178,2.9q-15.1,14.792-30.178,29.6c-2.568,2.515-5.328,4.9-4.269,9.118.068.271-.283.647-.439.974-.012-5.223-.084-10.446-.026-15.666q.238-20.859.586-41.714A18.209,18.209,0,0,1-442.222,926.844Z" transform="translate(603.131 -818.687)" fill="#d76226"/>
      <path id="Trazado_632665" data-name="Trazado 632665" d="M-442.628,976.915c.157-.327.507-.7.439-.975-1.059-4.218,1.7-6.6,4.269-9.118q15.1-14.789,30.178-29.6c1.024-1,2.117-1.933,3.178-2.9l3.351,2.234q1.132,1.672,2.267,3.344c-.227.678-.266,1.533-.715,2-1.08,1.131-2.4,2.033-3.533,3.115q-7.789,7.4-15.521,14.851-7.627,7.361-15.2,14.785c-2.517,2.454-5.029,4.914-8.223,8.036v15.552c-.187,1.33-.294,2.678-.591,3.982a11.459,11.459,0,0,1-.986,2.185Q-443.172,990.664-442.628,976.915Z" transform="translate(602.537 -808.685)" fill="#da6723"/>
      <path id="Trazado_632666" data-name="Trazado 632666" d="M-443.04,995.054V979.5c3.194-3.122,5.707-5.583,8.223-8.036q7.6-7.4,15.2-14.785,7.729-7.459,15.521-14.85c1.138-1.082,2.454-1.984,3.533-3.115.449-.47.488-1.325.715-2q1.125,1.114,2.248,2.234,2.24,2.818,4.475,5.634a42.989,42.989,0,0,1-3.113,3.884c-1.949,1.954-4.134,3.674-6.087,5.622q-18.539,18.462-37.008,36.994c-.717.72-1.351,1.526-2.024,2.292Z" transform="translate(603.439 -805.494)" fill="#dc6a1f"/>
      <path id="Trazado_632667" data-name="Trazado 632667" d="M-419.12,943.3q-2.236-2.818-4.475-5.634c3.255,2.909,6.557,5.767,9.735,8.756a15.621,15.621,0,0,1,2.026,3.05q-2.24-1.963-4.482-3.928Z" transform="translate(629.434 -804.216)" fill="#e47217"/>
      <path id="Trazado_632668" data-name="Trazado 632668" d="M-458.073,996.961h31.582c-.647,1.68-1.708,3.251-1.725,4.833-.019,1.486,1.063,2.986,1.75,4.7h-6.316c-5.216,0-10.429-.026-15.643.026a17.235,17.235,0,0,0-2.907.514h-15.7c2.8-.269,5.6-.535,8.219-.785a18.394,18.394,0,0,1-2.559-3.739C-462.546,999.468-459.651,998.543-458.073,996.961Z" transform="translate(571.362 -724.953)" fill="#ffe727"/>
      <path id="Trazado_632669" data-name="Trazado 632669" d="M-437.109,1004.3q-1.409-1.4-2.82-2.795c.823-.537,2-.888,2.4-1.647,1.62-3.11,4.33-3.059,7.176-2.858.367.026.736,0,1.105.007-.009.274.091.629-.044.809C-431.373,1000.607-433.625,1003.2-437.109,1004.3Z" transform="translate(607.597 -725.002)" fill="#f9c117"/>
      <path id="Trazado_632670" data-name="Trazado 632670" d="M-426.353,997.284c-.369,0-.738.019-1.105-.007-2.846-.2-5.557-.252-7.176,2.858-.395.759-1.577,1.11-2.4,1.647l-5.062-5.005c4.755-.026,9.513-.073,14.269-.052a8.859,8.859,0,0,1,2.075.516Z" transform="translate(604.701 -725.276)" fill="#f3b41b"/>
      <path id="Trazado_632671" data-name="Trazado 632671" d="M-439.2,1007.141a18.628,18.628,0,0,1,2.138-3.718c3.739-4.017,7.667-7.861,11.422-11.864a19.718,19.718,0,0,0,2.138-3.475q1.686,1.676,3.37,3.356c1,2.091.355,3.685-1.4,5.069a36.6,36.6,0,0,0-4.356,3.858c-1.883,2.056-4.809,3.407-4.907,6.77Z" transform="translate(608.572 -736.82)" fill="#e67108"/>
      <path id="Trazado_632672" data-name="Trazado 632672" d="M-425.9,996.577q-1.686-1.679-3.37-3.356-2.794-2.538-5.592-5.073l-.023-1.1c2.332.516,3.267-.647,3.374-2.806l2.8,1.682c1.028,1.3,1.972,2.678,3.108,3.875,1.5,1.587,3.157,3.031,4.746,4.536,2.762,3.4,5.562,6.781,8.242,10.249.381.5.187,1.435.257,2.171-.759-.021-1.661.213-2.25-.115a43.648,43.648,0,0,1-4.005-2.771Z" transform="translate(614.341 -741.957)" fill="#f68800"/>
      <path id="Trazado_632673" data-name="Trazado 632673" d="M-424.943,989.52l7.291,7.291c-2.3,2.655-4.564,5.351-6.952,7.926-.4.43-1.358.453-2.061.463-2.977.047-5.959.019-8.936.016.1-3.363,3.024-4.714,4.907-6.77a36.6,36.6,0,0,1,4.356-3.858C-424.588,993.205-423.945,991.611-424.943,989.52Z" transform="translate(613.384 -734.9)" fill="#ed7900"/>
      <path id="Trazado_632674" data-name="Trazado 632674" d="M-440.278,966.246c-1.066.566-2.087,1.486-3.206,1.622a51.2,51.2,0,0,1-6.368.037q-.561-.82-1.126-1.64Q-445.625,966.254-440.278,966.246Z" transform="translate(592.827 -766.013)" fill="#e79053"/>
      <path id="Trazado_632675" data-name="Trazado 632675" d="M-447.381,1001.942l-4.811-3.617a38.166,38.166,0,0,1-2.253-3.94,13.389,13.389,0,0,1,4.005-15.33c7.8-6.249,16.3-5.382,24.537,2.505.727,2.15,2.112,4.33,2.024,6.447-.131,3.1-1.32,6.16-2.059,9.235l-2.832,3.274C-434.713,1004.388-440.911,1004.952-447.381,1001.942Z" transform="translate(586.894 -754.403)" fill="#fff"/>
      <path id="Trazado_632676" data-name="Trazado 632676" d="M-449.534,967.686l5.884.472-1.372,4.031Q-447.279,969.939-449.534,967.686Z" transform="translate(594.758 -764.088)" fill="#df6d1d"/>
      <path id="Trazado_632677" data-name="Trazado 632677" d="M-442.8,993.452c.738-3.075,1.928-6.134,2.059-9.235.089-2.117-1.3-4.3-2.024-6.447q.263-.007.526.007.6.848,1.2,1.7c.346,3.08,1.061,6.179.89,9.228C-440.243,990.332-441.867,991.872-442.8,993.452Z" transform="translate(603.757 -750.612)" fill="#d9764c"/>
      <path id="Trazado_632678" data-name="Trazado 632678" d="M-419.8,988.038c.007.367.016.734.023,1.1a10.976,10.976,0,0,1-1.463,2.807q-8.167,8.339-16.507,16.507a10.863,10.863,0,0,1-2.809,1.461l-5.608-5.608c.731-.143,1.715-.033,2.152-.467q8.57-8.574,16.979-17.313a13.228,13.228,0,0,0,1.664-3.024Z" transform="translate(599.259 -742.948)" fill="#d85f18"/>
      <path id="Trazado_632679" data-name="Trazado 632679" d="M-422.777,986.069a13.232,13.232,0,0,1-1.664,3.024q-8.4,8.745-16.979,17.313c-.437.435-1.421.325-2.152.468l-4.536-4.463c.9-.238,2.1-.189,2.648-.764,1.986-2.07,3.734-4.365,5.608-6.543a65.793,65.793,0,0,1,4.98-5.55c2.365-2.185,5-4.073,7.429-6.193.327-.285.124-1.173.168-1.783Z" transform="translate(596.664 -745.517)" fill="#cf561f"/>
      <path id="Trazado_632680" data-name="Trazado 632680" d="M-425.364,985.7c-.044.61.159,1.5-.168,1.783-2.428,2.119-5.064,4.008-7.429,6.193a65.767,65.767,0,0,0-4.98,5.55c-1.874,2.178-3.622,4.473-5.608,6.543-.549.575-1.748.526-2.648.764q-1.672-1.69-3.342-3.379l2.86,1.11,2.211-4.2c2.963-.865,6.26-.979,7.838-4.314l2.832-3.274c.935-1.58,2.559-3.12,2.652-4.748.171-3.05-.545-6.148-.89-9.228Q-428.7,982.1-425.364,985.7Z" transform="translate(594.753 -749.635)" fill="#cc5222"/>
      <path id="Trazado_632681" data-name="Trazado 632681" d="M-433.369,985.88c-1.577,3.335-4.875,3.449-7.838,4.314l-2.211,4.2-2.86-1.11-5.7-5.975C-445.509,990.315-439.311,989.752-433.369,985.88Z" transform="translate(591.492 -739.766)" fill="#cb5125"/>
      <path id="Trazado_632682" data-name="Trazado 632682" d="M-394.088,940.08l2.8,2.243c-2.65,3.3-5.09,6.812-8,9.866-4.174,4.377-8.777,8.342-13.049,12.63-5.328,5.344-10.429,10.918-15.776,16.243-4.143,4.129-8.511,8.032-13.476,12.687l-.731-4.877c.673-.766,1.306-1.573,2.024-2.292q18.49-18.515,37.008-36.994c1.953-1.949,4.138-3.669,6.087-5.623A42.984,42.984,0,0,0-394.088,940.08Z" transform="translate(604.402 -800.993)" fill="#df6d1d"/>
    </g>
  </g>
</svg>
