<svg xmlns="http://www.w3.org/2000/svg" width="134" height="134" viewBox="0 0 134 134">
  <g id="Grupo_909105" data-name="Grupo 909105" transform="translate(-391 -3242.636)">
    <circle id="Elipse_7252" data-name="Elipse 7252" cx="67" cy="67" r="67" transform="translate(391 3242.636)" fill="#179587"/>
    <g id="Grupo_904921" data-name="Grupo 904921" transform="translate(-382.327 3057.196)">
      <path id="Trazado_634317" data-name="Trazado 634317" d="M806.4,247.256a20.778,20.778,0,0,1-7.595-6.377,17.288,17.288,0,0,1-2.58-4.679c-.3-.88-.586-1.767-.883-2.649a9.666,9.666,0,0,1-.532-2.651c0-.078-.11-.15-.169-.225v-4.991c.057-.061.152-.115.165-.183.074-.411.117-.828.193-1.239a13.715,13.715,0,0,1,.395-1.894c.353-1.045.784-2.063,1.2-3.087a18.661,18.661,0,0,1,3.062-4.9,16.229,16.229,0,0,1,3.485-3.237c1.086-.718,2.17-1.445,3.3-2.08a15.678,15.678,0,0,1,2.284-.939,18.892,18.892,0,0,1,1.824-.56c.75-.191,1.512-.333,2.267-.507a3.154,3.154,0,0,0,.451-.177h5.347a1.842,1.842,0,0,0,.553.256,17.006,17.006,0,0,1,4.009.967,21.372,21.372,0,0,1,6.344,3.581A20.468,20.468,0,0,1,834.74,218a19.881,19.881,0,0,1,2.058,5.589,21.669,21.669,0,0,1,.507,4.427c0,.086.008.172.012.253h1.167l3.841,0c.52.059,1.04.113,1.559.176a23.187,23.187,0,0,1,7.727,2.462,23.7,23.7,0,0,1,7.135,5.587,21.93,21.93,0,0,1,4.08,6.646c.4,1.047.737,2.121,1.066,3.193a24.834,24.834,0,0,1,.757,4.546,30.885,30.885,0,0,1-.07,4.034c-.223.338-.217.534.019.645l1.229.032,1.444.156.339.019.731.146.424.039.467.136.337.038.465.15.247.03.377.144.162.024.462.162.159.026.288.133.161.033.371.159.159.03.732.328.157.035.2.129.159.039.923.488c.716.423,1.453.816,2.145,1.274a20.827,20.827,0,0,1,7.3,8.692,27.852,27.852,0,0,1,1.194,3.135c.295,1.069.351,2.2.593,3.288a16.267,16.267,0,0,1,.135,4.009,18.384,18.384,0,0,1-.419,2.8,13.393,13.393,0,0,1-.471,2.012,23.118,23.118,0,0,1-1.264,3.125,29.879,29.879,0,0,1-2.112,3.408,18.847,18.847,0,0,1-3.5,3.646,21.757,21.757,0,0,1-4.8,2.991c-.858.388-1.779.639-2.674.944a20.473,20.473,0,0,1-7.795.853,17.6,17.6,0,0,1-2.861-.5,16.981,16.981,0,0,1-2.749-.761,34.352,34.352,0,0,1-3.459-1.7,19.3,19.3,0,0,1-5.574-4.692c-.645-.778-1.181-1.646-1.766-2.473l-.482-.739-.047-.156-.14-.2-.042-.158-.13-.2-.045-.156-.138-.2-.042-.157-.129-.2-.039-.157-.494-1.09-.033-.158-.163-.372-.03-.161-.15-.373-.025-.162-.15-.373-.024-.162-.151-.463-.034-.25-.137-.377-.038-.337-.147-.553-.032-.339-.145-.731-.027-.427-.151-1.355-.033-1.23c-.111-.235-.308-.241-.644-.019a25.6,25.6,0,0,1-2.573.141,34.124,34.124,0,0,1-3.972-.349,28.218,28.218,0,0,1-3.236-.824,22.212,22.212,0,0,1-6.86-3.392,23.225,23.225,0,0,1-6.929-7.714,32.917,32.917,0,0,1-1.944-4.346,19.476,19.476,0,0,1-.765-3.127c-.17-.872-.248-1.762-.367-2.643q0-1.92,0-3.84l.02-.693c.1-.157.3-.319-.018-.46l-1.393-.037-1.28-.154-.5-.029-.659-.149-.323-.026-.478-.14-.326-.035-.566-.164-.146-.016-.388-.146-.154-.023-.471-.164-.145-.026-.3-.14-.152-.026-.381-.161-.145-.029-.218-.133-.151-.029-.378-.169-.141-.032-.213-.139-.147-.033-.214-.139-.147-.033Zm25.5,24.815a.025.025,0,0,0,.033.026l.135.068.237.058.219.119.175.038.093.054.026.02.14.065.373.124.162.057.184.029.179.092,0,0,.169.056.27.042.276.124.348.053.354.131.361.04.53.147.361.034.531.138.628.039,1.062.143h3.131l1.064-.142.626-.039.533-.137.447-.041.443-.138.362-.042.166-.051,0,0,.182-.083.261-.044c.859-.286,1.737-.525,2.572-.869a20.657,20.657,0,0,0,5.884-3.674,21.394,21.394,0,0,0,5.786-8.371,19.446,19.446,0,0,0,1.311-5.61,21.3,21.3,0,0,0-.641-7.475,20.364,20.364,0,0,0-2.611-5.884,27.6,27.6,0,0,0-1.984-2.693,19.83,19.83,0,0,0-7.107-5.256c-1.041-.455-2.138-.779-3.21-1.163l-.26-.045-.354-.136-.359-.042-.185-.076-.007,0-.249-.058-.45-.043-.533-.136-.626-.04-1.063-.14h-3.131l-1.064.14-.626.04-.534.136-.54.051-.16.049-.007,0-.185.075-.358.042-.441.147-.275.036-.155.056-.01.007-.185.079-.182.025-.355.146-.179.032-.355.148-.182.033-.155.062-.282.115-.226.118-.226.06-.1.045-.074.051-.082.05-.535.212-.212.127-.145.048-.205.133a1.7,1.7,0,0,0-.294.094,20.872,20.872,0,0,0-8.26,7.74A20.529,20.529,0,0,0,819.05,252.2a22.229,22.229,0,0,0,.7,5.82,21.336,21.336,0,0,0,3.456,7.191,20.213,20.213,0,0,0,6.627,5.837l.1.053.09.032.089.072.608.293.2.131.155.048.2.128.168.043.094.068.277.1Zm-20.443-37.586a6.588,6.588,0,0,0-3.281,1.493,7.29,7.29,0,0,0-2.632,4.065,17.209,17.209,0,0,0-.219,2.632.535.535,0,0,0,.312.56c.686.4,1.36.814,2.047,1.208a5.585,5.585,0,0,0,.684.276c0-1.084-.046-2.08.014-3.07a1.486,1.486,0,0,1,1.566-1.331,1.642,1.642,0,0,1,1.469,1.717q-.019,1.714.006,3.43c0,.148.1.4.2.423.75.152,1.51.258,2.267.379.8.06,1.592.111,2.386.184.342.031.479-.105.572-.433a25.367,25.367,0,0,1,1.793-4.554,21.162,21.162,0,0,1,2.7-4.163c.433-.513.87-1.024,1.319-1.524.163-.181.27-.367.014-.506a6.52,6.52,0,0,0-3-.905l-7.567-.007Zm57.589,24.725a3.332,3.332,0,0,1-.478-.068,14.821,14.821,0,0,0-4.345-.491c-.187,0-.336,0-.379.253a5.306,5.306,0,0,1-.237.743c-.231.7-.462,1.407-.708,2.155a3.284,3.284,0,0,0,.529-.036,7.449,7.449,0,0,1,3.182.07,10.508,10.508,0,0,1,5.959,3.374,10.655,10.655,0,0,1,1.807,11.542,10.152,10.152,0,0,1-2.783,3.659c-.052.042-.043.234.007.308s.2.034.287.075a10.74,10.74,0,0,1,5.569,5.478l.855,2.59.131.065c.6-.835,1.251-1.636,1.779-2.513a17.363,17.363,0,0,0,2.315-5.928,19.938,19.938,0,0,0,.4-4.067c-.015-.54-.1-1.078-.158-1.616a13.749,13.749,0,0,0-.227-1.653,20.578,20.578,0,0,0-1.37-4.006,18.367,18.367,0,0,0-2.627-4.08,17.924,17.924,0,0,0-7.185-5.122c-.581-.227-1.2-.371-1.794-.554l-.306-.062Zm-8.012,19.767.187.129.171.045.17.109.188.06.359.157.173.034.362.139.262.037.452.131.707.046.979,0,.44-.033a5.341,5.341,0,0,0,2.567-.707,7.557,7.557,0,0,0,3.969-8.672,7.373,7.373,0,0,0-3.157-4.418,6.033,6.033,0,0,0-3.372-1.15,3.315,3.315,0,0,0-.955-.133,19.869,19.869,0,0,0-2.655.551,3.109,3.109,0,0,0-1.689,1.267,15.937,15.937,0,0,1-1.93,2.406,3.735,3.735,0,0,0-1.121,2.333,7.492,7.492,0,0,0,1.285,5.365A6.564,6.564,0,0,0,861.034,278.977Zm-44.295-62.9a5.9,5.9,0,0,0-3.1.3,6.883,6.883,0,0,0-3.258,2.116,7.546,7.546,0,0,0,6.357,12.63,2.26,2.26,0,0,0,.4,0,7.564,7.564,0,0,0,6.137-9.423,7.426,7.426,0,0,0-3.189-4.449A6.782,6.782,0,0,0,816.739,216.074Zm51.605,67.01c-2.553,0-5.106-.019-7.659,0a4.314,4.314,0,0,0-1.278.268,8.263,8.263,0,0,0-2.433,1.278,7.516,7.516,0,0,0-2.349,3.082,8.077,8.077,0,0,0-.548,3.759.6.6,0,0,0,.206.423c.645.41,1.307.792,1.969,1.173.244.14.5.251.824.408,0-1.006-.005-1.895,0-2.785a1.613,1.613,0,0,1,.089-.649,1.483,1.483,0,0,1,1.866-.883,1.521,1.521,0,0,1,1.1,1.536c-.009,1.173-.009,2.346.006,3.518,0,.145.1.4.186.416.974.179,1.954.321,2.932.473.048.028.1.079.143.08.9,0,1.8,0,2.7-.012.1,0,.191-.1.287-.146.762-.118,1.521-.287,2.287-.336.524-.033.548-.287.542-.685-.016-1.066.014-2.133-.011-3.2a1.6,1.6,0,0,1,1.046-1.644,1.63,1.63,0,0,1,1.848.69,6.812,6.812,0,0,1,.162.967c.023.854.008,1.71.008,2.581.107,0,.177.022.221,0,.879-.512,1.757-1.026,2.628-1.551a.387.387,0,0,0,.17-.257,8.161,8.161,0,0,0-.589-3.987,7.472,7.472,0,0,0-2.639-3.209A7.079,7.079,0,0,0,868.344,283.084ZM831,230.048c.961-.327,1.92-.658,2.882-.978a.405.405,0,0,0,.333-.477c-.116-1.206-.19-2.416-.335-3.618a14.675,14.675,0,0,0-1.2-4.053,15.743,15.743,0,0,0-2.748-4.439,22.848,22.848,0,0,0-3.133-2.949,24.7,24.7,0,0,0-3.669-2.121,13.69,13.69,0,0,0-2.121-.686,11.869,11.869,0,0,0-1.43-.443c-.729-.134-1.475-.174-2.21-.282a14.9,14.9,0,0,0-4.653.193,17.3,17.3,0,0,0-4.123,1.3,18.1,18.1,0,0,0-8.009,6.821,17.584,17.584,0,0,0-2.374,5.581,18.959,18.959,0,0,0-.433,3.062,24.848,24.848,0,0,0,.077,3.507,15.448,15.448,0,0,0,.525,2.55,12.09,12.09,0,0,0,.785,2.345c.631,1.25,1.368,2.449,2.1,3.645a12.3,12.3,0,0,0,1.052,1.274,10.969,10.969,0,0,1,6.867-8.387,10.612,10.612,0,0,1-3.867-8.618,10.267,10.267,0,0,1,4.33-8.245,10.494,10.494,0,0,1,12.007-.438,10.211,10.211,0,0,1,4.181,5.019,10.734,10.734,0,0,1,.423,6.672,10.917,10.917,0,0,1-3.537,5.622c.249.11.381.166.512.225l1.347.6c.453.555.746.616,1.187.328,1.1-.715,2.208-1.4,3.309-2.111a1.418,1.418,0,0,0,.244-.264Zm15.411,46.1a18.638,18.638,0,0,0,4.6,12.865,11.113,11.113,0,0,1,6.9-8.4,11.737,11.737,0,0,1-2.776-3.511,10.627,10.627,0,0,1-1.1-4.393A26.637,26.637,0,0,1,846.41,276.146Z" fill="#080a0a"/>
      <path id="Trazado_634318" data-name="Trazado 634318" d="M926.967,218.663c.093.078.192.15.279.236.519.512,1.048,1.017,1.551,1.545a1.575,1.575,0,0,1-.029,2.184,1.468,1.468,0,0,1-2.166.013c-1.538-1.515-3.07-3.036-4.575-4.584a1.424,1.424,0,0,1,0-2.156q2.276-2.292,4.57-4.567a1.384,1.384,0,0,1,1.308-.46,1.587,1.587,0,0,1,1.358,1.46,1.81,1.81,0,0,1-.5,1.143c-.572.642-1.235,1.2-1.862,1.8l.05.167c.337.055.672.124,1.01.163,1.161.132,2.332.206,3.484.392.961.156,1.9.433,2.85.664.749.183,1.508.338,2.239.578.916.3,1.814.662,2.708,1.024.844.342,1.7.675,2.506,1.091,1.319.68,2.63,1.382,3.9,2.15a37.693,37.693,0,0,1,7.848,6.424,36.179,36.179,0,0,1,4.5,5.753c.886,1.427,1.667,2.924,2.419,4.428.586,1.172,1.089,2.39,1.563,3.613a22.685,22.685,0,0,1,.747,2.484c.315,1.212.627,2.428.875,3.655a23.449,23.449,0,0,1,.288,2.385c.149,1.531.312,3.062.406,4.6a1.61,1.61,0,0,1-.784,1.515,1.568,1.568,0,0,1-2.365-1.237c-.02-.266,0-.535-.013-.8-.06-1.173-.1-2.348-.2-3.517a21.53,21.53,0,0,0-.357-2.393c-.2-1.005-.418-2.012-.711-2.994-.359-1.2-.789-2.39-1.212-3.574a31.707,31.707,0,0,0-3.175-6.315,36.741,36.741,0,0,0-16.737-14.154c-1.13-.483-2.293-.9-3.461-1.282-.772-.253-1.588-.369-2.373-.584a24.869,24.869,0,0,0-4.834-.783c-.343-.025-.682-.1-1.023-.149Z" transform="translate(-79.773 -2.491)" fill="#0b0b0d"/>
      <path id="Trazado_634319" data-name="Trazado 634319" d="M798.938,326.746a1.526,1.526,0,0,1,2.8-.253,2.147,2.147,0,0,1,.216.912c.032.845-.037,1.7.035,2.537.1,1.156.261,2.309.452,3.454.16.955.385,1.9.609,2.841a19.564,19.564,0,0,0,.646,2.4,42.807,42.807,0,0,0,3.132,6.886,37.877,37.877,0,0,0,8.04,9.547,37.4,37.4,0,0,0,7.893,5.123c1.118.545,2.271,1.027,3.436,1.462a25.441,25.441,0,0,0,2.627.759c1.325.338,2.651.674,3.988.952.641.133,1.311.127,1.967.2.4.042.8.106,1.316.177a4.307,4.307,0,0,0-.324-.441c-.471-.482-.955-.952-1.427-1.433a1.544,1.544,0,0,1-.044-2.171,1.467,1.467,0,0,1,2.169-.082c1.153,1.115,2.266,2.272,3.4,3.411.38.383.765.762,1.14,1.15a1.524,1.524,0,0,1-.042,2.334c-1.452,1.456-2.892,2.924-4.358,4.365a1.5,1.5,0,0,1-1.541.539,1.537,1.537,0,0,1-1.24-1.577,1.819,1.819,0,0,1,.486-1.017c.584-.648,1.236-1.234,1.964-1.946-.468-.079-.79-.143-1.115-.186-1.239-.164-2.481-.306-3.717-.488-.757-.111-1.513-.248-2.255-.429-.773-.188-1.533-.433-2.293-.671-.741-.232-1.488-.455-2.21-.736a36.516,36.516,0,0,1-3.541-1.48,50.761,50.761,0,0,1-4.623-2.669,37.513,37.513,0,0,1-6.481-5.392,39.229,39.229,0,0,1-4.726-5.919,36.683,36.683,0,0,1-2.818-5.11c-.543-1.241-1.085-2.485-1.555-3.753a27.039,27.039,0,0,1-.746-2.625c-.2-.76-.391-1.524-.533-2.3q-.308-1.678-.532-3.371c-.1-.736-.131-1.482-.193-2.223Z" transform="translate(-2.701 -74.687)" fill="#0b0b0d"/>
      <path id="Trazado_634320" data-name="Trazado 634320" d="M916.552,264.192l-3.841,0c.111-.053.221-.15.332-.151q1.589-.018,3.178,0C916.332,264.043,916.441,264.139,916.552,264.192Z" transform="translate(-74.228 -35.931)" fill="#9a979c"/>
      <path id="Trazado_634321" data-name="Trazado 634321" d="M851.955,324.952q0,1.92,0,3.84c-.052-.11-.149-.22-.15-.331q-.016-1.589,0-3.178C851.8,325.173,851.9,325.062,851.955,324.952Z" transform="translate(-35.931 -74.228)" fill="#9a979c"/>
      <path id="Trazado_634322" data-name="Trazado 634322" d="M798.639,328.549l0,2.772c-.053-.111-.148-.221-.151-.333-.022-.691-.031-1.383-.022-2.074C798.465,328.791,798.578,328.67,798.639,328.549Z" transform="translate(-2.401 -76.489)" fill="#9a979c"/>
      <path id="Trazado_634323" data-name="Trazado 634323" d="M925.794,398.59l.151,1.355Z" transform="translate(-82.452 -120.522)" fill="#626066"/>
      <path id="Trazado_634324" data-name="Trazado 634324" d="M987.792,338.187l-1.444-.156Z" transform="translate(-120.521 -82.451)" fill="#626066"/>
      <path id="Trazado_634325" data-name="Trazado 634325" d="M845.036,321.331l1.28.154Z" transform="translate(-31.682 -71.952)" fill="#9a979c"/>
      <path id="Trazado_634326" data-name="Trazado 634326" d="M929.663,416.341l.494,1.09Z" transform="translate(-84.885 -131.682)" fill="#626066"/>
      <path id="Trazado_634327" data-name="Trazado 634327" d="M926.274,403.389l.145.731Z" transform="translate(-82.754 -123.539)" fill="#626066"/>
      <path id="Trazado_634328" data-name="Trazado 634328" d="M991.882,338.648l-.731-.146Z" transform="translate(-123.54 -82.747)" fill="#626066"/>
      <path id="Trazado_634329" data-name="Trazado 634329" d="M1008.393,343.785l-.923-.488Z" transform="translate(-133.799 -85.761)" fill="#626066"/>
      <path id="Trazado_634330" data-name="Trazado 634330" d="M933.015,423.54l.482.739Z" transform="translate(-86.992 -136.207)" fill="#626066"/>
      <path id="Trazado_634331" data-name="Trazado 634331" d="M1004.84,342.193l-.732-.328Z" transform="translate(-131.686 -84.861)" fill="#626066"/>
      <path id="Trazado_634332" data-name="Trazado 634332" d="M926.752,406.27l.147.553Z" transform="translate(-83.055 -125.35)" fill="#626066"/>
      <path id="Trazado_634333" data-name="Trazado 634333" d="M841.916,320.853l.659.149Z" transform="translate(-29.721 -71.651)" fill="#9a979c"/>
      <path id="Trazado_634334" data-name="Trazado 634334" d="M982.731,336.855c-.236-.111-.242-.307-.019-.645Z" transform="translate(-118.133 -81.306)" fill="#626066"/>
      <path id="Trazado_634335" data-name="Trazado 634335" d="M923.971,394.953c.336-.222.533-.216.644.019Z" transform="translate(-81.306 -118.133)" fill="#626066"/>
      <path id="Trazado_634336" data-name="Trazado 634336" d="M837.355,319.873l.566.164Z" transform="translate(-26.854 -71.035)" fill="#9a979c"/>
      <path id="Trazado_634337" data-name="Trazado 634337" d="M927.708,410.351l.151.463Z" transform="translate(-83.656 -127.916)" fill="#626066"/>
      <path id="Trazado_634338" data-name="Trazado 634338" d="M994.729,339.137l-.468-.136Z" transform="translate(-125.496 -83.06)" fill="#626066"/>
      <path id="Trazado_634339" data-name="Trazado 634339" d="M839.758,320.408l.478.14Z" transform="translate(-28.364 -71.371)" fill="#9a979c"/>
      <path id="Trazado_634340" data-name="Trazado 634340" d="M996.893,339.619l-.465-.15Z" transform="translate(-126.858 -83.355)" fill="#626066"/>
      <path id="Trazado_634341" data-name="Trazado 634341" d="M1000.258,340.566l-.462-.162Z" transform="translate(-128.975 -83.942)" fill="#626066"/>
      <path id="Trazado_634342" data-name="Trazado 634342" d="M834.236,318.933l.471.164Z" transform="translate(-24.893 -70.444)" fill="#9a979c"/>
      <path id="Trazado_634343" data-name="Trazado 634343" d="M998.723,340.1l-.376-.144Z" transform="translate(-128.064 -83.659)" fill="#626066"/>
      <path id="Trazado_634344" data-name="Trazado 634344" d="M928.18,412.033l.15.373Z" transform="translate(-83.952 -128.973)" fill="#626066"/>
      <path id="Trazado_634345" data-name="Trazado 634345" d="M1003.05,341.514l-.371-.159Z" transform="translate(-130.788 -84.54)" fill="#626066"/>
      <path id="Trazado_634346" data-name="Trazado 634346" d="M829.2,317.011l.378.169Z" transform="translate(-21.725 -69.236)" fill="#9a979c"/>
      <path id="Trazado_634347" data-name="Trazado 634347" d="M852.234,321.847c.314.141.122.3.018.46Z" transform="translate(-36.208 -72.276)" fill="#9a979c"/>
      <path id="Trazado_634348" data-name="Trazado 634348" d="M927.248,408.665l.137.376Z" transform="translate(-83.367 -126.856)" fill="#626066"/>
      <path id="Trazado_634349" data-name="Trazado 634349" d="M831.6,317.981l.381.161Z" transform="translate(-23.234 -69.846)" fill="#9a979c"/>
      <path id="Trazado_634350" data-name="Trazado 634350" d="M928.652,413.475l.15.373Z" transform="translate(-84.249 -129.88)" fill="#626066"/>
      <path id="Trazado_634351" data-name="Trazado 634351" d="M835.918,319.436l.388.146Z" transform="translate(-25.95 -70.76)" fill="#9a979c"/>
      <path id="Trazado_634352" data-name="Trazado 634352" d="M929.136,414.914l.163.372Z" transform="translate(-84.553 -130.784)" fill="#626066"/>
      <path id="Trazado_634353" data-name="Trazado 634353" d="M1001.756,341.041l-.288-.133Z" transform="translate(-130.026 -84.259)" fill="#626066"/>
      <path id="Trazado_634354" data-name="Trazado 634354" d="M931.1,419.7l.129.2Z" transform="translate(-85.787 -133.793)" fill="#626066"/>
      <path id="Trazado_634355" data-name="Trazado 634355" d="M833.034,318.486l.3.14Z" transform="translate(-24.137 -70.163)" fill="#9a979c"/>
      <path id="Trazado_634356" data-name="Trazado 634356" d="M931.557,420.665l.138.2Z" transform="translate(-86.075 -134.4)" fill="#626066"/>
      <path id="Trazado_634357" data-name="Trazado 634357" d="M932.048,421.622l.13.2Z" transform="translate(-86.384 -135.002)" fill="#626066"/>
      <path id="Trazado_634358" data-name="Trazado 634358" d="M932.512,422.587l.14.2Z" transform="translate(-86.676 -135.608)" fill="#626066"/>
      <path id="Trazado_634359" data-name="Trazado 634359" d="M1006.7,342.972l-.2-.129Z" transform="translate(-133.19 -85.476)" fill="#626066"/>
      <path id="Trazado_634360" data-name="Trazado 634360" d="M828.244,316.552l.213.139Z" transform="translate(-21.126 -68.947)" fill="#9a979c"/>
      <path id="Trazado_634361" data-name="Trazado 634361" d="M827.273,316.088l.214.139Z" transform="translate(-20.515 -68.656)" fill="#9a979c"/>
      <path id="Trazado_634362" data-name="Trazado 634362" d="M826.309,315.614l.211.143Z" transform="translate(-19.909 -68.358)" fill="#9a979c"/>
      <path id="Trazado_634363" data-name="Trazado 634363" d="M830.622,317.545l.218.133Z" transform="translate(-22.621 -69.572)" fill="#9a979c"/>
      <path id="Trazado_634364" data-name="Trazado 634364" d="M875.887,273.462l.275-.036.441-.147.358-.042.185-.075.006,0,.16-.049.54-.051.534-.136.626-.04,1.064-.14h3.131l1.063.14.626.04.533.136.45.043.249.058.007,0,.185.076.359.042.354.137.26.045c.308.188.626.362.921.567,1.294.9,2.594,1.786,3.864,2.715a9.421,9.421,0,0,1,1.368,1.248c.586.64,1.133,1.317,1.667,2a15.1,15.1,0,0,1,1.5,2.084A22.471,22.471,0,0,1,899,287.693c.207.931.53,1.842.664,2.782a25.957,25.957,0,0,1,.194,3.164,14.676,14.676,0,0,1-.339,4.324c-.216.764-.317,1.562-.548,2.321a24.156,24.156,0,0,1-1.037,2.907,28.352,28.352,0,0,1-1.632,3.051,14.784,14.784,0,0,1-1.686,2.34,35.46,35.46,0,0,1-3.148,3.053,31.937,31.937,0,0,1-2.853,1.99c-.431.292-.882.555-1.323.831l-.261.044-.182.083,0,0-.166.051-.362.042-.443.138-.448.041L884.9,315l-.626.039-1.064.142h-3.131l-1.062-.143-.628-.039-.531-.138-.361-.033-.529-.147-.361-.04-.354-.131-.348-.053-.276-.124-.27-.042-.169-.056,0,0-.179-.092-.184-.029-.162-.057-.372-.124-.14-.065-.026-.019-.093-.055-.175-.038-.219-.119-.236-.058-.135-.068a.025.025,0,0,1-.033-.026l-.086-.049-.277-.1-.094-.068-.168-.043-.2-.128-.155-.048-.2-.131-.608-.293-.089-.072-.09-.032-.1-.053a20.214,20.214,0,0,1-6.627-5.837,21.335,21.335,0,0,1-3.456-7.191,22.237,22.237,0,0,1-.7-5.82,20.53,20.53,0,0,1,3.109-10.763,20.873,20.873,0,0,1,8.26-7.74,1.7,1.7,0,0,1,.294-.094l.205-.133.145-.048.212-.127.535-.212.082-.05.074-.051.1-.045.226-.06.226-.118.282-.115.155-.062.182-.033.355-.148.179-.032.355-.146.182-.025.185-.079.01-.007Zm1.172,24.431c-.654-.68-1.264-1.343-1.907-1.972a1.608,1.608,0,0,0-2.2.009,1.517,1.517,0,0,0,0,2.155q1.531,1.578,3.118,3.1a1.246,1.246,0,0,0,1.505.3,3.65,3.65,0,0,0,.885-.634q3.352-3.325,6.681-6.673,2.554-2.555,5.107-5.113a1.549,1.549,0,1,0-2.167-2.207c-1.871,1.847-3.724,3.712-5.58,5.573C880.7,294.227,878.915,296.028,877.06,297.893Z" transform="translate(-41.327 -41.405)" fill="#5f9b1f"/>
      <path id="Trazado_634365" data-name="Trazado 634365" d="M829.849,237.834l-1.347-.6c-.131-.059-.263-.115-.512-.225a10.917,10.917,0,0,0,3.537-5.622,10.735,10.735,0,0,0-.423-6.672,10.21,10.21,0,0,0-4.181-5.019,10.494,10.494,0,0,0-12.007.438,10.267,10.267,0,0,0-4.33,8.245,10.613,10.613,0,0,0,3.867,8.618,10.969,10.969,0,0,0-6.867,8.387,12.3,12.3,0,0,1-1.052-1.274c-.732-1.2-1.469-2.395-2.1-3.645a12.09,12.09,0,0,1-.785-2.345,15.454,15.454,0,0,1-.525-2.55,24.848,24.848,0,0,1-.077-3.507,18.959,18.959,0,0,1,.433-3.062,17.585,17.585,0,0,1,2.374-5.581,18.1,18.1,0,0,1,8.009-6.821,17.3,17.3,0,0,1,4.123-1.3,14.9,14.9,0,0,1,4.653-.193c.734.108,1.481.147,2.21.282a11.864,11.864,0,0,1,1.43.443c.215.194.415.408.646.58,1.037.772,2.13,1.476,3.116,2.309a15.811,15.811,0,0,1,3.33,4.02,24.545,24.545,0,0,1,1.853,3.71,18.745,18.745,0,0,1,1.22,7.575,9.489,9.489,0,0,1-.178,1.127l-1.677.638a7.2,7.2,0,0,0-.8.2c-.827.309-1.661.607-2.464.972A15.076,15.076,0,0,0,829.849,237.834Z" transform="translate(-5.267 -5.1)" fill="#11aac6"/>
      <path id="Trazado_634366" data-name="Trazado 634366" d="M963.852,424.1c-.978-.152-1.959-.294-2.932-.473-.087-.016-.184-.271-.186-.416-.015-1.173-.015-2.346-.006-3.518a1.521,1.521,0,0,0-1.1-1.536,1.483,1.483,0,0,0-1.866.883,1.613,1.613,0,0,0-.089.649c-.009.89,0,1.779,0,2.785-.319-.157-.58-.268-.824-.408-.662-.381-1.325-.763-1.969-1.173a.6.6,0,0,1-.206-.423,8.077,8.077,0,0,1,.548-3.759,7.516,7.516,0,0,1,2.349-3.082A8.262,8.262,0,0,1,960,412.355a4.314,4.314,0,0,1,1.278-.268c2.552-.022,5.106-.006,7.659,0,.343.3.7.6,1.027.912a7.261,7.261,0,0,1,1.842,2.38c.259.618.479,1.253.7,1.887a9.687,9.687,0,0,1,.33,1.191c.024.118-.088.265-.138.4a1.63,1.63,0,0,0-1.848-.69,1.6,1.6,0,0,0-1.046,1.644c.025,1.066,0,2.133.011,3.2.006.4-.018.652-.542.685-.766.049-1.525.218-2.287.336-.979,0-1.958-.008-2.938-.006C963.979,424.021,963.916,424.075,963.852,424.1Z" transform="translate(-100.59 -129)" fill="#f38107"/>
      <path id="Trazado_634367" data-name="Trazado 634367" d="M839.936,246.507a7.546,7.546,0,0,1-6.357-12.63,6.883,6.883,0,0,1,3.258-2.116,5.9,5.9,0,0,1,3.1-.3c.082.131.133.315.251.384a6.216,6.216,0,0,1,2.045,2.206,10.4,10.4,0,0,1,.958,2.088,7.809,7.809,0,0,1,.468,2.1,6.073,6.073,0,0,1-.141,2.5c-.2.55-.293,1.143-.494,1.694a6.85,6.85,0,0,1-1.384,2.323c-.414.45-.863.868-1.292,1.3C840.2,246.206,840.072,246.359,839.936,246.507Z" transform="translate(-23.195 -15.389)" fill="#ffd7a0"/>
      <path id="Trazado_634368" data-name="Trazado 634368" d="M971.2,377.8l-.44.033-.98,0-.707-.046-.452-.131-.262-.037-.362-.139-.173-.034-.359-.157-.188-.06-.17-.109-.171-.045-.187-.129a6.564,6.564,0,0,1-2.606-2.3,7.493,7.493,0,0,1-1.285-5.365,3.736,3.736,0,0,1,1.121-2.333,15.944,15.944,0,0,0,1.929-2.406,3.109,3.109,0,0,1,1.689-1.267,19.868,19.868,0,0,1,2.655-.551,3.315,3.315,0,0,1,.955.133c.085.114.146.271.259.335a5.52,5.52,0,0,1,1.875,2.007,11.863,11.863,0,0,1,1.1,2.256,9.141,9.141,0,0,1,.489,2.2,8.7,8.7,0,0,1-.313,3.029,8.3,8.3,0,0,1-1.853,3.51C972.263,376.743,971.719,377.262,971.2,377.8Z" transform="translate(-105.712 -97.964)" fill="#ffd7a0"/>
      <path id="Trazado_634369" data-name="Trazado 634369" d="M984.836,346.976l.306.062a5.859,5.859,0,0,0,.638.507,19.957,19.957,0,0,1,4.957,4.167,19.5,19.5,0,0,1,2.56,3.78,16.585,16.585,0,0,1,1.611,4.373c.216,1.1.429,2.212.557,3.329a20.235,20.235,0,0,1,.017,2.268c-.056.1-.152.2-.16.3-.021.288,0,.578,0,.867a11.753,11.753,0,0,1-.218,1.822c-.362,1.309-.777,2.606-1.235,3.885a11.7,11.7,0,0,1-.847,1.583,10.74,10.74,0,0,0-5.568-5.478c-.091-.041-.245-.014-.287-.075s-.06-.266-.007-.308a10.152,10.152,0,0,0,2.783-3.659,10.655,10.655,0,0,0-1.807-11.542,10.507,10.507,0,0,0-5.959-3.374,7.45,7.45,0,0,0-3.182-.07,3.283,3.283,0,0,1-.529.036c.246-.748.476-1.452.708-2.155a5.3,5.3,0,0,0,.237-.743c.043-.253.192-.251.379-.253a14.822,14.822,0,0,1,4.345.491,3.338,3.338,0,0,0,.478.068Z" transform="translate(-115.562 -87.647)" fill="#11aac6"/>
      <path id="Trazado_634370" data-name="Trazado 634370" d="M932.861,315.674c.441-.276.892-.539,1.323-.831a31.943,31.943,0,0,0,2.853-1.99,35.464,35.464,0,0,0,3.148-3.053,14.784,14.784,0,0,0,1.686-2.341,28.349,28.349,0,0,0,1.632-3.051,24.16,24.16,0,0,0,1.037-2.907c.231-.759.332-1.557.548-2.321a14.676,14.676,0,0,0,.339-4.324,25.957,25.957,0,0,0-.194-3.164c-.134-.94-.457-1.851-.664-2.782a22.471,22.471,0,0,0-2.385-5.616,15.091,15.091,0,0,0-1.5-2.084c-.534-.685-1.081-1.363-1.667-2a9.423,9.423,0,0,0-1.368-1.248c-1.27-.929-2.57-1.818-3.864-2.715-.3-.2-.613-.378-.921-.567,1.072.384,2.169.709,3.21,1.163a19.83,19.83,0,0,1,7.107,5.256,27.6,27.6,0,0,1,1.984,2.693,20.363,20.363,0,0,1,2.611,5.884,21.3,21.3,0,0,1,.641,7.475,19.448,19.448,0,0,1-1.311,5.61,21.393,21.393,0,0,1-5.786,8.371,20.654,20.654,0,0,1-5.884,3.674C934.6,315.149,933.72,315.387,932.861,315.674Z" transform="translate(-86.895 -42.623)" fill="#508223"/>
      <path id="Trazado_634371" data-name="Trazado 634371" d="M831.973,292.792c-.757-.12-1.516-.227-2.267-.379-.094-.019-.2-.276-.2-.423q-.025-1.714-.006-3.43a1.642,1.642,0,0,0-1.469-1.717,1.486,1.486,0,0,0-1.566,1.331c-.061.99-.014,1.986-.014,3.07a5.591,5.591,0,0,1-.684-.276c-.687-.395-1.361-.812-2.047-1.208a.535.535,0,0,1-.312-.56,17.208,17.208,0,0,1,.219-2.632,7.29,7.29,0,0,1,2.632-4.065,6.587,6.587,0,0,1,3.281-1.493l.648-.125,7.567.007c.282.252.579.491.836.765a.406.406,0,0,1,.036.39c-.734.787-1.53,1.519-2.226,2.337a18.59,18.59,0,0,0-1.912,2.579,39.587,39.587,0,0,0-1.912,3.792A15.054,15.054,0,0,0,831.973,292.792Z" transform="translate(-18.084 -46.525)" fill="#dc1c3c"/>
      <path id="Trazado_634372" data-name="Trazado 634372" d="M934.05,387.59a26.638,26.638,0,0,0,7.629-3.44,10.626,10.626,0,0,0,1.1,4.393,11.737,11.737,0,0,0,2.776,3.511,11.113,11.113,0,0,0-6.9,8.4A18.638,18.638,0,0,1,934.05,387.59Z" transform="translate(-87.641 -111.444)" fill="#11aac5"/>
      <path id="Trazado_634373" data-name="Trazado 634373" d="M1006.792,366.714a20.234,20.234,0,0,0-.017-2.268c-.127-1.116-.34-2.225-.557-3.329a16.584,16.584,0,0,0-1.611-4.373,19.5,19.5,0,0,0-2.56-3.78,19.957,19.957,0,0,0-4.957-4.167,5.862,5.862,0,0,1-.638-.507c.6.182,1.212.326,1.794.554a17.925,17.925,0,0,1,7.185,5.122,18.367,18.367,0,0,1,2.627,4.08,20.583,20.583,0,0,1,1.37,4.006,13.774,13.774,0,0,1,.227,1.653c.063.538.143,1.076.158,1.616a19.947,19.947,0,0,1-.4,4.067,17.364,17.364,0,0,1-2.315,5.928c-.528.877-1.182,1.678-1.779,2.513l-.131-.065-.855-2.59a11.7,11.7,0,0,0,.847-1.583c.458-1.279.873-2.576,1.235-3.885a11.754,11.754,0,0,0,.218-1.822,1.1,1.1,0,0,0,.162-.346C1006.814,367.265,1006.795,366.989,1006.792,366.714Z" transform="translate(-126.873 -88.901)" fill="#0b727d"/>
      <path id="Trazado_634374" data-name="Trazado 634374" d="M875.646,236.562a9.5,9.5,0,0,0,.178-1.127,18.745,18.745,0,0,0-1.22-7.575,24.545,24.545,0,0,0-1.853-3.71,15.811,15.811,0,0,0-3.33-4.02c-.986-.833-2.079-1.537-3.116-2.309-.231-.172-.432-.385-.646-.58a13.691,13.691,0,0,1,2.121.686,24.7,24.7,0,0,1,3.669,2.121A22.847,22.847,0,0,1,874.582,223a15.745,15.745,0,0,1,2.748,4.439,14.671,14.671,0,0,1,1.2,4.053c.144,1.2.219,2.413.335,3.618a.405.405,0,0,1-.333.477C877.566,235.9,876.607,236.235,875.646,236.562Z" transform="translate(-44.647 -6.514)" fill="#0b727d"/>
      <path id="Trazado_634375" data-name="Trazado 634375" d="M985.425,378.041c.523-.537,1.067-1.056,1.564-1.616a8.3,8.3,0,0,0,1.853-3.51,8.7,8.7,0,0,0,.313-3.029,9.141,9.141,0,0,0-.489-2.2,11.861,11.861,0,0,0-1.1-2.256,5.52,5.52,0,0,0-1.875-2.007c-.113-.064-.174-.221-.259-.335a6.033,6.033,0,0,1,3.372,1.15,7.373,7.373,0,0,1,3.157,4.418,7.557,7.557,0,0,1-3.969,8.672A5.341,5.341,0,0,1,985.425,378.041Z" transform="translate(-119.94 -98.206)" fill="#dab589"/>
      <path id="Trazado_634376" data-name="Trazado 634376" d="M854.155,246.684c.136-.149.267-.3.408-.445.43-.436.878-.854,1.292-1.3a6.85,6.85,0,0,0,1.384-2.323c.2-.551.29-1.144.494-1.694a6.073,6.073,0,0,0,.141-2.5,7.808,7.808,0,0,0-.468-2.1,10.4,10.4,0,0,0-.958-2.088,6.215,6.215,0,0,0-2.045-2.206c-.118-.07-.169-.253-.251-.384a6.782,6.782,0,0,1,3.349,1.173,7.426,7.426,0,0,1,3.189,4.449,7.564,7.564,0,0,1-6.137,9.423A2.26,2.26,0,0,1,854.155,246.684Z" transform="translate(-37.414 -15.565)" fill="#dab589"/>
      <path id="Trazado_634377" data-name="Trazado 634377" d="M846.477,292.8a15.056,15.056,0,0,1,.606-2.037,39.6,39.6,0,0,1,1.912-3.792,18.589,18.589,0,0,1,1.912-2.579c.7-.818,1.492-1.55,2.226-2.337a.406.406,0,0,0-.036-.39c-.257-.275-.554-.513-.836-.765a6.52,6.52,0,0,1,3,.905c.257.139.149.325-.014.506-.448.5-.885,1.01-1.319,1.524a21.163,21.163,0,0,0-2.7,4.163,25.367,25.367,0,0,0-1.793,4.554c-.092.328-.229.464-.572.433C848.069,292.915,847.272,292.865,846.477,292.8Z" transform="translate(-32.588 -46.537)" fill="#a9002e"/>
      <path id="Trazado_634378" data-name="Trazado 634378" d="M996.885,418.866c.05-.134.162-.28.138-.4a9.709,9.709,0,0,0-.33-1.191c-.217-.634-.437-1.269-.7-1.887a7.262,7.262,0,0,0-1.842-2.38c-.331-.316-.684-.609-1.027-.912a7.079,7.079,0,0,1,3.719,1.309,7.473,7.473,0,0,1,2.639,3.209,8.16,8.16,0,0,1,.589,3.987.387.387,0,0,1-.17.257c-.871.525-1.749,1.039-2.628,1.551-.044.026-.115,0-.221,0,0-.871.015-1.726-.008-2.581A6.812,6.812,0,0,0,996.885,418.866Z" transform="translate(-124.783 -129.013)" fill="#e96400"/>
      <path id="Trazado_634379" data-name="Trazado 634379" d="M875.275,273.038a15.087,15.087,0,0,1,1.479-.874c.8-.364,1.637-.662,2.464-.972a7.2,7.2,0,0,1,.8-.2,1.42,1.42,0,0,1-.244.264c-1.1.707-2.213,1.4-3.309,2.111C876.021,273.654,875.728,273.593,875.275,273.038Z" transform="translate(-50.693 -40.305)" fill="#0a707b"/>
      <path id="Trazado_634380" data-name="Trazado 634380" d="M979.44,444.328c.064-.029.127-.084.19-.084.979,0,1.958,0,2.938.006-.1.051-.19.145-.287.146-.9.014-1.8.013-2.7.012C979.535,444.407,979.488,444.355,979.44,444.328Z" transform="translate(-116.178 -149.223)" fill="#a6560a"/>
      <path id="Trazado_634381" data-name="Trazado 634381" d="M981.6,403.43l.979,0Z" transform="translate(-117.537 -123.565)" fill="#dab589"/>
      <path id="Trazado_634382" data-name="Trazado 634382" d="M921.854,386.777l1.064-.142Z" transform="translate(-79.975 -113.006)" fill="#508223"/>
      <path id="Trazado_634383" data-name="Trazado 634383" d="M922.92,272.882l-1.063-.14Z" transform="translate(-79.977 -41.405)" fill="#508223"/>
      <path id="Trazado_634384" data-name="Trazado 634384" d="M911.624,272.742l-1.064.14Z" transform="translate(-72.875 -41.405)" fill="#508223"/>
      <path id="Trazado_634385" data-name="Trazado 634385" d="M910.563,386.631l1.062.143Z" transform="translate(-72.877 -113.004)" fill="#508223"/>
      <path id="Trazado_634386" data-name="Trazado 634386" d="M907.972,273.226l-.534.136Z" transform="translate(-70.913 -41.71)" fill="#508223"/>
      <path id="Trazado_634387" data-name="Trazado 634387" d="M926.94,273.362l-.533-.136Z" transform="translate(-82.838 -41.71)" fill="#508223"/>
      <path id="Trazado_634388" data-name="Trazado 634388" d="M907.441,386.155l.531.138Z" transform="translate(-70.914 -112.705)" fill="#508223"/>
      <path id="Trazado_634389" data-name="Trazado 634389" d="M926.406,386.3l.533-.137Z" transform="translate(-82.837 -112.709)" fill="#508223"/>
      <path id="Trazado_634390" data-name="Trazado 634390" d="M978.481,402.952l.452.131Z" transform="translate(-115.575 -123.264)" fill="#dab589"/>
      <path id="Trazado_634391" data-name="Trazado 634391" d="M905.043,385.668l.53.147Z" transform="translate(-69.407 -112.398)" fill="#508223"/>
      <path id="Trazado_634392" data-name="Trazado 634392" d="M840.577,280.885l-.648.125Z" transform="translate(-28.472 -46.525)" fill="#a9002e"/>
      <path id="Trazado_634393" data-name="Trazado 634393" d="M903.328,274.188l-.441.147Z" transform="translate(-68.051 -42.314)" fill="#508223"/>
      <path id="Trazado_634394" data-name="Trazado 634394" d="M929.046,385.817l.443-.138Z" transform="translate(-84.497 -112.405)" fill="#508223"/>
      <path id="Trazado_634395" data-name="Trazado 634395" d="M898.678,275.611l-.355.148Z" transform="translate(-65.182 -43.209)" fill="#508223"/>
      <path id="Trazado_634396" data-name="Trazado 634396" d="M976.8,402.477l.362.139Z" transform="translate(-114.518 -122.966)" fill="#dab589"/>
      <path id="Trazado_634397" data-name="Trazado 634397" d="M975.369,401.962l.359.157Z" transform="translate(-113.619 -122.642)" fill="#dab589"/>
      <path id="Trazado_634398" data-name="Trazado 634398" d="M931.561,274.328l-.354-.137Z" transform="translate(-85.855 -42.316)" fill="#508223"/>
      <path id="Trazado_634399" data-name="Trazado 634399" d="M900.116,275.132l-.355.146Z" transform="translate(-66.086 -42.908)" fill="#508223"/>
      <path id="Trazado_634400" data-name="Trazado 634400" d="M903.118,385.208l.354.131Z" transform="translate(-68.197 -112.109)" fill="#508223"/>
      <path id="Trazado_634401" data-name="Trazado 634401" d="M901.437,384.732l.276.124Z" transform="translate(-67.14 -111.81)" fill="#508223"/>
      <path id="Trazado_634402" data-name="Trazado 634402" d="M973.44,401.039l.187.129Z" transform="translate(-112.406 -122.062)" fill="#dab589"/>
      <path id="Trazado_634403" data-name="Trazado 634403" d="M929.927,273.95l-.185-.076Z" transform="translate(-84.935 -42.117)" fill="#508223"/>
      <path id="Trazado_634404" data-name="Trazado 634404" d="M905.223,273.873l-.185.075Z" transform="translate(-69.404 -42.116)" fill="#508223"/>
      <path id="Trazado_634405" data-name="Trazado 634405" d="M931.669,385.279l.182-.083Z" transform="translate(-86.146 -112.102)" fill="#508223"/>
      <path id="Trazado_634406" data-name="Trazado 634406" d="M901.392,274.85l-.185.079Z" transform="translate(-66.995 -42.731)" fill="#508223"/>
      <path id="Trazado_634407" data-name="Trazado 634407" d="M892.755,381.384l.2.128Z" transform="translate(-61.682 -109.705)" fill="#508223"/>
      <path id="Trazado_634408" data-name="Trazado 634408" d="M899.766,384.216l.179.092Z" transform="translate(-66.089 -111.486)" fill="#508223"/>
      <path id="Trazado_634409" data-name="Trazado 634409" d="M974.4,401.507l.17.109Z" transform="translate(-113.011 -122.356)" fill="#dab589"/>
      <path id="Trazado_634410" data-name="Trazado 634410" d="M896.068,382.852l.219.119Z" transform="translate(-63.765 -110.628)" fill="#508223"/>
      <path id="Trazado_634411" data-name="Trazado 634411" d="M891.988,278.49l-.205.133Z" transform="translate(-61.071 -45.019)" fill="#508223"/>
      <path id="Trazado_634412" data-name="Trazado 634412" d="M892.939,278.017l-.212.127Z" transform="translate(-61.664 -44.722)" fill="#508223"/>
      <path id="Trazado_634413" data-name="Trazado 634413" d="M896.273,276.576l-.226.118Z" transform="translate(-63.751 -43.816)" fill="#508223"/>
      <path id="Trazado_634414" data-name="Trazado 634414" d="M891.8,380.9l.2.131Z" transform="translate(-61.081 -109.402)" fill="#508223"/>
      <path id="Trazado_634415" data-name="Trazado 634415" d="M995.243,347.925l-.228-.118Z" transform="translate(-125.969 -88.596)" fill="#0b727d"/>
      <path id="Trazado_634416" data-name="Trazado 634416" d="M929.3,273.766l-.249-.058Z" transform="translate(-84.502 -42.013)" fill="#508223"/>
      <path id="Trazado_634417" data-name="Trazado 634417" d="M931.213,385.477l.166-.051Z" transform="translate(-85.859 -112.246)" fill="#508223"/>
      <path id="Trazado_634418" data-name="Trazado 634418" d="M900.256,384.469l.169.056Z" transform="translate(-66.397 -111.645)" fill="#508223"/>
      <path id="Trazado_634419" data-name="Trazado 634419" d="M905.713,273.729l-.16.049Z" transform="translate(-69.727 -42.026)" fill="#508223"/>
      <path id="Trazado_634420" data-name="Trazado 634420" d="M898.833,383.983l.162.057Z" transform="translate(-65.503 -111.339)" fill="#508223"/>
      <path id="Trazado_634421" data-name="Trazado 634421" d="M897.452,383.475l.14.065Z" transform="translate(-64.635 -111.02)" fill="#508223"/>
      <path id="Trazado_634422" data-name="Trazado 634422" d="M895.068,382.512l.135.068Z" transform="translate(-63.136 -110.414)" fill="#508223"/>
      <path id="Trazado_634423" data-name="Trazado 634423" d="M897.57,276.1l-.155.062Z" transform="translate(-64.611 -43.515)" fill="#508223"/>
      <path id="Trazado_634424" data-name="Trazado 634424" d="M901.885,274.68l-.155.056Z" transform="translate(-67.325 -42.624)" fill="#508223"/>
      <path id="Trazado_634425" data-name="Trazado 634425" d="M897.13,383.276l.093.055Z" transform="translate(-64.432 -110.895)" fill="#508223"/>
      <path id="Trazado_634426" data-name="Trazado 634426" d="M894.749,382.309l.086.049Z" transform="translate(-62.935 -110.287)" fill="#508223"/>
      <path id="Trazado_634427" data-name="Trazado 634427" d="M889.921,379.92l.089.072Z" transform="translate(-59.9 -108.785)" fill="#508223"/>
      <path id="Trazado_634428" data-name="Trazado 634428" d="M889.417,379.691l.1.053Z" transform="translate(-59.583 -108.641)" fill="#508223"/>
      <path id="Trazado_634429" data-name="Trazado 634429" d="M894.82,277.313l-.082.05Z" transform="translate(-62.928 -44.279)" fill="#508223"/>
      <path id="Trazado_634430" data-name="Trazado 634430" d="M895.261,277.056l-.1.045Z" transform="translate(-63.192 -44.117)" fill="#508223"/>
      <path id="Trazado_634431" data-name="Trazado 634431" d="M893.75,381.845l.094.068Z" transform="translate(-62.307 -109.995)" fill="#508223"/>
      <path id="Trazado_634432" data-name="Trazado 634432" d="M897.582,320.9c1.855-1.865,3.643-3.667,5.436-5.464,1.857-1.861,3.709-3.726,5.58-5.573a1.549,1.549,0,1,1,2.167,2.207q-2.548,2.562-5.107,5.113-3.338,3.34-6.681,6.673a3.649,3.649,0,0,1-.885.634,1.246,1.246,0,0,1-1.505-.3q-1.588-1.521-3.118-3.1a1.517,1.517,0,0,1,0-2.155,1.608,1.608,0,0,1,2.2-.009C896.318,319.558,896.927,320.221,897.582,320.9Z" transform="translate(-61.849 -64.413)" fill="#080a0a"/>
      <path id="Trazado_634433" data-name="Trazado 634433" d="M1024.008,397.905c0,.275.022.551,0,.824a1.1,1.1,0,0,1-.162.346c0-.289-.018-.579,0-.867C1023.856,398.1,1023.953,398.006,1024.008,397.905Z" transform="translate(-144.089 -120.091)" fill="#008fa2"/>
    </g>
  </g>
</svg>
