<svg xmlns="http://www.w3.org/2000/svg" width="134" height="134" viewBox="0 0 134 134">
  <g id="Grupo_909122" data-name="Grupo 909122" transform="translate(-1083 -1814.636)">
    <circle id="Elipse_7379" data-name="Elipse 7379" cx="67" cy="67" r="67" transform="translate(1083 1814.636)" fill="#222b5a"/>
    <g id="Grupo_906664" data-name="Grupo 906664" transform="translate(-200.306 1289.057)">
      <path id="Trazado_640508" data-name="Trazado 640508" d="M1377.222,575.029a10.87,10.87,0,0,1,.88,1.126c1,1.676,1.94,3.387,2.957,5.052,1.446,2.371,2.942,4.712,4.412,7.07a46.506,46.506,0,0,1,2.829,4.664,4.686,4.686,0,0,1,.15,3.864,9.354,9.354,0,0,1-1.829,3.13,6.867,6.867,0,0,1-2.346,1.346c-.263.12-.533.224-.8.335-.217,0-.434-.012-.652-.012l-8.589-.023.355-.787a4.333,4.333,0,0,0-1.572.21c-.261.156-.269.734-.392,1.126l-1.5.616c-.009-3.226-.009-6.453-.041-9.678a2.671,2.671,0,0,0-.331-.854l-.168-.18a7.947,7.947,0,0,0-.575-1.2,2.392,2.392,0,0,0-3.044-.5c-.9,0-1.081.76-1.422,1.351a12.615,12.615,0,0,0-.368,2.134c-.025,9.72-.009,19.44-.037,29.16a5.843,5.843,0,0,1-.469,1.579,1.438,1.438,0,0,1-1.808-.038c-.214-.181-.435-.353-.654-.53V611.405a6.4,6.4,0,0,0-1.613,1.021c-.808.658-1.634,1.3-2.4,2-.628.571-1.186,1.22-1.776,1.834l-.961,1.173a7.368,7.368,0,0,0-1.041,5.112,1.24,1.24,0,0,1-.82-1.408l-1.179-.326.093,1.3,1.906.606a3.464,3.464,0,0,0,.037.408c.49,2.377,1.019,4.745,1.462,7.13a17.5,17.5,0,0,0,1.331,5.161c.378.717.691,1.473,1.126,2.152.447.7,1.005,1.327,1.514,1.985l-.859.378a1.5,1.5,0,0,0,.012.588,1.633,1.633,0,0,0,2.645.844c.152.141.306.281.457.424,1.369,1.289,2.744,2.578,2.861,4.637.075,1.333.133,2.669.2,4l-.014.331c-.174.262-.292.628-.537.761-.373.2-.942.456-1.234.308a2.414,2.414,0,0,1-1.156-1.232,5.486,5.486,0,0,1-.048-2.034,5.023,5.023,0,0,0-1.94-4.565,5.625,5.625,0,0,1-.769-.966l.7-.527c-.208-.222-.384-.572-.633-.636a4.5,4.5,0,0,0-1.23.012,12.309,12.309,0,0,1-1.794-1.856,32.687,32.687,0,0,1-2.335-4.316,16.6,16.6,0,0,1-.926-3.385c-.425-2.1-.769-4.221-1.154-6.332-.08-.439-.189-.872-.286-1.307l.208-1.226,1.152-.058-.961,1.059c1.243.237,1.1-.787,1.56-1.391a3.2,3.2,0,0,0-1-.327,6.731,6.731,0,0,0-1.3.305,9.685,9.685,0,0,1,.539-5.162,11.165,11.165,0,0,1,2.913-4.439c.777-.757,1.661-1.4,2.482-2.116,1.437-1.247,2.883-2.486,4.279-3.777a1.684,1.684,0,0,0,.465-1.09c.04-1.506,0-3.014-.017-4.521a2.251,2.251,0,0,0-.741-.3c-3.535-.031-7.07-.036-10.6-.048.051-.089.094-.251.155-.259,1.03-.128.727-.612.307-1.122-.256-.311-.528-.61-.793-.915h.657c.327.272.66.765.981.757s1-.08,1-.757c2.756,0,5.512.009,8.268-.014a2.522,2.522,0,0,0,.8-.305l-.005-.353c0-1.781-.023-3.562.024-5.342.023-.859.185-1.714.284-2.57a8.4,8.4,0,0,1,2.841-2.949,3.653,3.653,0,0,1,.87-.355c.746-.1,1.5-.127,2.254-.184l1.975.338a10.15,10.15,0,0,1,1.674,1.271c.589.669,1.359,1.294,1.309,2.342q0,3.565-.005,7.129c0,.989,0,.989,1.152.994.187.164.357.441.563.47a10.511,10.511,0,0,0,1.488.023l.04.237-.982.682c.136.1.21.194.3.21.851.152,1.232-.355,1.231-1.623,1.869,0,3.738-.015,5.607.007.494.006.729-.143.666-.652.364-.327.711-.672,1.093-.976a3.6,3.6,0,0,0,.976-3.606,22.719,22.719,0,0,0-1.306-2.187c-.45-.722-.925-1.427-1.37-2.149-.549-.89-.725-1.962-1.63-2.7a6.808,6.808,0,0,1-1.227-1.946c-.666-1.151-1.271-2.341-1.99-3.458-.584-.907-1.3-1.729-1.949-2.6a3.831,3.831,0,0,1-.181-.445c-.381-.689-.772-1.371-1.159-2.057l.313-.432c1,.712,1.6.472,1.845-.682C1376.92,575.263,1377.107,575.154,1377.222,575.029Z" transform="translate(-10.964 -11.847)" fill="#393228"/>
      <path id="Trazado_640509" data-name="Trazado 640509" d="M1315.9,585.964a7.139,7.139,0,0,1-.411-3.9,4.834,4.834,0,0,1,1.182-2.6c.64-.874,1.173-1.826,1.744-2.749q1.119-1.811,2.224-3.632c.793-1.308,1.57-2.626,2.366-3.933.608-1,1.244-1.978,1.852-2.975.552-.906,1.076-1.83,1.63-2.736.171-.281.422-.513.6-.79q1.674-2.628,3.328-5.268,1.274-2.038,2.524-4.092c1.2-1.965,2.374-3.945,3.591-5.9.683-1.1,1.457-2.138,2.14-3.237.7-1.123,1.307-2.3,2-3.425a6.656,6.656,0,0,1,2.964-2.913,7.171,7.171,0,0,1,3.612-.637,6.494,6.494,0,0,1,4.815,2.969c.763,1.128,1.419,2.327,2.136,3.486.7,1.138,1.426,2.267,2.14,3.4-.223.047-.487.195-.661.122-.626-.259-1.221-.592-1.9-.931-.03.228-.055.434-.082.639-.217-.1-.438-.19-.651-.3s-.449-.243-.674-.365c-.159-.217-.328-.427-.475-.652a33.1,33.1,0,0,0-2.882-4.3c-1.593-1.752-3.691-1.741-5.127.181-.4.529-.755,1.085-1.128,1.633q-1.064,1.565-2.123,3.135c-.684.421-1.315.874-1.117,1.832-.522.925-1.023,1.861-1.571,2.77-.448.744-.956,1.45-1.427,2.181-.534.828-1.041,1.674-1.589,2.492-.3.456-.738.833-1,1.309-.625,1.138-1.133,2.341-1.781,3.464-.775,1.344-1.646,2.633-2.477,3.945q-1.523,2.4-3.05,4.806c-.448.705-.911,1.4-1.34,2.117a16.229,16.229,0,0,1-1.867,3.1c-.99,1.021-1.274,2.447-2.381,3.409-.667.58-.875,1.688-1.29,2.558a21.079,21.079,0,0,0-1.277,2.146c-.374.823-.769,1.725.17,2.5.061.05.043.2.061.3l-.139.166c-.65.049-1.072-.143-1.2-.88-.039-.229-.418-.425-.675-.582-.072-.043-.379.106-.38.173a1.935,1.935,0,0,0,.113.917c.1.188.428.255.654.375v.326Z" transform="translate(0 0)" fill="#393229"/>
      <path id="Trazado_640510" data-name="Trazado 640510" d="M1393.98,619.841c.9.388,1.969.293,2.75,1.074.7.7,1.617,1.175,1.969,2.183.2.587.7.538,1.19.561a9.574,9.574,0,0,1,5.084,1.384,8.007,8.007,0,0,1,3.327,4.321,3.007,3.007,0,0,1,.057.648c0,2.607,0,5.214-.02,7.821,0,.251-.037.641-.192.729-.816.461-.736,1.087-.348,1.829l-1.363-.243-.092.245c.471.37,1.139.656.667,1.516a2.882,2.882,0,0,1-.981-2.029q.034-4.034-.007-8.068c0-.258-.224-.514-.343-.771a18.955,18.955,0,0,0-.808-2.133,6.154,6.154,0,0,0-.991-1.144c-.061-.814-.417-1.113-1.543-1.26l.166-.586c-.741,0-1.42.026-2.1-.008-.522-.027-.7.19-.631.676h.014a1.992,1.992,0,0,0-.187.579c0,1.959.01,3.92.019,5.88.116.9-.78.864-1.187,1.281-.99-.035-1.513-.5-1.518-1.446-.012-2.1.014-4.206.025-6.31l.8.437.292-.713.8-.154L1397.1,624.4a1.279,1.279,0,0,1-.015.52,2.113,2.113,0,0,1-.427.5l-.733-1.138a2.586,2.586,0,0,0-2.273-1.466h-2.318c-.011.22-.031.432-.031.644-.006,2.185.007,4.37-.021,6.554a6.526,6.526,0,0,1-.256,1.237c-.221.175-.437.357-.664.523a1.055,1.055,0,0,1-1.6-.247l-.351-.5c.1-.194.283-.386.284-.581q.027-4.025,0-8.052c0-.194-.234-.386-.358-.579l-.586-.536c-.266-.937-.655-1.155-2.007-1.122l-2.617.038-.159-.311a1.483,1.483,0,0,0-.193.794c0,2.085,0,4.171,0,6.255a1.375,1.375,0,0,1-1.293,1.465,1.776,1.776,0,0,0-.517.265c-.634-.036-.4-.579-.527-.907q.027-4.548.054-9.1c.846-.343.845-1.14,0-1.822l0-.818,1.341,1.56c.573-.514,1.091-.9.963-1.689-.026-.157.206-.357.32-.536a.921.921,0,0,1,.036.16c.1,1.65.1,1.592,1.8,1.67a10.279,10.279,0,0,1,3.3.518,8.574,8.574,0,0,1,2.1,1.784c.2.1.4.285.607.294C1391.964,619.829,1392.972,619.827,1393.98,619.841Z" transform="translate(-20.331 -24.457)" fill="#393228"/>
      <path id="Trazado_640511" data-name="Trazado 640511" d="M1417.745,663.706a5.4,5.4,0,0,1-1.22,3.219c-.759.995-1.744,1.815-2.517,2.8a3.864,3.864,0,0,0-.731,1.778,21.051,21.051,0,0,0-.053,2.714c-.015,1.445-.916,2.043-2.226,1.486a1.224,1.224,0,0,0-.318-.045q-.131-.415-.26-.831a38.273,38.273,0,0,1,.408-4.94,5.478,5.478,0,0,1,1.514-2.718c1.316-1.245,2.492-2.487,2.763-4.356a2.8,2.8,0,0,0,.292-.825c.031-1.4.1-2.811-.009-4.2s.4-2.741.047-4.115c-.013-.051.071-.126.12-.209.089.045.187.063.219.118.473.8.581.822,1.182.068a1.879,1.879,0,0,0,.262-.731c.061-.262.076-.535.112-.8l.364.016Q1417.72,657.918,1417.745,663.706Z" transform="translate(-29.706 -35.949)" fill="#393228"/>
      <path id="Trazado_640512" data-name="Trazado 640512" d="M1317.768,607.454v-.326l1.3,1,.18-1,.139-.166.191.165.208.481,1.614.948-.009.064c-.1.685.348.656.818.655q8.582-.009,17.163,0c-.217.621-.7,1.215-.325,1.726l.822.572c-.382.011-.764.032-1.146.032q-8.666,0-17.331,0a5.921,5.921,0,0,1-3.783-2.346c.152-.258.579-.388.256-.852C1317.709,608.172,1317.794,607.775,1317.768,607.454Z" transform="translate(-0.687 -21.831)" fill="#393229"/>
      <path id="Trazado_640513" data-name="Trazado 640513" d="M1374.321,552.462c.586.831,1.2,1.646,1.751,2.5q1.657,2.538,3.264,5.111c.7,1.125,1.33,2.292,2.026,3.419s1.45,2.257,2.172,3.388c.038.06.012.16.016.241-.1.083-.217.252-.287.233-.49-.135-.97-.309-1.286-.414l-.883,1.7a3.628,3.628,0,0,0-.308-.658,13.97,13.97,0,0,1-1.679-2.485,21.047,21.047,0,0,0-1.691-2.617,2.159,2.159,0,0,1-.169-.61c.042-1.192-.322-1.785-1.151-1.874-.586-.781-1.206-1.54-1.747-2.352-.359-.537-.578-1.167-.91-1.726-.345-.582-.75-1.129-1.129-1.691a3.42,3.42,0,0,0,.484-.915c.149-.83.423-1.013,1.229-.7Z" transform="translate(-17.79 -4.791)" fill="#383228"/>
      <path id="Trazado_640514" data-name="Trazado 640514" d="M1419.853,658.88q-.025-5.789-.05-11.577l-.364-.016c-.035.268-.05.541-.111.8a1.879,1.879,0,0,1-.263.731c-.6.754-.708.735-1.182-.068-.032-.056-.131-.073-.219-.118-.049.083-.133.158-.12.209.354,1.374-.156,2.735-.048,4.115s.04,2.8.01,4.2a2.8,2.8,0,0,1-.292.825q-.007-2.927-.015-5.854-.019-7.214-.037-14.428c.12.257.34.513.343.771q.038,4.034.007,8.068a2.881,2.881,0,0,0,.981,2.029c.471-.86-.2-1.146-.667-1.516l.092-.245,1.363.243c-.388-.742-.468-1.368.348-1.829.155-.088.19-.478.192-.729.017-2.607.016-5.214.02-7.821a2.852,2.852,0,0,1,.292.85q.046,5.145.042,10.291,0,5.064-.031,10.128A3.386,3.386,0,0,1,1419.853,658.88Z" transform="translate(-31.814 -31.123)" fill="#423b34"/>
      <path id="Trazado_640515" data-name="Trazado 640515" d="M1383.139,614.47c-.114.179-.345.379-.32.536.128.792-.39,1.175-.963,1.689l-1.34-1.56c0-.223,0-.445,0-.667l1.5-.617c.123-.392.131-.97.392-1.126a4.336,4.336,0,0,1,1.572-.21l-.354.787-.186.333Z" transform="translate(-20.355 -23.568)" fill="#413b33"/>
      <path id="Trazado_640516" data-name="Trazado 640516" d="M1373.943,551.8l-.3.55c-.806-.313-1.081-.13-1.23.7a3.427,3.427,0,0,1-.484.916l-.831-1.767.01-1.209.083-.639c.675.34,1.27.672,1.9.931.173.072.438-.076.66-.122Z" transform="translate(-17.412 -4.131)" fill="#433b31"/>
      <path id="Trazado_640517" data-name="Trazado 640517" d="M1385.09,575.225l.883-1.7c.316.106.8.279,1.286.414.07.019.19-.151.287-.233l.5.855c-.115.125-.3.234-.333.377-.25,1.155-.847,1.395-1.845.683l-.313.432Z" transform="translate(-21.786 -11.375)" fill="#433d31"/>
      <path id="Trazado_640518" data-name="Trazado 640518" d="M1351.956,644.738a6.74,6.74,0,0,1,1.3-.305,3.2,3.2,0,0,1,1,.327c-.463.6-.316,1.628-1.56,1.391l.961-1.059-1.152.058-.208,1.226Z" transform="translate(-11.426 -33.547)" fill="#453f35"/>
      <path id="Trazado_640519" data-name="Trazado 640519" d="M1361.9,672.254a4.509,4.509,0,0,1,1.23-.012c.249.064.425.414.633.636l-.7.527Z" transform="translate(-14.536 -42.229)" fill="#413c34"/>
      <path id="Trazado_640520" data-name="Trazado 640520" d="M1317.3,607.679c.025.32-.06.718.1.946.323.465-.1.594-.256.852l-1.023-1.457Z" transform="translate(-0.221 -22.056)" fill="#433b31"/>
      <path id="Trazado_640521" data-name="Trazado 640521" d="M1398.044,625.235l.037,14.428q.007,2.927.015,5.854c-.271,1.869-1.448,3.11-2.763,4.356a5.474,5.474,0,0,0-1.514,2.718,38.224,38.224,0,0,0-.408,4.94,5.472,5.472,0,0,0-1.211-.282q-12.638-.029-25.275-.022c-.065-1.334-.123-2.67-.2-4-.116-2.059-1.491-3.348-2.861-4.636-.151-.143-.305-.283-.457-.424l-1.8-1.81c-.509-.658-1.067-1.286-1.514-1.985-.434-.679-.748-1.435-1.126-2.152a17.488,17.488,0,0,1-1.33-5.161c-.443-2.385-.973-4.754-1.462-7.13a3.517,3.517,0,0,1-.037-.408v-.168a7.367,7.367,0,0,1,1.041-5.112c.979-.007.979-.007.961-1.172.59-.614,1.148-1.263,1.776-1.834.771-.7,1.6-1.34,2.4-2a6.391,6.391,0,0,1,1.612-1.021V630.8c-.029,1.186-.029,1.186,1.148,1.191.244,0,.489-.019.731,0,.479.046.634-.189.583-.626a5.84,5.84,0,0,0,.469-1.579c.028-9.72.013-19.44.037-29.16a12.666,12.666,0,0,1,.368-2.134c.585-.333,1.407-.418,1.422-1.351a2.392,2.392,0,0,1,3.044.5,7.97,7.97,0,0,1,.575,1.2,2.21,2.21,0,0,0-.137.535q-.011,10.958.009,21.917c0,.211.209.421.321.631l.3.032c.131.328-.107.87.527.907,2.109.1,2.239-.538,2.2-1.905-.064-2.186-.028-4.375-.034-6.563l2.616-.038a5.725,5.725,0,0,0,.571.473c.165.107.506.125.53.234.127.586.551.4.907.414l.585.535c0,.741,0,1.481.008,2.222q.032,3.5.07,6.991l.35.5a1.054,1.054,0,0,0,1.6.247c.228-.166.443-.349.664-.523l.43.244a2.132,2.132,0,0,0,.216-.635c.016-2.406.024-4.811,0-7.217,0-.535.166-.729.7-.708a9.022,9.022,0,0,0,1.276-.12,2.587,2.587,0,0,1,2.274,1.466,12.589,12.589,0,0,0,.047,1.339,14.15,14.15,0,0,1,.313,1.546c.038,1.943.007,3.887.019,5.831a1.966,1.966,0,0,0,1.9,1.826c.359-.046.542-.154.23-.5.406-.417,1.3-.38,1.186-1.281.03-.322.081-.644.087-.966.033-1.83.055-3.661.081-5.493h-.014a6.54,6.54,0,0,1,4.106,1.179,6.144,6.144,0,0,1,.991,1.144A18.869,18.869,0,0,1,1398.044,625.235Z" transform="translate(-12.697 -18.652)" fill="#fbc692"/>
      <path id="Trazado_640522" data-name="Trazado 640522" d="M1364.887,565.134l.463.825c.387.685.777,1.368,1.159,2.056a3.791,3.791,0,0,0,.182.445c.647.868,1.365,1.689,1.949,2.6.719,1.117,1.324,2.307,1.99,3.458a6.808,6.808,0,0,0,1.227,1.947c.9.737,1.081,1.809,1.63,2.7.446.722.92,1.427,1.37,2.149a22.678,22.678,0,0,1,1.307,2.187,3.6,3.6,0,0,1-.976,3.606c-.382.3-.729.65-1.093.976h-.332l-.575-.007-8.48-.034c0-2.094,0-4.188-.026-6.282a2.449,2.449,0,0,0-.322-.794l-.324-.359c.05-1.048-.72-1.673-1.309-2.342a10.177,10.177,0,0,0-1.674-1.272c-.1-.749-1.173-.931-1.975-.337-.752.057-1.508.086-2.254.184a3.659,3.659,0,0,0-.87.355c-.231-.049-.545-.219-.68-.127-.82.555-1.048.5-1.494-.428a.532.532,0,0,0-.344-.248c-.076-.014-.219.127-.27.229a3.047,3.047,0,0,0-.153.544,5.358,5.358,0,0,0-.631-.52,3.126,3.126,0,0,0-.61-.21c-.019.206-.041.41-.055.615a2.6,2.6,0,0,1-.047.689c-.2.559-.458,1.1-.7,1.654l-1.307.122a2.191,2.191,0,0,1-.75-.284c-.75-.7-1.341-.476-1.89.239l-.31.034c-.328.073-.3.076-.344.507-.07.663.384,1.509-.66,1.812a2.027,2.027,0,0,0,2.18.957l.619-.008c.243.269,1.065.129,1.313-.224.6-.857.916-.948,1.83-.39v-2.707l1.461.691c-.1.856-.261,1.711-.284,2.57-.047,1.779-.02,3.561-.024,5.342l-7.418,0c-.3-.912.015-1.682.693-1.813a4.119,4.119,0,0,0,.939-.443c-.275-.144-.551-.284-.823-.436-.035-.019-.042-.09-.02-.039l.5-.821c-.345-.179-.9-.589-1-.5a9.43,9.43,0,0,0-1.144,1.547l-2.337.41.882,1-1.652,1.092c-.52.011-1.039.03-1.559.031q-8.624,0-17.249,0l-.328-.01.01-.064c-.214-.218-.534-.4-.623-.661-.217-.641-.579-.484-.992-.287l-.208-.481c.992-.495,1.3-1.238.771-2.164a9.55,9.55,0,0,0,1.544-.031c.145-.025.228-.417.339-.641l-.088-.322c-.674.767-1.082.546-1.411-.082l.786-.872a5.234,5.234,0,0,0,.764.831c.1.071.445-.066.574-.2a6.633,6.633,0,0,0,.612-.909l-1.26-1.338-.37.928-1.408-.307c.415-.87.623-1.978,1.29-2.558,1.107-.962,1.391-2.388,2.381-3.409a16.254,16.254,0,0,0,1.867-3.1c.428-.716.892-1.412,1.34-2.117q1.526-2.4,3.051-4.806c.832-1.312,1.7-2.6,2.477-3.945.648-1.123,1.156-2.327,1.781-3.464.261-.476.694-.853,1-1.309.549-.818,1.055-1.664,1.589-2.492.471-.731.979-1.437,1.427-2.181.548-.909,1.05-1.846,1.571-2.77.146-.052.378-.064.425-.163.256-.544.467-1.111.693-1.669q1.062-1.568,2.123-3.135c.373-.548.733-1.1,1.128-1.633,1.436-1.922,3.534-1.933,5.127-.182a33.141,33.141,0,0,1,2.882,4.3c.148.224.317.435.476.652a2.4,2.4,0,0,0,1.313,1.871l.831,1.767c.379.562.784,1.109,1.129,1.691.332.559.551,1.188.91,1.726.541.812,1.16,1.571,1.747,2.352,0,.863.8,1.23,1.151,1.874a2.152,2.152,0,0,0,.169.61,21.074,21.074,0,0,1,1.691,2.617,13.969,13.969,0,0,0,1.679,2.485A3.644,3.644,0,0,1,1364.887,565.134Zm-15.217-8.743-.312-.023-.008-.322v-.975c-.614,0-1.125.028-1.632-.008-.544-.038-.761.17-.664.707-.009.2-.02.392-.03.59l-.309.032c-.113.175-.3.34-.323.527a8.142,8.142,0,0,0-.019,1.12l-1.026-.5-.26.145c.984.654.471.969-.065,1.381a4.257,4.257,0,0,0-.718,1.082c-.915-.094-1.276.523-1.291,1.465l-1.286.13.221,1.385-1.1.436a1.759,1.759,0,0,1,.315-.663,2.944,2.944,0,0,0,.168-.632c-.232.068-.614.075-.671.215a18.013,18.013,0,0,0-.557,1.914l1.824-.337a2.412,2.412,0,0,1-.1.317c-.107.209-.223.413-.336.619a2.753,2.753,0,0,0,.85-.15.9.9,0,0,0,.371-1.364c.377-.061.793-.008,1.014-.189a14.656,14.656,0,0,0,1.507-1.538,7.037,7.037,0,0,0,.543-.792l.6.539c0,3.892-.006,7.784.019,11.676a2.488,2.488,0,0,0,.349.839l.3.018c.283.766.961.549,1.459.463.322-.055.579-.491.865-.756l.313-.032.12.148c.015-.019.041-.039.041-.058.005-.11,0-.219,0-.329q0-8.241-.007-16.481A2.387,2.387,0,0,0,1349.67,556.391Zm-16.007,12.8c-.045.871-.059,1.568-.135,2.258-.017.157-.359.423-.37.414-.485-.389-1.438-.181-1.483-1.143a.379.379,0,0,0-.24-.267c-.1-.021-.333.081-.334.132-.009.511-.163,1.346.067,1.474.743.415.451,1.311,1.02,1.739a2.1,2.1,0,0,1,.318.389c.116-.148.23-.3.349-.443a3.335,3.335,0,0,1,.608-.718c.563-.382,1.2-.658,1.755-1.051.5-.355.953-.8.36-1.4.556-.1,1.25-.017,1.487-.309.281-.344.165-1.009.232-1.637-.094.055-.049.008,0,0a.508.508,0,0,1,.236.036c.683.324,1.343.07,1.327-.63s.315-.779.826-.759.739-.21.708-.65l-.752-.24a3.014,3.014,0,0,0,.36-.561,2.938,2.938,0,0,0,.095-.653c-.454.071-.993-.368-1.339.35a2.4,2.4,0,0,1-2.071,1.416c-.962.069-.983.081-.741,1.093l1.025.174c-.148.131-.182.186-.225.195a2.151,2.151,0,0,1-.326.027c-1.164.044-1.16.044-1.266,1.207a1.943,1.943,0,0,1-.146.432Zm29,.375a9.617,9.617,0,0,0,1.091-1.488c.3-.633.939-.591,1.445-.782l-1.326-1.461-.646,1.2a8.284,8.284,0,0,0-.91-.08.644.644,0,0,0-.531,1.019c.169.3.276.639.439.946A7.2,7.2,0,0,0,1362.663,569.565Z" transform="translate(-1.583 -1.284)" fill="#fdbd43"/>
      <path id="Trazado_640523" data-name="Trazado 640523" d="M1362.416,595.495l1.307-.122c.238-.555.492-1.095.7-1.654a2.618,2.618,0,0,0,.047-.689c.015-.2.036-.41.055-.615a3.128,3.128,0,0,1,.61.21,5.349,5.349,0,0,1,.631.52,3.031,3.031,0,0,1,.153-.544c.052-.1.194-.244.27-.23a.53.53,0,0,1,.344.248c.446.931.674.984,1.494.428.135-.092.449.078.68.127a8.4,8.4,0,0,0-2.842,2.949l-1.461-.692v2.707c-.914-.558-1.229-.467-1.829.39-.247.353-1.07.494-1.313.224l.529-.63c.1-.071.285-.131.3-.216C1362.213,597.105,1362.31,596.3,1362.416,595.495Zm2.782-.87c.858.485,1.037.417,1.37-.45-.736-.012-1.514-.231-2.023.527-.081.121.026.367.045.555a1.733,1.733,0,0,0,.45-.209C1365.126,594.975,1365.133,594.813,1365.2,594.625Z" transform="translate(-14.335 -17.269)" fill="#fabf4d"/>
      <path id="Trazado_640524" data-name="Trazado 640524" d="M1323.109,609.372l.328.01a3.486,3.486,0,0,0,.981.308q14.6.025,29.21.014a2.52,2.52,0,0,1-.8.305c-2.755.023-5.511.014-8.268.014h-2.64l-.828,0q-8.582,0-17.163,0C1323.457,610.028,1323.009,610.057,1323.109,609.372Z" transform="translate(-2.401 -22.585)" fill="#40290c"/>
      <path id="Trazado_640525" data-name="Trazado 640525" d="M1353.784,609.693q-14.6,0-29.21-.014a3.482,3.482,0,0,1-.981-.308q8.625,0,17.249,0c.52,0,1.039-.02,1.559-.031l3.959,0,7.418,0Z" transform="translate(-2.557 -22.574)" fill="#6c593b"/>
      <path id="Trazado_640526" data-name="Trazado 640526" d="M1379.856,622.852c-.112-.21-.32-.42-.321-.631q-.026-10.958-.009-21.917a2.208,2.208,0,0,1,.137-.535l.168.18c.007.412.021.823.021,1.236Q1379.855,612.018,1379.856,622.852Z" transform="translate(-20.044 -19.583)" fill="#f7cea5"/>
      <path id="Trazado_640527" data-name="Trazado 640527" d="M1380,622.934q0-10.833,0-21.667c0-.412-.014-.824-.021-1.236a2.679,2.679,0,0,1,.331.854c.032,3.226.032,6.452.041,9.678,0,.222,0,.445,0,.667,0,.273,0,.545,0,.818q0,.91,0,1.821-.028,4.548-.054,9.1Z" transform="translate(-20.186 -19.665)" fill="#9f764e"/>
      <path id="Trazado_640528" data-name="Trazado 640528" d="M1349.065,610.319l.828,0c.265.3.537.6.793.915.42.511.722.995-.308,1.122-.061.008-.1.169-.155.258h-.662l-.822-.572C1348.366,611.534,1348.848,610.94,1349.065,610.319Z" transform="translate(-10.377 -22.881)" fill="#423b32"/>
      <path id="Trazado_640529" data-name="Trazado 640529" d="M1363.752,668.9l1.8,1.81a1.633,1.633,0,0,1-2.645-.844,1.5,1.5,0,0,1-.011-.588Z" transform="translate(-14.837 -41.197)" fill="#473d32"/>
      <path id="Trazado_640530" data-name="Trazado 640530" d="M1393.575,609.222h.332c.063.509-.171.658-.665.652-1.869-.022-3.739-.008-5.607-.007H1385c-1.15,0-1.15,0-1.152-.994l.315-.006.039.3c.218.127.435.363.654.365q4.035.035,8.071,0C1393.141,609.527,1393.357,609.329,1393.575,609.222Z" transform="translate(-21.396 -22.427)" fill="#412f12"/>
      <path id="Trazado_640531" data-name="Trazado 640531" d="M1384.159,605.628l-.315.006q0-3.564,0-7.129l.324.36Q1384.166,602.246,1384.159,605.628Z" transform="translate(-21.396 -19.187)" fill="#412c01"/>
      <path id="Trazado_640532" data-name="Trazado 640532" d="M1385.52,610.323h2.639c0,1.268-.38,1.775-1.232,1.623-.088-.016-.162-.111-.3-.21l.982-.682-.04-.237a10.507,10.507,0,0,1-1.488-.023C1385.877,610.763,1385.706,610.487,1385.52,610.323Z" transform="translate(-21.92 -22.882)" fill="#433c32"/>
      <path id="Trazado_640533" data-name="Trazado 640533" d="M1355.288,643.369v.168l-1.906-.606-.093-1.3,1.179.326A1.24,1.24,0,0,0,1355.288,643.369Z" transform="translate(-11.842 -32.673)" fill="#433e36"/>
      <path id="Trazado_640534" data-name="Trazado 640534" d="M1370,646.836c.052.437-.1.672-.583.626-.242-.023-.487,0-.731,0-1.177,0-1.177,0-1.148-1.191.219.177.44.349.654.53A1.438,1.438,0,0,0,1370,646.836Z" transform="translate(-16.294 -34.121)" fill="#e7c49f"/>
      <path id="Trazado_640535" data-name="Trazado 640535" d="M1351.437,610.32h1.983c0,.678-.668.749-1,.757S1351.764,610.592,1351.437,610.32Z" transform="translate(-11.263 -22.881)" fill="#423b32"/>
      <path id="Trazado_640536" data-name="Trazado 640536" d="M1376.638,592.6c.8-.594,1.872-.411,1.975.337Z" transform="translate(-19.143 -17.229)" fill="#e1b755"/>
      <path id="Trazado_640537" data-name="Trazado 640537" d="M1373.815,597.3c-.015.933-.836,1.017-1.422,1.351C1372.733,598.062,1372.912,597.3,1373.815,597.3Z" transform="translate(-17.816 -18.811)" fill="#e6c5a3"/>
      <path id="Trazado_640538" data-name="Trazado 640538" d="M1358.673,635.014c.017,1.165.017,1.165-.961,1.172Z" transform="translate(-13.225 -30.603)" fill="#e6bf9c"/>
      <path id="Trazado_640539" data-name="Trazado 640539" d="M1320.954,599.481l1.407.307.37-.928,1.26,1.338a6.608,6.608,0,0,1-.612.909c-.129.139-.474.276-.574.2a5.232,5.232,0,0,1-.764-.831l-.786.872c.329.628.737.849,1.411.082l.088.322c-.112.224-.195.616-.34.641a9.551,9.551,0,0,1-1.544.031c.531.927.221,1.67-.771,2.164l-.191-.165c-.018-.1,0-.25-.06-.3-.94-.775-.544-1.677-.17-2.5A21.094,21.094,0,0,1,1320.954,599.481Z" transform="translate(-1.204 -19.298)" fill="#fbbf4c"/>
      <path id="Trazado_640540" data-name="Trazado 640540" d="M1318.972,606.532l-.18,1-1.3-1c-.226-.12-.555-.187-.655-.375a1.942,1.942,0,0,1-.114-.917c0-.067.308-.216.38-.172.257.156.636.352.675.581C1317.9,606.389,1318.322,606.582,1318.972,606.532Z" transform="translate(-0.407 -21.238)" fill="#433b31"/>
      <path id="Trazado_640541" data-name="Trazado 640541" d="M1370.5,552.191a2.4,2.4,0,0,1-1.313-1.871c.224.122.445.25.674.365.213.106.434.2.651.3Q1370.508,551.587,1370.5,552.191Z" transform="translate(-16.814 -4.121)" fill="#4e3d15"/>
      <path id="Trazado_640542" data-name="Trazado 640542" d="M1351.591,550.322c-.226.559-.436,1.125-.693,1.669-.047.1-.278.111-.425.163C1350.276,551.2,1350.907,550.743,1351.591,550.322Z" transform="translate(-10.951 -4.121)" fill="#543a13"/>
      <path id="Trazado_640543" data-name="Trazado 640543" d="M1405.48,638.383c.311.346.129.453-.23.5a1.966,1.966,0,0,1-1.9-1.826c-.012-1.944.02-3.887-.019-5.831a14.134,14.134,0,0,0-.313-1.546,12.593,12.593,0,0,1-.047-1.339l.733,1.138.279,1.148c-.011,2.1-.038,4.206-.025,6.31C1403.968,637.887,1404.49,638.348,1405.48,638.383Z" transform="translate(-27.378 -28.516)" fill="#f4cca1"/>
      <path id="Trazado_640544" data-name="Trazado 640544" d="M1383.37,622.258c.006,2.188-.031,4.377.034,6.563.04,1.367-.09,2.01-2.2,1.905a1.776,1.776,0,0,1,.517-.265,1.374,1.374,0,0,0,1.293-1.465c0-2.085,0-4.17,0-6.255a1.483,1.483,0,0,1,.193-.794Z" transform="translate(-20.571 -26.517)" fill="#3e2914"/>
      <path id="Trazado_640545" data-name="Trazado 640545" d="M1398.472,626.208a9.064,9.064,0,0,1-1.275.12c-.538-.021-.709.172-.7.708.023,2.406.015,4.811,0,7.217a2.124,2.124,0,0,1-.216.635l-.43-.244a6.529,6.529,0,0,0,.256-1.237c.028-2.184.016-4.369.021-6.554,0-.212.021-.424.031-.644Z" transform="translate(-25.149 -27.849)" fill="#f1cfa7"/>
      <path id="Trazado_640546" data-name="Trazado 640546" d="M1392.013,633.967q-.035-3.5-.07-6.991c-.007-.741-.006-1.481-.008-2.222.124.194.356.386.358.58q.035,4.026,0,8.052C1392.3,633.581,1392.112,633.773,1392.013,633.967Z" transform="translate(-23.926 -27.395)" fill="#3f2c14"/>
      <path id="Trazado_640547" data-name="Trazado 640547" d="M1404.321,630.682l-.28-1.148a2.127,2.127,0,0,0,.427-.5,1.284,1.284,0,0,0,.015-.52l1.737,1.735-.8.154-.292.713Z" transform="translate(-27.711 -28.571)" fill="#423c33"/>
      <path id="Trazado_640548" data-name="Trazado 640548" d="M1412.668,632.562a6.54,6.54,0,0,0-4.106-1.179c-.069-.487.109-.7.631-.676.677.034,1.356.008,2.1.008l-.165.586C1412.251,631.449,1412.608,631.748,1412.668,632.562Z" transform="translate(-29.121 -29.255)" fill="#402e1e"/>
      <path id="Trazado_640549" data-name="Trazado 640549" d="M1390.17,623.463c-.356-.011-.78.171-.907-.414-.024-.109-.365-.128-.53-.234a5.73,5.73,0,0,1-.57-.473C1389.514,622.309,1389.9,622.526,1390.17,623.463Z" transform="translate(-22.746 -26.639)" fill="#e9c8a3"/>
      <path id="Trazado_640550" data-name="Trazado 640550" d="M1408.5,631.69c-.026,1.831-.048,3.662-.081,5.492-.005.322-.056.644-.086.966-.009-1.96-.024-3.92-.019-5.88A2.013,2.013,0,0,1,1408.5,631.69Z" transform="translate(-29.048 -29.563)" fill="#503f2e"/>
      <path id="Trazado_640551" data-name="Trazado 640551" d="M1380.517,619.337q0-.91,0-1.821C1381.362,618.2,1381.363,618.994,1380.517,619.337Z" transform="translate(-20.355 -25.131)" fill="#413b33"/>
      <path id="Trazado_640552" data-name="Trazado 640552" d="M1320.78,607.822c.413-.2.775-.354.992.286.089.261.408.443.623.661Z" transform="translate(-1.678 -22.046)" fill="#d4ae60"/>
      <path id="Trazado_640553" data-name="Trazado 640553" d="M1378.969,565.88c-.353-.644-1.156-1.011-1.151-1.874C1378.648,564.1,1379.012,564.689,1378.969,565.88Z" transform="translate(-19.512 -8.4)" fill="#4d3813"/>
      <path id="Trazado_640554" data-name="Trazado 640554" d="M1359.1,562.889c.01-.2.02-.393.03-.59a2.381,2.381,0,0,1,2.3.277q0,.161.008.322,0,8.688.006,17.376c-.286.265-.543.7-.865.756-.5.086-1.176.3-1.459-.463Q1359.109,571.727,1359.1,562.889Z" transform="translate(-13.66 -7.814)" fill="#d15442"/>
      <path id="Trazado_640555" data-name="Trazado 640555" d="M1338.47,580.046l-.135-.759a6.361,6.361,0,0,0,.135-.845c.106-1.163.122-.261,1.286-.3.109,0-.361,1.41-.254,1.389.043-.008-.148-.953,0-1.084l-.415-.3a1.856,1.856,0,0,1,1.665-2.1c.956-.068,1.765-.232,2.168-1.068.346-.718.537-1.661.991-1.732-.028.219,2.056,3.208,1.981,3.408s.124.421,0,.606h1.194c.031.44-.949,2.059-1.471,2.04s-.727.058-.712.759-1.881-.2-2.564-.52c-.069-.033,1.649,0,1.571,0a8.54,8.54,0,0,0-.51,1.669c-.067.628-.2.036-.481.38a1.867,1.867,0,0,1-1.143.729c.593.6-.526,1.223-1.025,1.577-.555.393-.432-.635-1-.253-.25.169-.471,1.17-.669,1.414-.118.146-1.659-.148-1.775,0-.105-.131-.448,1.586-.578,1.488-.569-.427-1.612-3.4-2.355-3.818-.23-.129.406-.626.415-1.137,0-.051-.1-.4,0-.38s1.443-1.247,1.448-1.15c-1.276.4.268-.389.753,0,.012.009-.277-.363-.26-.52C1336.81,578.836,1338.424,580.916,1338.47,580.046Z" transform="translate(-6.389 -12.139)" fill="#fcbf4c"/>
      <path id="Trazado_640556" data-name="Trazado 640556" d="M1355.3,568.917l-.6-.54a6.989,6.989,0,0,1-.543.792c-.481.533.406,1.85-.146,2.3-.221.181-.864.876-1.241.937.277.478-.639.84-1.264,1.176-.24.129-.967-.375-1.253-.33.113-.206-.778-.183-.671-.392.034-.067.136-.549.188-.72l-1.7-.672c.219-.8.988-2.559,1.208-3.1.057-.14-.232.86,0,.792-.053.212-.794.734-.891.924s1.417-2.021,1.38-1.716l1.1-.275v-1.625h1.233c.015-.942.182-.622,1.1-.528.268-.421.442.759.744.528.535-.412,1.049-.727.064-1.381l.26-.145,1.027-1.7Z" transform="translate(-10.51 -8.696)" fill="#fdbd43"/>
      <path id="Trazado_640557" data-name="Trazado 640557" d="M1354.916,607.488l-3.959,0,1.652-1.092-.882-1,2.337-.41a9.433,9.433,0,0,1,1.144-1.547c.1-.09.653.32,1,.5l-.5.821c-.021-.052-.015.019.02.038.272.151.548.292.823.436a4.125,4.125,0,0,1-.94.443C1354.931,605.807,1354.612,606.576,1354.916,607.488Z" transform="translate(-11.113 -20.725)" fill="#fbc04b"/>
      <path id="Trazado_640558" data-name="Trazado 640558" d="M1361.741,596.593c-.106.8-.2,1.61-.329,2.412-.013.085-.194.144-.3.216h-1.861l-.142-.177-.009-2.495c.549-.714,1.14-.94,1.89-.238A2.194,2.194,0,0,0,1361.741,596.593Z" transform="translate(-13.66 -18.367)" fill="#d15641"/>
      <path id="Trazado_640559" data-name="Trazado 640559" d="M1358.149,568.4q0-1.733,0-3.465a8.19,8.19,0,0,1,.019-1.12c.027-.188.21-.353.323-.527,0,.961-.006,1.922,0,2.883q.014,7.373.031,14.744a2.491,2.491,0,0,1-.349-.839C1358.144,576.179,1358.151,572.287,1358.149,568.4Z" transform="translate(-13.359 -8.174)" fill="#fea75d"/>
      <path id="Trazado_640560" data-name="Trazado 640560" d="M1358.676,580.894q-.015-7.373-.031-14.745c0-.961,0-1.922,0-2.883l.309-.033q.007,8.839.016,17.678Z" transform="translate(-13.517 -8.159)" fill="#c86a20"/>
      <path id="Trazado_640561" data-name="Trazado 640561" d="M1362.5,580.623q0-8.688-.006-17.376l.311.023q0,8.66.007,17.322Z" transform="translate(-14.722 -8.163)" fill="#cd7123"/>
      <path id="Trazado_640562" data-name="Trazado 640562" d="M1382.115,584.042a13.559,13.559,0,0,1-.754-1.216c-.28-.577-.465-1.211-.756-1.78-.462-.908-.024-1.9.913-1.917a13.143,13.143,0,0,1,1.565.15l1.112-2.26,2.281,2.75c-.87.36-1.972.281-2.485,1.472A18.1,18.1,0,0,1,1382.115,584.042Z" transform="translate(-22.115 -13.837)" fill="#fcbf4e"/>
      <path id="Trazado_640563" data-name="Trazado 640563" d="M1393.736,609.358c-.218.107-.434.305-.653.307q-4.035.035-8.07,0c-.219,0-.437-.238-.655-.365l.323.014,8.48.034Z" transform="translate(-21.557 -22.563)" fill="#635236"/>
      <path id="Trazado_640564" data-name="Trazado 640564" d="M1362.957,580.6q0-8.661-.007-17.322a2.388,2.388,0,0,1,.165.6q.014,8.24.007,16.481c0,.11,0,.219,0,.329,0,.02-.027.039-.041.058Z" transform="translate(-14.863 -8.173)" fill="#feae61"/>
      <path id="Trazado_640565" data-name="Trazado 640565" d="M1384.664,606.1l-.323-.014-.039-.3q.007-3.382.014-6.763a2.454,2.454,0,0,1,.322.794C1384.668,601.915,1384.66,604.01,1384.664,606.1Z" transform="translate(-21.539 -19.351)" fill="#d39c5a"/>
      <path id="Trazado_640566" data-name="Trazado 640566" d="M1358.512,599.361l.142.177.714.639a2.026,2.026,0,0,1-2.18-.957c1.045-.3.59-1.15.661-1.812.044-.431.016-.434.344-.507,0,.614-.036,1.23,0,1.842C1358.211,598.954,1358.4,599.155,1358.512,599.361Z" transform="translate(-13.062 -18.685)" fill="#fdb456"/>
      <path id="Trazado_640567" data-name="Trazado 640567" d="M1361.43,562.33a2.382,2.382,0,0,0-2.3-.277c-.1-.535.12-.744.664-.706.507.036,1.019.008,1.632.008Z" transform="translate(-13.663 -7.567)" fill="#fbb258"/>
      <path id="Trazado_640568" data-name="Trazado 640568" d="M1358.962,599.345c-.11-.205-.3-.406-.315-.619-.04-.612-.008-1.228,0-1.842l.31-.034Q1358.957,598.1,1358.962,599.345Z" transform="translate(-13.512 -18.67)" fill="#c97322"/>
      <path id="Trazado_640569" data-name="Trazado 640569" d="M1360.035,601.376l-.714-.639h1.861l-.529.63Z" transform="translate(-13.728 -19.885)" fill="#c46631"/>
      <path id="Trazado_640570" data-name="Trazado 640570" d="M1366.68,595.428c-.065.188-.073.351-.158.423a1.739,1.739,0,0,1-.45.209c-.019-.188-.126-.434-.045-.555.509-.758,1.287-.54,2.023-.527C1367.716,595.845,1367.537,595.913,1366.68,595.428Z" transform="translate(-15.816 -18.072)" fill="#fdbd43"/>
    </g>
  </g>
</svg>
