<svg xmlns="http://www.w3.org/2000/svg" width="101" height="101" viewBox="0 0 101 101">
  <g id="Grupo_909123" data-name="Grupo 909123" transform="translate(-750 -953)">
    <path id="Trazado_640428" data-name="Trazado 640428" d="M-422.976,353.637c-.008-.18-.023-.359-.023-.539q0-16.83,0-33.66v-.548c1.077,0,2.129-.013,3.179.016.14,0,.32.195.4.343a3.328,3.328,0,0,0,3.1,1.805q6.3,0,12.6,0a3.365,3.365,0,0,0,3.16-1.82.7.7,0,0,1,.478-.331c1.01-.031,2.021-.015,3.064-.015v13.661c-2.33.92-3.741,2.784-4.928,4.925-1.833,3.3-3.651,6.623-5.671,9.812-1.567,2.473-.378,5.346,3.11,5.678.357.034.72,0,1.1,0-.508,3.041-1.008,6.051-1.517,9.059-.1.581-.152,1.142.442,1.5.617.371,1.1.067,1.581-.331,1.927-1.6,3.865-3.179,5.86-4.817v12.41h-8.748c-.542-.211-1.1-.386-1.621-.641-1.466-.721-2.915-1.475-4.37-2.216,1.022-.693,2.03-1.409,3.072-2.072a1.06,1.06,0,0,1,1.661.641,6.4,6.4,0,0,0,.35,1.293c.2.346.6.8.933.812,1.868.078,3.741.055,5.612.028a1.036,1.036,0,0,0,1-1.076,1.076,1.076,0,0,0-1.016-1.064c-.223-.022-.451-.008-.676-.008H-404.8a3.361,3.361,0,0,0-5.6-2.115,5.576,5.576,0,0,1-.785.437,3.8,3.8,0,0,0-2.941-4.755c-1.611-.336-3.069.406-4.15,2.111a23.679,23.679,0,0,1-2.029-2.822C-421.286,357.487-422.1,355.544-422.976,353.637Zm2.144-25.012c0,1.4-.008,2.791,0,4.186a1.085,1.085,0,0,0,1.2,1.219q4.195.015,8.389,0a1.1,1.1,0,0,0,1.24-1.254q.011-4.153,0-8.305a1.1,1.1,0,0,0-1.24-1.252q-4.161-.012-8.322,0c-.878,0-1.268.4-1.273,1.287C-420.838,325.879-420.832,327.252-420.832,328.625Zm7.043,11.9q2.84,0,5.68,0c.861,0,1.35-.389,1.362-1.063s-.482-1.1-1.326-1.1q-5.714,0-11.428,0c-.849,0-1.338.412-1.328,1.1s.5,1.064,1.359,1.066Q-416.629,340.529-413.789,340.525Zm-1.688,4.328c1.375,0,2.749,0,4.124,0,.857,0,1.347-.394,1.356-1.069s-.483-1.092-1.33-1.093q-4.09-.006-8.18,0c-.845,0-1.335.418-1.321,1.1.013.655.493,1.057,1.3,1.061C-418.181,344.857-416.829,344.853-415.477,344.853Zm.062,2.162c-1.352,0-2.7,0-4.056,0-.86,0-1.347.39-1.357,1.066s.482,1.1,1.327,1.1q4.09.006,8.18,0c.841,0,1.337-.422,1.324-1.1s-.5-1.06-1.362-1.062C-412.711,347.012-414.063,347.015-415.415,347.015Zm.007,6.492c1.352,0,2.7,0,4.056,0,.857,0,1.347-.395,1.355-1.07s-.484-1.092-1.331-1.093q-4.09-.005-8.18,0c-.843,0-1.334.42-1.32,1.1.014.655.493,1.056,1.3,1.06C-418.158,353.512-416.783,353.507-415.409,353.507Zm11.934-28.126c1.036,0,2.073.009,3.109,0a1.089,1.089,0,0,0,1.208-1.079,1.084,1.084,0,0,0-1.206-1.08q-3.109-.015-6.217,0c-.778,0-1.261.451-1.241,1.112a1.1,1.1,0,0,0,1.238,1.048C-405.547,325.388-404.511,325.381-403.475,325.381Zm-.016,4.327c1.014,0,2.027.005,3.041,0,.8-.005,1.281-.409,1.292-1.064s-.47-1.094-1.257-1.1q-3.075-.011-6.15,0c-.787,0-1.268.435-1.257,1.1s.49,1.06,1.29,1.065C-405.519,329.713-404.505,329.708-403.492,329.708Zm-1.017,2.162c-.7,0-1.4-.008-2.093,0a1.091,1.091,0,0,0-1.221,1.063,1.082,1.082,0,0,0,1.189,1.095q2.06.02,4.119,0a1.083,1.083,0,0,0,1.188-1.1,1.1,1.1,0,0,0-1.224-1.062C-403.2,331.862-403.855,331.87-404.508,331.87Z" transform="translate(1203.149 657.293)" fill="#d0e6f6"/>
    <path id="Trazado_640431" data-name="Trazado 640431" d="M-411.782,525.552c1.456.741,2.9,1.5,4.37,2.216.52.256,1.079.43,1.621.641l-15.009.024H-423v-.511q0-8.165,0-16.331c0-.112.015-.224.023-.336.879,1.907,1.69,3.85,2.665,5.707a23.658,23.658,0,0,0,2.029,2.821c-.785,1.584-1.573,3.166-2.352,4.752a1.1,1.1,0,0,0,.288,1.548,1.084,1.084,0,0,0,1.621-.525c.672-1.29,1.324-2.591,1.984-3.888l2.712,2.32c-.08.28-.156.56-.24.839a1.037,1.037,0,0,0,.369,1.2,1.033,1.033,0,0,0,1.26.048C-412.353,525.906-412.068,525.728-411.782,525.552Z" transform="translate(1203.149 499.675)" fill="#9ac8fd"/>
    <path id="Trazado_640434" data-name="Trazado 640434" d="M-308.771,515.861c.363-1.981.719-3.964,1.1-5.941a.929.929,0,0,1,.237-.394l4.817.256a9.407,9.407,0,0,1-2.586,3.466c-1.2.845-2.289,1.848-3.427,2.781Z" transform="translate(1109.556 501.091)" fill="#fbca00"/>
    <g id="Grupo_909120" data-name="Grupo 909120">
      <circle id="Elipse_1146" data-name="Elipse 1146" cx="50.5" cy="50.5" r="50.5" transform="translate(750 953)" fill="#179587"/>
      <path id="Trazado_640426" data-name="Trazado 640426" d="M-395.05,324.06c.784.211,1.148.629,1.071,1.232s-.541.951-1.336.951q-5.892,0-11.785,0a9.186,9.186,0,0,1-4.361-1.043,9.358,9.358,0,0,0-4.874-1.128c-1.191.048-2.385.009-3.647.009v.755q0,8.619,0,17.237a5.439,5.439,0,0,1-5.846,5.807q-13.681,0-27.362,0A5.433,5.433,0,0,1-459,342.105q0-26.667,0-53.333a5.429,5.429,0,0,1,5.784-5.8q13.715,0,27.43,0a5.432,5.432,0,0,1,5.805,5.779q0,5.847,0,11.694v.643l.109.028q1.375-2.379,2.751-4.757c1.8-3.114,3.583-6.241,5.415-9.337a4.092,4.092,0,0,1,4.281-2.113,4.128,4.128,0,0,1,3.619,3.11,4.33,4.33,0,0,1-.533,3.559q-2.966,5.1-5.907,10.222c-.1.173-.2.348-.332.589.572.047,1.1.067,1.616.138a7.522,7.522,0,0,1,4.921,2.815c.487.591.971,1.187,1.481,1.758a5.29,5.29,0,0,0,4,1.828c1.083.021,2.167,0,3.251.007.8,0,1.258.335,1.336.951s-.286,1.02-1.071,1.233c-1.106-.007-2.212-.019-3.317-.02a7.582,7.582,0,0,1-6.044-2.807c-.51-.6-1-1.217-1.521-1.814a4.557,4.557,0,0,0-2.652-1.645,30.05,30.05,0,0,0-3.225-.21q-.6.971-1.2,1.943c-.118.192-.227.389-.339.584l-2.349,4.064c.066.077.088.127.122.139a3.263,3.263,0,0,1,2.011,3.7,3.312,3.312,0,0,1-3.524,2.531h-6.638c-1.6,0-3.206-.021-4.809.01a2.336,2.336,0,0,0-2.281,2.01,2.172,2.172,0,0,0,1.743,2.254,4.326,4.326,0,0,0,.876.05c4.019,0,8.038.027,12.056-.009a12.357,12.357,0,0,1,5.477,1.253,7.981,7.981,0,0,0,3.085.87C-403.4,324.124-399.226,324.063-395.05,324.06Zm-40.239,17.306h8.748v-12.41c-1.995,1.638-3.933,3.221-5.86,4.817-.48.4-.963.7-1.581.331-.594-.357-.54-.918-.442-1.5.509-3.008,1.009-6.018,1.517-9.059-.381,0-.744.029-1.1,0-3.487-.332-4.676-3.205-3.11-5.678,2.021-3.189,3.839-6.509,5.671-9.812,1.187-2.14,2.6-4,4.928-4.925V289.464c-1.043,0-2.054-.015-3.064.015a.7.7,0,0,0-.478.331,3.365,3.365,0,0,1-3.16,1.82q-6.3-.011-12.6,0a3.328,3.328,0,0,1-3.1-1.805c-.084-.148-.264-.339-.4-.343-1.051-.029-2.1-.016-3.179-.016v.548q0,16.83,0,33.66c0,.18.015.359.023.539-.008.112-.023.224-.023.335q0,8.166,0,16.331v.511c.77,0,1.486,0,2.2,0Zm13.139-17.326c-.41.048-.9-.02-.993.138-.441.788-1.176,1.447-1.176,2.448q0,7.3,0,14.6a2.159,2.159,0,0,1-2.327,2.323q-12.836.006-25.671,0a2.163,2.163,0,0,1-2.347-2.3q-.005-25.824,0-51.647a2.149,2.149,0,0,1,2.28-2.3c1.332-.01,2.664-.007,4,0,.847,0,1.171.29,1.312,1.123a1.077,1.077,0,0,0,1.19,1.034q6.4.012,12.8,0a1.075,1.075,0,0,0,1.178-1.048c.138-.823.466-1.1,1.324-1.109,1.242-.006,2.484,0,3.725,0a2.226,2.226,0,0,1,2.539,2.52q0,5.949,0,11.9v.7h2.167v-.66q0-6.523,0-13.047a3.268,3.268,0,0,0-3.571-3.573q-13.75,0-27.5,0a3.28,3.28,0,0,0-3.613,3.6q0,26.7,0,53.405a3.273,3.273,0,0,0,3.57,3.575q13.75,0,27.5,0a3.279,3.279,0,0,0,3.614-3.6q0-8.653,0-17.306Zm9.069-30.332-12.565,21.719c1.56,0,2.979-.024,4.4.013a.922.922,0,0,0,.939-.561q5.305-9.208,10.637-18.4c.109-.189.208-.384.332-.614Zm-8.889,10.968a6.64,6.64,0,0,0-6.907,3.291c-1.3,2.235-2.58,4.484-3.871,6.726-.887,1.54-1.781,3.076-2.663,4.619-.377.66-.331,1.209.174,1.565a2.914,2.914,0,0,0,2.488.411c-.731-3.247,1.007-5.614,4.226-5.876a.977.977,0,0,0,.629-.454q2.864-4.892,5.687-9.808C-422.12,305-422.053,304.844-421.97,304.676ZM-412,291.829l3.765,2.165c.767-1.344,1.539-2.607,2.222-3.918a2.085,2.085,0,0,0-.9-2.782,2.115,2.115,0,0,0-2.85.7C-410.53,289.232-411.233,290.511-412,291.829Zm-19.865,38.405.141.169c1.138-.933,2.226-1.936,3.427-2.781a9.407,9.407,0,0,0,2.586-3.466l-4.817-.256a.928.928,0,0,0-.237.394C-431.144,326.27-431.5,328.253-431.863,330.234Zm13.727-14.81c.563,0,1.012.027,1.457-.006a1.021,1.021,0,0,0,1.02-.973,1,1,0,0,0-.786-1.1.659.659,0,0,0-.582.205C-417.411,314.116-417.733,314.726-418.137,315.424Z" transform="translate(1232.648 686.719)" fill="#000101"/>
      <path id="Trazado_640427" data-name="Trazado 640427" d="M-267.23,422.265c-4.176,0-8.354.064-12.528-.031a7.979,7.979,0,0,1-3.085-.87,12.355,12.355,0,0,0-5.477-1.253c-4.018.036-8.037.012-12.056.009a4.324,4.324,0,0,1-.876-.05,2.172,2.172,0,0,1-1.743-2.254,2.336,2.336,0,0,1,2.281-2.01c1.6-.031,3.206-.01,4.809-.01h6.638a3.312,3.312,0,0,0,3.524-2.531,3.263,3.263,0,0,0-2.011-3.7c-.035-.013-.056-.062-.122-.139l2.349-4.064c.113-.195.222-.392.339-.584q.6-.973,1.2-1.943a30.065,30.065,0,0,1,3.225.21,4.557,4.557,0,0,1,2.652,1.645c.517.6,1.011,1.211,1.521,1.814a7.582,7.582,0,0,0,6.044,2.807c1.106,0,2.212.013,3.317.02Z" transform="translate(1104.829 588.513)" fill="#febbaa"/>
      <path id="Trazado_640429" data-name="Trazado 640429" d="M-412.316,333.855v.771q0,8.653,0,17.306a3.279,3.279,0,0,1-3.614,3.6q-13.75,0-27.5,0a3.273,3.273,0,0,1-3.57-3.575q0-26.7,0-53.405a3.28,3.28,0,0,1,3.613-3.6q13.75,0,27.5,0a3.268,3.268,0,0,1,3.571,3.573q0,6.523,0,13.047v.66h-2.167v-.7q0-5.949,0-11.9a2.226,2.226,0,0,0-2.539-2.52c-1.242,0-2.484,0-3.725,0-.858,0-1.186.286-1.324,1.109a1.075,1.075,0,0,1-1.178,1.048q-6.4.013-12.8,0a1.077,1.077,0,0,1-1.19-1.034c-.141-.833-.465-1.119-1.312-1.123-1.332-.007-2.664-.01-4,0a2.149,2.149,0,0,0-2.28,2.3q-.005,25.824,0,51.647a2.163,2.163,0,0,0,2.347,2.3q12.835.005,25.671,0a2.159,2.159,0,0,0,2.327-2.323q.009-7.3,0-14.6c0-1,.735-1.66,1.176-2.448C-413.22,333.835-412.726,333.9-412.316,333.855Z" transform="translate(1222.814 676.902)" fill="#3d99e1"/>
      <path id="Trazado_640430" data-name="Trazado 640430" d="M-261.79,342.4l3.738,2.156c-.124.23-.223.425-.332.614q-5.322,9.2-10.637,18.4a.922.922,0,0,1-.939.561c-1.417-.037-2.836-.013-4.4-.013Z" transform="translate(1081.357 638.027)" fill="#fccb00"/>
      <path id="Trazado_640432" data-name="Trazado 640432" d="M-316.09,402.786c-.083.169-.15.327-.235.474q-2.836,4.908-5.687,9.808a.977.977,0,0,1-.629.454c-3.219.262-4.957,2.63-4.226,5.876a2.914,2.914,0,0,1-2.488-.411c-.505-.356-.551-.906-.174-1.566.882-1.543,1.776-3.079,2.663-4.619,1.29-2.242,2.568-4.492,3.871-6.726A6.64,6.64,0,0,1-316.09,402.786Z" transform="translate(1126.769 588.608)" fill="#fbb9a8"/>
      <path id="Trazado_640433" data-name="Trazado 640433" d="M-198.808,310.152c.766-1.318,1.469-2.6,2.24-3.833a2.115,2.115,0,0,1,2.85-.7,2.085,2.085,0,0,1,.9,2.782c-.682,1.31-1.454,2.574-2.222,3.918Z" transform="translate(1019.457 668.395)" fill="#a4a6a9"/>
      <path id="Trazado_640435" data-name="Trazado 640435" d="M-232.786,453.106c.4-.7.726-1.308,1.109-1.878a.659.659,0,0,1,.582-.205,1,1,0,0,1,.786,1.1,1.021,1.021,0,0,1-1.02.973C-231.774,453.133-232.223,453.106-232.786,453.106Z" transform="translate(1047.297 549.035)" fill="#f78f74"/>
    </g>
    <path id="Trazado_640436" data-name="Trazado 640436" d="M-411.012,348.256c0-1.373-.006-2.746,0-4.119,0-.886.395-1.285,1.273-1.287q4.161-.01,8.322,0a1.1,1.1,0,0,1,1.24,1.252q.011,4.153,0,8.305a1.1,1.1,0,0,1-1.24,1.254q-4.194.012-8.389,0a1.084,1.084,0,0,1-1.2-1.219C-411.021,351.047-411.012,349.651-411.012,348.256Zm2.188,3.206h6.442v-6.41h-6.442Z" transform="translate(1193.33 637.661)" fill="#000101"/>
    <path id="Trazado_640437" data-name="Trazado 640437" d="M-401.887,554.3c-.286.176-.571.354-.858.529a1.033,1.033,0,0,1-1.26-.048,1.037,1.037,0,0,1-.369-1.2c.083-.279.16-.559.24-.839.253-.717.543-1.423.749-2.153a1.571,1.571,0,0,0-.948-1.931,1.565,1.565,0,0,0-2.016.741c-.189.328-.333.682-.5,1.025-.66,1.3-1.312,2.6-1.984,3.888a1.084,1.084,0,0,1-1.621.525,1.1,1.1,0,0,1-.288-1.548c.779-1.586,1.567-3.168,2.352-4.752,1.081-1.705,2.539-2.447,4.15-2.111a3.8,3.8,0,0,1,2.941,4.755,5.565,5.565,0,0,0,.785-.437,3.361,3.361,0,0,1,5.6,2.115h3.954c.225,0,.453-.014.676.008a1.076,1.076,0,0,1,1.016,1.064,1.036,1.036,0,0,1-1,1.076c-1.871.028-3.744.05-5.612-.028-.33-.014-.731-.466-.933-.812a6.4,6.4,0,0,1-.35-1.293,1.06,1.06,0,0,0-1.661-.641C-399.856,552.893-400.864,553.608-401.887,554.3Z" transform="translate(1193.254 470.925)" fill="#030304"/>
    <path id="Trazado_640438" data-name="Trazado 640438" d="M-403.938,428.855q-2.84,0-5.68,0c-.86,0-1.349-.391-1.359-1.066s.478-1.094,1.328-1.1q5.714,0,11.428,0c.843,0,1.338.419,1.326,1.1s-.5,1.061-1.362,1.063Q-401.1,428.859-403.938,428.855Z" transform="translate(1193.298 568.963)" fill="#000101"/>
    <path id="Trazado_640439" data-name="Trazado 640439" d="M-405.631,452.8c-1.352,0-2.7,0-4.056,0-.8,0-1.282-.406-1.3-1.061-.014-.683.476-1.1,1.321-1.1q4.09-.006,8.18,0c.847,0,1.339.414,1.33,1.093s-.5,1.067-1.356,1.069C-402.881,452.806-404.256,452.8-405.631,452.8Z" transform="translate(1193.303 549.342)" fill="#030304"/>
    <path id="Trazado_640440" data-name="Trazado 640440" d="M-405.568,474.594c1.352,0,2.7,0,4.056,0,.862,0,1.349.387,1.362,1.062s-.483,1.1-1.324,1.1q-4.09.006-8.18,0c-.845,0-1.337-.416-1.327-1.1s.5-1.063,1.357-1.066C-408.273,474.591-406.92,474.594-405.568,474.594Z" transform="translate(1193.302 529.714)" fill="#030304"/>
    <path id="Trazado_640441" data-name="Trazado 640441" d="M-405.562,500.71c-1.375,0-2.749,0-4.124,0-.8,0-1.282-.4-1.3-1.06-.014-.682.477-1.1,1.32-1.1q4.09-.006,8.18,0c.847,0,1.339.413,1.331,1.093s-.5,1.067-1.355,1.07C-402.858,500.713-404.21,500.71-405.562,500.71Z" transform="translate(1193.303 510.09)" fill="#030304"/>
    <path id="Trazado_640442" data-name="Trazado 640442" d="M-334.637,345c-1.036,0-2.072.007-3.109,0a1.1,1.1,0,0,1-1.238-1.048c-.02-.66.463-1.108,1.241-1.112q3.109-.012,6.217,0a1.084,1.084,0,0,1,1.206,1.08A1.089,1.089,0,0,1-331.528,345C-332.564,345.014-333.6,345-334.637,345Z" transform="translate(1134.311 637.669)" fill="#030304"/>
    <path id="Trazado_640443" data-name="Trazado 640443" d="M-334.651,368.961c-1.014,0-2.027.005-3.041,0-.8-.006-1.28-.409-1.29-1.065s.47-1.093,1.257-1.1q3.075-.011,6.15,0c.787,0,1.268.436,1.257,1.1s-.493,1.058-1.292,1.064C-332.624,368.966-333.637,368.961-334.651,368.961Z" transform="translate(1134.309 618.04)" fill="#030304"/>
    <path id="Trazado_640444" data-name="Trazado 640444" d="M-335.668,390.748c.653,0,1.306-.008,1.958,0a1.1,1.1,0,0,1,1.224,1.062,1.083,1.083,0,0,1-1.188,1.1q-2.06.02-4.119,0a1.082,1.082,0,0,1-1.189-1.095,1.091,1.091,0,0,1,1.221-1.063C-337.063,390.739-336.365,390.748-335.668,390.748Z" transform="translate(1134.309 598.415)" fill="#030304"/>
    <path id="Trazado_640445" data-name="Trazado 640445" d="M-388.353,560.329c.164-.342.308-.7.5-1.025a1.565,1.565,0,0,1,2.016-.741,1.571,1.571,0,0,1,.948,1.931c-.207.73-.5,1.437-.749,2.154Z" transform="translate(1174.761 461.016)" fill="#cde3f4"/>
    <path id="Trazado_640446" data-name="Trazado 640446" d="M-398.885,361.47v-6.41h6.442v6.41Z" transform="translate(1183.391 627.653)" fill="#fe9711"/>
  </g>
</svg>
