<svg xmlns="http://www.w3.org/2000/svg" width="610" height="338.771" viewBox="0 0 610 338.771">
  <g id="Grupo_904291" data-name="Grupo 904291" transform="translate(-152.794 -237.236)">
    <g id="Grupo_904078" data-name="Grupo 904078" transform="translate(152.794 237.236)">
      <path id="Trazado_633212" data-name="Trazado 633212" d="M735.662,575.175c-33,0-528.452.118-528.73-.742l-.047-.109a.581.581,0,0,1-.047-.159c-.184-.43-95.4-38.785-32.637-124.577,32.9-44.963-25.83-113.8,44.089-174.542,109.566-95.184,214.125,22.056,258.445,0,37.253-18.539,97.12-45.1,157.887-21.282,16.7,6.545,52.854,39.378,22.828,94.594-15,27.59,51.572,30.793,75.925,60.107C786.411,472.3,755.4,575.175,735.662,575.175Z" transform="translate(-152.794 -237.236)" fill="#ebf3fa"/>
    </g>
    <g id="Grupo_904081" data-name="Grupo 904081" transform="translate(549.659 284.555)" opacity="0.5">
      <g id="Grupo_904079" data-name="Grupo 904079" transform="translate(0 3.288)" opacity="0.5">
        <path id="Trazado_633213" data-name="Trazado 633213" d="M1760.948,531.1s-6.362-50.4,11.431-85.856a5.641,5.641,0,0,1,10.528,1.309c.02.086.038.172.057.26C1784.817,455.63,1765.923,499.457,1760.948,531.1Z" transform="translate(-1759.842 -442.163)" fill="#aec3ff"/>
      </g>
      <g id="Grupo_904080" data-name="Grupo 904080" transform="translate(1.552)" opacity="0.5">
        <path id="Trazado_633214" data-name="Trazado 633214" d="M1766.128,535.851s9.734-67.4,45.67-105.1a5.984,5.984,0,0,1,8.244-.475c1.549,1.371,2.7,3.827,2.435,8.18C1821.759,450.063,1783.187,498.151,1766.128,535.851Z" transform="translate(-1766.128 -428.85)" fill="#aec3ff"/>
      </g>
    </g>
    <g id="Grupo_904164" data-name="Grupo 904164" transform="translate(214.911 299.56)" opacity="0.4">
      <g id="Grupo_904094" data-name="Grupo 904094" transform="translate(10.901 13.37)">
        <g id="Grupo_904082" data-name="Grupo 904082" transform="translate(0)">
          <path id="Rectángulo_294778" data-name="Rectángulo 294778" d="M13.756,0h.6A13.757,13.757,0,0,1,28.115,13.757V82.77A13.756,13.756,0,0,1,14.359,96.526h-.6A13.756,13.756,0,0,1,0,82.77V13.756A13.756,13.756,0,0,1,13.756,0Z" transform="translate(28.115 96.526) rotate(180)" fill="#8c9df4"/>
        </g>
        <g id="Grupo_904083" data-name="Grupo 904083" transform="translate(7.468 69.118)">
          <path id="Trazado_633215" data-name="Trazado 633215" d="M491.889,830.221a6.59,6.59,0,1,0-6.589,6.589A6.589,6.589,0,0,0,491.889,830.221Z" transform="translate(-478.71 -823.632)" fill="#505aba"/>
        </g>
        <g id="Grupo_904084" data-name="Grupo 904084" transform="translate(6.77 68.459)">
          <path id="Trazado_633216" data-name="Trazado 633216" d="M483.172,835.536a7.287,7.287,0,1,1,7.287-7.288A7.3,7.3,0,0,1,483.172,835.536Zm0-13.179a5.892,5.892,0,1,0,5.892,5.892A5.9,5.9,0,0,0,483.172,822.356Z" transform="translate(-475.885 -820.961)" fill="#fff"/>
        </g>
        <g id="Grupo_904085" data-name="Grupo 904085" transform="translate(5.821 4.417)">
          <path id="Rectángulo_294779" data-name="Rectángulo 294779" d="M5.081,0h6.3a5.082,5.082,0,0,1,5.082,5.082V49.176a5.082,5.082,0,0,1-5.082,5.082h-6.3A5.081,5.081,0,0,1,0,49.177V5.081A5.081,5.081,0,0,1,5.081,0Z" transform="translate(16.465 54.258) rotate(180)" fill="#aec3ff"/>
        </g>
        <g id="Grupo_904086" data-name="Grupo 904086" transform="translate(7.751 6.381)">
          <rect id="Rectángulo_294780" data-name="Rectángulo 294780" width="12.271" height="2.176" rx="1.088" transform="translate(12.271 2.176) rotate(180)" fill="#f99746"/>
        </g>
        <g id="Grupo_904093" data-name="Grupo 904093" transform="translate(9.918 18.012)">
          <g id="Grupo_904087" data-name="Grupo 904087" transform="translate(6.239 22.5)">
            <path id="Trazado_633217" data-name="Trazado 633217" d="M513.9,708.339v11.183a.544.544,0,0,0,.544.544h0a.544.544,0,0,0,.544-.544V708.339a.544.544,0,0,0-.544-.544h0A.544.544,0,0,0,513.9,708.339Z" transform="translate(-513.896 -707.795)" fill="#505aba"/>
          </g>
          <g id="Grupo_904088" data-name="Grupo 904088" transform="translate(6.239 7.114)">
            <path id="Trazado_633218" data-name="Trazado 633218" d="M513.9,646.035v11.184a.544.544,0,0,0,.544.544h0a.545.545,0,0,0,.544-.544V646.035a.544.544,0,0,0-.544-.544h0A.544.544,0,0,0,513.9,646.035Z" transform="translate(-513.896 -645.491)" fill="#505aba"/>
          </g>
          <g id="Grupo_904089" data-name="Grupo 904089" transform="translate(0 22.5)">
            <path id="Trazado_633219" data-name="Trazado 633219" d="M488.633,708.339v11.183a.544.544,0,0,0,.544.544h0a.544.544,0,0,0,.544-.544V708.339a.544.544,0,0,0-.544-.544h0A.544.544,0,0,0,488.633,708.339Z" transform="translate(-488.633 -707.795)" fill="#505aba"/>
          </g>
          <g id="Grupo_904090" data-name="Grupo 904090" transform="translate(0 7.114)">
            <path id="Trazado_633220" data-name="Trazado 633220" d="M488.633,646.035v11.184a.544.544,0,0,0,.544.544h0a.544.544,0,0,0,.544-.544V646.035a.544.544,0,0,0-.544-.544h0A.544.544,0,0,0,488.633,646.035Z" transform="translate(-488.633 -645.491)" fill="#505aba"/>
          </g>
          <g id="Grupo_904091" data-name="Grupo 904091" transform="translate(3.246 19.344)">
            <path id="Trazado_633221" data-name="Trazado 633221" d="M501.778,695.559V709.9a.544.544,0,0,0,.544.544h0a.544.544,0,0,0,.544-.544v-14.34a.544.544,0,0,0-.544-.544h0A.544.544,0,0,0,501.778,695.559Z" transform="translate(-501.778 -695.015)" fill="#505aba"/>
          </g>
          <g id="Grupo_904092" data-name="Grupo 904092" transform="translate(3.246)">
            <path id="Trazado_633222" data-name="Trazado 633222" d="M501.778,617.229v14.34a.544.544,0,0,0,.544.544h0a.544.544,0,0,0,.544-.544v-14.34a.544.544,0,0,0-.544-.544h0A.544.544,0,0,0,501.778,617.229Z" transform="translate(-501.778 -616.685)" fill="#505aba"/>
          </g>
        </g>
      </g>
      <g id="Grupo_904107" data-name="Grupo 904107" transform="translate(45.963 13.37)">
        <g id="Grupo_904095" data-name="Grupo 904095" transform="translate(0)">
          <rect id="Rectángulo_294781" data-name="Rectángulo 294781" width="28.115" height="96.526" rx="13.756" transform="translate(28.115 96.526) rotate(-180)" fill="#8c9df4"/>
        </g>
        <g id="Grupo_904096" data-name="Grupo 904096" transform="translate(7.468 69.118)">
          <path id="Trazado_633223" data-name="Trazado 633223" d="M633.87,830.221a6.59,6.59,0,1,0-6.589,6.589A6.59,6.59,0,0,0,633.87,830.221Z" transform="translate(-620.691 -823.632)" fill="#505aba"/>
        </g>
        <g id="Grupo_904097" data-name="Grupo 904097" transform="translate(6.77 68.459)">
          <path id="Trazado_633224" data-name="Trazado 633224" d="M625.153,835.536a7.287,7.287,0,1,1,7.287-7.288A7.3,7.3,0,0,1,625.153,835.536Zm0-13.179a5.892,5.892,0,1,0,5.891,5.892A5.9,5.9,0,0,0,625.153,822.356Z" transform="translate(-617.865 -820.961)" fill="#fff"/>
        </g>
        <g id="Grupo_904098" data-name="Grupo 904098" transform="translate(5.821 4.417)">
          <rect id="Rectángulo_294782" data-name="Rectángulo 294782" width="16.465" height="54.258" rx="5.082" transform="translate(16.465 54.258) rotate(180)" fill="#aec3ff"/>
        </g>
        <g id="Grupo_904099" data-name="Grupo 904099" transform="translate(7.751 6.381)">
          <rect id="Rectángulo_294783" data-name="Rectángulo 294783" width="12.271" height="2.176" rx="1.088" transform="translate(12.271 2.176) rotate(180)" fill="#f99746"/>
        </g>
        <g id="Grupo_904106" data-name="Grupo 904106" transform="translate(9.918 18.012)">
          <g id="Grupo_904100" data-name="Grupo 904100" transform="translate(6.239 22.5)">
            <path id="Trazado_633225" data-name="Trazado 633225" d="M655.877,708.339v11.183a.544.544,0,0,0,.544.544h0a.544.544,0,0,0,.544-.544V708.339a.544.544,0,0,0-.544-.544h0A.544.544,0,0,0,655.877,708.339Z" transform="translate(-655.877 -707.795)" fill="#505aba"/>
          </g>
          <g id="Grupo_904101" data-name="Grupo 904101" transform="translate(6.239 7.114)">
            <path id="Trazado_633226" data-name="Trazado 633226" d="M655.877,646.035v11.184a.544.544,0,0,0,.544.544h0a.544.544,0,0,0,.544-.544V646.035a.544.544,0,0,0-.544-.544h0A.544.544,0,0,0,655.877,646.035Z" transform="translate(-655.877 -645.491)" fill="#505aba"/>
          </g>
          <g id="Grupo_904102" data-name="Grupo 904102" transform="translate(0 22.5)">
            <path id="Trazado_633227" data-name="Trazado 633227" d="M630.612,708.339v11.183a.544.544,0,0,0,.544.544h0a.544.544,0,0,0,.544-.544V708.339a.544.544,0,0,0-.544-.544h0A.544.544,0,0,0,630.612,708.339Z" transform="translate(-630.612 -707.795)" fill="#505aba"/>
          </g>
          <g id="Grupo_904103" data-name="Grupo 904103" transform="translate(0 7.114)">
            <path id="Trazado_633228" data-name="Trazado 633228" d="M630.612,646.035v11.184a.544.544,0,0,0,.544.544h0a.544.544,0,0,0,.544-.544V646.035a.544.544,0,0,0-.544-.544h0A.544.544,0,0,0,630.612,646.035Z" transform="translate(-630.612 -645.491)" fill="#505aba"/>
          </g>
          <g id="Grupo_904104" data-name="Grupo 904104" transform="translate(3.247 19.344)">
            <path id="Trazado_633229" data-name="Trazado 633229" d="M643.759,695.559V709.9a.544.544,0,0,0,.544.544h0a.543.543,0,0,0,.544-.544v-14.34a.544.544,0,0,0-.544-.544h0A.544.544,0,0,0,643.759,695.559Z" transform="translate(-643.759 -695.015)" fill="#505aba"/>
          </g>
          <g id="Grupo_904105" data-name="Grupo 904105" transform="translate(3.247)">
            <path id="Trazado_633230" data-name="Trazado 633230" d="M643.759,617.229v14.34a.544.544,0,0,0,.544.544h0a.544.544,0,0,0,.544-.544v-14.34a.544.544,0,0,0-.544-.544h0A.544.544,0,0,0,643.759,617.229Z" transform="translate(-643.759 -616.685)" fill="#505aba"/>
          </g>
        </g>
      </g>
      <g id="Grupo_904120" data-name="Grupo 904120" transform="translate(81.696 13.37)">
        <g id="Grupo_904108" data-name="Grupo 904108">
          <rect id="Rectángulo_294784" data-name="Rectángulo 294784" width="28.115" height="96.526" rx="13.756" transform="translate(28.115 96.526) rotate(180)" fill="#8c9df4"/>
        </g>
        <g id="Grupo_904109" data-name="Grupo 904109" transform="translate(7.468 69.118)">
          <path id="Trazado_633231" data-name="Trazado 633231" d="M778.563,830.221a6.589,6.589,0,1,0-6.59,6.589A6.589,6.589,0,0,0,778.563,830.221Z" transform="translate(-765.384 -823.632)" fill="#505aba"/>
        </g>
        <g id="Grupo_904110" data-name="Grupo 904110" transform="translate(6.77 68.459)">
          <path id="Trazado_633232" data-name="Trazado 633232" d="M769.845,835.536a7.287,7.287,0,1,1,7.287-7.288A7.3,7.3,0,0,1,769.845,835.536Zm0-13.179a5.892,5.892,0,1,0,5.892,5.892A5.9,5.9,0,0,0,769.845,822.356Z" transform="translate(-762.558 -820.961)" fill="#fff"/>
        </g>
        <g id="Grupo_904111" data-name="Grupo 904111" transform="translate(5.821 4.417)">
          <rect id="Rectángulo_294785" data-name="Rectángulo 294785" width="16.465" height="54.258" rx="5.082" transform="translate(16.465 54.258) rotate(180)" fill="#aec3ff"/>
        </g>
        <g id="Grupo_904112" data-name="Grupo 904112" transform="translate(7.751 6.381)">
          <rect id="Rectángulo_294786" data-name="Rectángulo 294786" width="12.271" height="2.176" rx="1.088" transform="translate(12.271 2.176) rotate(180)" fill="#f99746"/>
        </g>
        <g id="Grupo_904119" data-name="Grupo 904119" transform="translate(9.918 18.012)">
          <g id="Grupo_904113" data-name="Grupo 904113" transform="translate(6.239 22.5)">
            <path id="Trazado_633233" data-name="Trazado 633233" d="M800.569,708.339v11.183a.544.544,0,0,0,.544.544h0a.544.544,0,0,0,.544-.544V708.339a.544.544,0,0,0-.544-.544h0A.544.544,0,0,0,800.569,708.339Z" transform="translate(-800.569 -707.795)" fill="#505aba"/>
          </g>
          <g id="Grupo_904114" data-name="Grupo 904114" transform="translate(6.239 7.114)">
            <path id="Trazado_633234" data-name="Trazado 633234" d="M800.569,646.035v11.184a.544.544,0,0,0,.544.544h0a.544.544,0,0,0,.544-.544V646.035a.544.544,0,0,0-.544-.544h0A.544.544,0,0,0,800.569,646.035Z" transform="translate(-800.569 -645.491)" fill="#505aba"/>
          </g>
          <g id="Grupo_904115" data-name="Grupo 904115" transform="translate(0 22.5)">
            <path id="Trazado_633235" data-name="Trazado 633235" d="M775.3,708.339v11.183a.544.544,0,0,0,.544.544h0a.544.544,0,0,0,.544-.544V708.339a.544.544,0,0,0-.544-.544h0A.544.544,0,0,0,775.3,708.339Z" transform="translate(-775.305 -707.795)" fill="#505aba"/>
          </g>
          <g id="Grupo_904116" data-name="Grupo 904116" transform="translate(0 7.114)">
            <path id="Trazado_633236" data-name="Trazado 633236" d="M775.3,646.035v11.184a.544.544,0,0,0,.544.544h0a.544.544,0,0,0,.544-.544V646.035a.544.544,0,0,0-.544-.544h0A.544.544,0,0,0,775.3,646.035Z" transform="translate(-775.305 -645.491)" fill="#505aba"/>
          </g>
          <g id="Grupo_904117" data-name="Grupo 904117" transform="translate(3.246 19.344)">
            <path id="Trazado_633237" data-name="Trazado 633237" d="M788.451,695.559V709.9a.544.544,0,0,0,.544.544h0a.544.544,0,0,0,.544-.544v-14.34a.544.544,0,0,0-.544-.544h0A.544.544,0,0,0,788.451,695.559Z" transform="translate(-788.451 -695.015)" fill="#505aba"/>
          </g>
          <g id="Grupo_904118" data-name="Grupo 904118" transform="translate(3.246)">
            <path id="Trazado_633238" data-name="Trazado 633238" d="M788.451,617.229v14.34a.544.544,0,0,0,.544.544h0a.544.544,0,0,0,.544-.544v-14.34a.544.544,0,0,0-.544-.544h0A.544.544,0,0,0,788.451,617.229Z" transform="translate(-788.451 -616.685)" fill="#505aba"/>
          </g>
        </g>
      </g>
      <g id="Grupo_904124" data-name="Grupo 904124" transform="translate(118.494 13.37)">
        <g id="Grupo_904121" data-name="Grupo 904121" transform="translate(0)">
          <path id="Rectángulo_294787" data-name="Rectángulo 294787" d="M13.756,0h.6A13.755,13.755,0,0,1,28.115,13.755V82.77A13.756,13.756,0,0,1,14.359,96.526h-.6A13.756,13.756,0,0,1,0,82.77V13.756A13.756,13.756,0,0,1,13.756,0Z" transform="translate(28.115 96.526) rotate(180)" fill="#8c9df4"/>
        </g>
        <g id="Grupo_904122" data-name="Grupo 904122" transform="translate(5.821 4.417)">
          <path id="Rectángulo_294788" data-name="Rectángulo 294788" d="M5.082,0h6.3a5.083,5.083,0,0,1,5.083,5.083V49.176a5.082,5.082,0,0,1-5.082,5.082h-6.3A5.082,5.082,0,0,1,0,49.176V5.082A5.082,5.082,0,0,1,5.082,0Z" transform="translate(16.465 54.258) rotate(180)" fill="#aec3ff"/>
        </g>
        <g id="Grupo_904123" data-name="Grupo 904123" transform="translate(7.751 6.381)">
          <path id="Rectángulo_294789" data-name="Rectángulo 294789" d="M1.088,0h10.1a1.088,1.088,0,0,1,1.088,1.088v0a1.088,1.088,0,0,1-1.088,1.088H1.088A1.088,1.088,0,0,1,0,1.088v0A1.088,1.088,0,0,1,1.088,0Z" transform="translate(12.271 2.176) rotate(180)" fill="#f99746"/>
        </g>
      </g>
      <g id="Grupo_904128" data-name="Grupo 904128" transform="translate(154.006 13.37)">
        <g id="Grupo_904125" data-name="Grupo 904125" transform="translate(0)">
          <path id="Rectángulo_294790" data-name="Rectángulo 294790" d="M13.756,0h.6A13.757,13.757,0,0,1,28.115,13.757V82.77A13.756,13.756,0,0,1,14.359,96.526h-.6A13.756,13.756,0,0,1,0,82.77V13.756A13.756,13.756,0,0,1,13.756,0Z" transform="translate(28.115 96.526) rotate(180)" fill="#8c9df4"/>
        </g>
        <g id="Grupo_904126" data-name="Grupo 904126" transform="translate(5.821 4.417)">
          <path id="Rectángulo_294791" data-name="Rectángulo 294791" d="M5.082,0h6.3a5.082,5.082,0,0,1,5.082,5.082V49.176a5.082,5.082,0,0,1-5.082,5.082h-6.3A5.081,5.081,0,0,1,0,49.176V5.082A5.082,5.082,0,0,1,5.082,0Z" transform="translate(16.465 54.258) rotate(180)" fill="#aec3ff"/>
        </g>
        <g id="Grupo_904127" data-name="Grupo 904127" transform="translate(7.751 6.381)">
          <rect id="Rectángulo_294792" data-name="Rectángulo 294792" width="12.271" height="2.176" rx="1.088" transform="translate(12.271 2.176) rotate(180)" fill="#f99746"/>
        </g>
      </g>
      <g id="Grupo_904141" data-name="Grupo 904141" transform="translate(10.901 122.549)">
        <g id="Grupo_904129" data-name="Grupo 904129" transform="translate(0 0)">
          <path id="Rectángulo_294793" data-name="Rectángulo 294793" d="M13.756,0h.6A13.757,13.757,0,0,1,28.115,13.757V82.771A13.755,13.755,0,0,1,14.36,96.526h-.6A13.756,13.756,0,0,1,0,82.77V13.756A13.756,13.756,0,0,1,13.756,0Z" transform="translate(28.115 96.526) rotate(180)" fill="#8c9df4"/>
        </g>
        <g id="Grupo_904130" data-name="Grupo 904130" transform="translate(7.468 69.118)">
          <circle id="Elipse_7136" data-name="Elipse 7136" cx="6.59" cy="6.59" r="6.59" fill="#505aba"/>
        </g>
        <g id="Grupo_904131" data-name="Grupo 904131" transform="translate(6.77 68.458)">
          <path id="Trazado_633239" data-name="Trazado 633239" d="M483.172,1277.642a7.287,7.287,0,1,1,7.287-7.287A7.3,7.3,0,0,1,483.172,1277.642Zm0-13.179a5.892,5.892,0,1,0,5.892,5.892A5.9,5.9,0,0,0,483.172,1264.463Z" transform="translate(-475.885 -1263.068)" fill="#fff"/>
        </g>
        <g id="Grupo_904132" data-name="Grupo 904132" transform="translate(5.821 4.417)">
          <path id="Rectángulo_294794" data-name="Rectángulo 294794" d="M5.082,0h6.3a5.082,5.082,0,0,1,5.082,5.082V49.176a5.082,5.082,0,0,1-5.082,5.082h-6.3A5.081,5.081,0,0,1,0,49.177V5.082A5.082,5.082,0,0,1,5.082,0Z" transform="translate(16.465 54.258) rotate(180)" fill="#aec3ff"/>
        </g>
        <g id="Grupo_904133" data-name="Grupo 904133" transform="translate(7.751 6.38)">
          <path id="Rectángulo_294795" data-name="Rectángulo 294795" d="M1.088,0h10.1a1.088,1.088,0,0,1,1.088,1.088v0a1.088,1.088,0,0,1-1.088,1.088H1.088A1.088,1.088,0,0,1,0,1.088v0A1.088,1.088,0,0,1,1.088,0Z" transform="translate(12.271 2.176) rotate(180)" fill="#f99746"/>
        </g>
        <g id="Grupo_904140" data-name="Grupo 904140" transform="translate(9.918 18.012)">
          <g id="Grupo_904134" data-name="Grupo 904134" transform="translate(6.239 22.5)">
            <path id="Trazado_633240" data-name="Trazado 633240" d="M513.9,1150.447v11.184a.544.544,0,0,0,.544.544h0a.544.544,0,0,0,.544-.544v-11.184a.544.544,0,0,0-.544-.544h0A.544.544,0,0,0,513.9,1150.447Z" transform="translate(-513.896 -1149.903)" fill="#505aba"/>
          </g>
          <g id="Grupo_904135" data-name="Grupo 904135" transform="translate(6.239 7.114)">
            <path id="Trazado_633241" data-name="Trazado 633241" d="M513.9,1088.143v11.183a.544.544,0,0,0,.544.544h0a.544.544,0,0,0,.544-.544v-11.183a.544.544,0,0,0-.544-.544h0A.544.544,0,0,0,513.9,1088.143Z" transform="translate(-513.896 -1087.599)" fill="#505aba"/>
          </g>
          <g id="Grupo_904136" data-name="Grupo 904136" transform="translate(0 22.5)">
            <path id="Trazado_633242" data-name="Trazado 633242" d="M488.633,1150.447v11.184a.544.544,0,0,0,.544.544h0a.544.544,0,0,0,.544-.544v-11.184a.544.544,0,0,0-.544-.544h0A.544.544,0,0,0,488.633,1150.447Z" transform="translate(-488.633 -1149.903)" fill="#505aba"/>
          </g>
          <g id="Grupo_904137" data-name="Grupo 904137" transform="translate(0 7.114)">
            <path id="Trazado_633243" data-name="Trazado 633243" d="M488.633,1088.143v11.183a.543.543,0,0,0,.544.544h0a.544.544,0,0,0,.544-.544v-11.183a.544.544,0,0,0-.544-.544h0A.544.544,0,0,0,488.633,1088.143Z" transform="translate(-488.633 -1087.599)" fill="#505aba"/>
          </g>
          <g id="Grupo_904138" data-name="Grupo 904138" transform="translate(3.246 19.344)">
            <path id="Trazado_633244" data-name="Trazado 633244" d="M501.778,1137.666v14.339a.544.544,0,0,0,.544.544h0a.544.544,0,0,0,.544-.544v-14.339a.544.544,0,0,0-.544-.544h0A.544.544,0,0,0,501.778,1137.666Z" transform="translate(-501.778 -1137.122)" fill="#505aba"/>
          </g>
          <g id="Grupo_904139" data-name="Grupo 904139" transform="translate(3.246)">
            <path id="Trazado_633245" data-name="Trazado 633245" d="M501.778,1059.337v14.339a.544.544,0,0,0,.544.544h0a.544.544,0,0,0,.544-.544v-14.339a.544.544,0,0,0-.544-.544h0A.544.544,0,0,0,501.778,1059.337Z" transform="translate(-501.778 -1058.793)" fill="#505aba"/>
          </g>
        </g>
      </g>
      <g id="Grupo_904154" data-name="Grupo 904154" transform="translate(45.963 122.549)">
        <g id="Grupo_904142" data-name="Grupo 904142" transform="translate(0 0)">
          <path id="Rectángulo_294796" data-name="Rectángulo 294796" d="M13.756,0h.6A13.756,13.756,0,0,1,28.115,13.756V82.771A13.755,13.755,0,0,1,14.36,96.526h-.6A13.756,13.756,0,0,1,0,82.77V13.756A13.756,13.756,0,0,1,13.756,0Z" transform="translate(28.115 96.526) rotate(180)" fill="#8c9df4"/>
        </g>
        <g id="Grupo_904143" data-name="Grupo 904143" transform="translate(7.468 69.118)">
          <path id="Trazado_633246" data-name="Trazado 633246" d="M633.87,1272.328a6.59,6.59,0,1,0-6.589,6.589A6.59,6.59,0,0,0,633.87,1272.328Z" transform="translate(-620.691 -1265.738)" fill="#505aba"/>
        </g>
        <g id="Grupo_904144" data-name="Grupo 904144" transform="translate(6.77 68.458)">
          <path id="Trazado_633247" data-name="Trazado 633247" d="M625.153,1277.642a7.287,7.287,0,1,1,7.287-7.287A7.3,7.3,0,0,1,625.153,1277.642Zm0-13.179a5.892,5.892,0,1,0,5.891,5.892A5.9,5.9,0,0,0,625.153,1264.463Z" transform="translate(-617.865 -1263.068)" fill="#fff"/>
        </g>
        <g id="Grupo_904145" data-name="Grupo 904145" transform="translate(5.821 4.417)">
          <rect id="Rectángulo_294797" data-name="Rectángulo 294797" width="16.465" height="54.258" rx="5.082" transform="translate(16.465 54.258) rotate(180)" fill="#aec3ff"/>
        </g>
        <g id="Grupo_904146" data-name="Grupo 904146" transform="translate(7.751 6.38)">
          <path id="Rectángulo_294798" data-name="Rectángulo 294798" d="M1.088,0h10.1a1.088,1.088,0,0,1,1.088,1.088v0a1.088,1.088,0,0,1-1.088,1.088H1.088A1.088,1.088,0,0,1,0,1.088v0A1.088,1.088,0,0,1,1.088,0Z" transform="translate(12.271 2.176) rotate(180)" fill="#f99746"/>
        </g>
        <g id="Grupo_904153" data-name="Grupo 904153" transform="translate(9.918 18.012)">
          <g id="Grupo_904147" data-name="Grupo 904147" transform="translate(6.239 22.5)">
            <path id="Trazado_633248" data-name="Trazado 633248" d="M655.877,1150.447v11.184a.544.544,0,0,0,.544.544h0a.544.544,0,0,0,.544-.544v-11.184a.544.544,0,0,0-.544-.544h0A.544.544,0,0,0,655.877,1150.447Z" transform="translate(-655.877 -1149.903)" fill="#505aba"/>
          </g>
          <g id="Grupo_904148" data-name="Grupo 904148" transform="translate(6.239 7.114)">
            <path id="Trazado_633249" data-name="Trazado 633249" d="M655.877,1088.143v11.183a.544.544,0,0,0,.544.544h0a.543.543,0,0,0,.544-.544v-11.183a.544.544,0,0,0-.544-.544h0A.544.544,0,0,0,655.877,1088.143Z" transform="translate(-655.877 -1087.599)" fill="#505aba"/>
          </g>
          <g id="Grupo_904149" data-name="Grupo 904149" transform="translate(0 22.5)">
            <path id="Trazado_633250" data-name="Trazado 633250" d="M630.612,1150.447v11.184a.544.544,0,0,0,.544.544h0a.544.544,0,0,0,.544-.544v-11.184a.544.544,0,0,0-.544-.544h0A.544.544,0,0,0,630.612,1150.447Z" transform="translate(-630.612 -1149.903)" fill="#505aba"/>
          </g>
          <g id="Grupo_904150" data-name="Grupo 904150" transform="translate(0 7.114)">
            <path id="Trazado_633251" data-name="Trazado 633251" d="M630.612,1088.143v11.183a.544.544,0,0,0,.544.544h0a.544.544,0,0,0,.544-.544v-11.183a.544.544,0,0,0-.544-.544h0A.544.544,0,0,0,630.612,1088.143Z" transform="translate(-630.612 -1087.599)" fill="#505aba"/>
          </g>
          <g id="Grupo_904151" data-name="Grupo 904151" transform="translate(3.247 19.344)">
            <path id="Trazado_633252" data-name="Trazado 633252" d="M643.759,1137.666v14.339a.544.544,0,0,0,.544.544h0a.544.544,0,0,0,.544-.544v-14.339a.544.544,0,0,0-.544-.544h0A.544.544,0,0,0,643.759,1137.666Z" transform="translate(-643.759 -1137.122)" fill="#505aba"/>
          </g>
          <g id="Grupo_904152" data-name="Grupo 904152" transform="translate(3.247)">
            <path id="Trazado_633253" data-name="Trazado 633253" d="M643.759,1059.337v14.339a.544.544,0,0,0,.544.544h0a.544.544,0,0,0,.544-.544v-14.339a.544.544,0,0,0-.544-.544h0A.544.544,0,0,0,643.759,1059.337Z" transform="translate(-643.759 -1058.793)" fill="#505aba"/>
          </g>
        </g>
      </g>
      <g id="Grupo_904156" data-name="Grupo 904156" transform="translate(81.696 122.549)">
        <g id="Grupo_904155" data-name="Grupo 904155" transform="translate(0 0)">
          <path id="Rectángulo_294799" data-name="Rectángulo 294799" d="M13.756,0h.6A13.756,13.756,0,0,1,28.115,13.756V82.771A13.755,13.755,0,0,1,14.36,96.526h-.6A13.756,13.756,0,0,1,0,82.77V13.756A13.756,13.756,0,0,1,13.756,0Z" transform="translate(28.115 96.526) rotate(180)" fill="#8c9df4"/>
        </g>
      </g>
      <g id="Grupo_904158" data-name="Grupo 904158" transform="translate(118.494 122.549)">
        <g id="Grupo_904157" data-name="Grupo 904157" transform="translate(0 0)">
          <path id="Rectángulo_294800" data-name="Rectángulo 294800" d="M13.756,0h.6A13.755,13.755,0,0,1,28.115,13.755V82.771A13.755,13.755,0,0,1,14.36,96.526h-.6A13.756,13.756,0,0,1,0,82.77V13.756A13.756,13.756,0,0,1,13.756,0Z" transform="translate(28.115 96.526) rotate(180)" fill="#8c9df4"/>
        </g>
      </g>
      <g id="Grupo_904160" data-name="Grupo 904160" transform="translate(154.006 122.549)">
        <g id="Grupo_904159" data-name="Grupo 904159" transform="translate(0 0)">
          <path id="Rectángulo_294801" data-name="Rectángulo 294801" d="M13.756,0h.6A13.757,13.757,0,0,1,28.115,13.757V82.771A13.755,13.755,0,0,1,14.36,96.526h-.6A13.756,13.756,0,0,1,0,82.77V13.756A13.756,13.756,0,0,1,13.756,0Z" transform="translate(28.115 96.526) rotate(180)" fill="#8c9df4"/>
        </g>
      </g>
      <g id="Grupo_904161" data-name="Grupo 904161" transform="translate(0 0)">
        <path id="Trazado_633254" data-name="Trazado 633254" d="M407.708,765.23h0a3.38,3.38,0,0,1-3.38-3.38V492.989a3.38,3.38,0,0,1,3.38-3.38h0a3.38,3.38,0,0,1,3.38,3.38V761.85A3.38,3.38,0,0,1,407.708,765.23Z" transform="translate(-404.328 -489.609)" fill="#bdd1f9"/>
      </g>
      <g id="Grupo_904162" data-name="Grupo 904162" transform="translate(0 109.908)">
        <rect id="Rectángulo_294802" data-name="Rectángulo 294802" width="195.299" height="2.715" transform="translate(195.299 2.715) rotate(180)" fill="#bdd1f9"/>
      </g>
      <g id="Grupo_904163" data-name="Grupo 904163" transform="translate(0 219.033)">
        <rect id="Rectángulo_294803" data-name="Rectángulo 294803" width="207.426" height="2.715" transform="translate(207.426 2.715) rotate(180)" fill="#bdd1f9"/>
      </g>
    </g>
    <g id="Grupo_904165" data-name="Grupo 904165" transform="translate(561.024 391.106)">
      <path id="Trazado_633255" data-name="Trazado 633255" d="M1874.8,861.895s-18.568,16.118-15.355,19.388,19.4-19.452,19.4-19.452,24.312,5.475,30.691,11.615c0,0-25.568,9.849-21.65,12.227s31-6.634,31-6.634,20.7,10.953,15.124,23.945-14.491,14.633-17.694,13.184-20.187-15.262-21.506-12.681,7.445,15.325,15.5,18.438c0,0-21.074,11.957-29.728,3.653s-6.962-16.393-12.4-21.428-10.911-6.828-9.249-2.974,12.3,10.571,13.826,18.256,3.376,13.137-6.727,8.036-24.82-18.569-22.646-27.726l.272-1.145a4.5,4.5,0,0,0-.272,1.145c-2.344-.335-8.281,2.221-12.659,4.322-.7.394-1.714.9-3.139,1.554h0c-.618.315-1.12.576-1.469.76-9.135,5.239-18,19.762-18,19.762l-2.252-.972c6.451-16.6,22.348-21.843,22.348-21.843a45.347,45.347,0,0,0,17.341-12.738s-9.3-22.6,8.559-29.122C1854.113,861.464,1866.531,858.606,1874.8,861.895Z" transform="translate(-1805.865 -860.312)" fill="#d2e2f9"/>
    </g>
    <g id="Grupo_904171" data-name="Grupo 904171" transform="translate(658.709 474.016)">
      <g id="Grupo_904166" data-name="Grupo 904166" transform="translate(38.512 0)">
        <rect id="Rectángulo_294804" data-name="Rectángulo 294804" width="15.97" height="51.519" transform="translate(15.97 51.519) rotate(180)" fill="#35488b"/>
      </g>
      <g id="Grupo_904167" data-name="Grupo 904167" transform="translate(0 0)">
        <rect id="Rectángulo_294805" data-name="Rectángulo 294805" width="38.512" height="51.519" transform="translate(38.512 51.519) rotate(180)" fill="#2c3a64"/>
      </g>
      <g id="Grupo_904168" data-name="Grupo 904168" transform="translate(43.832 3.769)">
        <path id="Trazado_633256" data-name="Trazado 633256" d="M2384.247,1213.972a2.665,2.665,0,1,0-2.666,2.665A2.666,2.666,0,0,0,2384.247,1213.972Z" transform="translate(-2378.916 -1211.306)" fill="#dde7fe"/>
      </g>
      <g id="Grupo_904169" data-name="Grupo 904169" transform="translate(44.613 4.55)">
        <path id="Trazado_633257" data-name="Trazado 633257" d="M2385.847,1216.353a1.885,1.885,0,1,0-1.885,1.884A1.885,1.885,0,0,0,2385.847,1216.353Z" transform="translate(-2382.078 -1214.468)" fill="#6c7aff"/>
      </g>
      <g id="Grupo_904170" data-name="Grupo 904170" transform="translate(42.683 12.856)">
        <rect id="Rectángulo_294806" data-name="Rectángulo 294806" width="7.512" height="13.569" transform="translate(7.512 13.569) rotate(180)" fill="#8fadef"/>
      </g>
    </g>
    <g id="Grupo_904177" data-name="Grupo 904177" transform="translate(628.917 474.016)">
      <g id="Grupo_904172" data-name="Grupo 904172" transform="translate(38.512 0)">
        <rect id="Rectángulo_294807" data-name="Rectángulo 294807" width="15.97" height="51.519" transform="translate(15.97 51.519) rotate(180)" fill="#35488b"/>
      </g>
      <g id="Grupo_904173" data-name="Grupo 904173" transform="translate(0 0)">
        <rect id="Rectángulo_294808" data-name="Rectángulo 294808" width="38.512" height="51.519" transform="translate(38.512 51.519) rotate(180)" fill="#2c3a64"/>
      </g>
      <g id="Grupo_904174" data-name="Grupo 904174" transform="translate(43.832 3.769)">
        <path id="Trazado_633258" data-name="Trazado 633258" d="M2263.608,1213.972a2.665,2.665,0,1,0-2.666,2.665A2.666,2.666,0,0,0,2263.608,1213.972Z" transform="translate(-2258.277 -1211.306)" fill="#dde7fe"/>
      </g>
      <g id="Grupo_904175" data-name="Grupo 904175" transform="translate(44.613 4.55)">
        <path id="Trazado_633259" data-name="Trazado 633259" d="M2265.209,1216.353a1.885,1.885,0,1,0-1.885,1.884A1.885,1.885,0,0,0,2265.209,1216.353Z" transform="translate(-2261.44 -1214.468)" fill="#6c7aff"/>
      </g>
      <g id="Grupo_904176" data-name="Grupo 904176" transform="translate(42.683 12.856)">
        <rect id="Rectángulo_294809" data-name="Rectángulo 294809" width="7.512" height="13.569" transform="translate(7.512 13.569) rotate(180)" fill="#8fadef"/>
      </g>
    </g>
    <g id="Grupo_904183" data-name="Grupo 904183" transform="translate(601.676 474.016)">
      <g id="Grupo_904178" data-name="Grupo 904178" transform="translate(38.512 0)">
        <rect id="Rectángulo_294810" data-name="Rectángulo 294810" width="15.969" height="51.519" transform="translate(15.969 51.519) rotate(180)" fill="#35488b"/>
      </g>
      <g id="Grupo_904179" data-name="Grupo 904179" transform="translate(0 0)">
        <rect id="Rectángulo_294811" data-name="Rectángulo 294811" width="38.512" height="51.519" transform="translate(38.512 51.519) rotate(180)" fill="#2c3a64"/>
      </g>
      <g id="Grupo_904180" data-name="Grupo 904180" transform="translate(43.832 3.769)">
        <path id="Trazado_633260" data-name="Trazado 633260" d="M2153.3,1213.972a2.666,2.666,0,1,0-2.666,2.665A2.665,2.665,0,0,0,2153.3,1213.972Z" transform="translate(-2147.969 -1211.306)" fill="#dde7fe"/>
      </g>
      <g id="Grupo_904181" data-name="Grupo 904181" transform="translate(44.612 4.55)">
        <path id="Trazado_633261" data-name="Trazado 633261" d="M2154.9,1216.353a1.885,1.885,0,1,0-1.885,1.884A1.885,1.885,0,0,0,2154.9,1216.353Z" transform="translate(-2151.131 -1214.468)" fill="#6c7aff"/>
      </g>
      <g id="Grupo_904182" data-name="Grupo 904182" transform="translate(42.683 12.856)">
        <rect id="Rectángulo_294812" data-name="Rectángulo 294812" width="7.512" height="13.569" transform="translate(7.512 13.569) rotate(180)" fill="#8fadef"/>
      </g>
    </g>
    <g id="Grupo_904187" data-name="Grupo 904187" transform="translate(599.277 507.566)">
      <g id="Grupo_904184" data-name="Grupo 904184" transform="translate(0 0)">
        <rect id="Rectángulo_294813" data-name="Rectángulo 294813" width="90.228" height="66.664" transform="translate(90.228 66.664) rotate(180)" fill="#f77d48"/>
      </g>
      <g id="Grupo_904185" data-name="Grupo 904185" transform="translate(48.352 0)">
        <rect id="Rectángulo_294814" data-name="Rectángulo 294814" width="71.539" height="66.664" transform="translate(71.539 66.664) rotate(180)" fill="#ff8c64"/>
      </g>
      <g id="Grupo_904186" data-name="Grupo 904186" transform="translate(76.849 6.441)">
        <rect id="Rectángulo_294815" data-name="Rectángulo 294815" width="22.703" height="4.442" rx="2.221" transform="translate(22.703 4.442) rotate(180)" fill="#2c3a64"/>
      </g>
    </g>
    <g id="Grupo_904198" data-name="Grupo 904198" transform="translate(330.867 341.427)">
      <g id="Grupo_904188" data-name="Grupo 904188" transform="translate(120.194 77.639)">
        <path id="Trazado_633262" data-name="Trazado 633262" d="M1372.889,974.9l-12.2,145.084s-1.278,8.795,5.264,8.81c10.755.026,53.536,0,53.536,0s-8.1-1.831-8-5.95c.116-4.855,14.261-149.317,14.261-149.317Z" transform="translate(-1360.586 -973.531)" fill="#798ee8"/>
      </g>
      <g id="Grupo_904189" data-name="Grupo 904189" transform="translate(123.711 74.944)">
        <path id="Trazado_633263" data-name="Trazado 633263" d="M1434.237,1117.941c-2.115.006-43.532.076-54.007-.058-4.565-.057-5.365-4.059-5.4-6.649a12.962,12.962,0,0,1,.139-2.16l.317-3.771.809-9.611.714-8.491.918-10.911.773-9.21,8.67-103.092,52.862-1.372s-5.958,60.457-10.172,104.464c-.47,4.9-.918,9.6-1.332,13.993q-.2,2.1-.389,4.1c-.391,4.164-.748,7.987-1.059,11.363-.164,1.779-.315,3.433-.452,4.947-.538,5.935-.853,9.725-.857,10.445a6.108,6.108,0,0,0,.1,1.174C1426.74,1117.732,1433.443,1117.941,1434.237,1117.941Z" transform="translate(-1374.826 -962.616)" fill="#aec3ff"/>
      </g>
      <g id="Grupo_904190" data-name="Grupo 904190" transform="translate(4.12 0)">
        <path id="Trazado_633264" data-name="Trazado 633264" d="M890.558,659.143l29.722,119.386,4.07,16.35,13.843,55.606h257.179l-51.022-191.343Z" transform="translate(-890.558 -659.143)" fill="#aec3ff"/>
      </g>
      <g id="Grupo_904191" data-name="Grupo 904191" transform="translate(0 0)">
        <path id="Trazado_633265" data-name="Trazado 633265" d="M878,659.142l-4.119,1.373,46.278,194.123,5.476-4.153Z" transform="translate(-873.876 -659.142)" fill="#798ee8"/>
      </g>
      <g id="Grupo_904192" data-name="Grupo 904192" transform="translate(46.278 191.344)">
        <path id="Trazado_633266" data-name="Trazado 633266" d="M1061.271,1438.113h255.6l7.058-4.153H1066.747Z" transform="translate(-1061.271 -1433.96)" fill="#849def"/>
      </g>
      <g id="Grupo_904193" data-name="Grupo 904193" transform="translate(136.035 230.269)">
        <rect id="Rectángulo_294816" data-name="Rectángulo 294816" width="55.341" height="2.63" transform="translate(55.341 2.63) rotate(180)" fill="#aec3ff"/>
      </g>
      <g id="Grupo_904194" data-name="Grupo 904194" transform="translate(124.977 195.495)">
        <path id="Trazado_633267" data-name="Trazado 633267" d="M1432.284,1450.772l-.286,2.01-52.045,10.515.714-8.491.34-4.034Z" transform="translate(-1379.953 -1450.772)" fill="#8c9df4"/>
      </g>
      <g id="Grupo_904195" data-name="Grupo 904195" transform="translate(123.713 213.816)" opacity="0.5">
        <path id="Trazado_633268" data-name="Trazado 633268" d="M1434.242,1541.413c-2.115.006-43.532.076-54.007-.058-4.565-.057-5.365-4.059-5.4-6.649l51.8-9.746c-.538,5.935-.853,9.725-.857,10.445a6.1,6.1,0,0,0,.1,1.175C1426.744,1541.2,1433.448,1541.413,1434.242,1541.413Z" transform="translate(-1374.832 -1524.96)" fill="#8c9df4"/>
      </g>
      <g id="Grupo_904196" data-name="Grupo 904196" transform="translate(4.119 0)">
        <path id="Trazado_633269" data-name="Trazado 633269" d="M890.556,659.142h253.791l41.178,153.78H928.839Z" transform="translate(-890.556 -659.142)" fill="#8c9df4"/>
      </g>
      <g id="Grupo_904197" data-name="Grupo 904197" transform="translate(14.63 8.238)">
        <path id="Trazado_633270" data-name="Trazado 633270" d="M1205.607,831.379H967.981l-8.492-33.827L956.2,784.464l-1.339-5.337-8.728-34.764-.451-1.81-4.615-18.375-2.064-8.222-1.76-7.014-1.437-5.72L933.119,692.5h234.2l2.955,10.719,1.576,5.72,1.933,7.014,2.266,8.222,14.934,54.166v0l1.264,4.589.589,2.13,10.309,37.4Z" transform="translate(-933.119 -692.502)" fill="#505aba"/>
      </g>
    </g>
    <g id="Grupo_904220" data-name="Grupo 904220" transform="translate(231.233 417.285)">
      <g id="Grupo_904219" data-name="Grupo 904219">
        <g id="Grupo_904199" data-name="Grupo 904199" transform="translate(65.396)">
          <path id="Trazado_633271" data-name="Trazado 633271" d="M759.423,973.074s.619-6.755-6.928-6.755a8.861,8.861,0,0,1,3.47,1.861s-4.814-2.826-10.052,1.517-1.984,15.232-3.577,17.3-7.8,2.481-7.038,9.167,19.687,15.059,18.472,20.591c0,0,7.418-10.9,2.113-15.881,0,0,2.586,2.435,2.849,5.33,0,0,.7-5.652-2.895-7.46-3.183-1.6-5.79-7.45-5.514-8.5S759.423,973.074,759.423,973.074Z" transform="translate(-735.235 -966.319)" fill="#2c3a64"/>
        </g>
        <g id="Grupo_904200" data-name="Grupo 904200" transform="translate(74.159 39.185)">
          <path id="Trazado_633272" data-name="Trazado 633272" d="M778.712,1124.994s5.638,23.325,11.173,27.988c3.327,2.8,13.218,9.234,13.218,9.234l-4.114,1.493s-13.72-4.633-16.791-8.245-11.481-21.708-11.481-21.708Z" transform="translate(-770.716 -1124.994)" fill="#ffb27d"/>
        </g>
        <g id="Grupo_904201" data-name="Grupo 904201" transform="translate(80.311 75.831)">
          <path id="Trazado_633273" data-name="Trazado 633273" d="M830.028,1282.488l-1.325-3.281a9.307,9.307,0,0,0-8.63-5.822H795.631v81.723h101.11v-66.213H839.524A10.242,10.242,0,0,1,830.028,1282.488Z" transform="translate(-795.631 -1273.385)" fill="#f99746"/>
        </g>
        <g id="Grupo_904202" data-name="Grupo 904202" transform="translate(25.649 58.115)">
          <path id="Trazado_633274" data-name="Trazado 633274" d="M577.8,1223.7c.05.089.1.181.155.274,1.234,2.145,4.064,7.4,7.182,13.149,1.475,2.728,3.018,5.568,4.483,8.24,2.524,4.612,4.82,8.719,6.159,10.89,1.363,2.207,2.365,3.757,2.771,4.378l0,0a1.026,1.026,0,0,1,.132.64,33.476,33.476,0,0,0,.089,5.783,44.364,44.364,0,0,0,14.495,28.733l3.751.554s-5.308-19.665-6.872-30.782a21.381,21.381,0,0,1-.287-4.407c.277-2.9-.237-7.149-1.211-12.031a269.585,269.585,0,0,0-7.669-27.849c-.175-.544-5.45-19.625-5.45-19.625-4.427,3.87-20.575,5.466-20.575,5.466S572.218,1213.769,577.8,1223.7Z" transform="translate(-574.285 -1201.646)" fill="#2f539b"/>
        </g>
        <g id="Grupo_904203" data-name="Grupo 904203" transform="translate(60.516 148.843)">
          <path id="Trazado_633275" data-name="Trazado 633275" d="M731.213,1577.748H715.559a8.594,8.594,0,0,1,.442-4.2c.784-1.737,1.9-1.792.143-4.515.995,1.024,4.192,1.448,6.455,1.143.277.449,1.788,3.466,2.714,4.131C726.336,1575.048,730.9,1574.786,731.213,1577.748Z" transform="translate(-715.473 -1569.038)" fill="#233862"/>
        </g>
        <g id="Grupo_904204" data-name="Grupo 904204" transform="translate(29.164 70.933)">
          <path id="Trazado_633276" data-name="Trazado 633276" d="M588.518,1262.785c.05.089.1.181.155.274,1.234,2.145,7.907,14.469,11.024,20.219-3.612-14.861-1.1-29.723-1.1-29.723Z" transform="translate(-588.518 -1253.554)" fill="#233862"/>
        </g>
        <g id="Grupo_904205" data-name="Grupo 904205" transform="translate(75.242 5.695)">
          <path id="Trazado_633277" data-name="Trazado 633277" d="M787.309,989.489c.1-.411-8.941,4.087-9.4,4.6-4.241,4.7-3.032,10.844-.6,10.9,1.556.038,1.254,2.626,1.254,2.626l17.339-7.335S793.811,988.1,787.309,989.489Z" transform="translate(-775.102 -989.38)" fill="#2c3a64"/>
        </g>
        <g id="Grupo_904206" data-name="Grupo 904206" transform="translate(72.498 35.682)">
          <path id="Trazado_633278" data-name="Trazado 633278" d="M773.117,1110.81s2.639,5.271,2.309,9.548c0,0-3.182,5.023-11.433,6.294C763.993,1126.653,771.088,1110.806,773.117,1110.81Z" transform="translate(-763.993 -1110.81)" fill="#6385db"/>
        </g>
        <g id="Grupo_904207" data-name="Grupo 904207" transform="translate(2.075 54.848)">
          <path id="Trazado_633279" data-name="Trazado 633279" d="M518.118,1198.316l.053-2.927c-5.833.735-20.114-6.971-20.114-6.971s-6.1,4.059-6.938,15.651c-.408,5.658-2.987,29.585-3.273,36.73-.1,2.59-.139,4.438-.15,5.176a.012.012,0,0,1,0,.007,1.019,1.019,0,0,1-.248.6,33.42,33.42,0,0,0-3.161,4.845c-8.9,16.561-4.246,39.064-4.246,39.064l2.067-.525s7.527-23.328,12.446-33.419a21.1,21.1,0,0,1,2.228-3.814c1.849-2.246,3.8-6.061,5.722-10.652C506.138,1233.4,518.118,1198.316,518.118,1198.316Z" transform="translate(-478.825 -1188.417)" fill="#2f539b"/>
        </g>
        <g id="Grupo_904208" data-name="Grupo 904208" transform="translate(0 148.73)">
          <path id="Trazado_633280" data-name="Trazado 633280" d="M486.162,1577.4H470.508a8.594,8.594,0,0,1,.442-4.2c.784-1.737,2.011-2.526,1.717-4.628a5.636,5.636,0,0,0,4.879,1.867,17.193,17.193,0,0,0,2.716,3.521C481.285,1574.7,485.847,1574.441,486.162,1577.4Z" transform="translate(-470.422 -1568.58)" fill="#233862"/>
        </g>
        <g id="Grupo_904209" data-name="Grupo 904209" transform="translate(20.685 26.81)">
          <path id="Trazado_633281" data-name="Trazado 633281" d="M604.94,1102.96c-2.1.359.343,2.03-2.549,2.344-4.116.449-8.366.757-10.593,1.645a2.39,2.39,0,0,0-1.525,1.235c-.965,2.9-7.076,7.888-7.076,7.888-27.258-1.241-29.014-13.39-29.014-13.39,17.691-17.182,32.742-26.547,45.18-27.706,3.027-.282,7.108.1,9.022.949,4.35,1.937,6.734,7.831,6.734,7.831S612.93,1101.6,604.94,1102.96Z" transform="translate(-554.184 -1074.884)" fill="#739af0"/>
        </g>
        <g id="Grupo_904210" data-name="Grupo 904210" transform="translate(58.212 35.055)">
          <path id="Trazado_633282" data-name="Trazado 633282" d="M716.824,1130.446c-4.116.449-8.366.757-10.593,1.645a43.408,43.408,0,0,1,5.506-23.821S715.922,1125.3,716.824,1130.446Z" transform="translate(-706.143 -1108.27)" fill="#6385db"/>
        </g>
        <g id="Grupo_904211" data-name="Grupo 904211" transform="translate(59.869 32.741)">
          <path id="Trazado_633283" data-name="Trazado 633283" d="M725.427,1098.913s-10.352-.565-12.19,5.933,3.451,32.439,4.591,35.117c2.076,4.875,12.541,19.392,12.541,19.392l3.355-1.737s-6.737-21.253-8.242-23.356C723.121,1130.961,728.526,1101.74,725.427,1098.913Z" transform="translate(-712.852 -1098.901)" fill="#ffb27d"/>
        </g>
        <g id="Grupo_904212" data-name="Grupo 904212" transform="translate(76.935 91.006)">
          <path id="Trazado_633284" data-name="Trazado 633284" d="M785.763,1335.288a15.277,15.277,0,0,1,1.562,1.6c.7.85.084,1.158,2.084,5.01,0,0-.1.535-.537.437s-1.943-1.592-2.717-1.484c0,0-.553.456-.613,1.966a36.472,36.472,0,0,1-.307,5.123c-.246.587-2.042-2.461-2.926-4.663-.775-1.931-.02-8.444-.02-8.444Z" transform="translate(-781.957 -1334.836)" fill="#ffb27d"/>
        </g>
        <g id="Grupo_904213" data-name="Grupo 904213" transform="translate(58.212 30.822)">
          <path id="Trazado_633285" data-name="Trazado 633285" d="M706.144,1107.684c.027.152,9.8,1.8,15.905-1.3,0,0,5.1-15.991-2.19-15.226s-11.614,3.063-11.8,6.555A67.236,67.236,0,0,1,706.144,1107.684Z" transform="translate(-706.144 -1091.127)" fill="#739af0"/>
        </g>
        <g id="Grupo_904214" data-name="Grupo 904214" transform="translate(74.644 22.731)">
          <path id="Trazado_633286" data-name="Trazado 633286" d="M772.692,1064.606a6.5,6.5,0,0,0,1.965,4.554c1.3,1.336,3.172,2.379,4.49,1.062a14.3,14.3,0,0,0,2.037-2.461c1.138-1.956,2.494-3.955,2.494-3.955l-5.859-5.133-.35-.307a14.927,14.927,0,0,1-4.364,4.953A1.359,1.359,0,0,0,772.692,1064.606Z" transform="translate(-772.68 -1058.366)" fill="#ffb27d"/>
        </g>
        <g id="Grupo_904215" data-name="Grupo 904215" transform="translate(79.674 23.038)">
          <path id="Trazado_633287" data-name="Trazado 633287" d="M799.015,1064.743s-1.354,1.995-2.493,3.954c-3.641-2.245-3.645-6.753-3.365-9.089Z" transform="translate(-793.049 -1059.608)" fill="#ed985f"/>
        </g>
        <g id="Grupo_904216" data-name="Grupo 904216" transform="translate(79.431 12.569)">
          <path id="Trazado_633288" data-name="Trazado 633288" d="M798.437,1035.391s-8.842-4.92-5.693-10.379,4.128-9.771,9.907-6.86,5.664,5.621,5.056,7.7S800.819,1036.53,798.437,1035.391Z" transform="translate(-792.066 -1017.215)" fill="#ffb27d"/>
        </g>
        <g id="Grupo_904217" data-name="Grupo 904217" transform="translate(78.502 11.829)">
          <path id="Trazado_633289" data-name="Trazado 633289" d="M806.367,1020.41c-.4-2.424-1.636-2.655-2.495-2.493a7.072,7.072,0,0,0-8.6-3.293,12.038,12.038,0,0,1-6.969,4.186s1.026,1.909,5.253,3.091a7.23,7.23,0,0,0,4.171-.333,23.6,23.6,0,0,1-6,2.262c5.571.51,10.871-4.584,11.421-5.128a7.929,7.929,0,0,1,.438,3.65c-.367,1.642-1.824,4.615-.934,5C802.652,1027.351,806.975,1024.045,806.367,1020.41Z" transform="translate(-788.304 -1014.219)" fill="#2c3a64"/>
        </g>
        <g id="Grupo_904218" data-name="Grupo 904218" transform="translate(106.862 76.252)">
          <path id="Trazado_633290" data-name="Trazado 633290" d="M904.445,1275.257s-2.468,1.851-.608,3.06,5.179,1.537,5.193.743C909.075,1276.4,907.747,1274.5,904.445,1275.257Z" transform="translate(-903.143 -1275.09)" fill="#ffb27d"/>
        </g>
      </g>
    </g>
    <g id="Grupo_904221" data-name="Grupo 904221" transform="translate(179.578 574.344)">
      <rect id="Rectángulo_294817" data-name="Rectángulo 294817" width="577.046" height="1.663" rx="0.832" transform="translate(0 0)" fill="#233862"/>
    </g>
    <g id="Grupo_904222" data-name="Grupo 904222" transform="translate(362.099 381.571)">
      <path id="Trazado_633291" data-name="Trazado 633291" d="M1036.726,830.678l-2.192-3.236a12.8,12.8,0,0,0-10.081-5.742h-24.107l4.183,15.3,16.6,60.7a6.258,6.258,0,0,0,6.036,4.607h86.746a6.257,6.257,0,0,0,6.036-7.908l-15.7-57.4h-56.431A14.081,14.081,0,0,1,1036.726,830.678Z" transform="translate(-1000.346 -821.7)" fill="#f99746"/>
    </g>
    <g id="Grupo_904247" data-name="Grupo 904247" transform="translate(366.273 266.95)">
      <g id="Grupo_904243" data-name="Grupo 904243">
        <g id="Grupo_904223" data-name="Grupo 904223" transform="translate(34.362 93.362)">
          <path id="Trazado_633292" data-name="Trazado 633292" d="M1156.736,747.645a1.341,1.341,0,0,0-.24,1.434.011.011,0,0,0,0,.007,8.91,8.91,0,0,0,2.815,3.091c.17.137.321.262.452.377.034.03.069.06.1.091l.078.071c1.238,1.142.772,1.4,3,3.72,2.535,2.639,4.281,2.688,4.778,2.447.42-.2-.433-1.6-1.379-3.178-.046-.076-.091-.153-.137-.229-.126-.209-.251-.422-.376-.632-1.108-1.894-.823-2.782-.559-5.6.214-2.289,3.566-12.789,3.566-12.789l-4.86-.839s-1.466,8.361-3.079,9.648c-.862.686-1.828.694-2.657,1.2-.058.035-.116.072-.172.109A6.389,6.389,0,0,0,1156.736,747.645Z" transform="translate(-1156.39 -735.616)" fill="#ffb27d"/>
        </g>
        <g id="Grupo_904224" data-name="Grupo 904224" transform="translate(34.362 104.323)">
          <path id="Trazado_633293" data-name="Trazado 633293" d="M1156.736,781.066a1.342,1.342,0,0,0-.24,1.434.011.011,0,0,0,0,.007,10.323,10.323,0,0,0,2.82,3.081c.167.139.316.267.447.387.034.03.069.06.1.091l.078.071c1.238,1.142.772,1.4,3,3.72,2.535,2.639,4.281,2.688,4.778,2.447.42-.2-.433-1.6-1.379-3.178a10.807,10.807,0,0,1-4.519-3.333c-1.471-1.878-2.469-4.272-3.47-5.742l-.286-.054A6.392,6.392,0,0,0,1156.736,781.066Z" transform="translate(-1156.39 -779.998)" fill="#233862"/>
        </g>
        <g id="Grupo_904225" data-name="Grupo 904225" transform="translate(70.013 91.895)">
          <path id="Trazado_633294" data-name="Trazado 633294" d="M1304.64,740.147c.3,1.5,2.438,1.251,4.828.668s1.821.111,5.222-.264,4.431-1.643,4.535-2.149c.093-.448-1.587-.607-3.389-.815-.227-.025-.454-.054-.682-.082-2.035-.256-3.524-1.57-5.372-2.648-1.75-1.022-4.361-5.184-4.361-5.184l-4.664.368s2.446,3.717,3.391,5.334a5.637,5.637,0,0,1,.457,3.178A5.984,5.984,0,0,0,1304.64,740.147Z" transform="translate(-1300.756 -729.673)" fill="#ffb27d"/>
        </g>
        <g id="Grupo_904226" data-name="Grupo 904226" transform="translate(73.826 99.809)">
          <path id="Trazado_633295" data-name="Trazado 633295" d="M1321.093,764.947c2.389-.583,1.821.111,5.222-.264s4.431-1.643,4.535-2.148c.093-.448-1.587-.607-3.389-.815l-.017.035a9.584,9.584,0,0,1-4.87,1.512c-2.307.055-4.75-.606-6.343-.581a5.978,5.978,0,0,0,.035,1.595C1316.565,765.78,1318.7,765.53,1321.093,764.947Z" transform="translate(-1316.195 -761.719)" fill="#233862"/>
        </g>
        <g id="Grupo_904227" data-name="Grupo 904227" transform="translate(40.031 65.069)">
          <path id="Trazado_633296" data-name="Trazado 633296" d="M1195.353,628.523l-4.363,11.728-5.7,15.314a9.209,9.209,0,0,1-3.023-.277,13.112,13.112,0,0,1-2.923-1.424s1.586-16.444,4.537-25.883a16.807,16.807,0,0,1,2.538-5.486C1190.994,617.1,1195.353,628.523,1195.353,628.523Z" transform="translate(-1179.347 -621.046)" fill="#ed7d2b"/>
        </g>
        <g id="Grupo_904228" data-name="Grupo 904228" transform="translate(9.443 51.561)">
          <path id="Trazado_633297" data-name="Trazado 633297" d="M1097.655,568.7c-2.481-.8-8.955-.016-15.978,1.253a4.763,4.763,0,0,1-4.917-2.223h0l-17.672-1.386s-5.836,12.93-2.647,21.172a3.1,3.1,0,0,0,3.088,1.993h0s10.679.019,14.094.02c8.789,0,18.6-6.035,19.872-6.289,2.078-.415,2.907,3.741,4.983,8.1S1118,610.673,1118,610.673a15.352,15.352,0,0,0,3.791-.388,3.734,3.734,0,0,0,1.628-1.027S1104.095,570.78,1097.655,568.7Z" transform="translate(-1055.487 -566.345)" fill="#f99746"/>
        </g>
        <g id="Grupo_904229" data-name="Grupo 904229" transform="translate(0.071)">
          <path id="Trazado_633298" data-name="Trazado 633298" d="M1046.321,358.607a6.269,6.269,0,0,0-3.376-.879,9.372,9.372,0,0,1-1.63-.1c-6.745-.991-10.81,8.8-11.049,11.765-.439,5.435-3.314,6.262-7.362,9.665-8.117,6.822-5.74,14.753-1.3,17.7,2.662,1.769,7.355,0,7.355,0,.066.046,12.836-7.132,19.13-10.6C1057.52,384.828,1050.11,360.865,1046.321,358.607Z" transform="translate(-1017.536 -357.558)" fill="#233862"/>
        </g>
        <g id="Grupo_904230" data-name="Grupo 904230" transform="translate(16.737 15.76)">
          <path id="Trazado_633299" data-name="Trazado 633299" d="M1093.631,431.272c.027.018-3.1,1.083-5.186.158-1.965-.869-3.453-4.1-3.423-4.1.894-.041,1.876-.822,2.633-5.951l.381.137,6.4,2.305s-.464,2.053-.765,4.009C1093.418,429.467,1093.281,431.039,1093.631,431.272Z" transform="translate(-1085.021 -421.374)" fill="#ffb27d"/>
        </g>
        <g id="Grupo_904231" data-name="Grupo 904231" transform="translate(19.752 15.896)">
          <path id="Trazado_633300" data-name="Trazado 633300" d="M1103.629,424.233s-.256,1.108-.629,3.178a7.227,7.227,0,0,1-5.771-5.483Z" transform="translate(-1097.229 -421.928)" fill="#ed975d"/>
        </g>
        <g id="Grupo_904232" data-name="Grupo 904232" transform="translate(19.111 4.835)">
          <path id="Trazado_633301" data-name="Trazado 633301" d="M1102.627,392.543s-8.757-1.178-7.939-6.621.238-9.259,5.864-8.737,6.4,2.762,6.566,4.645S1104.926,392.709,1102.627,392.543Z" transform="translate(-1094.635 -377.138)" fill="#ffb27d"/>
        </g>
        <g id="Grupo_904233" data-name="Grupo 904233" transform="translate(16.6 4.355)">
          <path id="Trazado_633302" data-name="Trazado 633302" d="M1099.142,377.381s-5.608,4.829-9.421,5.217-5.256-.836-5.256-.836a14.892,14.892,0,0,0,3.6-4.876,2.682,2.682,0,0,1,2.211-1.58C1093,375.072,1098.162,374.966,1099.142,377.381Z" transform="translate(-1084.465 -375.191)" fill="#233862"/>
        </g>
        <g id="Grupo_904234" data-name="Grupo 904234" transform="translate(27.773 5.064)">
          <path id="Trazado_633303" data-name="Trazado 633303" d="M1129.709,379.109a13.8,13.8,0,0,1,2.465,3.159,10.6,10.6,0,0,1,.285,5.635s2.924-5.681,1.271-8.442C1131.976,376.534,1129.709,379.109,1129.709,379.109Z" transform="translate(-1129.709 -378.062)" fill="#233862"/>
        </g>
        <g id="Grupo_904235" data-name="Grupo 904235" transform="translate(9.217 21.504)">
          <path id="Trazado_633304" data-name="Trazado 633304" d="M1078.068,461.69c-.271,17.727-.078,14.022-2.017,15.7a7.448,7.448,0,0,1-3.51.759c-5.435.359-14.991-.54-15.354-1.544-1.252-3.476-.367-4.556-1.411-9.877-.109-.566-.244-1.178-.4-1.846-.871-3.655-1.719-4.9,1.377-10.77,2.808-5.318,5.724-9.634,5.987-9.478,7.4,4.4,8,.7,8,.7S1078.2,453.044,1078.068,461.69Z" transform="translate(-1054.569 -444.634)" fill="#2f539b"/>
        </g>
        <g id="Grupo_904236" data-name="Grupo 904236" transform="translate(40.031 72.004)">
          <path id="Trazado_633305" data-name="Trazado 633305" d="M1190.99,661.4l-5.7,15.314a9.209,9.209,0,0,1-3.023-.277,13.109,13.109,0,0,1-2.923-1.424s1.586-16.444,4.537-25.883Z" transform="translate(-1179.347 -649.127)" fill="#f99746"/>
        </g>
        <g id="Grupo_904237" data-name="Grupo 904237" transform="translate(25.386 22.21)">
          <path id="Trazado_633306" data-name="Trazado 633306" d="M1120.046,447.5s7.617,1.294,8.511,4.575,3.831,23.189,3.831,23.189-2.149,2.1-3.937.307-5.624-18.628-5.624-18.628Z" transform="translate(-1120.046 -447.496)" fill="#2f539b"/>
        </g>
        <g id="Grupo_904238" data-name="Grupo 904238" transform="translate(10.424 36.219)">
          <path id="Trazado_633307" data-name="Trazado 633307" d="M1076.224,523.026c-5.435.359-14.99-.54-15.354-1.544-1.252-3.476-.367-4.556-1.411-9.877l2.625-7.382s-.437,8.221,1.987,10.384,9.925,4.178,11.1,5.984A6.619,6.619,0,0,1,1076.224,523.026Z" transform="translate(-1059.459 -504.223)" fill="#233862"/>
        </g>
        <g id="Grupo_904239" data-name="Grupo 904239" transform="translate(20.962 50.735)">
          <path id="Trazado_633308" data-name="Trazado 633308" d="M1102.131,563.83s5.363-1.192,6.228-.716a12.581,12.581,0,0,1,3.243,2.813c.265.6-1.926-.459-2.638-.65a6.342,6.342,0,0,0-2.278.5,7.574,7.574,0,0,1-4.082.409Z" transform="translate(-1102.131 -563.002)" fill="#ffb27d"/>
        </g>
        <g id="Grupo_904240" data-name="Grupo 904240" transform="translate(0 21.504)">
          <path id="Trazado_633309" data-name="Trazado 633309" d="M1034.629,444.636s-7.2.441-9.695,3.917c-3.511,4.893-10.479,25.747-6.49,28.53,4.492,3.134,20.446.827,20.446.827s.532-2.482-.207-3.682-12.742-3.144-13.3-3.7,6.929-10.8,6.93-12.463S1034.629,444.636,1034.629,444.636Z" transform="translate(-1017.247 -444.636)" fill="#2f539b"/>
        </g>
        <g id="Grupo_904241" data-name="Grupo 904241" transform="translate(27.449 52.34)">
          <path id="Trazado_633310" data-name="Trazado 633310" d="M1128.4,569.5a10.355,10.355,0,0,0,1.492,1.622,1.1,1.1,0,0,0,.606.13l-.757-1.363Z" transform="translate(-1128.4 -569.502)" fill="#ffb27d"/>
        </g>
        <g id="Grupo_904242" data-name="Grupo 904242" transform="translate(27.191 50.847)">
          <path id="Trazado_633311" data-name="Trazado 633311" d="M1127.352,563.457l3.266,1.587a.581.581,0,0,1-.541.209,7.769,7.769,0,0,1-1.417-.39Z" transform="translate(-1127.352 -563.457)" fill="#ffb27d"/>
        </g>
      </g>
      <g id="Grupo_904244" data-name="Grupo 904244" transform="translate(20.961 54.574)">
        <path id="Trazado_633312" data-name="Trazado 633312" d="M1136.25,578.561l-34.124-.012v.753l33.821.012Z" transform="translate(-1102.126 -578.549)" fill="#233862"/>
      </g>
      <g id="Grupo_904245" data-name="Grupo 904245" transform="translate(28.941 36.002)">
        <path id="Trazado_633313" data-name="Trazado 633313" d="M1134.438,522.672l25.841.009,7.78-19.328-25.8-.009Z" transform="translate(-1134.438 -503.344)" fill="#233862"/>
      </g>
      <g id="Grupo_904246" data-name="Grupo 904246" transform="translate(45.751 44.441)">
        <path id="Trazado_633314" data-name="Trazado 633314" d="M1205.021,538.747a.9.9,0,0,0-.877-1.231,1.762,1.762,0,0,0-1.584,1.23.9.9,0,0,0,.877,1.231A1.764,1.764,0,0,0,1205.021,538.747Z" transform="translate(-1202.51 -537.516)" fill="#fff"/>
      </g>
    </g>
    <g id="Grupo_904248" data-name="Grupo 904248" transform="translate(490.022 370.483)" opacity="0.5">
      <path id="Trazado_633315" data-name="Trazado 633315" d="M1570.329,792.508l-7.147-9.131-.338-.43-.4-.074-32.988-6.07-11.1,60.338,42.766,7.868,9.5-51.616.078-.422Z" transform="translate(-1518.352 -776.803)" fill="#8c9df4"/>
    </g>
    <g id="Grupo_904250" data-name="Grupo 904250" transform="translate(476.764 359.404)">
      <g id="Grupo_904249" data-name="Grupo 904249" transform="translate(0 0)">
        <path id="Trazado_633316" data-name="Trazado 633316" d="M1508.443,740l.016.429,2.035,52.442-43.451,1.686-2.378-61.3,33.517-1.3.409-.016.424.347,8.973,7.344Z" transform="translate(-1464.665 -731.94)" fill="#8c9df4"/>
      </g>
    </g>
    <g id="Grupo_904265" data-name="Grupo 904265" transform="translate(419.197 378.341)">
      <g id="Grupo_904251" data-name="Grupo 904251" transform="translate(0 4.144)">
        <path id="Trazado_633317" data-name="Trazado 633317" d="M1304.318,825.4l-72.512,4.041a.265.265,0,0,0-.25.28l5.292,94.953a.266.266,0,0,0,.28.251l72.408-4.036a.265.265,0,0,0,.25-.28l-5.3-95.057A.162.162,0,0,0,1304.318,825.4Z" transform="translate(-1231.555 -825.399)" fill="#233862"/>
      </g>
      <g id="Grupo_904252" data-name="Grupo 904252" transform="translate(2.42 6.498)">
        <path id="Trazado_633318" data-name="Trazado 633318" d="M1311.562,925.071l-61.421,3.854a3.342,3.342,0,0,1-3.545-3.127l-5.237-83.458a3.342,3.342,0,0,1,3.127-3.545l61.42-3.854a3.342,3.342,0,0,1,3.545,3.127l5.237,83.458A3.343,3.343,0,0,1,1311.562,925.071Z" transform="translate(-1241.353 -834.934)" fill="#ebf3fa"/>
      </g>
      <g id="Grupo_904263" data-name="Grupo 904263" transform="translate(9.653 19.234)">
        <g id="Grupo_904253" data-name="Grupo 904253">
          <path id="Trazado_633319" data-name="Trazado 633319" d="M1309.381,887.543l-38.638,2.425a.036.036,0,0,1-.038-.034l-.061-.965a.035.035,0,0,1,.033-.038l38.638-2.425a.036.036,0,0,1,.038.034l.06.965A.036.036,0,0,1,1309.381,887.543Z" transform="translate(-1270.645 -886.506)" fill="#bdd1f9"/>
        </g>
        <g id="Grupo_904254" data-name="Grupo 904254" transform="translate(0.52 8.296)">
          <path id="Trazado_633320" data-name="Trazado 633320" d="M1311.488,921.135l-38.638,2.424a.036.036,0,0,1-.038-.033l-.06-.966a.036.036,0,0,1,.034-.038l38.638-2.425a.036.036,0,0,1,.038.033l.061.966A.036.036,0,0,1,1311.488,921.135Z" transform="translate(-1272.752 -920.098)" fill="#bdd1f9"/>
        </g>
        <g id="Grupo_904255" data-name="Grupo 904255" transform="translate(0.26 3.222)">
          <path id="Trazado_633321" data-name="Trazado 633321" d="M1325.2,900.588l-53.4,3.351a.036.036,0,0,1-.038-.033l-.061-.966a.036.036,0,0,1,.034-.038l53.4-3.351a.036.036,0,0,1,.038.033l.06.966A.036.036,0,0,1,1325.2,900.588Z" transform="translate(-1271.698 -899.552)" fill="#bdd1f9"/>
        </g>
        <g id="Grupo_904256" data-name="Grupo 904256" transform="translate(3.538 34.668)">
          <path id="Trazado_633322" data-name="Trazado 633322" d="M1311.354,1027.924l-26.288,1.65a.03.03,0,0,1-.031-.028l-.062-.978a.03.03,0,0,1,.028-.031l26.288-1.65a.03.03,0,0,1,.031.028l.061.978A.029.029,0,0,1,1311.354,1027.924Z" transform="translate(-1284.973 -1026.887)" fill="#bdd1f9"/>
        </g>
        <g id="Grupo_904257" data-name="Grupo 904257" transform="translate(3.278 29.889)">
          <path id="Trazado_633323" data-name="Trazado 633323" d="M1320.347,1008.575l-36.336,2.28a.03.03,0,0,1-.031-.028l-.061-.978a.03.03,0,0,1,.028-.031l36.336-2.28a.03.03,0,0,1,.031.027l.061.978A.029.029,0,0,1,1320.347,1008.575Z" transform="translate(-1283.919 -1007.539)" fill="#bdd1f9"/>
        </g>
        <g id="Grupo_904258" data-name="Grupo 904258" transform="translate(3.648 38.52)">
          <path id="Trazado_633324" data-name="Trazado 633324" d="M1324.155,1043.526l-38.638,2.424a.036.036,0,0,1-.038-.033l-.061-.965a.036.036,0,0,1,.034-.038l38.638-2.425a.036.036,0,0,1,.038.034l.061.966A.036.036,0,0,1,1324.155,1043.526Z" transform="translate(-1285.418 -1042.489)" fill="#bdd1f9"/>
        </g>
        <g id="Grupo_904259" data-name="Grupo 904259" transform="translate(3.909 42.397)">
          <path id="Trazado_633325" data-name="Trazado 633325" d="M1329.53,1059.223l-42.963,2.7a.032.032,0,0,1-.034-.03l-.061-.973a.033.033,0,0,1,.03-.034l42.963-2.7a.033.033,0,0,1,.034.03l.061.973A.033.033,0,0,1,1329.53,1059.223Z" transform="translate(-1286.472 -1058.186)" fill="#bdd1f9"/>
        </g>
        <g id="Grupo_904260" data-name="Grupo 904260" transform="translate(4.601 50.627)">
          <path id="Trazado_633326" data-name="Trazado 633326" d="M1317.021,1092.548l-27.651,1.735a.031.031,0,0,1-.032-.028l-.061-.976a.031.031,0,0,1,.029-.032l27.651-1.735a.03.03,0,0,1,.032.028l.061.976A.03.03,0,0,1,1317.021,1092.548Z" transform="translate(-1289.277 -1091.511)" fill="#bdd1f9"/>
        </g>
        <g id="Grupo_904261" data-name="Grupo 904261" transform="translate(5.122 58.922)">
          <path id="Trazado_633327" data-name="Trazado 633327" d="M1319.131,1126.14l-27.651,1.735a.03.03,0,0,1-.032-.028l-.061-.976a.03.03,0,0,1,.028-.032l27.651-1.735a.03.03,0,0,1,.032.028l.061.976A.03.03,0,0,1,1319.131,1126.14Z" transform="translate(-1291.387 -1125.103)" fill="#bdd1f9"/>
        </g>
        <g id="Grupo_904262" data-name="Grupo 904262" transform="translate(4.862 54.111)">
          <path id="Trazado_633328" data-name="Trazado 633328" d="M1328.644,1106.659l-38.219,2.4a.03.03,0,0,1-.032-.028l-.061-.976a.03.03,0,0,1,.028-.032l38.219-2.4a.03.03,0,0,1,.032.028l.061.976A.03.03,0,0,1,1328.644,1106.659Z" transform="translate(-1290.332 -1105.622)" fill="#bdd1f9"/>
        </g>
      </g>
      <g id="Grupo_904264" data-name="Grupo 904264" transform="translate(15.359)">
        <path id="Trazado_633329" data-name="Trazado 633329" d="M1331.4,808.627l-33.816,1.884a3.907,3.907,0,0,0-3.828,3.974l.285,5.11a.9.9,0,0,0,.981.814l40.023-2.23a.9.9,0,0,0,.885-.919l-.285-5.11A3.906,3.906,0,0,0,1331.4,808.627Z" transform="translate(-1293.749 -808.62)" fill="#ff8c64"/>
      </g>
    </g>
    <g id="Grupo_904290" data-name="Grupo 904290" transform="translate(450.583 371.569)">
      <g id="Grupo_904266" data-name="Grupo 904266" transform="translate(77.673 42.973)">
        <path id="Trazado_633330" data-name="Trazado 633330" d="M1678.219,960.062s-.7-1.581-1.158-2.329-2.4-2.941-2.731-2.445-1.655,3.838-.951,4.774-.046,2.564,3.453,3.549Z" transform="translate(-1673.175 -955.216)" fill="#ffb27d"/>
      </g>
      <g id="Grupo_904267" data-name="Grupo 904267" transform="translate(80.861 37.839)">
        <path id="Trazado_633331" data-name="Trazado 633331" d="M1726.815,934.426s-17.908,14.948-24.891,13.564c-5.46-1.082-14.092-3.82-14.092-3.82s-2.278,2.167-1.634,4.765c0,0,11,10.348,18.833,10.415,12.247.1,18.023-6.069,18.023-6.069Z" transform="translate(-1686.084 -934.426)" fill="#ed7d2b"/>
      </g>
      <g id="Grupo_904268" data-name="Grupo 904268" transform="translate(132.398 192.813)">
        <path id="Trazado_633332" data-name="Trazado 633332" d="M1915.377,1564.669s-.52,8.386-2.142,8.506c-.216.016-8.229.016-8.229.016l-10.229-.059a3.319,3.319,0,0,1,3.057-2.986c2.99-.521,7.995-2.622,9.806-6.574C1909.545,1559.414,1915.377,1564.669,1915.377,1564.669Z" transform="translate(-1894.777 -1561.971)" fill="#113c68"/>
      </g>
      <g id="Grupo_904269" data-name="Grupo 904269" transform="translate(118.885 92.562)">
        <path id="Trazado_633333" data-name="Trazado 633333" d="M1874.76,1259.55a21.326,21.326,0,0,1-5.537,1.04,20.333,20.333,0,0,1-5.169-.738s-.586-5.662-3.807-18.136c-1.689-6.538-4.1-14.945-7.533-25.391-9.488-28.87-12.374-45.759-12.637-47.359-.014-.084-.02-.126-.02-.126l.031-.014,29.17-12.807s-3.605,39.79.995,55.062a64.365,64.365,0,0,1,1.669,7.317C1874.828,1234.988,1874.76,1259.55,1874.76,1259.55Z" transform="translate(-1840.058 -1156.019)" fill="#2a4e96"/>
      </g>
      <g id="Grupo_904270" data-name="Grupo 904270" transform="translate(118.905 92.562)">
        <path id="Trazado_633334" data-name="Trazado 633334" d="M1860.307,1241.717c-1.689-6.538-4.1-14.945-7.533-25.391-9.488-28.87-12.374-45.759-12.637-47.359,0-.048.005-.093.011-.14l29.17-12.807s-3.605,39.79.995,55.062C1870.958,1213.216,1860.307,1241.717,1860.307,1241.717Z" transform="translate(-1840.138 -1156.019)" fill="#233862"/>
      </g>
      <g id="Grupo_904271" data-name="Grupo 904271" transform="translate(109.615 192.813)">
        <path id="Trazado_633335" data-name="Trazado 633335" d="M1823.12,1564.669s-.52,8.386-2.142,8.506c-.216.016-8.229.016-8.229.016l-10.229-.059a3.319,3.319,0,0,1,3.056-2.986c2.99-.521,7.995-2.622,9.806-6.574C1817.288,1559.414,1823.12,1564.669,1823.12,1564.669Z" transform="translate(-1802.52 -1561.971)" fill="#15447c"/>
      </g>
      <g id="Grupo_904272" data-name="Grupo 904272" transform="translate(113.669 93.5)">
        <path id="Trazado_633336" data-name="Trazado 633336" d="M1818.943,1159.815a415.278,415.278,0,0,0,4.082,57.443c4.461,31.658,2.949,45.1,2.949,45.1a30.379,30.379,0,0,0,4.3,1.094,19.525,19.525,0,0,0,6.383-.739s6.385-31.67,4.554-47.516,8.744-54.374,8.744-54.374Z" transform="translate(-1818.935 -1159.815)" fill="#2a4e96"/>
      </g>
      <g id="Grupo_904273" data-name="Grupo 904273" transform="translate(122.267 20.415)">
        <path id="Trazado_633337" data-name="Trazado 633337" d="M1865.844,876.616l-5.694,3.734-5.187-1.467c-.948-1.353-1.2-3.96-1.213-6.218a38.621,38.621,0,0,1,.2-4.141l7.682-3.391,2.867-1.263c-.009.045-.223,2.353-.254,2.691A19.606,19.606,0,0,0,1865.844,876.616Z" transform="translate(-1853.749 -863.87)" fill="#ffb27d"/>
      </g>
      <g id="Grupo_904274" data-name="Grupo 904274" transform="translate(113.428 30.998)">
        <path id="Trazado_633338" data-name="Trazado 633338" d="M1818.078,976.394c7.088,6.843,33.91,5.692,35.563-1.847s-1.8-64.18-13.909-67.738c-2.512-.739-15.943,3.6-15.943,3.6a85.14,85.14,0,0,0-3.49,12.532c-.268,1.366-1.051,15.841-1.637,29.382-.274,6.333-.5,12.464-.623,16.952A48.863,48.863,0,0,0,1818.078,976.394Z" transform="translate(-1817.96 -906.724)" fill="#f99746"/>
      </g>
      <g id="Grupo_904275" data-name="Grupo 904275" transform="translate(122.267 21.678)">
        <path id="Trazado_633339" data-name="Trazado 633339" d="M1863.674,870.516c-1.559,2.635-7.027,4.941-9.924,6a38.618,38.618,0,0,1,.2-4.141l7.682-3.391C1863.334,868.96,1864.368,869.339,1863.674,870.516Z" transform="translate(-1853.749 -868.981)" fill="#fca56b"/>
      </g>
      <g id="Grupo_904276" data-name="Grupo 904276" transform="translate(118.026 4.229)">
        <path id="Trazado_633340" data-name="Trazado 633340" d="M1838.124,818.7s12.378,3.861,14.664-3.884,5.423-12.464-2.384-15.256-10.221-.292-11.613,2.107S1834.963,817.494,1838.124,818.7Z" transform="translate(-1836.577 -798.326)" fill="#ffb27d"/>
      </g>
      <g id="Grupo_904277" data-name="Grupo 904277" transform="translate(119.563)">
        <path id="Trazado_633341" data-name="Trazado 633341" d="M1843.966,788.023s.789,9.013,2.653,8.622,3.916-1.228,3.643,1.489,1.812,7.374,4.5,7.363c5.765-.024,12.028-14.815,10.45-17.62C1860.658,779.783,1837.385,778.15,1843.966,788.023Z" transform="translate(-1842.802 -781.201)" fill="#163560"/>
      </g>
      <g id="Grupo_904278" data-name="Grupo 904278" transform="translate(119.256 27.477)">
        <path id="Trazado_633342" data-name="Trazado 633342" d="M1844.85,896.267c.16-.067,9.215-4.129,10.273-3.779s2.379,3.584,2.379,3.584l-15.944,3.6A7.922,7.922,0,0,1,1844.85,896.267Z" transform="translate(-1841.558 -892.467)" fill="#ed7d2b"/>
      </g>
      <g id="Grupo_904284" data-name="Grupo 904284" transform="translate(0 5.708)">
        <g id="Grupo_904279" data-name="Grupo 904279" transform="translate(65.099 64.582)">
          <path id="Trazado_633343" data-name="Trazado 633343" d="M1623.333,1070.684l50.758,47.789c.995.937,2.25,1.235,2.788.663l1.713-1.82c.538-.572.165-1.806-.83-2.743L1627,1066.784c-.995-.937-2.25-1.235-2.788-.663l-1.713,1.82C1621.964,1068.513,1622.338,1069.747,1623.333,1070.684Z" transform="translate(-1622.256 -1065.83)" fill="#1f4d84"/>
        </g>
        <g id="Grupo_904280" data-name="Grupo 904280" transform="translate(94.66 92.355)">
          <path id="Trazado_633344" data-name="Trazado 633344" d="M1741.959,1182.191l22.274,20.971c1,.937,2.25,1.235,2.788.663l1.713-1.82c.538-.572.165-1.806-.83-2.743l-22.274-20.971Z" transform="translate(-1741.959 -1178.291)" fill="#739af0"/>
        </g>
        <g id="Grupo_904281" data-name="Grupo 904281">
          <path id="Trazado_633345" data-name="Trazado 633345" d="M1427.405,816.836a39.778,39.778,0,0,0-56.232-1.712c-.212.2-.421.4-.625.6a39.786,39.786,0,1,0,56.856,1.11Zm-3.865,53.951a36.646,36.646,0,1,1,1.578-51.8A36.6,36.6,0,0,1,1423.541,870.787Z" transform="translate(-1358.648 -804.315)" fill="#1f4d84"/>
        </g>
        <g id="Grupo_904283" data-name="Grupo 904283" transform="translate(3.141 3.141)" opacity="0.5">
          <g id="Grupo_904282" data-name="Grupo 904282">
            <path id="Trazado_633346" data-name="Trazado 633346" d="M1381.323,878.784a36.645,36.645,0,1,0,1.579-51.8A36.49,36.49,0,0,0,1381.323,878.784Z" transform="translate(-1371.369 -817.034)" fill="#b3cff9"/>
          </g>
        </g>
      </g>
      <g id="Grupo_904285" data-name="Grupo 904285" transform="translate(113.507 47.029)">
        <path id="Trazado_633347" data-name="Trazado 633347" d="M1818.277,1018.159c27.968-19.93,25.643-46.523,25.643-46.523-10.222,5.765-20.365,18.513-25.019,29.571C1818.626,1007.54,1818.4,1013.671,1818.277,1018.159Z" transform="translate(-1818.277 -971.636)" fill="#ed7d2b"/>
      </g>
      <g id="Grupo_904288" data-name="Grupo 904288" transform="translate(77.869 34.687)">
        <g id="Grupo_904286" data-name="Grupo 904286" transform="translate(0 47.582)">
          <path id="Trazado_633348" data-name="Trazado 633348" d="M1682,1116.546a7.631,7.631,0,0,1-3.572-2.207s-.841.058.138,1.852c.082.15.264.536.4.808a.174.174,0,0,1-.146.25c-1.138.087-2.282-.364-4.475.093-.3.063-.391.787-.379,1.1a2.8,2.8,0,0,0,.589,1.91c.353.466,1.339.968,3.534,1.851.837.336,3.227.083,5.468-.687l1.791-.829-.555-3.328-.45.094C1683.63,1117.6,1682.746,1116.729,1682,1116.546Z" transform="translate(-1673.967 -1114.339)" fill="#ffb27d"/>
        </g>
        <g id="Grupo_904287" data-name="Grupo 904287" transform="translate(10.085)">
          <path id="Trazado_633349" data-name="Trazado 633349" d="M1757.319,921.662s25.13,4.785-7.394,41.176c-5.2,5.82-33.3,13.4-33.3,13.4s-2.85-2.425-1.413-4.389c0,0,19.349-14.051,23.607-16.285,1.915-1,7.433-22.427,10.555-27.586A14.076,14.076,0,0,1,1757.319,921.662Z" transform="translate(-1714.803 -921.662)" fill="#f99746"/>
        </g>
      </g>
      <g id="Grupo_904289" data-name="Grupo 904289" transform="translate(78.628 42.136)">
        <path id="Trazado_633350" data-name="Trazado 633350" d="M1680.448,957.951a12.8,12.8,0,0,1-.983-2.4,13.271,13.271,0,0,0-1.622-3.671c-.171-.17-.734.05-.8.782a4.242,4.242,0,0,0,.4,1.589,17.919,17.919,0,0,1,.532,3.158C1678.368,958.677,1680.448,957.951,1680.448,957.951Z" transform="translate(-1677.04 -951.826)" fill="#ffb27d"/>
      </g>
    </g>
  </g>
</svg>
