<svg xmlns="http://www.w3.org/2000/svg" width="134" height="134" viewBox="0 0 134 134">
  <g id="Grupo_909121" data-name="Grupo 909121" transform="translate(-733 -1814.636)">
    <circle id="Elipse_7378" data-name="Elipse 7378" cx="67" cy="67" r="67" transform="translate(733 1814.636)" fill="#222b5a"/>
    <g id="Grupo_906663" data-name="Grupo 906663" transform="translate(-592.383 1024.188)">
      <path id="Trazado_640503" data-name="Trazado 640503" d="M1363.382,816c.029.033.052.087.088.1a2.628,2.628,0,0,1,1.465,1.227,10.705,10.705,0,0,0,.934.964c.577.645,1.124,1.316,1.705,1.957.633.7,1.306,1.36,1.933,2.063.486.545.917,1.139,1.4,1.691.418.481.88.923,1.3,1.4.586.656,1.147,1.334,1.733,1.99.514.575,1.057,1.125,1.573,1.7.94,1.045,1.867,2.1,2.8,3.15.647.724,1.3,1.443,1.953,2.162a.9.9,0,0,0,.161.1c.593-.612,1.18-1.241,1.793-1.843.527-.518,1.093-1,1.624-1.511.477-.461.909-.969,1.4-1.418a18.535,18.535,0,0,1,1.85-1.575,1.923,1.923,0,0,1,2.305.516c.537.684,1.169,1.291,1.748,1.943.62.7,1.218,1.418,1.84,2.115.308.345.657.653.974.99q.578.614,1.132,1.25c.466.534.917,1.08,1.38,1.616.631.731,1.257,1.467,1.9,2.184s1.333,1.405,1.984,2.124c.724.8,1.421,1.625,2.14,2.429.5.554,1.017,1.086,1.517,1.636a8.523,8.523,0,0,1,.709.847c.448.643.76.626,1.263.034.477-.561,1.048-1.042,1.576-1.56q.682-.669,1.36-1.34c.307-.305.607-.617.913-.923.325-.325.65-.65.98-.97.624-.6,1.219-1.293,2.22-1.136a2.09,2.09,0,0,1,1.284.652c.963,1.063,1.959,2.1,2.938,3.146.161.173.291.375.453.548.635.678,1.288,1.339,1.913,2.026.8.878,1.57,1.78,2.363,2.663q1.354,1.507,2.727,3c.437.472.915.906,1.35,1.38.468.51.9,1.054,1.36,1.571a9.733,9.733,0,0,0,1.31,1.254c-.081-.373-.159-.747-.243-1.119-.246-1.086-.059-2.252,1.248-2.657a1.9,1.9,0,0,1,2.51,1.58c.147.81.391,1.6.59,2.4.26,1.05.525,2.1.777,3.15.169.706.314,1.417.48,2.124.086.366.176.732.293,1.089a1.967,1.967,0,0,1-1.544,2.554,8.812,8.812,0,0,1-1.888-.286c-.408-.084-.8-.246-1.2-.365q-1.779-.529-3.561-1.05a11.5,11.5,0,0,1-1.4-.4c-.809-.354-1.762-.292-2.476-.921a1.936,1.936,0,0,1-.673-2.092,1.963,1.963,0,0,1,1.829-1.331,5.323,5.323,0,0,1,.933.168c.575.142,1.145.3,1.718.453a.329.329,0,0,0,.134-.021l-13.49-14.732c-1.11,1.083-2.212,2.161-3.317,3.234-.656.638-1.325,1.264-1.976,1.908-.318.315-.6.664-.914.986a1.962,1.962,0,0,1-2.212.237,8.869,8.869,0,0,1-1.274-1.206c-.6-.642-1.181-1.307-1.764-1.967-.622-.705-1.228-1.426-1.86-2.123-.489-.54-1.02-1.041-1.506-1.583-.547-.61-1.054-1.255-1.6-1.869-.306-.347-.649-.661-.969-1-.2-.2-.385-.414-.565-.632-.458-.551-.892-1.124-1.368-1.659-.726-.816-1.486-1.6-2.218-2.412-.459-.51-.881-1.054-1.342-1.562-.329-.363-.713-.676-1.043-1.038-.35-.384-.666-.8-1.04-1.256-.607.584-1.182,1.127-1.746,1.682-1.267,1.248-2.525,2.5-3.793,3.75a10.006,10.006,0,0,1-.863.75,2.071,2.071,0,0,1-2.887-.528c-.582-.729-1.229-1.405-1.851-2.1-1.243-1.394-2.493-2.782-3.731-4.18-.732-.826-1.435-1.678-2.173-2.5-1.191-1.323-2.409-2.623-3.6-3.946-.606-.674-1.169-1.387-1.771-2.066s-1.248-1.344-1.86-2.026c-.586-.651-1.128-1.343-1.741-1.966a3.053,3.053,0,0,1-.774-1.29,1.907,1.907,0,0,1,1.145-2.154,1.718,1.718,0,0,0,.333-.173Z" transform="translate(-3.695)" fill="#f1b62b"/>
      <path id="Trazado_640504" data-name="Trazado 640504" d="M1365.7,948.257h-10.591v-.5q0-23.292,0-46.586c0-.58.007-.587.6-.587h9.423c.563,0,.567.005.567.568v47.1Z" transform="translate(0 -53.393)" fill="#f1b62b"/>
      <path id="Trazado_640505" data-name="Trazado 640505" d="M1416.621,931.028h10.536v36.424h-10.536Z" transform="translate(-38.827 -72.61)" fill="#f1b62b"/>
      <path id="Trazado_640506" data-name="Trazado 640506" d="M1478,986.249V960.787h.5c3.17,0,6.339.007,9.509-.008.422,0,.58.08.579.554q-.025,12.207-.01,24.415c0,.294.034.54-.407.538-3.3-.014-6.6-.008-9.907-.009C1478.19,986.277,1478.118,986.262,1478,986.249Z" transform="translate(-77.574 -91.39)" fill="#f1b62b"/>
      <path id="Trazado_640507" data-name="Trazado 640507" d="M1539.368,1003.4v-14.85c0-.6,0-.6.578-.6h9.374c.573,0,.638.066.638.626q0,7.185.007,14.37c0,.356-.089.494-.466.492-3.257-.012-6.515-.007-9.771-.008C1539.625,1003.425,1539.524,1003.409,1539.368,1003.4Z" transform="translate(-116.31 -108.537)" fill="#f1b62b"/>
    </g>
  </g>
</svg>
