<svg xmlns="http://www.w3.org/2000/svg" width="134" height="134" viewBox="0 0 134 134">
  <g id="Grupo_909103" data-name="Grupo 909103" transform="translate(-734 -2764.636)">
    <circle id="Elipse_5077" data-name="Elipse 5077" cx="67" cy="67" r="67" transform="translate(734 2764.636)" fill="#179587"/>
    <g id="Grupo_904919" data-name="Grupo 904919" transform="translate(-29.127 1827.054)">
      <path id="Trazado_634011" data-name="Trazado 634011" d="M861.407,965.407c1.755,0,3.448-.012,5.14,0a3.671,3.671,0,0,1,3.535,2.115,5.106,5.106,0,0,1,.461,2.094c.041,4.34.021,8.681.021,13.022q0,30.536,0,61.071a4.019,4.019,0,0,1-1.438,3.4,3.765,3.765,0,0,1-2.4.9q-33.055,0-66.111,0a3.808,3.808,0,0,1-3.667-3.013c-.113-1-.109-2.013-.152-3.02-.011-.251,0-.5,0-.816h-.535c-1.537,0-3.074-.026-4.61.006a3.886,3.886,0,0,1-3.992-3.694c-.018-.252-.019-.507-.019-.76q0-29.444,0-58.887a45.368,45.368,0,0,1,.139-4.6,7.952,7.952,0,0,1,2.587-5.082c2.7-2.532,5.4-5.071,8.117-7.581a8.045,8.045,0,0,1,2.631-1.45,12.5,12.5,0,0,1,4.658-.559q25.76.008,51.52,0a3.83,3.83,0,0,1,3.84,2.509,4.2,4.2,0,0,1,.262,1.429C861.435,963.442,861.407,964.392,861.407,965.407Zm-10.782-3.052a3.435,3.435,0,0,0-.145-.912,2.3,2.3,0,0,0-2.3-1.357q-21.72,0-43.439.008a14.041,14.041,0,0,0-2.054.193.576.576,0,0,0-.37.414c-.025,1.06,0,2.121,0,3.182-.01,1.709,0,3.418-.043,5.126a3.141,3.141,0,0,1-.291,1.165,3.739,3.739,0,0,1-3.7,2.283c-1.645.014-3.291.019-4.936.029-1.108-.009-2.217.007-3.324-.039-.464-.02-.641.188-.671.578-.066.835-.1,1.672-.16,2.507-.02.278.1.362.36.357.728-.016,1.456-.02,2.184-.029.11.008.22.023.33.023q29.065,0,58.129.01c.43,0,.526-.138.524-.544-.013-4.183-.007-8.365-.012-12.548A2.389,2.389,0,0,0,850.625,962.355Zm-30.6,15.164H789.848c-.65,0-.65,0-.65.659q0,2.661,0,5.323,0,26.659.01,53.319a3.78,3.78,0,0,0,.238,1.435,2.3,2.3,0,0,0,2.364,1.361q26.066,0,52.131,0c1.425,0,2.852.02,4.277-.013a3.18,3.18,0,0,0,1.223-.273,2.4,2.4,0,0,0,1.3-2.448q.008-29.344,0-58.689c0-.673,0-.673-.686-.673Zm31.616,62.047a.252.252,0,0,0,.1.041c1.949,0,3.9.035,5.845-.015a2,2,0,0,0,1.966-1.286,4.869,4.869,0,0,0,.3-1.649q.023-29.254.022-58.508c0-.472-.12-.633-.609-.628-2.091.024-4.183.01-6.274.01-.724,0-.724,0-.724.705q0,29.3,0,58.6a4.489,4.489,0,0,1-.1,1.079C852.024,1038.472,851.82,1039.009,851.64,1039.566Zm8.977,6.916c2,0,3.885-.02,5.769.006a2.4,2.4,0,0,0,2.594-2.585q-.017-29.488,0-58.976c0-.446-.135-.565-.569-.56-2.122.02-4.245.009-6.368.009-.618,0-.618,0-.618.614q-.014,29.083-.023,58.167A5.438,5.438,0,0,1,860.616,1046.481Zm-.688-5.943a2.026,2.026,0,0,0-.521.1,4.053,4.053,0,0,1-2.171.527q-8.127,0-16.254,0-20.983,0-41.965,0c-.214,0-.429.022-.673.035,0,.982-.021,1.916.011,2.848a2.875,2.875,0,0,0,.233,1.092,2.349,2.349,0,0,0,2.35,1.349q27.945,0,55.89-.009a6.762,6.762,0,0,0,1.476-.177,1.679,1.679,0,0,0,1.37-1.37C859.853,1043.51,859.851,1042.07,859.928,1040.538Zm-7.653-64.7a1.8,1.8,0,0,0,.224.041c2.327,0,4.654,0,6.981.01.37,0,.4-.181.4-.473-.006-4.227,0-8.454-.016-12.68a3.408,3.408,0,0,0-.275-1.315,2.294,2.294,0,0,0-2.344-1.333h-5.733a5.386,5.386,0,0,1,.775,3.014c-.019,4.053-.008,8.105-.008,12.158Zm9.176,6.853a2.625,2.625,0,0,0,.3.034c2.281,0,4.562,0,6.844.008.344,0,.422-.13.421-.448-.009-4.246,0-8.491-.017-12.736a3.2,3.2,0,0,0-.253-1.241,2.274,2.274,0,0,0-2.242-1.352c-1.489-.019-2.978-.005-4.467,0-.628,0-.63,0-.629.616q.011,7.342.025,14.685C861.426,982.39,861.441,982.529,861.451,982.69Zm-71.3-11.839a2.507,2.507,0,0,0,.308.071c2.645,0,5.291.016,7.936-.011a2.9,2.9,0,0,0,1.233-.324,2.146,2.146,0,0,0,1.141-2.1q0-3.54,0-7.081c0-.118-.019-.236-.03-.366a7.6,7.6,0,0,0-2.409,1.812q-3.422,3.176-6.791,6.408C791.057,969.723,790.658,970.265,790.15,970.852Z" transform="translate(0)" fill="#532625"/>
      <path id="Trazado_634012" data-name="Trazado 634012" d="M822.4,1006.428h30.033c.686,0,.686,0,.686.673q0,29.344,0,58.689a2.4,2.4,0,0,1-1.3,2.448,3.182,3.182,0,0,1-1.223.272c-1.425.032-2.851.013-4.276.013q-26.065,0-52.131,0a2.3,2.3,0,0,1-2.364-1.361,3.778,3.778,0,0,1-.238-1.435q-.017-26.659-.01-53.319,0-2.661,0-5.323c0-.658,0-.659.65-.659Zm21.823,48.26a2.23,2.23,0,0,0,1.887-2.077,2.342,2.342,0,0,0-2.546-2.455q-10.09.007-20.18.007a2.358,2.358,0,0,0-2.434,1.606,2.272,2.272,0,0,0,1.77,2.919,2.239,2.239,0,0,0,.582.165c2.138.012,4.276.008,6.415.008q6.913,0,13.827-.008A2.945,2.945,0,0,0,844.228,1054.688Zm-42.381-11.645-.5.145-.261.048-.215.128-.169.046-.211.145a3.668,3.668,0,0,0-1.893,3.287c-.036,3.751-.019,7.5,0,11.255a3.806,3.806,0,0,0,.233,1.295,3.956,3.956,0,0,0,3.731,2.518c3.434-.055,6.87-.013,10.3-.02a13.043,13.043,0,0,0,1.405-.09,3.56,3.56,0,0,0,3.127-3.422q.079-5.982-.011-11.966a3.3,3.3,0,0,0-1.865-2.867l-.221-.144-.16-.046-.225-.128-.168-.029-.593-.158c-.3-.01-.6-.028-.9-.028q-5.256,0-10.512,0C802.445,1043.011,802.146,1043.032,801.847,1043.043Zm20.481-16.925h21.047c.19,0,.381.005.57-.008a2.3,2.3,0,0,0,1.793-3.552,2.442,2.442,0,0,0-2.237-1.05q-21.141.018-42.283.009c-.206,0-.412,0-.617.015a2.309,2.309,0,0,0,.539,4.585Zm.015,2.426q-9.051,0-18.1,0c-1.172,0-2.345-.02-3.516.016a2.273,2.273,0,0,0-1.865,3.317,2.5,2.5,0,0,0,2.445,1.27q21.049-.006,42.1,0c.221,0,.443-.013.663-.033a2.292,2.292,0,0,0,1.691-3.5,2.434,2.434,0,0,0-2.222-1.077Q832.939,1028.558,822.343,1028.544Zm-.019,11.692h21.006c.238,0,.476,0,.713-.014a2.265,2.265,0,0,0,1.805-3.314,2.522,2.522,0,0,0-2.433-1.255q-21.053,0-42.107,0a8.439,8.439,0,0,0-.848.08,2.26,2.26,0,0,0-1.444,3.541,2.351,2.351,0,0,0,2.112.967Q811.725,1040.222,822.323,1040.235Zm4.1-25.76q-8.743,0-17.485.005a2.137,2.137,0,0,0-2.107,1.418,2.258,2.258,0,0,0,.334,2.317,2.46,2.46,0,0,0,2.083.832q17.152.008,34.305,0c.142,0,.286,0,.427-.01a2.3,2.3,0,0,0,2.126-2.181,2.328,2.328,0,0,0-2.34-2.388Q835.1,1014.485,826.428,1014.475Zm7,28.531v0c-3.468,0-6.937-.017-10.4.01a2.207,2.207,0,0,0-2.155,1.853,2.113,2.113,0,0,0,1.048,2.363,2.657,2.657,0,0,0,1.317.376c6.825.023,13.651.01,20.476.021a2.353,2.353,0,0,0,2.4-2.428,2.314,2.314,0,0,0-2.377-2.2Q838.583,1043.011,833.429,1043.006Zm.037,18.887c3.357,0,6.714.005,10.071-.007a4.162,4.162,0,0,0,1.051-.167,2.222,2.222,0,0,0,1.259-3.155,2.322,2.322,0,0,0-2.2-1.248q-10.167.011-20.333,0c-.127,0-.254,0-.38.008a2.287,2.287,0,0,0,.267,4.564Q828.335,1061.895,833.466,1061.893Z" transform="translate(-2.381 -28.91)" fill="#f4ecec"/>
      <path id="Trazado_634013" data-name="Trazado 634013" d="M799.6,978.276c1.645-.009,3.291-.014,4.936-.029a3.739,3.739,0,0,0,3.7-2.283,3.14,3.14,0,0,0,.291-1.164c.04-1.708.033-3.417.043-5.126.625-.286,1.243-.587,1.876-.855a7.266,7.266,0,0,1,2.813-.656q21.454-.022,42.908-.01c.238,0,.475,0,.713-.008a2.385,2.385,0,0,1,.084.446c0,4.183,0,8.365.012,12.548,0,.406-.094.545-.524.544q-29.065-.015-58.129-.01c-.11,0-.22-.015-.33-.023.016-.124.022-.251.049-.372A7.559,7.559,0,0,1,799.6,978.276Z" transform="translate(-6.255 -5.789)" fill="#fdd489"/>
      <path id="Trazado_634014" data-name="Trazado 634014" d="M949.229,1068.479c.18-.557.385-1.094.523-1.647a4.487,4.487,0,0,0,.1-1.079q.007-29.3,0-58.6c0-.705,0-.705.724-.705,2.091,0,4.183.014,6.274-.01.49-.006.61.156.609.628q-.016,29.253-.022,58.508a4.871,4.871,0,0,1-.3,1.649,2,2,0,0,1-1.966,1.286c-1.947.05-3.9.017-5.845.015A.253.253,0,0,1,949.229,1068.479Z" transform="translate(-97.589 -28.914)" fill="#c5c4c4"/>
      <path id="Trazado_634015" data-name="Trazado 634015" d="M971.893,1085.833a5.438,5.438,0,0,0,.787-3.324q0-29.084.023-58.167c0-.614,0-.614.618-.614,2.123,0,4.246.011,6.368-.009.434,0,.569.114.569.56q-.016,29.487,0,58.975a2.4,2.4,0,0,1-2.594,2.585C975.778,1085.813,973.894,1085.833,971.893,1085.833Z" transform="translate(-111.277 -39.351)" fill="#c6c4c4"/>
      <path id="Trazado_634016" data-name="Trazado 634016" d="M876.248,1165.535c-.077,1.532-.075,2.972-.253,4.39a1.679,1.679,0,0,1-1.37,1.371,6.776,6.776,0,0,1-1.476.177q-27.944.013-55.89.009a2.349,2.349,0,0,1-2.35-1.349,2.875,2.875,0,0,1-.233-1.092c-.032-.932-.011-1.866-.011-2.848.244-.013.458-.035.672-.035q20.983,0,41.965,0,8.126,0,16.254,0a4.052,4.052,0,0,0,2.171-.527A2.03,2.03,0,0,1,876.248,1165.535Z" transform="translate(-16.32 -124.997)" fill="#f4ecec"/>
      <path id="Trazado_634017" data-name="Trazado 634017" d="M949.664,978.167v-.578c0-4.053-.012-8.105.008-12.158a5.386,5.386,0,0,0-.775-3.014h5.733a2.294,2.294,0,0,1,2.344,1.333,3.409,3.409,0,0,1,.275,1.315c.02,4.227.01,8.453.016,12.68,0,.292-.026.475-.4.473-2.327-.013-4.654-.008-6.981-.01A1.781,1.781,0,0,1,949.664,978.167Z" transform="translate(-97.389 -2.331)" fill="#eeb353"/>
      <path id="Trazado_634018" data-name="Trazado 634018" d="M973.924,995.479c-.01-.161-.025-.3-.025-.438q-.014-7.343-.025-14.685c0-.616,0-.616.629-.616,1.489,0,2.979-.014,4.467,0a2.274,2.274,0,0,1,2.242,1.352,3.2,3.2,0,0,1,.253,1.241c.018,4.245.008,8.491.017,12.736,0,.318-.078.45-.421.448-2.281-.012-4.562-.006-6.844-.008A2.623,2.623,0,0,1,973.924,995.479Z" transform="translate(-112.473 -12.788)" fill="#eeb353"/>
      <path id="Trazado_634019" data-name="Trazado 634019" d="M872.986,964.685c-.237,0-.475.008-.713.008q-21.454,0-42.908.01a7.269,7.269,0,0,0-2.813.656c-.633.267-1.251.568-1.876.855-.007-1.061-.029-2.122,0-3.182a.576.576,0,0,1,.37-.414,14.066,14.066,0,0,1,2.055-.193q21.719-.015,43.439-.008a2.3,2.3,0,0,1,2.3,1.357A3.433,3.433,0,0,1,872.986,964.685Z" transform="translate(-22.361 -2.33)" fill="#ffe7c1"/>
      <path id="Trazado_634020" data-name="Trazado 634020" d="M793.984,974.643c.508-.586.907-1.128,1.387-1.587q3.374-3.227,6.791-6.408a7.6,7.6,0,0,1,2.409-1.812c.011.13.03.248.03.366q0,3.54,0,7.081a2.147,2.147,0,0,1-1.141,2.1,2.9,2.9,0,0,1-1.233.324c-2.645.028-5.29.013-7.936.011A2.508,2.508,0,0,1,793.984,974.643Z" transform="translate(-3.834 -3.792)" fill="#ffe7c1"/>
      <path id="Trazado_634021" data-name="Trazado 634021" d="M795.722,993.662a7.558,7.558,0,0,0-1.563,3c-.027.122-.033.248-.049.372-.728.009-1.456.013-2.184.029-.257.006-.38-.079-.36-.357.059-.835.094-1.672.16-2.507.031-.39.207-.6.671-.578C793.5,993.67,794.614,993.653,795.722,993.662Z" transform="translate(-2.373 -21.176)" fill="#ffe6bf"/>
      <path id="Trazado_634022" data-name="Trazado 634022" d="M833.029,1049.111H811.84a2.309,2.309,0,0,1-.539-4.585c.2-.017.412-.015.617-.015q21.142,0,42.283-.009a2.442,2.442,0,0,1,2.237,1.05,2.3,2.3,0,0,1-1.793,3.552c-.189.013-.38.008-.57.008Zm.051-3.042h-21a5.684,5.684,0,0,0-.57.01.7.7,0,0,0-.558,1.056c.213.421.583.416.965.416h42.186c.8,0,1.195-.252,1.183-.763-.011-.486-.386-.719-1.163-.719Z" transform="translate(-13.083 -51.903)" fill="#5a2f2c"/>
      <path id="Trazado_634023" data-name="Trazado 634023" d="M833.044,1062.251q10.6,0,21.192-.008a2.434,2.434,0,0,1,2.222,1.077,2.292,2.292,0,0,1-1.69,3.5c-.22.021-.442.033-.663.033q-21.049,0-42.1,0a2.5,2.5,0,0,1-2.445-1.27,2.273,2.273,0,0,1,1.865-3.317c1.171-.036,2.344-.016,3.516-.016Q823.992,1062.25,833.044,1062.251Zm.035,1.548h-21c-.206,0-.452-.057-.608.034a1.293,1.293,0,0,0-.606.608.859.859,0,0,0,.343.68,1.325,1.325,0,0,0,.758.164q21.1.011,42.195.006a2.748,2.748,0,0,0,.427-.01.709.709,0,0,0,.676-.665,1.058,1.058,0,0,0-.4-.721,1.337,1.337,0,0,0-.734-.094Q843.6,1063.8,833.079,1063.8Z" transform="translate(-13.083 -62.617)" fill="#5a2f2c"/>
      <path id="Trazado_634024" data-name="Trazado 634024" d="M833.012,1084.795q-10.6,0-21.2.008a2.35,2.35,0,0,1-2.112-.966,2.26,2.26,0,0,1,1.444-3.541,8.436,8.436,0,0,1,.848-.08q21.053-.006,42.107,0a2.522,2.522,0,0,1,2.433,1.255,2.265,2.265,0,0,1-1.805,3.314c-.237.015-.475.014-.713.014Zm.039-1.541q10.523,0,21.045,0a2.846,2.846,0,0,0,.614-.039.685.685,0,0,0,.427-1.051c-.24-.426-.633-.41-1.029-.41H811.971a3.093,3.093,0,0,0-.379.008.863.863,0,0,0-.781.8.794.794,0,0,0,.816.689c.158.009.316,0,.475,0Z" transform="translate(-13.07 -73.468)" fill="#5a2f2c"/>
      <path id="Trazado_634025" data-name="Trazado 634025" d="M849.419,1026.74q8.671,0,17.343,0a2.328,2.328,0,0,1,2.34,2.388,2.3,2.3,0,0,1-2.126,2.181c-.141.011-.285.01-.427.01q-17.153,0-34.305,0a2.46,2.46,0,0,1-2.083-.832,2.258,2.258,0,0,1-.334-2.317,2.137,2.137,0,0,1,2.107-1.418Q840.676,1026.729,849.419,1026.74Zm-.08,3.042h16.492c.333,0,.665,0,1,0a.634.634,0,0,0,.666-.582.717.717,0,0,0-.754-.922q-17.348,0-34.7,0c-.079,0-.18-.027-.234.011-.219.156-.526.293-.608.509a.589.589,0,0,0,.31.827,2.161,2.161,0,0,0,.715.153Q840.783,1029.787,849.338,1029.781Z" transform="translate(-25.373 -41.174)" fill="#532625"/>
      <path id="Trazado_634026" data-name="Trazado 634026" d="M826.193,1099.32a3.3,3.3,0,0,1,1.865,2.867q.1,5.982.011,11.967a3.56,3.56,0,0,1-3.127,3.422,13.045,13.045,0,0,1-1.405.089c-3.435.008-6.871-.034-10.3.02a3.956,3.956,0,0,1-3.731-2.518,3.806,3.806,0,0,1-.233-1.295c-.017-3.752-.034-7.5,0-11.255a3.668,3.668,0,0,1,1.893-3.287l.211-.145.169-.046.215-.128.261-.048.5-.145c.3-.011.6-.032.9-.032q5.256,0,10.512,0c.3,0,.6.018.9.028l.593.158.168.029.225.128.16.046Zm-13.137,16.793a1.319,1.319,0,0,0,.187.026c3.7,0,7.4.011,11.1-.008a2.3,2.3,0,0,0,2.224-2.239c-.02-3.669-.006-7.339-.006-11.008a1.827,1.827,0,0,0-.03-.234,2.183,2.183,0,0,0-2.153-2.284c-3.718,0-7.436.015-11.154-.014a2.387,2.387,0,0,0-2.444,2.444c0,.9,0,1.8,0,2.705,0,2.753-.01,5.506,0,8.259A2.288,2.288,0,0,0,813.056,1116.113Z" transform="translate(-13.053 -84.686)" fill="#532625"/>
      <path id="Trazado_634027" data-name="Trazado 634027" d="M878,1098.776q5.155,0,10.309,0a2.314,2.314,0,0,1,2.377,2.2,2.354,2.354,0,0,1-2.4,2.428c-6.825-.01-13.651,0-20.476-.021a2.655,2.655,0,0,1-1.317-.376,2.112,2.112,0,0,1-1.048-2.363,2.207,2.207,0,0,1,2.155-1.853c3.468-.028,6.937-.01,10.4-.01Zm.037,1.582q-5.132,0-10.264-.005a.78.78,0,0,0-.825.581.68.68,0,0,0,.429.832,1.263,1.263,0,0,0,.549.091q4.253.008,8.505,0,5.892,0,11.784,0c.693,0,.987-.381.82-1.02-.111-.419-.407-.485-.781-.484Q883.143,1100.363,878.035,1100.358Z" transform="translate(-46.951 -84.68)" fill="#5a2f2c"/>
      <path id="Trazado_634028" data-name="Trazado 634028" d="M878.07,1139.483q-5.131,0-10.262,0a2.287,2.287,0,0,1-.267-4.564c.126-.011.253-.008.38-.008q10.167,0,20.333,0a2.322,2.322,0,0,1,2.2,1.248,2.223,2.223,0,0,1-1.259,3.155,4.159,4.159,0,0,1-1.051.167C884.784,1139.488,881.427,1139.483,878.07,1139.483Zm.013-3.042q-5.108,0-10.216,0c-.553,0-.9.3-.905.75s.351.756.911.758c1.172,0,2.344,0,3.516,0q8.363,0,16.726,0a1.532,1.532,0,0,0,.678-.114.708.708,0,0,0,.287-.9.653.653,0,0,0-.734-.5Q883.215,1136.447,878.083,1136.442Z" transform="translate(-46.986 -106.5)" fill="#532625"/>
      <path id="Trazado_634029" data-name="Trazado 634029" d="M867.337,1121.363a2.271,2.271,0,0,1-1.77-2.919,2.358,2.358,0,0,1,2.434-1.607q10.09-.016,20.18-.007a2.342,2.342,0,0,1,2.546,2.454,2.23,2.23,0,0,1-1.887,2.077.958.958,0,0,0-.14-.02l-20.463.011C867.936,1121.354,867.636,1121.36,867.337,1121.363Zm10.7-1.462q4.94,0,9.88,0a3.129,3.129,0,0,0,.705-.068.676.676,0,0,0,.42-1.081c-.243-.383-.629-.383-1-.383q-9.952-.006-19.9,0a2.356,2.356,0,0,0-.739.121.659.659,0,0,0-.285,1.029c.26.423.665.376,1.046.377Q873.1,1119.909,878.04,1119.9Z" transform="translate(-46.993 -95.584)" fill="#5a2f2c"/>
      <path id="Trazado_634030" data-name="Trazado 634030" d="M870.215,1128.242c.3,0,.6-.009.9-.01l20.463-.012a.939.939,0,0,1,.14.02,2.943,2.943,0,0,1-.679.166q-6.913.015-13.827.008c-2.138,0-4.276,0-6.415-.008A2.243,2.243,0,0,1,870.215,1128.242Z" transform="translate(-49.871 -102.463)" fill="#a98c89"/>
      <path id="Trazado_634031" data-name="Trazado 634031" d="M849.172,1099.018l-.593-.158Z" transform="translate(-36.805 -84.731)" fill="#97726d"/>
      <path id="Trazado_634032" data-name="Trazado 634032" d="M816.743,1098.871l-.5.145Z" transform="translate(-17.277 -84.738)" fill="#97726d"/>
      <path id="Trazado_634033" data-name="Trazado 634033" d="M815.257,1099.359l-.215.128Z" transform="translate(-16.551 -85.032)" fill="#97726d"/>
      <path id="Trazado_634034" data-name="Trazado 634034" d="M850.724,1099.459l-.225-.128Z" transform="translate(-37.965 -85.015)" fill="#97726d"/>
      <path id="Trazado_634035" data-name="Trazado 634035" d="M814.294,1099.8l-.211.145Z" transform="translate(-15.972 -85.297)" fill="#97726d"/>
      <path id="Trazado_634036" data-name="Trazado 634036" d="M851.692,1099.916l-.221-.144Z" transform="translate(-38.552 -85.282)" fill="#97726d"/>
      <path id="Trazado_634037" data-name="Trazado 634037" d="M835.464,1048.457H856.51c.777,0,1.153.233,1.163.719.011.511-.379.763-1.183.763H814.3c-.382,0-.752,0-.965-.416a.7.7,0,0,1,.558-1.056,5.684,5.684,0,0,1,.57-.01Z" transform="translate(-15.467 -54.291)" fill="#f4ecec"/>
      <path id="Trazado_634038" data-name="Trazado 634038" d="M835.452,1066.147q10.525,0,21.05,0a1.336,1.336,0,0,1,.734.094,1.058,1.058,0,0,1,.4.721.709.709,0,0,1-.676.665,2.735,2.735,0,0,1-.427.01q-21.1,0-42.195-.006a1.324,1.324,0,0,1-.758-.164.859.859,0,0,1-.343-.68,1.293,1.293,0,0,1,.606-.608c.155-.092.4-.034.608-.034Z" transform="translate(-15.456 -64.965)" fill="#f4ecec"/>
      <path id="Trazado_634039" data-name="Trazado 634039" d="M835.387,1085.6h-20.95c-.158,0-.317.005-.475,0a.794.794,0,0,1-.816-.689.863.863,0,0,1,.781-.8,3.092,3.092,0,0,1,.379-.008h42.137c.4,0,.789-.016,1.029.41a.685.685,0,0,1-.427,1.051,2.854,2.854,0,0,1-.614.039Q845.909,1085.6,835.387,1085.6Z" transform="translate(-15.406 -75.817)" fill="#f4ecec"/>
      <path id="Trazado_634040" data-name="Trazado 634040" d="M851.62,1032.112q-8.555,0-17.11-.007a2.164,2.164,0,0,1-.715-.153.589.589,0,0,1-.31-.827c.082-.217.389-.354.608-.509.053-.038.154-.011.234-.011q17.349,0,34.7,0a.717.717,0,0,1,.754.922.634.634,0,0,1-.666.582c-.333,0-.665,0-1,0Z" transform="translate(-27.655 -43.505)" fill="#f4ecec"/>
      <path id="Trazado_634041" data-name="Trazado 634041" d="M832.339,1108.541a1.812,1.812,0,0,1,.03.234c0,3.669-.014,7.339.006,11.008a2.3,2.3,0,0,1-2.224,2.239c-3.7.019-7.4.008-11.1.008a1.32,1.32,0,0,1-.187-.026c0-3.26,0-6.52.016-9.78a7.535,7.535,0,0,1,.181-1.532,2.914,2.914,0,0,1,2.648-2.146Z" transform="translate(-18.858 -90.577)" fill="#f18d74"/>
      <path id="Trazado_634042" data-name="Trazado 634042" d="M828.87,1105.038l-10.634.006a2.914,2.914,0,0,0-2.648,2.146,7.538,7.538,0,0,0-.181,1.532c-.018,3.26-.013,6.52-.015,9.78a2.288,2.288,0,0,1-2.267-2.352c-.015-2.753,0-5.506,0-8.259,0-.9,0-1.8,0-2.705a2.387,2.387,0,0,1,2.444-2.444c3.718.029,7.436.009,11.154.013A2.183,2.183,0,0,1,828.87,1105.038Z" transform="translate(-15.389 -87.075)" fill="#f5b7ac"/>
      <path id="Trazado_634043" data-name="Trazado 634043" d="M880.375,1102.764q5.108,0,10.216,0c.374,0,.671.065.781.484.168.639-.127,1.02-.819,1.02q-5.892,0-11.784,0-4.253,0-8.505,0a1.263,1.263,0,0,1-.549-.091.68.68,0,0,1-.429-.832.78.78,0,0,1,.825-.581Q875.244,1102.773,880.375,1102.764Z" transform="translate(-49.291 -87.086)" fill="#f4ecec"/>
      <path id="Trazado_634044" data-name="Trazado 634044" d="M880.408,1138.778q5.132,0,10.264,0a.654.654,0,0,1,.734.5.708.708,0,0,1-.287.9,1.535,1.535,0,0,1-.678.114q-8.363.008-16.726,0c-1.172,0-2.344,0-3.516,0-.56,0-.912-.3-.911-.758s.352-.75.905-.75Q875.3,1138.776,880.408,1138.778Z" transform="translate(-49.311 -108.836)" fill="#f4ecec"/>
      <path id="Trazado_634045" data-name="Trazado 634045" d="M880.373,1122.24q-4.941,0-9.881,0c-.381,0-.786.046-1.046-.377a.659.659,0,0,1,.285-1.029,2.361,2.361,0,0,1,.74-.122q9.951-.01,19.9,0c.375,0,.762,0,1,.383a.676.676,0,0,1-.42,1.081,3.136,3.136,0,0,1-.705.068Q885.313,1122.243,880.373,1122.24Z" transform="translate(-49.327 -97.922)" fill="#f4ecec"/>
    </g>
  </g>
</svg>
