<svg xmlns="http://www.w3.org/2000/svg" width="134" height="134" viewBox="0 0 134 134">
  <g id="Grupo_909120" data-name="Grupo 909120" transform="translate(-390 -1814.636)">
    <circle id="Elipse_7377" data-name="Elipse 7377" cx="67" cy="67" r="67" transform="translate(390 1814.636)" fill="#222b5a"/>
    <g id="Grupo_906662" data-name="Grupo 906662" transform="translate(-738.003 644.223)">
      <path id="Trazado_640475" data-name="Trazado 640475" d="M1232.5,1236.269a12.05,12.05,0,0,1-1.337,4.528,11.852,11.852,0,0,1-1.861,2.555,11.7,11.7,0,0,1-4.135,2.81,20.809,20.809,0,0,1-3.5.809c-.358.07-.536.131-.548.555a18.6,18.6,0,0,1-.222,2.495.987.987,0,0,1-.837.9c-.14,0-.281,0-.421,0a1.386,1.386,0,0,1-1.45-1.708c.148-.923.3-1.85.362-2.782.148-2.078.245-4.161.363-6.242.06-.113.167-.224.173-.34.023-.456.015-.914.018-1.371.1-1.418.2-2.835.283-4.253.064-1.071.075-2.146.163-3.214.156-1.893.4-3.779.518-5.674a26.193,26.193,0,0,0-.491-8.249c-.342-1.326-.734-2.626-1.2-3.905a20.255,20.255,0,0,0-2.765-5.13c-.391-.529-.749-1.086-1.172-1.588-.516-.613-1.067-1.2-1.636-1.764-.453-.45-.956-.849-1.525-1.348,0,1.226-.035,2.288.022,3.344a1.86,1.86,0,0,0,.458.911c.285.37.681.657.951,1.036.594.833,1.129,1.708,1.706,2.555a1.333,1.333,0,0,1-.215,2.072.574.574,0,0,0-.09.178c-.3.06-.65.248-.886.152a1.979,1.979,0,0,1-1.2-1.087,5.228,5.228,0,0,0-.69-.981v11.03h.526c.46,0,.92.016,1.378-.005a1.5,1.5,0,0,0,1.432-1.83c-.119-.737-.256-1.474-.318-2.215a1.4,1.4,0,0,1,1.037-1.553,2.492,2.492,0,0,1,.825.108,1.315,1.315,0,0,1,.659.629,9.43,9.43,0,0,1,.433,4.382,3.712,3.712,0,0,1-1.5,2.329,4.167,4.167,0,0,1-1.992.837c-.982.026-1.964.071-2.945.073q-6.543.012-13.085,0c-6.728,0-13.456.018-20.184-.024a4.857,4.857,0,0,1-2.272-.561,3.43,3.43,0,0,1-1.934-2.681l-.078-1.927a17.69,17.69,0,0,1,.29-2.124c.3-1.16.67-2.3,1.051-3.439a13,13,0,0,1,.9-2.258,30.943,30.943,0,0,1,1.834-2.757c.492-.689,1.05-1.333,1.562-2.009.183-.242.442-.514.455-.782.052-1.1.021-2.213.021-3.493-.677.609-1.286,1.078-1.8,1.636-.768.835-1.5,1.708-2.187,2.609-.515.673-.952,1.407-1.4,2.13a15.177,15.177,0,0,0-1.265,2.2c-.553,1.365-1,2.774-1.458,4.176a21.282,21.282,0,0,0-.874,6.724c0,1.241.143,2.481.218,3.722.062,1.016.1,2.034.183,3.049.17,2.126.365,4.251.54,6.376.1,1.225.184,2.451.275,3.677.158,2.149.331,4.3.47,6.447a21.617,21.617,0,0,0,.576,4.928,18.909,18.909,0,0,0,.706,2.029,21.245,21.245,0,0,0,1.477,3.095,27.447,27.447,0,0,0,2.691,3.528,24.908,24.908,0,0,0,2.951,2.717c1.23.987,2.514,1.915,3.833,2.779a29.434,29.434,0,0,0,2.7,1.414,16.777,16.777,0,0,0,1.884.934c1.023.364,2.08.63,3.125.93a9.138,9.138,0,0,0,3.9.461c.461-.068.924-.128,1.381-.216a17.227,17.227,0,0,0,2.188-.475c.917-.307,1.8-.717,2.69-1.1.865-.378,1.724-.768,2.572-1.183.513-.251,1-.551,1.492-.846.8-.484,1.632-.94,2.392-1.487.8-.577,1.545-1.237,2.3-1.881a20.842,20.842,0,0,0,1.739-1.6c.7-.758,1.365-1.557,1.991-2.379a14.109,14.109,0,0,0,1.327-2.035c.665-1.29,1.076-1.389,2.121-1.224a1.5,1.5,0,0,1,.733,1.47,1.4,1.4,0,0,1-.2.5c-.394.664-.773,1.34-1.209,1.975-.516.749-1.056,1.485-1.639,2.181-.517.617-1.105,1.174-1.665,1.755-.477.495-.926,1.023-1.446,1.468-.807.691-1.667,1.318-2.494,1.987a.552.552,0,0,0-.179.377c0,1.626-.007,3.253.057,4.877a3.222,3.222,0,0,0,.433,1.235,4.6,4.6,0,0,0,1.431,1.866,20.8,20.8,0,0,0,1.9,1.186c.878.464,1.79.862,2.691,1.283.8.373,1.606.723,2.4,1.112a2.084,2.084,0,0,1,.528,3.271,1.983,1.983,0,0,1-1.706.717q-22.456,0-44.912.016a2.273,2.273,0,0,1-1.976-.928,2.067,2.067,0,0,1-.348-1.269,2.155,2.155,0,0,1,1.5-1.945c.8-.319,1.548-.787,2.33-1.167.751-.365,1.526-.68,2.27-1.057a18.438,18.438,0,0,0,1.693-.982,4.283,4.283,0,0,0,1.616-1.943c.227-.53.366-1.1.544-1.648.064-.128.182-.255.184-.383q.025-2.127.01-4.255c0-.114-.139-.226-.213-.339-.56-.416-1.123-.828-1.681-1.248a9.538,9.538,0,0,1-.77-.618c-.813-.757-1.624-1.516-2.416-2.3a9.486,9.486,0,0,1-.87-1.019c-.6-.793-1.23-1.575-1.775-2.408a26,26,0,0,1-1.548-2.681,20.642,20.642,0,0,1-1.135-2.752,16.892,16.892,0,0,1-.6-2.617c-.16-1.012-.222-2.039-.326-3.058a14.82,14.82,0,0,1-1.974-.325,9.622,9.622,0,0,1-2.788-1.049,19.812,19.812,0,0,1-2.392-1.511,12.309,12.309,0,0,1-2.4-2.819,12.532,12.532,0,0,1-1.781-6.929,6.9,6.9,0,0,1,.888-3.263,6.051,6.051,0,0,1,2.206-2.344,12.434,12.434,0,0,1,1.82-.924,5.93,5.93,0,0,1,1.738-.3c1.109-.045,2.22-.013,3.225-.013-.08-2.18-.277-4.3-.2-6.416a34.78,34.78,0,0,1,.724-5.269,25.179,25.179,0,0,1,1.044-3.48,15.1,15.1,0,0,1,.953-2.076c.455-.857.943-1.7,1.455-2.522.526-.846,1.06-1.692,1.662-2.484.477-.628,1.062-1.174,1.6-1.757.565-.613,1.089-1.271,1.706-1.825a23.932,23.932,0,0,1,2.157-1.652.8.8,0,0,0,.416-.728c-.014-1.908,0-3.817,0-5.725a5.09,5.09,0,0,1,1.264-3.411,5.494,5.494,0,0,1,3.15-2.041c.1-.02.179-.135.268-.205h26.411a.674.674,0,0,0-.035.139c.715.344.807.959.8,1.67-.019,2.985.047,5.972-.04,8.954a1.99,1.99,0,0,0,1.058,1.874,20.22,20.22,0,0,1,1.813,1.594c.543.493,1.093.979,1.609,1.5a10.211,10.211,0,0,1,1.067,1.24,43.382,43.382,0,0,1,2.456,3.591,28.56,28.56,0,0,1,1.661,3.659,24.11,24.11,0,0,1,1.94,8.634,59.809,59.809,0,0,1-.2,6.349c0,.1,0,.209,0,.373.746,0,1.486-.04,2.22.01a12.6,12.6,0,0,1,2.844.341,4.523,4.523,0,0,1,2.381,1.376c.332.421.81.729,1.134,1.155a5.625,5.625,0,0,1,.755,1.384,18.181,18.181,0,0,1,.493,1.768Q1232.489,1234.94,1232.5,1236.269Zm-53.072-17.721c.178-.755.484-1.009,1.3-1.086,1,.1,1.336.462,1.353,1.462q.011.66.021,1.32v2.293h26.4v-2.293c.007-.123.02-.246.02-.369q0-9.778,0-19.556c0-.135-.019-.27-.031-.439h-.661q-11.155,0-22.311-.009a6.982,6.982,0,0,1-1.6-.2c-.606-.145-1.191-.381-1.838-.6v.643q0,6.227,0,12.454c0,1.056-.342,1.456-1.349,1.612-1.526-.092-1.258-1.3-1.418-2.3a22.724,22.724,0,0,0-1.755,3.058,19.849,19.849,0,0,0-.988,3.018c-.23.88-.34,1.79-.5,2.687-.03.224-.057.448-.092.671a1.9,1.9,0,0,0,.517,1.347,5.9,5.9,0,0,0,2.935.276Zm50.319,15.364a7.066,7.066,0,0,0-.622-1.671,4.1,4.1,0,0,0-3.642-1.91c-.866.024-1.732,0-2.6,0-.151,0-.3.025-.456.039-.34,4.638-.677,9.226-1.018,13.863.28-.03.473-.032.658-.073a12.561,12.561,0,0,0,3.127-1.1,9.043,9.043,0,0,0,2.7-2.293c.4-.48.583-1.142.955-1.657a7.026,7.026,0,0,0,.886-2.948c.059-.075.168-.149.17-.226.018-.579.023-1.159.011-1.738C1229.91,1234.1,1229.8,1234.008,1229.742,1233.913Zm-22.52,33.761c-.417.224-.833.449-1.251.671-.7.373-1.387.8-2.121,1.1-1.02.418-2.094.7-3.116,1.111a15.448,15.448,0,0,1-4.549.963,11.42,11.42,0,0,1-4.411-.438c-.9-.283-1.822-.472-2.7-.794-1.208-.441-2.394-.943-3.57-1.464-.7-.308-1.353-.7-2.028-1.059-.07.108-.2.216-.2.325-.014.953-.005,1.907,0,2.861a9.336,9.336,0,0,1-.981,2.944,13.918,13.918,0,0,1-1.1,1.608,6.328,6.328,0,0,1-1.112.928,12.486,12.486,0,0,1-1.552,1.067c-.9.476-1.845.874-2.771,1.305l.035.068h39.164c-.766-.387-1.4-.7-2.027-1.025a15.748,15.748,0,0,1-2.113-1.136,8.972,8.972,0,0,1-2.164-2.338,7.216,7.216,0,0,1-1.219-3.42c0-.971.012-1.942,0-2.913C1207.429,1267.916,1207.3,1267.8,1207.222,1267.673Zm1.267-70.552v-2.014h-22.767a5.572,5.572,0,0,1-.741-.02,1.327,1.327,0,0,1-1-1.6,1.429,1.429,0,0,1,1.527-1.134h22.982v-1.59h-.558q-11.132,0-22.266-.006a3.429,3.429,0,0,0-3.034,1.488,3.1,3.1,0,0,0,1.181,4.528,3.723,3.723,0,0,0,1.742.339q11.212.033,22.425.014Zm-40.342,33.228c-1.175,0-2.309-.059-3.434.013a3.911,3.911,0,0,0-3.649,2.815,7.343,7.343,0,0,0,.014,4.091,8.3,8.3,0,0,0,1.466,3.173,6.971,6.971,0,0,0,1.816,1.867,20.1,20.1,0,0,0,2.673,1.442,14.134,14.134,0,0,0,2.268.548c-.125-1.032-.256-1.91-.331-2.794-.1-1.191-.156-2.386-.24-3.578q-.206-2.932-.426-5.863C1168.262,1231.506,1168.2,1230.951,1168.148,1230.349Z" fill="#242423"/>
      <path id="Trazado_640476" data-name="Trazado 640476" d="M1254.824,1273.786c-1.045-.165-1.456-.066-2.121,1.224a14.115,14.115,0,0,1-1.327,2.035c-.626.822-1.288,1.621-1.991,2.379a20.823,20.823,0,0,1-1.739,1.6c-.751.645-1.495,1.3-2.3,1.881-.76.547-1.588,1-2.392,1.487-.49.3-.98.6-1.492.846-.847.416-1.707.805-2.572,1.183-.889.388-1.773.8-2.69,1.1a17.206,17.206,0,0,1-2.188.475c-.457.088-.92.148-1.381.216a9.136,9.136,0,0,1-3.9-.461c-1.045-.3-2.1-.566-3.125-.93a16.779,16.779,0,0,1-1.885-.934,15.822,15.822,0,0,0,3.905-.324c.791-.161,1.575-.361,2.356-.562a4.934,4.934,0,0,0,.759-.3c.766-.344,1.516-.73,2.3-1.035a26.17,26.17,0,0,0,5.019-2.794c.772-.519,1.473-1.146,2.193-1.74.814-.671,1.63-1.342,2.412-2.05a10.261,10.261,0,0,0,.983-1.136c.813-.991,1.63-1.981,2.425-2.988a5.137,5.137,0,0,0,.565-.951c.309-.637.605-1.281.878-1.934a20.492,20.492,0,0,0,1.113-2.86,22.188,22.188,0,0,0,.547-3.634c.163-2.1.229-4.213.34-6.32.009-.174.061-.345.078-.518.116-1.2.259-2.39.334-3.588.079-1.283.06-2.572.142-3.854.1-1.556.26-3.11.4-4.664a4.167,4.167,0,0,0,1.992-.837,3.711,3.711,0,0,0,1.5-2.329,9.431,9.431,0,0,0-.433-4.382,1.315,1.315,0,0,0-.659-.629,2.487,2.487,0,0,0-.825-.108c-.264-.779-.521-1.562-.8-2.336-.142-.4-.32-.783-.482-1.174a.576.576,0,0,1,.09-.178,1.334,1.334,0,0,0,.215-2.072c-.577-.846-1.112-1.721-1.706-2.555-.27-.379-.666-.666-.951-1.036a1.861,1.861,0,0,1-.458-.911c-.057-1.057-.022-2.119-.022-3.344.568.5,1.071.9,1.525,1.348.569.564,1.12,1.151,1.636,1.764.423.5.781,1.059,1.172,1.588a20.25,20.25,0,0,1,2.765,5.13c.466,1.279.858,2.579,1.2,3.906a26.2,26.2,0,0,1,.491,8.249c-.116,1.895-.362,3.781-.518,5.674-.088,1.069-.1,2.143-.163,3.214-.085,1.418-.188,2.835-.283,4.252-.062.108-.172.213-.178.323-.021.462-.012.926-.014,1.389-.118,2.081-.215,4.164-.363,6.242-.066.931-.214,1.858-.362,2.782a1.386,1.386,0,0,0,1.45,1.708c.14,0,.281,0,.421,0l-.7.338c-.3.844-.639,1.82-.989,2.792A2.009,2.009,0,0,1,1254.824,1273.786Z" transform="translate(-36.662 -19.39)" fill="#e8aa9c"/>
      <path id="Trazado_640477" data-name="Trazado 640477" d="M1208.862,1363.945c.074.113.212.225.213.339q.016,2.127-.01,4.255c0,.129-.12.255-.184.383Q1208.872,1366.433,1208.862,1363.945Z" transform="translate(-28.366 -98.186)" fill="#897069"/>
      <path id="Trazado_640478" data-name="Trazado 640478" d="M1326.506,1293.861q-.006-1.329-.012-2.658c.058.06.167.12.167.18.009.783,0,1.566-.007,2.348C1326.653,1293.776,1326.558,1293.818,1326.506,1293.861Z" transform="translate(-94.011 -57.592)" fill="#a6877f"/>
      <path id="Trazado_640479" data-name="Trazado 640479" d="M1229.48,1244.526c-.135,1.554-.3,3.107-.4,4.664-.082,1.282-.063,2.571-.142,3.854-.074,1.2-.218,2.392-.334,3.588-.017.174-.069.345-.078.518-.111,2.107-.177,4.217-.34,6.319a22.178,22.178,0,0,1-.547,3.634,20.492,20.492,0,0,1-1.113,2.86c-.272.653-.569,1.3-.878,1.934a5.13,5.13,0,0,1-.565.951c-.794,1.007-1.611,2-2.424,2.988a10.314,10.314,0,0,1-.983,1.136c-.782.708-1.6,1.378-2.412,2.05-.72.594-1.421,1.221-2.193,1.74a26.151,26.151,0,0,1-5.019,2.794c-.782.305-1.531.692-2.3,1.036a4.911,4.911,0,0,1-.759.3c-.781.2-1.565.4-2.356.562a15.82,15.82,0,0,1-3.905.324,29.468,29.468,0,0,1-2.7-1.414c-1.319-.864-2.6-1.791-3.833-2.779a24.886,24.886,0,0,1-2.951-2.717,27.426,27.426,0,0,1-2.691-3.528,21.245,21.245,0,0,1-1.477-3.095,18.964,18.964,0,0,1-.706-2.029,21.624,21.624,0,0,1-.576-4.928c-.138-2.15-.312-4.3-.47-6.447-.091-1.226-.174-2.452-.275-3.677-.175-2.126-.37-4.25-.54-6.376-.081-1.015-.121-2.033-.183-3.049-.076-1.241-.215-2.482-.218-3.722a21.279,21.279,0,0,1,.874-6.724c.458-1.4.9-2.811,1.458-4.176a15.177,15.177,0,0,1,1.265-2.2c.447-.723.884-1.457,1.4-2.13.689-.9,1.419-1.774,2.187-2.609.513-.557,1.121-1.027,1.8-1.636,0,1.28.03,2.388-.022,3.493-.012.268-.272.541-.455.782-.512.676-1.069,1.319-1.562,2.009a30.943,30.943,0,0,0-1.834,2.757,13.01,13.01,0,0,0-.9,2.258c-.382,1.136-.755,2.279-1.051,3.439a17.74,17.74,0,0,0-.29,2.124c-.04.534-.091,1.067-.109,1.6,0,.106.121.217.187.326a3.43,3.43,0,0,0,1.934,2.681,4.856,4.856,0,0,0,2.272.561c6.728.042,13.456.024,20.184.024q6.542,0,13.085,0C1227.517,1244.6,1228.5,1244.551,1229.48,1244.526Zm-16.178,11.234c-.051.1-.145.192-.146.288q0,3.73.012,7.461a2.206,2.206,0,0,1-2.11,1.9,1.3,1.3,0,0,0-1.408,1.2,1.325,1.325,0,0,0,1.063,1.529,4.236,4.236,0,0,0,3.145-.921,5.2,5.2,0,0,0,1.422-1.528,4.387,4.387,0,0,0,.64-1.861c.066-.144.189-.287.189-.43.01-2.654,0-5.309,0-7.963a3.537,3.537,0,0,1,.591-1.14,3.083,3.083,0,0,1,2.167-.757c1.623.046,3.248.015,4.873.013.706,0,1.413.01,2.118-.02a1.181,1.181,0,0,0,1.085-1.146c.029-.938-.519-1.48-1.538-1.483-2.26-.008-4.52,0-6.781,0a4.337,4.337,0,0,0-2.5.518,9.678,9.678,0,0,0-1.649,1.208,3.866,3.866,0,0,0-.828,1.442C1213.472,1254.6,1213.1,1255.129,1213.3,1255.759Zm-2.143,24.289c1.538-.268,3.213-.549,4.882-.859a7.039,7.039,0,0,0,1.492-.421c.98-.423,1.934-.91,2.9-1.367a1.349,1.349,0,0,0,.823-1.614c-.3-.888-.8-1.208-1.668-.93-.743.237-1.437.623-2.169.9a18.671,18.671,0,0,1-3.042,1.052,21.912,21.912,0,0,1-3.874.324,13.259,13.259,0,0,1-2.917-.313,17.384,17.384,0,0,1-2.611-.886c-.891-.349-1.74-.817-2.646-1.112a1.445,1.445,0,0,0-1.131.252,1.12,1.12,0,0,0-.5,1.384c.246.6.755.816,1.281,1.117a16.678,16.678,0,0,0,4.563,1.79C1208,1279.7,1209.5,1279.814,1211.159,1280.048Zm-9.36-26.505c1.838,0,3.677.013,5.515-.013a1.742,1.742,0,0,0,.952-.285,1.225,1.225,0,0,0,.274-1.594,1.167,1.167,0,0,0-1.169-.754q-5.488,0-10.976.006a1.175,1.175,0,0,0-.7.16,1.349,1.349,0,0,0-.545,1.739c.188.51.522.753,1.294.746C1198.228,1253.533,1200.014,1253.543,1201.8,1253.543Z" transform="translate(-15.674 -19.279)" fill="#fdcabd"/>
      <path id="Trazado_640480" data-name="Trazado 640480" d="M1209.387,1227.76c1.008-.156,1.349-.556,1.349-1.612q0-6.227,0-12.454v-.643c.647.214,1.232.45,1.838.6a6.983,6.983,0,0,0,1.6.2q11.156.019,22.311.009h.661c.012.17.031.3.031.439q0,9.777,0,19.555c0,.123-.013.246-.02.37h-26.4q-.01-.66-.021-1.321c-.016-1-.355-1.365-1.353-1.462Zm6.658-1.259c.143.064.286.183.43.184q7.482.015,14.965,0c.144,0,.287-.12.43-.184a1.793,1.793,0,0,0,1.6-1.666c-.031-1.872,0-3.745-.019-5.617a1.172,1.172,0,0,0-.174-.753,2.477,2.477,0,0,0-1.859-.917c-3.956.053-7.913.023-11.869.023-1.1,0-2.192.042-3.285-.009a2.008,2.008,0,0,0-1.807,1.731c.011,1.819-.049,3.641.022,5.457C1214.515,1225.746,1214.932,1226.253,1216.045,1226.5Zm7.957,3.51c-2.033,0-4.066-.012-6.1.01a3.281,3.281,0,0,0-1.106.236,1.348,1.348,0,0,0-.578,1.564,1.689,1.689,0,0,0,1.8,1.065q5.912.019,11.824,0a3.175,3.175,0,0,0,1.076-.175,1.527,1.527,0,0,0,.889-1.574,1.638,1.638,0,0,0-1.651-1.126Q1227.078,1230.009,1224,1230.011Z" transform="translate(-28.658 -13.98)" fill="#85efa6"/>
      <path id="Trazado_640481" data-name="Trazado 640481" d="M1229.819,1371.555a7.213,7.213,0,0,0,1.219,3.42,8.974,8.974,0,0,0,2.164,2.338,15.764,15.764,0,0,0,2.113,1.136c.628.324,1.261.638,2.027,1.025h-39.164l-.035-.068c.926-.431,1.869-.829,2.771-1.305a12.477,12.477,0,0,0,1.552-1.067,6.342,6.342,0,0,0,1.112-.928,13.936,13.936,0,0,0,1.1-1.608,9.335,9.335,0,0,0,.981-2.944,1.615,1.615,0,0,0,.187-.493c.021-.9.014-1.8.017-2.693.675.356,1.332.75,2.028,1.059,1.176.521,2.363,1.024,3.571,1.464.88.321,1.807.51,2.7.794a11.423,11.423,0,0,0,4.411.438,15.456,15.456,0,0,0,4.549-.963c1.023-.41,2.1-.693,3.116-1.111.734-.3,1.416-.729,2.121-1.1.418-.222.834-.447,1.251-.671.006.929,0,1.859.026,2.788A1.611,1.611,0,0,0,1229.819,1371.555Z" transform="translate(-22.384 -100.603)" fill="#fdcabd"/>
      <path id="Trazado_640482" data-name="Trazado 640482" d="M1238.83,1200.6h-.512q-11.213,0-22.425-.014a3.724,3.724,0,0,1-1.742-.339,3.1,3.1,0,0,1-1.181-4.528,3.43,3.43,0,0,1,3.034-1.489q11.133.018,22.266.006h.558v1.59h-22.982a1.429,1.429,0,0,0-1.528,1.134,1.327,1.327,0,0,0,1,1.6,5.591,5.591,0,0,0,.741.02h22.767Z" transform="translate(-30.341 -3.475)" fill="#f0f3f5"/>
      <path id="Trazado_640483" data-name="Trazado 640483" d="M1309.755,1289.612a7.027,7.027,0,0,1-.886,2.948c-.372.515-.552,1.177-.955,1.657a9.045,9.045,0,0,1-2.7,2.293,12.55,12.55,0,0,1-3.127,1.1,6.612,6.612,0,0,1-.658.073c.341-4.637.678-9.225,1.018-13.863.155-.014.305-.038.456-.039.866,0,1.733.019,2.6,0a4.1,4.1,0,0,1,3.642,1.91,7.065,7.065,0,0,1,.622,1.671Q1309.76,1288.486,1309.755,1289.612Z" transform="translate(-80.023 -53.449)" fill="#f7a48d"/>
      <path id="Trazado_640484" data-name="Trazado 640484" d="M1171.616,1283.794c.055.6.115,1.158.156,1.715q.219,2.931.426,5.863c.084,1.193.138,2.387.24,3.578.076.883.207,1.761.332,2.794a14.152,14.152,0,0,1-2.268-.548,20.108,20.108,0,0,1-2.673-1.443,6.974,6.974,0,0,1-1.816-1.867,8.3,8.3,0,0,1-1.466-3.173,7.343,7.343,0,0,1-.014-4.091,3.91,3.91,0,0,1,3.649-2.815C1169.307,1283.736,1170.442,1283.794,1171.616,1283.794Z" transform="translate(-3.469 -53.445)" fill="#e8aa9c"/>
      <path id="Trazado_640485" data-name="Trazado 640485" d="M1212.492,1260.959h26.4v2.293h-26.4Z" transform="translate(-30.392 -40.715)" fill="#7ede9a"/>
      <path id="Trazado_640486" data-name="Trazado 640486" d="M1281.405,1243.171c.162.391.34.776.482,1.174.276.775.532,1.557.8,2.336a1.4,1.4,0,0,0-1.038,1.553c.063.742.2,1.479.318,2.215a1.5,1.5,0,0,1-1.432,1.83c-.458.022-.919,0-1.379.005h-.526v-11.03a5.219,5.219,0,0,1,.69.981,1.98,1.98,0,0,0,1.2,1.087C1280.756,1243.419,1281.106,1243.23,1281.405,1243.171Z" transform="translate(-67.299 -29.719)" fill="#7eb1f6"/>
      <path id="Trazado_640487" data-name="Trazado 640487" d="M1203.5,1243.429q0,1.841,0,3.682c-.819.077-1.124.332-1.3,1.086a1.2,1.2,0,0,0-.185.373,4.544,4.544,0,0,0,0,.845c.031.363-.094.5-.473.488-.9-.025-1.8-.01-2.7-.011.163-.9.274-1.808.5-2.687a19.832,19.832,0,0,1,.988-3.018,22.749,22.749,0,0,1,1.755-3.058C1202.242,1242.13,1201.974,1243.337,1203.5,1243.429Z" transform="translate(-22.771 -29.649)" fill="#9bc3f8"/>
      <path id="Trazado_640488" data-name="Trazado 640488" d="M1198.71,1258.817c.9,0,1.8-.014,2.7.011.379.01.5-.126.473-.488a4.545,4.545,0,0,1,0-.845,1.2,1.2,0,0,1,.185-.373v3.989a5.9,5.9,0,0,1-2.935-.276,1.9,1.9,0,0,1-.517-1.347C1198.653,1259.264,1198.679,1259.04,1198.71,1258.817Z" transform="translate(-22.645 -38.573)" fill="#7dadf0"/>
      <path id="Trazado_640489" data-name="Trazado 640489" d="M1269.549,1371.555a1.611,1.611,0,0,1-.187-.49c-.023-.929-.02-1.859-.026-2.788.073.122.207.242.209.365C1269.561,1369.613,1269.551,1370.584,1269.549,1371.555Z" transform="translate(-62.114 -100.603)" fill="#a6877f"/>
      <path id="Trazado_640490" data-name="Trazado 640490" d="M1215.34,1368.484c0,.9,0,1.8-.017,2.693a1.617,1.617,0,0,1-.187.493c0-.954-.01-1.908,0-2.861C1215.142,1368.7,1215.27,1368.592,1215.34,1368.484Z" transform="translate(-31.865 -100.719)" fill="#a6877f"/>
      <path id="Trazado_640491" data-name="Trazado 640491" d="M1320.269,1294.136q.005-1.125.01-2.25c.059.095.168.189.17.286.012.579.007,1.159-.011,1.738C1320.437,1293.988,1320.328,1294.061,1320.269,1294.136Z" transform="translate(-90.537 -57.974)" fill="#897069"/>
      <path id="Trazado_640492" data-name="Trazado 640492" d="M1192.539,1262.628c-.066-.109-.19-.219-.187-.326.018-.534.069-1.068.109-1.6Z" transform="translate(-19.153 -40.571)" fill="#897069"/>
      <path id="Trazado_640493" data-name="Trazado 640493" d="M1295.779,1303.934c0-.463-.008-.927.014-1.389.005-.111.116-.216.178-.323,0,.457,0,.916-.019,1.372C1295.946,1303.71,1295.839,1303.821,1295.779,1303.934Z" transform="translate(-76.87 -63.742)" fill="#897069"/>
      <path id="Trazado_640494" data-name="Trazado 640494" d="M1245.627,1299.61a4.381,4.381,0,0,1-.64,1.861,5.2,5.2,0,0,1-1.421,1.528,4.237,4.237,0,0,1-3.145.921,1.325,1.325,0,0,1-1.063-1.529,1.3,1.3,0,0,1,1.408-1.2,2.206,2.206,0,0,0,2.109-1.9,1.518,1.518,0,0,0,.183-.483c.012-2.321.01-4.642.007-6.963a1.687,1.687,0,0,0-.057-.3c-.205-.631.17-1.16.354-1.7a3.866,3.866,0,0,1,.828-1.442,9.676,9.676,0,0,1,1.649-1.208,4.337,4.337,0,0,1,2.5-.518c2.26,0,4.52,0,6.78,0,1.019,0,1.567.545,1.538,1.483a1.181,1.181,0,0,1-1.084,1.146c-.7.03-1.412.019-2.118.02-1.625,0-3.25.033-4.873-.013a3.083,3.083,0,0,0-2.167.757,3.536,3.536,0,0,0-.591,1.14c-.065.145-.188.289-.188.435C1245.621,1294.3,1245.626,1296.957,1245.627,1299.61Z" transform="translate(-45.381 -55.068)" fill="#242423"/>
      <path id="Trazado_640495" data-name="Trazado 640495" d="M1229.459,1345.979c-1.657-.234-3.163-.346-4.616-.68a16.677,16.677,0,0,1-4.563-1.79c-.525-.3-1.034-.52-1.281-1.117a1.12,1.12,0,0,1,.5-1.384,1.445,1.445,0,0,1,1.131-.252c.906.3,1.755.763,2.646,1.112a17.385,17.385,0,0,0,2.611.886,13.274,13.274,0,0,0,2.917.313,21.938,21.938,0,0,0,3.874-.324,18.673,18.673,0,0,0,3.042-1.052c.731-.278,1.426-.664,2.169-.9.867-.278,1.367.042,1.668.93a1.349,1.349,0,0,1-.823,1.614c-.967.457-1.92.944-2.9,1.366a7.034,7.034,0,0,1-1.492.421C1232.672,1345.43,1231,1345.71,1229.459,1345.979Z" transform="translate(-33.974 -85.209)" fill="#242423"/>
      <path id="Trazado_640496" data-name="Trazado 640496" d="M1213.044,1289.34c-1.785,0-3.571-.01-5.356.005-.772.007-1.106-.236-1.294-.746a1.349,1.349,0,0,1,.546-1.739,1.175,1.175,0,0,1,.7-.16q5.488-.014,10.976-.006a1.167,1.167,0,0,1,1.169.754,1.226,1.226,0,0,1-.274,1.594,1.743,1.743,0,0,1-.952.285C1216.72,1289.353,1214.882,1289.34,1213.044,1289.34Z" transform="translate(-26.919 -55.076)" fill="#242423"/>
      <path id="Trazado_640497" data-name="Trazado 640497" d="M1253.548,1305.339c0-2.653-.006-5.306,0-7.959,0-.146.123-.29.188-.435,0,2.654.007,5.309,0,7.963C1253.738,1305.052,1253.614,1305.2,1253.548,1305.339Z" transform="translate(-53.302 -60.797)" fill="#a6877f"/>
      <path id="Trazado_640498" data-name="Trazado 640498" d="M1247.443,1297.7a1.676,1.676,0,0,1,.057.3c0,2.321.005,4.642-.007,6.963a1.521,1.521,0,0,1-.183.483c-.006-2.487-.014-4.974-.011-7.461C1247.3,1297.888,1247.392,1297.792,1247.443,1297.7Z" transform="translate(-49.815 -61.216)" fill="#897069"/>
      <path id="Trazado_640499" data-name="Trazado 640499" d="M1222.43,1232.18c-1.113-.249-1.53-.756-1.569-1.75-.071-1.817-.011-3.638-.022-5.457a2.008,2.008,0,0,1,1.807-1.732c1.093.051,2.19.009,3.285.009,3.956,0,7.913.029,11.869-.023a2.476,2.476,0,0,1,1.858.917,1.174,1.174,0,0,1,.174.754c.014,1.872-.012,3.745.019,5.617a1.792,1.792,0,0,1-1.6,1.666q-5.8-.01-11.592-.018C1225.252,1232.161,1223.841,1232.173,1222.43,1232.18Zm1.183-2.774h13.567v-3.37h-13.567Z" transform="translate(-35.042 -19.658)" fill="#242423"/>
      <path id="Trazado_640500" data-name="Trazado 640500" d="M1232.554,1251.422q3.075,0,6.151,0a1.638,1.638,0,0,1,1.651,1.126,1.527,1.527,0,0,1-.889,1.574,3.179,3.179,0,0,1-1.076.175q-5.912.017-11.824,0a1.69,1.69,0,0,1-1.8-1.065,1.349,1.349,0,0,1,.578-1.564,3.285,3.285,0,0,1,1.106-.236C1228.489,1251.41,1230.522,1251.422,1232.554,1251.422Z" transform="translate(-37.209 -35.391)" fill="#252825"/>
      <path id="Trazado_640501" data-name="Trazado 640501" d="M1224.456,1243.462c1.411-.006,2.822-.018,4.234-.018q5.8,0,11.592.018c-.143.064-.286.184-.43.184q-7.482.015-14.965,0C1224.742,1243.646,1224.6,1243.526,1224.456,1243.462Z" transform="translate(-37.068 -30.941)" fill="#5ea072"/>
      <path id="Trazado_640502" data-name="Trazado 640502" d="M1227.133,1232.953v-3.37H1240.7v3.37Z" transform="translate(-38.562 -23.205)" fill="#f0f3f5"/>
    </g>
  </g>
</svg>
