<svg xmlns="http://www.w3.org/2000/svg" width="101" height="101" viewBox="0 0 101 101">
  <g id="Grupo_909125" data-name="Grupo 909125" transform="translate(-750 -1413)">
    <circle id="Elipse_1145" data-name="Elipse 1145" cx="50.5" cy="50.5" r="50.5" transform="translate(750 1413)" fill="#179587"/>
    <path id="Trazado_640447" data-name="Trazado 640447" d="M260.371,1155.039c0-.989-.006-1.962,0-2.935a5.078,5.078,0,0,1,5.228-5.2c1.967-.009,3.934,0,5.894,0,.4-2.193,1.438-3.05,3.659-3.05q8.735,0,17.469,0a3.093,3.093,0,0,1,3.346,3.051c2.044,0,4.094-.016,6.144,0a4.989,4.989,0,0,1,4.7,3.355,5.664,5.664,0,0,1,.308,1.8q.024,24.841.008,49.682a5.047,5.047,0,0,1-5.164,5.133q-18.2.014-36.4,0a5.065,5.065,0,0,1-5.187-5.239q-.013-8.2,0-16.391v-.6l-.1-.021-3.567,6.535c-.132.241-.272.478-.392.724a1.108,1.108,0,0,1-1.069.753c-.537-.023-.8-.38-.986-.851-.53-1.356-1.08-2.7-1.641-4.1l-4.311.7c-.271.044-.545.079-.813.139a.915.915,0,0,1-1.146-.431,1.525,1.525,0,0,1,.03-1.165c.83-1.5,1.74-2.947,2.621-4.413l2.95-4.909c-3.655-4.07-4.831-8.733-2.892-13.9C250.981,1158.564,254.9,1155.794,260.371,1155.039Zm4.554-6.009a2.943,2.943,0,0,0-2.5,2.645c-.061,1.012-.031,2.03,0,3.045a.554.554,0,0,0,.34.4c.531.112,1.075.157,1.676.235-.023-1.2-.107-2.4.76-3.374a3.378,3.378,0,0,1,2.689-1.023c.779.036,1.562.007,2.343.007h1.285v-2.029c-2.079,0-4.122,0-6.165,0A2.135,2.135,0,0,0,264.925,1149.03Zm28.964,2.953c.007-1.608.019-3.217.02-4.826,0-.909-.359-1.265-1.269-1.266q-3.779-.005-7.558,0-4.731.007-9.461.021c-.169-.007-.338-.02-.506-.021-1.252-.005-1.525.267-1.525,1.52q0,2.572,0,5.145c0,1.167.292,1.458,1.461,1.458h17.021c1.695,0,1.884-.2,1.837-1.906A1,1,0,0,0,293.889,1151.983Zm11.186,43.582c.006-.063.017-.126.017-.189q0-21.693,0-43.386a3.028,3.028,0,0,0-3.08-3.05c-1.186-.012-2.371,0-3.557,0H296v2.031c1.212,0,2.379.065,3.537-.014a3.283,3.283,0,0,1,3.554,3.514c-.05,13.3-.026,26.594-.025,39.892,0,.275.011.55.016.825q-.009,2.191-.017,4.381a3.073,3.073,0,0,1-3.27,3.249q-16.035,0-32.07,0a3.075,3.075,0,0,1-3.287-3.294q0-5.4,0-10.8a1.429,1.429,0,0,0-.057-.623c-.609-1.168-1.247-2.321-1.875-3.478l-.1.038v.625q0,8.066,0,16.132a3.1,3.1,0,0,0,3.407,3.428h35.88c.191,0,.381.005.571-.006a3.062,3.062,0,0,0,2.816-2.862C305.114,1199.841,305.08,1197.7,305.075,1195.564ZM271.53,1153c-1.38,0-2.713-.014-4.044.007a.978.978,0,0,0-1.009,1.007c-.023.422.026.85-.014,1.27a.946.946,0,0,0,.655,1.092,13.247,13.247,0,0,1,3.716,21.189c.068.124.115.219.169.309q2.679,4.456,5.361,8.91a1.107,1.107,0,0,1,.073,1.353,1.146,1.146,0,0,1-1.25.375c-1.662-.292-3.331-.546-5.024-.819-.566,1.42-1.111,2.814-1.678,4.2a1.007,1.007,0,0,1-1.473.625,4.487,4.487,0,0,1-.537-.427c0,2.451,0,4.843,0,7.236,0,1.159.295,1.449,1.471,1.449h31.569c1.241,0,1.509-.274,1.51-1.538q0-22.329,0-44.659a5.424,5.424,0,0,0-.009-.635.925.925,0,0,0-.889-.92c-1.389-.041-2.78-.014-4.162-.014a3.1,3.1,0,0,1-3.363,3.041q-8.861,0-17.722,0A3.1,3.1,0,0,1,271.53,1153Zm-10.082,4.063a11.268,11.268,0,0,0-11.242,11.22,11.182,11.182,0,1,0,11.242-11.22Zm-12.284,29.118c1.186-.19,2.267-.37,3.35-.537,1.315-.2,1.415-.138,1.922,1.121.317.787.639,1.572,1,2.466l4.3-7.886a13.729,13.729,0,0,1-6.194-2.454Zm24.45,0-4.374-7.273a13.274,13.274,0,0,1-6.189,2.458l4.287,7.867c.41-1.011.776-1.924,1.149-2.833a1.1,1.1,0,0,1,1.474-.818C271.145,1185.785,272.331,1185.974,273.614,1186.184Z" transform="translate(519.582 285.875)" fill="#040301"/>
    <path id="Trazado_640448" data-name="Trazado 640448" d="M370.413,1197.761a3.1,3.1,0,0,0,3.353,3.047q8.861,0,17.722,0a3.1,3.1,0,0,0,3.363-3.041c1.382,0,2.773-.027,4.162.014a.925.925,0,0,1,.889.92,5.416,5.416,0,0,1,.01.635q0,22.33,0,44.659c0,1.265-.268,1.538-1.51,1.538H366.829c-1.176,0-1.471-.29-1.471-1.449,0-2.392,0-4.785,0-7.236a4.472,4.472,0,0,0,.537.427,1.007,1.007,0,0,0,1.473-.625c.567-1.385,1.112-2.779,1.678-4.2,1.693.273,3.361.527,5.024.819a1.146,1.146,0,0,0,1.25-.375,1.107,1.107,0,0,0-.073-1.353q-2.686-4.451-5.361-8.91c-.054-.09-.1-.184-.169-.309A13.246,13.246,0,0,0,366,1201.136a.946.946,0,0,1-.655-1.092c.041-.42-.008-.847.014-1.27a.978.978,0,0,1,1.009-1.007C367.7,1197.747,369.033,1197.761,370.413,1197.761Zm27.441,11.153v-1.96H384.691v1.96Zm.009,1.081H384.7v1.958h13.158Zm0,7.115H384.7v1.961h13.16Zm-13.158,3.03v1.978H397.84v-1.978Zm-.024,9.1h13.159v-1.958H384.682Zm0,3.05h13.159v-1.958H384.682Zm13.178,5.151H384.694v1.962h13.166Zm-13.164,3.03v2h13.141v-2Zm-8.955-30.874c.576.691,1.106,1.348,1.66,1.984a.943.943,0,0,0,1.5.144c1.2-1.355,2.342-2.756,3.522-4.156l-1.582-1.32-2.6,3.107-.934-1.062Zm2.5,9.931-.926-1.074-1.565,1.314c.562.675,1.081,1.316,1.62,1.939a1,1,0,0,0,1.679.046c1.129-1.313,2.226-2.653,3.369-4.021l-1.578-1.318Zm-.92,9.077-1.577,1.331c.582.7,1.111,1.356,1.667,1.99a.964.964,0,0,0,1.545.092c1.172-1.346,2.3-2.73,3.464-4.121l-1.578-1.316-2.608,3.107Zm-1.581,11.49c.583.7,1.12,1.375,1.691,2.02a.975.975,0,0,0,1.592,0c1.142-1.324,2.25-2.677,3.4-4.056l-1.587-1.323-2.6,3.108-.93-1.066Z" transform="translate(420.698 241.118)" fill="#e7e3d7"/>
    <path id="Trazado_640449" data-name="Trazado 640449" d="M384.152,1395.045c.005,2.138.039,4.276.005,6.414a3.062,3.062,0,0,1-2.816,2.862c-.19.012-.381.006-.571.006H344.89a3.1,3.1,0,0,1-3.407-3.428q0-8.066,0-16.132v-.625l.1-.039c.629,1.158,1.266,2.31,1.875,3.478a1.428,1.428,0,0,1,.057.623q0,5.4,0,10.8a3.074,3.074,0,0,0,3.287,3.294q16.035,0,32.07,0a3.073,3.073,0,0,0,3.27-3.249q.008-2.191.017-4.381Z" transform="translate(440.505 86.396)" fill="#943528"/>
    <path id="Trazado_640450" data-name="Trazado 640450" d="M419.356,1155.875q4.731-.011,9.461-.021,3.779-.005,7.558,0c.91,0,1.269.357,1.269,1.266,0,1.608-.013,3.217-.02,4.826q-8.056,0-16.112,0a2.015,2.015,0,0,1-2.151-2.134C419.355,1158.5,419.357,1157.187,419.356,1155.875Z" transform="translate(375.846 275.911)" fill="#fefefe"/>
    <path id="Trazado_640451" data-name="Trazado 640451" d="M548.509,1220.426l-1.994-.38c-.006-.275-.016-.55-.016-.825,0-13.3-.025-26.595.025-39.892a3.283,3.283,0,0,0-3.554-3.514c-1.158.079-2.325.014-3.537.014V1173.8h2.454c1.186,0,2.371-.01,3.557,0a3.028,3.028,0,0,1,3.08,3.05q.011,21.693,0,43.386C548.526,1220.3,548.515,1220.363,548.509,1220.426Z" transform="translate(276.147 261.014)" fill="#c54635"/>
    <path id="Trazado_640452" data-name="Trazado 640452" d="M280.838,1221.729a11.229,11.229,0,0,1,11.121,11.261,11.182,11.182,0,0,1-22.363-.041A11.268,11.268,0,0,1,280.838,1221.729Zm10.1,11.2a10.163,10.163,0,1,0-10.194,10.151A10.182,10.182,0,0,0,290.941,1232.925Z" transform="translate(500.191 221.214)" fill="#f7bc37"/>
    <path id="Trazado_640453" data-name="Trazado 640453" d="M409.416,1155.888c0,1.311,0,2.622,0,3.933a2.015,2.015,0,0,0,2.152,2.134q8.056.005,16.112,0a1,1,0,0,1,.019.125c.047,1.71-.142,1.906-1.837,1.906H408.845c-1.169,0-1.46-.292-1.461-1.459q0-2.572,0-5.145c0-1.253.273-1.525,1.525-1.52C409.078,1155.867,409.247,1155.88,409.416,1155.888Z" transform="translate(385.787 275.899)" fill="#e7e3d7"/>
    <path id="Trazado_640454" data-name="Trazado 640454" d="M263.457,1357.643l4.379-7.29a13.73,13.73,0,0,0,6.194,2.454l-4.3,7.886c-.364-.894-.687-1.678-1-2.466-.506-1.259-.606-1.323-1.922-1.121C265.724,1357.273,264.643,1357.453,263.457,1357.643Z" transform="translate(505.289 114.418)" fill="#538ef2"/>
    <path id="Trazado_640455" data-name="Trazado 640455" d="M355.85,1357.716c-1.283-.209-2.469-.4-3.653-.6a1.1,1.1,0,0,0-1.474.818c-.373.909-.739,1.822-1.149,2.833l-4.287-7.867a13.274,13.274,0,0,0,6.189-2.458Z" transform="translate(437.346 114.343)" fill="#7fb2f9"/>
    <path id="Trazado_640456" data-name="Trazado 640456" d="M356.329,1173.917a2.118,2.118,0,0,1,.424-.088c2.043-.006,4.086,0,6.165,0v2.029h-1.285c-.781,0-1.563.029-2.343-.007a3.379,3.379,0,0,0-2.689,1.023,1.794,1.794,0,0,1-.122-.4C356.422,1175.621,356.378,1174.769,356.329,1173.917Z" transform="translate(428.177 260.988)" fill="#c44535"/>
    <path id="Trazado_640457" data-name="Trazado 640457" d="M343.928,1174.367c.049.852.093,1.7.15,2.555a1.8,1.8,0,0,0,.122.4c-.867.973-.783,2.179-.76,3.374-.6-.078-1.145-.123-1.676-.235a.555.555,0,0,1-.34-.4c-.027-1.015-.057-2.033,0-3.045A2.943,2.943,0,0,1,343.928,1174.367Z" transform="translate(440.578 260.539)" fill="#933428"/>
    <path id="Trazado_640458" data-name="Trazado 640458" d="M492.55,1253.918H479.387v-1.96H492.55Z" transform="translate(326.003 196.115)"/>
    <path id="Trazado_640459" data-name="Trazado 640459" d="M492.626,1269.877v1.958H479.468v-1.958Z" transform="translate(325.936 181.237)"/>
    <path id="Trazado_640460" data-name="Trazado 640460" d="M492.619,1311.8v1.961h-13.16V1311.8Z" transform="translate(325.943 146.428)"/>
    <path id="Trazado_640461" data-name="Trazado 640461" d="M479.474,1329.655h13.134v1.978H479.474Z" transform="translate(325.931 131.604)"/>
    <path id="Trazado_640462" data-name="Trazado 640462" d="M479.334,1373.67v-1.958h13.159v1.958Z" transform="translate(326.047 96.684)"/>
    <path id="Trazado_640463" data-name="Trazado 640463" d="M479.335,1391.642v-1.958h13.159v1.958Z" transform="translate(326.046 81.762)"/>
    <path id="Trazado_640464" data-name="Trazado 640464" d="M492.572,1431.577v1.962H479.406v-1.962Z" transform="translate(325.987 46.978)"/>
    <path id="Trazado_640465" data-name="Trazado 640465" d="M479.419,1449.428H492.56v2H479.419Z" transform="translate(325.976 32.156)"/>
    <path id="Trazado_640466" data-name="Trazado 640466" d="M426.648,1251.115l1.563-1.3.934,1.062,2.6-3.107,1.582,1.32c-1.18,1.4-2.325,2.8-3.522,4.156a.943.943,0,0,1-1.5-.144C427.754,1252.463,427.224,1251.806,426.648,1251.115Z" transform="translate(369.792 199.595)" fill="#040301"/>
    <path id="Trazado_640467" data-name="Trazado 640467" d="M429.164,1310.783l2.6-3.114,1.578,1.318c-1.143,1.368-2.24,2.709-3.369,4.021a1,1,0,0,1-1.679-.046c-.539-.624-1.058-1.264-1.62-1.94l1.565-1.315Z" transform="translate(369.771 149.858)" fill="#040301"/>
    <path id="Trazado_640468" data-name="Trazado 640468" d="M428.216,1369.614l.913,1.085,2.608-3.107,1.578,1.316c-1.164,1.391-2.291,2.775-3.464,4.121a.964.964,0,0,1-1.545-.092c-.556-.634-1.085-1.292-1.667-1.99Z" transform="translate(369.799 100.104)" fill="#040301"/>
    <path id="Trazado_640469" data-name="Trazado 640469" d="M426.618,1430.8l1.57-1.313.93,1.066,2.6-3.108,1.587,1.323c-1.153,1.379-2.261,2.732-3.4,4.056a.975.975,0,0,1-1.592,0C427.738,1432.172,427.2,1431.5,426.618,1430.8Z" transform="translate(369.817 50.412)" fill="#040301"/>
    <path id="Trazado_640470" data-name="Trazado 640470" d="M295.924,1237.908a10.163,10.163,0,1,1-10.165-10.178A10.187,10.187,0,0,1,295.924,1237.908Zm-10.185,8.119a8.132,8.132,0,1,0-8.109-8.139A8.155,8.155,0,0,0,285.739,1246.026Z" transform="translate(495.208 216.231)" fill="#040301"/>
    <path id="Trazado_640471" data-name="Trazado 640471" d="M295.683,1255.971a8.132,8.132,0,1,1,8.153-8.095A8.157,8.157,0,0,1,295.683,1255.971Zm-4.954-8.691c.643,1.287,1.253,2.512,1.868,3.736.546,1.087,1.2,1.193,2.061.332q3.231-3.226,6.457-6.458c.128-.128.24-.271.329-.372l-1.408-1.5-6.1,6.1-1.392-2.75Z" transform="translate(485.265 206.286)" fill="#fcd35c"/>
    <path id="Trazado_640472" data-name="Trazado 640472" d="M306.166,1263.476l1.816-.907,1.392,2.75,6.1-6.1,1.408,1.5c-.088.1-.2.244-.329.372q-3.227,3.231-6.457,6.458c-.862.861-1.515.755-2.061-.332C307.419,1265.989,306.809,1264.763,306.166,1263.476Z" transform="translate(469.828 190.09)" fill="#040301"/>
  </g>
</svg>
