<svg xmlns="http://www.w3.org/2000/svg" width="189.433" height="189.433" viewBox="0 0 189.433 189.433">
  <g id="Grupo_909130" data-name="Grupo 909130" transform="translate(-1057 -6090.203)">
    <circle id="Elipse_7428" data-name="Elipse 7428" cx="94.716" cy="94.716" r="94.716" transform="translate(1057 6090.203)" fill="#179587"/>
    <g id="Grupo_906972" data-name="Grupo 906972" transform="translate(-393.739 6414.391)">
      <path id="Trazado_641007" data-name="Trazado 641007" d="M1576.787-291.942a1.087,1.087,0,0,0,.009-.138h5.981a1.069,1.069,0,0,0,.009.137Z" transform="translate(-29.014)" fill="#fef4c8"/>
      <path id="Trazado_641008" data-name="Trazado 641008" d="M1520.688-178.24a13.591,13.591,0,0,1,.651-2.056c.518-1.051,1.183-2.028,1.741-3.061.873-1.616,2.388-2.514,3.834-3.484a8.8,8.8,0,0,1,4.924-1.486c4.694-.032,9.389-.043,14.083,0a9.791,9.791,0,0,1,6.431,2.327,13.079,13.079,0,0,1,2.023,1.767,10.153,10.153,0,0,1,2.337,4.01,1.151,1.151,0,0,0,1.338,1.035c5.822-.035,11.645-.052,17.467.012a6.419,6.419,0,0,1,3.234.7c1.32.835,2.884,1.682,2.911,3.882.656-.618,1.141-1.053,1.6-1.514,1.643-1.647,3.272-3.307,4.915-4.954q3.393-3.4,6.8-6.8c2.176-2.171,4.339-4.355,6.542-6.5a11.439,11.439,0,0,1,4.324-2.441,11.483,11.483,0,0,1,6.111-.324,10.906,10.906,0,0,1,6.385,3.52c-1.692,1.615-3.417,3.211-5.086,4.865-1.928,1.91-3.795,3.881-5.711,5.8-1.24,1.243-2.537,2.43-3.778,3.672-1.424,1.424-2.795,2.9-4.225,4.319-1.887,1.872-3.831,3.688-5.713,5.566-2.436,2.432-4.829,4.907-7.25,7.354q-3.658,3.7-7.337,7.371c-1.931,1.941-3.878,3.868-5.781,5.836a1.888,1.888,0,0,1-1.5.622q-25.65-.017-51.3,0a2.527,2.527,0,0,1-.23-.721c-.016-3.114-.054-6.229,0-9.343C1520.543-164.926,1520.111-171.59,1520.688-178.24Zm21.47,11.456h1.061c10.569,0,21.14-.018,31.709.021a8.08,8.08,0,0,0,4.16-.971,5.272,5.272,0,0,0,1.922-1.984h-38.852Z" transform="translate(-9.599 -32.591)" fill="#fed9aa"/>
      <path id="Trazado_641009" data-name="Trazado 641009" d="M1562.265-291.87h6c1.947.4,3.9.763,5.836,1.226,1.013.243,1.971.7,2.972,1a21.944,21.944,0,0,1,5.278,2.75,27.453,27.453,0,0,1,5.746,4.859c.866.958,1.606,2.031,2.4,3.052a2.547,2.547,0,0,0-.7.4c-.83.936-1.614,1.912-2.436,2.856-1.27,1.459-2.493,2.968-3.855,4.337-2.164,2.179-4.416,4.271-6.651,6.378-.629.593-1.331,1.106-2,1.657-.153-.031-.306-.058-.458-.1a17.7,17.7,0,0,0-3.477-.808c-3.51-.108-7.025-.037-10.538-.041-.3,0-.6-.026-.878-.039v-6.026a1.8,1.8,0,0,1,.3-.061c3.749,0,7.5,0,11.247-.015.534,0,.677.236.664.719-.021.776-.006,1.553-.006,2.366h6.137c0-1.011.043-1.976-.01-2.935a6.861,6.861,0,0,0-1.526-4.149,6.605,6.605,0,0,0-5.151-2.125c-.828-.035-1.659-.006-2.579-.006v-.95c0-1.547-.019-3.094.01-4.64.01-.55-.17-.725-.721-.714-1.546.032-3.093.02-4.64.007-.651-.005-.956.27-.949.938.016,1.494.007,2.988,0,4.483,0,.275-.029.552-.047.877-.9,0-1.715,0-2.525,0a6.277,6.277,0,0,0-3.642.919,6.373,6.373,0,0,0-2.934,5.507c.037,1.835.033,3.671,0,5.505a6.433,6.433,0,0,0,1.273,4.1,5.832,5.832,0,0,0,4.791,2.518c2.961.053,5.924.029,8.885.037-.607.413-1.215.824-1.819,1.239-1.09.749-2.161,1.527-3.272,2.243-1.161.748-2.36,1.438-3.543,2.152,0-.6-.049-1.2,0-1.8.048-.612-.2-.751-.769-.74-1.593.031-3.188.044-4.78,0-.66-.02-.765.236-.772.816a14.559,14.559,0,0,0,.511,4.861,1.716,1.716,0,0,1-.353.351c-1.7.894-3.387,1.814-5.115,2.649-2.076,1-4.188,1.93-6.282,2.894-.426.2-.965.274-1.02.9-.489-.665-1.019-1.3-1.458-2a30.679,30.679,0,0,1-3.554-7.792,27.639,27.639,0,0,1-1.141-6.733c.005-.759.029-1.519.01-2.278-.017-.667-.082-1.332-.125-2,.25-1.564.42-3.147.776-4.686a40.643,40.643,0,0,1,1.308-4.185,27.515,27.515,0,0,1,1.245-3.061,27.689,27.689,0,0,1,1.616-2.771,27.68,27.68,0,0,1,4.812-5.725,35.752,35.752,0,0,1,3.791-2.952,48.705,48.705,0,0,1,4.457-2.634,14.434,14.434,0,0,1,2.936-1.157c1.991-.541,4.012-.973,6.022-1.439A3.929,3.929,0,0,1,1562.265-291.87ZM1550-258.038c0-2.009.012-3.939-.027-5.869,0-.134-.384-.367-.594-.373-1.308-.035-2.617-.018-3.926-.018h-1.519v6.26Z" transform="translate(-14.492 -0.072)" fill="#fedd55"/>
      <path id="Trazado_641010" data-name="Trazado 641010" d="M1578.144-256.593c.668-.55,1.371-1.064,2-1.657,2.236-2.106,4.488-4.2,6.651-6.378,1.361-1.37,2.584-2.878,3.855-4.337.822-.944,1.606-1.92,2.436-2.856a2.544,2.544,0,0,1,.7-.4,20.811,20.811,0,0,1,1.395,2.015c.837,1.556,1.634,3.136,2.366,4.743a16.131,16.131,0,0,1,.751,2.415c.294,1.068.612,2.134.815,3.22.172.921.19,1.872.288,2.807.075.718.228,1.434.234,2.152.006.663-.155,1.326-.212,1.992a32.872,32.872,0,0,1-.369,4.294,40.607,40.607,0,0,1-1.7,5.534,26.611,26.611,0,0,1-2.088,4.391,31.655,31.655,0,0,1-3.268,4.547,34.617,34.617,0,0,1-4.43,4.252,36.223,36.223,0,0,1-4.686,2.955,24.824,24.824,0,0,1-3.565,1.687,26.877,26.877,0,0,1-3.671,1.013,25.976,25.976,0,0,1-7.2.779,45.647,45.647,0,0,1-6.447-.685,28.61,28.61,0,0,1-7.347-2.716,27.728,27.728,0,0,1-7.517-5.492c-1.025-1.085-1.991-2.226-2.983-3.341.055-.622.594-.7,1.02-.9,2.094-.964,4.206-1.891,6.282-2.894,1.728-.835,3.415-1.756,5.115-2.649a1.716,1.716,0,0,0,.353-.351,1.465,1.465,0,0,1,.3.3,5.042,5.042,0,0,0,3.006,2.7,15.693,15.693,0,0,0,2.821.464c.817.075,1.647.015,2.559.015v6.234h6.268v-6.234c1.025,0,1.961-.012,2.9,0a6.2,6.2,0,0,0,2.858-.592,5.656,5.656,0,0,0,3.306-4.6,51.174,51.174,0,0,0,.169-6.739,6.689,6.689,0,0,0-2.038-4.955C1578.789-256.124,1578.455-256.347,1578.144-256.593Zm12.052,5.319v-6.189h-6v6.189Z" transform="translate(-17.782 -6.835)" fill="#fed323"/>
      <path id="Trazado_641011" data-name="Trazado 641011" d="M1511.089-175.218c-.577,6.65-.145,13.315-.259,19.972-.053,3.114-.014,6.229,0,9.343a2.527,2.527,0,0,0,.23.721c0,1.991,0,3.982,0,6.052H1492.54c-.012-.256-.033-.511-.033-.766q0-23.844-.015-47.687c0-.75.129-1.034.979-1.027,5.482.045,10.964.036,16.447.009.91,0,1.156.225,1.152,1.188C1511.05-183.349,1511.078-179.283,1511.089-175.218Zm-12.433-3.937v6.031h6.073v-6.031Z" transform="translate(0 -35.614)" fill="#3699d6"/>
      <path id="Trazado_641012" data-name="Trazado 641012" d="M1534.531-248.185c.043.666.108,1.331.125,2,.019.759,0,1.518-.01,2.278-.083-.056-.237-.115-.237-.169C1534.441-245.448,1534.487-246.816,1534.531-248.185Z" transform="translate(-14.428 -15.109)" fill="#fef2c0"/>
      <path id="Trazado_641013" data-name="Trazado 641013" d="M1553.588-152.26v-2.934h38.852a5.272,5.272,0,0,1-1.921,1.984,8.081,8.081,0,0,1-4.16.971c-10.57-.039-21.14-.021-31.709-.021Z" transform="translate(-21.029 -47.116)" fill="#fec377"/>
      <path id="Trazado_641014" data-name="Trazado 641014" d="M1584.575-258.635c.311.246.645.469.931.742a6.689,6.689,0,0,1,2.038,4.955,51.174,51.174,0,0,1-.169,6.739,5.655,5.655,0,0,1-3.306,4.6,6.2,6.2,0,0,1-2.858.592c-.936-.016-1.872,0-2.9,0v6.234h-6.268v-6.234c-.912,0-1.742.06-2.559-.015a15.69,15.69,0,0,1-2.821-.464,5.042,5.042,0,0,1-3.006-2.7,1.465,1.465,0,0,0-.3-.3,14.559,14.559,0,0,1-.511-4.861c.007-.58.112-.837.772-.816,1.592.049,3.187.036,4.78,0,.564-.011.816.128.769.74-.047.6,0,1.2,0,1.8-.065.643.418.471.741.471q5.373.013,10.745,0c.228,0,.454-.031.768-.054,0-1.9.016-3.745-.028-5.593,0-.167-.393-.454-.614-.464-.991-.044-1.985-.007-2.979,0-2.962-.009-5.925.016-8.885-.037a5.832,5.832,0,0,1-4.791-2.518,6.433,6.433,0,0,1-1.273-4.1c.033-1.835.037-3.671,0-5.505a6.373,6.373,0,0,1,2.934-5.507,6.277,6.277,0,0,1,3.642-.919c.81,0,1.62,0,2.525,0,.018-.325.047-.6.047-.877,0-1.495.014-2.989,0-4.483-.007-.668.3-.943.949-.938,1.546.012,3.094.025,4.64-.007.55-.011.731.164.721.714-.029,1.546-.01,3.093-.01,4.64v.95c.92,0,1.751-.03,2.579.006a6.606,6.606,0,0,1,5.151,2.125,6.861,6.861,0,0,1,1.526,4.149c.053.959.01,1.925.01,2.935h-6.137c0-.813-.016-1.59.006-2.366.014-.483-.13-.721-.664-.719-3.749.015-7.5.01-11.247.015a1.8,1.8,0,0,0-.3.061v6.026c.276.013.577.039.878.039,3.513,0,7.028-.067,10.538.041a17.7,17.7,0,0,1,3.476.808C1584.268-258.693,1584.422-258.666,1584.575-258.635Z" transform="translate(-24.213 -4.793)" fill="#fe7a56"/>
      <path id="Trazado_641015" data-name="Trazado 641015" d="M1581.118-240.2c.994-.008,1.988-.045,2.979,0,.22.009.61.3.614.464.045,1.847.028,3.7.028,5.593-.313.023-.54.054-.768.054q-5.372,0-10.745,0c-.323,0-.806.172-.741-.472,1.182-.715,2.382-1.4,3.543-2.152,1.111-.716,2.182-1.495,3.272-2.243C1579.9-239.379,1580.511-239.79,1581.118-240.2Z" transform="translate(-27.531 -17.848)" fill="#fed223"/>
      <path id="Trazado_641016" data-name="Trazado 641016" d="M1554.9-243.569h-6.066v-6.26h1.519c1.309,0,2.619-.017,3.926.018.21.006.591.239.594.373C1554.915-247.508,1554.9-245.578,1554.9-243.569Z" transform="translate(-19.393 -14.541)" fill="#fe7b56"/>
      <path id="Trazado_641017" data-name="Trazado 641017" d="M1611.214-243.528h-6v-6.189h6Z" transform="translate(-38.8 -14.581)" fill="#fe7a56"/>
      <path id="Trazado_641018" data-name="Trazado 641018" d="M1501.891-174.192h6.073v6.031h-6.073Z" transform="translate(-3.235 -40.577)" fill="#fbb557"/>
    </g>
  </g>
</svg>
