<svg xmlns="http://www.w3.org/2000/svg" width="134" height="134" viewBox="0 0 134 134">
  <g id="Grupo_909107" data-name="Grupo 909107" transform="translate(-1084 -3242.636)">
    <circle id="Elipse_7250" data-name="Elipse 7250" cx="67" cy="67" r="67" transform="translate(1084 3242.636)" fill="#179587"/>
    <g id="Grupo_904923" data-name="Grupo 904923" transform="translate(-153.215 3282.628)">
      <path id="Trazado_634513" data-name="Trazado 634513" d="M1337.143-13.68h.863a1.694,1.694,0,0,0,.351.166,7.725,7.725,0,0,1,2.843,1.189,7.514,7.514,0,0,1,3.191,4.6,3.309,3.309,0,0,0,.286.633V50.975a1.6,1.6,0,0,0-.146.253c-.167.462-.285.946-.494,1.388a5.117,5.117,0,0,1-1.9,2.081,6.353,6.353,0,0,1-3.609.9h-1.044v8.029c1.838,0,3.652.006,5.467,0a1.621,1.621,0,0,1,1.307.531,5.549,5.549,0,0,1,.421.632v.863a2.238,2.238,0,0,1-1.255,1.177h-.157a1.709,1.709,0,0,0-.354-.075q-38.507-.005-77.014,0a1.352,1.352,0,0,0-.312.075h-.314a4.119,4.119,0,0,0-.384-.337,1.688,1.688,0,0,1-.586-1.787,1.758,1.758,0,0,1,1.72-1.082c1.686.022,3.373.007,5.06.006.125,0,.249-.011.368-.017V55.6c-.461,0-.905.034-1.342-.008a15.384,15.384,0,0,1-1.876-.274,4.95,4.95,0,0,1-3.024-2.149,5.584,5.584,0,0,1-.969-3.259q.027-27.4.017-54.8a9.763,9.763,0,0,1,.275-2.986,8.246,8.246,0,0,1,1.052-2.3,7.873,7.873,0,0,1,5.037-3.336c.057-.011.1-.107.144-.162h.942a1.742,1.742,0,0,0,.357.076q32.342,0,64.685,0A2.124,2.124,0,0,0,1337.143-13.68Zm-11.309,51.436a1.65,1.65,0,0,1-1.584-1.883c0-2.444.01-4.889,0-7.333-.009-1.46.785-1.906,1.925-1.921,3.124-.042,6.248-.021,9.372-.005a2.8,2.8,0,0,1,.987.208,1.539,1.539,0,0,1,.921,1.6q.013,11.725.006,23.45c0,.144.007.287.011.431.079.052.156.147.237.149.494.013.99.016,1.484,0a2.065,2.065,0,0,0,.473-.132,2.177,2.177,0,0,0,.328-.081,2.392,2.392,0,0,0,1.551-2.43q-.009-24.282,0-48.564v-.4h-74.149v.474q0,24.105.006,48.211a6.681,6.681,0,0,0,.15,1.247,2.174,2.174,0,0,0,1.718,1.539c.043.029.084.081.127.082.662.021,1.324.038,1.986.046.026,0,.054-.093.08-.143,0-1.438.016-2.876.008-4.315a1.658,1.658,0,0,1,1.633-1.637c3.309,0,6.617-.006,9.926.011a2.058,2.058,0,0,1,.866.25,1.586,1.586,0,0,1,.781,1.589q.014,7.493.005,14.987V63.6h4.373v-.445q0-16.164,0-32.327a1.656,1.656,0,0,1,1.845-1.866c3.177-.043,6.355-.022,9.533-.006a2.195,2.195,0,0,1,.948.218,1.7,1.7,0,0,1,.913,1.661q0,16.164,0,32.327v.44h4.351V44.256c0-.144-.005-.288.006-.432a1.637,1.637,0,0,1,1.614-1.55q5-.012,10,.008a1.789,1.789,0,0,1,.823.253,1.616,1.616,0,0,1,.793,1.542q0,9.553,0,19.106v.422h4.374v-.442q0-8.1,0-16.2a1.681,1.681,0,0,1,.843-1.615,4.275,4.275,0,0,1,.744-.258,4.049,4.049,0,0,1,.757.269,1.657,1.657,0,0,1,.824,1.544q-.009,8.117,0,16.235V63.6h6.861V29.867h-6.861v.446q0,2.784,0,5.568A1.664,1.664,0,0,1,1325.834,37.756Zm15.7-40.1c0-.433,0-.848,0-1.262a11.869,11.869,0,0,0-.313-3.775,4.326,4.326,0,0,0-1.324-1.945,5.086,5.086,0,0,0-3.413-1.158q-32.013.01-64.026,0a5.03,5.03,0,0,0-3.416,1.149,3.978,3.978,0,0,0-1.5,2.6c-.112,1.03-.117,2.072-.158,3.11-.017.425,0,.851,0,1.284ZM1292.224,63.6h6.861V32.221h-6.861Zm17.615-18.155V63.6h6.856V45.447ZM1281.493,63.6V49.534h-6.842V63.6Z" transform="translate(0)" fill="#080708"/>
      <path id="Trazado_634514" data-name="Trazado 634514" d="M1268.4,232.4a1.352,1.352,0,0,1,.312-.075q38.507,0,77.014,0a1.708,1.708,0,0,1,.354.075Z" transform="translate(-2.817 -165.576)" fill="#504e54"/>
      <path id="Trazado_634515" data-name="Trazado 634515" d="M1352.559-13.68a2.123,2.123,0,0,1-.4.075q-32.343,0-64.685,0a1.74,1.74,0,0,1-.357-.076Z" transform="translate(-15.416)" fill="#504e54"/>
      <path id="Trazado_634516" data-name="Trazado 634516" d="M1344,82.2c0-.144-.011-.287-.011-.431q0-11.725-.006-23.45a1.539,1.539,0,0,0-.921-1.6,2.8,2.8,0,0,0-.987-.208c-3.124-.015-6.248-.037-9.372.005-1.141.015-1.934.461-1.925,1.921.014,2.444,0,4.889,0,7.333a1.65,1.65,0,0,0,1.584,1.883q0,1.216,0,2.433a.675.675,0,0,1-.114.024A1.559,1.559,0,0,0,1331.1,72.6a2.224,2.224,0,0,0,1.262.678q0,.856,0,1.712a4.278,4.278,0,0,0-.744.258,1.681,1.681,0,0,0-.843,1.615q.012,8.1,0,16.2v.442h-4.373v-.422q0-9.553,0-19.106a1.616,1.616,0,0,0-.792-1.542,1.791,1.791,0,0,0-.824-.253q-5-.025-10-.008a1.637,1.637,0,0,0-1.614,1.55c-.011.143-.005.288-.005.432V93.51h-4.351v-.44q0-16.164,0-32.327a1.7,1.7,0,0,0-.913-1.66,2.195,2.195,0,0,0-.947-.218c-3.178-.016-6.356-.037-9.533.006a1.656,1.656,0,0,0-1.845,1.866q0,16.164,0,32.327v.445h-4.373v-.417q0-7.493-.005-14.987a1.587,1.587,0,0,0-.781-1.589,2.058,2.058,0,0,0-.866-.25c-3.309-.017-6.617-.011-9.926-.011A1.658,1.658,0,0,0,1278,77.89c.008,1.438,0,2.876-.008,4.315l-2.194.015a2.174,2.174,0,0,1-1.719-1.539,6.691,6.691,0,0,1-.15-1.247q-.011-24.106-.006-48.211v-.474h74.149v.4q0,24.282,0,48.564a2.391,2.391,0,0,1-1.551,2.43,2.177,2.177,0,0,1-.328.081Zm-43.245-44.569-.8.141-.143.025-.329.128-.142.023-.326.141-.126.038-.668.409a5.6,5.6,0,0,0-2.586,4.765,4.653,4.653,0,0,0,.627,2.519.532.532,0,0,1-.129.772q-3.414,3.387-6.814,6.788c-.635.634-1.261,1.279-1.9,1.911-.077.076-.218.172-.3.149-.4-.12-.79-.317-1.2-.408a11.5,11.5,0,0,0-1.577-.214,4.77,4.77,0,0,0-1.842.381,5.069,5.069,0,0,0-2.079,1.338,5.76,5.76,0,0,0-1.513,3.015,5.6,5.6,0,0,0,.384,3.161,5.081,5.081,0,0,0,1.771,2.219,5.413,5.413,0,0,0,3.953,1.125,5.813,5.813,0,0,0,2.6-.9,5.641,5.641,0,0,0,2.019-7.008.519.519,0,0,1,.146-.744,7.093,7.093,0,0,0,.627-.619q4.137-4.142,8.278-8.282a.275.275,0,0,1,.2-.054c.662.075,1.251.4,1.944.448a5.5,5.5,0,0,0,2.571-.4c.62-.261.622-.282,1.116.215.447.449.9.889,1.351,1.336q4.333,4.325,8.663,8.651a.464.464,0,0,1,.084.655,5.325,5.325,0,0,0-.273,4.58,5.531,5.531,0,0,0,3.614,3.419,5.333,5.333,0,0,0,3.777-.143,5.542,5.542,0,0,0,3.29-3.581,5.4,5.4,0,0,0-.283-4.1.408.408,0,0,1,.1-.533q3.788-3.78,7.575-7.559c.961-.956,1.936-1.9,2.927-2.865a5.674,5.674,0,0,0,6.007-9.324,5.588,5.588,0,0,0-7.214-.626,5.717,5.717,0,0,0-1.365,8.023q-2.57,2.55-5.153,5.115-2.49,2.479-4.972,4.967c-.149.149-.3.312-.523.179a4.125,4.125,0,0,0-1.681-.513,3.806,3.806,0,0,0-1.113-.057,5.66,5.66,0,0,0-1.844.426.531.531,0,0,1-.493-.048q-3.121-3.09-6.212-6.208-2.133-2.139-4.265-4.277a.522.522,0,0,1-.1-.579c.153-.51.336-1.013.452-1.532a4.88,4.88,0,0,0-.32-3.015,5.523,5.523,0,0,0-3.129-3.077l-.157-.086-.141-.021-.33-.13-.217-.033-.724-.129Zm-17.428,9.112c1.2,0,2.4.008,3.6-.007a2.611,2.611,0,0,0,.778-.143,1.578,1.578,0,0,0,.978-1.554,1.488,1.488,0,0,0-1.206-1.365,5.754,5.754,0,0,0-.991-.092c-2.155-.008-4.31,0-6.466,0a4.943,4.943,0,0,0-.587.015,1.583,1.583,0,0,0-1.432,1.478,1.632,1.632,0,0,0,1.6,1.674C1280.844,46.733,1282.085,46.747,1283.326,46.748Zm0-7.539c1.267,0,2.535.01,3.8,0,.821-.009,1.25-.424,1.533-1.421a1.416,1.416,0,0,0-.731-1.458,2.448,2.448,0,0,0-1.047-.263c-1.568-.027-3.136-.012-4.7-.012-.85,0-1.7-.008-2.548,0a1.593,1.593,0,0,0-1.625,1.5,1.616,1.616,0,0,0,1.556,1.659C1280.817,39.211,1282.071,39.208,1283.326,39.208Zm11.188-1.637a1.551,1.551,0,0,0-1.585-1.513,1.572,1.572,0,1,0,.1,3.139A1.524,1.524,0,0,0,1294.514,37.571Z" transform="translate(-6.532 -29.904)" fill="#fefefe"/>
      <path id="Trazado_634517" data-name="Trazado 634517" d="M1348.058,4.233h-74.149c0-.433-.014-.859,0-1.284.04-1.037.046-2.08.158-3.11a3.978,3.978,0,0,1,1.5-2.6,5.03,5.03,0,0,1,3.416-1.149q32.013.009,64.026,0a5.088,5.088,0,0,1,3.414,1.158A4.326,4.326,0,0,1,1347.744-.8a11.866,11.866,0,0,1,.313,3.775C1348.061,3.385,1348.058,3.8,1348.058,4.233ZM1323.38,1.748h17.377c.144,0,.288,0,.432,0a1.569,1.569,0,0,0,1.234-2.46,1.642,1.642,0,0,0-1.524-.72H1305.91a2.587,2.587,0,0,0-.353.01,1.612,1.612,0,0,0-1.337.945,1.475,1.475,0,0,0,.291,1.7,1.777,1.777,0,0,0,1.414.531Q1314.653,1.744,1323.38,1.748Zm-34.7-1.6a1.614,1.614,0,0,0-1.594-1.58A1.639,1.639,0,0,0,1285.53.181a1.642,1.642,0,0,0,1.567,1.56A1.611,1.611,0,0,0,1288.679.15Zm6.277,0a1.614,1.614,0,0,0-1.6-1.578,1.64,1.64,0,0,0-1.553,1.614,1.642,1.642,0,0,0,1.569,1.558A1.61,1.61,0,0,0,1294.956.148Zm-12.554,0a1.584,1.584,0,0,0-1.6-1.57A1.527,1.527,0,0,0,1279.263.2a1.531,1.531,0,0,0,1.552,1.532A1.589,1.589,0,0,0,1282.4.147Z" transform="translate(-6.521 -6.578)" fill="#e2434b"/>
      <path id="Trazado_634518" data-name="Trazado 634518" d="M1452.682,129.84q0-1.216,0-2.433a1.664,1.664,0,0,0,1.573-1.875q.005-2.784,0-5.568v-.446h6.861v33.734h-6.861v-.466q0-8.117,0-16.235a1.657,1.657,0,0,0-.824-1.544,4.051,4.051,0,0,0-.757-.269q0-.856,0-1.712a1.779,1.779,0,0,1,.37-.121,1.605,1.605,0,0,0,1.208-1.542C1454.226,130.536,1453.687,130,1452.682,129.84Z" transform="translate(-126.85 -89.651)" fill="#e2434b"/>
      <path id="Trazado_634519" data-name="Trazado 634519" d="M1349.885,158.1V126.717h6.861V158.1Z" transform="translate(-57.661 -94.496)" fill="#f7ba58"/>
      <path id="Trazado_634520" data-name="Trazado 634520" d="M1403.764,167.174h6.856v18.15h-6.856Z" transform="translate(-93.925 -121.727)" fill="#64c4f2"/>
      <path id="Trazado_634521" data-name="Trazado 634521" d="M1302.976,193.744h-6.842v-14.07h6.842Z" transform="translate(-21.483 -130.14)" fill="#a0bf54"/>
      <path id="Trazado_634522" data-name="Trazado 634522" d="M1279.655,188.153l2.194-.015c-.027.05-.054.143-.08.143-.662-.008-1.324-.025-1.986-.046C1279.739,188.234,1279.7,188.181,1279.655,188.153Z" transform="translate(-10.392 -135.837)" fill="#959394"/>
      <path id="Trazado_634523" data-name="Trazado 634523" d="M1488.275,188.138l2.194.015a2.067,2.067,0,0,1-.474.132c-.494.018-.989.015-1.483,0C1488.432,188.285,1488.354,188.19,1488.275,188.138Z" transform="translate(-150.807 -135.837)" fill="#959394"/>
      <path id="Trazado_634524" data-name="Trazado 634524" d="M1309,52.227l.126-.038.326-.141.142-.023.329-.128.143-.025.8-.141h1.1l.724.129.217.033.33.13.141.021.157.086a5.523,5.523,0,0,1,3.129,3.077,4.881,4.881,0,0,1,.32,3.015c-.116.519-.3,1.022-.452,1.532a.522.522,0,0,0,.1.579q2.136,2.135,4.265,4.277,3.1,3.11,6.212,6.208a.531.531,0,0,0,.493.048,5.66,5.66,0,0,1,1.844-.426,3.807,3.807,0,0,1,1.113.057,4.125,4.125,0,0,1,1.681.513c.219.133.374-.03.523-.179q2.484-2.486,4.972-4.967,2.576-2.565,5.153-5.115a5.718,5.718,0,0,1,1.365-8.023,5.588,5.588,0,0,1,7.214.626,5.674,5.674,0,0,1-6.007,9.324c-.99.968-1.966,1.909-2.926,2.865q-3.793,3.775-7.575,7.559a.408.408,0,0,0-.1.533,5.4,5.4,0,0,1,.283,4.1,5.542,5.542,0,0,1-3.29,3.581,5.333,5.333,0,0,1-3.777.143,5.531,5.531,0,0,1-3.614-3.419,5.325,5.325,0,0,1,.273-4.58.464.464,0,0,0-.084-.655q-4.332-4.325-8.663-8.651c-.448-.447-.9-.887-1.351-1.336-.494-.5-.5-.476-1.116-.215a5.5,5.5,0,0,1-2.571.4c-.693-.048-1.282-.373-1.944-.448a.275.275,0,0,0-.2.054q-4.143,4.137-8.278,8.282a7.081,7.081,0,0,1-.627.619.519.519,0,0,0-.146.744,5.641,5.641,0,0,1-2.019,7.008,5.813,5.813,0,0,1-2.6.9,5.413,5.413,0,0,1-3.953-1.125,5.082,5.082,0,0,1-1.771-2.219,5.606,5.606,0,0,1-.384-3.161,5.76,5.76,0,0,1,1.513-3.015,5.068,5.068,0,0,1,2.079-1.338,4.77,4.77,0,0,1,1.842-.381,11.5,11.5,0,0,1,1.577.214c.41.091.794.288,1.2.408.079.023.22-.072.3-.149.637-.632,1.263-1.277,1.9-1.911q3.4-3.4,6.814-6.788a.532.532,0,0,0,.129-.772,4.653,4.653,0,0,1-.627-2.519,5.6,5.6,0,0,1,2.586-4.765Zm-.027,4.687a.777.777,0,0,0,.006.946,2.5,2.5,0,1,0-.006-.946Zm23.289,19.168a2.5,2.5,0,1,0-2.544,2.487A2.513,2.513,0,0,0,1332.264,76.082Zm-37.63.939a2.436,2.436,0,0,0,2.461-2.452,2.484,2.484,0,1,0-4.967-.013A2.408,2.408,0,0,0,1294.634,77.02Zm52.774-22.148a2.479,2.479,0,0,0-2.4,2.487,2.489,2.489,0,1,0,4.978-.019A2.461,2.461,0,0,0,1347.408,54.872Z" transform="translate(-16.644 -43.998)" fill="#0a0a0a"/>
      <path id="Trazado_634525" data-name="Trazado 634525" d="M1291.729,73.168c-1.241,0-2.482-.014-3.723,0a1.632,1.632,0,0,1-1.6-1.674,1.583,1.583,0,0,1,1.432-1.478,4.942,4.942,0,0,1,.587-.015c2.155,0,4.31,0,6.465,0a5.754,5.754,0,0,1,.991.092,1.488,1.488,0,0,1,1.206,1.365,1.578,1.578,0,0,1-.978,1.554,2.612,2.612,0,0,1-.778.143C1294.133,73.177,1292.931,73.169,1291.729,73.168Z" transform="translate(-14.935 -56.325)" fill="#080708"/>
      <path id="Trazado_634526" data-name="Trazado 634526" d="M1291.729,50.114c-1.255,0-2.509,0-3.764,0a1.617,1.617,0,0,1-1.556-1.659,1.593,1.593,0,0,1,1.625-1.5c.849-.01,1.7,0,2.548,0,1.568,0,3.137-.015,4.7.012a2.447,2.447,0,0,1,1.047.263,1.415,1.415,0,0,1,.731,1.458c-.283,1-.712,1.412-1.533,1.421C1294.264,50.124,1293,50.114,1291.729,50.114Z" transform="translate(-14.935 -40.809)" fill="#0a0a0a"/>
      <path id="Trazado_634527" data-name="Trazado 634527" d="M1330.378,48.5a1.524,1.524,0,0,1-1.488,1.626,1.572,1.572,0,1,1-.1-3.139A1.551,1.551,0,0,1,1330.378,48.5Z" transform="translate(-42.396 -40.832)" fill="#0a0a0a"/>
      <path id="Trazado_634528" data-name="Trazado 634528" d="M1449.469,151.09c1.005.16,1.544.7,1.578,1.523a1.605,1.605,0,0,1-1.208,1.542,1.779,1.779,0,0,0-.37.121,2.223,2.223,0,0,1-1.262-.678,1.559,1.559,0,0,1,1.148-2.484A.682.682,0,0,0,1449.469,151.09Z" transform="translate(-123.636 -110.901)" fill="#0a0a0a"/>
      <path id="Trazado_634529" data-name="Trazado 634529" d="M1354.357,51.814l-.8.141Z" transform="translate(-60.135 -44.082)" fill="#959394"/>
      <path id="Trazado_634530" data-name="Trazado 634530" d="M1360.084,51.939l-.724-.129Z" transform="translate(-64.039 -44.079)" fill="#959394"/>
      <path id="Trazado_634531" data-name="Trazado 634531" d="M1348.923,53.333l-.668.409Z" transform="translate(-56.564 -45.104)" fill="#959394"/>
      <path id="Trazado_634532" data-name="Trazado 634532" d="M1351.009,52.784l-.326.141Z" transform="translate(-58.198 -44.735)" fill="#959394"/>
      <path id="Trazado_634533" data-name="Trazado 634533" d="M1362.57,52.436l-.33-.13Z" transform="translate(-65.977 -44.413)" fill="#959394"/>
      <path id="Trazado_634534" data-name="Trazado 634534" d="M1352.444,52.322l-.329.128Z" transform="translate(-59.162 -44.424)" fill="#959394"/>
      <path id="Trazado_634535" data-name="Trazado 634535" d="M1363.837,52.854l-.157-.086Z" transform="translate(-66.946 -44.724)" fill="#959394"/>
      <path id="Trazado_634536" data-name="Trazado 634536" d="M1385.483,6.833q-8.728,0-17.455,0a1.777,1.777,0,0,1-1.414-.531,1.474,1.474,0,0,1-.291-1.7,1.612,1.612,0,0,1,1.337-.945,2.587,2.587,0,0,1,.353-.01H1403a1.642,1.642,0,0,1,1.524.72,1.569,1.569,0,0,1-1.234,2.46c-.143.01-.288,0-.431,0Z" transform="translate(-68.624 -11.663)" fill="#0a0a0a"/>
      <path id="Trazado_634537" data-name="Trazado 634537" d="M1312.613,5.249a1.611,1.611,0,0,1-1.582,1.592,1.642,1.642,0,0,1-1.567-1.56,1.639,1.639,0,0,1,1.555-1.611A1.614,1.614,0,0,1,1312.613,5.249Z" transform="translate(-30.456 -11.677)" fill="#0a0a0a"/>
      <path id="Trazado_634538" data-name="Trazado 634538" d="M1331.813,5.247a1.61,1.61,0,0,1-1.58,1.594,1.642,1.642,0,0,1-1.569-1.558,1.64,1.64,0,0,1,1.553-1.614A1.614,1.614,0,0,1,1331.813,5.247Z" transform="translate(-43.379 -11.677)" fill="#0a0a0a"/>
      <path id="Trazado_634539" data-name="Trazado 634539" d="M1293.434,5.257a1.589,1.589,0,0,1-1.586,1.589,1.531,1.531,0,0,1-1.552-1.532,1.527,1.527,0,0,1,1.536-1.627A1.584,1.584,0,0,1,1293.434,5.257Z" transform="translate(-17.554 -11.687)" fill="#0a0a0a"/>
      <path id="Trazado_634540" data-name="Trazado 634540" d="M1411.137,121.1a2.5,2.5,0,1,1-2.547-2.524A2.52,2.52,0,0,1,1411.137,121.1Z" transform="translate(-95.517 -89.013)" fill="#62c2ef"/>
      <path id="Trazado_634541" data-name="Trazado 634541" d="M1301.188,118.943a2.408,2.408,0,0,1-2.507-2.465,2.484,2.484,0,1,1,4.968.013A2.436,2.436,0,0,1,1301.188,118.943Z" transform="translate(-23.198 -85.921)" fill="#9fbe52"/>
      <path id="Trazado_634542" data-name="Trazado 634542" d="M1462.816,61.424a2.491,2.491,0,1,1,.061,4.98,2.431,2.431,0,0,1-2.466-2.493A2.479,2.479,0,0,1,1462.816,61.424Z" transform="translate(-132.052 -50.55)" fill="#e04249"/>
      <path id="Trazado_634543" data-name="Trazado 634543" d="M1350.215,63.453a2.486,2.486,0,1,1,.006.946Z" transform="translate(-57.883 -50.537)" fill="#f3b757"/>
      <path id="Trazado_634544" data-name="Trazado 634544" d="M1349.89,67.669l.006.946A.777.777,0,0,1,1349.89,67.669Z" transform="translate(-57.559 -54.753)" fill="#534125"/>
    </g>
  </g>
</svg>
