<svg xmlns="http://www.w3.org/2000/svg" width="189.433" height="189.433" viewBox="0 0 189.433 189.433">
  <g id="Grupo_909129" data-name="Grupo 909129" transform="translate(-707.593 -6090.203)">
    <circle id="Elipse_7427" data-name="Elipse 7427" cx="94.716" cy="94.716" r="94.716" transform="translate(707.593 6090.203)" fill="#179587"/>
    <g id="Grupo_906971" data-name="Grupo 906971" transform="translate(-817.943 6139.366)">
      <path id="Trazado_641003" data-name="Trazado 641003" d="M1696.94,76.715c-.107.153-.276.292-.312.459a7.126,7.126,0,0,1-2.879,4.544c-2.116,1.495-4.207,3.025-6.337,4.5-2.093,1.448-4.236,2.824-6.332,4.267-1.876,1.292-3.694,2.668-5.581,3.943-2,1.349-4.058,2.6-6.069,3.934-1.226.81-2.392,1.712-3.62,2.519-1.536,1.01-3.113,1.958-4.664,2.946-.71.453-1.394.948-2.1,1.4-.859.553-1.724,1.1-2.6,1.621-.9.54-1.822,1.051-2.732,1.578-1.161.671-2.3,1.383-3.484,2.012-2.092,1.111-4.219,2.155-6.316,3.259a12.369,12.369,0,0,1-4.77,1.611h-2.105c-1.43-.182-2.859-.362-4.288-.548-.609-.079-1.216-.167-1.823-.256-1.121-.165-2.248-.305-3.363-.509-1.629-.3-3.248-.646-4.874-.96-1.992-.385-3.989-.745-5.98-1.136q-2.358-.462-4.708-.971c-1.411-.3-2.813-.658-4.226-.951-1.935-.4-3.878-.767-5.817-1.15-.8-.157-1.6-.319-2.395-.478a1.185,1.185,0,0,1-.021-.16q0-17.959.013-35.92c0-.241.021-.482.033-.724,2.118-.528,4.231-1.078,6.356-1.575a11.111,11.111,0,0,1,2.955-.477,20.733,20.733,0,0,1,3.4.693c1.057.233,2.122.437,3.167.718,2.23.6,4.448,1.243,6.674,1.858.916.253,1.846.453,2.758.719,2.116.619,4.219,1.28,6.337,1.893,1.467.425,2.955.778,4.425,1.2.958.273,1.9.622,2.849.909,1.337.4,2.685.77,4.022,1.173,2.408.726,4.835,1.46,6.51,3.508a4.608,4.608,0,0,1,1.012,4.448,6.7,6.7,0,0,1-2.184,3.488,3.292,3.292,0,0,1-1.426.8c-.994.167-1.892.79-3.057.274a9.775,9.775,0,0,0-2.859-.25c-1.78-.176-3.557-.379-5.334-.588-2.836-.334-5.675-.658-8.505-1.035-1.534-.2-3.046-.593-4.583-.737a7.609,7.609,0,0,0-2.8.262c-.895.264-.879,1.191-.812,1.972a1.588,1.588,0,0,0,1.339,1.571c1.552.26,3.115.455,4.678.652s3.132.347,4.694.546c2.3.293,4.6.64,6.9.909,2.2.256,4.413.431,6.617.664a11.333,11.333,0,0,0,1.532.289,10,10,0,0,0,5.161-1.535,9.7,9.7,0,0,0,4.306-5.569,10.1,10.1,0,0,0,.235-5.044,8.1,8.1,0,0,0-2.375-4.286,12.49,12.49,0,0,0-4.8-3.056c-1.452-.458-2.887-.971-4.325-1.475a8.54,8.54,0,0,1-.91-.454c2.028-1.234,3.963-2.395,5.88-3.584,1.589-.985,3.141-2.03,4.741-3a37.733,37.733,0,0,1,4.624-2.6,7.088,7.088,0,0,1,6.141.174c.3.153.609.3.9.472.048.027.048.141.1.326-1.623.9-3.27,1.776-4.883,2.714-1,.58-1.934,1.259-2.906,1.88-.511.326-1.053.6-1.559.94a9.728,9.728,0,0,0-1.562,1.149,1.756,1.756,0,0,0,.1,2.423,2.382,2.382,0,0,0,2.711.441q2.253-1.438,4.539-2.82c2.184-1.323,4.371-2.643,6.577-3.928,1.978-1.152,4.02-2.2,5.965-3.4a7.557,7.557,0,0,1,5-.86,8.767,8.767,0,0,1,2.725,1.006c.356.172.663.573-.034.934-1.331.69-2.629,1.446-3.913,2.221-1.236.745-2.419,1.578-3.656,2.322-2.052,1.232-4.132,2.418-6.194,3.634-.856.505-1.7,1.037-2.543,1.561a2.219,2.219,0,0,0-.437,2.242,1.685,1.685,0,0,0,1.38,1.066,4.592,4.592,0,0,0,3-.917c1.327-.743,2.6-1.586,3.9-2.379,2.159-1.315,4.314-2.635,6.485-3.93,1.785-1.066,3.568-2.136,5.391-3.131a13.216,13.216,0,0,1,3.373-1.49,9.987,9.987,0,0,1,3.3.128,9.369,9.369,0,0,1,1.7.626,6.336,6.336,0,0,1,3.6,3.584,18.16,18.16,0,0,1,.64,1.945c.033.1.191.147.291.219Z" transform="translate(-11.054 -23.104)" fill="#d9dddf" stroke="#050505" stroke-width="3"/>
      <path id="Trazado_641004" data-name="Trazado 641004" d="M1588.531,71.257c-.012.242-.033.483-.033.724q-.009,17.96-.013,35.92a1.185,1.185,0,0,0,.021.16,5.045,5.045,0,0,0-.3.878,7.261,7.261,0,0,1-4.1,5.536,9.17,9.17,0,0,1-4.456.959c-4.3-.014-8.605,0-12.908,0h-.924c-.022-.266-.055-.471-.055-.675q0-25.533,0-51.066c0-.108.01-.215.016-.322.856-.007,1.713-.017,2.569-.019q6.465-.014,12.928-.025a7.593,7.593,0,0,1,4.236,1.8C1587.549,66.685,1588.225,68.868,1588.531,71.257Z" transform="translate(0 -22.815)" fill="#1cb7e9" stroke="#050505" stroke-width="3"/>
      <path id="Trazado_641005" data-name="Trazado 641005" d="M1657.9,42.072c-.211.9-.406,1.8-.635,2.69a12.121,12.121,0,0,1-3.893,6.09,12.531,12.531,0,0,1-4.011,2.406,13.465,13.465,0,0,1-9.2.2,13.215,13.215,0,0,1-6.482-4.982,13.593,13.593,0,0,1-2.335-5.919,17.221,17.221,0,0,1,.185-4.374,9.345,9.345,0,0,1,1.873-4.67,19.971,19.971,0,0,1,3.156-3.391,13.131,13.131,0,0,1,4.947-2.328,12.234,12.234,0,0,1,7.147.256,13.437,13.437,0,0,1,9.123,11.255Z" transform="translate(-21.433 -11.05)" fill="#204254" stroke="#050505" stroke-width="3"/>
      <path id="Trazado_641006" data-name="Trazado 641006" d="M1670.382,14.882a10,10,0,0,1-4.738-1.8,10.754,10.754,0,0,1-3.667-4.184,9.721,9.721,0,0,1-.895-5.756,10.276,10.276,0,0,1,5.024-7.943,10.364,10.364,0,0,1,8.137-1.288,10.051,10.051,0,0,1,6.057,4.121,10.246,10.246,0,0,1,2.01,6.093,10.412,10.412,0,0,1-3.326,7.934,9.82,9.82,0,0,1-5.841,2.816Z" transform="translate(-31.169)" fill="#204254" stroke="#050505" stroke-width="3"/>
    </g>
  </g>
</svg>
