<svg xmlns="http://www.w3.org/2000/svg" width="505" height="270.552" viewBox="0 0 505 270.552">
  <g id="Grupo_905736" data-name="Grupo 905736" transform="translate(-129.5 -164.423)">
    <path id="Trazado_639582" data-name="Trazado 639582" d="M619.459,432.879v0l-.117.208c-.278.5-.565,1-.859,1.51l-449.5-.136s-.437-.488-1.221-1.423c-.045-.053-.089-.107-.136-.163a168.871,168.871,0,0,1-10.779-14.635s0,0,0-.008c-12.552-18.985-29.945-52.606-27.018-89.921a102.248,102.248,0,0,1,7.9-32.237c14.041-32.987,55.931-55.224,93.669-55.671,14.606-.175,28.593,2.917,40.1,9.914a24.881,24.881,0,0,0,7.592,2.849,46.988,46.988,0,0,0,8.381.993c24.509.863,64.368-12.948,88.011-47.7,12.554-18.453,31.827-30.532,53.978-36.824q1.548-.437,3.116-.84a136.347,136.347,0,0,1,15.479-3.013q1.423-.192,2.855-.357a166.406,166.406,0,0,1,71.375,7.848q4.537,1.531,8.958,3.322c43.214,17.5,76.835,53.236,73.879,103.132q-.175,2.959-.525,5.986a116.181,116.181,0,0,1-1.982,11.765q-.782,3.536-1.8,7.153C583,367.89,654.2,370.745,619.459,432.879Z" transform="translate(0)" fill="#dceaff" opacity="0.5"/>
    <g id="Grupo_905666" data-name="Grupo 905666" transform="translate(269.581 259.186)">
      <path id="Trazado_639583" data-name="Trazado 639583" d="M1295.179,889.993v0l-349.878.037,3.017-104.564V757.055H961.4V734.867h26.107V753.7h7.973V718.869h1.734v-2.435h.311v2.435h6.3v-2.435h.313v2.435h8.913v-2.435h.313v2.435h5.611v-2.435h.309v2.435h2.305v32.515h8.813v-5.259l10.392.047v-8.523h2.089v-1.685h.278v1.685h8.025v0h1.605v-1.689h.276v1.689h1.936V754.6h12.371v6.237h6.878v-3.621h6.379V742.836h3.182v-6.708h.48v6.708h7.623V730.265h.748v12.571h5.044v-.175h-.008v-1.6h.008v-1.51h-.008v-2.513h.008v-1.6h-.008v-2.513h.008v-1.6h-.008v-2.513h.008v-1.734h-.008v-2.511h.008v-2.208h-.008v-2.511h.008v-1.666h1.5V716.3h.241v1.879h11.133V716.3h.239v1.879h2.033v13.143l1.429.008v-.008h-.012v-2.513h.012v-1.734h-.012v-2.511h.012v-1.728h-.012v-2.513h.012v-.008h13.5v.008h2.321l.361.2v16.76h2.484v-2.416h28.5V753.7h8.7V718.869h1.891v-2.435h.342v2.435h6.871v-2.435h.34v2.435h9.731v-2.435h.34v2.435h6.124v-2.435h.338v2.435h2.517v32.515h9.617v-5.259l11.341.047V737.65h2.284v-1.687h.3v1.687h8.756v0h1.753v-1.689h.3v1.689h2.113V754.6h13.5v6.235h7.508v-3.621h6.962V742.834h3.471v-6.705h.525v6.705h8.321V730.265h.816v12.569h4.091a116.163,116.163,0,0,1-1.982,11.765q-.782,3.536-1.8,7.153C1258.719,825,1329.923,827.859,1295.179,889.993Z" transform="translate(-945.302 -716.3)" fill="#dfebfa"/>
    </g>
    <path id="Trazado_639584" data-name="Trazado 639584" d="M2425.9,219.331V475.605h-8.958v-259.6Q2421.481,217.539,2425.9,219.331Z" transform="translate(-1894.665 -42.728)" fill="#afcdfb"/>
    <path id="Trazado_639585" data-name="Trazado 639585" d="M279.084,619.687V799.558H167.763l-.136-.163a168.873,168.873,0,0,1-10.779-14.635s0,0,0-.008c-12.552-18.985-29.945-52.606-27.018-89.921a102.248,102.248,0,0,1,7.9-32.237c14.041-32.987,55.931-55.224,93.669-55.671,14.47.159,28.262,3.283,39.716,9.914A26.967,26.967,0,0,0,279.084,619.687Z" transform="translate(0 -366.518)" fill="#cee1fd"/>
    <g id="Grupo_905667" data-name="Grupo 905667" transform="translate(429.898 165.432)">
      <path id="Trazado_639586" data-name="Trazado 639586" d="M1987.5,170.3v31.56c0,2.461-.6,4.468-1.333,4.468h-.191c-.733,0-1.331-2.008-1.331-4.468v-31.2Q1986.07,170.464,1987.5,170.3Z" transform="translate(-1966.497 -170.299)" fill="#9fc1f4"/>
      <path id="Trazado_639587" data-name="Trazado 639587" d="M1897.781,335.9c-10.4,0-18.833,8.916-18.833,19.914h37.667C1916.615,344.819,1908.182,335.9,1897.781,335.9Z" transform="translate(-1878.948 -307.467)" fill="#ff9843"/>
      <path id="Trazado_639588" data-name="Trazado 639588" d="M1930.2,336.448a7.748,7.748,0,0,0-1.654-.18c-6.777,0-12.271,8.888-12.271,19.851h3.308C1919.58,346.063,1924.2,337.755,1930.2,336.448Z" transform="translate(-1909.863 -307.769)" fill="#ffc48a"/>
    </g>
    <g id="Grupo_905674" data-name="Grupo 905674" transform="translate(525.995 362.778)">
      <g id="Grupo_905669" data-name="Grupo 905669" transform="translate(38.297 28.602)">
        <path id="Trazado_639589" data-name="Trazado 639589" d="M2699.757,1498.292s-5.012-5.847-.309-9.561c0,0,3.435-2.08,6.236-1.911,0,0-3.969,6.656-2.685,7.317s3.888-7.735,3.888-7.735,7.817-.758,10.332.451c0,0-6.683,5.469-5.276,5.794s8.626-5.042,8.626-5.042,7.276,1.238,6.888,5.677-2.9,5.809-4,5.691-7.548-2.578-7.688-1.676,3.74,3.853,6.457,3.991c0,0-5.13,5.657-8.539,4.024s-3.7-4.221-5.825-5.191-3.939-.968-3.062.021,4.723,1.953,5.938,4.1,2.306,3.6-1.221,3.069-9.26-3.112-9.512-6.067Z" transform="translate(-2691.286 -1486.168)" fill="#77a4e5"/>
        <g id="Grupo_905668" data-name="Grupo 905668" transform="translate(0 7.2)">
          <path id="Trazado_639590" data-name="Trazado 639590" d="M2713.869,1528.133s-19.762-.762-24.126,4.89a14.29,14.29,0,0,1-3.935,5.523l-.463,1.262s3.424-3.611,4.649-3.829C2689.994,1535.979,2688.078,1528.977,2713.869,1528.133Z" transform="translate(-2681.271 -1528.099)" fill="#77a4e5"/>
          <path id="Trazado_639591" data-name="Trazado 639591" d="M2666.158,1586.541a12.409,12.409,0,0,0-4.536,8.742l.77.068s1.355-5.8,3.8-8.062S2666.158,1586.541,2666.158,1586.541Z" transform="translate(-2661.622 -1576.094)" fill="#77a4e5"/>
        </g>
      </g>
      <g id="Grupo_905671" data-name="Grupo 905671" transform="translate(0 12.727)">
        <path id="Trazado_639592" data-name="Trazado 639592" d="M2467.835,1414.359s7.973-4.465,4.252-10.524c0,0-2.976-3.721-6.166-4.677,0,0,1.7,9.036,0,9.248s-1.169-10.205-1.169-10.205-8.4-4.04-11.693-3.721c0,0,5.209,8.823,3.508,8.611s-7.548-9.142-7.548-9.142-8.611-1.595-9.993,3.508.851,7.654,2.126,7.973,9.461.213,9.249,1.276-5.741,2.764-8.823,1.807c0,0,3.4,8.4,7.867,7.973s5.847-3.189,8.611-3.4,4.784.532,3.4,1.276-6.059.244-8.292,2.142-4.04,3.067.106,3.917,11.587.319,13.075-2.87Z" transform="translate(-2438.591 -1393.713)" fill="#77a4e5"/>
        <g id="Grupo_905670" data-name="Grupo 905670" transform="translate(4.369 5.339)">
          <path id="Trazado_639593" data-name="Trazado 639593" d="M2464.037,1424.8s22.324,7.228,24.875,15.308a16.96,16.96,0,0,0,2.126,7.76v1.594s-2.338-5.422-3.614-6.166C2487.424,1443.3,2492.42,1436.284,2464.037,1424.8Z" transform="translate(-2464.037 -1424.803)" fill="#77a4e5"/>
          <path id="Trazado_639594" data-name="Trazado 639594" d="M2616.14,1554.359a14.723,14.723,0,0,1,1.48,11.592l-.886-.238s.86-7.01-.941-10.535S2616.14,1554.359,2616.14,1554.359Z" transform="translate(-2589.139 -1531.29)" fill="#77a4e5"/>
        </g>
      </g>
      <g id="Grupo_905673" data-name="Grupo 905673" transform="translate(35.019)">
        <path id="Trazado_639595" data-name="Trazado 639595" d="M2649.444,1346.81s-10.51-5.886-5.605-13.873c0,0,3.924-4.9,8.128-6.166,0,0-2.242,11.911,0,12.191s1.541-13.453,1.541-13.453,11.07-5.325,15.414-4.9c0,0-6.866,11.631-4.624,11.351s9.949-12.051,9.949-12.051,11.351-2.1,13.172,4.624-1.121,10.089-2.8,10.51-12.471.28-12.191,1.681,7.567,3.644,11.631,2.382c0,0-4.484,11.07-10.369,10.51s-7.707-4.2-11.351-4.484-6.306.7-4.484,1.682,7.987.322,10.93,2.823,5.325,4.043-.14,5.164-15.274.42-17.236-3.783Z" transform="translate(-2642.535 -1319.594)" fill="#9fc1f4"/>
        <g id="Grupo_905672" data-name="Grupo 905672" transform="translate(1.359 7.037)">
          <path id="Trazado_639596" data-name="Trazado 639596" d="M2702.044,1360.576s-29.427,9.529-32.79,20.179a22.358,22.358,0,0,1-2.8,10.229v2.1s3.083-7.146,4.765-8.127C2671.216,1384.959,2664.629,1375.71,2702.044,1360.576Z" transform="translate(-2663.703 -1360.576)" fill="#9fc1f4"/>
          <path id="Trazado_639597" data-name="Trazado 639597" d="M2653.2,1531.355a19.408,19.408,0,0,0-1.951,15.28l1.167-.314s-1.133-9.24,1.241-13.887S2653.2,1531.355,2653.2,1531.355Z" transform="translate(-2650.447 -1500.947)" fill="#9fc1f4"/>
        </g>
      </g>
      <path id="Trazado_639598" data-name="Trazado 639598" d="M2581.4,1633.29a20.587,20.587,0,0,0,20.587-20.587h-41.174A20.587,20.587,0,0,0,2581.4,1633.29Z" transform="translate(-2539.83 -1562.373)" fill="#9fc1f4"/>
      <path id="Trazado_639599" data-name="Trazado 639599" d="M2598.574,1633.131a20.6,20.6,0,0,1-23.144-20.429h5.115A20.59,20.59,0,0,0,2598.574,1633.131Z" transform="translate(-2551.934 -1562.372)" fill="#afcdfb"/>
      <rect id="Rectángulo_295886" data-name="Rectángulo 295886" width="42.319" height="0.632" transform="translate(20.311 50.33)" fill="#9fc1f4"/>
    </g>
    <g id="Grupo_905699" data-name="Grupo 905699" transform="translate(375.048 303.865)">
      <g id="Grupo_905675" data-name="Grupo 905675" transform="translate(76.452 41.55)">
        <path id="Trazado_639600" data-name="Trazado 639600" d="M2024.979,1305.743l-20.229-83.963,1.413-3.305,20.041,87.258a.357.357,0,0,1-.348.437h-.334A.558.558,0,0,1,2024.979,1305.743Z" transform="translate(-2004.75 -1218.475)" fill="#77a4e5"/>
      </g>
      <g id="Grupo_905698" data-name="Grupo 905698">
        <g id="Grupo_905676" data-name="Grupo 905676" transform="translate(4.711 92.348)">
          <path id="Trazado_639601" data-name="Trazado 639601" d="M1587.622,1551.207h0a.673.673,0,0,1-.664-.783l5.958-36.114h2.553l-7.1,36.287A.756.756,0,0,1,1587.622,1551.207Z" transform="translate(-1586.949 -1514.31)" fill="#77a4e5"/>
        </g>
        <g id="Grupo_905677" data-name="Grupo 905677" transform="translate(61.867 92.348)">
          <path id="Trazado_639602" data-name="Trazado 639602" d="M1920.484,1551.207h0a.674.674,0,0,1-.664-.783l5.958-36.114h2.553l-7.105,36.287A.755.755,0,0,1,1920.484,1551.207Z" transform="translate(-1919.81 -1514.31)" fill="#77a4e5"/>
        </g>
        <path id="Trazado_639603" data-name="Trazado 639603" d="M1661.194,1068.922h-71.158l14.743-92.424h71.158Z" transform="translate(-1584.795 -976.499)" fill="#f5fbff"/>
        <rect id="Rectángulo_295887" data-name="Rectángulo 295887" width="81.723" height="2.719" transform="translate(0 91.719)" fill="#77a4e5"/>
        <g id="Grupo_905678" data-name="Grupo 905678" transform="translate(21.497 5.556)">
          <path id="Trazado_639604" data-name="Trazado 639604" d="M1711.37,1022.636a14.9,14.9,0,0,1-.319,2.151c-1.483,6.6-7.365,11.666-14.011,11.678-7.354.012-12.86-6.158-12.3-13.783s6.977-13.816,14.331-13.828a12.351,12.351,0,0,1,4.342.765,11.9,11.9,0,0,1,4.877,3.38,12.41,12.41,0,0,1,1.333,1.859,12.223,12.223,0,0,1,.618,1.194,13.11,13.11,0,0,1,1.047,3.7,14.071,14.071,0,0,1,.118,2.021Q1711.4,1022.2,1711.37,1022.636Z" transform="translate(-1684.703 -1008.853)" fill="#bdd1f9"/>
          <path id="Trazado_639605" data-name="Trazado 639605" d="M1774.661,1023.623l-12.187,6.608s5.028-8.855,7.092-12.236a12.015,12.015,0,0,1,3.143,2.575,12.414,12.414,0,0,1,1.333,1.859A12.277,12.277,0,0,1,1774.661,1023.623Z" transform="translate(-1749.12 -1016.425)" fill="#fff"/>
          <path id="Trazado_639606" data-name="Trazado 639606" d="M1787.123,1016.24l-11.132,6.036s4.593-8.089,6.479-11.177a10.955,10.955,0,0,1,2.871,2.352,11.292,11.292,0,0,1,1.218,1.7A11.139,11.139,0,0,1,1787.123,1016.24Z" transform="translate(-1760.316 -1010.714)" fill="#f99746"/>
        </g>
        <g id="Grupo_905684" data-name="Grupo 905684" transform="translate(12.164 51.601)">
          <g id="Grupo_905679" data-name="Grupo 905679">
            <path id="Trazado_639607" data-name="Trazado 639607" d="M1688.923,1310.807l-58.569,0,5.929-33.793,58.569,0Zm-58.1-.344,57.742,0,5.81-33.112-57.742,0Z" transform="translate(-1630.354 -1277.01)" fill="#bdd1f9"/>
          </g>
          <g id="Grupo_905681" data-name="Grupo 905681" transform="translate(3.132 18.704)">
            <path id="Trazado_639608" data-name="Trazado 639608" d="M1700.54,1403.606l-51.944,0s9.214-4.941,11.742-4.682,6.16,2.26,8.5,2.337,4.866-6.936,7.466-6.6,3.579,6.534,4.925,5.928a13.624,13.624,0,0,1,7.717,0c2.328.869,5.721-2.761,7.769-2.647S1700.54,1403.606,1700.54,1403.606Z" transform="translate(-1648.596 -1393.147)" fill="#f99746"/>
            <g id="Grupo_905680" data-name="Grupo 905680" transform="translate(2.372)">
              <path id="Trazado_639609" data-name="Trazado 639609" d="M1673.479,1386.466h-9.921l.092-.526h9.921Z" transform="translate(-1663.36 -1385.939)" fill="#f99746"/>
              <path id="Trazado_639610" data-name="Trazado 639610" d="M1672.33,1393.011h-9.921l.092-.526h9.921Z" transform="translate(-1662.409 -1391.36)" fill="#f99746"/>
            </g>
          </g>
          <g id="Grupo_905683" data-name="Grupo 905683" transform="translate(6.104 2.731)">
            <path id="Trazado_639611" data-name="Trazado 639611" d="M1665.905,1304.952l51.944,0s-7.48-4.942-10.1-4.683-6.953,2.258-9.316,2.336-2.432-6.936-5.148-6.606-5.871,6.533-7.006,5.927-5.084-.869-7.718,0-4.752-2.762-6.839-2.648S1665.905,1304.952,1665.905,1304.952Z" transform="translate(-1665.905 -1295.463)" fill="#bdd1f9"/>
            <g id="Grupo_905682" data-name="Grupo 905682" transform="translate(2.202)">
              <path id="Trazado_639612" data-name="Trazado 639612" d="M1689.8,1293.443h-9.921l.092-.526h9.921Z" transform="translate(-1679.682 -1292.916)" fill="#bdd1f9"/>
              <path id="Trazado_639613" data-name="Trazado 639613" d="M1688.652,1299.988h-9.921l.092-.526h9.921Z" transform="translate(-1678.731 -1298.337)" fill="#bdd1f9"/>
            </g>
          </g>
        </g>
        <g id="Grupo_905685" data-name="Grupo 905685" transform="translate(19.358 36.212)">
          <path id="Trazado_639614" data-name="Trazado 639614" d="M1674.527,1198.064h-2.278l1.98-10.676h2.278Z" transform="translate(-1672.249 -1187.388)" fill="#bdd1f9"/>
          <path id="Trazado_639615" data-name="Trazado 639615" d="M1692.6,1209.669h-2.278l1.534-8.27h2.278Z" transform="translate(-1687.22 -1198.993)" fill="#bdd1f9"/>
          <path id="Trazado_639616" data-name="Trazado 639616" d="M1710.677,1207.96H1708.4l1.6-8.625h2.278Z" transform="translate(-1702.191 -1197.284)" fill="#bdd1f9"/>
          <path id="Trazado_639617" data-name="Trazado 639617" d="M1728.751,1217.917h-2.278l1.216-6.56h2.278Z" transform="translate(-1717.162 -1207.241)" fill="#bdd1f9"/>
          <path id="Trazado_639618" data-name="Trazado 639618" d="M1746.825,1215.613h-2.278l1.305-7.038h2.278Z" transform="translate(-1732.133 -1204.937)" fill="#bdd1f9"/>
          <path id="Trazado_639619" data-name="Trazado 639619" d="M1764.9,1223.234h-2.278l1.012-5.458h2.278Z" transform="translate(-1747.104 -1212.558)" fill="#bdd1f9"/>
        </g>
        <g id="Grupo_905686" data-name="Grupo 905686" transform="translate(49.836 36.212)">
          <path id="Trazado_639620" data-name="Trazado 639620" d="M1852.019,1198.064h-2.278l1.98-10.676H1854Z" transform="translate(-1849.741 -1187.388)" fill="#f99746"/>
          <path id="Trazado_639621" data-name="Trazado 639621" d="M1870.094,1209.669h-2.278l1.534-8.27h2.278Z" transform="translate(-1864.712 -1198.993)" fill="#f99746"/>
          <path id="Trazado_639622" data-name="Trazado 639622" d="M1888.169,1207.96h-2.278l1.6-8.625h2.278Z" transform="translate(-1879.683 -1197.284)" fill="#f99746"/>
          <path id="Trazado_639623" data-name="Trazado 639623" d="M1906.243,1217.917h-2.278l1.216-6.56h2.278Z" transform="translate(-1894.654 -1207.241)" fill="#f99746"/>
          <path id="Trazado_639624" data-name="Trazado 639624" d="M1924.317,1215.613h-2.278l1.305-7.038h2.278Z" transform="translate(-1909.625 -1204.937)" fill="#f99746"/>
          <path id="Trazado_639625" data-name="Trazado 639625" d="M1942.392,1223.234h-2.278l1.012-5.458h2.278Z" transform="translate(-1924.596 -1212.558)" fill="#f99746"/>
        </g>
        <g id="Grupo_905695" data-name="Grupo 905695" transform="translate(53.275 8.651)">
          <g id="Grupo_905687" data-name="Grupo 905687" transform="translate(2.391 2.371)">
            <path id="Trazado_639626" data-name="Trazado 639626" d="M1891.116,1041.7H1883.7l.191-1.016h7.416Z" transform="translate(-1883.699 -1040.686)" fill="#bdd1f9"/>
            <path id="Trazado_639627" data-name="Trazado 639627" d="M1940.374,1041.7h-8.189l.191-1.016h8.189Z" transform="translate(-1923.859 -1040.686)" fill="#bdd1f9"/>
            <path id="Trazado_639628" data-name="Trazado 639628" d="M1988.683,1041.7h-5.221l.191-1.016h5.221Z" transform="translate(-1966.332 -1040.686)" fill="#bdd1f9"/>
            <path id="Trazado_639629" data-name="Trazado 639629" d="M2022.819,1041.7h-4.029l.191-1.016h4.029Z" transform="translate(-1995.594 -1040.686)" fill="#bdd1f9"/>
          </g>
          <g id="Grupo_905688" data-name="Grupo 905688" transform="translate(1.577 6.705)">
            <path id="Trazado_639630" data-name="Trazado 639630" d="M1886.375,1066.946h-7.416l.191-1.016h7.416Z" transform="translate(-1878.959 -1065.93)" fill="#bdd1f9"/>
            <path id="Trazado_639631" data-name="Trazado 639631" d="M1935.633,1066.946h-8.189l.191-1.016h8.189Z" transform="translate(-1919.119 -1065.93)" fill="#bdd1f9"/>
            <path id="Trazado_639632" data-name="Trazado 639632" d="M1983.943,1066.946h-5.221l.191-1.016h5.221Z" transform="translate(-1961.592 -1065.93)" fill="#bdd1f9"/>
            <path id="Trazado_639633" data-name="Trazado 639633" d="M2018.079,1066.946h-4.029l.191-1.016h4.029Z" transform="translate(-1990.853 -1065.93)" fill="#bdd1f9"/>
          </g>
          <g id="Grupo_905689" data-name="Grupo 905689" transform="translate(2.836)">
            <path id="Trazado_639634" data-name="Trazado 639634" d="M1897.671,1027.9h-11.379l.191-1.016h11.379Z" transform="translate(-1886.292 -1026.88)" fill="#bdd1f9"/>
            <path id="Trazado_639635" data-name="Trazado 639635" d="M1965.429,1027.9h-6.559l.191-1.016h6.559Z" transform="translate(-1946.408 -1026.88)" fill="#bdd1f9"/>
            <path id="Trazado_639636" data-name="Trazado 639636" d="M2009.74,1027.9h-7.284l.191-1.016h7.284Z" transform="translate(-1982.509 -1026.88)" fill="#bdd1f9"/>
          </g>
          <g id="Grupo_905690" data-name="Grupo 905690" transform="translate(1.971 4.609)">
            <path id="Trazado_639637" data-name="Trazado 639637" d="M1892.631,1054.738h-11.379l.191-1.016h11.379Z" transform="translate(-1881.252 -1053.722)" fill="#bdd1f9"/>
            <path id="Trazado_639638" data-name="Trazado 639638" d="M1960.389,1054.738h-6.559l.191-1.016h6.559Z" transform="translate(-1941.368 -1053.722)" fill="#bdd1f9"/>
            <path id="Trazado_639639" data-name="Trazado 639639" d="M2004.7,1054.738h-7.284l.191-1.016h7.284Z" transform="translate(-1977.469 -1053.722)" fill="#bdd1f9"/>
          </g>
          <g id="Grupo_905691" data-name="Grupo 905691" transform="translate(0.763 11.04)">
            <path id="Trazado_639640" data-name="Trazado 639640" d="M1881.635,1092.19h-7.416l.191-1.016h7.416Z" transform="translate(-1874.219 -1091.174)" fill="#bdd1f9"/>
            <path id="Trazado_639641" data-name="Trazado 639641" d="M1930.892,1092.19H1922.7l.191-1.016h8.189Z" transform="translate(-1914.378 -1091.174)" fill="#bdd1f9"/>
            <path id="Trazado_639642" data-name="Trazado 639642" d="M1979.2,1092.19h-5.221l.191-1.016h5.221Z" transform="translate(-1956.851 -1091.174)" fill="#bdd1f9"/>
            <path id="Trazado_639643" data-name="Trazado 639643" d="M2013.338,1092.19h-4.029l.191-1.016h4.029Z" transform="translate(-1986.113 -1091.174)" fill="#bdd1f9"/>
          </g>
          <g id="Grupo_905692" data-name="Grupo 905692" transform="translate(1.157 8.944)">
            <path id="Trazado_639644" data-name="Trazado 639644" d="M1887.889,1079.983h-11.379l.191-1.016h11.379Z" transform="translate(-1876.511 -1078.967)" fill="#bdd1f9"/>
            <path id="Trazado_639645" data-name="Trazado 639645" d="M1955.648,1079.983h-6.559l.191-1.016h6.559Z" transform="translate(-1936.626 -1078.967)" fill="#bdd1f9"/>
            <path id="Trazado_639646" data-name="Trazado 639646" d="M1999.959,1079.983h-7.284l.191-1.016h7.284Z" transform="translate(-1972.728 -1078.967)" fill="#bdd1f9"/>
          </g>
          <g id="Grupo_905693" data-name="Grupo 905693" transform="translate(0 15.104)">
            <path id="Trazado_639647" data-name="Trazado 639647" d="M1877.191,1115.857h-7.417l.191-1.016h7.417Z" transform="translate(-1869.774 -1114.841)" fill="#bdd1f9"/>
            <path id="Trazado_639648" data-name="Trazado 639648" d="M1926.449,1115.857h-8.189l.191-1.016h8.189Z" transform="translate(-1909.934 -1114.841)" fill="#bdd1f9"/>
            <path id="Trazado_639649" data-name="Trazado 639649" d="M1974.758,1115.857h-5.221l.191-1.016h5.221Z" transform="translate(-1952.407 -1114.841)" fill="#bdd1f9"/>
            <path id="Trazado_639650" data-name="Trazado 639650" d="M2008.894,1115.857h-4.029l.191-1.016h4.029Z" transform="translate(-1981.669 -1114.841)" fill="#bdd1f9"/>
          </g>
          <g id="Grupo_905694" data-name="Grupo 905694" transform="translate(0.394 13.008)">
            <path id="Trazado_639651" data-name="Trazado 639651" d="M1883.445,1103.649h-11.379l.191-1.016h11.379Z" transform="translate(-1872.066 -1102.633)" fill="#bdd1f9"/>
            <path id="Trazado_639652" data-name="Trazado 639652" d="M1951.2,1103.649h-6.559l.191-1.016h6.559Z" transform="translate(-1932.182 -1102.633)" fill="#bdd1f9"/>
            <path id="Trazado_639653" data-name="Trazado 639653" d="M1995.514,1103.649h-7.284l.191-1.016h7.284Z" transform="translate(-1968.284 -1102.633)" fill="#bdd1f9"/>
          </g>
        </g>
        <g id="Grupo_905696" data-name="Grupo 905696" transform="translate(39.786 36.142)">
          <path id="Trazado_639654" data-name="Trazado 639654" d="M1797.164,1194.236h-3.63l.093-.5h3.63Z" transform="translate(-1793.136 -1192.578)" fill="#bdd1f9"/>
          <path id="Trazado_639655" data-name="Trazado 639655" d="M1821.274,1194.236h-4.008l.093-.5h4.008Z" transform="translate(-1812.792 -1192.578)" fill="#bdd1f9"/>
          <path id="Trazado_639656" data-name="Trazado 639656" d="M1794.844,1206.592h-3.63l.093-.5h3.63Z" transform="translate(-1791.214 -1202.813)" fill="#bdd1f9"/>
          <path id="Trazado_639657" data-name="Trazado 639657" d="M1818.953,1206.592h-4.008l.093-.5h4.008Z" transform="translate(-1810.87 -1202.813)" fill="#bdd1f9"/>
          <path id="Trazado_639658" data-name="Trazado 639658" d="M1800.372,1187.479H1794.8l.093-.5h5.569Z" transform="translate(-1794.187 -1186.981)" fill="#bdd1f9"/>
          <path id="Trazado_639659" data-name="Trazado 639659" d="M1833.538,1187.479h-3.211l.094-.5h3.21Z" transform="translate(-1823.611 -1186.981)" fill="#bdd1f9"/>
          <path id="Trazado_639660" data-name="Trazado 639660" d="M1797.905,1200.617h-5.569l.093-.5H1798Z" transform="translate(-1792.143 -1197.864)" fill="#bdd1f9"/>
          <path id="Trazado_639661" data-name="Trazado 639661" d="M1831.071,1200.617h-3.211l.094-.5h3.21Z" transform="translate(-1821.568 -1197.864)" fill="#bdd1f9"/>
        </g>
        <g id="Grupo_905697" data-name="Grupo 905697" transform="translate(68.865 36.142)">
          <path id="Trazado_639662" data-name="Trazado 639662" d="M1966.512,1194.236h-3.63l.094-.5h3.63Z" transform="translate(-1962.483 -1192.578)" fill="#bdd1f9"/>
          <path id="Trazado_639663" data-name="Trazado 639663" d="M1990.623,1194.236h-4.008l.094-.5h4.008Z" transform="translate(-1982.141 -1192.578)" fill="#bdd1f9"/>
          <path id="Trazado_639664" data-name="Trazado 639664" d="M1964.193,1206.592h-3.63l.093-.5h3.63Z" transform="translate(-1960.563 -1202.813)" fill="#bdd1f9"/>
          <path id="Trazado_639665" data-name="Trazado 639665" d="M1988.3,1206.592h-4.008l.094-.5h4.008Z" transform="translate(-1980.219 -1202.813)" fill="#bdd1f9"/>
          <path id="Trazado_639666" data-name="Trazado 639666" d="M1969.721,1187.479h-5.569l.094-.5h5.569Z" transform="translate(-1963.535 -1186.981)" fill="#bdd1f9"/>
          <path id="Trazado_639667" data-name="Trazado 639667" d="M2002.886,1187.479h-3.21l.093-.5h3.21Z" transform="translate(-1992.96 -1186.981)" fill="#bdd1f9"/>
          <path id="Trazado_639668" data-name="Trazado 639668" d="M1967.253,1200.617h-5.569l.094-.5h5.569Z" transform="translate(-1961.491 -1197.864)" fill="#bdd1f9"/>
          <path id="Trazado_639669" data-name="Trazado 639669" d="M2000.419,1200.617h-3.21l.093-.5h3.211Z" transform="translate(-1990.917 -1197.864)" fill="#bdd1f9"/>
        </g>
      </g>
    </g>
    <g id="Grupo_905703" data-name="Grupo 905703" transform="translate(450.521 277.246)">
      <g id="Grupo_905700" data-name="Grupo 905700" transform="translate(0 142.529)">
        <path id="Trazado_639670" data-name="Trazado 639670" d="M2015.783,1663.5c-.127,1.737-2.578,1.756-5.36,1.433s-2.042.381-5.937.435-5.237-1.233-5.425-1.79c-.168-.494,1.708-.909,3.714-1.4.253-.061.506-.124.759-.188,2.263-.575,3.761-2.269,5.7-3.747,1.834-1.4,4.2-6.47,4.2-6.47l5.32-.24s-2.24,4.544-3.082,6.5a6.415,6.415,0,0,0-.069,3.655A6.8,6.8,0,0,1,2015.783,1663.5Z" transform="translate(-1999.051 -1651.533)" fill="#ffb27d"/>
        <path id="Trazado_639671" data-name="Trazado 639671" d="M2010.423,1713.928c-2.781-.323-2.042.381-5.937.435s-5.237-1.233-5.425-1.79c-.168-.494,1.708-.909,3.714-1.4l.024.037a10.912,10.912,0,0,0,5.715,1.024c2.614-.262,5.281-1.353,7.084-1.548a6.8,6.8,0,0,1,.184,1.807C2015.656,1714.232,2013.2,1714.251,2010.423,1713.928Z" transform="translate(-1999.051 -1700.53)" fill="#233862"/>
      </g>
      <g id="Grupo_905701" data-name="Grupo 905701" transform="translate(36.743 139.331)">
        <path id="Trazado_639672" data-name="Trazado 639672" d="M2229.767,1648.43c-.125,1.737-2.577,1.759-5.358,1.439s-2.042.383-5.936.442-5.238-1.228-5.427-1.784c-.169-.494,1.707-.911,3.713-1.4.252-.061.505-.125.759-.189,2.262-.578,3.758-2.272,5.693-3.753,1.832-1.4,0-9.706,0-9.706l5.852-.57s-.281,6.991-.277,10.17a17.86,17.86,0,0,0,.795,3.547A6.821,6.821,0,0,1,2229.767,1648.43Z" transform="translate(-2213.035 -1632.907)" fill="#ffb27d"/>
        <path id="Trazado_639673" data-name="Trazado 639673" d="M2224.409,1716.033c-2.782-.32-2.042.383-5.936.442s-5.238-1.228-5.427-1.784c-.169-.494,1.707-.911,3.713-1.4l.023.037a10.917,10.917,0,0,0,5.716,1.018c2.614-.265,5.28-1.359,7.083-1.556a6.82,6.82,0,0,1,.186,1.807C2229.642,1716.331,2227.191,1716.352,2224.409,1716.033Z" transform="translate(-2213.035 -1699.071)" fill="#233862"/>
      </g>
      <path id="Trazado_639674" data-name="Trazado 639674" d="M2209.4,832.822c-1.007-4.143.453-6.073,1.771-7.1a6.28,6.28,0,0,1,2.067-3.039,7.464,7.464,0,0,1,4.039-.773,1.891,1.891,0,0,0-.852-.4,6.261,6.261,0,0,1,2.234.583c9.615-3.705,11.126,10.453,10.924,13.742s-.174,7.163,4.829,9.754c9.544,4.945-3.172,23.578-3.172,23.578.243-2.658-12.021-16.685-18.42-20.885-1.557-2.293-2.111-6.344-2.153-6.663a17.507,17.507,0,0,0,1.31,6.028C2209.061,844.96,2208.629,838.515,2209.4,832.822Z" transform="translate(-2173.002 -821.477)" fill="#a9453d"/>
      <path id="Trazado_639675" data-name="Trazado 639675" d="M2233.146,933.087c-.032.014,3.089,1.635,5.437.993,2.208-.6,3.651-3.466,3.621-3.472-.935-.186-1.2-1.471-1.185-6.994l-.423.083-7.109,1.408s.162,2.237.166,4.345C2233.658,931.22,2233.551,932.9,2233.146,933.087Z" transform="translate(-2192.949 -906.076)" fill="#ffb27d"/>
      <path id="Trazado_639676" data-name="Trazado 639676" d="M2235.135,925.507s.162,2.237.167,4.345c3.979-.112,6.081-3.741,6.942-5.753Z" transform="translate(-2194.597 -906.478)" fill="#ed975d"/>
      <path id="Trazado_639677" data-name="Trazado 639677" d="M2066.281,1287.037a1.744,1.744,0,0,0,1.581,2.272l2.777.13,2.939.09a2.361,2.361,0,0,0,1.9-.868,82.626,82.626,0,0,0,13.945-26.4q.185-.586.391-1.187c2.892-8.434,8.888-19.02,12.048-28.6.5-1.526.954-2.963,1.36-4.323q.195-.653.376-1.284a101.621,101.621,0,0,0,3.624-19.079l-22.817.183A502.58,502.58,0,0,1,2066.281,1287.037Z" transform="translate(-2054.667 -1141.451)" fill="#2a4e96"/>
      <path id="Trazado_639678" data-name="Trazado 639678" d="M2174.9,989.856c.057,10.858-1.593,15.516-1.593,15.516a30.659,30.659,0,0,0,21.38,1.31c.137-.043,8.307-2.356,8.307-2.356-.194-.44-1.808-7.7-2-8.108-2.451-5.264-3.119-7.475-3.41-9.093a34.427,34.427,0,0,1-.283-9.1,72.985,72.985,0,0,1,2.816-14.285,74.147,74.147,0,0,1-9.419-3.219,7.356,7.356,0,0,1-5.081,1.885c-2.313-.051-3.063-1.041-2.943-2.122-2.464,1.371-4.431,2.667-4.431,2.667-2.094,3.639-6.343,7.172-6.651,12.754C2171.513,977.079,2174.893,989.552,2174.9,989.856Z" transform="translate(-2141.961 -936.451)" fill="#fff"/>
      <path id="Trazado_639679" data-name="Trazado 639679" d="M2288.592,1048.522c1,1.412,2.909,9.992,7.667,11.07-2.451-6.115-4.312-8.8-4.6-10.676a46.38,46.38,0,0,1-.282-10.566c-1.593-2.791-2.781-4.705-2.781-4.705-.125-.451-2.531-7.89-3.3-1.241S2287.478,1046.943,2288.592,1048.522Z" transform="translate(-2236.035 -993.907)" fill="#5f9aa8"/>
      <path id="Trazado_639680" data-name="Trazado 639680" d="M2212.275,867.307s9.412.155,9.419-5.708,1.226-9.792-4.783-10.139-7.179,1.889-7.658,3.845S2209.827,867.116,2212.275,867.307Z" transform="translate(-2173.066 -846.283)" fill="#ffb27d"/>
      <path id="Trazado_639681" data-name="Trazado 639681" d="M2229.426,845.05s2.577,6.878,6.532,7.9,5.67-.043,5.67-.043a11.2,11.2,0,0,1-3.663-6.617S2231.37,841.776,2229.426,845.05Z" transform="translate(-2189.868 -840.015)" fill="#a9453d"/>
      <path id="Trazado_639682" data-name="Trazado 639682" d="M2210.157,848.64a8.312,8.312,0,0,0-2.394,3.029c-.469,1.493-.68,4.566-1.576,4.462,0,0-1.941-4.675.24-7.32C2208.741,846.006,2210.157,848.64,2210.157,848.64Z" transform="translate(-2169.96 -843.046)" fill="#a9453d"/>
      <path id="Trazado_639683" data-name="Trazado 639683" d="M2119.7,1176.382l-4.446,13.554,2.536,1.017,7.35-11.975Z" transform="translate(-2095.303 -1115.441)" fill="#ffb27d"/>
      <path id="Trazado_639684" data-name="Trazado 639684" d="M2147.8,971.168s-5.242,2.08-6.759,5.323-3.814,25-4.729,27.23-1.6,4-1.6,4,2.643,2.227,5.3,2.391S2147.8,971.168,2147.8,971.168Z" transform="translate(-2111.418 -945.464)" fill="#f99746"/>
      <path id="Trazado_639685" data-name="Trazado 639685" d="M2167.377,960.286s-5.446,13.453-5.606,16.175-.641,44.522-.641,44.522.32,1.922-3.363,1.121-4.645-1.6-4.645-1.6,3.523-25.784,2.563-34.753,7.367-23.6,7.367-23.6Z" transform="translate(-2126.667 -936.451)" fill="#f99746"/>
      <path id="Trazado_639686" data-name="Trazado 639686" d="M2092.063,1369.173l3.19.1a1.844,1.844,0,0,0,1.479-.668,82.346,82.346,0,0,0,14.116-26.611q.185-.586.391-1.187c2.892-8.434,8.888-19.02,12.048-28.6.5-1.526.955-2.963,1.36-4.322.13-.436.256-.863.376-1.284l-3.36-2.55s-10.088,16.336-13.211,31.708C2105.74,1349.109,2094.875,1365.177,2092.063,1369.173Z" transform="translate(-2076.092 -1221.184)" fill="#1e3d70"/>
      <path id="Trazado_639687" data-name="Trazado 639687" d="M2251.594,1316.275c-.054,7.072.281,22.836,1.142,30.542a1.392,1.392,0,0,0,1.385,1.237h2.381c1,0,1.754-.007,2.253-.015a.916.916,0,0,0,.883-.74c2.367-12.047,4.062-22.056,5.3-30.7,1.038-7.239,1.96-13.445,2.67-18.788.714-5.376,1.211-9.878,1.388-13.682q.041-.9.059-1.747t.01-1.658l-19.715-1.922C2249.6,1291.9,2251.626,1311.93,2251.594,1316.275Z" transform="translate(-2206.373 -1200.272)" fill="#2a4e96"/>
      <path id="Trazado_639688" data-name="Trazado 639688" d="M2290.986,1373.748c.9,0,1.6-.006,2.093-.012a1.112,1.112,0,0,0,1.074-.9c2.351-11.978,4.037-21.938,5.272-30.549,1.038-7.239,1.96-13.445,2.67-18.788.714-5.376,1.211-9.878,1.388-13.682l-7.234,4.255s4.617,1.629,2.855,13.96S2293.438,1372,2290.986,1373.748Z" transform="translate(-2240.858 -1225.966)" fill="#1e3d70"/>
      <path id="Trazado_639689" data-name="Trazado 639689" d="M2253.067,1021.505s1.388,5.018,6.193,4.377,11.637-3.523,11.637-3.523-2.053-6.488-4.606-15.011c-3.091-10.319-6.917-23.621-8.72-32.011a51.853,51.853,0,0,1-.98-5.72l-3.986-7.734s-5.943,13.339-6.264,16.7S2253.067,1021.505,2253.067,1021.505Z" transform="translate(-2203.87 -937.773)" fill="#f99746"/>
      <path id="Trazado_639690" data-name="Trazado 639690" d="M2223.925,978.083l-5.261-16.2a81.136,81.136,0,0,1,9.98,3.658s2.085,2.687,3.375,8.888c0,0,1.363,14.887-1.68,20.332,0,0-9.609,1.922-24.984-3.363v-3.523s16.816.881,20.259,1.281Z" transform="translate(-2169.929 -937.773)" fill="#ffb27d"/>
      <path id="Trazado_639691" data-name="Trazado 639691" d="M2286.784,1050.532c.215,5.445,1.5,16.015,12.919,21.674.031.014.061.031.091.043-3.091-10.319-6.917-23.621-8.72-32.011C2288.977,1043.373,2286.667,1047.534,2286.784,1050.532Z" transform="translate(-2237.374 -1002.674)" fill="#ed7d2b"/>
      <path id="Trazado_639692" data-name="Trazado 639692" d="M2280.147,961.882s9.752.687,12.1,5.919,3.1,22.635.107,27.76c0,0-4.116,1.172-11.4-.189l-.269-.051s-2.322-5.685-.24-6.807c0,0,6.139.32,5.5-1.708S2280.147,961.882,2280.147,961.882Z" transform="translate(-2231.413 -937.773)" fill="#f99746"/>
      <g id="Grupo_905702" data-name="Grupo 905702" transform="translate(23.126 47.299)">
        <path id="Trazado_639693" data-name="Trazado 639693" d="M2140.469,1101.913l.287.923,16-4.978a.615.615,0,0,0,.108-.566.453.453,0,0,0-.4-.357Z" transform="translate(-2139.312 -1096.935)" fill="#a9453d"/>
        <path id="Trazado_639694" data-name="Trazado 639694" d="M2133.729,1126.8l1.157-.873.287.923Z" transform="translate(-2133.729 -1120.948)" fill="#a9453d"/>
      </g>
      <path id="Trazado_639695" data-name="Trazado 639695" d="M2095.538,1253.157s-4.059,2.243-4.594,3.953-.167,5.288.478,5.235,1.605-3.846,2.14-4.113,1.282-1.068,1.282-.481-.534,1.656-.267,1.816,1.122-1.495,1.709-1.816.834-2.962,1.406-3.671S2095.538,1253.157,2095.538,1253.157Z" transform="translate(-2074.952 -1179.033)" fill="#ffb27d"/>
      <path id="Trazado_639696" data-name="Trazado 639696" d="M2161.033,1103.949s-3.631-2.236-5.154-1.892-5.4,3.155-3.537,3.764,3.379-.03,4.1.412,1.248,1.25,4.594,1.239S2161.033,1103.949,2161.033,1103.949Z" transform="translate(-2125.608 -1053.848)" fill="#ffb27d"/>
    </g>
    <g id="Grupo_905713" data-name="Grupo 905713" transform="translate(285.115 311.546)">
      <g id="Grupo_905707" data-name="Grupo 905707" transform="translate(6.786 39.709)" opacity="0.6">
        <g id="Grupo_905704" data-name="Grupo 905704" transform="translate(17.534 39.565)">
          <path id="Trazado_639697" data-name="Trazado 639697" d="M1178.086,1525.188h-.06a.629.629,0,0,1-.629-.643l.953-41.314,2.808-.328-2.394,41.645A.679.679,0,0,1,1178.086,1525.188Z" transform="translate(-1177.397 -1482.903)" fill="#77a4e5"/>
        </g>
        <g id="Grupo_905705" data-name="Grupo 905705" transform="translate(1.172 39.565)">
          <path id="Trazado_639698" data-name="Trazado 639698" d="M1082.8,1525.188h-.06a.629.629,0,0,1-.629-.643l.953-41.314,2.808-.328-2.394,41.645A.679.679,0,0,1,1082.8,1525.188Z" transform="translate(-1082.108 -1482.903)" fill="#77a4e5"/>
        </g>
        <g id="Grupo_905706" data-name="Grupo 905706" transform="translate(43.938 39.565)">
          <path id="Trazado_639699" data-name="Trazado 639699" d="M1334.242,1525.188h.06a.629.629,0,0,0,.629-.643l-.953-41.314-2.808-.328,2.395,41.645A.679.679,0,0,0,1334.242,1525.188Z" transform="translate(-1331.169 -1482.903)" fill="#77a4e5"/>
        </g>
        <path id="Trazado_639700" data-name="Trazado 639700" d="M1075.283,1289.816v-28.31a9.02,9.02,0,0,1,9.02-9.02h20.4a9.02,9.02,0,0,1,9.02,9.02V1290.9Z" transform="translate(-1075.283 -1252.486)" fill="#77a4e5"/>
        <path id="Rectángulo_295888" data-name="Rectángulo 295888" d="M0,0H42.091a0,0,0,0,1,0,0V4.47a0,0,0,0,1,0,0H4.47A4.47,4.47,0,0,1,0,0V0A0,0,0,0,1,0,0Z" transform="translate(0 37.33)" fill="#77a4e5"/>
        <path id="Rectángulo_295889" data-name="Rectángulo 295889" d="M2.235,0h29.33A2.235,2.235,0,0,1,33.8,2.235v0A2.235,2.235,0,0,1,31.565,4.47H2.235A2.235,2.235,0,0,1,0,2.235v0A2.235,2.235,0,0,1,2.235,0Z" transform="translate(15.013 37.33)" fill="#77a4e5"/>
      </g>
      <g id="Grupo_905712" data-name="Grupo 905712">
        <path id="Trazado_639701" data-name="Trazado 639701" d="M1459.929,1585.3c.285,1.423,2.313,1.185,4.579.632s1.727.1,4.953-.252,4.2-1.56,4.3-2.039c.088-.426-1.505-.576-3.215-.772-.215-.024-.431-.051-.647-.077-1.93-.242-3.343-1.488-5.1-2.51-1.661-.969-4.139-4.916-4.139-4.916l-4.423.35s2.321,3.526,3.219,5.058a5.345,5.345,0,0,1,.434,3.014A5.679,5.679,0,0,0,1459.929,1585.3Z" transform="translate(-1384.042 -1480.211)" fill="#ffb27d"/>
        <path id="Trazado_639702" data-name="Trazado 639702" d="M1481.966,1622.123c2.266-.554,1.728.1,4.953-.252s4.2-1.56,4.3-2.039c.088-.426-1.506-.576-3.215-.772l-.016.033a9.093,9.093,0,0,1-4.619,1.436c-2.188.053-4.506-.574-6.017-.549a5.678,5.678,0,0,0,.034,1.513C1477.672,1622.914,1479.7,1622.677,1481.966,1622.123Z" transform="translate(-1401.5 -1516.406)" fill="#233862"/>
        <path id="Trazado_639703" data-name="Trazado 639703" d="M1255.117,1626.369c-.879,1.155.641,2.519,2.555,3.852s1.064,1.365,3.466,3.547,3.95,2.12,4.374,1.876c.377-.215-.564-1.51-1.547-2.922-.124-.177-.247-.357-.37-.536-1.1-1.607-1.1-3.491-1.489-5.482-.372-1.886,2.708-8.818,2.708-8.818l-4.948-.623a55.36,55.36,0,0,1-1.2,5.873c-.327.992-1.7,1.646-2.435,2.206A5.676,5.676,0,0,0,1255.117,1626.369Z" transform="translate(-1217.24 -1514.918)" fill="#ffb27d"/>
        <path id="Trazado_639704" data-name="Trazado 639704" d="M1257.672,1669.193c1.914,1.333,1.064,1.365,3.466,3.547s3.95,2.12,4.374,1.876c.377-.215-.564-1.51-1.547-2.922l-.035.01a9.092,9.092,0,0,1-4.132-2.514c-1.487-1.606-2.55-3.759-3.568-4.875a5.679,5.679,0,0,0-1.112,1.026C1254.238,1666.5,1255.758,1667.86,1257.672,1669.193Z" transform="translate(-1217.24 -1553.891)" fill="#233862"/>
        <path id="Trazado_639705" data-name="Trazado 639705" d="M1294.031,1426.54l-4.519,12.16-5.9,15.878a9.559,9.559,0,0,1-3.134-.286,13.6,13.6,0,0,1-3.032-1.475s1.638-17.048,4.694-26.835a17.426,17.426,0,0,1,2.63-5.687C1289.508,1414.7,1294.031,1426.54,1294.031,1426.54Z" transform="translate(-1235.947 -1350.526)" fill="#163560"/>
        <path id="Trazado_639706" data-name="Trazado 639706" d="M1136.421,1339.735c-2.961-.955-11.882-.385-20.365,1.275l-1.3-2.273-18.322-1.431s-6.046,13.407-2.736,21.95a3.1,3.1,0,0,0,3.1,2.087h.268s10.9-.006,14.445-.006c9.112,0,19.283-6.264,20.6-6.526,2.154-.431,3.015,3.877,5.169,8.4s20.245,20.03,20.245,20.03a15.925,15.925,0,0,0,3.929-.4,3.873,3.873,0,0,0,1.687-1.065S1143.1,1341.889,1136.421,1339.735Z" transform="translate(-1082.931 -1283.034)" fill="#2a4e96"/>
        <path id="Trazado_639707" data-name="Trazado 639707" d="M1074.013,1021.478c-2.579-.614-6.08.107-6.662.175-6.958.812-8.513,11.62-8,14.643.954,5.572-1.722,7.141-4.915,11.6-6.4,8.935-1.98,16.292,3.232,18.115,3.127,1.094,7.388-1.885,7.388-1.885.078.029,11.063-10.458,16.5-15.552C1090.69,1044.807,1080.584,1023.043,1074.013,1021.478Z" transform="translate(-1048.603 -1021.232)" fill="#233862"/>
        <path id="Trazado_639708" data-name="Trazado 639708" d="M1145.82,1130.51c.032.011-2.833,1.883-5.168,1.489-2.2-.369-4.521-3.235-4.492-3.244.888-.271,1.673-1.307,1.118-6.653l.417.039,7.02.674s.06,2.182.26,4.223C1145.142,1128.752,1145.409,1130.367,1145.82,1130.51Z" transform="translate(-1118.921 -1104.782)" fill="#ffb27d"/>
        <path id="Trazado_639709" data-name="Trazado 639709" d="M1152.124,1123.005s.06,2.182.26,4.223c-3.863.277-6.25-3.032-7.28-4.9Z" transform="translate(-1126.329 -1104.972)" fill="#ed975d"/>
        <path id="Trazado_639710" data-name="Trazado 639710" d="M1144.9,1063.823s-9.1,1.063-9.673-4.613-2.136-9.362,3.648-10.281,7.134,1.133,7.787,2.981S1147.255,1063.4,1144.9,1063.823Z" transform="translate(-1117.628 -1043.986)" fill="#ffb27d"/>
        <path id="Trazado_639711" data-name="Trazado 639711" d="M1132.856,1044.894s-4.394,6.29-8.124,7.658-5.495.509-5.495.509a15.433,15.433,0,0,0,2.367-5.822,2.779,2.779,0,0,1,1.815-2.154C1126.094,1044.15,1131.251,1042.72,1132.856,1044.894Z" transform="translate(-1104.904 -1039.885)" fill="#233862"/>
        <path id="Trazado_639712" data-name="Trazado 639712" d="M1177.4,1045.227a14.306,14.306,0,0,1,3.286,2.541,10.987,10.987,0,0,1,1.732,5.587s1.479-6.456-.89-8.805C1179.019,1042.059,1177.4,1045.227,1177.4,1045.227Z" transform="translate(-1153.081 -1039.755)" fill="#233862"/>
        <path id="Trazado_639713" data-name="Trazado 639713" d="M1115.641,1173.847c-.275,18.377-.075,14.537-2.086,16.281-.485.42-1.846.67-3.638.789-5.635.374-15.541-.555-15.918-1.6-1.3-3.6-.382-4.723-1.467-10.24-.113-.587-.253-1.222-.417-1.914-.9-3.789-1.784-5.078,1.424-11.165,2.909-5.514,6.05-9.919,6.322-9.757,7.675,4.556,8.175.656,8.175.656S1115.776,1164.883,1115.641,1173.847Z" transform="translate(-1081.746 -1133.059)" fill="#fff"/>
        <path id="Trazado_639714" data-name="Trazado 639714" d="M1288.522,1473.387l-6.034,16.539a10.193,10.193,0,0,1-3.746.477,4.692,4.692,0,0,1-2.49-1.112s1.844-18.837,4.9-28.623Z" transform="translate(-1234.957 -1385.212)" fill="#2a4e96"/>
        <path id="Trazado_639715" data-name="Trazado 639715" d="M1188.872,1160.08s7.9,1.339,8.825,4.739,7.709,22.137,7.709,22.137-5.339,1.973-7.194.119-6.453-17.207-6.453-17.207Z" transform="translate(-1162.582 -1136.238)" fill="#fff"/>
        <path id="Trazado_639716" data-name="Trazado 639716" d="M1115.967,1272.064c-5.635.374-15.541-.554-15.918-1.6-1.3-3.6-.382-4.723-1.467-10.24l2.643-6.018s-.375,6.887,2.139,9.129,10.291,4.327,11.512,6.2A6.852,6.852,0,0,1,1115.967,1272.064Z" transform="translate(-1087.796 -1214.206)" fill="#dfebfd"/>
        <g id="Grupo_905708" data-name="Grupo 905708" transform="translate(20.76 52.198)">
          <path id="Trazado_639717" data-name="Trazado 639717" d="M1202.5,1335.344a12.545,12.545,0,0,0,2.156,1.564,1.327,1.327,0,0,0,.749.008l-1.223-1.433Z" transform="translate(-1194.627 -1333.606)" fill="#ffb27d"/>
          <path id="Trazado_639718" data-name="Trazado 639718" d="M1198.624,1325.41l4.249,1.1a.7.7,0,0,1-.591.377,9.424,9.424,0,0,1-1.772-.122Z" transform="translate(-1191.419 -1325.378)" fill="#ffb27d"/>
          <path id="Trazado_639719" data-name="Trazado 639719" d="M1156.664,1327.6s6.066-2.7,7.205-2.342a15.228,15.228,0,0,1,4.517,2.554c.458.651-2.392-.081-3.281-.137a7.669,7.669,0,0,0-2.579,1.136,9.147,9.147,0,0,1-4.737,1.463Z" transform="translate(-1156.664 -1325.221)" fill="#ffb27d"/>
        </g>
        <path id="Trazado_639720" data-name="Trazado 639720" d="M1053.879,1156.266s-8.583,1.611-10.173,3.99c-3.469,5.19-10.854,26.7-6.718,29.58,4.657,3.248,21.2.849,21.2.849s.55-2.573-.215-3.817-13.21-3.255-13.785-3.829,5.674-8.88,5.009-10.469C1047.062,1167.477,1053.879,1156.266,1053.879,1156.266Z" transform="translate(-1035.764 -1133.079)" fill="#fff"/>
        <g id="Grupo_905709" data-name="Grupo 905709" transform="translate(51.28 53.656)">
          <path id="Trazado_639721" data-name="Trazado 639721" d="M1335.171,1333.711s6.006,1.622,6.624,2.554a14.271,14.271,0,0,1,1.776,4.526c-.052.744-1.691-1.472-2.306-2.038a7.177,7.177,0,0,0-2.547-.7,7.589,7.589,0,0,1-3.315-1.514,1.819,1.819,0,0,0-.994-.222Z" transform="translate(-1334.409 -1333.711)" fill="#ffb27d"/>
          <path id="Trazado_639722" data-name="Trazado 639722" d="M1374.368,1358.1a11.761,11.761,0,0,0,.643,2.411,1.247,1.247,0,0,0,.54.449l-.043-1.765Z" transform="translate(-1367.507 -1353.913)" fill="#ffb27d"/>
          <path id="Trazado_639723" data-name="Trazado 639723" d="M1377.423,1348.588l2.442,3.309a.659.659,0,0,1-.653-.075,8.825,8.825,0,0,1-1.216-1.135Z" transform="translate(-1370.037 -1346.033)" fill="#ffb27d"/>
          <path id="Trazado_639724" data-name="Trazado 639724" d="M1340.2,1350.2a3.785,3.785,0,0,0,1.668,1.836c1.112.484,1.928,1.212,2.106.95s-.842-1.639-.842-1.639Z" transform="translate(-1339.202 -1347.37)" fill="#ffb27d"/>
        </g>
        <path id="Trazado_639725" data-name="Trazado 639725" d="M1248.865,1290.8l12.631,7.986a10.45,10.45,0,0,1-1.769,1.937c-2.34.858-12.859.036-16.461-5.374Z" transform="translate(-1207.635 -1244.51)" fill="#fff"/>
        <g id="Grupo_905711" data-name="Grupo 905711" transform="translate(23.306 54.371)">
          <path id="Trazado_639726" data-name="Trazado 639726" d="M1245.242,1338.866c.745,0,8.16-.514,8.16-.514a3.509,3.509,0,0,0,.244,2.017l-7.225,1.382-1.485-.435Z" transform="translate(-1232.324 -1338.27)" fill="#f9ddbf"/>
          <g id="Grupo_905710" data-name="Grupo 905710">
            <path id="Trazado_639727" data-name="Trazado 639727" d="M1172.042,1342.536l12.367-1.191s-.435,2.287,1.179,2.885l-13.634,1S1170.856,1343.681,1172.042,1342.536Z" transform="translate(-1171.491 -1340.75)" fill="#f99746"/>
            <path id="Trazado_639728" data-name="Trazado 639728" d="M1253.8,1338.122l-8.357.643s.063-.289.219-.292,8.3-.6,8.3-.6l-.028.228Z" transform="translate(-1232.747 -1337.877)" fill="#f99746"/>
            <path id="Trazado_639729" data-name="Trazado 639729" d="M1250.922,1350.484l7.36-1.4-.067-.19-7.844,1.5Z" transform="translate(-1236.826 -1347.003)" fill="#f99746"/>
          </g>
        </g>
      </g>
    </g>
    <g id="Grupo_905722" data-name="Grupo 905722" transform="translate(216.636 303.659)">
      <g id="Grupo_905717" data-name="Grupo 905717" transform="translate(0 37.986)">
        <g id="Grupo_905714" data-name="Grupo 905714" transform="translate(19.465 44.178)">
          <path id="Trazado_639730" data-name="Trazado 639730" d="M751.082,1501.025h-.066a.7.7,0,0,1-.7-.718l1.058-46.131,3.117-.366-2.658,46.5A.756.756,0,0,1,751.082,1501.025Z" transform="translate(-750.318 -1453.81)" fill="#77a4e5"/>
        </g>
        <g id="Grupo_905715" data-name="Grupo 905715" transform="translate(1.301 44.178)">
          <path id="Trazado_639731" data-name="Trazado 639731" d="M645.3,1501.025h-.066a.7.7,0,0,1-.7-.718l1.058-46.131,3.117-.366-2.658,46.5A.756.756,0,0,1,645.3,1501.025Z" transform="translate(-644.537 -1453.81)" fill="#77a4e5"/>
        </g>
        <g id="Grupo_905716" data-name="Grupo 905716" transform="translate(48.776 44.178)">
          <path id="Trazado_639732" data-name="Trazado 639732" d="M924.431,1501.025h.066a.7.7,0,0,0,.7-.718l-1.058-46.131-3.117-.366,2.658,46.5A.756.756,0,0,0,924.431,1501.025Z" transform="translate(-921.02 -1453.81)" fill="#77a4e5"/>
        </g>
        <path id="Trazado_639733" data-name="Trazado 639733" d="M636.961,1238.21V1206.6a10.042,10.042,0,0,1,10.013-10.072h22.643a10.042,10.042,0,0,1,10.013,10.072v32.819Z" transform="translate(-636.961 -1196.527)" fill="#77a4e5"/>
        <path id="Rectángulo_295890" data-name="Rectángulo 295890" d="M0,0H46.725a0,0,0,0,1,0,0V4.991a0,0,0,0,1,0,0H4.991A4.991,4.991,0,0,1,0,0V0A0,0,0,0,1,0,0Z" transform="translate(0 41.683)" fill="#77a4e5"/>
        <rect id="Rectángulo_295891" data-name="Rectángulo 295891" width="37.521" height="4.991" rx="2.495" transform="translate(16.666 41.683)" fill="#77a4e5"/>
      </g>
      <g id="Grupo_905721" data-name="Grupo 905721" transform="translate(9.903)">
        <path id="Trazado_639734" data-name="Trazado 639734" d="M824.739,1128.53s-1.9,1.612-2.307,5.794c-.313,3.175,1.89,27.822,3.547,29.781,4.663,5.512,10.507,3.183,12.8,4.019l2.159-1.94s-7.593-5.6-8.171-7.432C830.54,1151.713,831.919,1131.188,824.739,1128.53Z" transform="translate(-800.464 -1102.219)" fill="#f9ddbf"/>
        <path id="Trazado_639735" data-name="Trazado 639735" d="M745.142,984.033s.128-4.52-5.833-5.407-7.609.507-8.622,2.027-2.914,7.729-2.724,10.2,6.99,5.526,6.879,6.968S745.142,984.033,745.142,984.033Z" transform="translate(-722.229 -977.825)" fill="#163560"/>
        <path id="Trazado_639736" data-name="Trazado 639736" d="M986.959,1653.538c-.193,1.527,1.89,1.977,4.313,2.19s1.672.691,4.977,1.427,4.672-.142,4.929-.591c.229-.4-1.3-1.09-2.919-1.868-.2-.1-.409-.2-.613-.3-1.826-.9-2.807-2.63-4.2-4.254-1.318-1.538-2.449-6.348-2.449-6.348l-4.487-1.149s1.117,4.333,1.493,6.179a5.757,5.757,0,0,1-.576,3.178A6.108,6.108,0,0,0,986.959,1653.538Z" transform="translate(-936.395 -1528.058)" fill="#ffb27d"/>
        <path id="Trazado_639737" data-name="Trazado 639737" d="M993.364,1700.863c2.424.213,1.672.692,4.977,1.427s4.672-.142,4.929-.591c.229-.4-1.3-1.09-2.919-1.868l-.027.028a9.322,9.322,0,0,1-5.042-.124c-2.18-.689-4.26-2.106-5.761-2.594a6.109,6.109,0,0,0-.471,1.532C988.857,1700.2,990.941,1700.651,993.364,1700.863Z" transform="translate(-938.486 -1573.194)" fill="#233862"/>
        <path id="Trazado_639738" data-name="Trazado 639738" d="M761.756,1322.993s30,3.112,34.939,7.7,4.063,47.369,4.063,47.369c-.77.8-1.338.78-2.554.685a17,17,0,0,1-3.547-1.1s-6.424-21-6.5-25.868-1.1-13.117-3.136-13.6-26.323,2.236-28.986-5.434a16.533,16.533,0,0,1,1.758-13.981Z" transform="translate(-744.783 -1259.791)" fill="#ed7d2b"/>
        <path id="Trazado_639739" data-name="Trazado 639739" d="M706.317,1170.113a13.65,13.65,0,0,0,7.491,2.341c6.948.253,15.619-.576,17.325-2.188a2.936,2.936,0,0,0,.72-1.98c.188-2.666-1.085-7.053-1.94-10.683-.555-2.358-.933-4.4-.623-5.437.943-3.17,3.871-9.63,4.124-11.753s-2.281-13.5-5.783-14.906-17.023,0-17.023,0c-5.282,1.072-5.5,12.333-3.75,21.917.046.247.091.492.139.736C708.9,1157.892,702.706,1167.693,706.317,1170.113Z" transform="translate(-703.355 -1099.196)" fill="#f9ddbf"/>
        <g id="Grupo_905718" data-name="Grupo 905718" transform="translate(9.012 5.323)">
          <path id="Trazado_639740" data-name="Trazado 639740" d="M768.848,1094.233c-.095.617-1.786,1.619-5.4.667-3.463-.913-3.878-2.041-3.878-2.785,0-.881,1.505-2.069,1.486-7.493l.415.082,6.981,1.383s-.159,2.2-.163,4.267C768.285,1092.091,769.006,1093.2,768.848,1094.233Z" transform="translate(-757.433 -1071.173)" fill="#ffb27d"/>
          <path id="Trazado_639741" data-name="Trazado 639741" d="M777.622,1086.48s-.159,2.2-.163,4.267c-3.907-.11-5.972-3.674-6.818-5.649Z" transform="translate(-766.602 -1071.568)" fill="#ed975d"/>
          <path id="Trazado_639742" data-name="Trazado 639742" d="M773.779,1029.328s-9.243.152-9.249-5.605-1.2-9.615,4.7-9.956,7.05,1.855,7.52,3.776S776.183,1029.14,773.779,1029.328Z" transform="translate(-761.453 -1012.455)" fill="#ffb27d"/>
          <path id="Trazado_639743" data-name="Trazado 639743" d="M759.1,1007.471s-2.531,6.755-6.415,7.754-5.569-.042-5.569-.042a11,11,0,0,0,3.6-6.5S757.191,1004.256,759.1,1007.471Z" transform="translate(-747.117 -1006.3)" fill="#163560"/>
          <path id="Trazado_639744" data-name="Trazado 639744" d="M813.251,1011a8.162,8.162,0,0,1,2.351,2.974c.461,1.466.668,4.484,1.548,4.382,0,0,1.907-4.591-.236-7.188C814.641,1008.41,813.251,1011,813.251,1011Z" transform="translate(-801.895 -1009.277)" fill="#163560"/>
        </g>
        <path id="Trazado_639745" data-name="Trazado 639745" d="M857.916,1644.537c-.022,1.54,2.1,1.747,4.529,1.678s1.738.495,5.1.844,4.626-.679,4.832-1.155c.183-.422-1.408-.934-3.108-1.52-.214-.073-.428-.149-.643-.225-1.914-.682-3.081-2.29-4.644-3.743-1.48-1.376,1.787-8.033,1.787-8.033l-4.282-2.119s-.812,4.753-1.858,8.91c-.27,1.074-1.151,2.844-1.42,3.784A6.116,6.116,0,0,0,857.916,1644.537Z" transform="translate(-829.879 -1517.802)" fill="#ffb27d"/>
        <path id="Trazado_639746" data-name="Trazado 639746" d="M707.265,1253.164c1.294.866,3.424,3.346,7.307,3.485,6.409-1.458,13.7-3.155,18.046-4.168.188-2.666-1.085-7.053-1.94-10.683-5.061,1.545-12.593-3.719-15.125-5.8-2.661-2.186-2.577-9.469-2.577-9.469l-5.354,5.09c.045.247.091.492.139.735C709.661,1242.087,703.654,1250.745,707.265,1253.164Z" transform="translate(-704.119 -1183.391)" fill="#f2ccaa"/>
        <path id="Trazado_639747" data-name="Trazado 639747" d="M862.445,1707.448c2.432-.068,1.738.494,5.1.844s4.626-.679,4.832-1.155c.183-.422-1.408-.934-3.108-1.52l-.024.031a9.331,9.331,0,0,1-5.024.458c-2.242-.433-4.467-1.6-6.013-1.914a6.116,6.116,0,0,0-.3,1.577C857.894,1707.309,860.014,1707.516,862.445,1707.448Z" transform="translate(-829.879 -1579.034)" fill="#233862"/>
        <path id="Trazado_639748" data-name="Trazado 639748" d="M710.656,1344.969c7.616-.217,30.361,1.6,34.73,4.893,5.378,4.055-9.987,47.908-9.987,47.908a19.856,19.856,0,0,1-2.349.109,7.534,7.534,0,0,1-3.434-1.02s.059-25.811,1.855-30.748c1.659-4.562,2.675-6.176.6-6.448s-28.016,3.036-30.181-4.794a19.4,19.4,0,0,1,.807-11.777S703.63,1345.17,710.656,1344.969Z" transform="translate(-700.155 -1279.939)" fill="#f99746"/>
        <path id="Trazado_639749" data-name="Trazado 639749" d="M701.888,1128.449s-5.29.449-5.7,4.63c-.312,3.175-2.614,25.694-.957,27.653,4.663,5.512,20.211,6.68,22.5,7.516l.63-2.606s-16.6-8.362-16.345-10.263S706.961,1127.7,701.888,1128.449Z" transform="translate(-694.635 -1102.139)" fill="#f9ddbf"/>
        <path id="Trazado_639750" data-name="Trazado 639750" d="M727.8,978.376s.38-2.412-2.966-3.034-3.408,6.482-3.766,8.2.535,2.739,1.811,2.843S727.8,978.376,727.8,978.376Z" transform="translate(-716.465 -975.303)" fill="#163560"/>
        <g id="Grupo_905719" data-name="Grupo 905719" transform="translate(22.491 61.47)">
          <path id="Trazado_639751" data-name="Trazado 639751" d="M827.033,1339.289s4.727-1.338,5.853-1.025,4.984,2.867,4.441,3.561-3.941-.415-5.5-.205-2.773.982-3.9.815a13.062,13.062,0,0,1-2.3-.61Z" transform="translate(-825.62 -1337.371)" fill="#ffb27d"/>
          <path id="Trazado_639752" data-name="Trazado 639752" d="M833.848,1335.205a17.711,17.711,0,0,0,2.971-1.865.184.184,0,0,1,.287.033c.176.278.341.815-.47,1.349A4.363,4.363,0,0,1,833.848,1335.205Z" transform="translate(-832.435 -1333.287)" fill="#ffb27d"/>
        </g>
        <g id="Grupo_905720" data-name="Grupo 905720" transform="translate(38.312 63.964)">
          <path id="Trazado_639753" data-name="Trazado 639753" d="M919.914,1347.815s4.905.269,5.869.93,3.784,4.329,3.045,4.81-3.593-1.672-5.14-1.981-2.942.028-3.953-.495a13.062,13.062,0,0,1-1.981-1.324Z" transform="translate(-917.755 -1347.815)" fill="#ffb27d"/>
        </g>
      </g>
    </g>
    <g id="Grupo_905728" data-name="Grupo 905728" transform="translate(145.927 295.582)">
      <g id="Grupo_905723" data-name="Grupo 905723" transform="translate(17.115)">
        <path id="Trazado_639754" data-name="Trazado 639754" d="M634.688,1681.894H614.729c-.96-1.171-.606-5.494-.461-6.906.03-.284.05-.45.05-.45s6.816-5.451,7.752-1.277c.029.131.063.259.1.385,1.18,3.9,6.47,5.679,9.525,6.173A3.46,3.46,0,0,1,634.688,1681.894Z" transform="translate(-564.418 -1544.034)" fill="#1b3051"/>
        <path id="Trazado_639755" data-name="Trazado 639755" d="M356.432,1353.435c.721,0,34.189,6.284,39.724,13.137,2.765,3.423,3.177,42.959,3.177,42.959s-3.422,4.242-10.811,1.779c0,0-5.418-27.05-5.018-35.254.111-2.269-22.867-.328-27.073-1.417s-14.481-10.237-12.217-14.694S356.432,1353.435,356.432,1353.435Z" transform="translate(-340.622 -1280.428)" fill="#233862"/>
        <path id="Trazado_639756" data-name="Trazado 639756" d="M553.7,1342.619a12.337,12.337,0,0,0,4.338,2.371,19.656,19.656,0,0,1,3.188.969c1.988.912,5.757,4.984,5.407,5.389-1.124,1.3-5.652-2.082-6.518-1.843s1.421,2.2.514,2.737c-.474.279-1.367-1.418-2.2-1.657-1.13-.323-1.88-2.03-2.218-2.146a26.979,26.979,0,0,1-3.409-2.693Z" transform="translate(-513.659 -1271.469)" fill="#ffb27d"/>
        <path id="Trazado_639757" data-name="Trazado 639757" d="M686.059,1681.894H666.1c-.96-1.171-.606-5.494-.461-6.906.03-.284.05-.45.05-.45s6.816-5.451,7.752-1.277c.029.131.063.259.1.385,1.179,3.9,6.47,5.679,9.525,6.173A3.46,3.46,0,0,1,686.059,1681.894Z" transform="translate(-606.968 -1544.034)" fill="#1e3c68"/>
        <path id="Trazado_639758" data-name="Trazado 639758" d="M413.868,1353.435c.72,0,34.188,6.284,39.724,13.137,2.766,3.423,3.177,42.959,3.177,42.959s-3.422,4.242-10.811,1.779c0,0-5.418-27.05-5.018-35.254.111-2.269-22.867-.328-27.073-1.417s-14.481-10.237-12.217-14.694S413.868,1353.435,413.868,1353.435Z" transform="translate(-388.196 -1280.428)" fill="#2b478b"/>
        <path id="Trazado_639759" data-name="Trazado 639759" d="M408.776,1030.23a32.476,32.476,0,0,1-7.114-1.548c-2.727-.885-4.926-2.178-3.509-4.671,1.306-2.3,3.419-7.43,3.276-11.681l5.075,4.09,3.447,2.778a41.342,41.342,0,0,1-.391,4.508q-.1.785-.245,1.692a1.23,1.23,0,0,0,.567,1.235l.078.048A1.925,1.925,0,0,1,408.776,1030.23Z" transform="translate(-385.198 -997.894)" fill="#ffb27d"/>
        <path id="Trazado_639760" data-name="Trazado 639760" d="M439.7,1038.088a8.386,8.386,0,0,1-.127,2.79,14.417,14.417,0,0,1-5.946-2.953c1.565-.43,2.134-2.12,3.3-1.963Z" transform="translate(-414.952 -1017.461)" fill="#ed975d"/>
        <path id="Trazado_639761" data-name="Trazado 639761" d="M417.345,956.962s-11.822,1.964-12.931-5.417-3.383-12.1,4.118-13.664,9.394,1.029,10.364,3.4S420.391,956.261,417.345,956.962Z" transform="translate(-389.749 -935.834)" fill="#ffb27d"/>
        <path id="Trazado_639762" data-name="Trazado 639762" d="M408,930.443c.508,1.777-.851,3.942-3.131,4.655-3.385,1.058-2.637,5.211-4.161,5.154s-2.138-2.387-3.5-.525c-1.161,1.588.966,3.471.82,4.342-.251,1.5-2.594,4.554-4.7,4.4s-6.06-10.184-5.27-13.288,3.95-6.376,6.94-6.827,7.143.84,8.1.84S407.726,929.483,408,930.443Z" transform="translate(-377.115 -928.26)" fill="#2b478b"/>
        <path id="Trazado_639763" data-name="Trazado 639763" d="M358.661,1115.185c-.2,1.7-.556,2.862-1.12,3.239-1.762,1.18-4.1,2.648-6.707,4.1-9.247,5.157-21.908,10.133-24.482,1.418-3.025-10.235-1.038-29.455,1.929-41.392,1.707-6.877,6.431-14.093,9.624-14.086,5.441.009,13.263,1.446,16.421,9.236,1.222,3.018,3.02,13.476,3.936,23.057A79.325,79.325,0,0,1,358.661,1115.185Z" transform="translate(-324.844 -1044.39)" fill="#fff"/>
        <path id="Trazado_639764" data-name="Trazado 639764" d="M397.71,1055.459l1.232-2.775s10.923,1.112,12.776,7.388C411.718,1060.072,403.275,1055.594,397.71,1055.459Z" transform="translate(-385.198 -1031.319)" fill="#dfebfd"/>
        <path id="Trazado_639765" data-name="Trazado 639765" d="M433.218,1261.046c-.2,1.7-.556,2.862-1.12,3.239-1.762,1.18-4.1,2.648-6.707,4.1-2.721-1.654-8.309-5.6-9.615-10.254-1.708-6.083-.511-13.568-.511-13.568Z" transform="translate(-399.401 -1190.251)" fill="#dfebfd"/>
        <path id="Trazado_639766" data-name="Trazado 639766" d="M410.614,1114.079s.947,26.144,2.434,31.312c2.535,8.815,25.657,11.953,25.657,11.953a4.734,4.734,0,0,0,.754-4.108s-13.823-10.9-14.227-12.969,3.012-16.13-.892-21.242S413.237,1109.486,410.614,1114.079Z" transform="translate(-395.886 -1080.579)" fill="#fff"/>
      </g>
      <g id="Grupo_905727" data-name="Grupo 905727" transform="translate(0 43.453)">
        <g id="Grupo_905724" data-name="Grupo 905724" transform="translate(1.729 51.568)">
          <path id="Trazado_639767" data-name="Trazado 639767" d="M236.366,1524.231h-.076a1.034,1.034,0,0,1-1.045-1.106l4.154-41.484,3.625.323-5.964,41.707A.675.675,0,0,1,236.366,1524.231Z" transform="translate(-235.24 -1481.64)" fill="#77a4e5"/>
        </g>
        <g id="Grupo_905725" data-name="Grupo 905725" transform="translate(23.11 51.568)">
          <path id="Trazado_639768" data-name="Trazado 639768" d="M360.879,1524.231H360.8a1.034,1.034,0,0,1-1.045-1.106l4.154-41.484,3.624.323-5.964,41.707A.675.675,0,0,1,360.879,1524.231Z" transform="translate(-359.753 -1481.64)" fill="#77a4e5"/>
        </g>
        <g id="Grupo_905726" data-name="Grupo 905726" transform="translate(57.716 51.568)">
          <path id="Trazado_639769" data-name="Trazado 639769" d="M567.95,1524.231h.076a1.034,1.034,0,0,0,1.045-1.106l-4.154-41.484-3.625.323,5.965,41.707A.675.675,0,0,0,567.95,1524.231Z" transform="translate(-561.293 -1481.64)" fill="#77a4e5"/>
        </g>
        <path id="Trazado_639770" data-name="Trazado 639770" d="M229.2,1227.011l-3.942-34.648c-.517-4.993,1.154-9.882,8.359-10.26l12.676-.772c7.513-.31,10.9,5.943,11.856,10.757l7.525,38.086Z" transform="translate(-225.168 -1181.319)" fill="#77a4e5"/>
        <path id="Rectángulo_295892" data-name="Rectángulo 295892" d="M3.32,0H57.049a3.32,3.32,0,0,1,3.32,3.32V6.641a0,0,0,0,1,0,0H3.32A3.32,3.32,0,0,1,0,3.32v0A3.32,3.32,0,0,1,3.32,0Z" transform="translate(64.462 52.175) rotate(180)" fill="#77a4e5"/>
        <path id="Rectángulo_295893" data-name="Rectángulo 295893" d="M3.32,0H33.09a3.32,3.32,0,0,1,3.32,3.32v3.32a0,0,0,0,1,0,0H3.32A3.32,3.32,0,0,1,0,3.32v0A3.32,3.32,0,0,1,3.32,0Z" transform="translate(40.503 52.175) rotate(180)" fill="#77a4e5"/>
      </g>
    </g>
    <path id="Rectángulo_295894" data-name="Rectángulo 295894" d="M1.029,0h500.15a1.029,1.029,0,0,1,1.029,1.029v0a1.029,1.029,0,0,1-1.029,1.029H1.029A1.029,1.029,0,0,1,0,1.029v0A1.029,1.029,0,0,1,1.029,0Z" transform="translate(132.293 432.918)" fill="#2e3552"/>
    <g id="Grupo_905735" data-name="Grupo 905735" transform="translate(218.004 257.43)">
      <rect id="Rectángulo_295895" data-name="Rectángulo 295895" width="22.727" height="22.049" rx="9.467" fill="#77a4e5"/>
      <path id="Rectángulo_295896" data-name="Rectángulo 295896" d="M8.647,0h3.464a8.646,8.646,0,0,1,8.646,8.646v2.845a8.647,8.647,0,0,1-8.647,8.647H8.647A8.647,8.647,0,0,1,0,11.491V8.647A8.647,8.647,0,0,1,8.647,0Z" transform="translate(0.985 0.955)" fill="#dfebfd"/>
      <g id="Grupo_905731" data-name="Grupo 905731" transform="translate(2.683 2.497)">
        <g id="Grupo_905729" data-name="Grupo 905729" transform="translate(8.209)">
          <circle id="Elipse_7311" data-name="Elipse 7311" cx="0.471" cy="0.471" r="0.471" fill="#77a4e5"/>
          <path id="Trazado_639771" data-name="Trazado 639771" d="M730.2,726.062a.471.471,0,1,1,.183.64A.471.471,0,0,1,730.2,726.062Z" transform="translate(-726.398 -724.925)" fill="#77a4e5"/>
          <path id="Trazado_639772" data-name="Trazado 639772" d="M748.4,741.925a.471.471,0,1,1-.14.651A.471.471,0,0,1,748.4,741.925Z" transform="translate(-741.343 -738.203)" fill="#77a4e5"/>
          <path id="Trazado_639773" data-name="Trazado 639773" d="M756.554,765.594a.471.471,0,1,1-.471.471A.471.471,0,0,1,756.554,765.594Z" transform="translate(-747.889 -757.87)" fill="#77a4e5"/>
          <circle id="Elipse_7312" data-name="Elipse 7312" cx="0.471" cy="0.471" r="0.471" transform="translate(7.038 12.23)" fill="#77a4e5"/>
          <path id="Trazado_639774" data-name="Trazado 639774" d="M732.938,809.237a.471.471,0,1,1-.666,0A.471.471,0,0,1,732.938,809.237Z" transform="translate(-728.052 -793.905)" fill="#77a4e5"/>
          <circle id="Elipse_7313" data-name="Elipse 7313" cx="0.471" cy="0.471" r="0.471" transform="translate(0 16.389)" fill="#77a4e5"/>
        </g>
        <g id="Grupo_905730" data-name="Grupo 905730" transform="translate(0 0.894)">
          <path id="Trazado_639775" data-name="Trazado 639775" d="M687.378,726.062a.471.471,0,1,0-.183.64A.471.471,0,0,0,687.378,726.062Z" transform="translate(-682.04 -725.82)" fill="#77a4e5"/>
          <path id="Trazado_639776" data-name="Trazado 639776" d="M669.178,741.925a.471.471,0,1,0,.14.651A.471.471,0,0,0,669.178,741.925Z" transform="translate(-667.095 -739.097)" fill="#77a4e5"/>
          <path id="Trazado_639777" data-name="Trazado 639777" d="M661.022,765.594a.471.471,0,1,0,.471.471A.471.471,0,0,0,661.022,765.594Z" transform="translate(-660.551 -758.764)" fill="#77a4e5"/>
          <circle id="Elipse_7314" data-name="Elipse 7314" cx="0.471" cy="0.471" r="0.471" transform="translate(1.156 11.336)" fill="#77a4e5"/>
          <path id="Trazado_639778" data-name="Trazado 639778" d="M684.637,809.237a.471.471,0,1,0,.666,0A.471.471,0,0,0,684.637,809.237Z" transform="translate(-680.387 -794.799)" fill="#77a4e5"/>
        </g>
      </g>
      <g id="Grupo_905734" data-name="Grupo 905734" transform="translate(11.236 4.81)">
        <path id="Trazado_639779" data-name="Trazado 639779" d="M710.363,766.065a.471.471,0,1,1,.471.471A.471.471,0,0,1,710.363,766.065Z" transform="translate(-710.363 -760.183)" fill="#77a4e5"/>
        <g id="Grupo_905732" data-name="Grupo 905732" transform="translate(0.407)">
          <rect id="Rectángulo_295897" data-name="Rectángulo 295897" width="0.129" height="5.881" fill="#77a4e5"/>
        </g>
        <g id="Grupo_905733" data-name="Grupo 905733" transform="translate(0.292 3.274)">
          <rect id="Rectángulo_295898" data-name="Rectángulo 295898" width="3.964" height="0.386" transform="matrix(0.787, -0.617, 0.617, 0.787, 0, 2.447)" fill="#77a4e5"/>
        </g>
      </g>
    </g>
  </g>
</svg>
