<svg xmlns="http://www.w3.org/2000/svg" width="134" height="134" viewBox="0 0 134 134">
  <g id="Grupo_909124" data-name="Grupo 909124" transform="translate(-904.798 -2177.406)">
    <circle id="Elipse_7381" data-name="Elipse 7381" cx="67" cy="67" r="67" transform="translate(904.798 2177.406)" fill="#222b5a"/>
    <g id="Grupo_906666" data-name="Grupo 906666" transform="translate(-500.601 1899.971)">
      <path id="Trazado_640588" data-name="Trazado 640588" d="M1491.491,290.16c.244.08.484.176.733.237q1.257.311,2.519.6c.77.175,1.545.328,2.316.5,1.146.259,2.289.535,3.436.791.784.175,1.575.318,2.359.492.839.187,1.674.4,2.512.592.357.081.72.131,1.077.212.753.171,1.5.36,2.254.529.878.2,1.761.368,2.638.568,1.051.24,2.1.5,3.148.75.673.16,1.346.326,2.023.473,1.275.276,1.646.71,1.646,2q0,9.964-.013,19.928a26.308,26.308,0,0,1-.144,3.212,37.852,37.852,0,0,1-.72,3.947c-.342,1.453-.767,2.888-1.2,4.318-.286.946-.609,1.885-.985,2.8s-.816,1.776-1.261,2.646c-.424.827-.851,1.656-1.346,2.439-.623.986-1.378,1.891-1.965,2.9a24.427,24.427,0,0,1-3.3,4.111,42.661,42.661,0,0,1-3.274,3.15c-.749.658-1.615,1.183-2.422,1.777-.59.434-1.138.931-1.757,1.317-1.03.643-2.094,1.236-3.161,1.817-.877.476-1.763.942-2.676,1.342-.745.326-1.561.495-2.3.827-1.141.512-2.032-.1-2.981-.534-1.037-.468-2.086-.909-3.115-1.394-.746-.353-1.484-.731-2.2-1.15-.65-.383-1.262-.831-1.883-1.26-.5-.346-1-.7-1.488-1.065s-.985-.763-1.47-1.155c-.353-.285-.707-.573-1.04-.882-1-.928-2-1.848-2.968-2.806a24.711,24.711,0,0,1-1.921-2.1c-.69-.862-1.335-1.764-1.937-2.69-.757-1.165-1.492-2.349-2.159-3.567-.7-1.276-1.367-2.577-1.937-3.914-.5-1.166-.865-2.39-1.245-3.6-.349-1.115-.671-2.241-.942-3.378-.187-.787-.243-1.6-.4-2.4-.731-3.74-.427-7.522-.462-11.287-.04-4.4-.01-8.807-.009-13.21,0-1.371.5-1.9,1.841-2.153a17.624,17.624,0,0,0,1.952-.614c.086-.027.188,0,.277-.017.8-.181,1.6-.38,2.408-.547.667-.138,1.348-.217,2.013-.362.766-.168,1.522-.379,2.281-.576.069-.018.126-.084.195-.1,1.641-.313,3.29-.591,4.924-.941,1.263-.27,2.5-.653,3.762-.942,1.038-.238,2.1-.386,3.134-.624.743-.17,1.461-.444,2.2-.627.4-.1.82-.084,1.225-.154a1.74,1.74,0,0,0,.449-.224Zm22.815,18.852h.007V300.09c0-.8-.005-.773-.777-.909-1.076-.189-2.144-.417-3.212-.65-1.006-.219-2-.478-3.01-.7s-2-.383-2.987-.6c-1.417-.315-2.828-.662-4.243-.987-.666-.153-1.336-.283-2-.432-1-.224-2.005-.456-3.007-.683-.54-.122-1.081-.24-1.619-.365a11.733,11.733,0,0,0-2.621-.57,13.829,13.829,0,0,0-2.729.589c-1.163.256-2.332.488-3.5.739-1.115.241-2.226.5-3.341.74-.653.14-1.314.241-1.964.39-.931.212-1.854.458-2.784.675-.326.076-.668.087-.994.164-1.59.376-3.176.77-4.766,1.143-.969.228-1.941.444-2.917.638a.439.439,0,0,0-.42.524c.141,6.951-.29,13.909.254,20.853a25.852,25.852,0,0,0,.517,3.226c.235,1.132.54,2.25.838,3.367a15.418,15.418,0,0,0,.581,1.824c.376.925.808,1.827,1.219,2.738.315.7.6,1.413.96,2.086s.787,1.3,1.2,1.943c.44.68.854,1.383,1.358,2.013,1.157,1.448,2.312,2.9,3.565,4.269a35.815,35.815,0,0,0,2.743,2.465,24.925,24.925,0,0,0,5.573,3.78c1.345.657,2.676,1.344,4.024,1.992a1.326,1.326,0,0,0,.866.179,15.835,15.835,0,0,0,1.894-.875c.849-.431,1.7-.861,2.526-1.332.923-.526,1.834-1.075,2.724-1.655.592-.386,1.135-.848,1.706-1.267a15.921,15.921,0,0,0,1.369-.986c.981-.9,1.933-1.823,2.873-2.76a18.1,18.1,0,0,0,1.619-1.771c.934-1.218,1.87-2.443,2.691-3.737.73-1.151,1.318-2.4,1.946-3.61a21.8,21.8,0,0,0,1.216-2.536c.52-1.435.981-2.9,1.371-4.372a31.717,31.717,0,0,0,.678-3.529,42.4,42.4,0,0,0,.546-4.731C1514.37,314.586,1514.306,311.8,1514.306,309.012Z" transform="translate(-18.266 0)" fill="#020202"/>
      <path id="Trazado_640589" data-name="Trazado 640589" d="M1452.1,396.071a4.991,4.991,0,0,1,2.88,1.251c1.147.831,1.753,2.11,2.63,3.165.754.906,1.429,1.878,2.151,2.812,1.116,1.443,2.28,2.85,3.353,4.325a28.138,28.138,0,0,1,2.4,3.694,14.265,14.265,0,0,1,1.491,5.014c.089.852.176,1.708.18,2.563q.027,6.375,0,12.752a3.118,3.118,0,0,1-.279,1.333,1.386,1.386,0,0,1-1.054.853c-.108.013-.2.127-.307.194h-.9c-.043-.059-.073-.144-.131-.172a2.05,2.05,0,0,1-1.294-1.848c.009-.206.026-.412.026-.618q0-5.871,0-11.741a14.014,14.014,0,0,0-.726-5.239,13.786,13.786,0,0,0-1.855-3.42c-1.224-1.606-2.41-3.24-3.614-4.861-.22-.3-.442-.59-.672-.879-.364-.457-.741-.9-1.1-1.365-.907-1.153-1.766-2.347-2.724-3.457a2.425,2.425,0,0,0-3.58.443,2.557,2.557,0,0,0,.331,3c.446.549.82,1.156,1.247,1.72.5.66.982,1.339,1.543,1.944a2.137,2.137,0,0,1,.005,3.143,1.981,1.981,0,0,1-2.934-.464c-.633-.908-1.307-1.788-1.985-2.663-1.082-1.4-2.192-2.772-3.27-4.172-.681-.885-1.3-1.817-1.99-2.694a6.514,6.514,0,0,1-1.579-4.026c.006-.488.019-.975.019-1.463q0-8.373-.008-16.746a2.6,2.6,0,0,0-.2-.684,2.4,2.4,0,0,0-1.012-1.674,2.553,2.553,0,0,0-4.068,1.412c-.081.434-.1.88-.146,1.319-.184,1.632-.392,3.262-.549,4.9-.114,1.176-.131,2.36-.244,3.535-.161,1.655-.39,3.3-.554,4.96-.109,1.1-.146,2.2-.233,3.3q-.209,2.671-.442,5.341a3.289,3.289,0,0,0,.744,2.079c.6.911,1.392,1.689,2.076,2.546.827,1.036,1.626,2.094,2.435,3.145.306.4.613.794.9,1.2.5.71.979,1.44,1.5,2.138.346.465.769.872,1.123,1.332,1,1.295,1.972,2.608,2.969,3.9.559.727,1.161,1.422,1.716,2.152.624.822,1.2,1.68,1.828,2.5.687.9,1.41,1.764,2.114,2.647a3.257,3.257,0,0,1,.8,2.249c-.065,1.747-.01,3.5,0,5.247a1.776,1.776,0,0,1-.655,1.51,8.474,8.474,0,0,1-.834.519h-.9a2.255,2.255,0,0,1-1.48-2.259c.065-1.464.031-2.935,0-4.4a1.571,1.571,0,0,0-.291-.846q-1.3-1.763-2.659-3.48c-.719-.906-1.5-1.762-2.22-2.669s-1.415-1.877-2.122-2.816c-.9-1.2-1.8-2.409-2.72-3.6s-1.849-2.337-2.759-3.516c-.683-.885-1.34-1.791-2.012-2.684a37.023,37.023,0,0,1-2.523-3.407,5.781,5.781,0,0,1-.976-3.322c.121-1.71.212-3.422.339-5.131.092-1.234.226-2.465.333-3.7.155-1.8.295-3.6.455-5.392.18-2.014.362-4.028.568-6.039.125-1.225.248-2.454.461-3.666a6.378,6.378,0,0,1,1.338-3.044,6.526,6.526,0,0,1,6.922-2.2,5.951,5.951,0,0,1,3.691,2.683,5.867,5.867,0,0,1,1.028,2.9,2.574,2.574,0,0,0,.11.472,1.243,1.243,0,0,0-.1.343q-.007,8.825.005,17.651a1.661,1.661,0,0,0,.194.525c-.043,1.082.719,1.771,1.22,2.585a6.106,6.106,0,0,1,4.224-2.931Z" transform="translate(0 -43.125)" fill="#020202"/>
      <path id="Trazado_640590" data-name="Trazado 640590" d="M1555.162,377.567a5.624,5.624,0,0,1,1.87-4.068,6.553,6.553,0,0,1,5.9-1.739,6.049,6.049,0,0,1,2.886,1.382c1.912,1.532,2.442,3.622,2.487,5.964.027,1.377.284,2.75.426,4.126.107,1.033.207,2.067.292,3.1.1,1.24.175,2.482.278,3.722.142,1.721.288,3.442.453,5.16.134,1.394.22,2.8.473,4.173a7.114,7.114,0,0,1-.2,3.246,9.723,9.723,0,0,1-1.861,3.375c-.566.712-1.063,1.48-1.623,2.2-.406.523-.884.991-1.292,1.512-.547.7-1.051,1.431-1.584,2.141-.411.547-.842,1.079-1.26,1.622-.714.926-1.421,1.856-2.138,2.78-1.114,1.435-2.243,2.86-3.35,4.3-.678.881-1.313,1.8-1.994,2.675-.843,1.089-1.727,2.146-2.56,3.242a1.644,1.644,0,0,0-.327.893c-.033,1.448-.04,2.9-.007,4.347a2.1,2.1,0,0,1-1.374,2.193,1.766,1.766,0,0,0-.225.135h-.9c-.062-.064-.112-.153-.188-.186a2.142,2.142,0,0,1-1.291-1.844c.006-1.844-.03-3.69.046-5.531a3.173,3.173,0,0,1,.573-1.584c.808-1.163,1.708-2.263,2.581-3.381.5-.645,1.044-1.262,1.543-1.911.636-.827,1.245-1.676,1.87-2.511.442-.592.895-1.176,1.339-1.767.6-.792,1.179-1.594,1.785-2.378.344-.443.745-.842,1.083-1.289.676-.9,1.309-1.823,1.99-2.714.849-1.111,1.735-2.191,2.591-3.3.657-.851,1.254-1.75,1.943-2.573a4.107,4.107,0,0,0,.954-3.107c-.076-.919-.238-1.831-.326-2.75-.131-1.374-.214-2.753-.347-4.127-.172-1.786-.378-3.569-.558-5.354q-.24-2.386-.452-4.774c-.136-1.539-.29-3.078-.372-4.621a2.8,2.8,0,0,0-1.4-2.468,2.233,2.233,0,0,0-2.2-.143,2.813,2.813,0,0,0-1.734,2.809c.031,5.628.015,11.256.01,16.883a10.462,10.462,0,0,1-.071,1.577,8,8,0,0,1-1.585,3.759c-.884,1.136-1.747,2.288-2.625,3.429-.7.914-1.42,1.817-2.121,2.732-.811,1.059-1.608,2.127-2.416,3.188a2.069,2.069,0,0,1-2.515.926,1.957,1.957,0,0,1-1.142-2.437,10.531,10.531,0,0,1,.968-1.381c.862-1.19,1.7-2.4,2.6-3.56a2.115,2.115,0,0,0,.379-2.262,2.365,2.365,0,0,0-3.3-1.281c-.76.382-1.1,1.137-1.622,1.714a34.47,34.47,0,0,0-2.159,2.836c-.684.932-1.327,1.9-2.033,2.811-.88,1.139-1.883,2.191-2.691,3.377a13.951,13.951,0,0,0-1.852,3.37,10.661,10.661,0,0,0-.715,3.21,2.334,2.334,0,0,0-.192.635q-.021,6.674-.015,13.347c0,.355.01.711.015,1.066-.072.181-.143.363-.215.544-.251.624-.891.721-1.383,1.019h-.9a2.512,2.512,0,0,0-.43-.381,1.928,1.928,0,0,1-.826-1.193q.006-6.139.011-12.279c0-.957-.008-1.913-.013-2.87a14.062,14.062,0,0,1,1.006-4.541,17.761,17.761,0,0,1,1.948-3.673c.683-.967,1.413-1.9,2.132-2.843.879-1.15,1.773-2.288,2.65-3.439s1.762-2.34,2.649-3.505a11.586,11.586,0,0,1,1.187-1.472,5.563,5.563,0,0,1,3.379-1.767,11.2,11.2,0,0,1,1.419-.168,6.663,6.663,0,0,1,3.457,1.152,5.083,5.083,0,0,1,1.331,1.317c.413.62.639.488.9-.049s.519-1.107.777-1.662a4.762,4.762,0,0,0,.206-.975q.019-8.533.009-17.066C1555.18,378.279,1555.168,377.923,1555.162,377.567Z" transform="translate(-54.626 -43.147)" fill="#020202"/>
      <path id="Trazado_640591" data-name="Trazado 640591" d="M1580.845,384.216c.007.356.018.711.018,1.067q0,8.533-.008,17.066a4.794,4.794,0,0,1-.206.975c0-.412-.01-.824-.01-1.236q0-8.537.009-17.074A3.432,3.432,0,0,1,1580.845,384.216Z" transform="translate(-80.31 -49.796)" fill="#9b9b9b"/>
      <path id="Trazado_640592" data-name="Trazado 640592" d="M1461.336,403.491a1.666,1.666,0,0,1-.194-.525q-.016-8.825-.006-17.651a1.24,1.24,0,0,1,.105-.343,2.044,2.044,0,0,1,.108.456q.012,8.977.011,17.953A.478.478,0,0,1,1461.336,403.491Z" transform="translate(-17.04 -50.196)" fill="#867158"/>
      <path id="Trazado_640593" data-name="Trazado 640593" d="M1475.5,423.312l-2.365,0A3,3,0,0,1,1475.5,423.312Z" transform="translate(-23.392 -70.366)" fill="#867158"/>
      <path id="Trazado_640594" data-name="Trazado 640594" d="M1518.742,313.551c0,2.786.064,5.574-.024,8.356a42.369,42.369,0,0,1-.546,4.731,31.771,31.771,0,0,1-.677,3.529c-.39,1.475-.851,2.936-1.371,4.372a21.817,21.817,0,0,1-1.216,2.536c-.628,1.215-1.216,2.459-1.946,3.61-.821,1.295-1.757,2.519-2.691,3.737a18.125,18.125,0,0,1-1.619,1.771c-.94.938-1.892,1.865-2.873,2.76a15.933,15.933,0,0,1-1.369.986c-.571.419-1.114.881-1.706,1.267-.89.58-1.8,1.129-2.724,1.655-.827.471-1.677.9-2.526,1.332a15.833,15.833,0,0,1-1.895.875,1.327,1.327,0,0,1-.866-.179c-1.349-.648-2.679-1.335-4.024-1.992a24.922,24.922,0,0,1-5.573-3.78,35.854,35.854,0,0,1-2.743-2.465c-1.253-1.364-2.407-2.82-3.565-4.269-.5-.63-.918-1.333-1.358-2.013-.414-.64-.842-1.273-1.2-1.943s-.645-1.389-.96-2.087c-.411-.911-.844-1.813-1.219-2.738a15.393,15.393,0,0,1-.581-1.824c-.3-1.118-.6-2.236-.838-3.367a25.808,25.808,0,0,1-.517-3.226c-.543-6.945-.113-13.9-.254-20.853a.439.439,0,0,1,.42-.524c.976-.194,1.948-.41,2.917-.638,1.59-.374,3.176-.768,4.766-1.144.326-.077.668-.088.994-.164.93-.217,1.853-.463,2.784-.675.65-.148,1.312-.249,1.964-.39,1.115-.24,2.226-.5,3.341-.74,1.164-.251,2.333-.483,3.5-.739a13.837,13.837,0,0,1,2.729-.589,11.733,11.733,0,0,1,2.621.57c.539.125,1.079.242,1.619.365,1,.227,2,.459,3.008.683.666.149,1.337.279,2,.432,1.415.326,2.825.672,4.243.987.991.22,1.994.388,2.987.6s2,.477,3.01.7c1.067.233,2.136.461,3.212.65.772.136.777.105.777.909v8.922Zm-41.581,6.554c-.985.155-1.822.736-1.837,1.45a32,32,0,0,0,.132,3.873,21.1,21.1,0,0,0,.594,2.782,32.577,32.577,0,0,0,.969,3.734c.553,1.49,1.287,2.915,1.965,4.358a25.181,25.181,0,0,0,3.464,5.367c.649.782,1.339,1.534,2.061,2.249,1.055,1.046,2.13,2.074,3.245,3.055a23.618,23.618,0,0,0,2.1,1.541c.639.447,1.275.9,1.952,1.289a26.047,26.047,0,0,0,2.542,1.275,2.1,2.1,0,0,0,1.364.253,23.879,23.879,0,0,0,3.2-1.622c.984-.58,1.916-1.252,2.849-1.914a27.273,27.273,0,0,0,2.375-1.81c.713-.635,1.327-1.382,1.987-2.077a24.391,24.391,0,0,0,1.938-2.059c.851-1.135,1.625-2.334,2.365-3.547a38.83,38.83,0,0,0,1.974-3.576c.493-1.041.808-2.165,1.234-3.239a24.914,24.914,0,0,0,1.223-4.785c.05-.275.022-.564.053-.844.144-1.305.4-2.607.425-3.915.064-3.217.025-6.436.026-9.653,0-1.43,0-2.861-.008-4.291a2.009,2.009,0,0,0-1.125-1.631q-2.248-.542-4.506-1.047c-1.868-.419-3.741-.816-5.609-1.234-1.308-.292-2.611-.606-3.918-.9-1.187-.269-2.373-.542-3.566-.782a10.632,10.632,0,0,0-1.756-.221,4.4,4.4,0,0,0-1.014.221c-.6.131-1.2.246-1.789.385-.856.2-1.7.435-2.562.626-1.619.36-3.244.7-4.865,1.051-.771.168-1.536.366-2.306.537-.575.128-1.159.217-1.732.353-1.32.312-2.632.662-3.956.956a1.777,1.777,0,0,0-1.383,1.46c-.157,1.339.386,2.075,1.9,2.417q0,1.5,0,3a1.874,1.874,0,0,0-1.925,2.163,2.209,2.209,0,0,0,1.923,1.829Q1477.161,318.642,1477.161,320.105Z" transform="translate(-22.702 -4.539)" fill="#f9da6c"/>
      <path id="Trazado_640595" data-name="Trazado 640595" d="M1467.665,436.385l-12.107-.008c-.006-1.75-.061-3.5,0-5.247a3.256,3.256,0,0,0-.8-2.249c-.7-.883-1.427-1.751-2.114-2.647-.627-.819-1.2-1.678-1.828-2.5-.555-.73-1.157-1.425-1.716-2.152-1-1.3-1.971-2.61-2.969-3.9-.354-.459-.776-.867-1.123-1.332-.52-.7-.995-1.429-1.5-2.138-.29-.409-.6-.806-.9-1.2-.808-1.051-1.608-2.109-2.435-3.145-.684-.857-1.479-1.635-2.076-2.546a3.288,3.288,0,0,1-.744-2.079q.236-2.67.442-5.341c.086-1.1.123-2.2.232-3.3.164-1.655.393-3.3.554-4.96.114-1.175.131-2.359.244-3.535.157-1.635.365-3.264.549-4.9.05-.44.065-.886.145-1.319a2.554,2.554,0,0,1,4.068-1.412,2.4,2.4,0,0,1,1.012,1.674c-.007.9-.019,1.8-.02,2.7q0,7.7.008,15.39a3.437,3.437,0,0,0,.2.8,6.514,6.514,0,0,0,1.579,4.026c.69.877,1.309,1.809,1.99,2.694,1.078,1.4,2.188,2.775,3.27,4.172.678.875,1.352,1.755,1.985,2.663a1.981,1.981,0,0,0,2.934.464,2.137,2.137,0,0,0-.006-3.143c-.561-.605-1.044-1.284-1.543-1.944-.427-.565-.8-1.171-1.247-1.72a2.557,2.557,0,0,1-.331-3,2.425,2.425,0,0,1,3.58-.443c.958,1.11,1.817,2.3,2.724,3.457.362.46.739.908,1.1,1.365.23.288.452.583.671.879,1.2,1.621,2.39,3.256,3.614,4.862a13.791,13.791,0,0,1,1.855,3.42,14.012,14.012,0,0,1,.726,5.239q-.008,5.871,0,11.741C1467.692,435.973,1467.674,436.179,1467.665,436.385Z" transform="translate(-4.448 -47.505)" fill="#e6c298"/>
      <path id="Trazado_640596" data-name="Trazado 640596" d="M1452.926,403.57a3.426,3.426,0,0,1-.2-.8q-.018-7.695-.008-15.39c0-.9.013-1.8.02-2.7a2.612,2.612,0,0,1,.2.684q.016,8.373.008,16.746C1452.945,402.595,1452.933,403.082,1452.926,403.57Z" transform="translate(-12.586 -50.04)" fill="#867158"/>
      <path id="Trazado_640597" data-name="Trazado 640597" d="M1552.5,436.353h-11.948q-.006-5.94-.013-11.88c0-.9-.011-1.8-.016-2.7a10.665,10.665,0,0,1,.715-3.21,13.952,13.952,0,0,1,1.852-3.37c.807-1.186,1.811-2.238,2.691-3.377.706-.915,1.349-1.879,2.033-2.811a34.452,34.452,0,0,1,2.159-2.836c.525-.577.862-1.332,1.622-1.714a2.365,2.365,0,0,1,3.3,1.281,2.115,2.115,0,0,1-.379,2.262c-.9,1.163-1.736,2.37-2.6,3.56a10.539,10.539,0,0,0-.969,1.381,1.957,1.957,0,0,0,1.143,2.437,2.069,2.069,0,0,0,2.515-.926c.808-1.061,1.605-2.129,2.417-3.188.7-.915,1.418-1.818,2.121-2.732.878-1.141,1.741-2.293,2.625-3.429a8,8,0,0,0,1.585-3.759,10.526,10.526,0,0,0,.071-1.577c0-5.628.02-11.256-.01-16.883a2.813,2.813,0,0,1,1.734-2.809,2.233,2.233,0,0,1,2.2.143,2.8,2.8,0,0,1,1.4,2.468c.082,1.543.235,3.081.372,4.621q.212,2.388.452,4.774c.18,1.785.386,3.568.558,5.354.133,1.374.216,2.753.347,4.127.088.919.249,1.831.326,2.75a4.108,4.108,0,0,1-.954,3.107c-.689.823-1.287,1.722-1.943,2.573-.855,1.106-1.742,2.187-2.591,3.3-.681.891-1.314,1.819-1.99,2.714-.337.447-.739.846-1.083,1.289-.607.783-1.19,1.585-1.786,2.378-.444.59-.9,1.175-1.339,1.767-.625.836-1.234,1.684-1.87,2.511-.5.649-1.038,1.266-1.543,1.911-.874,1.117-1.773,2.217-2.582,3.381a3.174,3.174,0,0,0-.573,1.584C1552.472,432.663,1552.509,434.509,1552.5,436.353Z" transform="translate(-59.072 -47.483)" fill="#e6c398"/>
      <path id="Trazado_640598" data-name="Trazado 640598" d="M1540.292,468.941c.006.9.015,1.8.016,2.7q.009,5.94.013,11.88l-.222.469c-.005-.356-.015-.711-.015-1.066q0-6.674.015-13.347A2.342,2.342,0,0,1,1540.292,468.941Z" transform="translate(-58.839 -94.651)" fill="#594c3d"/>
      <path id="Trazado_640599" data-name="Trazado 640599" d="M1483.162,321.521q0-1.5,0-3,.855-.188,1.711-.376,2.395-.532,4.79-1.068c1.122-.253,2.244-.5,3.362-.774.956-.231,1.9-.524,2.861-.724,1.644-.342,3.3-.629,4.948-.945.193-.037.386-.178.566-.158a10.73,10.73,0,0,1,1.127.25q1.745.4,3.49.791c.285.064.572.124.857.191.767.179,1.53.371,2.3.539.954.21,1.915.389,2.867.6,1.018.231,2.028.5,3.047.73.753.17,1.516.3,2.32.46v.673c0,2.992.032,5.984-.012,8.975-.028,1.922-.09,3.85-.286,5.76a28.248,28.248,0,0,1-.815,3.932,16.472,16.472,0,0,1-.894,2.742c-.575,1.281-1.237,2.526-1.93,3.749-.6,1.066-1.269,2.1-1.966,3.108a19.969,19.969,0,0,1-1.682,2.094c-.521.569-1.121,1.068-1.7,1.586-.825.744-1.616,1.538-2.5,2.2-.986.733-2.093,1.3-3.1,2.015a1.894,1.894,0,0,1-2.411.055c-.228-.159-.467-.3-.7-.45-.889-.568-1.824-1.077-2.656-1.719-.894-.689-1.684-1.514-2.536-2.26a23.782,23.782,0,0,1-3.562-4.042,33.414,33.414,0,0,1-2.177-3.558c-.464-.852-.723-1.815-1.182-2.671a17.958,17.958,0,0,1-1.365-3.976,21.6,21.6,0,0,1-.736-5.745,1.815,1.815,0,0,0-.281-1.1,2.006,2.006,0,0,0-1.759-.967q0-1.464,0-2.928a2.263,2.263,0,0,0,2.024-1.879A1.973,1.973,0,0,0,1483.162,321.521Zm7.133,11.111a3.728,3.728,0,0,0,.371,1.024,17.118,17.118,0,0,0,1.357,1.661c1.239,1.425,2.463,2.866,3.752,4.246a2.055,2.055,0,0,0,3.2-.342c.852-.893,1.9-1.6,2.832-2.417.767-.672,1.479-1.407,2.235-2.091,1.17-1.06,2.362-2.095,3.534-3.151.945-.853,1.87-1.728,2.812-2.584.6-.544,1.229-1.054,1.811-1.615a3.848,3.848,0,0,0,1.088-1.279,1.864,1.864,0,0,0-.664-2.283,1.968,1.968,0,0,0-2.345-.036c-.74.608-1.451,1.252-2.162,1.894-1.147,1.037-2.281,2.09-3.426,3.129-.605.55-1.233,1.075-1.835,1.629-.628.577-1.227,1.186-1.857,1.761-.415.378-.874.708-1.291,1.083-.705.633-1.4,1.275-2.083,1.936-.228.222-.28.192-.487-.055-1.16-1.386-2.329-2.768-3.567-4.085a2.238,2.238,0,0,0-1.359-.633A2.013,2.013,0,0,0,1490.3,332.632Z" transform="translate(-28.701 -12.875)" fill="#dff2fb"/>
      <path id="Trazado_640600" data-name="Trazado 640600" d="M1481,323.985a2.006,2.006,0,0,1,1.759.967,1.816,1.816,0,0,1,.281,1.1,21.6,21.6,0,0,0,.735,5.745,17.958,17.958,0,0,0,1.365,3.976c.459.856.718,1.819,1.182,2.671a33.409,33.409,0,0,0,2.178,3.558,23.8,23.8,0,0,0,3.562,4.042c.852.746,1.642,1.571,2.536,2.26.832.642,1.767,1.151,2.656,1.719.234.149.473.292.7.45a1.893,1.893,0,0,0,2.411-.055c1-.713,2.11-1.282,3.1-2.015.889-.661,1.679-1.455,2.5-2.2.575-.518,1.176-1.016,1.7-1.586a19.934,19.934,0,0,0,1.682-2.094c.7-1.007,1.363-2.042,1.966-3.108.693-1.223,1.355-2.468,1.93-3.749a16.449,16.449,0,0,0,.894-2.742,28.266,28.266,0,0,0,.815-3.932c.2-1.91.258-3.838.286-5.76.044-2.991.012-5.983.012-8.975v-.673c-.8-.158-1.567-.29-2.32-.46-1.019-.23-2.028-.5-3.047-.73-.953-.216-1.913-.394-2.867-.6-.769-.168-1.532-.36-2.3-.539-.285-.067-.572-.127-.857-.191q-1.746-.395-3.49-.791a10.733,10.733,0,0,0-1.127-.25c-.18-.021-.373.12-.566.158-1.649.316-3.3.6-4.948.945-.962.2-1.9.493-2.861.724-1.118.27-2.24.521-3.362.774q-2.394.539-4.79,1.068-.855.19-1.711.376c-1.51-.342-2.053-1.078-1.9-2.417a1.777,1.777,0,0,1,1.383-1.46c1.324-.295,2.635-.644,3.956-.956.573-.136,1.157-.225,1.732-.353.77-.171,1.535-.368,2.306-.537,1.621-.355,3.246-.691,4.865-1.051.858-.191,1.706-.425,2.561-.626.594-.14,1.193-.255,1.789-.385a4.4,4.4,0,0,1,1.014-.221,10.645,10.645,0,0,1,1.756.221c1.193.24,2.379.513,3.566.782,1.307.3,2.61.61,3.917.9,1.868.417,3.741.815,5.609,1.234q2.256.506,4.506,1.047a2.01,2.01,0,0,1,1.125,1.632c.013,1.43.009,2.86.008,4.291,0,3.218.038,6.437-.026,9.653-.026,1.307-.281,2.609-.424,3.915-.031.28,0,.568-.053.844a24.906,24.906,0,0,1-1.223,4.785c-.427,1.074-.741,2.2-1.234,3.239a38.832,38.832,0,0,1-1.974,3.576c-.74,1.213-1.513,2.411-2.365,3.547a24.4,24.4,0,0,1-1.938,2.059c-.66.7-1.274,1.441-1.987,2.077a27.2,27.2,0,0,1-2.375,1.81c-.933.663-1.865,1.335-2.849,1.914a23.87,23.87,0,0,1-3.205,1.623,2.1,2.1,0,0,1-1.364-.253,26.037,26.037,0,0,1-2.542-1.275c-.677-.384-1.313-.842-1.952-1.289a23.618,23.618,0,0,1-2.1-1.541c-1.115-.981-2.19-2.009-3.246-3.055-.722-.715-1.412-1.468-2.061-2.249a25.179,25.179,0,0,1-3.463-5.367c-.678-1.443-1.412-2.867-1.965-4.358a32.68,32.68,0,0,1-.969-3.734,21.2,21.2,0,0,1-.594-2.782,32.077,32.077,0,0,1-.132-3.873C1479.177,324.72,1480.014,324.139,1481,323.985Z" transform="translate(-26.541 -8.418)" fill="#020202"/>
      <path id="Trazado_640601" data-name="Trazado 640601" d="M1480.994,329.444a1.973,1.973,0,0,1,2.022,2.113,2.263,2.263,0,0,1-2.024,1.879,2.209,2.209,0,0,1-1.923-1.829A1.874,1.874,0,0,1,1480.994,329.444Z" transform="translate(-26.533 -20.798)" fill="#030303"/>
      <path id="Trazado_640602" data-name="Trazado 640602" d="M1498.323,342.661a2.013,2.013,0,0,1,1.918-2.207,2.239,2.239,0,0,1,1.36.632c1.237,1.317,2.406,2.7,3.566,4.085.207.247.26.277.487.055.68-.661,1.377-1.3,2.083-1.936.417-.376.877-.7,1.291-1.083.63-.575,1.229-1.183,1.857-1.761.6-.554,1.229-1.079,1.835-1.629,1.146-1.04,2.279-2.092,3.426-3.129.711-.642,1.422-1.286,2.162-1.894a1.968,1.968,0,0,1,2.345.036,1.863,1.863,0,0,1,.663,2.283,3.846,3.846,0,0,1-1.088,1.279c-.582.561-1.212,1.071-1.811,1.615-.941.857-1.867,1.732-2.812,2.584-1.172,1.057-2.364,2.092-3.534,3.151-.756.685-1.468,1.419-2.235,2.091-.934.819-1.979,1.524-2.831,2.417a2.055,2.055,0,0,1-3.2.342c-1.289-1.38-2.512-2.821-3.752-4.246a17.112,17.112,0,0,1-1.357-1.661A3.729,3.729,0,0,1,1498.323,342.661Z" transform="translate(-36.729 -22.905)" fill="#030303"/>
    </g>
  </g>
</svg>
