<svg xmlns="http://www.w3.org/2000/svg" width="630" height="376" viewBox="0 0 630 376">
  <g id="Grupo_909135" data-name="Grupo 909135" transform="translate(-705 -8989.252)">
    <rect id="_0dab8376743bc1d98381a681b341741e" data-name="0dab8376743bc1d98381a681b341741e" width="630" height="376" rx="25" transform="translate(705 8989.252)" fill="#fff"/>
    <g id="Grupo_909096" data-name="Grupo 909096" transform="translate(475.893 8777.665)">
      <g id="computer_1" transform="translate(464.577 313.292)">
        <g id="Grupo_908815" data-name="Grupo 908815" transform="translate(77.669 91.185)">
          <path id="Trazado_644356" data-name="Trazado 644356" d="M1288.348,982.372h-21.792a4.788,4.788,0,0,1-3.931-7.522l9.938-14.286a2.253,2.253,0,0,0-1.618-3.528c0-.013-21.242-.013-21.242-.013l-4.261,5.78-6.245,13.152.441,6.98,5,2.351,16.111-.445a9.271,9.271,0,0,0,5.811,2.037h21.792a2.253,2.253,0,1,0,0-4.506Z" transform="translate(-1239.197 -957.023)" fill="#cee2fd"/>
        </g>
        <g id="Grupo_908816" data-name="Grupo 908816" transform="translate(73.371 90.059)">
          <path id="Trazado_644357" data-name="Trazado 644357" d="M1253.693,984.486H1231.9a10.421,10.421,0,0,1-8.555-16.372l9.938-14.286a3.38,3.38,0,0,1,5.549,3.86l-9.938,14.286a3.661,3.661,0,0,0,3.006,5.752h21.792a3.38,3.38,0,1,1,0,6.759Z" transform="translate(-1221.475 -952.378)" fill="#b6d4ff"/>
        </g>
        <g id="Grupo_908817" data-name="Grupo 908817" transform="translate(76.654 92.051)">
          <path id="Trazado_644358" data-name="Trazado 644358" d="M1269.394,963.269l-6.291,9.041h-28.09l8.15-11.715h26.155A2.249,2.249,0,0,1,1269.394,963.269Z" transform="translate(-1235.013 -960.595)" fill="#b6d4ff"/>
        </g>
        <g id="Grupo_908876" data-name="Grupo 908876">
          <g id="Grupo_908818" data-name="Grupo 908818" transform="translate(0.589)">
            <path id="Trazado_644359" data-name="Trazado 644359" d="M1084.053,581.039l-154.481-.008c-6.958,0-9.168,5.711-7.841,12.752l13.055,69.277c1.327,7.041,5.609,12.749,12.567,12.747l156.848-.029c5.054,0,8.37-4.148,7.406-9.263l-14.218-74.69C1096.063,584.784,1091.011,581.037,1084.053,581.039Z" transform="translate(-921.365 -581.031)" fill="#cee2fd"/>
          </g>
          <g id="Grupo_908819" data-name="Grupo 908819" transform="translate(9.09 4.221)">
            <path id="Trazado_644360" data-name="Trazado 644360" d="M970.448,678.53,956.53,604.677a4.976,4.976,0,0,1,4.968-6.213l151.01-.028a7.806,7.806,0,0,1,7.309,6.211l13.918,73.853a4.976,4.976,0,0,1-4.968,6.213l-151.01.028A7.806,7.806,0,0,1,970.448,678.53Z" transform="translate(-956.418 -598.436)" fill="#fff"/>
          </g>
          <g id="Grupo_908820" data-name="Grupo 908820" transform="translate(0 0.001)">
            <path id="Trazado_644361" data-name="Trazado 644361" d="M938.657,669.6l-15.518-82.342a4.986,4.986,0,0,1,4.593-6.22h-1.845c-4.636,0-7.682,3.807-6.8,8.5l14.657,77.775a10.683,10.683,0,0,0,10,8.5h1.767A7.891,7.891,0,0,1,938.657,669.6Z" transform="translate(-918.937 -581.037)" fill="#b6d4ff"/>
          </g>
          <g id="Grupo_908821" data-name="Grupo 908821" transform="translate(61.722 80.857)">
            <path id="Trazado_644362" data-name="Trazado 644362" d="M1256.278,914.435l-80.888.015a1.909,1.909,0,0,0-1.906,2.384l.3,1.589a3,3,0,0,0,2.8,2.383l80.888-.015a1.909,1.909,0,0,0,1.906-2.384l-.3-1.589A3,3,0,0,0,1256.278,914.435Z" transform="translate(-1173.441 -914.435)" fill="#def"/>
          </g>
          <g id="Grupo_908822" data-name="Grupo 908822" transform="translate(64.518 79.859)">
            <path id="Trazado_644363" data-name="Trazado 644363" d="M1189.305,915.679h-1.935a2.136,2.136,0,0,1-2-1.7l-.369-1.959a1.362,1.362,0,0,1,1.36-1.7h1.936a2.136,2.136,0,0,1,2,1.7l.369,1.959A1.362,1.362,0,0,1,1189.305,915.679Z" transform="translate(-1184.97 -910.32)" fill="#b6d4ff"/>
          </g>
          <g id="Grupo_908823" data-name="Grupo 908823" transform="translate(71.763 79.858)">
            <path id="Trazado_644364" data-name="Trazado 644364" d="M1219.18,915.674h-1.936a2.136,2.136,0,0,1-2-1.7l-.369-1.959a1.362,1.362,0,0,1,1.359-1.7h1.936a2.136,2.136,0,0,1,2,1.7l.369,1.959A1.362,1.362,0,0,1,1219.18,915.674Z" transform="translate(-1214.845 -910.315)" fill="#b6d4ff"/>
          </g>
          <g id="Grupo_908824" data-name="Grupo 908824" transform="translate(79.008 79.856)">
            <path id="Trazado_644365" data-name="Trazado 644365" d="M1249.054,915.667h-1.935a2.136,2.136,0,0,1-2-1.7l-.369-1.959a1.362,1.362,0,0,1,1.36-1.7h1.935a2.136,2.136,0,0,1,2,1.7l.369,1.959A1.361,1.361,0,0,1,1249.054,915.667Z" transform="translate(-1244.719 -910.309)" fill="#b6d4ff"/>
          </g>
          <g id="Grupo_908825" data-name="Grupo 908825" transform="translate(86.253 79.855)">
            <path id="Trazado_644366" data-name="Trazado 644366" d="M1278.929,915.662h-1.935a2.136,2.136,0,0,1-2-1.7l-.369-1.958a1.362,1.362,0,0,1,1.359-1.7h1.936a2.137,2.137,0,0,1,2,1.7l.369,1.959A1.362,1.362,0,0,1,1278.929,915.662Z" transform="translate(-1274.594 -910.303)" fill="#b6d4ff"/>
          </g>
          <g id="Grupo_908826" data-name="Grupo 908826" transform="translate(93.499 79.853)">
            <path id="Trazado_644367" data-name="Trazado 644367" d="M1308.8,915.656h-1.935a2.136,2.136,0,0,1-2-1.7L1304.5,912a1.362,1.362,0,0,1,1.36-1.7h1.936a2.136,2.136,0,0,1,2,1.7l.369,1.959A1.362,1.362,0,0,1,1308.8,915.656Z" transform="translate(-1304.468 -910.298)" fill="#b6d4ff"/>
          </g>
          <g id="Grupo_908827" data-name="Grupo 908827" transform="translate(100.744 79.852)">
            <path id="Trazado_644368" data-name="Trazado 644368" d="M1338.678,915.65h-1.935a2.136,2.136,0,0,1-2-1.7l-.369-1.959a1.361,1.361,0,0,1,1.359-1.7h1.936a2.137,2.137,0,0,1,2,1.7l.369,1.959A1.362,1.362,0,0,1,1338.678,915.65Z" transform="translate(-1334.343 -910.292)" fill="#b6d4ff"/>
          </g>
          <g id="Grupo_908828" data-name="Grupo 908828" transform="translate(107.989 79.851)">
            <path id="Trazado_644369" data-name="Trazado 644369" d="M1368.552,915.645h-1.935a2.136,2.136,0,0,1-2-1.7l-.369-1.958a1.362,1.362,0,0,1,1.36-1.7h1.936a2.136,2.136,0,0,1,2,1.7l.369,1.959A1.362,1.362,0,0,1,1368.552,915.645Z" transform="translate(-1364.217 -910.287)" fill="#b6d4ff"/>
          </g>
          <g id="Grupo_908829" data-name="Grupo 908829" transform="translate(115.234 79.849)">
            <path id="Trazado_644370" data-name="Trazado 644370" d="M1398.427,915.64h-1.935a2.136,2.136,0,0,1-2-1.7l-.369-1.958a1.361,1.361,0,0,1,1.359-1.7h1.935a2.136,2.136,0,0,1,2,1.7l.369,1.959A1.362,1.362,0,0,1,1398.427,915.64Z" transform="translate(-1394.092 -910.281)" fill="#b6d4ff"/>
          </g>
          <g id="Grupo_908830" data-name="Grupo 908830" transform="translate(122.479 79.848)">
            <path id="Trazado_644371" data-name="Trazado 644371" d="M1428.3,915.634h-1.935a2.136,2.136,0,0,1-2-1.7l-.369-1.959a1.362,1.362,0,0,1,1.36-1.7h1.935a2.136,2.136,0,0,1,2,1.7l.369,1.959A1.362,1.362,0,0,1,1428.3,915.634Z" transform="translate(-1423.966 -910.275)" fill="#b6d4ff"/>
          </g>
          <g id="Grupo_908831" data-name="Grupo 908831" transform="translate(129.724 79.847)">
            <path id="Trazado_644372" data-name="Trazado 644372" d="M1458.176,915.629h-1.936a2.136,2.136,0,0,1-2-1.7l-.369-1.959a1.361,1.361,0,0,1,1.359-1.7h1.935a2.136,2.136,0,0,1,2,1.7l.369,1.959A1.362,1.362,0,0,1,1458.176,915.629Z" transform="translate(-1453.841 -910.27)" fill="#b6d4ff"/>
          </g>
          <g id="Grupo_908832" data-name="Grupo 908832" transform="translate(136.969 79.845)">
            <path id="Trazado_644373" data-name="Trazado 644373" d="M1488.05,915.623h-1.935a2.136,2.136,0,0,1-2-1.7l-.369-1.959a1.362,1.362,0,0,1,1.36-1.7h1.936a2.136,2.136,0,0,1,2,1.7l.369,1.959A1.361,1.361,0,0,1,1488.05,915.623Z" transform="translate(-1483.715 -910.264)" fill="#b6d4ff"/>
          </g>
          <g id="Grupo_908833" data-name="Grupo 908833" transform="translate(67.069 86.036)">
            <ellipse id="Elipse_7545" data-name="Elipse 7545" cx="0.764" cy="0.924" rx="0.764" ry="0.924" transform="translate(0 1.098) rotate(-45.913)" fill="#b6d4ff"/>
          </g>
          <g id="Grupo_908834" data-name="Grupo 908834" transform="translate(102.727 12.448)">
            <path id="Trazado_644374" data-name="Trazado 644374" d="M1398.81,633.7l10.917,57.928a1.071,1.071,0,0,1-1.07,1.338l-53.621.01a1.681,1.681,0,0,1-1.574-1.338l-10.917-57.929a1.072,1.072,0,0,1,1.07-1.338l53.621-.01A1.68,1.68,0,0,1,1398.81,633.7Z" transform="translate(-1342.521 -632.358)" fill="#def"/>
          </g>
          <g id="Grupo_908835" data-name="Grupo 908835" transform="translate(102.727 12.448)">
            <path id="Trazado_644375" data-name="Trazado 644375" d="M1398.81,633.7l.715,3.793-56.265.011-.715-3.793a1.072,1.072,0,0,1,1.07-1.338l53.621-.01A1.68,1.68,0,0,1,1398.81,633.7Z" transform="translate(-1342.521 -632.358)" fill="#b6d4ff"/>
          </g>
          <g id="Grupo_908836" data-name="Grupo 908836" transform="translate(104.817 13.779)">
            <path id="Trazado_644376" data-name="Trazado 644376" d="M1353.62,639.092a1.563,1.563,0,0,0-1.463-1.243,1,1,0,0,0-.994,1.244,1.563,1.563,0,0,0,1.463,1.243A1,1,0,0,0,1353.62,639.092Z" transform="translate(-1351.14 -637.849)" fill="#f8fbff"/>
          </g>
          <g id="Grupo_908837" data-name="Grupo 908837" transform="translate(109.15 13.779)">
            <path id="Trazado_644377" data-name="Trazado 644377" d="M1371.485,639.089a1.562,1.562,0,0,0-1.463-1.243,1,1,0,0,0-.994,1.244,1.562,1.562,0,0,0,1.463,1.243A1,1,0,0,0,1371.485,639.089Z" transform="translate(-1369.006 -637.846)" fill="#f8fbff"/>
          </g>
          <g id="Grupo_908838" data-name="Grupo 908838" transform="translate(113.483 13.778)">
            <path id="Trazado_644378" data-name="Trazado 644378" d="M1389.351,639.086a1.562,1.562,0,0,0-1.463-1.243,1,1,0,0,0-.994,1.244,1.563,1.563,0,0,0,1.463,1.243A1,1,0,0,0,1389.351,639.086Z" transform="translate(-1386.871 -637.843)" fill="#f8fbff"/>
          </g>
          <g id="Grupo_908839" data-name="Grupo 908839" transform="translate(110.424 31.609)">
            <path id="Trazado_644379" data-name="Trazado 644379" d="M1399.917,712.641l-25.42,0-.24-1.275,25.42,0Z" transform="translate(-1374.257 -711.366)" fill="#fff"/>
          </g>
          <g id="Grupo_908840" data-name="Grupo 908840" transform="translate(111.317 36.349)">
            <path id="Trazado_644380" data-name="Trazado 644380" d="M1403.6,732.186l-25.42,0-.24-1.275,25.42,0Z" transform="translate(-1377.94 -730.911)" fill="#fff"/>
          </g>
          <g id="Grupo_908841" data-name="Grupo 908841" transform="translate(112.21 41.089)">
            <path id="Trazado_644381" data-name="Trazado 644381" d="M1407.284,751.733l-25.42,0-.24-1.275,25.42,0Z" transform="translate(-1381.624 -750.458)" fill="#fff"/>
          </g>
          <g id="Grupo_908842" data-name="Grupo 908842" transform="translate(113.104 45.831)">
            <path id="Trazado_644382" data-name="Trazado 644382" d="M1402.713,771.284l-17.166,0-.24-1.275,17.166,0Z" transform="translate(-1385.307 -770.009)" fill="#fff"/>
          </g>
          <g id="Grupo_908843" data-name="Grupo 908843" transform="translate(113.997 50.571)">
            <path id="Trazado_644383" data-name="Trazado 644383" d="M1406.4,790.83l-17.166,0-.24-1.275,17.166,0Z" transform="translate(-1388.991 -789.555)" fill="#fff"/>
          </g>
          <g id="Grupo_908844" data-name="Grupo 908844" transform="translate(140.123 47.144)">
            <path id="Trazado_644384" data-name="Trazado 644384" d="M1519.378,795.042l-18.962,0-3.7-19.617,18.962,0Z" transform="translate(-1496.719 -775.425)" fill="#fff"/>
          </g>
          <g id="Grupo_908875" data-name="Grupo 908875" transform="translate(21.562 26.499)">
            <g id="Grupo_908845" data-name="Grupo 908845">
              <path id="Trazado_644385" data-name="Trazado 644385" d="M1085.356,691.827l8.373,44.43a1.225,1.225,0,0,1-1.223,1.53l-74.462.014a1.922,1.922,0,0,1-1.8-1.53l-8.373-44.43a1.227,1.227,0,0,1,1.224-1.53l74.461-.014A1.925,1.925,0,0,1,1085.356,691.827Z" transform="translate(-1007.844 -690.297)" fill="#def"/>
            </g>
            <g id="Grupo_908846" data-name="Grupo 908846" transform="translate(20.871 0.011)">
              <path id="Trazado_644386" data-name="Trazado 644386" d="M1103.212,737.831h-.359l-8.948-47.49h.359Z" transform="translate(-1093.905 -690.341)" fill="#b6d4ff"/>
            </g>
            <g id="Grupo_908866" data-name="Grupo 908866" transform="translate(3.968 4.13)">
              <g id="Grupo_908847" data-name="Grupo 908847">
                <path id="Trazado_644387" data-name="Trazado 644387" d="M1038.847,709.045h-.363l-13.587,0h-.363l-.325-1.724h14.318Z" transform="translate(-1024.208 -707.326)" fill="#fff"/>
              </g>
              <g id="Grupo_908848" data-name="Grupo 908848" transform="translate(0.706 3.752)">
                <path id="Trazado_644388" data-name="Trazado 644388" d="M1041.76,724.515h-14.318l-.325-1.72h14.318Z" transform="translate(-1027.117 -722.795)" fill="#fff"/>
              </g>
              <g id="Grupo_908849" data-name="Grupo 908849" transform="translate(1.415 7.499)">
                <path id="Trazado_644389" data-name="Trazado 644389" d="M1033.825,739.966l-3.1,0h-.363l-.321-1.719h.363l3.093,0Z" transform="translate(-1030.044 -738.247)" fill="#fff"/>
              </g>
              <g id="Grupo_908850" data-name="Grupo 908850" transform="translate(2.121 11.25)">
                <path id="Trazado_644390" data-name="Trazado 644390" d="M1041.652,755.435h-8.378l-.321-1.719h8.378Z" transform="translate(-1032.953 -753.716)" fill="#fff"/>
              </g>
              <g id="Grupo_908851" data-name="Grupo 908851" transform="translate(11.893 14.998)">
                <path id="Trazado_644391" data-name="Trazado 644391" d="M1078.818,770.891h-5.251l-.321-1.719h.363l4.525,0h.363Z" transform="translate(-1073.246 -769.168)" fill="#fff"/>
              </g>
              <g id="Grupo_908852" data-name="Grupo 908852" transform="translate(12.598 18.749)">
                <path id="Trazado_644392" data-name="Trazado 644392" d="M1081.732,786.356h-.363l-4.525,0h-.363l-.325-1.724h5.251Z" transform="translate(-1076.155 -784.637)" fill="#fff"/>
              </g>
              <g id="Grupo_908853" data-name="Grupo 908853" transform="translate(13.304 22.497)">
                <path id="Trazado_644393" data-name="Trazado 644393" d="M1084.641,801.812h-5.251l-.325-1.719h.363l4.525,0h.363Z" transform="translate(-1079.065 -800.089)" fill="#fff"/>
              </g>
              <g id="Grupo_908854" data-name="Grupo 908854" transform="translate(14.009 26.248)">
                <path id="Trazado_644394" data-name="Trazado 644394" d="M1087.55,817.277h-.363l-4.525,0h-.363l-.325-1.724h5.251Z" transform="translate(-1081.974 -815.558)" fill="#fff"/>
              </g>
              <g id="Grupo_908855" data-name="Grupo 908855" transform="translate(14.719 29.996)">
                <path id="Trazado_644395" data-name="Trazado 644395" d="M1090.473,832.733h-5.251l-.321-1.719h.363l4.525,0h.363Z" transform="translate(-1084.9 -831.009)" fill="#fff"/>
              </g>
              <g id="Grupo_908865" data-name="Grupo 908865" transform="translate(22.726 0.653)">
                <g id="Grupo_908856" data-name="Grupo 908856">
                  <path id="Trazado_644396" data-name="Trazado 644396" d="M1121.732,711.742h-3.5l-.321-1.719h.363l2.769,0h.363Z" transform="translate(-1117.915 -710.018)" fill="#b6d4ff"/>
                </g>
                <g id="Grupo_908857" data-name="Grupo 908857" transform="translate(0.706 3.752)">
                  <path id="Trazado_644397" data-name="Trazado 644397" d="M1124.645,727.207h-.363l-2.769,0h-.363l-.325-1.724h3.5Z" transform="translate(-1120.824 -725.487)" fill="#b6d4ff"/>
                </g>
                <g id="Grupo_908858" data-name="Grupo 908858" transform="translate(1.411 7.499)">
                  <path id="Trazado_644398" data-name="Trazado 644398" d="M1127.554,742.663h-3.5l-.325-1.719h.363l2.769,0h.363Z" transform="translate(-1123.733 -740.939)" fill="#b6d4ff"/>
                </g>
                <g id="Grupo_908859" data-name="Grupo 908859" transform="translate(2.117 11.25)">
                  <path id="Trazado_644399" data-name="Trazado 644399" d="M1130.464,758.128h-.363l-2.769,0h-.363l-.325-1.724h3.5Z" transform="translate(-1126.642 -756.408)" fill="#b6d4ff"/>
                </g>
                <g id="Grupo_908860" data-name="Grupo 908860" transform="translate(2.826 14.998)">
                  <path id="Trazado_644400" data-name="Trazado 644400" d="M1133.386,773.584h-3.5l-.321-1.72h.364l2.769,0h.363Z" transform="translate(-1129.569 -771.86)" fill="#b6d4ff"/>
                </g>
                <g id="Grupo_908861" data-name="Grupo 908861" transform="translate(3.494 18.749)">
                  <path id="Trazado_644401" data-name="Trazado 644401" d="M1136.142,789.048h-.363l-2.769,0h-.363l-.325-1.724h3.5Z" transform="translate(-1132.321 -787.329)" fill="#b6d4ff"/>
                </g>
                <g id="Grupo_908862" data-name="Grupo 908862" transform="translate(4.199 22.497)">
                  <path id="Trazado_644402" data-name="Trazado 644402" d="M1139.052,804.5h-3.5l-.325-1.719h.363l2.769,0h.363Z" transform="translate(-1135.23 -802.781)" fill="#b6d4ff"/>
                </g>
                <g id="Grupo_908863" data-name="Grupo 908863" transform="translate(4.905 26.248)">
                  <path id="Trazado_644403" data-name="Trazado 644403" d="M1141.961,819.969h-.363l-2.769,0h-.363l-.325-1.724h3.5Z" transform="translate(-1138.14 -818.25)" fill="#b6d4ff"/>
                </g>
                <g id="Grupo_908864" data-name="Grupo 908864" transform="translate(5.615 29.996)">
                  <path id="Trazado_644404" data-name="Trazado 644404" d="M1144.883,835.425h-3.5l-.321-1.72h.363l2.769,0h.363Z" transform="translate(-1141.066 -833.702)" fill="#b6d4ff"/>
                </g>
              </g>
            </g>
            <g id="Grupo_908867" data-name="Grupo 908867" transform="translate(33.337 4.782)">
              <path id="Trazado_644405" data-name="Trazado 644405" d="M1158.405,711.735l-12.773,0-.324-1.721,12.773,0Z" transform="translate(-1145.308 -710.014)" fill="#fff"/>
            </g>
            <g id="Grupo_908868" data-name="Grupo 908868" transform="translate(52.542 4.782)">
              <path id="Trazado_644406" data-name="Trazado 644406" d="M1237.595,711.735l-12.773,0-.324-1.721,12.773,0Z" transform="translate(-1224.497 -710.014)" fill="#fff"/>
            </g>
            <g id="Grupo_908869" data-name="Grupo 908869" transform="translate(51.851 12.282)">
              <path id="Trazado_644407" data-name="Trazado 644407" d="M1230.117,742.662l-8.145,0-.324-1.721,8.145,0Z" transform="translate(-1221.647 -740.941)" fill="#fff"/>
            </g>
            <g id="Grupo_908870" data-name="Grupo 908870" transform="translate(36.126 23.533)">
              <path id="Trazado_644408" data-name="Trazado 644408" d="M1168.2,789.052l-11.066,0-.324-1.721,11.066,0Z" transform="translate(-1156.805 -787.331)" fill="#fff"/>
            </g>
            <g id="Grupo_908871" data-name="Grupo 908871" transform="translate(40.898 31.031)">
              <path id="Trazado_644409" data-name="Trazado 644409" d="M1181.942,819.973l-5.135,0-.324-1.721,5.135,0Z" transform="translate(-1176.482 -818.252)" fill="#fff"/>
            </g>
            <g id="Grupo_908872" data-name="Grupo 908872" transform="translate(40.226 27.28)">
              <path id="Trazado_644410" data-name="Trazado 644410" d="M1179.173,804.5l-5.135,0-.324-1.721,5.135,0Z" transform="translate(-1173.714 -802.783)" fill="#fff"/>
            </g>
            <g id="Grupo_908873" data-name="Grupo 908873" transform="translate(56.642 16.034)">
              <path id="Trazado_644411" data-name="Trazado 644411" d="M1253.786,758.131l-12.061,0-.324-1.721,12.061,0Z" transform="translate(-1241.401 -756.41)" fill="#fff"/>
            </g>
            <g id="Grupo_908874" data-name="Grupo 908874" transform="translate(36.701 8.531)">
              <path id="Trazado_644412" data-name="Trazado 644412" d="M1190.859,727.2l-31.359.006-.324-1.721,31.359-.006Z" transform="translate(-1159.176 -725.474)" fill="#fff"/>
            </g>
          </g>
        </g>
      </g>
      <g id="table" transform="translate(369.954 434.173)">
        <g id="Grupo_908877" data-name="Grupo 908877">
          <rect id="Rectángulo_305026" data-name="Rectángulo 305026" width="304.18" height="13.225" fill="#cee2fd"/>
        </g>
        <g id="Grupo_908878" data-name="Grupo 908878">
          <rect id="Rectángulo_305027" data-name="Rectángulo 305027" width="107.506" height="13.225" fill="#b6d4ff"/>
        </g>
        <g id="Grupo_908879" data-name="Grupo 908879" transform="translate(34.212 13.225)">
          <g id="Fill-10" transform="translate(211.195)">
            <path id="Trazado_644413" data-name="Trazado 644413" d="M1552.564,1134h-11.887l21.124,129.331h3.438Z" transform="translate(-1540.677 -1134.003)" fill="#cee2fd" fill-rule="evenodd"/>
          </g>
          <g id="Fill-12" transform="translate(151.016)">
            <path id="Trazado_644414" data-name="Trazado 644414" d="M1304.419,1134h-11.887l21.124,129.331h3.438Z" transform="translate(-1292.532 -1134.003)" fill="#cee2fd" fill-rule="evenodd"/>
          </g>
          <g id="Fill-30">
            <path id="Trazado_644415" data-name="Trazado 644415" d="M694.4,1134H682.509l-12.674,129.331h3.438Z" transform="translate(-669.835 -1134.003)" fill="#b6d4ff" fill-rule="evenodd"/>
          </g>
          <g id="Fill-31" transform="translate(60.412)">
            <path id="Trazado_644416" data-name="Trazado 644416" d="M943.5,1134H931.611l-12.674,129.331h3.438Z" transform="translate(-918.937 -1134.003)" fill="#b6d4ff" fill-rule="evenodd"/>
          </g>
        </g>
      </g>
      <g id="man" transform="translate(543.372 303.677)">
        <g id="Grupo_908889" data-name="Grupo 908889" transform="translate(70.773 246.561)">
          <g id="Grupo_908888" data-name="Grupo 908888" transform="translate(0)">
            <g id="Grupo_908881" data-name="Grupo 908881" transform="translate(24.131)">
              <g id="Grupo_908880" data-name="Grupo 908880">
                <path id="Trazado_644417" data-name="Trazado 644417" d="M1640.124,1578.363l-4.958-18.673,11.7-1.637,4.522,16.983Z" transform="translate(-1635.166 -1558.054)" fill="#f3a396"/>
              </g>
            </g>
            <g id="Grupo_908883" data-name="Grupo 908883" transform="translate(25.77 7.323)">
              <g id="Grupo_908882" data-name="Grupo 908882">
                <path id="Trazado_644418" data-name="Trazado 644418" d="M1653.93,1588.249l2.572,9.659-11.26,3.327-3.318-12.5Z" transform="translate(-1641.924 -1588.249)" fill="#0f121f"/>
              </g>
            </g>
            <g id="Grupo_908887" data-name="Grupo 908887" transform="translate(0 10.361)">
              <g id="Grupo_908884" data-name="Grupo 908884" transform="translate(0.004)">
                <path id="Trazado_644419" data-name="Trazado 644419" d="M1576.025,1603.735l2.11,10.76-42.455-.061v-.264a5.393,5.393,0,0,1,3.083-4.864l21.871-8.342a1.591,1.591,0,0,1,1.825.212c2.149,2.276,5.781,5.98,12.359,1.977A.824.824,0,0,1,1576.025,1603.735Z" transform="translate(-1535.68 -1600.776)" fill="#f41157"/>
              </g>
              <g id="Grupo_908885" data-name="Grupo 908885" transform="translate(18.085 7.16)">
                <path id="Trazado_644420" data-name="Trazado 644420" d="M1632.821,1638.081l-2.531-.137a7.353,7.353,0,0,0-.7-3.483,2.8,2.8,0,0,0-1.1-1.315,4.853,4.853,0,0,0-2.57-.252,14.3,14.3,0,0,0-3.459.807c-.3.109-.588.228-.88.348a12.208,12.208,0,0,1-2.756.87,9.625,9.625,0,0,1-4.255-.366,15.649,15.649,0,0,1-4.331-2.057l1.438-2.088a13.072,13.072,0,0,0,3.62,1.718,7.129,7.129,0,0,0,3.137.29,10.126,10.126,0,0,0,2.19-.713c.319-.13.638-.26.96-.378a16.88,16.88,0,0,1,4.07-.95,7.114,7.114,0,0,1,3.971.507,5.21,5.21,0,0,1,2.248,2.48A9.822,9.822,0,0,1,1632.821,1638.081Z" transform="translate(-1610.236 -1630.3)" fill="#fff"/>
              </g>
              <g id="Grupo_908886" data-name="Grupo 908886" transform="translate(0 13.657)">
                <rect id="Rectángulo_305028" data-name="Rectángulo 305028" width="42.455" height="2.37" transform="translate(42.455 2.431) rotate(-179.918)" fill="#1f2640"/>
              </g>
            </g>
          </g>
        </g>
        <g id="Grupo_908890" data-name="Grupo 908890" transform="translate(69.76 185.656)">
          <path id="Trazado_644421" data-name="Trazado 644421" d="M1531.486,1306.929l20.1,63.237,17.7-2.477-13.052-60.771Z" transform="translate(-1531.486 -1306.919)" fill="#0f121f"/>
        </g>
        <g id="Grupo_908900" data-name="Grupo 908900" transform="translate(0.053 250.179)">
          <g id="Grupo_908899" data-name="Grupo 908899">
            <g id="Grupo_908892" data-name="Grupo 908892" transform="translate(26.7)">
              <g id="Grupo_908891" data-name="Grupo 908891">
                <path id="Trazado_644422" data-name="Trazado 644422" d="M1354.153,1585.917l2.735-12.947,11.733,1.193-2.918,13.861Z" transform="translate(-1354.153 -1572.97)" fill="#f3a396"/>
              </g>
            </g>
            <g id="Grupo_908894" data-name="Grupo 908894" transform="translate(26.7 4.353)">
              <g id="Grupo_908893" data-name="Grupo 908893">
                <path id="Trazado_644423" data-name="Trazado 644423" d="M1367.958,1590.921l-2.257,10.7-11.551-2.107,1.817-8.593Z" transform="translate(-1354.151 -1590.921)" fill="#0f121f"/>
              </g>
            </g>
            <g id="Grupo_908898" data-name="Grupo 908898" transform="translate(0 6.393)">
              <g id="Grupo_908895" data-name="Grupo 908895" transform="translate(0.004)">
                <path id="Trazado_644424" data-name="Trazado 644424" d="M1284.6,1602.288l1.568,11.11-42.1-.061v-.264a5.392,5.392,0,0,1,3.083-4.864l23.334-8.693a1.591,1.591,0,0,1,1.825.212c2.148,2.276,4.506,5.979,11.083,1.976A.824.824,0,0,1,1284.6,1602.288Z" transform="translate(-1244.072 -1599.329)" fill="#f41157"/>
              </g>
              <g id="Grupo_908896" data-name="Grupo 908896" transform="translate(17.73 7.511)">
                <path id="Trazado_644425" data-name="Trazado 644425" d="M1339.75,1638.082l-2.531-.137a7.353,7.353,0,0,0-.7-3.484,2.8,2.8,0,0,0-1.1-1.315,4.839,4.839,0,0,0-2.57-.252,14.329,14.329,0,0,0-3.459.807c-.294.108-.586.228-.879.347a12.179,12.179,0,0,1-2.757.871,9.62,9.62,0,0,1-4.255-.366,15.638,15.638,0,0,1-4.33-2.058l1.436-2.088a13.1,13.1,0,0,0,3.621,1.718,7.127,7.127,0,0,0,3.136.29,10.154,10.154,0,0,0,2.191-.714c.319-.13.638-.259.958-.378a16.887,16.887,0,0,1,4.071-.95,7.116,7.116,0,0,1,3.972.507,5.2,5.2,0,0,1,2.248,2.479A9.831,9.831,0,0,1,1339.75,1638.082Z" transform="translate(-1317.165 -1630.301)" fill="#fff"/>
              </g>
              <g id="Grupo_908897" data-name="Grupo 908897" transform="translate(0 14.008)">
                <rect id="Rectángulo_305029" data-name="Rectángulo 305029" width="42.1" height="2.37" transform="translate(42.1 2.431) rotate(-179.917)" fill="#1f2640"/>
              </g>
            </g>
          </g>
        </g>
        <g id="Grupo_908901" data-name="Grupo 908901" transform="translate(120.962 11.273)">
          <path id="Trazado_644426" data-name="Trazado 644426" d="M1786.835,609.978c1.16-12.929-10.927-23.211-23.438-22.014a21.317,21.317,0,0,0-14.41,7.513c-3.127,3.86-4.339,8.4-4.9,13.229a11.552,11.552,0,0,0-.032,2.7c.072.606.876,2.179.756,2.649q-.978,3.867-1.956,7.734c-.289,1.142-.575,2.4.715,3.356.3.222.562-.065.924-.15a13.767,13.767,0,0,1,.067,1.68,8.706,8.706,0,0,0,1.233,5.2c1.4,2.414.367,4.758,3.248,5.078,1.22.135,7.784-1.376,9-1.086,1.421.34,2.619,8.715,2.747,10.023l9.416,3.558a10.594,10.594,0,0,0,13.419-5.593c-2.888-4.359-5.294-14.883-5.074-20.107.015-.345,3.123-2.494,3.547-2.953a18.618,18.618,0,0,0,2.781-3.952A17.834,17.834,0,0,0,1786.835,609.978Z" transform="translate(-1742.611 -587.869)" fill="#f3a396"/>
        </g>
        <g id="Grupo_908902" data-name="Grupo 908902" transform="translate(28.324 150.109)">
          <path id="Trazado_644427" data-name="Trazado 644427" d="M1433.56,1160.343l-49.913,14.009a15.286,15.286,0,0,0-10.954,12.248l-12.062,73.695,17.493,1.779,22.4-66.173h69.019Z" transform="translate(-1360.631 -1160.343)" fill="#1f2640"/>
        </g>
        <g id="Grupo_908903" data-name="Grupo 908903" transform="translate(0 109.79)">
          <path id="Trazado_644428" data-name="Trazado 644428" d="M1329.381,994.093c-.11.259-10.519,5.937-10.519,5.937l-48.655,5.672-8.513-1.653-9.512.552-8.342,10.2,26.285.355,46.594,3.226a28.757,28.757,0,0,0,15.226-3.16l6.914-3.585Z" transform="translate(-1243.839 -994.093)" fill="#f3a396"/>
        </g>
        <g id="Grupo_908904" data-name="Grupo 908904" transform="translate(85.145 67.254)">
          <path id="Trazado_644429" data-name="Trazado 644429" d="M1671.754,818.7a24.651,24.651,0,0,1-5.151,1.741,40.494,40.494,0,0,1-14.293.712l-3.391-.418-16.613,9.177a107.56,107.56,0,0,0-19.163,13.5L1594.926,860.5l13.556,25.09,9.207-6.982-6.655,22.946,35.983,35.558,48.254-88.6A40.986,40.986,0,0,0,1671.754,818.7Z" transform="translate(-1594.926 -818.7)" fill="#3400fe"/>
        </g>
        <path id="Trazado_644430" data-name="Trazado 644430" d="M1781.734,554.818c-2.434-2.574-5.861-5.161-9.808-4.715a8.812,8.812,0,0,1,5.889-.754c-2.6-3.574-8.1-5.875-13.048-6.062a28.684,28.684,0,0,0-8.525.974,30.149,30.149,0,0,1,1.887-2.876c-20.126,5.9-17.831,17.738-16.448,21.633a4.778,4.778,0,0,0,.535,1.274c.909,1.469,2.713,1.514,4.464,1.44q.539-.023,1.072-.04a1.869,1.869,0,0,1,.4.642,3.428,3.428,0,0,1,.118,1.36,6.834,6.834,0,0,1-.1.748,9.162,9.162,0,0,1-1.766,3.916,2.456,2.456,0,0,1,1.981,1.758c.3.887,1.626,8.813,1.6,9.176l2.48.127c.207-2.974-.11-5.745.363-7.22a2.606,2.606,0,0,1,1.918-1.791,1.637,1.637,0,0,1,.338-.042,2.743,2.743,0,0,1,1.77,1.027,4.3,4.3,0,0,1,.9,1.711,7.407,7.407,0,0,1,.068,3.912,3.423,3.423,0,0,1,3.1.862c1.077,1.149,1.314,3.016,1.863,4.449a10.931,10.931,0,0,0,2.049,3.376,10.656,10.656,0,0,0,12.429,2.455,21.771,21.771,0,0,1-.182-3.625,16.908,16.908,0,0,1,2.176-1.618,23.092,23.092,0,0,0,5.045-6.573C1784.856,579,1789.716,563.258,1781.734,554.818Z" transform="translate(-1620.291 -541.385)" fill="#0f121f"/>
        <g id="Grupo_908905" data-name="Grupo 908905" transform="translate(122 32.786)">
          <path id="Trazado_644431" data-name="Trazado 644431" d="M1747.3,678.594s.568-.8,2.331-.28c0,0-.758-1.845-2.363-1.735A1.481,1.481,0,0,0,1747.3,678.594Z" transform="translate(-1746.892 -676.574)" fill="#0f121f" fill-rule="evenodd"/>
        </g>
        <g id="Grupo_908906" data-name="Grupo 908906" transform="translate(4.138 126.909)">
          <path id="Trazado_644432" data-name="Trazado 644432" d="M1260.9,1068.352l5.429-3.673,9.367.459,2.316,3.417Z" transform="translate(-1260.901 -1064.679)" fill="#0f121f"/>
        </g>
        <g id="Grupo_908907" data-name="Grupo 908907" transform="translate(102.344 111.315)">
          <path id="Trazado_644433" data-name="Trazado 644433" d="M1671.407,1016.228l17.684-15.848s-23.366,35.438-23.248,35.031Z" transform="translate(-1665.843 -1000.38)" fill="#0f121f"/>
        </g>
      </g>
      <g id="chair" transform="translate(624.939 387.605)">
        <g id="Grupo_908910" data-name="Grupo 908910">
          <g id="Grupo_908908" data-name="Grupo 908908" transform="translate(0 0.125)">
            <path id="Trazado_644434" data-name="Trazado 644434" d="M1662.872,887.973c-4,0-7.043,1.625-7.746,5.2l-18.963,96.4h-49.394a6.6,6.6,0,0,0,0,13.194h60.245s53.44,0,53.44,0c.266-1.351,16.1-79.246,20.933-105.943a7.515,7.515,0,0,0-7.4-8.853Z" transform="translate(-1580.172 -887.973)" fill="#cce3ff"/>
          </g>
          <g id="Grupo_908909" data-name="Grupo 908909">
            <path id="Trazado_644435" data-name="Trazado 644435" d="M1662.873,887.582a6.6,6.6,0,0,0-7.746,5.2l-18.963,96.4h-49.395a6.6,6.6,0,0,0,0,13.194h60.247s21.057-107.05,21.057-107.05A6.6,6.6,0,0,0,1662.873,887.582Z" transform="translate(-1580.172 -887.456)" fill="#b6d4ff"/>
          </g>
        </g>
        <g id="Grupo_908911" data-name="Grupo 908911" transform="translate(45.303 114.921)">
          <path id="Rectángulo_305030" data-name="Rectángulo 305030" d="M0,0H42.373a0,0,0,0,1,0,0V0A11.925,11.925,0,0,1,30.448,11.925H11.925A11.925,11.925,0,0,1,0,0V0A0,0,0,0,1,0,0Z" fill="#b6d4ff"/>
        </g>
        <g id="Grupo_908912" data-name="Grupo 908912" transform="translate(63.825 126.847)">
          <rect id="Rectángulo_305031" data-name="Rectángulo 305031" width="5.328" height="41.569" fill="#cce3ff"/>
        </g>
        <g id="Grupo_908913" data-name="Grupo 908913" transform="translate(61.679 168.416)">
          <rect id="Rectángulo_305032" data-name="Rectángulo 305032" width="9.621" height="9.621" fill="#cce3ff"/>
        </g>
        <g id="Grupo_908917" data-name="Grupo 908917" transform="translate(23.227 175.069)">
          <g id="Grupo_908914" data-name="Grupo 908914" transform="translate(72.468)">
            <circle id="Elipse_7546" data-name="Elipse 7546" cx="7.027" cy="7.027" r="7.027" fill="#b6d4ff"/>
          </g>
          <g id="Grupo_908915" data-name="Grupo 908915" transform="translate(24.892)">
            <circle id="Elipse_7547" data-name="Elipse 7547" cx="7.027" cy="7.027" r="7.027" fill="#b6d4ff"/>
          </g>
          <g id="Grupo_908916" data-name="Grupo 908916">
            <circle id="Elipse_7548" data-name="Elipse 7548" cx="7.027" cy="7.027" r="7.027" fill="#b6d4ff"/>
          </g>
        </g>
        <g id="Grupo_908920" data-name="Grupo 908920" transform="translate(21.367 173.226)">
          <g id="Grupo_908918" data-name="Grupo 908918" transform="translate(45.122)">
            <path id="Rectángulo_305033" data-name="Rectángulo 305033" d="M0,0H36.252a8.87,8.87,0,0,1,8.87,8.87v0a0,0,0,0,1,0,0H0a0,0,0,0,1,0,0V0A0,0,0,0,1,0,0Z" fill="#cce3ff"/>
          </g>
          <g id="Grupo_908919" data-name="Grupo 908919" transform="translate(0 0)">
            <path id="Rectángulo_305034" data-name="Rectángulo 305034" d="M0,0H45.122a0,0,0,0,1,0,0V0a8.87,8.87,0,0,1-8.87,8.87H0a0,0,0,0,1,0,0V0A0,0,0,0,1,0,0Z" transform="translate(45.122 8.87) rotate(180)" fill="#cce3ff"/>
          </g>
        </g>
        <g id="Grupo_908921" data-name="Grupo 908921" transform="translate(46.074 173.226)">
          <path id="Rectángulo_305035" data-name="Rectángulo 305035" d="M0,0H20.415a0,0,0,0,1,0,0V0a8.87,8.87,0,0,1-8.87,8.87H0a0,0,0,0,1,0,0V0A0,0,0,0,1,0,0Z" transform="translate(20.415 8.87) rotate(180)" fill="#b6d4ff"/>
        </g>
      </g>
      <g id="computer_2" transform="translate(364.257 343.011)">
        <g id="Grupo_908930" data-name="Grupo 908930" transform="translate(37.136 49.992)">
          <g id="Grupo_908922" data-name="Grupo 908922" transform="translate(3.7 6.008)">
            <rect id="Rectángulo_305036" data-name="Rectángulo 305036" width="11.914" height="31.462" fill="#cee2fd"/>
          </g>
          <g id="Grupo_908923" data-name="Grupo 908923" transform="translate(34.37 23.655)">
            <path id="Trazado_644436" data-name="Trazado 644436" d="M800.125,1010.59H815.44v-3.312l-15.315-.025Z" transform="translate(-800.125 -1007.253)" fill="#cee2fd" fill-rule="evenodd"/>
          </g>
          <g id="Grupo_908926" data-name="Grupo 908926" transform="translate(15.614)">
            <g id="Fill-26" transform="translate(0 0.205)">
              <path id="Trazado_644437" data-name="Trazado 644437" d="M758.04,933.949l-32.3-23.044a1.871,1.871,0,1,0-2.174,3.047L755.867,937a1.871,1.871,0,1,0,2.174-3.047Z" transform="translate(-722.785 -910.557)" fill="#cee2fd" fill-rule="evenodd"/>
            </g>
            <g id="Grupo_908924" data-name="Grupo 908924" transform="translate(0 37.47)">
              <path id="Trazado_644438" data-name="Trazado 644438" d="M761.383,1066.065a1.85,1.85,0,0,0-1.85-1.85h-34.9a1.85,1.85,0,1,0,0,3.7h34.9A1.85,1.85,0,0,0,761.383,1066.065Z" transform="translate(-722.785 -1064.215)" fill="#cee2fd" fill-rule="evenodd"/>
            </g>
            <g id="Grupo_908925" data-name="Grupo 908925" transform="translate(0)">
              <path id="Trazado_644439" data-name="Trazado 644439" d="M724.635,950.883a1.85,1.85,0,0,0,1.85-1.85v-37.47a1.85,1.85,0,0,0-3.7,0v37.47A1.85,1.85,0,0,0,724.635,950.883Z" transform="translate(-722.785 -909.713)" fill="#cee2fd" fill-rule="evenodd"/>
            </g>
          </g>
          <g id="Grupo_908929" data-name="Grupo 908929">
            <g id="Fill-26-2" data-name="Fill-26" transform="translate(0 0.205)">
              <path id="Trazado_644440" data-name="Trazado 644440" d="M693.66,933.949l-32.3-23.044a1.871,1.871,0,1,0-2.174,3.047L691.487,937a1.871,1.871,0,0,0,2.174-3.047Z" transform="translate(-658.405 -910.557)" fill="#b6d4ff" fill-rule="evenodd"/>
            </g>
            <g id="Grupo_908927" data-name="Grupo 908927" transform="translate(0 37.47)">
              <path id="Trazado_644441" data-name="Trazado 644441" d="M697,1066.065a1.85,1.85,0,0,0-1.85-1.85h-34.9a1.85,1.85,0,1,0,0,3.7h34.9A1.85,1.85,0,0,0,697,1066.065Z" transform="translate(-658.404 -1064.215)" fill="#b6d4ff" fill-rule="evenodd"/>
            </g>
            <g id="Grupo_908928" data-name="Grupo 908928">
              <path id="Trazado_644442" data-name="Trazado 644442" d="M660.254,950.883a1.85,1.85,0,0,0,1.85-1.85v-37.47a1.85,1.85,0,0,0-3.7,0v37.47A1.85,1.85,0,0,0,660.254,950.883Z" transform="translate(-658.404 -909.713)" fill="#b6d4ff" fill-rule="evenodd"/>
            </g>
          </g>
        </g>
        <g id="Fill-14" transform="translate(2.243)">
          <path id="Trazado_644443" data-name="Trazado 644443" d="M587.166,749.09H528.332l-13.805-45.512h58.835Z" transform="translate(-514.526 -703.578)" fill="#cee2fd" fill-rule="evenodd"/>
        </g>
        <g id="Fill-16" transform="translate(6.385 2.928)">
          <path id="Trazado_644444" data-name="Trazado 644444" d="M584.254,715.649l11.785,38.86h-52.65L531.6,715.649Z" transform="translate(-531.604 -715.649)" fill="#fff" fill-rule="evenodd"/>
        </g>
        <g id="Fill-26-3" data-name="Fill-26" transform="translate(15.373 45.512)">
          <path id="Trazado_644445" data-name="Trazado 644445" d="M604.365,916.216l-35-24.975a3.743,3.743,0,0,0,.873,5.221l32.736,23.357Z" transform="translate(-568.666 -891.241)" fill="#b6d4ff" fill-rule="evenodd"/>
        </g>
        <g id="Grupo_908931" data-name="Grupo 908931" transform="translate(16.097 45.512)">
          <path id="Trazado_644446" data-name="Trazado 644446" d="M571.65,891.241h58.783l35,24.975H606.626Z" transform="translate(-571.65 -891.241)" fill="#cee2fd" fill-rule="evenodd"/>
        </g>
        <g id="Grupo_908971" data-name="Grupo 908971" transform="translate(25.948 48.515)">
          <g id="Grupo_908932" data-name="Grupo 908932">
            <path id="Trazado_644447" data-name="Trazado 644447" d="M619.528,906.706l-4.293-3.081h-2.965l4.293,3.081Z" transform="translate(-612.271 -903.626)" fill="#fff"/>
          </g>
          <g id="Grupo_908933" data-name="Grupo 908933" transform="translate(4.435)">
            <path id="Trazado_644448" data-name="Trazado 644448" d="M637.812,906.706l-4.293-3.081h-2.963l4.293,3.081Z" transform="translate(-630.556 -903.626)" fill="#fff"/>
          </g>
          <g id="Grupo_908934" data-name="Grupo 908934" transform="translate(8.869)">
            <path id="Trazado_644449" data-name="Trazado 644449" d="M656.1,906.706l-4.293-3.081H648.84l4.293,3.081Z" transform="translate(-648.84 -903.626)" fill="#fff"/>
          </g>
          <g id="Grupo_908935" data-name="Grupo 908935" transform="translate(13.302)">
            <path id="Trazado_644450" data-name="Trazado 644450" d="M674.376,906.706l-4.293-3.081h-2.964l4.293,3.081Z" transform="translate(-667.119 -903.626)" fill="#fff"/>
          </g>
          <g id="Grupo_908936" data-name="Grupo 908936" transform="translate(17.737)">
            <path id="Trazado_644451" data-name="Trazado 644451" d="M692.661,906.706l-4.293-3.081h-2.963l4.293,3.081Z" transform="translate(-685.405 -903.626)" fill="#fff"/>
          </g>
          <g id="Grupo_908937" data-name="Grupo 908937" transform="translate(22.17)">
            <path id="Trazado_644452" data-name="Trazado 644452" d="M707.98,906.706h2.964l-4.293-3.081h-2.964Z" transform="translate(-703.687 -903.626)" fill="#fff"/>
          </g>
          <g id="Grupo_908938" data-name="Grupo 908938" transform="translate(26.604)">
            <path id="Trazado_644453" data-name="Trazado 644453" d="M729.225,906.706l-4.293-3.081h-2.964l4.293,3.081Z" transform="translate(-721.968 -903.626)" fill="#fff"/>
          </g>
          <g id="Grupo_908939" data-name="Grupo 908939" transform="translate(31.038)">
            <path id="Trazado_644454" data-name="Trazado 644454" d="M744.547,906.706h2.963l-4.293-3.081h-2.963Z" transform="translate(-740.254 -903.626)" fill="#fff"/>
          </g>
          <g id="Grupo_908940" data-name="Grupo 908940" transform="translate(35.471)">
            <path id="Trazado_644455" data-name="Trazado 644455" d="M765.791,906.706l-4.293-3.081h-2.965l4.293,3.081Z" transform="translate(-758.533 -903.626)" fill="#fff"/>
          </g>
          <g id="Grupo_908941" data-name="Grupo 908941" transform="translate(39.906)">
            <path id="Trazado_644456" data-name="Trazado 644456" d="M784.075,906.706l-4.293-3.081h-2.964l4.293,3.081Z" transform="translate(-776.819 -903.626)" fill="#fff"/>
          </g>
          <g id="Grupo_908942" data-name="Grupo 908942" transform="translate(44.34)">
            <path id="Trazado_644457" data-name="Trazado 644457" d="M802.359,906.706l-4.293-3.081H795.1l4.293,3.081Z" transform="translate(-795.103 -903.626)" fill="#fff"/>
          </g>
          <g id="Grupo_908943" data-name="Grupo 908943" transform="translate(6.924 4.969)">
            <path id="Trazado_644458" data-name="Trazado 644458" d="M648.076,927.194l-4.291-3.08h-2.965l4.291,3.08Z" transform="translate(-640.821 -924.114)" fill="#fff"/>
          </g>
          <g id="Grupo_908944" data-name="Grupo 908944" transform="translate(11.359 4.969)">
            <path id="Trazado_644459" data-name="Trazado 644459" d="M666.361,927.194l-4.291-3.08h-2.963l4.291,3.08Z" transform="translate(-659.107 -924.114)" fill="#fff"/>
          </g>
          <g id="Grupo_908945" data-name="Grupo 908945" transform="translate(15.793 4.969)">
            <path id="Trazado_644460" data-name="Trazado 644460" d="M684.645,927.194l-4.291-3.08H677.39l4.291,3.08Z" transform="translate(-677.39 -924.114)" fill="#fff"/>
          </g>
          <g id="Grupo_908946" data-name="Grupo 908946" transform="translate(20.226 4.969)">
            <path id="Trazado_644461" data-name="Trazado 644461" d="M702.925,927.194l-4.291-3.08h-2.964l4.291,3.08Z" transform="translate(-695.669 -924.114)" fill="#fff"/>
          </g>
          <g id="Grupo_908947" data-name="Grupo 908947" transform="translate(24.66 4.969)">
            <path id="Trazado_644462" data-name="Trazado 644462" d="M721.21,927.194l-4.291-3.08h-2.963l4.291,3.08Z" transform="translate(-713.955 -924.114)" fill="#fff"/>
          </g>
          <g id="Grupo_908948" data-name="Grupo 908948" transform="translate(29.094 4.969)">
            <path id="Trazado_644463" data-name="Trazado 644463" d="M736.528,927.194h2.964l-4.291-3.08h-2.964Z" transform="translate(-732.237 -924.114)" fill="#fff"/>
          </g>
          <g id="Grupo_908949" data-name="Grupo 908949" transform="translate(33.528 4.969)">
            <path id="Trazado_644464" data-name="Trazado 644464" d="M757.774,927.194l-4.291-3.08h-2.964l4.291,3.08Z" transform="translate(-750.518 -924.114)" fill="#fff"/>
          </g>
          <g id="Grupo_908950" data-name="Grupo 908950" transform="translate(37.962 4.969)">
            <path id="Trazado_644465" data-name="Trazado 644465" d="M773.1,927.194h2.963l-4.291-3.08H768.8Z" transform="translate(-768.804 -924.114)" fill="#fff"/>
          </g>
          <g id="Grupo_908951" data-name="Grupo 908951" transform="translate(42.395 4.969)">
            <path id="Trazado_644466" data-name="Trazado 644466" d="M794.339,927.194l-4.291-3.08h-2.965l4.291,3.08Z" transform="translate(-787.083 -924.114)" fill="#fff"/>
          </g>
          <g id="Grupo_908952" data-name="Grupo 908952" transform="translate(46.83 4.969)">
            <path id="Trazado_644467" data-name="Trazado 644467" d="M812.624,927.194l-4.291-3.08h-2.963l4.291,3.08Z" transform="translate(-805.369 -924.114)" fill="#fff"/>
          </g>
          <g id="Grupo_908953" data-name="Grupo 908953" transform="translate(51.264 4.969)">
            <path id="Trazado_644468" data-name="Trazado 644468" d="M830.908,927.194l-4.291-3.08h-2.964l4.291,3.08Z" transform="translate(-823.653 -924.114)" fill="#fff"/>
          </g>
          <g id="Grupo_908954" data-name="Grupo 908954" transform="translate(13.846 9.937)">
            <path id="Trazado_644469" data-name="Trazado 644469" d="M679.573,947.68l-4.293-3.081h-5.916l4.293,3.081Z" transform="translate(-669.365 -944.599)" fill="#fff"/>
          </g>
          <g id="Grupo_908955" data-name="Grupo 908955" transform="translate(55.228 9.937)">
            <path id="Trazado_644470" data-name="Trazado 644470" d="M850.206,947.68l-4.293-3.081H840l4.293,3.081Z" transform="translate(-839.998 -944.599)" fill="#fff"/>
          </g>
          <g id="Grupo_908956" data-name="Grupo 908956" transform="translate(20.736 9.937)">
            <path id="Trazado_644471" data-name="Trazado 644471" d="M705.028,947.68l-4.293-3.081h-2.963l4.293,3.081Z" transform="translate(-697.772 -944.599)" fill="#fff"/>
          </g>
          <g id="Grupo_908957" data-name="Grupo 908957" transform="translate(25.099 9.937)">
            <path id="Trazado_644472" data-name="Trazado 644472" d="M723.021,947.68l-4.293-3.081h-2.963l4.293,3.081Z" transform="translate(-715.765 -944.599)" fill="#fff"/>
          </g>
          <g id="Grupo_908958" data-name="Grupo 908958" transform="translate(29.461 9.937)">
            <path id="Trazado_644473" data-name="Trazado 644473" d="M741.007,947.68l-4.293-3.081h-2.964l4.293,3.081Z" transform="translate(-733.751 -944.599)" fill="#fff"/>
          </g>
          <g id="Grupo_908959" data-name="Grupo 908959" transform="translate(33.826 9.937)">
            <path id="Trazado_644474" data-name="Trazado 644474" d="M756.039,947.68H759L754.71,944.6h-2.964Z" transform="translate(-751.746 -944.599)" fill="#fff"/>
          </g>
          <g id="Grupo_908960" data-name="Grupo 908960" transform="translate(38.188 9.937)">
            <path id="Trazado_644475" data-name="Trazado 644475" d="M776.99,947.68,772.7,944.6h-2.965l4.293,3.081Z" transform="translate(-769.733 -944.599)" fill="#fff"/>
          </g>
          <g id="Grupo_908961" data-name="Grupo 908961" transform="translate(42.552 9.937)">
            <path id="Trazado_644476" data-name="Trazado 644476" d="M792.02,947.68h2.964l-4.293-3.081h-2.963Z" transform="translate(-787.728 -944.599)" fill="#fff"/>
          </g>
          <g id="Grupo_908962" data-name="Grupo 908962" transform="translate(46.915 9.937)">
            <path id="Trazado_644477" data-name="Trazado 644477" d="M812.977,947.68l-4.293-3.081H805.72l4.293,3.081Z" transform="translate(-805.72 -944.599)" fill="#fff"/>
          </g>
          <g id="Grupo_908963" data-name="Grupo 908963" transform="translate(51.277 9.937)">
            <path id="Trazado_644478" data-name="Trazado 644478" d="M830.964,947.68l-4.293-3.081h-2.965L828,947.68Z" transform="translate(-823.707 -944.599)" fill="#fff"/>
          </g>
          <g id="Grupo_908964" data-name="Grupo 908964" transform="translate(20.77 14.906)">
            <path id="Trazado_644479" data-name="Trazado 644479" d="M705.17,968.168l-4.293-3.081h-2.965l4.293,3.081Z" transform="translate(-697.913 -965.087)" fill="#fff"/>
          </g>
          <g id="Grupo_908965" data-name="Grupo 908965" transform="translate(25.205 14.906)">
            <path id="Trazado_644480" data-name="Trazado 644480" d="M723.455,968.168l-4.293-3.081H716.2l4.293,3.081Z" transform="translate(-716.199 -965.087)" fill="#fff"/>
          </g>
          <g id="Grupo_908966" data-name="Grupo 908966" transform="translate(29.639 14.906)">
            <path id="Trazado_644481" data-name="Trazado 644481" d="M741.739,968.168l-4.293-3.081h-2.964l4.293,3.081Z" transform="translate(-734.483 -965.087)" fill="#fff"/>
          </g>
          <g id="Grupo_908967" data-name="Grupo 908967" transform="translate(33.789 14.906)">
            <path id="Trazado_644482" data-name="Trazado 644482" d="M765.181,965.087H751.6l4.293,3.081h20.982l-4.293-3.081h-7.4Z" transform="translate(-751.596 -965.087)" fill="#fff"/>
          </g>
          <g id="Grupo_908968" data-name="Grupo 908968" transform="translate(56.241 14.906)">
            <path id="Trazado_644483" data-name="Trazado 644483" d="M851.433,968.168l-4.293-3.081h-2.965l4.293,3.081Z" transform="translate(-844.176 -965.087)" fill="#fff"/>
          </g>
          <g id="Grupo_908969" data-name="Grupo 908969" transform="translate(60.676 14.906)">
            <path id="Trazado_644484" data-name="Trazado 644484" d="M869.718,968.168l-4.293-3.081h-2.963l4.293,3.081Z" transform="translate(-862.462 -965.087)" fill="#fff"/>
          </g>
          <g id="Grupo_908970" data-name="Grupo 908970" transform="translate(65.11 14.906)">
            <path id="Trazado_644485" data-name="Trazado 644485" d="M888,968.168l-4.293-3.081h-2.964l4.293,3.081Z" transform="translate(-880.745 -965.087)" fill="#fff"/>
          </g>
        </g>
        <g id="Grupo_908972" data-name="Grupo 908972" transform="translate(49.678 70.486)">
          <path id="Trazado_644486" data-name="Trazado 644486" d="M711.515,994.221h58.81A5.089,5.089,0,0,1,765.7,997.3l-55.578.525Z" transform="translate(-710.12 -994.221)" fill="#b6d4ff" fill-rule="evenodd"/>
        </g>
        <g id="Grupo_908985" data-name="Grupo 908985" transform="translate(13.624 12.582)">
          <g id="Grupo_908973" data-name="Grupo 908973">
            <path id="Trazado_644487" data-name="Trazado 644487" d="M598.806,756.182l6.479,21.047a.518.518,0,0,1-.5.725l-35.863.028a1.068,1.068,0,0,1-.951-.724l-6.479-21.047a.519.519,0,0,1,.5-.725l35.863-.027A1.069,1.069,0,0,1,598.806,756.182Z" transform="translate(-561.453 -755.458)" fill="#def"/>
          </g>
          <g id="Grupo_908974" data-name="Grupo 908974" transform="translate(0 0.02)">
            <path id="Trazado_644488" data-name="Trazado 644488" d="M571.614,755.541l6.926,22.5-9.623.007a1.068,1.068,0,0,1-.951-.724l-6.479-21.047a.519.519,0,0,1,.5-.725Z" transform="translate(-561.453 -755.541)" fill="#b6d4ff"/>
          </g>
          <g id="Grupo_908975" data-name="Grupo 908975" transform="translate(3.2 2.385)">
            <ellipse id="Elipse_7549" data-name="Elipse 7549" cx="2.135" cy="2.897" rx="2.135" ry="2.897" transform="matrix(0.645, -0.764, 0.764, 0.645, 0, 3.262)" fill="#f8fbff"/>
          </g>
          <g id="Grupo_908976" data-name="Grupo 908976" transform="translate(4.828 10.461)">
            <path id="Trazado_644489" data-name="Trazado 644489" d="M588.068,799.407l-6.457,0-.251-.815,6.458-.005Z" transform="translate(-581.359 -798.592)" fill="#fff"/>
          </g>
          <g id="Grupo_908977" data-name="Grupo 908977" transform="translate(5.374 12.239)">
            <path id="Trazado_644490" data-name="Trazado 644490" d="M588.233,806.739l-4.368,0-.251-.815,4.368,0Z" transform="translate(-583.614 -805.923)" fill="#fff"/>
          </g>
          <g id="Grupo_908978" data-name="Grupo 908978" transform="translate(5.921 14.015)">
            <path id="Trazado_644491" data-name="Trazado 644491" d="M590.488,814.062l-4.368,0-.251-.815,4.368,0Z" transform="translate(-585.869 -813.247)" fill="#fff"/>
          </g>
          <g id="Grupo_908979" data-name="Grupo 908979" transform="translate(6.468 15.791)">
            <path id="Trazado_644492" data-name="Trazado 644492" d="M592.743,821.386l-4.368,0-.251-.815,4.368,0Z" transform="translate(-588.123 -820.571)" fill="#fff"/>
          </g>
          <g id="Grupo_908980" data-name="Grupo 908980" transform="translate(17.254 11.762)">
            <path id="Trazado_644493" data-name="Trazado 644493" d="M655.216,812.386l-20.022.015-2.6-8.43,20.022-.015Z" transform="translate(-632.598 -803.956)" fill="#fff"/>
          </g>
          <g id="Grupo_908981" data-name="Grupo 908981" transform="translate(14.331 2.273)">
            <path id="Trazado_644494" data-name="Trazado 644494" d="M630.307,765.647l-9.513.007-.251-.815,9.513-.007Z" transform="translate(-620.544 -764.832)" fill="#fff"/>
          </g>
          <g id="Grupo_908982" data-name="Grupo 908982" transform="translate(15.263 5.306)">
            <path id="Trazado_644495" data-name="Trazado 644495" d="M630.45,778.152l-5.809,0-.251-.815,5.809,0Z" transform="translate(-624.39 -777.336)" fill="#fff"/>
          </g>
          <g id="Grupo_908983" data-name="Grupo 908983" transform="translate(15.73 6.821)">
            <path id="Trazado_644496" data-name="Trazado 644496" d="M632.373,784.4l-5.809,0-.251-.815,5.809,0Z" transform="translate(-626.313 -783.582)" fill="#fff"/>
          </g>
          <g id="Grupo_908984" data-name="Grupo 908984" transform="translate(14.797 3.784)">
            <path id="Trazado_644497" data-name="Trazado 644497" d="M637.821,771.875l-15.1.012-.251-.815,15.1-.012Z" transform="translate(-622.467 -771.06)" fill="#fff"/>
          </g>
        </g>
        <g id="Fill-27" transform="translate(0 0)">
          <path id="Trazado_644498" data-name="Trazado 644498" d="M521.374,749.09a4.875,4.875,0,0,1-4.665-3.46l-11.25-37.09a4.2,4.2,0,0,1,2.111-4.962Z" transform="translate(-505.277 -703.578)" fill="#b6d4ff" fill-rule="evenodd"/>
        </g>
      </g>
      <g id="elements" transform="translate(319.108 227.571)">
        <g id="Grupo_909010" data-name="Grupo 909010" transform="translate(105.012 40.275)">
          <g id="Grupo_908986" data-name="Grupo 908986" transform="translate(40.316 46.436)" style="mix-blend-mode: multiply;isolation: isolate">
            <path id="Trazado_644499" data-name="Trazado 644499" d="M937.615,585.111l3.607,19.14a1.071,1.071,0,0,1-1.069,1.339l-19.058,0-2.74-14.488Z" transform="translate(-918.355 -585.111)" fill="#b6d4ff"/>
          </g>
          <g id="Grupo_908987" data-name="Grupo 908987" transform="translate(1.096 7.06)">
            <path id="Trazado_644500" data-name="Trazado 644500" d="M822.033,478.225l-53.62.008a1.683,1.683,0,0,1-1.576-1.339l-10.2-54.136,56.265-.008,10.2,54.136A1.071,1.071,0,0,1,822.033,478.225Z" transform="translate(-756.634 -422.75)" fill="#ffc861"/>
          </g>
          <g id="Grupo_908988" data-name="Grupo 908988">
            <path id="Trazado_644501" data-name="Trazado 644501" d="M808.4,394.977l.715,3.793-56.265.01-.715-3.793a1.071,1.071,0,0,1,1.07-1.338l53.621-.01A1.681,1.681,0,0,1,808.4,394.977Z" transform="translate(-752.114 -393.639)" fill="#3400fe"/>
          </g>
          <g id="Grupo_908989" data-name="Grupo 908989" transform="translate(2.939 1.434)">
            <path id="Trazado_644502" data-name="Trazado 644502" d="M766.507,400.695a1.434,1.434,0,0,0-1.342-1.141.914.914,0,0,0-.912,1.141,1.434,1.434,0,0,0,1.342,1.141A.914.914,0,0,0,766.507,400.695Z" transform="translate(-764.232 -399.554)" fill="#f8fbff"/>
          </g>
          <g id="Grupo_908990" data-name="Grupo 908990" transform="translate(6.913 1.434)">
            <path id="Trazado_644503" data-name="Trazado 644503" d="M782.9,400.692a1.434,1.434,0,0,0-1.342-1.141.914.914,0,0,0-.912,1.141,1.433,1.433,0,0,0,1.342,1.141A.914.914,0,0,0,782.9,400.692Z" transform="translate(-780.622 -399.551)" fill="#f8fbff"/>
          </g>
          <g id="Grupo_908991" data-name="Grupo 908991" transform="translate(10.888 1.433)">
            <path id="Trazado_644504" data-name="Trazado 644504" d="M799.286,400.688a1.433,1.433,0,0,0-1.342-1.14.914.914,0,0,0-.912,1.141,1.433,1.433,0,0,0,1.342,1.141A.914.914,0,0,0,799.286,400.688Z" transform="translate(-797.011 -399.548)" fill="#f8fbff"/>
          </g>
          <g id="Grupo_908992" data-name="Grupo 908992" transform="translate(11.802 21.09)">
            <path id="Trazado_644505" data-name="Trazado 644505" d="M822.69,481.878l-21.673,0-.241-1.276,21.673,0Z" transform="translate(-800.777 -480.602)" fill="#fff"/>
          </g>
          <g id="Grupo_908993" data-name="Grupo 908993" transform="translate(35.502 21.09)">
            <path id="Trazado_644506" data-name="Trazado 644506" d="M903.58,481.878l-4.835,0-.241-1.276,4.835,0Z" transform="translate(-898.504 -480.602)" fill="#f41157"/>
          </g>
          <g id="Grupo_908994" data-name="Grupo 908994" transform="translate(42.234 21.09)">
            <path id="Trazado_644507" data-name="Trazado 644507" d="M938.834,481.878l-12.333,0-.241-1.276,12.333,0Z" transform="translate(-926.26 -480.602)" fill="#fff"/>
          </g>
          <g id="Grupo_908995" data-name="Grupo 908995" transform="translate(12.697 25.83)">
            <path id="Trazado_644508" data-name="Trazado 644508" d="M820.034,501.423l-15.327,0-.237-1.276,15.327,0Z" transform="translate(-804.47 -500.148)" fill="#fff"/>
          </g>
          <g id="Grupo_908996" data-name="Grupo 908996" transform="translate(30.606 25.83)">
            <path id="Trazado_644509" data-name="Trazado 644509" d="M893.88,501.423l-15.327,0-.237-1.276,15.327,0Z" transform="translate(-878.316 -500.148)" fill="#fff"/>
          </g>
          <g id="Grupo_908997" data-name="Grupo 908997" transform="translate(13.589 30.57)">
            <path id="Trazado_644510" data-name="Trazado 644510" d="M814.628,520.969l-6.242,0-.241-1.276,6.242,0Z" transform="translate(-808.146 -519.693)" fill="#fff"/>
          </g>
          <g id="Grupo_908998" data-name="Grupo 908998" transform="translate(22.536 30.57)">
            <path id="Trazado_644511" data-name="Trazado 644511" d="M848.93,520.969l-3.652,0-.241-1.276,3.652,0Z" transform="translate(-845.037 -519.693)" fill="#f41157"/>
          </g>
          <g id="Grupo_908999" data-name="Grupo 908999" transform="translate(42.828 30.57)">
            <path id="Trazado_644512" data-name="Trazado 644512" d="M932.6,520.969l-3.652,0-.241-1.276,3.652,0Z" transform="translate(-928.711 -519.693)" fill="#f41157"/>
          </g>
          <g id="Grupo_909000" data-name="Grupo 909000" transform="translate(29.231 30.57)">
            <path id="Trazado_644513" data-name="Trazado 644513" d="M883.851,520.969l-10.965,0-.241-1.276,10.965,0Z" transform="translate(-872.645 -519.693)" fill="#fff"/>
          </g>
          <g id="Grupo_909001" data-name="Grupo 909001" transform="translate(14.48 35.311)">
            <path id="Trazado_644514" data-name="Trazado 644514" d="M825.484,540.514l-13.422,0-.241-1.276,13.422,0Z" transform="translate(-811.821 -539.238)" fill="#fff"/>
          </g>
          <g id="Grupo_909007" data-name="Grupo 909007" transform="translate(8.054 21.094)">
            <g id="Grupo_909002" data-name="Grupo 909002">
              <path id="Trazado_644515" data-name="Trazado 644515" d="M787.34,480.619l.241,1.276h-2.015l-.241-1.276Z" transform="translate(-785.325 -480.619)" fill="#0f121f"/>
            </g>
            <g id="Grupo_909003" data-name="Grupo 909003" transform="translate(0.896 4.74)">
              <path id="Trazado_644516" data-name="Trazado 644516" d="M791.033,500.165l.237,1.276h-2.015l-.237-1.276Z" transform="translate(-789.018 -500.165)" fill="#0f121f"/>
            </g>
            <g id="Grupo_909004" data-name="Grupo 909004" transform="translate(1.787 9.48)">
              <path id="Trazado_644517" data-name="Trazado 644517" d="M794.709,519.71l.241,1.276h-2.015l-.241-1.276Z" transform="translate(-792.693 -519.71)" fill="#0f121f"/>
            </g>
            <g id="Grupo_909005" data-name="Grupo 909005" transform="translate(2.679 14.22)">
              <path id="Trazado_644518" data-name="Trazado 644518" d="M798.385,539.256l.241,1.276H796.61l-.241-1.276Z" transform="translate(-796.369 -539.256)" fill="#0f121f"/>
            </g>
            <g id="Grupo_909006" data-name="Grupo 909006" transform="translate(3.574 18.961)">
              <path id="Trazado_644519" data-name="Trazado 644519" d="M802.077,558.8l.241,1.276H800.3l-.241-1.276Z" transform="translate(-800.062 -558.801)" fill="#0f121f"/>
            </g>
          </g>
          <g id="Grupo_909008" data-name="Grupo 909008" transform="translate(15.376 40.051)">
            <path id="Trazado_644520" data-name="Trazado 644520" d="M829.173,560.06l-13.418,0-.241-1.276,13.418,0Z" transform="translate(-815.514 -558.784)" fill="#fff"/>
          </g>
          <g id="Grupo_909009" data-name="Grupo 909009" transform="translate(37.754 36.625)">
            <path id="Trazado_644521" data-name="Trazado 644521" d="M930.449,564.276l-18.962,0-3.7-19.617,18.962,0Z" transform="translate(-907.79 -544.659)" fill="#fff"/>
          </g>
        </g>
        <g id="Grupo_909018" data-name="Grupo 909018" transform="translate(136.626 9.307)">
          <g id="Grupo_909011" data-name="Grupo 909011">
            <path id="Trazado_644522" data-name="Trazado 644522" d="M928.834,265.948H886.512a3.924,3.924,0,0,0-3.949,4.911l1.959,10a6.321,6.321,0,0,0,5.246,4.872.911.911,0,0,1,.758.7l1.073,5.473c.062.316.493.446.627.189l3.13-6.028a.57.57,0,0,1,.522-.3h36.84a3.924,3.924,0,0,0,3.949-4.911l-1.959-10A6.267,6.267,0,0,0,928.834,265.948Z" transform="translate(-882.469 -265.948)" fill="#def"/>
          </g>
          <g id="Grupo_909017" data-name="Grupo 909017" transform="translate(9.21 8.278)">
            <g id="Grupo_909012" data-name="Grupo 909012">
              <path id="Trazado_644523" data-name="Trazado 644523" d="M923.71,301.7a1.292,1.292,0,0,1-1.3,1.617,2.063,2.063,0,0,1-1.934-1.617,1.292,1.292,0,0,1,1.3-1.617A2.064,2.064,0,0,1,923.71,301.7Z" transform="translate(-920.445 -300.082)" fill="#fff"/>
            </g>
            <g id="Grupo_909013" data-name="Grupo 909013" transform="translate(8.143)">
              <path id="Trazado_644524" data-name="Trazado 644524" d="M957.285,301.7a1.292,1.292,0,0,1-1.3,1.617,2.063,2.063,0,0,1-1.934-1.617,1.292,1.292,0,0,1,1.3-1.617A2.064,2.064,0,0,1,957.285,301.7Z" transform="translate(-954.02 -300.082)" fill="#fff"/>
            </g>
            <g id="Grupo_909014" data-name="Grupo 909014" transform="translate(16.285)">
              <path id="Trazado_644525" data-name="Trazado 644525" d="M990.86,301.7a1.292,1.292,0,0,1-1.3,1.617,2.064,2.064,0,0,1-1.934-1.617,1.292,1.292,0,0,1,1.3-1.617A2.063,2.063,0,0,1,990.86,301.7Z" transform="translate(-987.595 -300.082)" fill="#fff"/>
            </g>
            <g id="Grupo_909015" data-name="Grupo 909015" transform="translate(24.428)">
              <path id="Trazado_644526" data-name="Trazado 644526" d="M1024.435,301.7a1.292,1.292,0,0,1-1.3,1.617,2.064,2.064,0,0,1-1.934-1.617,1.292,1.292,0,0,1,1.3-1.617A2.064,2.064,0,0,1,1024.435,301.7Z" transform="translate(-1021.17 -300.082)" fill="#fff"/>
            </g>
            <g id="Grupo_909016" data-name="Grupo 909016" transform="translate(32.57)">
              <path id="Trazado_644527" data-name="Trazado 644527" d="M1058.01,301.7a1.292,1.292,0,0,1-1.3,1.617,2.064,2.064,0,0,1-1.934-1.617,1.292,1.292,0,0,1,1.3-1.617A2.064,2.064,0,0,1,1058.01,301.7Z" transform="translate(-1054.745 -300.082)" fill="#fff"/>
            </g>
          </g>
        </g>
        <g id="Grupo_909019" data-name="Grupo 909019" transform="translate(45.488 115.441)" style="mix-blend-mode: multiply;isolation: isolate">
          <path id="Trazado_644528" data-name="Trazado 644528" d="M517.385,707.438a13.491,13.491,0,0,0-1.648-.841c0-.038-.008-.068-.013-.106s-.017-.067-.025-.1a8.871,8.871,0,0,0,1.331-.845,9.406,9.406,0,0,0,1.31-1.314l-.195-.439c-.03-.072-.059-.144-.093-.215h-8.086a4.51,4.51,0,0,1,2.028,2.919,2.891,2.891,0,0,1-1.487,3.287.127.127,0,0,1-.042.017,2.9,2.9,0,0,1-1.217.258,4.028,4.028,0,0,1-2.577-1.005l2.218,7.317a8.233,8.233,0,0,0,.473-.892,9.25,9.25,0,0,0,.52-1.546.734.734,0,0,0,.1.008.678.678,0,0,0,.093-.008,15.264,15.264,0,0,0,1.1,1.542,16.115,16.115,0,0,0,1.474,1.533.435.435,0,0,0,.068.059l.025.026.4-.114a8.311,8.311,0,0,0,1.305-.477c.211-.1.41-.216.609-.33a3.85,3.85,0,0,0,.574-.363l.33-.236a13.233,13.233,0,0,0-.6-2.066,14.366,14.366,0,0,0-.79-1.686c.038-.046.072-.093.11-.144a12.55,12.55,0,0,0,1.715.494,11.85,11.85,0,0,0,2.028.211l.152-.388a4.007,4.007,0,0,0,.224-.668c.068-.232.135-.461.186-.693a10.508,10.508,0,0,0,.182-1.457l.025-.439A15.675,15.675,0,0,0,517.385,707.438Z" transform="translate(-506.671 -703.581)" fill="#b6d4ff"/>
        </g>
        <g id="Grupo_909020" data-name="Grupo 909020" transform="translate(36.781 103.31)">
          <path id="Trazado_644529" data-name="Trazado 644529" d="M488.544,664.242c-.007-.036-.008-.067-.015-.1s-.017-.067-.023-.1a9.085,9.085,0,0,0,1.328-.846,9.321,9.321,0,0,0,1.309-1.312l-.191-.439a14.1,14.1,0,0,0-.732-1.456c-.139-.233-.294-.461-.445-.69a6.049,6.049,0,0,0-.48-.672l-.3-.385a10.344,10.344,0,0,0-1.947.219,8.721,8.721,0,0,0-1.527.5l-.165-.143a10.4,10.4,0,0,0,.156-1.686,11.848,11.848,0,0,0-.179-2.067l-.415-.232a5.874,5.874,0,0,0-.716-.366c-.241-.112-.483-.228-.73-.326a12.352,12.352,0,0,0-1.486-.472l-.444-.111a9.521,9.521,0,0,0-.954,1.62,9.653,9.653,0,0,0-.518,1.548c-.03,0-.066-.009-.1-.009s-.063.009-.1.009a14.435,14.435,0,0,0-1.1-1.545,16.161,16.161,0,0,0-1.56-1.615l-.4.113a8.665,8.665,0,0,0-1.311.478c-.206.1-.4.216-.607.329a3.852,3.852,0,0,0-.577.369l-.326.234a14.187,14.187,0,0,0,.6,2.066,13.763,13.763,0,0,0,.8,1.684c-.038.049-.077.094-.111.144a12.153,12.153,0,0,0-1.715-.494,11.716,11.716,0,0,0-2.028-.211l-.156.386a4.728,4.728,0,0,0-.226.673c-.06.229-.129.458-.18.691a9.744,9.744,0,0,0-.182,1.458l-.025.439a15.74,15.74,0,0,0,1.8,1.306,14.206,14.206,0,0,0,1.642.84c.006.031.008.063.015.1s.017.067.024.1a8.426,8.426,0,0,0-1.324.846,9.08,9.08,0,0,0-1.31,1.307l.191.439a13.254,13.254,0,0,0,.732,1.456c.139.233.294.461.442.694a7.832,7.832,0,0,0,.48.667l.3.385a10.379,10.379,0,0,0,1.947-.219,8.868,8.868,0,0,0,1.527-.5c.052.049.109.1.165.143a10.327,10.327,0,0,0-.16,1.686,12.8,12.8,0,0,0,.179,2.067l.416.237a6.84,6.84,0,0,0,.715.362c.245.112.487.228.73.326a11.508,11.508,0,0,0,1.491.472l.444.111a9.467,9.467,0,0,0,.949-1.621,9.215,9.215,0,0,0,.519-1.548.8.8,0,0,0,.1.009.617.617,0,0,0,.093-.009,15.171,15.171,0,0,0,1.1,1.545,16.329,16.329,0,0,0,1.565,1.616l.4-.113a8.261,8.261,0,0,0,1.307-.478c.21-.1.408-.216.607-.328a4.027,4.027,0,0,0,.578-.365l.326-.238a13.262,13.262,0,0,0-.6-2.066,13.764,13.764,0,0,0-.793-1.684c.039-.045.073-.094.111-.144a11.969,11.969,0,0,0,1.715.494,11.658,11.658,0,0,0,2.028.211l.151-.386a3.99,3.99,0,0,0,.227-.668c.064-.233.133-.462.184-.7a10.364,10.364,0,0,0,.182-1.458l.025-.44a16.115,16.115,0,0,0-1.8-1.3A14.025,14.025,0,0,0,488.544,664.242Zm-6.492,3.466a4.4,4.4,0,0,1-4.09-3.548,2.818,2.818,0,0,1,2.747-3.561,4.4,4.4,0,0,1,4.09,3.547A2.817,2.817,0,0,1,482.052,667.708Z" transform="translate(-470.769 -653.557)" fill="#3400fe"/>
        </g>
        <g id="Grupo_909021" data-name="Grupo 909021" transform="translate(130.135 100.01)">
          <path id="Trazado_644530" data-name="Trazado 644530" d="M855.7,639.95l6.884,3.566-1.983.961,2.463,2.944-1.922,1.573-2.379-3.162-1.595,1.709Z" transform="translate(-855.704 -639.95)" fill="#3400fe"/>
        </g>
        <g id="Grupo_909044" data-name="Grupo 909044" transform="translate(217.761 11.833)">
          <g id="Grupo_909038" data-name="Grupo 909038" transform="translate(0 14.469)">
            <g id="Grupo_909027" data-name="Grupo 909027">
              <g id="Grupo_909022" data-name="Grupo 909022">
                <path id="Trazado_644531" data-name="Trazado 644531" d="M1287.247,341.177l6.447,34.687a1.053,1.053,0,0,1-1.062,1.3h-66.88a1.643,1.643,0,0,1-1.546-1.3l-7.162-38.534a1.053,1.053,0,0,1,1.062-1.3h9.76a1.643,1.643,0,0,1,1.547,1.3l.23,1.239a1.643,1.643,0,0,0,1.546,1.3H1285.7A1.643,1.643,0,0,1,1287.247,341.177Z" transform="translate(-1217.021 -336.026)" fill="#3400fe"/>
              </g>
              <g id="Grupo_909026" data-name="Grupo 909026" transform="translate(2.493 1.093)">
                <g id="Grupo_909023" data-name="Grupo 909023">
                  <path id="Trazado_644532" data-name="Trazado 644532" d="M1228.975,341.364a.671.671,0,0,1-.676.831,1.046,1.046,0,0,1-.985-.831.671.671,0,0,1,.676-.831A1.046,1.046,0,0,1,1228.975,341.364Z" transform="translate(-1227.3 -340.533)" fill="#fff"/>
                </g>
                <g id="Grupo_909024" data-name="Grupo 909024" transform="translate(2.984)">
                  <path id="Trazado_644533" data-name="Trazado 644533" d="M1241.278,341.364a.671.671,0,0,1-.676.831,1.046,1.046,0,0,1-.985-.831.671.671,0,0,1,.676-.831A1.046,1.046,0,0,1,1241.278,341.364Z" transform="translate(-1239.603 -340.533)" fill="#fff"/>
                </g>
                <g id="Grupo_909025" data-name="Grupo 909025" transform="translate(5.967)">
                  <path id="Trazado_644534" data-name="Trazado 644534" d="M1253.581,341.364a.671.671,0,0,1-.676.831,1.046,1.046,0,0,1-.985-.831.671.671,0,0,1,.676-.831A1.046,1.046,0,0,1,1253.581,341.364Z" transform="translate(-1251.906 -340.533)" fill="#fff"/>
                </g>
              </g>
            </g>
            <g id="Grupo_909033" data-name="Grupo 909033" transform="translate(33.804 35.021)">
              <g id="Grupo_909028" data-name="Grupo 909028">
                <path id="Trazado_644535" data-name="Trazado 644535" d="M1357.738,482.639a1.392,1.392,0,0,1-1.31-1.1.892.892,0,0,1,.9-1.1,1.392,1.392,0,0,1,1.31,1.1A.892.892,0,0,1,1357.738,482.639Z" transform="translate(-1356.408 -480.43)" fill="#fff"/>
              </g>
              <g id="Grupo_909029" data-name="Grupo 909029" transform="translate(3.155)">
                <path id="Trazado_644536" data-name="Trazado 644536" d="M1370.748,482.639a1.392,1.392,0,0,1-1.31-1.1.892.892,0,0,1,.9-1.1,1.392,1.392,0,0,1,1.31,1.1A.892.892,0,0,1,1370.748,482.639Z" transform="translate(-1369.419 -480.43)" fill="#fff"/>
              </g>
              <g id="Grupo_909030" data-name="Grupo 909030" transform="translate(6.311)">
                <path id="Trazado_644537" data-name="Trazado 644537" d="M1383.758,482.639a1.392,1.392,0,0,1-1.31-1.1.892.892,0,0,1,.9-1.1,1.392,1.392,0,0,1,1.31,1.1A.892.892,0,0,1,1383.758,482.639Z" transform="translate(-1382.429 -480.43)" fill="#fff"/>
              </g>
              <g id="Grupo_909031" data-name="Grupo 909031" transform="translate(9.466)">
                <path id="Trazado_644538" data-name="Trazado 644538" d="M1396.768,482.639a1.392,1.392,0,0,1-1.31-1.1.892.892,0,0,1,.9-1.1,1.392,1.392,0,0,1,1.31,1.1A.892.892,0,0,1,1396.768,482.639Z" transform="translate(-1395.439 -480.43)" fill="#fff"/>
              </g>
              <g id="Grupo_909032" data-name="Grupo 909032" transform="translate(12.621)">
                <path id="Trazado_644539" data-name="Trazado 644539" d="M1409.779,482.639a1.392,1.392,0,0,1-1.31-1.1.892.892,0,0,1,.9-1.1,1.392,1.392,0,0,1,1.31,1.1A.892.892,0,0,1,1409.779,482.639Z" transform="translate(-1408.449 -480.43)" fill="#fff"/>
              </g>
            </g>
            <g id="Grupo_909037" data-name="Grupo 909037" transform="translate(26.175 13.365)">
              <g id="Grupo_909034" data-name="Grupo 909034" transform="translate(0 2.698)">
                <path id="Trazado_644540" data-name="Trazado 644540" d="M1324.951,405.646l5.838-3.385.319,1.716a.6.6,0,0,1-.029.34.563.563,0,0,1-.258.268l-2.04,1.221a2.941,2.941,0,0,1-.4.184q-.217.08-.46.144.267.064.512.136a3.546,3.546,0,0,1,.472.176l2.5,1.23a.9.9,0,0,1,.356.259.785.785,0,0,1,.155.34l.319,1.716-7.094-3.377Z" transform="translate(-1324.951 -402.261)" fill="#fff"/>
              </g>
              <g id="Grupo_909035" data-name="Grupo 909035" transform="translate(9.931)">
                <path id="Trazado_644541" data-name="Trazado 644541" d="M1368.082,402.99a1.163,1.163,0,0,1-.156.383,1.071,1.071,0,0,1-.259.28,1.1,1.1,0,0,1-.336.168,1.3,1.3,0,0,1-.377.056H1365.9l2.322-11.9a.994.994,0,0,1,.371-.623,1.161,1.161,0,0,1,.718-.216h1.054Z" transform="translate(-1365.9 -391.135)" fill="#fff"/>
              </g>
              <g id="Grupo_909036" data-name="Grupo 909036" transform="translate(17.125 2.698)">
                <path id="Trazado_644542" data-name="Trazado 644542" d="M1402.84,406.612,1397,409.989l-.319-1.716a.6.6,0,0,1,.029-.34.529.529,0,0,1,.259-.259l2.039-1.23a2.41,2.41,0,0,1,.406-.176q.218-.072.462-.136a4.993,4.993,0,0,1-.987-.327l-2.494-1.221a.965.965,0,0,1-.357-.268.779.779,0,0,1-.155-.34l-.319-1.716,7.1,3.385Z" transform="translate(-1395.565 -402.261)" fill="#fff"/>
              </g>
            </g>
          </g>
          <g id="Grupo_909043" data-name="Grupo 909043" transform="translate(49.723)">
            <g id="Grupo_909040" data-name="Grupo 909040" transform="translate(0 2.749)" style="mix-blend-mode: saturation;isolation: isolate">
              <g id="Grupo_909039" data-name="Grupo 909039" transform="translate(0 0)">
                <ellipse id="Elipse_7550" data-name="Elipse 7550" cx="11.306" cy="13.668" rx="11.306" ry="13.668" transform="translate(0 16.729) rotate(-47.713)" fill="#ffc861"/>
              </g>
            </g>
            <g id="Grupo_909041" data-name="Grupo 909041" transform="translate(2.749)">
              <ellipse id="Elipse_7551" data-name="Elipse 7551" cx="11.306" cy="13.668" rx="11.306" ry="13.668" transform="matrix(0.673, -0.74, 0.74, 0.673, 0, 16.729)" fill="#00ad65"/>
            </g>
            <g id="Grupo_909042" data-name="Grupo 909042" transform="translate(13.829 13.45)">
              <path id="Trazado_644543" data-name="Trazado 644543" d="M1484.986,340.044h-.03a2.417,2.417,0,0,1-1.507-.616l-4.081-3.482a.845.845,0,1,1,1.1-1.286l4.092,3.491a.78.78,0,0,0,.43.2.219.219,0,0,0,.153-.068l4.967-6.149a.845.845,0,1,1,1.315,1.062l-4.953,6.132a1.9,1.9,0,0,1-1.453.714Z" transform="translate(-1479.07 -331.821)" fill="#fff"/>
            </g>
          </g>
        </g>
        <g id="Grupo_909048" data-name="Grupo 909048" transform="translate(32.662 10.624)">
          <g id="Grupo_909045" data-name="Grupo 909045" transform="translate(20.403)">
            <path id="Trazado_644544" data-name="Trazado 644544" d="M553.307,309.05h-8.364l-7.027-37.67h8.364Z" transform="translate(-537.917 -271.38)" fill="#3400fe"/>
          </g>
          <g id="Grupo_909046" data-name="Grupo 909046" transform="translate(11.162 16.598)">
            <path id="Trazado_644545" data-name="Trazado 644545" d="M512.707,360.891h-8.966l-3.931-21.073h8.966Z" transform="translate(-499.81 -339.819)" fill="#ffc861"/>
          </g>
          <g id="Grupo_909047" data-name="Grupo 909047" transform="translate(0 23.341)">
            <path id="Trazado_644546" data-name="Trazado 644546" d="M465.425,381.954h-8.966l-2.673-14.329h8.966Z" transform="translate(-453.786 -367.624)" fill="#f41157"/>
          </g>
        </g>
        <g id="Grupo_909052" data-name="Grupo 909052" transform="translate(328.2)">
          <g id="Grupo_909050" data-name="Grupo 909050">
            <g id="Grupo_909049" data-name="Grupo 909049">
              <path id="Trazado_644547" data-name="Trazado 644547" d="M1703.849,239.332a19.736,19.736,0,0,0-1.139-2.082,21.164,21.164,0,0,0-4.374-5,20.925,20.925,0,0,0-5.176-3.166.326.326,0,0,0-.1-.043,18.029,18.029,0,0,0-7.93-1.45,14.49,14.49,0,0,0-5.186,1.249c-.1.05-.206.093-.3.144a12.465,12.465,0,0,0-6.146,6.482,15.611,15.611,0,0,0,.07,11.622,19.653,19.653,0,0,0,1.726,3.46c5.161,8.227,15.51,11.931,23.064,8.263a12.921,12.921,0,0,0,7.234-11.723A17.352,17.352,0,0,0,1703.849,239.332Zm-8.356,14.917c-5.246,2.541-12.424-.029-16-5.736a14.343,14.343,0,0,1-.782-1.421,11.144,11.144,0,0,1-.586-8.729.281.281,0,0,1,.023-.072,8.66,8.66,0,0,1,4.359-4.738,9.2,9.2,0,0,1,1.219-.481.369.369,0,0,1,.129-.043,11.393,11.393,0,0,1,6.779.129c.007,0,.016.007.023.007a14.5,14.5,0,0,1,5.4,3.166,14.351,14.351,0,0,1,2.453,2.958,14.082,14.082,0,0,1,1.084,2.1,11.626,11.626,0,0,1,.849,5.707A8.831,8.831,0,0,1,1695.493,254.249Z" transform="translate(-1672.406 -227.571)" fill="#def"/>
            </g>
          </g>
          <g id="Grupo_909051" data-name="Grupo 909051">
            <path id="Trazado_644548" data-name="Trazado 644548" d="M1705.587,247.092h-5.147a11.626,11.626,0,0,0-.849-5.707,14.082,14.082,0,0,0-1.084-2.1,14.351,14.351,0,0,0-2.453-2.958,14.5,14.5,0,0,0-5.4-3.166c-.007,0-.016-.007-.023-.007a11.393,11.393,0,0,0-6.779-.129.369.369,0,0,0-.129.043,9.2,9.2,0,0,0-1.219.481,8.66,8.66,0,0,0-4.359,4.738.281.281,0,0,0-.023.072,11.144,11.144,0,0,0,.586,8.729h-5.147a15.611,15.611,0,0,1-.07-11.622,12.465,12.465,0,0,1,6.146-6.482c.1-.05.206-.093.3-.144a14.49,14.49,0,0,1,5.186-1.249,18.029,18.029,0,0,1,7.93,1.45.326.326,0,0,1,.1.043,20.925,20.925,0,0,1,5.176,3.166,21.164,21.164,0,0,1,4.374,5,19.736,19.736,0,0,1,1.139,2.082A17.352,17.352,0,0,1,1705.587,247.092Z" transform="translate(-1672.406 -227.571)" fill="#f41157"/>
          </g>
        </g>
        <g id="Grupo_909053" data-name="Grupo 909053" transform="translate(101.943 130.625)" style="mix-blend-mode: multiply;isolation: isolate">
          <path id="Trazado_644549" data-name="Trazado 644549" d="M754.116,785.213h-6.924a3.889,3.889,0,0,1-3.464-2.657l-4.149-13.705a1.907,1.907,0,0,1,1.855-2.662h6.916Z" transform="translate(-739.459 -766.189)" fill="#b6d4ff"/>
        </g>
        <g id="Grupo_909061" data-name="Grupo 909061" transform="translate(104.607 127.96)">
          <g id="Grupo_909054" data-name="Grupo 909054">
            <path id="Trazado_644550" data-name="Trazado 644550" d="M771.882,774.228H758.177a3.89,3.89,0,0,1-3.465-2.66l-4.149-13.705a1.906,1.906,0,0,1,1.855-2.66h13.705a3.891,3.891,0,0,1,3.465,2.66l4.148,13.705A1.906,1.906,0,0,1,771.882,774.228Z" transform="translate(-750.443 -755.202)" fill="#f41157"/>
          </g>
          <g id="Grupo_909060" data-name="Grupo 909060" transform="translate(7.057 3)">
            <g id="Grupo_909057" data-name="Grupo 909057">
              <g id="Grupo_909055" data-name="Grupo 909055">
                <path id="Trazado_644551" data-name="Trazado 644551" d="M786.829,771.908h-.1l-.33-1.09a4.75,4.75,0,0,0-4.226-3.244,2.326,2.326,0,0,0-2.261,3.244l.33,1.09h-.022a.652.652,0,0,0-.635.91l1.243,4.107a1.331,1.331,0,0,0,1.186.91h6.609a.652.652,0,0,0,.635-.91l-1.243-4.107A1.331,1.331,0,0,0,786.829,771.908Zm-6.1-1.09a1.737,1.737,0,0,1,1.689-2.422,3.548,3.548,0,0,1,3.156,2.422l.33,1.09h-4.844Z" transform="translate(-779.544 -767.574)" fill="#fff"/>
              </g>
              <g id="Grupo_909056" data-name="Grupo 909056" transform="translate(3.522 5.387)">
                <path id="Trazado_644552" data-name="Trazado 644552" d="M796.231,790.844a1.5,1.5,0,0,0-1.59-1.036.723.723,0,0,0-.572.808,1.509,1.509,0,0,0,.846,1.141.269.269,0,0,1,.16.212l.022.68a.909.909,0,0,0,.856.8c.419,0,.6-.4.371-.8l-.386-.673a.154.154,0,0,1,.034-.214A.786.786,0,0,0,796.231,790.844Z" transform="translate(-794.065 -789.785)" fill="#0f121f"/>
              </g>
            </g>
            <g id="Grupo_909058" data-name="Grupo 909058" transform="translate(1.86 10.921)">
              <path id="Trazado_644553" data-name="Trazado 644553" d="M795.388,813.388h-7.649a.571.571,0,0,1-.508-.39.28.28,0,0,1,.272-.391h7.649a.571.571,0,0,1,.509.391A.28.28,0,0,1,795.388,813.388Z" transform="translate(-787.214 -812.607)" fill="#fff"/>
            </g>
            <g id="Grupo_909059" data-name="Grupo 909059" transform="translate(2.26 12.244)">
              <path id="Trazado_644554" data-name="Trazado 644554" d="M797.039,818.843H789.39a.571.571,0,0,1-.508-.391.28.28,0,0,1,.272-.39H796.8a.571.571,0,0,1,.509.39A.28.28,0,0,1,797.039,818.843Z" transform="translate(-788.865 -818.062)" fill="#fff"/>
            </g>
          </g>
        </g>
        <g id="ways" transform="translate(41.105 36.883)">
          <g id="Grupo_909065" data-name="Grupo 909065" transform="translate(0 47.124)">
            <g id="Grupo_909062" data-name="Grupo 909062" transform="translate(0 12.451)">
              <path id="Trazado_644555" data-name="Trazado 644555" d="M488.991,627.145a11.24,11.24,0,0,1-.392-1.712l.836-.123a10.394,10.394,0,0,0,.363,1.583Z" transform="translate(-488.599 -625.309)" fill="#3400fe"/>
            </g>
            <g id="Grupo_909063" data-name="Grupo 909063" transform="translate(0.073 0)">
              <path id="Trazado_644556" data-name="Trazado 644556" d="M489.731,583.092l-.83-.157a10.981,10.981,0,0,1,1.245-3.384l.735.417A10.14,10.14,0,0,0,489.731,583.092Zm3.242-5.716-.563-.63a10.909,10.909,0,0,1,3.048-1.926l.327.779A10.063,10.063,0,0,0,492.974,577.376Zm6.052-2.539-.056-.843q.373-.025.753-.025h2.758v.845h-2.758Q499.37,574.814,499.025,574.837Zm52.226-.023h-3.484v-.845h3.484Zm-6.967,0H540.8v-.845h3.484Zm-6.967,0h-3.483v-.845h3.483Zm-6.967,0h-3.484v-.845h3.484Zm-6.967,0H519.9v-.845h3.484Zm-6.967,0h-3.484v-.845h3.484Zm-6.967,0h-3.484v-.845h3.484Z" transform="translate(-488.901 -573.969)" fill="#3400fe"/>
            </g>
            <g id="Grupo_909064" data-name="Grupo 909064" transform="translate(65.917)">
              <rect id="Rectángulo_305037" data-name="Rectángulo 305037" width="1.69" height="0.845" fill="#3400fe"/>
            </g>
          </g>
          <g id="Grupo_909069" data-name="Grupo 909069" transform="translate(128.476 8.385)">
            <g id="Grupo_909066" data-name="Grupo 909066" transform="translate(46.092)">
              <rect id="Rectángulo_305038" data-name="Rectángulo 305038" width="1.69" height="0.845" fill="#3400fe"/>
            </g>
            <g id="Grupo_909067" data-name="Grupo 909067" transform="translate(5.153 0.002)">
              <path id="Trazado_644557" data-name="Trazado 644557" d="M1055.386,436.735h-1.972v-.845h1.97a3.793,3.793,0,0,0,1.307-.229l.29.794A4.637,4.637,0,0,1,1055.386,436.735Zm-5.424,0h-3.452v-.845h3.452Zm-6.9,0H1039.6v-.845h3.452Zm16.6-2.822-.777-.333a3.741,3.741,0,0,0,.3-1.484,3.864,3.864,0,0,0-.067-.714l-.214-.916.823-.191.217.934a4.725,4.725,0,0,1,.085.888A4.592,4.592,0,0,1,1059.659,433.913Zm-1.535-6.809-.782-3.362.823-.192.782,3.363Zm-1.564-6.725-.142-.611a4.726,4.726,0,0,1-.085-.888,4.635,4.635,0,0,1,.53-2.146l.748.393a3.786,3.786,0,0,0-.433,1.753,3.856,3.856,0,0,0,.067.714l.138.594Zm3.4-5.154-.225-.815a4.673,4.673,0,0,1,1.247-.168h2.3v.845h-2.3A3.834,3.834,0,0,0,1059.958,415.225Zm6.778-.141v-.845h3.452v.845Zm6.9,0v-.845h3.452v.845Z" transform="translate(-1039.605 -414.236)" fill="#3400fe"/>
            </g>
            <g id="Grupo_909068" data-name="Grupo 909068" transform="translate(0 21.656)">
              <rect id="Rectángulo_305039" data-name="Rectángulo 305039" width="1.69" height="0.845" fill="#3400fe"/>
            </g>
          </g>
          <g id="Grupo_909073" data-name="Grupo 909073" transform="translate(164.148 17.531)">
            <g id="Grupo_909070" data-name="Grupo 909070" transform="translate(12.446)">
              <rect id="Rectángulo_305040" data-name="Rectángulo 305040" width="1.69" height="0.845" fill="#3400fe"/>
            </g>
            <g id="Grupo_909071" data-name="Grupo 909071" transform="translate(0 0.003)">
              <path id="Trazado_644558" data-name="Trazado 644558" d="M1167.959,468.742l-.756-3.282.823-.19.756,3.282Zm-1.512-6.563-.756-3.282.823-.19.756,3.282Zm-.187-6.577-.814-.225a4.687,4.687,0,0,1,2.229-2.835l.41.738A3.838,3.838,0,0,0,1166.26,455.6Zm4.9-2.8v-.845l3.368,0v.845Z" transform="translate(-1165.446 -451.958)" fill="#3400fe"/>
            </g>
            <g id="Grupo_909072" data-name="Grupo 909072" transform="translate(3.27 19.885)">
              <rect id="Rectángulo_305041" data-name="Rectángulo 305041" width="0.845" height="1.69" transform="translate(0 0.19) rotate(-12.972)" fill="#3400fe"/>
            </g>
          </g>
          <g id="Grupo_909077" data-name="Grupo 909077" transform="translate(11.429 15.596)">
            <g id="Grupo_909074" data-name="Grupo 909074">
              <path id="Trazado_644559" data-name="Trazado 644559" d="M536.123,445.8c-.157-.55-.291-1.117-.4-1.683l.83-.157c.1.541.23,1.082.38,1.607Z" transform="translate(-535.725 -443.965)" fill="#3400fe"/>
            </g>
            <g id="Grupo_909075" data-name="Grupo 909075" transform="translate(1.644 4.659)">
              <path id="Trazado_644560" data-name="Trazado 644560" d="M589.379,473.807h-3.357v-.845h3.357Zm-6.714,0h-3.357v-.845h3.357Zm-6.714,0h-3.357v-.845h3.357Zm-6.714,0h-3.357v-.845h3.357Zm-6.713,0h-3.357v-.845h3.357Zm-6.771-.3a18.514,18.514,0,0,1-3.3-.928l.3-.789a17.7,17.7,0,0,0,3.15.886Zm-6.374-2.449a18.649,18.649,0,0,1-2.742-2.059l.567-.626a17.852,17.852,0,0,0,2.618,1.966Zm-5.06-4.587a18.6,18.6,0,0,1-1.814-2.911l.755-.378a17.758,17.758,0,0,0,1.731,2.779Z" transform="translate(-542.504 -463.176)" fill="#3400fe"/>
            </g>
            <g id="Grupo_909076" data-name="Grupo 909076" transform="translate(51.885 14.445)">
              <rect id="Rectángulo_305042" data-name="Rectángulo 305042" width="1.69" height="0.845" fill="#3400fe"/>
            </g>
          </g>
          <g id="Grupo_909081" data-name="Grupo 909081" transform="translate(255.003)">
            <g id="Grupo_909078" data-name="Grupo 909078" transform="translate(0 10.031)">
              <rect id="Rectángulo_305043" data-name="Rectángulo 305043" width="1.69" height="0.845" fill="#3400fe"/>
            </g>
            <g id="Grupo_909079" data-name="Grupo 909079" transform="translate(5.03 4.859)">
              <path id="Trazado_644561" data-name="Trazado 644561" d="M1597.568,405.71h-3.341v-.845h3.341Zm-6.681,0h-3.341v-.845h3.341Zm-6.682,0h-3.341v-.845h3.341Zm-6.681,0h-3.341v-.845h3.341Zm-6.681,0H1567.5v-.845h3.341Zm-6.682,0h-3.341v-.845h3.341Zm36.763-.007-.031-.845a8.277,8.277,0,0,0,3.078-.712l.344.771A9.116,9.116,0,0,1,1600.925,405.7Zm6.242-2.78-.607-.588a8.378,8.378,0,0,0,1.737-2.642l.781.323A9.234,9.234,0,0,1,1607.167,402.923Z" transform="translate(-1560.821 -399.693)" fill="#3400fe"/>
            </g>
            <g id="Grupo_909080" data-name="Grupo 909080" transform="translate(52.991)">
              <path id="Trazado_644562" data-name="Trazado 644562" d="M1759.571,381.419l-.845-.006a8.419,8.419,0,0,0-.143-1.6l.831-.155A9.276,9.276,0,0,1,1759.571,381.419Z" transform="translate(-1758.583 -379.656)" fill="#3400fe"/>
            </g>
          </g>
          <g id="Grupo_909082" data-name="Grupo 909082" transform="translate(88.39 76.943)">
            <path id="Trazado_644563" data-name="Trazado 644563" d="M853.064,720.99v-.845a10.824,10.824,0,0,0,3.2-.48l.25.807A11.674,11.674,0,0,1,853.064,720.99Zm6.6-2.044-.479-.7a10.857,10.857,0,0,0,2.363-2.218l.664.523A11.7,11.7,0,0,1,859.66,718.946Zm4.278-5.424-.788-.3a10.682,10.682,0,0,0,.7-3.162l.843.054A11.531,11.531,0,0,1,863.937,713.523Zm-.365-6.717-.637-3.319.83-.159.637,3.319Zm-1.274-6.639-.592-3.087.83-.159.592,3.087Z" transform="translate(-853.064 -696.921)" fill="#3400fe"/>
          </g>
        </g>
        <g id="Grupo_909083" data-name="Grupo 909083" transform="translate(194.438 85.793)" style="mix-blend-mode: multiply;isolation: isolate">
          <path id="Trazado_644564" data-name="Trazado 644564" d="M1144.808,587.028a6.076,6.076,0,0,0-3.411.987,9.5,9.5,0,0,0-8.718-6.687,6.1,6.1,0,0,0-6.148,7.536,8.207,8.207,0,0,0,.2.825,6.087,6.087,0,0,0-1.085-.1,4.656,4.656,0,0,0-4.695,5.754,7.234,7.234,0,0,0,6.814,5.754H1147.4a5.693,5.693,0,0,0,5.74-7.035A8.844,8.844,0,0,0,1144.808,587.028Z" transform="translate(-1120.851 -581.328)" fill="#b6d4ff"/>
        </g>
        <g id="Grupo_909084" data-name="Grupo 909084" transform="translate(198.77 79.308)">
          <path id="Trazado_644565" data-name="Trazado 644565" d="M1164.647,560.76a6.575,6.575,0,0,0-3.693,1.068,10.284,10.284,0,0,0-9.437-7.239,6.6,6.6,0,0,0-6.655,8.158,8.927,8.927,0,0,0,.214.893,6.609,6.609,0,0,0-1.174-.108,5.04,5.04,0,0,0-5.082,6.229,7.831,7.831,0,0,0,7.376,6.229h21.256a6.162,6.162,0,0,0,6.213-7.615A9.573,9.573,0,0,0,1164.647,560.76Z" transform="translate(-1138.714 -554.59)" fill="#3400fe"/>
        </g>
        <g id="Grupo_909090" data-name="Grupo 909090" transform="translate(215.228 76.041)">
          <g id="Grupo_909086" data-name="Grupo 909086" transform="translate(0 2.169)" style="mix-blend-mode: saturation;isolation: isolate">
            <g id="Grupo_909085" data-name="Grupo 909085">
              <path id="Trazado_644566" data-name="Trazado 644566" d="M1220.662,560.214c-.035.113-.07.224-.11.331a5.652,5.652,0,0,1-5.436,3.622H1215a8.8,8.8,0,0,1-6.774-3.622c-.081-.11-.16-.218-.235-.331a8.146,8.146,0,0,1-1.292-3.1,6.494,6.494,0,0,1,.1-2.969q.048-.174.1-.331a5.626,5.626,0,0,1,5.479-3.753h.113a8.791,8.791,0,0,1,6.87,3.753c.075.1.151.215.221.322a8.144,8.144,0,0,1,1.213,2.978A6.493,6.493,0,0,1,1220.662,560.214Z" transform="translate(-1206.579 -550.062)" fill="#ffc861"/>
            </g>
          </g>
          <g id="Grupo_909087" data-name="Grupo 909087" transform="translate(2.169)">
            <path id="Trazado_644567" data-name="Trazado 644567" d="M1229.6,551.271c-.035.113-.07.224-.11.331a5.653,5.653,0,0,1-5.436,3.622h-.113a8.8,8.8,0,0,1-6.774-3.622c-.081-.11-.16-.218-.235-.331a8.147,8.147,0,0,1-1.291-3.1,6.492,6.492,0,0,1,.1-2.969q.048-.174.1-.331a5.626,5.626,0,0,1,5.479-3.753h.113a8.791,8.791,0,0,1,6.87,3.753c.075.1.151.215.221.322a8.144,8.144,0,0,1,1.213,2.978A6.494,6.494,0,0,1,1229.6,551.271Z" transform="translate(-1215.522 -541.119)" fill="#fff"/>
          </g>
          <g id="Grupo_909089" data-name="Grupo 909089" transform="translate(2.169 0.001)">
            <g id="Grupo_909088" data-name="Grupo 909088">
              <path id="Trazado_644568" data-name="Trazado 644568" d="M1228.537,545.2c-.071-.109-.145-.217-.221-.323a8.79,8.79,0,0,0-6.869-3.752h-.113a5.63,5.63,0,0,0-5.481,3.752c-.037.106-.071.214-.1.33a6.515,6.515,0,0,0-.106,2.971,8.17,8.17,0,0,0,1.293,3.1q.113.167.233.33a8.8,8.8,0,0,0,6.775,3.623h.113a5.653,5.653,0,0,0,5.436-3.623q.06-.162.111-.329a6.47,6.47,0,0,0,.144-3.1A8.161,8.161,0,0,0,1228.537,545.2Zm-5.571,2.647-.445-2.4h3.059a11.316,11.316,0,0,1,.8,2.4Zm5-2.4a7.454,7.454,0,0,1,1.048,2.4h-1.974a12.091,12.091,0,0,0-.778-2.4Zm-5.57-.662-.551-2.975a5.4,5.4,0,0,1,3.4,2.975Zm3.547,0a9.908,9.908,0,0,0-.993-1.534,7.49,7.49,0,0,0-.932-.989,8.394,8.394,0,0,1,3.462,2.523Zm-2.389,6.246-.468-2.524h3.416a9.548,9.548,0,0,1,.074,2.524Zm2.919.662c-.333,1.634-1.165,2.679-2.268,2.85l-.528-2.85Zm-.261,2.4a4.424,4.424,0,0,0,.565-.988,6.431,6.431,0,0,0,.4-1.409h1.5A4.963,4.963,0,0,1,1226.214,554.089Zm1.054-3.058a10.325,10.325,0,0,0-.1-2.524h1.974a5.748,5.748,0,0,1-.2,2.524Zm-5.408-5.584.444,2.4h-3.415a9.676,9.676,0,0,1-.088-2.4Zm-.123-.662h-2.844c.313-1.684,1.172-2.8,2.292-2.975Zm-3.123-1.534a6.547,6.547,0,0,0-.423,1.534h-1.538a4.949,4.949,0,0,1,2.527-2.523A4.416,4.416,0,0,0,1218.614,543.25Zm4.4,8.442.528,2.85a5.229,5.229,0,0,1-3.324-2.85Zm-.123-.662h-3.022a11.244,11.244,0,0,1-.861-2.524h3.415Zm-4.779-5.584a10.46,10.46,0,0,0,.112,2.4h-1.974a5.78,5.78,0,0,1,.159-2.4Zm.234,3.06a12.065,12.065,0,0,0,.835,2.524h-1.676a7.473,7.473,0,0,1-1.133-2.524Zm1.166,3.186a9.77,9.77,0,0,0,.925,1.409,7.493,7.493,0,0,0,.932.988,8.414,8.414,0,0,1-3.357-2.4Z" transform="translate(-1215.521 -541.123)" fill="#ffc861"/>
            </g>
          </g>
        </g>
        <g id="Grupo_909093" data-name="Grupo 909093" transform="translate(307.173 59.112)">
          <g id="Grupo_909091" data-name="Grupo 909091">
            <path id="Trazado_644569" data-name="Trazado 644569" d="M1589.015,477.768a1.035,1.035,0,0,1-.662.538,1.719,1.719,0,0,1,.862.538,2.5,2.5,0,0,1,.451,1.136l.446,2.391a1.376,1.376,0,0,0,.43.822,1.282,1.282,0,0,0,.868.284h.269l.34,1.823h-.867a3.434,3.434,0,0,1-2.235-.688,3.213,3.213,0,0,1-1.088-1.987l-.5-2.7a.884.884,0,0,0-.269-.523.762.762,0,0,0-.519-.179h-.493l-.34-1.823h.493a.537.537,0,0,0,.452-.179.644.644,0,0,0,.074-.523l-.5-2.7a2.291,2.291,0,0,1,.346-1.987,2.485,2.485,0,0,1,1.979-.687h.866l.34,1.823h-.269a.915.915,0,0,0-.761.284,1,1,0,0,0-.123.822l.446,2.391A2,2,0,0,1,1589.015,477.768Z" transform="translate(-1585.703 -471.313)" fill="#3400fe"/>
          </g>
          <g id="Grupo_909092" data-name="Grupo 909092" transform="translate(8.383)">
            <path id="Trazado_644570" data-name="Trazado 644570" d="M1626.247,477.394l.34,1.823h-.493a.536.536,0,0,0-.452.179.643.643,0,0,0-.074.523l.5,2.7a2.29,2.29,0,0,1-.346,1.987,2.484,2.484,0,0,1-1.979.688h-.867l-.34-1.823h.269a.915.915,0,0,0,.761-.284,1,1,0,0,0,.123-.822l-.446-2.391a2,2,0,0,1,.027-1.136,1.034,1.034,0,0,1,.661-.538,1.711,1.711,0,0,1-.862-.538,2.5,2.5,0,0,1-.451-1.135l-.446-2.391a1.378,1.378,0,0,0-.43-.822,1.284,1.284,0,0,0-.867-.284h-.269l-.34-1.823h.867a3.435,3.435,0,0,1,2.235.687,3.213,3.213,0,0,1,1.088,1.987l.5,2.7a.882.882,0,0,0,.27.523.76.76,0,0,0,.519.179Z" transform="translate(-1620.271 -471.313)" fill="#3400fe"/>
          </g>
        </g>
        <g id="Grupo_909095" data-name="Grupo 909095" transform="translate(0 60.758)">
          <g id="Grupo_909094" data-name="Grupo 909094">
            <path id="Trazado_644571" data-name="Trazado 644571" d="M357.448,493.225a8.18,8.18,0,0,1,.1,2.329H319.419a7.588,7.588,0,0,1-.2-.809,5.529,5.529,0,0,1,5.574-6.832,7.155,7.155,0,0,1,1.288.119,9.983,9.983,0,0,1-.234-.981c-.911-4.941,2.358-8.948,7.3-8.948a11.284,11.284,0,0,1,10.354,7.941,7.217,7.217,0,0,1,4.05-1.172A10.505,10.505,0,0,1,357.448,493.225Z" transform="translate(-319.108 -478.102)" fill="#cee2fd"/>
          </g>
        </g>
      </g>
    </g>
  </g>
</svg>
