<svg xmlns="http://www.w3.org/2000/svg" xmlns:xlink="http://www.w3.org/1999/xlink" width="420" height="348.841" viewBox="0 0 420 348.841">
  <defs>
    <linearGradient id="linear-gradient" x1="0.284" y1="-0.511" x2="0.682" y2="1.536" gradientUnits="objectBoundingBox">
      <stop offset="0.294" stop-color="#fdfbef"/>
      <stop offset="1" stop-color="#f6d9c9"/>
    </linearGradient>
    <linearGradient id="linear-gradient-2" x1="0.147" y1="-0.711" x2="0.873" y2="1.775" gradientUnits="objectBoundingBox">
      <stop offset="0.029" stop-color="#fdf7e2"/>
      <stop offset="1" stop-color="#fce1aa"/>
    </linearGradient>
    <linearGradient id="linear-gradient-3" x1="-0.205" y1="-1.176" x2="1.018" y2="2.999" xlink:href="#linear-gradient-2"/>
    <linearGradient id="linear-gradient-4" x1="-0.071" y1="-1.458" x2="1.994" y2="5.62" xlink:href="#linear-gradient-2"/>
    <linearGradient id="linear-gradient-5" x1="-0.307" y1="0.607" x2="1.053" y2="0.438" gradientUnits="objectBoundingBox">
      <stop offset="0" stop-color="#bcbf82"/>
      <stop offset="1" stop-color="#5ea88f"/>
    </linearGradient>
    <linearGradient id="linear-gradient-6" x1="-0.376" y1="1.068" x2="2.823" y2="-0.973" gradientUnits="objectBoundingBox">
      <stop offset="0" stop-color="#9dcde4"/>
      <stop offset="1" stop-color="#6689bd"/>
    </linearGradient>
    <linearGradient id="linear-gradient-7" x1="1.047" y1="0.609" x2="-0.151" y2="0.424" xlink:href="#linear-gradient-5"/>
    <linearGradient id="linear-gradient-8" x1="-0.833" y1="0.001" x2="0.825" y2="0.626" gradientUnits="objectBoundingBox">
      <stop offset="0" stop-color="#5ea88f"/>
      <stop offset="1" stop-color="#556d80"/>
    </linearGradient>
    <linearGradient id="linear-gradient-9" x1="1.619" y1="0.207" x2="0.171" y2="0.577" xlink:href="#linear-gradient-8"/>
    <linearGradient id="linear-gradient-10" x1="-0.553" y1="-0.04" x2="1.037" y2="0.791" xlink:href="#linear-gradient-8"/>
    <linearGradient id="linear-gradient-11" x1="0.5" y1="-1.082" x2="0.5" y2="1.776" gradientUnits="objectBoundingBox">
      <stop offset="0" stop-color="#555ea3"/>
      <stop offset="1" stop-color="#51537a"/>
    </linearGradient>
    <linearGradient id="linear-gradient-13" x1="0.5" y1="-1.035" x2="0.5" y2="1.738" xlink:href="#linear-gradient-11"/>
    <linearGradient id="linear-gradient-15" x1="0.5" y1="-1.082" x2="0.5" y2="1.776" gradientUnits="objectBoundingBox">
      <stop offset="0" stop-color="#79bada"/>
      <stop offset="1" stop-color="#555ea3"/>
    </linearGradient>
    <linearGradient id="linear-gradient-17" x1="0.5" y1="-1.035" x2="0.5" y2="1.738" xlink:href="#linear-gradient-15"/>
    <linearGradient id="linear-gradient-19" x1="-0.587" y1="0.5" x2="1.005" y2="0.5" xlink:href="#linear-gradient-6"/>
    <linearGradient id="linear-gradient-20" y1="0.5" x2="1" y2="0.5" gradientUnits="objectBoundingBox">
      <stop offset="0" stop-color="#fce1aa"/>
      <stop offset="1" stop-color="#fcce79"/>
    </linearGradient>
    <linearGradient id="linear-gradient-21" y1="0.5" x2="1" y2="0.5" gradientUnits="objectBoundingBox">
      <stop offset="0" stop-color="#e0eff6"/>
      <stop offset="1" stop-color="#81abd0"/>
    </linearGradient>
    <linearGradient id="linear-gradient-22" y1="0.5" x2="1" y2="0.5" gradientUnits="objectBoundingBox">
      <stop offset="0" stop-color="#fcce79"/>
      <stop offset="1" stop-color="#e57f54"/>
    </linearGradient>
    <linearGradient id="linear-gradient-23" x1="0" y1="0.5" x2="1" y2="0.5" xlink:href="#linear-gradient-6"/>
    <linearGradient id="linear-gradient-24" x1="-0.034" y1="0.898" x2="1.166" y2="0.127" xlink:href="#linear-gradient-15"/>
    <linearGradient id="linear-gradient-25" x1="2.474" y1="-9.795" x2="3.181" y2="-10.502" xlink:href="#linear-gradient-11"/>
    <linearGradient id="linear-gradient-26" x1="1.174" y1="0.544" x2="0.556" y2="0.51" gradientUnits="objectBoundingBox">
      <stop offset="0" stop-color="#e57f54"/>
      <stop offset="1" stop-color="#d8513e"/>
    </linearGradient>
    <linearGradient id="linear-gradient-27" x1="1.099" y1="0.612" x2="0.419" y2="0.478" xlink:href="#linear-gradient-26"/>
    <linearGradient id="linear-gradient-28" x1="0.93" y1="0.18" x2="0.188" y2="0.639" xlink:href="#linear-gradient-20"/>
    <linearGradient id="linear-gradient-29" x1="1.087" y1="0.582" x2="0.131" y2="0.48" gradientUnits="objectBoundingBox">
      <stop offset="0" stop-color="#fcce79"/>
      <stop offset="1" stop-color="#e3a76b"/>
    </linearGradient>
    <linearGradient id="linear-gradient-30" x1="0.674" y1="0.542" x2="0.03" y2="0.448" xlink:href="#linear-gradient-20"/>
    <linearGradient id="linear-gradient-31" x1="-0.037" y1="0.399" x2="0.794" y2="0.578" xlink:href="#linear-gradient-20"/>
    <linearGradient id="linear-gradient-32" x1="-0.39" y1="0.495" x2="0.651" y2="0.5" xlink:href="#linear-gradient-26"/>
    <linearGradient id="linear-gradient-33" x1="-27.974" y1="0.528" x2="-27.338" y2="0.463" xlink:href="#linear-gradient-26"/>
    <linearGradient id="linear-gradient-34" x1="0.066" y1="0.536" x2="1.068" y2="0.476" xlink:href="#linear-gradient-29"/>
    <linearGradient id="linear-gradient-35" x1="-44.693" y1="0.532" x2="-43.94" y2="0.476" xlink:href="#linear-gradient-20"/>
  </defs>
  <g id="Grupo_909118" data-name="Grupo 909118" transform="translate(-180 -12332.098)">
    <g id="Grupo_908715" data-name="Grupo 908715" transform="translate(-67 12248.151)">
      <path id="Trazado_644034" data-name="Trazado 644034" d="M585.882,224.049a1.951,1.951,0,0,1-1.215-1.8h0A94.253,94.253,0,0,0,406.64,179.069a8.941,8.941,0,0,1-8.617,4.805q-5.276-.4-10.656-.4a140.367,140.367,0,1,0,34.072,276.569,119.149,119.149,0,0,1,70.521,3.716,128.4,128.4,0,0,0,44.43,8.094c70.883.319,128.9-57.085,129.3-127.968A128.747,128.747,0,0,0,585.882,224.049Z" transform="translate(0 -39.067)" fill="url(#linear-gradient)"/>
      <path id="Trazado_644035" data-name="Trazado 644035" d="M2069.855,187.511l-5.1,5.763a60.181,60.181,0,0,0-16.459-6.183l-.523-8.514a3.957,3.957,0,0,0-4.192-3.707l-23.04,1.416a3.957,3.957,0,0,0-3.707,4.192l.492,8.005a60.23,60.23,0,0,0-15.5,7.4l-6.916-6.115a3.957,3.957,0,0,0-5.585.343l-15.29,17.293a3.957,3.957,0,0,0,.343,5.585l6.916,6.115a60.213,60.213,0,0,0-5.263,15.313l-10.587.651a3.957,3.957,0,0,0-3.707,4.192l1.416,23.04a3.957,3.957,0,0,0,4.192,3.707l10.585-.651a60.227,60.227,0,0,0,6.547,13.716l-7.837,8.864a3.957,3.957,0,0,0,.343,5.585l17.293,15.29a3.957,3.957,0,0,0,5.586-.343l7.5-8.479a60.173,60.173,0,0,0,13.831,5.2l.751,12.214a3.957,3.957,0,0,0,4.192,3.707l23.04-1.416a3.957,3.957,0,0,0,3.707-4.192l-.675-10.98a60.316,60.316,0,0,0,13.937-5.977l8.667,7.663a3.957,3.957,0,0,0,5.585-.343l15.291-17.293a3.957,3.957,0,0,0-.343-5.585l-7.356-6.5a60.154,60.154,0,0,0,6.106-14.948l8.121-.5a6.024,6.024,0,0,0,5.643-6.382l-1.289-20.977a3.957,3.957,0,0,0-4.192-3.707l-8.441.519a60.3,60.3,0,0,0-6.766-15.76l5.913-6.687a3.957,3.957,0,0,0-.343-5.586l-17.293-15.29A3.957,3.957,0,0,0,2069.855,187.511Zm-11.827,78.761a30.147,30.147,0,1,1-2.615-42.553A30.147,30.147,0,0,1,2058.027,266.272Z" transform="translate(-1520.399 -80.613)" fill="url(#linear-gradient-2)"/>
      <path id="Trazado_644036" data-name="Trazado 644036" d="M1190.5,536.814l-1.989,4.139a35.917,35.917,0,0,0-10.458-.873l-1.686-4.8a2.362,2.362,0,0,0-3.011-1.447l-13,4.562a2.362,2.362,0,0,0-1.447,3.011l1.585,4.517a35.948,35.948,0,0,0-7.7,6.775l-4.967-2.387a2.362,2.362,0,0,0-3.152,1.106l-5.967,12.419a2.362,2.362,0,0,0,1.106,3.152l4.967,2.387a35.946,35.946,0,0,0-.531,9.65l-5.974,2.1a2.362,2.362,0,0,0-1.447,3.011l4.562,13a2.362,2.362,0,0,0,3.01,1.447l5.973-2.1a35.945,35.945,0,0,0,5.991,6.811l-3.059,6.365a2.362,2.362,0,0,0,1.106,3.152l12.419,5.967a2.362,2.362,0,0,0,3.152-1.106l2.926-6.089a35.915,35.915,0,0,0,8.789.735l2.418,6.892a2.362,2.362,0,0,0,3.011,1.447l13-4.562a2.362,2.362,0,0,0,1.447-3.011l-2.174-6.2a36.005,36.005,0,0,0,7.031-5.7l6.224,2.991a2.362,2.362,0,0,0,3.152-1.106l5.968-12.419a2.362,2.362,0,0,0-1.106-3.152l-5.283-2.539a35.9,35.9,0,0,0,1.075-9.578l4.583-1.608a3.6,3.6,0,0,0,2.2-4.583l-4.153-11.837a2.362,2.362,0,0,0-3.011-1.447l-4.763,1.671a35.994,35.994,0,0,0-6.45-7.95l2.307-4.8a2.362,2.362,0,0,0-1.106-3.152l-12.419-5.967A2.362,2.362,0,0,0,1190.5,536.814Zm6.022,47.155a17.994,17.994,0,1,1-8.425-24.012A17.994,17.994,0,0,1,1196.522,583.97Z" transform="translate(-788.867 -398.78)" fill="url(#linear-gradient-3)"/>
      <path id="Trazado_644037" data-name="Trazado 644037" d="M1662.278,99.543l-2.613.6a20.978,20.978,0,0,0-3.421-5.087l1.575-2.523a1.38,1.38,0,0,0-.44-1.9l-6.827-4.262a1.38,1.38,0,0,0-1.9.44l-1.481,2.372a21,21,0,0,0-5.9-1.036l-.726-3.136a1.38,1.38,0,0,0-1.655-1.033l-7.841,1.814a1.38,1.38,0,0,0-1.033,1.655l.726,3.136a20.991,20.991,0,0,0-4.594,3.282l-3.137-1.958a1.38,1.38,0,0,0-1.9.44l-4.261,6.827a1.379,1.379,0,0,0,.44,1.9l3.137,1.958a20.993,20.993,0,0,0-.917,5.219l-4.019.93a1.38,1.38,0,0,0-1.033,1.655l1.814,7.841a1.379,1.379,0,0,0,1.655,1.033l3.845-.89a20.978,20.978,0,0,0,2.874,4.275l-2.259,3.619a1.38,1.38,0,0,0,.44,1.9l6.827,4.262a1.38,1.38,0,0,0,1.9-.44l2.031-3.254a21.03,21.03,0,0,0,5.166,1.124l.909,3.93a1.38,1.38,0,0,0,1.655,1.033l7.841-1.814a1.38,1.38,0,0,0,1.033-1.655l-.772-3.336a20.968,20.968,0,0,0,4.759-3.008l2.406,1.5a2.1,2.1,0,0,0,2.893-.67l3.88-6.216a1.38,1.38,0,0,0-.44-1.9l-2.5-1.561a21.033,21.033,0,0,0,1.269-5.844l3.032-.7a1.38,1.38,0,0,0,1.033-1.655l-1.814-7.841A1.38,1.38,0,0,0,1662.278,99.543Zm-19.3,19.965a10.511,10.511,0,1,1,7.871-12.61A10.511,10.511,0,0,1,1642.978,119.508Z" transform="translate(-1212.449 0)" fill="url(#linear-gradient-4)"/>
      <path id="Trazado_644038" data-name="Trazado 644038" d="M2885.838,1141.8c8.151-2.529,22.418-9.441,26.434-18.357,3.707-8.231-4.708-16.626-2.329-24.438s23.1-16.311,27.484-25.63c5.2-11.052-12.308-16.883-6.095-24.939s30.029-19.711,30.747-28.406-9.324-7-3.116-23.844c5.257-14.268,12.365-33.019,2.044-38.948-11-6.319-20.734,9.019-25.277,20.573-5.853,14.884-16.2,1.543-24.292,9.25-7.316,6.968-1.582,38.51-6.856,45.695s-18.024,4.192-24.982,16.344,8.023,27.34,4.817,36.171-16.372,7.522-20.979,20.068S2885.838,1141.8,2885.838,1141.8Z" transform="translate(-2319.448 -773.014)" fill="url(#linear-gradient-5)"/>
      <path id="Trazado_644039" data-name="Trazado 644039" d="M2936.128,1635.679l7.5,7.551c-30.894,32.3-51.812,40.274-92.8,43.385v34.406c51.169-10.58,73.786-29.6,103.79-66.735l7.173,7.218,13.946-39.523Z" transform="translate(-2308.738 -1363.73)" fill="url(#linear-gradient-6)"/>
      <path id="Trazado_644040" data-name="Trazado 644040" d="M277.833,984.486c-8.591,34.24,61.481,53.2,61.171,59.942s-36.326,1-29.652,19.525c6.185,17.163,62.357,25.728,104.223,7.844,1.212-.518,32.157-50.352,11.735-80.835s-28.57,20.479-38.471,18.821,14-63.759-5.844-77.884c-20.558-14.635-28.578,30.234-38.2,22.983-9.114-6.869-11.845-71.087-37.867-63.658a20.207,20.207,0,0,0-2.922,1.1l-.011,0h0q-.8.368-1.624.822c-30.3,16.665,24.053,86.049,11.068,88.206S282.187,967.135,277.833,984.486Z" transform="translate(-26.691 -715.26)" fill="url(#linear-gradient-7)"/>
      <path id="Trazado_644041" data-name="Trazado 644041" d="M462.02,1444.518s-24.376-60.923-48.423-94.615-45.327-42.651-45.327-42.651a187.539,187.539,0,0,1,21.09,35.728c9.3,20.79,14.483,43.431,26.977,63.236C435.236,1436.178,462.02,1444.518,462.02,1444.518Z" transform="translate(-107.526 -1084.669)" fill="url(#linear-gradient-8)"/>
      <path id="Trazado_644042" data-name="Trazado 644042" d="M3156.379,2081.759c4.066,1.071,11.832,1.908,15.837-.769,3.7-2.471,2.374-8.176,5.408-10.819s13.91-.783,18.175-3.533c5.058-3.26-.734-10.268,3.965-12.011s17.693-.4,20.263-3.841-2.069-5.357,4.924-10.776c5.922-4.589,13.787-10.568,11.023-15.74-2.946-5.512-11.018-1.646-15.933,2-6.332,4.691-7.172-3.585-12.565-2.478-4.876,1-10.716,15.677-14.8,17.3s-8.625-2.954-14.705.306-3.786,13.518-7.431,16.371-8.8-1.132-14.005,2.907S3156.379,2081.759,3156.379,2081.759Z" transform="translate(-2577.716 -1717.986)" fill="url(#linear-gradient-9)"/>
      <path id="Trazado_644043" data-name="Trazado 644043" d="M510.06,1858.3s-21-42.539-40.224-65.47-35.069-28.191-35.069-28.191a135.583,135.583,0,0,1,17.211,24.565c7.875,14.461,12.883,30.488,23,44.06C490.287,1853.8,510.06,1858.3,510.06,1858.3Z" transform="translate(-166.487 -1490.223)" fill="url(#linear-gradient-10)"/>
      <g id="Grupo_908711" data-name="Grupo 908711" transform="translate(333.388 144.01)">
        <g id="Grupo_908706" data-name="Grupo 908706" transform="translate(0 142.139)">
          <g id="Grupo_908704" data-name="Grupo 908704" transform="translate(4.03)">
            <path id="Trazado_644044" data-name="Trazado 644044" d="M1064.029,1928.333v32.26h-19.2V1879.2h35.778q9.9,0,15.891,2.3a20.419,20.419,0,0,1,9.928,8.432,24.755,24.755,0,0,1,3.935,13.646q0,14.659-14.132,21.035l15.027,35.987h-21.068l-12.5-32.26Zm0-34.645v20.751h11.687a30.774,30.774,0,0,0,8.318-.805,9.179,9.179,0,0,0,4.621-3.578,10.485,10.485,0,0,0,2.027-6.35,9.832,9.832,0,0,0-2.027-6.082,8.356,8.356,0,0,0-4.412-3.309,41.681,41.681,0,0,0-8.945-.626Z" transform="translate(-1044.828 -1877.946)" fill="url(#linear-gradient-11)"/>
            <path id="Trazado_644045" data-name="Trazado 644045" d="M1772.063,1879.2v81.395h-19.022V1879.2Z" transform="translate(-1672.779 -1877.946)" fill="url(#linear-gradient-11)"/>
            <path id="Trazado_644046" data-name="Trazado 644046" d="M2057.833,1887.289l-16.219,5.426h-4.03s-3.2-9.66-9.832-9.66q-11.3,0-11.3,7.334a6.593,6.593,0,0,0,2.114,4.949q2.113,2.028,9.557,3.522,12.444,2.511,18.221,5.075a23.309,23.309,0,0,1,9.736,8.257,21.773,21.773,0,0,1,3.961,12.728q0,11.03-8.49,19.078t-25.171,8.048q-12.511,0-21.3-5.695t-11.587-16.905l13.621-3.995h4.03q2.976,11.39,16.544,11.389,6.546,0,9.76-2.534a7.513,7.513,0,0,0,3.214-6.052,6.309,6.309,0,0,0-2.918-5.546q-2.918-1.968-11.253-3.7-15.542-3.223-22.153-8.8t-6.61-16.307a24.194,24.194,0,0,1,7.893-18.3q7.894-7.452,21.417-7.453Q2050.981,1868.148,2057.833,1887.289Z" transform="translate(-1885.98 -1868.148)" fill="url(#linear-gradient-13)"/>
            <path id="Trazado_644047" data-name="Trazado 644047" d="M2709.379,1879.2v38.241L2734.9,1879.2h18.25l-19.549,29.06,24.439,52.335h-21l-16.242-35.347-11.42,16.682v18.664h-18.724V1879.2Z" transform="translate(-2504.134 -1877.946)" fill="url(#linear-gradient-11)"/>
          </g>
          <g id="Grupo_908705" data-name="Grupo 908705">
            <path id="Trazado_644048" data-name="Trazado 644048" d="M1028.473,1928.333v32.26h-19.2V1879.2h35.778q9.9,0,15.891,2.3a20.419,20.419,0,0,1,9.928,8.432,24.754,24.754,0,0,1,3.936,13.646q0,14.659-14.132,21.035l15.027,35.987h-21.068l-12.5-32.26Zm0-34.645v20.751h11.687a30.773,30.773,0,0,0,8.318-.805,9.179,9.179,0,0,0,4.621-3.578,10.484,10.484,0,0,0,2.027-6.35,9.832,9.832,0,0,0-2.027-6.082,8.356,8.356,0,0,0-4.412-3.309,41.681,41.681,0,0,0-8.945-.626Z" transform="translate(-1009.272 -1877.946)" fill="url(#linear-gradient-15)"/>
            <path id="Trazado_644049" data-name="Trazado 644049" d="M1736.507,1879.2v81.395h-19.022V1879.2Z" transform="translate(-1637.223 -1877.946)" fill="url(#linear-gradient-15)"/>
            <path id="Trazado_644050" data-name="Trazado 644050" d="M2022.276,1887.289l-16.219,5.426q-3.273-9.66-13.861-9.66-11.3,0-11.3,7.334a6.593,6.593,0,0,0,2.114,4.949q2.113,2.028,9.557,3.522,12.444,2.511,18.221,5.075a23.31,23.31,0,0,1,9.736,8.257,21.774,21.774,0,0,1,3.961,12.728q0,11.03-8.49,19.078t-25.171,8.048q-12.511,0-21.3-5.695t-11.587-16.905l17.65-3.995q2.975,11.39,16.544,11.389,6.546,0,9.76-2.534a7.513,7.513,0,0,0,3.214-6.052,6.309,6.309,0,0,0-2.918-5.546q-2.918-1.968-11.253-3.7-15.543-3.223-22.153-8.8t-6.61-16.307a24.194,24.194,0,0,1,7.893-18.3q7.894-7.452,21.417-7.453Q2015.424,1868.148,2022.276,1887.289Z" transform="translate(-1850.423 -1868.148)" fill="url(#linear-gradient-17)"/>
            <path id="Trazado_644051" data-name="Trazado 644051" d="M2673.823,1879.2v38.241l25.518-38.241h18.25l-19.549,29.06,24.439,52.335h-21l-16.242-35.347-11.42,16.682v18.664H2655.1V1879.2Z" transform="translate(-2468.578 -1877.946)" fill="url(#linear-gradient-15)"/>
          </g>
        </g>
        <g id="Grupo_908710" data-name="Grupo 908710" transform="translate(0)">
          <g id="Grupo_908707" data-name="Grupo 908707">
            <path id="Trazado_644052" data-name="Trazado 644052" d="M1014.121,740.981a4.85,4.85,0,0,1-4.845-5.038,127.047,127.047,0,0,1,253.895,0,4.85,4.85,0,0,1-4.845,5.038Z" transform="translate(-1009.272 -613.936)" fill="url(#linear-gradient-19)"/>
          </g>
          <path id="Trazado_644053" data-name="Trazado 644053" d="M1096.5,819.058a117.066,117.066,0,0,1,234.132,0Z" transform="translate(-1086.611 -692.013)" fill="#fff"/>
          <g id="Grupo_908709" data-name="Grupo 908709" transform="translate(17.692 17.884)">
            <g id="Grupo_908708" data-name="Grupo 908708">
              <path id="Trazado_644054" data-name="Trazado 644054" d="M1546.788,771.75a109,109,0,0,0-66.057,27.366,3.057,3.057,0,0,0-.123,4.444l37.569,37.57a3.049,3.049,0,0,0,4.04.246,50.144,50.144,0,0,1,25.079-10.4,3.087,3.087,0,0,0,2.711-3.071V774.8A3.052,3.052,0,0,0,1546.788,771.75Z" transform="translate(-1444.088 -771.745)" fill="url(#linear-gradient-20)"/>
              <path id="Trazado_644055" data-name="Trazado 644055" d="M2228.208,799.116a109,109,0,0,0-66.057-27.366,3.052,3.052,0,0,0-3.22,3.054v53.1a3.087,3.087,0,0,0,2.711,3.071,50.142,50.142,0,0,1,25.079,10.4,3.049,3.049,0,0,0,4.04-.246l37.57-37.57A3.056,3.056,0,0,0,2228.208,799.116Z" transform="translate(-2046.334 -771.745)" fill="url(#linear-gradient-21)"/>
              <path id="Trazado_644056" data-name="Trazado 644056" d="M1233.081,1123.032l-35.9-35.9a3.057,3.057,0,0,0-4.444.124,109,109,0,0,0-27.349,66.055,3.052,3.052,0,0,0,3.053,3.219h53.1a3.085,3.085,0,0,0,3.068-2.711,50.117,50.117,0,0,1,9.093-23.356A5.766,5.766,0,0,0,1233.081,1123.032Z" transform="translate(-1165.387 -1050.597)" fill="url(#linear-gradient-22)"/>
              <path id="Trazado_644057" data-name="Trazado 644057" d="M2543.8,1153.315a109,109,0,0,0-27.348-66.055,3.057,3.057,0,0,0-4.445-.124l-37.571,37.57a3.049,3.049,0,0,0-.247,4.039,50.148,50.148,0,0,1,10.388,25.08,3.083,3.083,0,0,0,3.067,2.709h53.1A3.052,3.052,0,0,0,2543.8,1153.315Z" transform="translate(-2325.289 -1050.597)" fill="url(#linear-gradient-23)"/>
            </g>
            <path id="Trazado_644058" data-name="Trazado 644058" d="M2130.561,1181.511a2.141,2.141,0,0,0-2.85.664l-34.725,51.91a3.346,3.346,0,0,0,1.108,4.757l5.05,2.916a3.345,3.345,0,0,0,4.674-1.419l27.593-56.028A2.14,2.14,0,0,0,2130.561,1181.511Z" transform="translate(-1987.36 -1134.818)" fill="url(#linear-gradient-24)"/>
            <circle id="Elipse_7536" data-name="Elipse 7536" cx="9.345" cy="9.345" r="9.345" transform="translate(96.043 105.482) rotate(-45)" fill="url(#linear-gradient-25)"/>
          </g>
        </g>
      </g>
      <g id="Grupo_908714" data-name="Grupo 908714" transform="translate(267.456 220.719)">
        <g id="Grupo_908712" data-name="Grupo 908712">
          <path id="Trazado_644059" data-name="Trazado 644059" d="M1154.354,1701.228c.445,1.271-1.087,3.56-3.909,4.93-2.6,1.262-4.939.592-5.47-.661C1143.788,1702.7,1153.665,1699.262,1154.354,1701.228Z" transform="translate(-1063.575 -1654.201)" fill="#eebb8f"/>
          <rect id="Rect치ngulo_304817" data-name="Rect치ngulo 304817" width="1.495" height="19.191" transform="translate(89.017 35.352) rotate(14.058)" fill="#3d4166"/>
          <path id="Trazado_644060" data-name="Trazado 644060" d="M779.935,1454.466h-7.674v-14.68h4.689Z" transform="translate(-733.189 -1422.902)" fill="#eebb8f"/>
          <path id="Trazado_644061" data-name="Trazado 644061" d="M758.515,1312.67c1.3,6.026.339,12.1-3.3,13.42-3.412,1.236-9.334-2.033-12.043-7.99-2.852-6.272-1.46-10.959,3.593-12.7C752.132,1303.542,757.093,1306.065,758.515,1312.67Z" transform="translate(-706.102 -1303.217)" fill="#f3c9aa"/>
          <path id="Trazado_644062" data-name="Trazado 644062" d="M730.3,1290.853c-5.581.437-8.666,5.495-8.308,10.5.334,4.671,5.328,7.166,5.328,7.166s1.647-4.742,4.348-5.5c3.767-1.054,2.138-4.42,3.9-4.784,1.834-.379,5.822-1.835,5.756-4.5C738.743,1293.821,736.572,1290.363,730.3,1290.853Z" transform="translate(-688.596 -1290.806)" fill="#3d4166"/>
          <ellipse id="Elipse_7537" data-name="Elipse 7537" cx="1.668" cy="2.002" rx="1.668" ry="2.002" transform="matrix(0.913, -0.409, 0.409, 0.913, 38.399, 12.737)" fill="#f3c9aa"/>
          <path id="Trazado_644063" data-name="Trazado 644063" d="M795.526,1397.758s.42,6.513,1.664,8.987c1.083,2.155,5.811,4.379,8.386-.733,0,0-2.607.544-2.312-.56.348-1.3,3.031-1.314,3.031-1.314a.669.669,0,0,0,.619-.507,5.1,5.1,0,0,0-.21-1.877,23.671,23.671,0,0,1-5.08,1.266c-1.734,0-3.308-1.223-4.775-5.261Z" transform="translate(-753.817 -1385.637)" fill="#3d4166"/>
          <path id="Trazado_644064" data-name="Trazado 644064" d="M741.827,1999.743l-7.053-39.453-4.791-19.441-4.824-19.48-1.64-6.623-13.834,4.413,2.5,6.348L719.476,1944c2.423,6.174,4.886,12.344,7.284,18.542l11.849,37.988.494,1.584,3.016-.736Z" transform="translate(-677.705 -1844.035)" fill="#eebb8f"/>
          <path id="Trazado_644065" data-name="Trazado 644065" d="M499.983,1916.176l-.551,6.8-3.122,38.524-29.131,13.654-1.5.7,1.1,2.869,1.59-.48,33.4-10.1a3.669,3.669,0,0,0,2.522-2.743l.118-.555,8.5-39.9,1.421-6.672Z" transform="translate(-461.349 -1845.303)" fill="#eebb8f"/>
          <path id="Trazado_644066" data-name="Trazado 644066" d="M691.777,1879.071l25.861,5.023,8.084,77.292-8.674,1.19Z" transform="translate(-661.826 -1812.403)" fill="url(#linear-gradient-26)"/>
          <path id="Trazado_644067" data-name="Trazado 644067" d="M549.289,1896.053l26.091-3.645s-4,48.39-11.805,54.561c-4.342,3.433-28.472,9.212-28.472,9.212l-2.6-7.409s18.166-7.353,19.685-9.627C553.842,1936.673,549.289,1896.053,549.289,1896.053Z" transform="translate(-520.604 -1824.229)" fill="url(#linear-gradient-27)"/>
          <path id="Trazado_644068" data-name="Trazado 644068" d="M776.334,1562.911l17.1,24.439-3.111-.868,20.168-7.656,1.832-.7,1.455,3.507-1.786.806-19.665,8.87a2.515,2.515,0,0,1-3.026-.757l-.085-.111L771.034,1566.8l-2-2.606,5.42-3.977Z" transform="translate(-730.323 -1529.685)" fill="#eebb8f"/>
          <path id="Trazado_644069" data-name="Trazado 644069" d="M753.578,1574.154c2.514,6.586,14.364,21.214,23.521,23.872,5.438,1.578,17.225-6.692,17.225-6.692l-1.717-5.308s-8.936,5.937-13.74,1.375-13.315-19.165-17.65-19.974C757.4,1566.716,752.449,1571.2,753.578,1574.154Z" transform="translate(-716.478 -1536.011)" fill="url(#linear-gradient-28)"/>
          <path id="Trazado_644070" data-name="Trazado 644070" d="M690.684,1541.95s4.026,3.529,8.051,1.177c0,0,1.377,14.706,3.178,20.706s6.75,21.449,6.75,21.449l-28.918.315C678.964,1572.171,684.036,1556.92,690.684,1541.95Z" transform="translate(-651.088 -1513.488)" fill="#dac5ae"/>
          <path id="Trazado_644071" data-name="Trazado 644071" d="M674.456,1531.3s-13.987,20.919-11.139,43.232c0,0-1.2,4.383,14.669,3.785s16.779-2.789,16.779-2.789a153.009,153.009,0,0,1-10.866-41.845S677.966,1533.9,674.456,1531.3Z" transform="translate(-636.252 -1504.047)" fill="url(#linear-gradient-29)"/>
          <path id="Trazado_644072" data-name="Trazado 644072" d="M673.458,1575.005c-1.991,3.44-3.923,7.03-5.7,10.615-.885,1.8-1.735,3.608-2.51,5.425a47.1,47.1,0,0,0-1.988,5.424c-.125.445-.228.868-.32,1.3l-.27,1.435c-.161.974-.316,1.953-.45,2.947-.27,1.984-.5,3.993-.7,6.008-.393,4.03-.7,8.1-.937,12.145l-.113,1.956-3.8-.1,0-1.959c0-4.135.082-8.236.248-12.37.089-2.065.2-4.135.365-6.218.08-1.041.185-2.09.3-3.143l.207-1.6c.089-.573.2-1.15.322-1.7a52.065,52.065,0,0,1,1.907-6.205c.729-1.987,1.521-3.926,2.345-5.844,1.661-3.841,3.419-7.558,5.336-11.306l1.5-2.928,5.9,3.259Z" transform="translate(-630.7 -1537.384)" fill="#f3c9aa"/>
          <path id="Trazado_644073" data-name="Trazado 644073" d="M656.537,1557.579c-5.045,4.925-7.948,16.108-10.094,25.4s-.4,23.4-.4,23.4l5.784.255s.331-14.357,2.607-20.578,12.295-19.835,11.314-24.135C664.881,1558.128,658.8,1555.367,656.537,1557.579Z" transform="translate(-620.68 -1526.646)" fill="url(#linear-gradient-30)"/>
          <path id="Trazado_644074" data-name="Trazado 644074" d="M650.318,2037.609c-1.343-.1-2.8-3.041-2.894-7.039-.084-3.686,1.488-6.106,2.85-6.112C653.313,2024.443,652.395,2037.77,650.318,2037.609Z" transform="translate(-622.496 -1941.313)" fill="#f3c9aa"/>
          <path id="Trazado_644075" data-name="Trazado 644075" d="M683.525,2039.9c.563-.185.83-1.785.379-3.776-.415-1.836-1.385-2.88-1.969-2.748C680.63,2033.67,682.654,2040.186,683.525,2039.9Z" transform="translate(-652.721 -1949.211)" fill="#f3c9aa"/>
          <path id="Trazado_644076" data-name="Trazado 644076" d="M967.646,2672.747s-1.995-.527-2.547-.726c-2.205-.793-7.916-3.133-7.916-3.133a3.427,3.427,0,0,1-2.467,1.354,4.641,4.641,0,0,1-2.293-.308c-.564-.017-1.05.892-1.084,2.031a3.775,3.775,0,0,0,.106,1.03l-.047,1.581,16.833.506.048-1.6A.717.717,0,0,0,967.646,2672.747Z" transform="translate(-891.97 -2512.71)" fill="#3d4166"/>
          <path id="Trazado_644077" data-name="Trazado 644077" d="M433.983,2446.935s-.077-2.062-.048-2.648c.116-2.341.69-8.485.69-8.485a3.426,3.426,0,0,1-2.015-1.965,4.642,4.642,0,0,1-.374-2.283c-.148-.545-1.159-.744-2.259-.445a3.773,3.773,0,0,0-.954.4l-1.526.416,4.423,16.25,1.546-.421A.718.718,0,0,0,433.983,2446.935Z" transform="translate(-427.496 -2301.755)" fill="#3d4166"/>
          <path id="Trazado_644078" data-name="Trazado 644078" d="M1153.541,1691.075c-.393-.443-1.967-.052-3.615,1.153-1.519,1.111-2.092,2.416-1.739,2.9C1148.975,1696.208,1154.149,1691.761,1153.541,1691.075Z" transform="translate(-1066.422 -1645.556)" fill="#eebb8f"/>
        </g>
        <g id="Grupo_908713" data-name="Grupo 908713" transform="translate(287.282 5.897)">
          <path id="Trazado_644079" data-name="Trazado 644079" d="M2962.423,1850.054c-.053,1.394,2.794,3.248,6.9,3.82,3.783.527,6.461-.8,6.63-2.2C2976.328,1848.546,2962.505,1847.9,2962.423,1850.054Z" transform="translate(-2962.422 -1791.452)" fill="#eebb8f"/>
          <rect id="Rect치ngulo_304818" data-name="Rect치ngulo 304818" width="1.495" height="19.191" transform="translate(1.692 46.68) rotate(-21.684)" fill="#3d4166"/>
          <path id="Trazado_644080" data-name="Trazado 644080" d="M3097.054,1597.318l-9.644,29.354,2.825-1.792-22.292-1.556-2.025-.141-.393,3.914,2.012.264,22.156,2.911a2.605,2.605,0,0,0,2.774-1.657l.051-.135,10.956-28.89,1.208-3.185-6.565-2.322Z" transform="translate(-3053.841 -1565.609)" fill="#eebb8f"/>
          <path id="Trazado_644081" data-name="Trazado 644081" d="M3016.344,1835.318c.257-.557,1.936-.64,3.931.061,1.839.647,2.8,1.77,2.592,2.355C3022.408,1839.041,3015.946,1836.179,3016.344,1835.318Z" transform="translate(-3010.217 -1779.113)" fill="#eebb8f"/>
          <path id="Trazado_644082" data-name="Trazado 644082" d="M3158.1,1630.538l-.8,12.413s13.971-.823,18.511-6.324c6.369-7.718,14.664-29.665,7.683-33-7.752-3.7-8.193,15.248-13.94,23.8C3167.093,1631.088,3158.1,1630.538,3158.1,1630.538Z" transform="translate(-3135.216 -1573.653)" fill="url(#linear-gradient-31)"/>
          <path id="Trazado_644083" data-name="Trazado 644083" d="M3283.135,1344.907c6.1-4.37,13.438-1.391,14.413,4.919,1.266,8.189-.334,14.783,1.7,20.216a40.9,40.9,0,0,1,2.28,16.695c-8.319-11.341-16.917-6.646-21.665-18.04C3278.339,1365.036,3277.293,1349.094,3283.135,1344.907Z" transform="translate(-3242.831 -1342.837)" fill="#3d4166"/>
          <path id="Trazado_644084" data-name="Trazado 644084" d="M3339.469,1495.576h7.279v-13.925H3342.3Z" transform="translate(-3296.739 -1465.919)" fill="#eebb8f"/>
          <path id="Trazado_644085" data-name="Trazado 644085" d="M3287.957,1361.067c-1.23,5.716-.321,11.48,3.13,12.73,3.237,1.173,8.854-1.929,11.424-7.58,2.706-5.949,1.385-10.4-3.408-12.051C3294.011,1352.407,3289.305,1354.8,3287.957,1361.067Z" transform="translate(-3250.602 -1352.384)" fill="#f3c9aa"/>
          <path id="Trazado_644086" data-name="Trazado 644086" d="M3205.158,2043.479l4.893-35.436,5.16-35.395.934-6.405,13.482,2.909-1.79,6.221-9.886,34.35-9.718,34.4-.428,1.516-2.863-.6Z" transform="translate(-3177.458 -1895.592)" fill="#eebb8f"/>
          <path id="Trazado_644087" data-name="Trazado 644087" d="M3360.819,1966.235l.225,6.468,1.306,37.611,16.431,24.5.878,1.309-2.275,1.8-1.069-1.158-20.992-22.726a2.928,2.928,0,0,1-.743-1.519l-.09-.544-6.3-37.981-1.059-6.385Z" transform="translate(-3303.533 -1895.585)" fill="#eebb8f"/>
          <path id="Trazado_644088" data-name="Trazado 644088" d="M3232.216,1955.708h-19.094l-8.237,66.443,11.11,1.617Z" transform="translate(-3177.407 -1886.251)" fill="url(#linear-gradient-32)"/>
          <path id="Trazado_644089" data-name="Trazado 644089" d="M3348.765,1955.708H3330.42s3.36,42.468,6.1,47.46c3.281,5.984,16.273,19.874,16.273,19.874l8.824-6.816s-9.293-13.158-11.54-19.335S3348.765,1955.708,3348.765,1955.708Z" transform="translate(-3288.715 -1886.251)" fill="url(#linear-gradient-33)"/>
          <path id="Trazado_644090" data-name="Trazado 644090" d="M3270.183,1594.082s-3.925,3.441-7.85,1.147c0,0-1.343,14.338-3.1,20.187s-6.315,20.727-6.315,20.727l27.927.492C3281.61,1623.546,3276.665,1608.678,3270.183,1594.082Z" transform="translate(-3219.998 -1565.609)" fill="#76d2f3"/>
          <path id="Trazado_644091" data-name="Trazado 644091" d="M3368.49,1631.9c1.829,3.417,3.595,6.977,5.207,10.528.8,1.781,1.574,3.572,2.271,5.367a45.824,45.824,0,0,1,1.762,5.35c.107.438.194.853.27,1.279l.217,1.406c.125.954.245,1.914.343,2.886.2,1.943.354,3.907.485,5.876.252,3.939.423,7.918.52,11.865l.047,1.91,3.709.03.062-1.909c.131-4.029.187-8.028.159-12.061-.02-2.016-.063-4.036-.155-6.071-.044-1.017-.112-2.043-.189-3.073l-.15-1.562c-.068-.561-.157-1.127-.259-1.664a50.766,50.766,0,0,0-1.657-6.108c-.646-1.96-1.355-3.875-2.1-5.771-1.494-3.8-3.087-7.475-4.834-11.189l-1.365-2.9-5.859,2.985Z" transform="translate(-3321.13 -1593.985)" fill="#f3c9aa"/>
          <path id="Trazado_644092" data-name="Trazado 644092" d="M3259.017,1579.342s13.637,20.4,10.86,42.15c0,0,1.172,4.273-14.3,3.691s-16.359-2.719-16.359-2.719a149.186,149.186,0,0,0,10.594-40.8S3255.595,1581.878,3259.017,1579.342Z" transform="translate(-3207.847 -1552.539)" fill="url(#linear-gradient-34)"/>
          <path id="Trazado_644093" data-name="Trazado 644093" d="M3367.568,1660.644l11.922,1.475s-.472-13.556-2.24-21.318c-2.222-9.757-6.368-24.293-13.846-22.313-9.773,2.587,4.4,22.171,5.428,27.539C3369.658,1650.365,3367.568,1660.644,3367.568,1660.644Z" transform="translate(-3314.928 -1587.087)" fill="url(#linear-gradient-35)"/>
          <path id="Trazado_644094" data-name="Trazado 644094" d="M3487.557,2083.99c1.273-.322,2.192-3.384,1.619-7.241-.528-3.556-2.437-5.622-3.747-5.4C3482.507,2071.833,3485.588,2084.487,3487.557,2083.99Z" transform="translate(-3425.092 -1988.769)" fill="#f3c9aa"/>
          <path id="Trazado_644095" data-name="Trazado 644095" d="M3472.326,2088.742c-.571-.084-1.091-1.578-.987-3.565.1-1.833.856-3,1.439-2.966C3474.08,2082.278,3473.209,2088.873,3472.326,2088.742Z" transform="translate(-3413.651 -1998.417)" fill="#f3c9aa"/>
          <path id="Trazado_644096" data-name="Trazado 644096" d="M3103.193,2649.912l2.252-.4h0l8.234-3.187v.066a1.955,1.955,0,0,0,1.81,1.677,3.763,3.763,0,0,0,2.42-.331.389.389,0,0,1,.186-.118c.55,0,1,.9,1,2.009a3.676,3.676,0,0,1-.133,1v1.541h-16.4v-1.561A.7.7,0,0,1,3103.193,2649.912Z" transform="translate(-3086.675 -2498.601)" fill="#3d4166"/>
          <path id="Trazado_644097" data-name="Trazado 644097" d="M3550.776,2583.279l1.4-1.812h0l3.943-7.9.045.049a1.955,1.955,0,0,0,2.467.022,3.766,3.766,0,0,0,1.567-1.874.388.388,0,0,1,.058-.213c.406-.37,1.342-.005,2.089.815a3.67,3.67,0,0,1,.575.828l1.037,1.139-12.128,11.042-1.051-1.154A.7.7,0,0,1,3550.776,2583.279Z" transform="translate(-3483.935 -2432.173)" fill="#3d4166"/>
          <path id="Trazado_644098" data-name="Trazado 644098" d="M3311.394,1344.813a8.158,8.158,0,0,1,4.2.879c2.266,1.174,5.255,3.979,5.849,10.337.554,5.927-1.82,8.828,3.244,14.42,5.7,4.325,15.849,3.587,14.676,13.292s-14.043,8.44-17.1,3.587-2.715-9.178-4.417-12.238-4.656-1.266-6.133-4.642c-1.732-3.176,1.275-10.3,1.816-11.525a3.755,3.755,0,0,0-2.766-3.033c-4.153-1.133-7.6-5.064-7.6-6.33S3306.963,1344.813,3311.394,1344.813Z" transform="translate(-3264.549 -1344.589)" fill="#3d4166"/>
          <ellipse id="Elipse_7538" data-name="Elipse 7538" cx="1.899" cy="1.582" rx="1.899" ry="1.582" transform="matrix(0.409, -0.913, 0.913, 0.409, 46.207, 13.969)" fill="#f3c9aa"/>
        </g>
      </g>
    </g>
  </g>
</svg>
