<svg xmlns="http://www.w3.org/2000/svg" width="189.433" height="189.433" viewBox="0 0 189.433 189.433">
  <g id="Grupo_909134" data-name="Grupo 909134" transform="translate(-359.567 -6873.379)">
    <circle id="Elipse_7432" data-name="Elipse 7432" cx="94.716" cy="94.716" r="94.716" transform="translate(359.567 6873.379)" fill="#179587"/>
    <g id="Grupo_906976" data-name="Grupo 906976" transform="translate(-1626.76 7491.105)">
      <path id="Trazado_641125" data-name="Trazado 641125" d="M2082.333-565.7a2.316,2.316,0,0,1-2.411,2.227,2.354,2.354,0,0,1-1.94-1.7,9.877,9.877,0,0,1-.111-1.5c-.008-3.592-.005-7.185-.005-10.912-1.533,0-3.031.006-4.528,0a2.44,2.44,0,0,1-2.389-1.548,2.571,2.571,0,0,1,1.061-2.759c2.458-2.083,4.851-4.241,7.3-6.335,1.918-1.643,3.881-3.232,5.819-4.852,1.018-.85,2.019-1.717,3.036-2.567.226-.189.486-.339.73-.507h1.008c1.182.9,2.395,1.759,3.54,2.7,1.405,1.156,2.753,2.382,4.127,3.576q3.567,3.1,7.136,6.194c.891.773,1.784,1.542,2.665,2.326.846.753.58,1.746.33,2.579a1.749,1.749,0,0,1-1.8,1.192c-1.542-.018-3.084-.005-4.776-.005v1.1c0,3.427.013,6.856-.007,10.283-.01,1.854-.952,2.843-2.517,2.723a2.613,2.613,0,0,1-1.98-2.266c.013-.434.04-.868.04-1.3,0-4.055.021-8.11-.01-12.165a2.641,2.641,0,0,1,1.239-2.553,6.667,6.667,0,0,1,1.937-.4c-1.855-1.564-3.644-3.077-5.439-4.584-.947-.8-1.9-1.583-2.855-2.374-.637-.586-1.261-1.185-1.924-1.738-.081-.068-.41.059-.552.18-2.57,2.2-5.128,4.424-7.694,6.633-.717.617-1.454,1.209-2.291,1.9,3.129.239,3.288,1.479,3.261,3.653C2082.273-574.231,2082.324-569.967,2082.333-565.7Z" transform="translate(-10.718)" fill="#030404"/>
      <path id="Trazado_641126" data-name="Trazado 641126" d="M2034.215-503.01c1.838.464,2.112,1.376,2.014,2.522a2.068,2.068,0,0,1-2.321,1.931c-3.458.03-6.915.011-10.374.011h-1.206c0,1.56.006,3.061,0,4.563a2.567,2.567,0,0,1-1.472,2.359,2.565,2.565,0,0,1-2.684-.825q-2.323-2.722-4.64-5.448l-4.412-5.174-5.358-6.288v-1.614c2.052-2.345,4.124-4.674,6.149-7.043,1.635-1.913,3.184-3.9,4.826-5.809a59.505,59.505,0,0,1,4.21-4.542,2.166,2.166,0,0,1,1.987-.255,2.719,2.719,0,0,1,1.323,1.787,44.683,44.683,0,0,1,.061,5.047h1.134c3.426,0,6.852.008,10.279,0,1.6,0,2.7.928,2.514,2.548a1.8,1.8,0,0,1-1.67,1.667c-3.352.011-6.705.027-10.059.03-1.543,0-3.086-.038-4.63-.027a1.961,1.961,0,0,1-1.99-1.994c0-.3-.048-.593-.088-1.037-2.145,2.456-4.15,4.732-6.128,7.032a11.278,11.278,0,0,0-.884,1.374c-.588.576-1.186,1.143-1.753,1.739-.073.076-.04.345.038.459a11.579,11.579,0,0,0,.782.985q2.465,2.891,4.936,5.778c.961,1.126,1.919,2.254,2.947,3.462.531-2.937.869-3.21,3.775-3.213Q2027.867-502.995,2034.215-503.01Z" transform="translate(0 -10.767)" fill="#030404"/>
      <path id="Trazado_641127" data-name="Trazado 641127" d="M2145.3-517.59a2.235,2.235,0,0,1-1.853-2.054,2.143,2.143,0,0,1,2.039-2.089c3.594-.066,7.188-.053,10.783-.07.4,0,.79,0,1.275,0,0-1.557,0-3.028,0-4.5a2.548,2.548,0,0,1,1.5-2.446,2.47,2.47,0,0,1,2.66.887c1.838,2.162,3.631,4.363,5.458,6.536q2.948,3.506,5.932,6.984c.725.843,1.531,1.616,2.269,2.448a9.782,9.782,0,0,1,.746,1.107v1.009c-1.462,1.817-2.909,3.648-4.392,5.447-1.405,1.706-2.843,3.385-4.276,5.067q-2.051,2.406-4.123,4.792a15.559,15.559,0,0,1-2.27,2.44,2.553,2.553,0,0,1-2.1.33,2.1,2.1,0,0,1-1.407-1.978c.015-1.6,0-3.206,0-4.88-3.8,0-7.482.015-11.169-.015a4.538,4.538,0,0,1-1.793-.347,1.92,1.92,0,0,1-1.057-2.095,2.148,2.148,0,0,1,2.124-2.009c4.493.008,8.986,0,13.479.039a4.542,4.542,0,0,1,1.67.361c1.132.474,1.2,1.549,1.215,2.687.449-.425.829-.728,1.14-1.089,1.279-1.486,2.541-2.987,3.8-4.489,1.219-1.454,2.436-2.91,3.635-4.381.134-.164.271-.542.194-.627-.539-.591-1.133-1.13-1.709-1.686a13.075,13.075,0,0,0-.979-1.519c-1.642-1.926-3.33-3.812-4.973-5.736a7.866,7.866,0,0,1-.732-1.252l-.36.361c-.06,2.722-1.186,2.8-3.068,2.8Q2152.13-517.577,2145.3-517.59Z" transform="translate(-22.313 -10.753)" fill="#030404"/>
      <path id="Trazado_641128" data-name="Trazado 641128" d="M2125.664-536.67q0,3.166,0,6.333a9.07,9.07,0,0,0-1.3.537c-.935.562-.778,1.528-.778,2.406q-.008,23.19,0,46.378c0,1.3,0,1.3-1.3,1.3h-20.017v-11.308c1,1.03,1.9,1.95,2.786,2.886a2.3,2.3,0,0,0,3.492.22c.728-.671.592-2.316-.271-3.2q-3.309-3.4-6.633-6.775a2.068,2.068,0,0,0-2.906-.358,22.132,22.132,0,0,0-2.469,2.238q-2.583,2.525-5.124,5.093a2.548,2.548,0,0,0-.021,2.98,2.051,2.051,0,0,0,2.966.192c1.145-.994,2.231-2.056,3.452-3.191,0,3.605,0,7.1,0,10.585,0,.715-.5.643-.98.642q-7.158-.008-14.315,0h-3.57v-11.161c1.048,1,2.021,1.966,3.035,2.885a2.905,2.905,0,0,0,1.13.667,2.222,2.222,0,0,0,2.6-1.192,2.559,2.559,0,0,0-.555-2.546c-2.313-2.332-4.618-4.673-6.976-6.958a1.866,1.866,0,0,0-2.855-.106q-3.789,3.65-7.462,7.419a2.028,2.028,0,0,0,.083,2.764,2.05,2.05,0,0,0,2.968.213c1.141-1,2.213-2.086,3.445-3.259,0,2.253.013,4.3,0,6.35-.012,1.54-.062,3.08-.095,4.619-3.521-.013-7.043-.056-10.564-.018-.883.009-1.131-.224-1.127-1.119.034-8.253.019-16.505.018-24.758.9-.018,1.81-.053,2.716-.054q11.138-.006,22.277,0c1.953,0,2.885-.664,2.915-2.267.059-3.157,0-6.316.02-9.474a2,2,0,0,0-1.065-1.943,4.459,4.459,0,0,0-1.87-.26q-11.088-.024-22.176-.013c-.938,0-1.878-.035-2.816-.054,0-8.222.019-16.444-.02-24.665,0-.984.282-1.22,1.237-1.214,5.032.034,10.064,0,15.1-.018.035.363.1.725.1,1.088.007,4.368-.013,8.737.019,13.1a16.025,16.025,0,0,0,.31,2.738,2.084,2.084,0,0,0,2.643,1.656c2-.672,3.978-1.43,5.973-2.129a1.084,1.084,0,0,1,.664.045c1.916.678,3.806,1.437,5.747,2.024a3.368,3.368,0,0,0,1.974-.2c1.182-.435,1.281-1.518,1.281-2.6q0-7.359,0-14.718c0-.421.057-.841.085-1.226a1.782,1.782,0,0,1,.3-.075q12.449-.006,24.9-.017c.755,0,.981.336.973,1.04q-.037,3.074,0,6.149C2123.606-537.475,2124.155-536.89,2125.664-536.67Z" transform="translate(-9.349 -7.981)" fill="#fcdc7b"/>
      <path id="Trazado_641129" data-name="Trazado 641129" d="M2122.987-537.516c-1.508-.219-2.057-.8-2.077-2.338q-.04-3.074,0-6.149c.008-.7-.218-1.041-.973-1.04q-12.449.023-24.9.017a1.781,1.781,0,0,0-.3.075c-.028.385-.084.8-.085,1.226q-.009,7.358,0,14.718c0,1.085-.1,2.167-1.281,2.6a3.368,3.368,0,0,1-1.974.2c-1.942-.587-3.832-1.346-5.747-2.024a1.084,1.084,0,0,0-.664-.045c-1.995.7-3.969,1.457-5.972,2.129a2.084,2.084,0,0,1-2.643-1.656,16.025,16.025,0,0,1-.31-2.738c-.032-4.368-.012-8.736-.019-13.1,0-.363-.064-.725-.1-1.087a2.777,2.777,0,0,0-.858-.3q-11.988-.021-23.977,0c-.352,0-.7.042-1.05.064v66.306a2.34,2.34,0,0,0,.438.092q10.175.014,20.349.007c.151,0,.3-.2.455-.3.033-1.539.082-3.079.095-4.619.017-2.049,0-4.1,0-6.35-1.232,1.172-2.3,2.254-3.445,3.259a2.05,2.05,0,0,1-2.968-.213,2.029,2.029,0,0,1-.083-2.764q3.669-3.77,7.462-7.419a1.867,1.867,0,0,1,2.855.106c2.358,2.285,4.663,4.626,6.976,6.958a2.56,2.56,0,0,1,.555,2.546,2.222,2.222,0,0,1-2.6,1.192,2.9,2.9,0,0,1-1.13-.667c-1.013-.918-1.986-1.88-3.035-2.885v11.161h3.57q7.158,0,14.315,0c.481,0,.98.073.98-.642,0-3.49,0-6.979,0-10.585-1.221,1.135-2.306,2.2-3.452,3.191a2.051,2.051,0,0,1-2.966-.192,2.549,2.549,0,0,1,.021-2.98q2.537-2.571,5.124-5.093a22.132,22.132,0,0,1,2.469-2.238,2.068,2.068,0,0,1,2.906.358q3.325,3.38,6.633,6.775c.864.885,1,2.53.271,3.2a2.3,2.3,0,0,1-3.492-.22c-.886-.936-1.79-1.856-2.786-2.886v11.308H2119.6c1.3,0,1.3,0,1.3-1.3q0-23.19,0-46.379c0-.879-.157-1.844.778-2.406a9.077,9.077,0,0,1,1.3-.537c1.728.13,2.1,1.1,2.156,2.37.009.2,0,.4,0,.6q0,24.5-.007,49.007c0,.907.137,1.9-.906,2.441a2.268,2.268,0,0,1-.554.3,8.328,8.328,0,0,1-1.4.137q-36.9.009-73.806.018a2.7,2.7,0,0,1-2.725-1.47,1.917,1.917,0,0,1-.194-.823q-.013-35.091-.025-70.183a2.787,2.787,0,0,1,2.63-2.7c.267-.023.537,0,.806,0q36.4,0,72.8.019a7.662,7.662,0,0,1,2.391.462,1.657,1.657,0,0,1,.791.928,3.863,3.863,0,0,1,.192,1.385c.016,2.857,0,5.715.01,8.571C2125.152-538.578,2124.719-537.752,2122.987-537.516Zm-42.259,3.974c.42-.1.849-.173,1.259-.3.992-.317,1.959-.745,2.97-.959a3.958,3.958,0,0,1,1.749.2c1.167.313,2.313.7,3.468,1.059a2.829,2.829,0,0,0,.3-.86c.021-3.927,0-7.853.028-11.779.005-.718-.24-.913-.928-.9q-4.128.047-8.255,0c-.689-.008-.933.187-.928.9.03,3.927.008,7.853.028,11.779A2.838,2.838,0,0,0,2080.728-533.542Z" transform="translate(-6.673 -7.136)" fill="#030404"/>
      <path id="Trazado_641130" data-name="Trazado 641130" d="M2096.645-453.981a2.345,2.345,0,0,1,2.508-2.015,2.307,2.307,0,0,1,1.947,2.38c.026,3.461.01,6.924.011,10.385v1.34c1.5,0,2.97.034,4.433-.012.966-.031,1.848.239,2.126,1.144.3.96.52,2-.55,2.872-1.911,1.551-3.715,3.233-5.565,4.86-1.886,1.661-3.764,3.333-5.663,4.98q-2.36,2.047-4.767,4.039a2.933,2.933,0,0,1-3.4-.112c-1.657-1.43-3.349-2.82-5-4.26-2.31-2.017-4.582-4.075-6.89-6.094-1.348-1.178-2.706-2.348-4.115-3.45a2.072,2.072,0,0,1-.769-2.465,2.127,2.127,0,0,1,2.06-1.491c1.574-.021,3.148-.006,4.847-.006v-1.133c0-3.463-.011-6.925.006-10.386.008-1.667,1-2.693,2.447-2.6a2.517,2.517,0,0,1,2.018,2.007c.019.134.036.266.054.4-.028.365-.078.731-.078,1.1-.006,4.1.009,8.193-.019,12.29a3.5,3.5,0,0,1-.353,1.57c-.541,1.014-1.557,1.2-2.8,1.424.1.237.41.254.6.413,3.112,2.659,6.207,5.339,9.315,8,.142.121.47.25.551.182.662-.553,1.287-1.152,1.923-1.737l8.358-7.051c-2.3-.018-3.3-1.049-3.255-3.206C2096.713-445.064,2096.647-449.523,2096.645-453.981Z" transform="translate(-10.712 -22.389)" fill="#030404"/>
      <path id="Trazado_641131" data-name="Trazado 641131" d="M2012.131-510.648a11.276,11.276,0,0,1,.884-1.374c1.978-2.3,3.983-4.576,6.128-7.032.04.444.091.74.088,1.037a1.961,1.961,0,0,0,1.99,1.994c1.544-.011,3.087.029,4.63.027,3.354,0,6.707-.019,10.059-.03a7.129,7.129,0,0,0-.372,1.542c-.05,2.768-.043,5.537-.056,8.306-5.912-.006-11.824-.024-17.736,0a2.267,2.267,0,0,1-1.746-.755C2014.738-508.2,2013.424-509.414,2012.131-510.648Z" transform="translate(-1.337 -12.318)" fill="#79c1d9"/>
      <path id="Trazado_641132" data-name="Trazado 641132" d="M2145.649-516.045q6.835.016,13.669.033c1.882.005,3.008-.077,3.068-2.8l.36-.361a7.862,7.862,0,0,0,.732,1.252c1.644,1.924,3.332,3.811,4.973,5.736a13.109,13.109,0,0,1,.979,1.519c-1.288,1.218-2.6,2.406-3.851,3.665a2.209,2.209,0,0,1-1.711.8c-5.932-.024-11.864-.007-17.8,0-.013-2.768-.006-5.536-.055-8.3A7.212,7.212,0,0,0,2145.649-516.045Z" transform="translate(-22.667 -12.299)" fill="#79c1d9"/>
      <path id="Trazado_641133" data-name="Trazado 641133" d="M2084.573-453.211c-.018-.134-.036-.266-.054-.4l14.316.013c0,4.458.068,8.917-.024,13.372-.044,2.157.955,3.189,3.255,3.206l-8.358,7.051c-.059-.153-.076-.346-.182-.451-1.174-1.171-2.346-2.344-3.552-3.481a2.29,2.29,0,0,1-.733-1.844c.032-5.468,0-10.937.036-16.4.005-.851-.256-1.1-1.082-1.06C2086.99-453.151,2085.78-453.205,2084.573-453.211Z" transform="translate(-12.901 -22.772)" fill="#7ac3da"/>
      <path id="Trazado_641134" data-name="Trazado 641134" d="M2094.607-587.788c.952.791,1.908,1.577,2.855,2.374,1.795,1.507,3.583,3.021,5.439,4.584a6.667,6.667,0,0,0-1.937.4,2.641,2.641,0,0,0-1.239,2.553c.031,4.055.013,8.11.01,12.165,0,.434-.027.869-.04,1.3l-9.555-.016c.006-5.913.024-11.827,0-17.74a2.265,2.265,0,0,1,.755-1.747C2092.158-585.181,2093.372-586.495,2094.607-587.788Z" transform="translate(-13.799 -1.337)" fill="#7ac3da"/>
      <path id="Trazado_641135" data-name="Trazado 641135" d="M2011.79-509.05c1.293,1.234,2.606,2.448,3.869,3.714a2.267,2.267,0,0,0,1.746.755c5.912-.024,11.824-.006,17.736,0q.013,2.208.026,4.415c-.019.024-.06.061-.055.07a1.251,1.251,0,0,0,.1.124l.034.057-.04.054q-6.349.011-12.7.021c-2.906,0-3.243.276-3.775,3.213-1.028-1.207-1.985-2.336-2.947-3.462q-2.468-2.89-4.936-5.778a11.581,11.581,0,0,1-.782-.985c-.078-.114-.111-.382-.038-.459C2010.6-507.907,2011.2-508.474,2011.79-509.05Z" transform="translate(-0.996 -13.916)" fill="#4eaece"/>
      <path id="Trazado_641136" data-name="Trazado 641136" d="M2093.087-588.122c-1.234,1.293-2.448,2.607-3.713,3.871a2.263,2.263,0,0,0-.755,1.747c.023,5.914.006,11.827,0,17.74l-4.416.025-.192.046-.061.032-.057-.039c-.009-4.264-.06-8.529-.007-12.791.027-2.175-.132-3.415-3.261-3.653.837-.694,1.574-1.286,2.291-1.9,2.566-2.209,5.124-4.429,7.694-6.633.142-.121.47-.248.552-.18C2091.826-589.307,2092.45-588.708,2093.087-588.122Z" transform="translate(-12.279 -1.003)" fill="#4fafce"/>
      <path id="Trazado_641137" data-name="Trazado 641137" d="M2146.133-504.582c5.932-.005,11.864-.023,17.8,0a2.209,2.209,0,0,0,1.711-.8c1.247-1.259,2.563-2.448,3.851-3.665.576.556,1.17,1.1,1.709,1.686.077.085-.061.463-.194.627-1.2,1.471-2.416,2.927-3.635,4.381-1.26,1.5-2.522,3-3.8,4.489-.311.361-.69.664-1.14,1.089-.011-1.138-.083-2.213-1.215-2.687a4.543,4.543,0,0,0-1.67-.361c-4.493-.036-8.986-.032-13.479-.039l-.041-.053.034-.057c.028-.013.081-.028.081-.039a.881.881,0,0,0-.032-.153Z" transform="translate(-22.727 -13.916)" fill="#4eaece"/>
      <path id="Trazado_641138" data-name="Trazado 641138" d="M2084.656-559.913l.192-.046A.432.432,0,0,1,2084.656-559.913Z" transform="translate(-12.923 -5.783)" fill="#7ac3da"/>
      <path id="Trazado_641139" data-name="Trazado 641139" d="M2039.993-498.283a1.188,1.188,0,0,1-.1-.124c-.005-.008.035-.045.055-.07A.456.456,0,0,1,2039.993-498.283Z" transform="translate(-5.771 -15.605)" fill="#79c1d9"/>
      <path id="Trazado_641140" data-name="Trazado 641140" d="M2146.114-498.476a.881.881,0,0,1,.032.153c0,.012-.053.026-.081.039A.465.465,0,0,1,2146.114-498.476Z" transform="translate(-22.733 -15.605)" fill="#79c1d9"/>
      <path id="Trazado_641141" data-name="Trazado 641141" d="M2072.161-480.023c-.152.106-.3.3-.455.3q-10.175.015-20.349-.007a2.341,2.341,0,0,1-.438-.092v-66.306c.346-.022.7-.064,1.05-.064q11.989-.01,23.977,0a2.777,2.777,0,0,1,.858.3c-5.033.013-10.065.051-15.1.017-.954-.006-1.242.23-1.237,1.214.039,8.221.02,16.443.02,24.665-.8.024-1.608.016-2.407.081a2.193,2.193,0,0,0-2.139,2.1c-.055,3.252-.044,6.506,0,9.759a1.7,1.7,0,0,0,1.521,1.754c1,.163,2.013.255,3.021.377,0,8.253.016,16.505-.018,24.758,0,.9.243,1.128,1.126,1.119C2065.119-480.08,2068.64-480.037,2072.161-480.023Z" transform="translate(-7.534 -7.982)" fill="#f9c325"/>
      <path id="Trazado_641142" data-name="Trazado 641142" d="M2061.437-500.936c-1.008-.123-2.02-.214-3.021-.377a1.7,1.7,0,0,1-1.521-1.754c-.047-3.253-.059-6.507,0-9.759a2.193,2.193,0,0,1,2.138-2.1c.8-.066,1.6-.057,2.407-.081.938.018,1.878.053,2.816.054q11.088.006,22.176.013a4.459,4.459,0,0,1,1.87.26,2,2,0,0,1,1.065,1.943c-.017,3.158.039,6.317-.02,9.474-.029,1.6-.961,2.265-2.915,2.267q-11.138.005-22.277,0C2063.247-500.989,2062.342-500.955,2061.437-500.936Zm-.109-4.634a1.078,1.078,0,0,0,.3.109q11.375.013,22.749.018c.568,0,.761-.276.751-.812-.018-1.006-.067-2.018.013-3.018s-.3-1.247-1.259-1.242c-7.18.037-14.361.02-21.542.02h-1.014Z" transform="translate(-8.482 -12.965)" fill="#080704"/>
      <path id="Trazado_641143" data-name="Trazado 641143" d="M2096.859-532.678c-1.154-.357-2.3-.745-3.468-1.059a3.959,3.959,0,0,0-1.749-.2c-1.011.214-1.978.642-2.97.959-.41.131-.839.2-1.259.3-.008-4.168-.006-8.336-.03-12.5,0-.642.209-.9.87-.9q3.882.034,7.764,0c.661-.006.875.254.871.9C2096.865-541.014,2096.866-536.846,2096.859-532.678Z" transform="translate(-13.359 -8.001)" fill="#fbba83"/>
      <path id="Trazado_641144" data-name="Trazado 641144" d="M2096.8-532.706c.007-4.168.005-8.335.03-12.5,0-.642-.209-.9-.871-.9q-3.882.034-7.764,0c-.661-.006-.875.255-.87.9.024,4.167.022,8.335.03,12.5a2.838,2.838,0,0,1-.306-.861c-.02-3.927,0-7.853-.028-11.779,0-.718.24-.913.928-.9q4.127.047,8.255,0c.688-.008.934.187.928.9-.03,3.927-.007,7.853-.028,11.779A2.828,2.828,0,0,1,2096.8-532.706Z" transform="translate(-13.301 -7.973)" fill="#030404"/>
      <path id="Trazado_641145" data-name="Trazado 641145" d="M2083.965-453.136c1.208.006,2.417.06,3.622,0,.827-.041,1.087.209,1.082,1.06-.037,5.468,0,10.936-.036,16.4a2.29,2.29,0,0,0,.733,1.844c1.206,1.137,2.378,2.31,3.552,3.481.106.105.124.3.182.451-.636.585-1.261,1.184-1.923,1.737-.082.067-.409-.061-.551-.182-3.108-2.664-6.2-5.343-9.315-8-.187-.16-.493-.176-.6-.413,1.245-.223,2.26-.41,2.8-1.424a3.5,3.5,0,0,0,.353-1.57c.028-4.1.013-8.192.02-12.29C2083.887-452.4,2083.937-452.77,2083.965-453.136Z" transform="translate(-12.293 -22.847)" fill="#4fafce"/>
      <path id="Trazado_641146" data-name="Trazado 641146" d="M2062.178-504.717v-4.924h1.014c7.181,0,14.362.017,21.542-.02.964-.005,1.339.244,1.259,1.242s-.03,2.012-.013,3.018c.01.536-.183.813-.751.812q-11.375-.013-22.749-.018A1.08,1.08,0,0,1,2062.178-504.717Z" transform="translate(-9.332 -13.818)" fill="#e5e4e4"/>
    </g>
  </g>
</svg>
