<svg xmlns="http://www.w3.org/2000/svg" width="189.433" height="189.433" viewBox="0 0 189.433 189.433">
  <g id="Grupo_909131" data-name="Grupo 909131" transform="translate(-359.567 -6481.791)">
    <circle id="Elipse_7429" data-name="Elipse 7429" cx="94.716" cy="94.716" r="94.716" transform="translate(359.567 6481.791)" fill="#179587"/>
    <g id="Grupo_906973" data-name="Grupo 906973" transform="translate(-1396.011 6757.017)">
      <path id="Trazado_641019" data-name="Trazado 641019" d="M1806.334-225.1c1-1.066,1.954-2.192,3.026-3.185a68.958,68.958,0,0,1,9.3-7.255,79.24,79.24,0,0,1,10-5.336,39.666,39.666,0,0,1,4.582-1.555c1.75-.561,3.49-1.167,5.269-1.62,1.521-.387,3.088-.59,4.637-.863a65.253,65.253,0,0,1,14.7-.547,62.8,62.8,0,0,1,7.955,1.133,47.113,47.113,0,0,1,5.777,1.412c2.06.649,4.076,1.452,6.07,2.289s3.966,1.709,5.864,2.727a55.385,55.385,0,0,1,5.408,3.331c1.941,1.348,3.832,2.784,5.641,4.3,1.514,1.271,2.882,2.714,4.308,4.089.3.289.566.613.847.921-.045.186-.025.452-.142.547-1.482,1.195-1.642,2.846-1.636,4.567s0,3.426-.006,5.138c-2.546,0-5.095.079-7.637-.025-1.556-.064-2.151.745-2.144,2.162.048,9.886.026,19.773.026,29.658v1.2h-1.257q-4.96,0-9.919,0a1.7,1.7,0,0,0-1.874,1.22c-.312,1.18.327,1.884,1.684,1.89,3.406.016,6.811,0,10.217.007.351,0,.7.029,1.149.049v1.256q0,13.986,0,27.972c0,1.322.4,1.707,1.685,1.707,2.678,0,5.356.009,8.034.014.008,1.99,0,3.981.04,5.971a3.354,3.354,0,0,0,.353.991,3.146,3.146,0,0,0,1.519,2.552,29.367,29.367,0,0,1-2.3,2.727c-1.353,1.275-2.843,2.4-4.245,3.625a49.575,49.575,0,0,1-8.651,5.985,43.6,43.6,0,0,1-8.922,4.151c-2.546.734-5.028,1.71-7.6,2.342a49.805,49.805,0,0,1-7.7,1.357,103.667,103.667,0,0,1-11.227.386,55.142,55.142,0,0,1-7.977-1.046,50.942,50.942,0,0,1-6.767-1.535c-2.442-.778-4.795-1.845-7.163-2.842a52.693,52.693,0,0,1-4.82-2.23,44.023,44.023,0,0,1-4.953-3.086c-2.447-1.791-4.848-3.655-7.15-5.628-1.485-1.273-2.758-2.795-4.126-4.205a4.134,4.134,0,0,0,1.781-3.565c-.011-1.976.017-3.952.028-5.928,2.679,0,5.359-.061,8.034.017a1.685,1.685,0,0,0,1.942-1.932c-.043-9.291-.023-18.583-.023-27.875v-1.229h1.225c3.406,0,6.812.007,10.218,0,1.314,0,1.932-.742,1.6-1.941a1.555,1.555,0,0,0-1.693-1.176q-5.059.015-10.118,0c-.348,0-.7-.034-1.1-.055v-15.09q0-7.887,0-15.773c0-1.573-.5-2.068-2.046-2.071q-4.017-.007-8.035-.007c-.012-1.544-.081-3.09-.022-4.63.074-1.96-.007-3.837-1.589-5.284C1806.361-224.96,1806.357-225.041,1806.334-225.1Zm38.409,44.8-1.438,2.046-4.33,2.3a3.381,3.381,0,0,0-.68.124c-1.553.621-3.134,1.187-4.639,1.908a43.419,43.419,0,0,0-5.74,3.062c-1.254.852-2.694,1.808-3.006,3.5-.406,2.205-.775,4.426-.971,6.657-.206,2.332-.189,4.684-.27,7.026-.118.131-.334.26-.338.394q-.046,1.4,0,2.807c0,.132.226.258.347.386.209.6.383,1.221.636,1.806a6.312,6.312,0,0,0,5.932,4.092c7.405.12,14.813.034,22.22.029l.283,0,.427,0,.5-.007c7.365.006,14.731.087,22.093-.053a6.958,6.958,0,0,0,3.905-1.534,7.1,7.1,0,0,0,2.734-5.932c-.081-2.64-.122-5.282-.179-7.923,0-1.034.022-2.07-.016-3.1-.008-.235-.226-.461-.348-.692a7.8,7.8,0,0,0-1.973-6.005,13.745,13.745,0,0,0-4.747-3.376c-1.37-.571-2.733-1.159-4.113-1.7-1.35-.532-2.718-1.018-4.077-1.523l-4.3-2.3-1.449-2.153-.007-2.383c.743-.893,1.455-1.814,2.237-2.673a9.428,9.428,0,0,0,2.541-5.24c.04-.313.044-.63.068-.989,1.4.16,2-.6,2.519-1.667.838-1.73.636-3.53.515-5.313a1.433,1.433,0,0,0-1.58-1.421,29.222,29.222,0,0,0,.833-4.917,19.742,19.742,0,0,0-.752-5.534c-.467-1.614-1.292-3.234-3.3-3.55-.546-.086-.627-.375-.718-.861a3.844,3.844,0,0,0-.68-1.572,6.455,6.455,0,0,0-4.768-2.326,62.577,62.577,0,0,0-7.121-.238,12.307,12.307,0,0,0-10.812,5.81,13.769,13.769,0,0,0-2.368,7.307c-.036,1.976.115,3.955.183,5.932-.276.333-.717.63-.8,1a7.4,7.4,0,0,0-.272,3.947c.532,1.818.843,3.525,3.177,3.666a4.087,4.087,0,0,1,.058.539,6.351,6.351,0,0,0,2.127,5.043c.972.929,1.778,2.034,2.657,3.061Z" transform="translate(-4.362 0)" fill="#f27c5a"/>
      <path id="Trazado_641020" data-name="Trazado 641020" d="M1917.129-210.839c0-1.712.012-3.425.006-5.138s.155-3.373,1.636-4.567c.118-.1.1-.361.142-.547,5.6-.889,11.246-.254,16.868-.416a4.018,4.018,0,0,1,4.151,4.179c.007,4.821.042,9.642-.034,14.462a5.65,5.65,0,0,1-.809,2.63,2.54,2.54,0,0,1-2.209,1.388c-1.49.027-2.977.217-4.467.338-3.564,0-7.129,0-10.693-.023a4.413,4.413,0,0,1-3.371-1.439,5.1,5.1,0,0,1-1.222-3.584c.046-1.417.005-2.838,0-4.257Z" transform="translate(-23.571 -4.165)" fill="#fcd97f"/>
      <path id="Trazado_641021" data-name="Trazado 641021" d="M1801.979-220.928c.022.061.026.143.069.182,1.583,1.447,1.663,3.325,1.589,5.284-.059,1.54.01,3.087.022,4.63v3.031c-.056,2.045-.041,4.1-.194,6.133a3.523,3.523,0,0,1-2.953,2.79l-12.123-.011-4.573-.008a3.345,3.345,0,0,1-2.744-3.33c-.045-5.221-.012-10.444-.017-15.665a3.974,3.974,0,0,1,3.8-3.611c4.892-.022,9.783-.034,14.674.018A11.666,11.666,0,0,1,1801.979-220.928Z" transform="translate(-0.007 -4.174)" fill="#7dcddb"/>
      <path id="Trazado_641022" data-name="Trazado 641022" d="M1786.2-157.61c-1.114-.117-2.227.184-3.334-.506a3.493,3.493,0,0,1-1.792-3.121c-.045-5.144-.012-10.288-.017-15.432,0-1.816,1.575-3.915,4.636-3.589,4.717,0,9.435.034,14.151-.017a4.078,4.078,0,0,1,3.629,3.2c.117,2.233.126,4.473.182,6.71q0,1.413.007,2.824c0,1.885,0,3.77-.014,5.655a3.969,3.969,0,0,1-4.254,4.274Q1792.794-157.61,1786.2-157.61Z" transform="translate(-0.006 -11.314)" fill="#fcd97f"/>
      <path id="Trazado_641023" data-name="Trazado 641023" d="M1935.374-180.281a4.342,4.342,0,0,1,3.356.986,3.914,3.914,0,0,1,1.292,2.952c0,4.916-.047,9.833.019,14.747.029,2.145-1.879,4.367-4.048,3.981a6.251,6.251,0,0,0-1.186.01c-4.558,0-9.117.014-13.675,0a3.581,3.581,0,0,1-3.547-2.982q0-8.346,0-16.691a2.719,2.719,0,0,1,.259-.936,4.3,4.3,0,0,1,3.5-2.055Q1928.356-180.271,1935.374-180.281Z" transform="translate(-23.651 -11.315)" fill="#f2f2f2"/>
      <path id="Trazado_641024" data-name="Trazado 641024" d="M1803.649-129.988c-.011,1.976-.04,3.952-.028,5.928a4.134,4.134,0,0,1-1.781,3.565,10.458,10.458,0,0,1-2.328.566c-4.919.052-9.839.031-14.76.024a3.711,3.711,0,0,1-3.715-3.754c-.005-4.953.052-9.906-.025-14.858a3.611,3.611,0,0,1,3.869-3.82c1.186.047,2.376-.008,3.565-.017,3.829,0,7.66-.015,11.489.029a3.623,3.623,0,0,1,1.731.48,4.012,4.012,0,0,1,1.949,3.68q.019,2.673.035,5.346Z" transform="translate(0 -17.884)" fill="#f2f2f2"/>
      <path id="Trazado_641025" data-name="Trazado 641025" d="M1919.083-120.506a3.146,3.146,0,0,1-1.519-2.552q.008-8.258.016-16.515a3.486,3.486,0,0,1,.434-1.157,4.507,4.507,0,0,1,3.661-1.675c3.59.091,7.184,0,10.776-.009,1.354.021,2.708.031,4.061.066a3.53,3.53,0,0,1,3.473,3.4q.066,7.781,0,15.563a3.681,3.681,0,0,1-3.7,3.436q-7.633.072-15.266-.01A7.472,7.472,0,0,1,1919.083-120.506Z" transform="translate(-23.647 -17.874)" fill="#7dcddb"/>
      <path id="Trazado_641026" data-name="Trazado 641026" d="M1804.624-174.635c-.055-2.237-.065-4.476-.182-6.71a4.078,4.078,0,0,0-3.629-3.2c-4.716.051-9.434.017-14.151.017.713-3.249,1.417-6.5,2.148-9.746a9.574,9.574,0,0,1,.516-1.345l.056-.01c3.668,0,7.335.009,11-.019a3.832,3.832,0,0,0,1.1-.36,3.523,3.523,0,0,0,2.953-2.79c.153-2.037.137-4.089.193-6.133h6.8a1.656,1.656,0,0,1,.117.37q.01,14.536.015,29.07c0,.623-.243.878-.892.868C1808.659-174.649,1806.641-174.633,1804.624-174.635Z" transform="translate(-0.978 -7.048)" fill="#f27c5a"/>
      <path id="Trazado_641027" data-name="Trazado 641027" d="M1933.931-184.549q-7.017,0-14.035.007a4.3,4.3,0,0,0-3.5,2.055,2.719,2.719,0,0,0-.259.936,3.279,3.279,0,0,0-.368.987c-.046,1.866-.038,3.735-.049,5.6h-6.475V-204.93h6.515c0,1.419.043,2.839,0,4.257a5.1,5.1,0,0,0,1.222,3.584,4.413,4.413,0,0,0,3.371,1.439c3.565.026,7.129.018,10.693.023a17.475,17.475,0,0,1,.921,2.285c.54,2.128,1,4.278,1.476,6.422C1933.622-186.134,1933.77-185.34,1933.931-184.549Z" transform="translate(-22.208 -7.048)" fill="#f27c5a"/>
      <path id="Trazado_641028" data-name="Trazado 641028" d="M1804.734-136.718q-.018-2.673-.035-5.346a4.012,4.012,0,0,0-1.949-3.68,3.623,3.623,0,0,0-1.731-.48c-3.829-.044-7.66-.026-11.489-.029-.634-2.219-1.284-4.434-1.893-6.66-.18-.659-.245-1.35-.362-2.026q6.6,0,13.194-.007a3.969,3.969,0,0,0,4.254-4.274c.014-1.884.01-3.769.014-5.655h6.869v28.157Z" transform="translate(-1.085 -13.984)" fill="#f17c5b"/>
      <path id="Trazado_641029" data-name="Trazado 641029" d="M1930.989-146.311c-3.592.014-7.186.1-10.776.009a4.507,4.507,0,0,0-3.661,1.675,3.486,3.486,0,0,0-.434,1.157,3.36,3.36,0,0,0-.365,1c-.046,1.807-.038,3.615-.048,5.422-1.817,0-3.636-.052-5.45.026-.947.041-1.141-.294-1.139-1.176.031-8.522.018-17.045.021-25.567,0-.351.031-.7.053-1.147h6.512c.011,2,0,4,.049,6a3.24,3.24,0,0,0,.369.986,3.581,3.581,0,0,0,3.547,2.982c4.558.019,9.117,0,13.675,0-.465,1.9-.908,3.8-1.407,5.684C1931.67-148.263,1931.307-147.293,1930.989-146.311Z" transform="translate(-22.184 -13.977)" fill="#f17c5b"/>
      <path id="Trazado_641030" data-name="Trazado 641030" d="M1784.4-194.158l4.572.008c.007.13.013.26.02.389l-.056.01c-1.219,0-2.438.017-3.655-.031A2.749,2.749,0,0,1,1784.4-194.158Z" transform="translate(-0.586 -8.913)" fill="#addfe8"/>
      <path id="Trazado_641031" data-name="Trazado 641031" d="M1873.883-192.753a1.433,1.433,0,0,1,1.58,1.421c.121,1.783.322,3.583-.515,5.313-.517,1.068-1.115,1.827-2.519,1.667-.024.359-.028.676-.068.989a9.428,9.428,0,0,1-2.541,5.24c-.781.859-1.493,1.78-2.237,2.673a1.881,1.881,0,0,0-.4.252,10.294,10.294,0,0,1-6.582,3.645c-2.815.264-5.391-.2-7.5-2.266-.573-.563-1.188-1.083-1.784-1.623-.88-1.027-1.685-2.132-2.657-3.061a6.351,6.351,0,0,1-2.127-5.043,4.087,4.087,0,0,0-.058-.539c-2.334-.141-2.645-1.848-3.177-3.666a7.4,7.4,0,0,1,.272-3.947c.082-.375.523-.671.8-1l3.467,5.877a1.185,1.185,0,0,0,.111-.416c-.484-3.613.7-7.107.775-10.684a8.655,8.655,0,0,1,.776-2.912,2.984,2.984,0,0,1,1.12-1.256c1.889-1.242,3.915-.963,5.937-.378,1.628.471,3.248,1.085,4.974.775s3.449-.714,5.154-1.151a1.293,1.293,0,0,1,1.359.369,6.78,6.78,0,0,1,1.921,3.8c.456,1.923,1.08,3.823,1.344,5.772a25.392,25.392,0,0,1-.1,4.547c-.032.671-.072,1.258.786.9.313-1.233.544-2.39.91-3.5A11.1,11.1,0,0,1,1873.883-192.753Z" transform="translate(-10.756 -7.387)" fill="#fcd97e"/>
      <path id="Trazado_641032" data-name="Trazado 641032" d="M1856.124-129.564c-7.407,0-14.815.091-22.22-.029a6.312,6.312,0,0,1-5.932-4.092c-.253-.585-.427-1.2-.636-1.806q0-1.793-.007-3.588c.08-2.342.064-4.694.27-7.026.2-2.231.566-4.452.971-6.657.313-1.7,1.752-2.652,3.006-3.5a43.419,43.419,0,0,1,5.74-3.062c1.506-.721,3.087-1.287,4.639-1.908a3.381,3.381,0,0,1,.68-.124c-.361,1.934-.719,3.869-1.086,5.8-.112.594-.245,1.182-.422,2.022a17.487,17.487,0,0,0,1.772,1.156c1.288.657,1.464,1.2.669,2.454a3,3,0,0,0-.4.667,5.057,5.057,0,0,0-.417,1.8,5.6,5.6,0,0,0,.7,2.11c1.124,2.038,2.284,4.059,3.514,6.034a37.4,37.4,0,0,0,2.294,3.088c.534.688,1.089,1.363,1.68,2,.687.743,1.418,1.446,2.141,2.156.84.826,1.639,1.727,2.943,1.8l.042.067Z" transform="translate(-8.021 -14.593)" fill="#25313b"/>
      <path id="Trazado_641033" data-name="Trazado 641033" d="M1892.166-145.022c.058,2.641.1,5.283.179,7.923a7.1,7.1,0,0,1-2.734,5.932,6.957,6.957,0,0,1-3.905,1.534c-7.362.14-14.728.059-22.093.053a4.612,4.612,0,0,1,.479-.6,64.313,64.313,0,0,0,5.021-4.576,26.856,26.856,0,0,0,4.308-5.942c1.035-2.107,2.338-4.081,3.409-6.172a1.9,1.9,0,0,0-.3-2.45,3.639,3.639,0,0,1-.651-.965c-.483-.871-.175-1.5,1-2.107,1.518-.781,1.688-1.086,1.393-2.682-.057-.307-.3-.58-.359-.886-.354-1.818-.681-3.642-1.017-5.464,1.36.506,2.728.991,4.078,1.524,1.38.544,2.742,1.132,4.113,1.7a13.746,13.746,0,0,1,4.747,3.376,7.8,7.8,0,0,1,1.972,6.005c.006,1.055-.007,2.111.033,3.164C1891.843-145.438,1892.05-145.232,1892.166-145.022Z" transform="translate(-14.304 -14.582)" fill="#25313b"/>
      <path id="Trazado_641034" data-name="Trazado 641034" d="M1874.106-194.6a11.086,11.086,0,0,0-.971,1.794c-.366,1.113-.6,2.27-.91,3.5-.858.358-.818-.228-.786-.9a25.38,25.38,0,0,0,.1-4.547c-.265-1.949-.889-3.849-1.344-5.772a6.78,6.78,0,0,0-1.921-3.8,1.293,1.293,0,0,0-1.359-.369c-1.705.437-3.422.841-5.154,1.151s-3.346-.3-4.974-.775c-2.021-.585-4.047-.864-5.937.378a2.983,2.983,0,0,0-1.119,1.256,8.655,8.655,0,0,0-.777,2.912c-.075,3.577-1.259,7.071-.775,10.684a1.188,1.188,0,0,1-.112.416l-3.467-5.877c-.068-1.978-.219-3.956-.183-5.932a13.769,13.769,0,0,1,2.368-7.307,12.307,12.307,0,0,1,10.812-5.81,62.575,62.575,0,0,1,7.121.238,6.455,6.455,0,0,1,4.769,2.326,3.844,3.844,0,0,1,.68,1.572c.091.485.172.775.718.861,2.01.317,2.835,1.936,3.3,3.55a19.742,19.742,0,0,1,.752,5.534A29.222,29.222,0,0,1,1874.106-194.6Z" transform="translate(-10.979 -5.545)" fill="#485059"/>
      <path id="Trazado_641035" data-name="Trazado 641035" d="M1912.3-172.485h-6.512c-.022.446-.053.8-.053,1.147,0,8.522.01,17.045-.021,25.567,0,.881.192,1.216,1.139,1.176,1.813-.078,3.632-.025,5.45-.026q0,1.568,0,3.136c-2.678,0-5.356-.015-8.034-.014-1.285,0-1.684-.384-1.685-1.707q0-13.986,0-27.972v-1.256c-.446-.02-.8-.049-1.149-.049-3.406,0-6.811.008-10.217-.007-1.358-.007-2-.71-1.684-1.89a1.7,1.7,0,0,1,1.874-1.22q4.96,0,9.919,0h1.257v-1.2c0-9.886.022-19.772-.026-29.658-.007-1.417.588-2.226,2.144-2.162,2.542.1,5.091.026,7.637.025v3.026h-6.515V-175.6h6.475Z" transform="translate(-18.779 -6.408)" fill="#4c5059"/>
      <path id="Trazado_641036" data-name="Trazado 641036" d="M1808.39-144.289h6.873v-28.157h-6.869q0-1.411-.007-2.824c2.017,0,4.035-.014,6.052.017.649.01.893-.246.892-.868q-.011-14.536-.015-29.07a1.656,1.656,0,0,0-.117-.37h-6.8v-3.031q4.018,0,8.035.007c1.544,0,2.043.5,2.046,2.071q.01,7.887,0,15.773v15.09c.406.021.755.054,1.1.055q5.059,0,10.118,0a1.555,1.555,0,0,1,1.693,1.176c.327,1.2-.291,1.936-1.6,1.941-3.406.011-6.812,0-10.218,0h-1.225v1.229c0,9.292-.02,18.584.023,27.875a1.685,1.685,0,0,1-1.942,1.932c-2.676-.078-5.355-.019-8.034-.017Q1808.391-142.874,1808.39-144.289Z" transform="translate(-4.741 -6.413)" fill="#4c5059"/>
      <path id="Trazado_641037" data-name="Trazado 641037" d="M1862.32-129.681l-.427,0-.342-.649-.043-.066a4.518,4.518,0,0,0-.242-.619c-.745-1.315-1.5-2.625-2.253-3.937.2-2.371.433-4.739.605-7.112.234-3.226.422-6.455.636-9.683a11.763,11.763,0,0,1,.223-2.447,2.658,2.658,0,0,0-.549-2.366,15.437,15.437,0,0,1-.9-1.874c.325-.394.657-.781.972-1.182.625-.8,1.24-1.6,1.859-2.4l.455-.036,3.136,3.819a13.073,13.073,0,0,0-.83,1.395,6.128,6.128,0,0,0-.755,2.141,34.017,34.017,0,0,0,.32,3.817c.2,2.339.408,4.677.585,7.018.222,2.933.418,5.866.625,8.8-.619,1.115-1.231,2.233-1.86,3.342C1863.143-131.032,1862.726-130.36,1862.32-129.681Z" transform="translate(-13.508 -14.473)" fill="#7ecddb"/>
      <path id="Trazado_641038" data-name="Trazado 641038" d="M1863.013-130.053c.405-.679.823-1.351,1.213-2.039.629-1.109,1.241-2.227,1.86-3.342.626-1.22,1.317-2.413,1.86-3.669.589-1.362,1.074-2.772,1.541-4.183.631-1.9,1.288-3.8,1.772-5.745a33.767,33.767,0,0,0,.953-5.4c.218-2.712.213-5.441.3-8.163l-.029-1.6,4.3,2.294c.336,1.822.662,3.645,1.017,5.464.06.307.3.58.359.886.3,1.6.125,1.9-1.393,2.682-1.172.6-1.479,1.236-1,2.107a3.642,3.642,0,0,0,.651.965,1.9,1.9,0,0,1,.3,2.45c-1.072,2.091-2.374,4.065-3.409,6.172a26.856,26.856,0,0,1-4.308,5.942,64.313,64.313,0,0,1-5.021,4.576,4.632,4.632,0,0,0-.479.6Z" transform="translate(-14.201 -14.101)" fill="#485059"/>
      <path id="Trazado_641039" data-name="Trazado 641039" d="M1856.417-135.312c.752,1.311,1.508,2.621,2.253,3.937a4.5,4.5,0,0,1,.242.619c-1.3-.069-2.1-.971-2.943-1.8-.723-.71-1.454-1.413-2.141-2.156-.591-.638-1.146-1.313-1.68-2a37.375,37.375,0,0,1-2.294-3.088c-1.23-1.975-2.39-4-3.514-6.034a5.6,5.6,0,0,1-.7-2.11,5.052,5.052,0,0,1,.417-1.8,3,3,0,0,1,.4-.667c.795-1.256.619-1.8-.669-2.454a17.487,17.487,0,0,1-1.772-1.156c.176-.839.309-1.428.422-2.022.366-1.932.724-3.867,1.086-5.8l4.33-2.3.072.591c-.077.161-.223.324-.22.484.048,2.265.082,4.53.189,6.792a39.3,39.3,0,0,0,1.375,7.965,54.428,54.428,0,0,0,3.988,10.884C1855.619-136.709,1856.029-136.016,1856.417-135.312Z" transform="translate(-10.911 -14.111)" fill="#485059"/>
      <path id="Trazado_641040" data-name="Trazado 641040" d="M1872.484-164.651q.015.8.029,1.6a2.62,2.62,0,0,0-.652.37c-1.17,1.218-2.306,2.468-3.481,3.681-.767.793-1.444.755-2.24-.057q-1.568-1.909-3.135-3.819c1.02-.533,2.026-1.093,3.061-1.595,1.646-.8,3.311-1.558,4.968-2.334Z" transform="translate(-14.199 -13.65)" fill="#f2f2f2"/>
      <path id="Trazado_641041" data-name="Trazado 641041" d="M1851.149-163.979l-.072-.591,1.438-2.046a1.832,1.832,0,0,1,.584.068c1.247.593,2.49,1.2,3.721,1.821s2.443,1.279,3.664,1.921c-.619.8-1.234,1.6-1.859,2.4-.315.4-.647.789-.972,1.182-.092.031-.222.032-.271.1a1.422,1.422,0,0,1-2.381.19,26.565,26.565,0,0,0-2.106-2.412A3.89,3.89,0,0,1,1851.149-163.979Z" transform="translate(-12.133 -13.683)" fill="#f2f2f2"/>
      <path id="Trazado_641042" data-name="Trazado 641042" d="M1860.785-163.338c-1.221-.642-2.435-1.3-3.664-1.921s-2.474-1.228-3.721-1.821a1.832,1.832,0,0,0-.584-.068q.094-1.265.187-2.53c.6.54,1.211,1.06,1.784,1.623,2.106,2.071,4.682,2.53,7.5,2.266a10.294,10.294,0,0,0,6.582-3.645,1.882,1.882,0,0,1,.4-.252q0,1.192.007,2.383c-1.657.776-3.322,1.535-4.968,2.334-1.035.5-2.041,1.062-3.061,1.595Z" transform="translate(-12.435 -13.151)" fill="#f5bd58"/>
      <path id="Trazado_641043" data-name="Trazado 641043" d="M1917.088-129.424q0-1.568,0-3.136c.01-1.807,0-3.616.048-5.422a3.364,3.364,0,0,1,.365-1q-.008,8.258-.016,16.515a3.354,3.354,0,0,1-.353-.991C1917.087-125.443,1917.1-127.434,1917.088-129.424Z" transform="translate(-23.564 -18.469)" fill="#abada8"/>
      <path id="Trazado_641044" data-name="Trazado 641044" d="M1898.07-142.381c-.116-.21-.323-.417-.332-.631-.04-1.053-.027-2.109-.033-3.164.122.231.341.457.349.692C1898.092-144.45,1898.07-143.415,1898.07-142.381Z" transform="translate(-20.208 -17.222)" fill="#9a5c4c"/>
      <path id="Trazado_641045" data-name="Trazado 641045" d="M1827.252-134.411q0,1.793.008,3.588c-.122-.128-.343-.254-.347-.386q-.045-1.4,0-2.807C1826.918-134.151,1827.134-134.28,1827.252-134.411Z" transform="translate(-7.945 -19.26)" fill="#bb6751"/>
      <path id="Trazado_641046" data-name="Trazado 641046" d="M1862.084-123.684l.342.649-.283,0Q1862.114-123.362,1862.084-123.684Z" transform="translate(-14.04 -21.117)" fill="#485059"/>
      <path id="Trazado_641047" data-name="Trazado 641047" d="M1789.948-193.759q-.01-.195-.02-.389l12.123.011a3.833,3.833,0,0,1-1.1.36C1797.283-193.749,1793.616-193.759,1789.948-193.759Z" transform="translate(-1.544 -8.915)" fill="#a5b1af"/>
      <path id="Trazado_641048" data-name="Trazado 641048" d="M1917.081-166.949v-3.115c.011-1.868,0-3.736.049-5.6a3.279,3.279,0,0,1,.368-.987q0,8.346,0,16.691a3.24,3.24,0,0,1-.369-.986C1917.085-162.949,1917.092-164.949,1917.081-166.949Z" transform="translate(-23.564 -11.944)" fill="#e7c1b7"/>
      <path id="Trazado_641049" data-name="Trazado 641049" d="M1851.118-163.427a3.89,3.89,0,0,0,1.745,2.629,26.565,26.565,0,0,1,2.106,2.412,1.422,1.422,0,0,0,2.381-.19c.049-.064.179-.065.271-.1a15.389,15.389,0,0,0,.9,1.875,2.658,2.658,0,0,1,.549,2.366,11.763,11.763,0,0,0-.223,2.447c-.213,3.228-.4,6.457-.636,9.683-.172,2.373-.4,4.742-.605,7.112-.388-.7-.8-1.4-1.158-2.114a54.428,54.428,0,0,1-3.988-10.884,39.291,39.291,0,0,1-1.375-7.965c-.107-2.261-.141-4.527-.189-6.792C1850.895-163.1,1851.041-163.266,1851.118-163.427Z" transform="translate(-12.103 -14.235)" fill="#d8d8d7"/>
      <path id="Trazado_641050" data-name="Trazado 641050" d="M1866.464-158.27c.8.812,1.473.85,2.24.057,1.175-1.213,2.311-2.463,3.481-3.681a2.62,2.62,0,0,1,.652-.37c-.09,2.722-.085,5.451-.3,8.163a33.767,33.767,0,0,1-.953,5.4c-.484,1.942-1.141,3.842-1.772,5.745-.467,1.411-.952,2.821-1.541,4.183-.542,1.257-1.234,2.449-1.86,3.669-.207-2.934-.4-5.867-.625-8.8-.177-2.341-.382-4.679-.585-7.018a34.017,34.017,0,0,1-.32-3.817,6.128,6.128,0,0,1,.755-2.141A13.073,13.073,0,0,1,1866.464-158.27Z" transform="translate(-14.523 -14.436)" fill="#d8d7d6"/>
    </g>
  </g>
</svg>
