<svg xmlns="http://www.w3.org/2000/svg" width="134" height="134" viewBox="0 0 134 134">
  <g id="Grupo_909115" data-name="Grupo 909115" transform="translate(-890.433 -10953.819)">
    <circle id="Elipse_7371" data-name="Elipse 7371" cx="67" cy="67" r="67" transform="translate(890.433 10953.819)" fill="#222b5a"/>
    <g id="Grupo_906609" data-name="Grupo 906609" transform="translate(1344.383 10780.717)">
      <path id="Trazado_640263" data-name="Trazado 640263" d="M-341.383,404.478a1.867,1.867,0,0,1-1.75.823q-40.726-.023-81.452-.013c-1.4,0-1.769-.371-1.77-1.762q0-3.732,0-7.465c0-1.127.172-1.352,1.275-1.713a1.519,1.519,0,0,1,1.229,1.767c-.035,2.178,0,4.357.008,6.536l.146.137,11.435-.013h2.731a2.408,2.408,0,0,0,.064-.363c0-3.339.008-6.679,0-10.018a1.222,1.222,0,0,0-.2-.686c-.839-1.126-1.706-2.231-2.564-3.343-.5-.693-1.03-1.366-1.491-2.084a1.135,1.135,0,0,1,.27-1.625,1.161,1.161,0,0,1,1.646.108,3.867,3.867,0,0,1,.414.516c1.682,2.226,3.372,4.446,5.04,6.682a2.527,2.527,0,0,0,2.183,1.111c3.289-.021,6.578,0,9.867-.014a3.322,3.322,0,0,0,1.056-.142,2.205,2.205,0,0,0,1.446-2.5,2.166,2.166,0,0,0-2.18-1.883c-2.653-.027-5.307-.038-7.959,0a2.233,2.233,0,0,1-2.028-1c-2-2.713-4.038-5.4-6.1-8.066a4.248,4.248,0,0,0-1.244-1.038,1.045,1.045,0,0,0-.891.071,7.934,7.934,0,0,1-8.767.119,1.124,1.124,0,0,0-.9-.048,3.2,3.2,0,0,0-1.99,3.078q-.026,4.021,0,8.043a1.377,1.377,0,0,1-1.231,1.576c-1.015-.254-1.264-.565-1.266-1.615,0-2.3.071-4.593-.02-6.885-.108-2.7.672-4.894,3.148-6.354a9.544,9.544,0,0,1-1.428-6.026c.041-1.8,0-3.595.011-5.392a5.047,5.047,0,0,1,5.323-5.3c1.8-.005,3.6-.01,5.392,0a4.988,4.988,0,0,1,5.2,5.149c.022,2.323,0,4.646.007,6.969a7.861,7.861,0,0,1-1.184,4.271c2.923,2.734,4.92,6.172,7.378,9.237a1.582,1.582,0,0,0,1.441.7c1.322-.049,2.646-.014,4.086-.014a27.867,27.867,0,0,0-.02-3.246c-.427-3.578,1.4-5.734,4.378-7.218l1.1-.547c-.909-3.447-.422-6.937-.467-10.4a4.833,4.833,0,0,1,4.832-4.89c3.207-.064,6.416-.025,9.623-.013.882,0,1.419.447,1.42,1.281q.007,5.888-.076,11.777a11.718,11.718,0,0,1-.372,2.007c.916.5,1.862.95,2.735,1.512,2.058,1.324,3.344,3.075,3.131,5.7-.106,1.311-.018,2.637-.018,4.038,1.622,0,3.164.027,4.7-.027.251-.009.541-.329.726-.572,1.828-2.394,3.619-4.815,5.462-7.2.566-.732,1.259-1.365,2-2.155-1.528-2.136-1.13-4.776-1.162-7.347-.017-1.355-.024-2.711.006-4.065a4.931,4.931,0,0,1,4.809-4.934c2.1-.072,4.205-.077,6.3,0a4.834,4.834,0,0,1,4.745,4.647,73.78,73.78,0,0,1-.04,8.206,20.306,20.306,0,0,1-1.08,3.981,5.924,5.924,0,0,1,2.463,2.91c.143.37.28.744.419,1.115v9.792l-1.153.884c-1.01-.172-1.332-.525-1.334-1.524q-.01-4,0-8.008a3.367,3.367,0,0,0-.976-2.461c-.942-.961-1.4-1-2.538-.264a8.048,8.048,0,0,1-8.2-.52,1.129,1.129,0,0,0-.971-.005,3.665,3.665,0,0,0-1.1.966c-2.05,2.674-4.1,5.352-6.089,8.067a2.3,2.3,0,0,1-2.1,1.026c-2.6-.043-5.2-.029-7.793-.008a2.236,2.236,0,0,0-2.345,2.262,2.254,2.254,0,0,0,2.42,2.274c3.205.016,6.412-.039,9.617.027a3.108,3.108,0,0,0,2.8-1.411c1.6-2.183,3.245-4.332,4.874-6.493.625-.829,1.333-1.03,1.96-.568s.658,1.215.044,2.035c-1.192,1.592-2.409,3.165-3.574,4.776a2.207,2.207,0,0,0-.412,1.189c-.033,3.15-.02,6.3-.016,9.451,0,.236.03.472.046.7h14.344c0-2.31,0-4.56,0-6.81,0-1.036.262-1.339,1.292-1.565l1.2.788Zm-75.185-27.13a5.215,5.215,0,0,0,5.122-4.005,29.3,29.3,0,0,0,.3-4.3l-2.767-.533a3.779,3.779,0,0,0-.466.785,5.913,5.913,0,0,1-5.814,4.625c-.5.008-1,0-1.507,0A5.274,5.274,0,0,0-416.569,377.348Zm35.35-11.736h2.542v-3.391h-2.547c-1.789-.01-3.579-.027-5.369-.03-2.169,0-3.215,1.235-2.87,3.4a1.233,1.233,0,0,0,.229.041Q-385.226,365.626-381.219,365.612Zm32.016-3.375c-1.625-.016-3.251-.072-4.874-.034a2.427,2.427,0,0,0-2.32,1.8,11.4,11.4,0,0,0-.12,1.8c-.041.544.245.739.7.576a18.453,18.453,0,0,0,2.475-1.027,1.267,1.267,0,0,1,2,.978c.056.492.1.987.178,1.475.33,1.991,1.277,3.154,2.8,3.467.707.009,1.414.01,2.12.028.55.014.694-.267.687-.777-.022-1.684-.008-3.368-.008-5.053C-345.56,363-346.731,361.955-349.2,362.237Zm-32.013,5.919h-8.308c0,1.493-.066,2.9.014,4.3a5.362,5.362,0,0,0,5.8,4.858,5.13,5.13,0,0,0,4.726-3.537c.7-1.817.294-3.736.355-5.624Zm17.741,34.615h2.664V395.6h-2.672c-.22-.015-.44-.043-.66-.043q-21.029,0-42.058,0c-.24,0-.479.027-.709.041v7.2h.716q21.029,0,42.058,0C-363.915,402.8-363.695,402.783-363.474,402.772Zm-9.767-16.846a35.883,35.883,0,0,1,.025-3.784,3.773,3.773,0,0,0-2.2-3.9c-.593-.347-1.223-.631-1.826-.962a.877.877,0,0,0-1.209.219,7.727,7.727,0,0,1-6.876,2.267,8.035,8.035,0,0,1-4.781-2.631,8.892,8.892,0,0,0-3.621,2.247,2.522,2.522,0,0,0-.725,1.343c-.085,1.73-.034,3.467-.034,5.272a4.833,4.833,0,0,1,4.435,2.149,4.976,4.976,0,0,1,.306,4.884h11.708A4.993,4.993,0,0,1-373.241,385.925Zm-37.987-19.571c0-.509,0-.948,0-1.386a2.549,2.549,0,0,0-2.789-2.771c-1.8-.009-3.593-.016-5.39-.006a2.544,2.544,0,0,0-2.739,2.592c-.047,1.961-.021,3.925,0,5.887,0,.2.159.537.3.568,1.734.387,3.9.367,4.789-1.934.344-.886.394-1.881.669-2.8a2.121,2.121,0,0,1,.757-1.232,1.7,1.7,0,0,1,1.332.242A4.775,4.775,0,0,0-411.228,366.354Zm54.717,2.656c0,1.006-.024,2.051.005,3.094a5.436,5.436,0,0,0,4.027,5.088,5.339,5.339,0,0,0,6.42-3.342c-4.144.48-6.618-1.417-7.529-5.341Z" transform="translate(0 -128.713)" fill="#040303"/>
      <path id="Trazado_640264" data-name="Trazado 640264" d="M-377.455,226.977a1.377,1.377,0,0,1-1.553,1.165c-2.074-.02-4.148-.006-6.221-.007-3.622,0-5.5-1.327-6.723-4.8h-.786c-5.253,0-10.507.009-15.76-.013a1.642,1.642,0,0,0-1.294.551c-1.585,1.621-3.2,3.208-4.8,4.823a1.43,1.43,0,0,1-1.687.526c-.649-.284-.763-.869-.754-1.523.02-1.463.006-2.926.006-4.4a15.516,15.516,0,0,1-1.657-.552,7.282,7.282,0,0,1-4.613-6.794c-.1-4.754-.077-9.512-.01-14.267a7.475,7.475,0,0,1,7.447-7.375q13.728-.062,27.457,0a7.553,7.553,0,0,1,7.512,7.585c.018.715,0,1.431,0,2.266h.91q9.954,0,19.908,0a5.951,5.951,0,0,1,6.17,4.809,7.742,7.742,0,0,1,.116,1.565c.01,3.456-.1,6.916.034,10.368.125,3.367-1.059,5.921-4.757,7.172,0,1.445-.006,2.907,0,4.369,0,.67-.08,1.3-.792,1.584s-1.2-.1-1.673-.578c-1.614-1.632-3.23-3.262-4.88-4.856a1.719,1.719,0,0,0-1.059-.444c-1.99-.042-3.981-.013-5.972-.024a1.346,1.346,0,0,1-1.492-1.16c.282-1.1.564-1.328,1.651-1.33,2.185,0,4.37.019,6.555-.013a2.036,2.036,0,0,1,1.607.683c.978,1.016,1.987,2,2.989,3,.14.139.309.25.571.458,0-1.04-.011-1.923,0-2.806a1.22,1.22,0,0,1,1.2-1.318c2.4-.283,3.518-1.531,3.519-3.95q0-5.559,0-11.119c0-2.524-1.375-3.915-3.875-3.917q-10-.007-20,0c-.235,0-.47.031-.74.05,0,2.995.016,5.923,0,8.852a7.565,7.565,0,0,1-6.417,7.688,18.184,18.184,0,0,1-1.875.135,3.2,3.2,0,0,0,3.218,2.253c2.3.018,4.591,0,6.887.007C-377.985,225.644-377.652,225.923-377.455,226.977Zm-37.075-1.85c1.281-1.293,2.409-2.4,3.491-3.541a2.309,2.309,0,0,1,1.83-.758q10.247.032,20.495.01a5.059,5.059,0,0,0,5.33-5.3q.025-6.721,0-13.442a5.1,5.1,0,0,0-5.344-5.308q-13.4-.017-26.8,0a5.088,5.088,0,0,0-5.3,5.343q-.013,6.68,0,13.359a5.066,5.066,0,0,0,4.948,5.348,1.272,1.272,0,0,1,1.353,1.432C-414.519,223.143-414.53,224.019-414.53,225.127Z" transform="translate(-2.352)" fill="#040303"/>
      <path id="Trazado_640265" data-name="Trazado 640265" d="M-257.472,270.4c-.2-1.054-.53-1.333-1.621-1.335-2.3,0-4.591.011-6.887-.007a3.2,3.2,0,0,1-3.218-2.253,18.192,18.192,0,0,0,1.875-.135,7.565,7.565,0,0,0,6.417-7.688c.02-2.929,0-5.857,0-8.852.27-.019.505-.05.74-.05q10,0,20,0c2.5,0,3.873,1.394,3.875,3.917q0,5.559,0,11.119c0,2.419-1.116,3.667-3.519,3.95a1.22,1.22,0,0,0-1.2,1.318c-.015.883,0,1.766,0,2.806-.262-.208-.431-.319-.571-.458-1-.993-2.01-1.98-2.989-3a2.036,2.036,0,0,0-1.607-.683c-2.185.032-4.37.01-6.555.013-1.087,0-1.369.234-1.651,1.33Z" transform="translate(-122.336 -43.425)" fill="#e9f1fc"/>
      <path id="Trazado_640266" data-name="Trazado 640266" d="M-407.711,468.42l-11.435.013-.146-.137c-.007-2.179-.043-4.358-.008-6.536a1.519,1.519,0,0,0-1.229-1.767q0-1.537-.008-3.075a1.377,1.377,0,0,0,1.231-1.576q-.031-4.021,0-8.043a3.2,3.2,0,0,1,1.99-3.078,1.124,1.124,0,0,1,.9.048,7.934,7.934,0,0,0,8.767-.119,1.045,1.045,0,0,1,.891-.071,4.246,4.246,0,0,1,1.244,1.038c2.057,2.67,4.1,5.353,6.1,8.066a2.233,2.233,0,0,0,2.028,1c2.653-.039,5.306-.028,7.959,0a2.166,2.166,0,0,1,2.18,1.883,2.205,2.205,0,0,1-1.446,2.5,3.323,3.323,0,0,1-1.056.142c-3.289.01-6.578-.007-9.867.014a2.527,2.527,0,0,1-2.183-1.111c-1.668-2.236-3.358-4.457-5.04-6.682a3.88,3.88,0,0,0-.414-.516,1.161,1.161,0,0,0-1.646-.108,1.135,1.135,0,0,0-.27,1.625c.461.718.991,1.391,1.491,2.084Q-407.7,461.216-407.711,468.42Z" transform="translate(-4.55 -194.359)" fill="#fd6877"/>
      <path id="Trazado_640267" data-name="Trazado 640267" d="M-169.742,468.425H-181.26c-.016-.232-.046-.468-.046-.7,0-3.15-.017-6.3.016-9.451a2.207,2.207,0,0,1,.412-1.189c1.165-1.611,2.382-3.184,3.574-4.776.614-.82.591-1.567-.044-2.035s-1.335-.26-1.96.568c-1.629,2.161-3.274,4.311-4.874,6.493a3.108,3.108,0,0,1-2.8,1.411c-3.2-.067-6.411-.012-9.617-.027a2.254,2.254,0,0,1-2.42-2.274,2.236,2.236,0,0,1,2.345-2.262c2.6-.021,5.2-.035,7.793.008a2.3,2.3,0,0,0,2.1-1.027c1.994-2.715,4.039-5.394,6.089-8.067a3.665,3.665,0,0,1,1.1-.966,1.129,1.129,0,0,1,.971.005,8.048,8.048,0,0,0,8.2.52,9.2,9.2,0,0,1,.662,2.351C-169.716,454.143-169.74,461.284-169.742,468.425Z" transform="translate(-176.958 -194.367)" fill="#cbf29e"/>
      <path id="Trazado_640268" data-name="Trazado 640268" d="M-295.112,528.775c-.221.011-.441.031-.662.031q-21.029,0-42.058,0h-.716v-7.2c.23-.014.47-.041.709-.041q21.029,0,42.058,0c.22,0,.44.028.66.043Q-295.116,525.19-295.112,528.775Z" transform="translate(-68.362 -254.717)" fill="#cf8f7f"/>
      <path id="Trazado_640269" data-name="Trazado 640269" d="M-261.335,447.227a4.993,4.993,0,0,0-4.8,7.1h-11.708a4.976,4.976,0,0,0-.306-4.884,4.833,4.833,0,0,0-4.435-2.149c0-1.805-.051-3.542.034-5.272a2.522,2.522,0,0,1,.725-1.343,8.892,8.892,0,0,1,3.621-2.247,8.035,8.035,0,0,0,4.781,2.631,7.727,7.727,0,0,0,6.876-2.267.877.877,0,0,1,1.209-.219c.6.331,1.233.615,1.826.962a3.773,3.773,0,0,1,2.2,3.9A35.891,35.891,0,0,0-261.335,447.227Z" transform="translate(-111.906 -190.015)" fill="#e9f1fc"/>
      <path id="Trazado_640270" data-name="Trazado 640270" d="M-69.385,468.85c0-7.141.026-14.281-.024-21.422a9.2,9.2,0,0,0-.662-2.351c1.138-.74,1.6-.7,2.538.264a3.367,3.367,0,0,1,.976,2.461q-.008,4,0,8.008c0,1,.324,1.352,1.334,1.524l-.043,3.141c-1.03.225-1.289.529-1.292,1.565-.006,2.25,0,4.5,0,6.81Z" transform="translate(-277.314 -194.793)" fill="#b1e29c"/>
      <path id="Trazado_640271" data-name="Trazado 640271" d="M-254.407,407.133a5.362,5.362,0,0,1-5.8-4.858c-.08-1.4-.014-2.81-.014-4.3h8.308c0,1.186-.036,2.373.013,3.556a6.147,6.147,0,0,1-.864,3.467A21.8,21.8,0,0,1-254.407,407.133Z" transform="translate(-129.303 -158.529)" fill="#fecabd"/>
      <path id="Trazado_640272" data-name="Trazado 640272" d="M-396.444,375.211a4.776,4.776,0,0,1-3.07-.839,1.7,1.7,0,0,0-1.332-.242,2.121,2.121,0,0,0-.757,1.232c-.275.918-.326,1.913-.669,2.8-.893,2.3-3.055,2.321-4.789,1.934-.139-.031-.3-.37-.3-.568-.022-1.962-.047-3.926,0-5.887a2.544,2.544,0,0,1,2.739-2.592c1.8-.01,3.593,0,5.39.006a2.548,2.548,0,0,1,2.789,2.771C-396.44,374.263-396.444,374.7-396.444,375.211Z" transform="translate(-14.784 -137.57)" fill="#c38985"/>
      <path id="Trazado_640273" data-name="Trazado 640273" d="M-111.263,400.062l2.923-.5c.91,3.924,3.385,5.821,7.529,5.341a5.339,5.339,0,0,1-6.42,3.342,5.436,5.436,0,0,1-4.027-5.088C-111.288,402.113-111.263,401.068-111.263,400.062Z" transform="translate(-245.247 -159.766)" fill="#c38985"/>
      <path id="Trazado_640274" data-name="Trazado 640274" d="M-103.11,380.147c-1.525-.314-2.472-1.477-2.8-3.467-.081-.488-.123-.983-.178-1.475a1.267,1.267,0,0,0-2-.978,18.454,18.454,0,0,1-2.475,1.027c-.457.163-.743-.032-.7-.576a11.4,11.4,0,0,1,.12-1.8,2.427,2.427,0,0,1,2.32-1.8c1.623-.038,3.249.018,4.874.034a6.107,6.107,0,0,1,.865,3.684C-103.153,376.576-103.108,378.363-103.11,380.147Z" transform="translate(-245.248 -137.586)" fill="#46799c"/>
      <path id="Trazado_640275" data-name="Trazado 640275" d="M-362.687,503.53q.012-7.2.023-14.41c.858,1.112,1.725,2.217,2.564,3.343a1.222,1.222,0,0,1,.2.686q.018,5.009,0,10.018a2.411,2.411,0,0,1-.064.363Z" transform="translate(-49.574 -229.468)" fill="#cb4350"/>
      <path id="Trazado_640276" data-name="Trazado 640276" d="M-251.837,374.488q-4.007.012-8.014.021a1.23,1.23,0,0,1-.229-.041c-.345-2.166.7-3.4,2.87-3.4,1.79,0,3.579.019,5.369.03Q-251.839,372.792-251.837,374.488Z" transform="translate(-129.382 -137.589)" fill="#fde39e"/>
      <path id="Trazado_640277" data-name="Trazado 640277" d="M-400.118,408.393a5.273,5.273,0,0,1-5.129-3.43c.5,0,1.005.007,1.507,0a5.913,5.913,0,0,0,5.814-4.625,3.777,3.777,0,0,1,.466-.785c0,.965.02,1.931,0,2.9a6.418,6.418,0,0,1-.846,3.556C-398.864,406.833-399.512,407.6-400.118,408.393Z" transform="translate(-16.45 -159.759)" fill="#fecabd"/>
      <path id="Trazado_640278" data-name="Trazado 640278" d="M-77.422,380.153c0-1.785-.043-3.571.02-5.354a6.107,6.107,0,0,0-.865-3.684c2.471-.282,3.643.758,3.644,3.236,0,1.685-.014,3.369.008,5.053.007.51-.137.791-.687.777C-76.008,380.163-76.715,380.161-77.422,380.153Z" transform="translate(-270.935 -137.591)" fill="#345b79"/>
      <path id="Trazado_640279" data-name="Trazado 640279" d="M-233.911,407.133A21.8,21.8,0,0,0-232.267,405a6.147,6.147,0,0,0,.864-3.467c-.049-1.184-.012-2.371-.013-3.556h2.586c-.061,1.888.344,3.808-.355,5.624A5.129,5.129,0,0,1-233.911,407.133Z" transform="translate(-149.799 -158.529)" fill="#f3bbac"/>
      <path id="Trazado_640280" data-name="Trazado 640280" d="M-382.115,408.394c.607-.794,1.255-1.561,1.81-2.39a6.418,6.418,0,0,0,.846-3.556c.022-.965,0-1.931,0-2.9l2.767.533a29.314,29.314,0,0,1-.3,4.3A5.215,5.215,0,0,1-382.115,408.394Z" transform="translate(-34.454 -159.759)" fill="#f3bbac"/>
      <path id="Trazado_640281" data-name="Trazado 640281" d="M-142.667,528.93q0-3.585-.008-7.17H-140v7.17Z" transform="translate(-220.807 -254.872)" fill="#ae6550"/>
      <path id="Trazado_640282" data-name="Trazado 640282" d="M-222.69,374.592q0-1.7,0-3.391h2.547v3.391Z" transform="translate(-158.529 -137.693)" fill="#e3c279"/>
      <path id="Trazado_640283" data-name="Trazado 640283" d="M-414.923,553.556l.146.137Z" transform="translate(-8.919 -279.618)" fill="#cb4350"/>
      <path id="Trazado_640284" data-name="Trazado 640284" d="M-405.677,233.88c0-1.109.011-1.984,0-2.858a1.272,1.272,0,0,0-1.353-1.432,5.066,5.066,0,0,1-4.948-5.348q-.011-6.679,0-13.359a5.088,5.088,0,0,1,5.3-5.343q13.4-.021,26.8,0a5.1,5.1,0,0,1,5.344,5.308q.028,6.721,0,13.442a5.059,5.059,0,0,1-5.33,5.3q-10.247.011-20.495-.01a2.309,2.309,0,0,0-1.83.758C-403.268,231.485-404.4,232.587-405.677,233.88Zm12.418-24.076h-3.232c-2.735,0-5.47-.008-8.2.006a1.216,1.216,0,0,0-1.32,1.185,1.256,1.256,0,0,0,1.245,1.285c.192.019.386.007.58.007q10.939,0,21.879,0a3.316,3.316,0,0,0,.978-.1,1.177,1.177,0,0,0,.745-1.592,1.3,1.3,0,0,0-1.4-.789C-385.745,209.81-389.5,209.8-393.259,209.8Zm.017,9.007q5.677,0,11.354,0a1.26,1.26,0,0,0,1.4-1.2,1.291,1.291,0,0,0-1.343-1.281c-.165-.011-.331,0-.5,0q-10.939,0-21.879,0a3.715,3.715,0,0,0-.824.048,1.211,1.211,0,0,0-.888,1.659,1.321,1.321,0,0,0,1.406.788C-400.756,218.806-397,218.812-393.242,218.812Zm-5.772,4.077c-1.823,0-3.646-.006-5.47,0-.981,0-1.533.461-1.532,1.234s.56,1.253,1.528,1.255q5.47.014,10.939,0c.982,0,1.52-.467,1.521-1.253s-.523-1.232-1.517-1.237C-395.368,222.883-397.191,222.889-399.014,222.889Z" transform="translate(-11.205 -8.753)" fill="#e9f1fc"/>
      <path id="Trazado_640285" data-name="Trazado 640285" d="M-372.3,224.79c3.757,0,7.514.005,11.271-.005a1.3,1.3,0,0,1,1.4.789,1.177,1.177,0,0,1-.745,1.592,3.315,3.315,0,0,1-.978.1q-10.94.008-21.879,0c-.193,0-.388.012-.58-.007a1.256,1.256,0,0,1-1.245-1.285,1.216,1.216,0,0,1,1.32-1.185c2.735-.013,5.47-.005,8.2-.006Z" transform="translate(-32.163 -23.739)" fill="#060707"/>
      <path id="Trazado_640286" data-name="Trazado 640286" d="M-372.286,256.685c-3.757,0-7.514-.006-11.271.006a1.321,1.321,0,0,1-1.406-.788,1.211,1.211,0,0,1,.888-1.659,3.715,3.715,0,0,1,.824-.048q10.94,0,21.879,0c.166,0,.332-.007.5,0a1.291,1.291,0,0,1,1.343,1.281,1.26,1.26,0,0,1-1.4,1.2Q-366.609,256.693-372.286,256.685Z" transform="translate(-32.161 -46.626)" fill="#040303"/>
      <path id="Trazado_640287" data-name="Trazado 640287" d="M-378.056,283.817c1.823,0,3.646-.006,5.47,0,.994.005,1.519.446,1.517,1.237s-.539,1.25-1.521,1.253q-5.47.014-10.939,0c-.968,0-1.528-.484-1.528-1.255s.551-1.229,1.532-1.234C-381.7,283.811-379.879,283.817-378.056,283.817Z" transform="translate(-32.163 -69.682)" fill="#060707"/>
    </g>
  </g>
</svg>
