<svg xmlns="http://www.w3.org/2000/svg" width="109" height="109" viewBox="0 0 109 109">
  <g id="Grupo_909137" data-name="Grupo 909137" transform="translate(-312 -9788)">
    <circle id="Elipse_7494" data-name="Elipse 7494" cx="54.5" cy="54.5" r="54.5" transform="translate(312 9788)" fill="#222b5a"/>
    <path id="Trazado_641266" data-name="Trazado 641266" d="M262.678,1169.875a7.859,7.859,0,0,1-2.92-1.15,6.547,6.547,0,0,1-2.9-5.415c0-.158,0-.317-.011-.475a.532.532,0,0,0-.047-.126H255.9l-.867,1.928a2.876,2.876,0,0,1-2.076,4.8c-4.951.015-9.9.057-14.854-.007a7.228,7.228,0,0,1-.792-14.355c.119-.017.237-.044.35-.065a3.352,3.352,0,0,1,.788-2.586,2.855,2.855,0,0,1-.324-3.553c.78-1.267,2.05-1.415,3.452-1.307v-.79q0-12.845-.006-25.69a5.058,5.058,0,0,1,2.435-4.627,4.487,4.487,0,0,1,2.4-.7q9.356-.013,18.713,0a4.8,4.8,0,0,1,3.547,1.633q2.3,2.44,4.612,4.878a5.1,5.1,0,0,1,1.437,3.637q0,3.436,0,6.872v.651c.275,0,.514-.007.752,0a34.2,34.2,0,0,1,4.579.209,6.441,6.441,0,0,1,5.164,5.981c.014.229.021.458.021.687q0,11.365,0,22.73a6.639,6.639,0,0,1-4.795,6.583c-.317.092-.637.172-.955.257Zm10.264-36.448v-8.476c-2.02,0-3.956,0-5.892,0-.87,0-1.125-.256-1.127-1.137q0-2.88,0-5.76v-.613h-.636q-9.2,0-18.39,0a3.3,3.3,0,0,0-3.605,3.612q0,12.947,0,25.895c0,.187.018.374.029.607h.619c2.995,0,5.989-.007,8.984,0a2.8,2.8,0,0,1,2.8,2.387,2.9,2.9,0,0,1-.738,2.476,3,3,0,0,1,.006,4.068c1.064,1.438,1.064,2.376,0,4.048.474.8,1.209.311,1.87.448v-.712q0-9.988.007-19.976a7.741,7.741,0,0,1,.168-1.728,6.627,6.627,0,0,1,6.578-5.14c2.906-.02,5.813,0,8.72,0Zm10.7,18.267q0-5.627,0-11.255a6.9,6.9,0,0,0-.089-1.314,5.01,5.01,0,0,0-5.161-4.09q-7.318-.011-14.637,0a5.028,5.028,0,0,0-5.3,5.3q0,11.335,0,22.669a5.8,5.8,0,0,0,.053.947,5.015,5.015,0,0,0,5.122,4.328c4.879.01,9.759-.046,14.637.021a5.2,5.2,0,0,0,5.4-5.407C283.58,1159.164,283.642,1155.428,283.642,1151.694Zm-42.293,16.164a5.649,5.649,0,1,0-5.619-5.673A5.64,5.64,0,0,0,241.35,1167.858Zm5.36-18.607q-2.983,0-5.967,0c-.837,0-1.349.434-1.363,1.136-.015.724.514,1.2,1.362,1.2q5.967,0,11.933,0c.857,0,1.4-.459,1.4-1.168s-.534-1.163-1.4-1.164Q249.693,1149.248,246.709,1149.251Zm.036,4.029c-2.025,0-4.051,0-6.076,0a1.18,1.18,0,0,0-1.293,1.165c0,.343.076.556.506.541a9.426,9.426,0,0,1,4.4.6.515.515,0,0,0,.208.026c2.818,0,5.636.006,8.454-.008a1.121,1.121,0,0,0,1.118-1.058,1.187,1.187,0,0,0-1.3-1.264C250.761,1153.275,248.753,1153.281,246.746,1153.28Zm-.522,14.457c2.246,0,4.51.019,6.772-.012a1.156,1.156,0,0,0-.111-2.308c-1.565-.017-3.13-.013-4.695,0a.612.612,0,0,0-.423.21C247.247,1166.308,246.753,1167.007,246.224,1167.737Zm.625-10.423c0,.068-.019.127,0,.162.4.656.8,1.317,1.221,1.958a.572.572,0,0,0,.411.21q2.161.022,4.322,0a1.166,1.166,0,0,0,1.268-1.128,1.186,1.186,0,0,0-1.26-1.2C250.829,1157.3,248.845,1157.315,246.849,1157.315Zm1.674,6.384c1.509,0,2.967.023,4.424-.01a1.155,1.155,0,0,0-.019-2.31c-1.354-.034-2.709-.016-4.063-.016a1.081,1.081,0,0,0-.234.05C248.6,1162.172,248.561,1162.9,248.523,1163.7Zm23.355-40.444-4.222-4.458v4.458h4.222Zm-37.436,41.192c-.23-1.432-.3-1.493-1.456-1.23C232.977,1164.384,233.2,1164.58,234.442,1164.447Zm-1.554-2.959c1.263.191,1.513-.023,1.4-1.172C233.009,1160.236,233.126,1160.074,232.887,1161.487Zm3.3-4.343-.1-.14-2.07,1.587c.746.191,1.153.074,1.432-.489A5.937,5.937,0,0,1,236.183,1157.145Zm-.1,10.247.1-.107a6.031,6.031,0,0,1-.65-.816c-.262-.472-.621-.438-1.206-.3Z" transform="translate(105.759 8698.553)" fill="#fff"/>
    <path id="Trazado_641267" data-name="Trazado 641267" d="M356.635,1242.312a14.94,14.94,0,0,1,1.5.5.7.7,0,0,1,.423,1.027c-.21.427-.523.51-1.06.251a2.99,2.99,0,0,0-2.052-.249,1.066,1.066,0,0,0-.914.9,1.125,1.125,0,0,0,.587,1.3c.533.267,1.1.469,1.65.7a2.936,2.936,0,0,1,2.034,2.17c.325,1.741-.293,3.263-1.928,3.727-.117.033-.2.259-.258.411-.083.225-.056.549-.207.677a.935.935,0,0,1-.774.233,1.062,1.062,0,0,1-.52-.742c-.031-.414-.192-.527-.545-.666a6.184,6.184,0,0,1-1.4-.805.875.875,0,0,1-.327-.673,1.181,1.181,0,0,1,.453-.74c.123-.086.522.044.665.2a2.332,2.332,0,0,0,2.134.784,1.321,1.321,0,0,0,1.258-.953,1.637,1.637,0,0,0-.544-1.856,8.78,8.78,0,0,0-1.222-.609c-.382-.177-.782-.319-1.157-.509a2.435,2.435,0,0,1-1.383-2.566,2.343,2.343,0,0,1,1.678-2.206.447.447,0,0,0,.359-.536c-.012-.155-.032-.364.052-.46a1.563,1.563,0,0,1,.685-.545.626.626,0,0,1,.733.535A5.478,5.478,0,0,1,356.635,1242.312Z" transform="translate(1.335 8590.946)" fill="#fff"/>
    <path id="Trazado_641268" data-name="Trazado 641268" d="M395.8,1220.864q3.17,0,6.34,0a2.967,2.967,0,0,1,.578.035.777.777,0,0,1,.011,1.526,2.6,2.6,0,0,1-.525.035q-6.445,0-12.891,0c-.053,0-.106,0-.158,0-.615-.017-.983-.313-.987-.793s.364-.8.976-.8c2.043-.008,4.086,0,6.129,0Z" transform="translate(-29.007 8608.281)" fill="#fff"/>
    <path id="Trazado_641269" data-name="Trazado 641269" d="M355.515,1192.858h6.756a2,2,0,0,1,.473.022.752.752,0,0,1,.635.793.744.744,0,0,1-.672.759,3.012,3.012,0,0,1-.527.016h-13.3c-.158,0-.318.008-.475-.007a.765.765,0,0,1-.743-.752.789.789,0,0,1,.728-.823,3.443,3.443,0,0,1,.422-.007Z" transform="translate(5.784 8632.332)" fill="#fff"/>
    <path id="Trazado_641270" data-name="Trazado 641270" d="M349.729,1222.434c-.4,0-.81.013-1.214,0a.817.817,0,0,1-.869-.8.8.8,0,0,1,.829-.782c.826-.022,1.654-.024,2.481,0a.756.756,0,0,1,.8.794.782.782,0,0,1-.817.788c-.035,0-.07,0-.105,0Z" transform="translate(5.795 8608.309)" fill="#fff"/>
    <path id="Trazado_641271" data-name="Trazado 641271" d="M472.1,1194.407c-.334,0-.67.017-1,0a.786.786,0,0,1,0-1.572c.686-.024,1.374-.024,2.06,0a.773.773,0,0,1,.763.787.793.793,0,0,1-.762.789c-.035,0-.07,0-.106,0H472.1Z" transform="translate(-99.557 8632.369)" fill="#fff"/>
    <path id="Trazado_641272" data-name="Trazado 641272" d="M451.144,1265.106q3.594,0,7.189,0a2.705,2.705,0,0,1,2.984,2.978c0,.81.009,1.621,0,2.431a2.7,2.7,0,0,1-2.9,2.861q-4.1.006-8.193,0a1.731,1.731,0,0,1-.569-.073.65.65,0,0,1-.479-.822,1.58,1.58,0,0,1,.635-.662c.136-.091.377-.032.571-.032q3.964,0,7.929,0c1.031,0,1.4-.369,1.4-1.4,0-.793.008-1.586,0-2.379-.01-.916-.379-1.3-1.279-1.3q-7.321-.008-14.642,0c-.881,0-1.258.388-1.263,1.256q-.008,1.269,0,2.537c0,.888.4,1.278,1.3,1.286.828.007,1.656,0,2.484,0,.616.005.979.308.976.792s-.368.792-.982.8c-.9.007-1.8.018-2.7,0a2.653,2.653,0,0,1-2.673-2.695c-.014-.916-.008-1.833,0-2.749a2.638,2.638,0,0,1,2.806-2.821C446.21,1265.094,448.677,1265.107,451.144,1265.106Z" transform="translate(-74.314 8570.29)" fill="#fff"/>
    <path id="Trazado_641273" data-name="Trazado 641273" d="M548.933,1390.3c0,1.338.007,2.677,0,4.015a2.293,2.293,0,0,1-2.487,2.455c-.44,0-.881.014-1.321,0a2.273,2.273,0,0,1-2.24-2.279q-.025-4.226,0-8.453a2.013,2.013,0,0,1,1.861-2.069,13.717,13.717,0,0,1,2.267-.01,2,2,0,0,1,1.914,2.067c.022,1.426.005,2.853.005,4.279Zm-1.6-.015c0-1.354-.01-2.709.005-4.063.005-.5-.205-.708-.695-.694-.51.014-1.02.009-1.53,0-.435-.005-.65.193-.65.635,0,2.726,0,5.453,0,8.179,0,.574.264.816.855.832.352.009.7,0,1.055,0,.733-.007.952-.217.954-.935C547.341,1392.926,547.338,1391.607,547.338,1390.287Z" transform="translate(-161.857 8468.259)" fill="#fff"/>
    <path id="Trazado_641274" data-name="Trazado 641274" d="M491.615,1386.974c0-.476-.023-.953,0-1.427a1.591,1.591,0,0,1,1.53-1.592,26.194,26.194,0,0,1,2.957,0,1.6,1.6,0,0,1,1.562,1.674c.022.9.025,1.8,0,2.7a1.655,1.655,0,0,1-1.645,1.663c-.933.03-1.868.033-2.8,0a1.632,1.632,0,0,1-1.6-1.589C491.591,1387.927,491.616,1387.45,491.615,1386.974Zm4.431,1.4v-2.8h-2.8v2.8Z" transform="translate(-117.832 8468.258)" fill="#fff"/>
    <path id="Trazado_641275" data-name="Trazado 641275" d="M497.6,1434.9c0,.457.014.915,0,1.371a1.676,1.676,0,0,1-1.683,1.677c-.9.022-1.793.02-2.689,0a1.633,1.633,0,0,1-1.676-1.617c-.036-.93-.038-1.864,0-2.794a1.6,1.6,0,0,1,1.644-1.641c.912-.036,1.829-.036,2.741,0a1.656,1.656,0,0,1,1.668,1.739C497.608,1434.06,497.6,1434.483,497.6,1434.9Zm-4.464-1.378c0,.869-.011,1.709.015,2.548,0,.1.208.275.324.279.739.025,1.479.022,2.218,0,.107,0,.3-.16.3-.25.023-.854.014-1.71.014-2.577Z" transform="translate(-117.757 8427.073)" fill="#fff"/>
    <path id="Trazado_641276" data-name="Trazado 641276" d="M446.979,1386.94c0,.439.007.879,0,1.318a1.656,1.656,0,0,1-1.642,1.708c-.913.031-1.828.027-2.742,0a1.643,1.643,0,0,1-1.658-1.688q-.021-1.344,0-2.689a1.6,1.6,0,0,1,1.558-1.667,27.657,27.657,0,0,1,2.9,0,1.621,1.621,0,0,1,1.586,1.7C446.986,1386.061,446.979,1386.5,446.979,1386.94Zm-1.626,1.407v-2.8h-2.8v2.8Z" transform="translate(-74.309 8468.284)" fill="#fff"/>
    <path id="Trazado_641277" data-name="Trazado 641277" d="M446.967,1434.953c0,.439.009.879,0,1.318a1.649,1.649,0,0,1-1.6,1.692c-.948.035-1.9.035-2.847,0a1.629,1.629,0,0,1-1.59-1.644q-.026-1.371,0-2.742a1.587,1.587,0,0,1,1.571-1.651c.964-.046,1.934-.046,2.9,0a1.6,1.6,0,0,1,1.571,1.655C446.977,1434.039,446.967,1434.5,446.967,1434.953Zm-4.427,1.428c.879,0,1.7.008,2.526-.01.1,0,.282-.138.284-.215.02-.871.013-1.743.013-2.612H442.54Z" transform="translate(-74.298 8427.058)" fill="#fff"/>
    <path id="Trazado_641278" data-name="Trazado 641278" d="M494.6,1339.58c-.476,0-.952.019-1.427,0a1.568,1.568,0,0,1-1.57-1.486c-.049-1.019-.049-2.044,0-3.063a1.587,1.587,0,0,1,1.576-1.489c.951-.027,1.9-.029,2.854,0a1.637,1.637,0,0,1,1.6,1.6c.035.932.032,1.868,0,2.8a1.634,1.634,0,0,1-1.657,1.64c-.457.02-.916,0-1.374,0Zm-1.389-4.427v2.8H496v-2.8Z" transform="translate(-117.799 8511.538)" fill="#fff"/>
    <path id="Trazado_641279" data-name="Trazado 641279" d="M548.9,1336.543c0,.475.016.952,0,1.427a1.6,1.6,0,0,1-1.568,1.6c-.968.032-1.938.032-2.906,0a1.617,1.617,0,0,1-1.567-1.614c-.023-.933-.024-1.868,0-2.8a1.648,1.648,0,0,1,1.629-1.62q1.4-.036,2.8,0a1.637,1.637,0,0,1,1.611,1.629C548.914,1335.627,548.9,1336.085,548.9,1336.543Zm-1.615-1.372h-2.814v2.787h2.814Z" transform="translate(-161.826 8511.534)" fill="#fff"/>
    <path id="Trazado_641280" data-name="Trazado 641280" d="M446.97,1336.589c0,.458.012.917,0,1.374a1.611,1.611,0,0,1-1.567,1.611c-.968.033-1.939.033-2.906,0a1.591,1.591,0,0,1-1.563-1.608q-.029-1.4,0-2.8a1.634,1.634,0,0,1,1.613-1.625q1.4-.037,2.8,0a1.653,1.653,0,0,1,1.624,1.675C446.98,1335.673,446.971,1336.131,446.97,1336.589Zm-1.618-1.427h-2.794v2.8h2.794Z" transform="translate(-74.301 8511.534)" fill="#fff"/>
    <path id="Trazado_641281" data-name="Trazado 641281" d="M289.689,1423.424c-.332-.291-.662-.448-.753-.693-.115-.311-.315-.4-.556-.548a2.576,2.576,0,0,1-.777-.68.745.745,0,0,1,.2-1.076c.346-.272.663-.163,1,.1a1.7,1.7,0,0,0,.831.363c.18.018.524-.192.549-.34a.9.9,0,0,0-.232-.725,3.348,3.348,0,0,0-.948-.44,1.969,1.969,0,0,1-.364-3.616.5.5,0,0,0,.207-.315.785.785,0,0,1,.738-.709.817.817,0,0,1,.851.575.974.974,0,0,0,.37.344c.16.1.359.151.513.263a.723.723,0,0,1,.267,1.013.748.748,0,0,1-.989.354,3.861,3.861,0,0,0-.966-.185c-.133-.007-.388.16-.388.25a.617.617,0,0,0,.249.455,5.6,5.6,0,0,0,.866.383,2.248,2.248,0,0,1,.318,4.075c-.112.057-.153.241-.247.349C290.212,1422.867,289.987,1423.1,289.689,1423.424Z" transform="translate(57.486 8441.785)" fill="#fff"/>
  </g>
</svg>
