<svg xmlns="http://www.w3.org/2000/svg" width="134" height="134" viewBox="0 0 134 134">
  <g id="Grupo_909114" data-name="Grupo 909114" transform="translate(-575.433 -10953.819)">
    <circle id="Elipse_7370" data-name="Elipse 7370" cx="67" cy="67" r="67" transform="translate(575.433 10953.819)" fill="#222b5a"/>
    <g id="Grupo_906608" data-name="Grupo 906608" transform="translate(20 13.244)">
      <g id="Grupo_906607" data-name="Grupo 906607" transform="translate(578.473 10960.575)">
        <path id="Trazado_640247" data-name="Trazado 640247" d="M273.149,409.978c0-20.5,0-40.542.008-60.588,0-1.249-.245-2.673.255-3.712,1.118-2.328,2.611-4.277,5.765-4.212,6.471.134,12.949.082,19.421-.052a8.137,8.137,0,0,0,3.968-1.2c3.787-2.382,6.476-2.367,10.28,0a8.728,8.728,0,0,0,4.216,1.2c5.427.135,10.88.36,16.284-.021,6.97-.491,9.329,2.539,9.336,9.674q.018,19.116,0,38.233c0,10.969.04,21.937-.024,32.9-.022,3.83-1.249,7.1-5.322,8.384a12.238,12.238,0,0,1-3.616.5q-26,.045-52,.016c-5.1,0-7.662-1.469-8.5-6.453-.582-3.469-2.757-4.816-5.058-6.49-.656-.478-1.591-.9-1.83-1.559-.678-1.859-1.064-3.826-1.565-5.751,1.55-.292,3.089-.661,4.651-.848A33.724,33.724,0,0,1,273.149,409.978Zm46.646-56.558-1.47-1.035-4.277-.875c-.377-7.215-2.024-9.816-6.063-9.884-4.589-.077-5.6,1.381-6.249,8.969l-7.044,2.971.355,1.123c3.312,0,6.626.007,9.938,0,4.694-.013,9.388-.02,14.081-.074C320.154,354.6,320.153,354.515,319.795,353.42Zm15.426,64.009c-2.579,2.218-5.679,2.6-8.918,2.6q-23.484-.024-46.969.005c-1.649,0-3.461-.208-3.5,2.389-.043,3.071,1.211,5.108,3.661,5.108q27.865.006,55.73-.095c2.934.467,3.977-1,3.94-3.731-.051-3.863-.01-7.727-.01-11.59q0-31.482-.023-62.963a28.011,28.011,0,0,0-.5-3.745l-1.218.122c-.059,1.174-.168,2.349-.169,3.523-.01,20.256-.036,40.514.026,60.77C337.283,412.6,337.09,415.209,335.22,417.429Zm-4.951-73.205H316.107c.764,2.114-.6,4.674,2.525,5.383,4.468,1.014,5.695,2.837,5.14,7.634-.951.084-1.963.249-2.977.252q-12.987.031-25.974.007c-3.677-.008-4.72-1.755-2.794-4.877.659-1.068,1.851-2.617,2.751-2.585,4.256.148,3.726-3.229,4.82-5.693H280.986v3.939c0,18.365.03,36.73-.06,55.095-.007,1.392-.866,2.78-1.33,4.169-.609-1.425-1.74-2.847-1.749-4.276-.12-18.065-.079-36.132-.079-54.2V344.9c-2.13,2.658-3,58.34-1.522,65h47.524c.538,5.147,1.8,6.518,5.865,6.919,3.406-.471,4.976-2.539,4.98-6.825q.034-31.6,0-63.194c0-.809-.131-1.618-.213-2.575Zm-9.1,68.6h-53.2c.843,3.271,2.844,4.183,5.732,4.174,15.535-.052,31.069-.021,46.6-.033.77,0,1.542-.133,2.461-.218Z" transform="translate(-264.765 -338.436)" fill="#191c1f"/>
        <path id="Trazado_640248" data-name="Trazado 640248" d="M334.953,418.895c-4.062-.4-5.327-1.773-5.865-6.919H284.9l.017-2.352c.464-1.389,1.323-2.777,1.33-4.169.091-18.365.06-36.73.06-55.095v-3.939h18.613c-1.093,2.464-.564,5.84-4.82,5.693-.9-.032-2.093,1.517-2.751,2.585-1.926,3.122-.883,4.869,2.794,4.877q12.987.028,25.974-.007c1.013,0,2.026-.168,2.977-.252.555-4.8-.672-6.62-5.14-7.634-3.122-.709-1.761-3.269-2.525-5.383h14.162a33.856,33.856,0,0,1,.624,4.6c.044,18.59.1,37.18-.029,55.768C336.153,410.745,335.383,414.819,334.953,418.895Zm-21.81-28.586q3.916,0,7.832,0a5.209,5.209,0,0,0,.625-.021c3.276-.4,5.537-3.369,4.257-5.808-2.884-5.5-5.812-10.972-8.9-16.354-2.3-4.013-5.693-3.859-7.852.189-2.648,4.968-5.237,9.969-7.941,14.908-2.009,3.668-.374,6.857,3.837,7.063C307.708,390.419,310.429,390.311,313.143,390.309Zm21.346,9.364c-1.62-.98-2.416-1.878-3.218-1.884q-18.3-.126-36.609.024c-.629.005-1.251,1.039-1.876,1.594A18.116,18.116,0,0,0,294.6,401.2c.27.206.809.071,1.225.071,11.578,0,23.156.033,34.733-.053C331.591,401.206,332.615,400.435,334.49,399.673Zm-21.618-3.91c5.838,0,11.678.072,17.513-.071.979-.024,1.935-.976,2.9-1.5-1.01-.611-1.969-1.613-3.04-1.751a51.517,51.517,0,0,0-6.558-.086c-9.174,0-18.35-.063-27.522.083-1.113.018-2.208,1.171-3.311,1.8,1.042.509,2.074,1.43,3.129,1.458C301.61,395.841,307.241,395.764,312.871,395.763Zm.016,10.651c5.939,0,11.88.063,17.816-.066.91-.02,1.8-.926,2.7-1.422-.846-.54-1.687-1.544-2.536-1.551q-17.816-.156-35.633,0c-.82.007-1.632,1.024-2.448,1.571.865.491,1.723,1.387,2.6,1.406C301.217,406.477,307.053,406.417,312.887,406.415Z" transform="translate(-270.083 -340.513)" fill="#fefefe"/>
        <path id="Trazado_640249" data-name="Trazado 640249" d="M339.2,455.789q-27.865.059-55.73.095c-2.45,0-3.7-2.037-3.661-5.108.037-2.6,1.849-2.387,3.5-2.389q23.485-.03,46.969-.005c3.239,0,6.339-.378,8.919-2.6.428.7,1.272,1.448,1.21,2.106C340.155,450.538,339.625,453.158,339.2,455.789Z" transform="translate(-268.738 -366.792)" fill="#465890"/>
        <path id="Trazado_640250" data-name="Trazado 640250" d="M352.922,418.895c.43-4.076,1.2-8.149,1.229-12.228.133-18.588.074-37.178.029-55.768a33.856,33.856,0,0,0-.624-4.6h4.135c.082.957.213,1.766.213,2.575q.017,31.6,0,63.194C357.9,416.356,356.328,418.424,352.922,418.895Z" transform="translate(-288.052 -340.513)" fill="#d2e2e8"/>
        <path id="Trazado_640251" data-name="Trazado 640251" d="M322.32,439.523l1.591,3.923c-.919.085-1.69.217-2.461.218-15.535.012-31.069-.019-46.6.033-2.887.01-4.889-.9-5.732-4.174Z" transform="translate(-265.914 -365.138)" fill="#92bec8"/>
        <path id="Trazado_640252" data-name="Trazado 640252" d="M360.517,429.934c.426-2.631.956-5.251,1.205-7.9.062-.658-.782-1.4-1.21-2.106,1.87-2.219,2.063-4.827,2.054-7.61-.062-20.256-.036-40.514-.026-60.77,0-1.174.11-2.349.169-3.523l1.218-.122a28.005,28.005,0,0,1,.5,3.745q.046,31.481.023,62.963c0,3.863-.04,7.727.01,11.59C364.494,428.934,363.451,430.4,360.517,429.934Z" transform="translate(-290.057 -340.937)" fill="#313d62"/>
        <path id="Trazado_640253" data-name="Trazado 640253" d="M283.453,409.867l-.017,2.352H280.1c-1.478-6.658-.609-62.34,1.522-65v4.173c0,18.066-.041,36.132.079,54.2C281.714,407.02,282.844,408.441,283.453,409.867Z" transform="translate(-268.622 -340.756)" fill="#3f4e80"/>
        <path id="Trazado_640254" data-name="Trazado 640254" d="M330.538,354.564c.358,1.095.359,1.18-.729,1.193-4.693.054-9.387.061-14.081.074-3.312.009-6.626,0-9.938,0l-.355-1.123,7.044-2.971c.652-7.587,1.66-9.045,6.249-8.969,4.04.068,5.686,2.669,6.063,9.884l4.277.875Zm-12.669-.614,1.511-.062c1.057-1.634,2.5-3.147,3.057-4.937.489-1.578-3.027-4.887-4.433-4.162-1.6.828-3.745,2.837-3.648,4.189C314.481,350.712,316.606,352.3,317.868,353.951Z" transform="translate(-275.508 -339.58)" fill="#94c1cb"/>
        <path id="Trazado_640255" data-name="Trazado 640255" d="M339.021,358.428l-1.469-1.035Z" transform="translate(-283.992 -343.443)" fill="#70909b"/>
        <path id="Trazado_640256" data-name="Trazado 640256" d="M318.676,397.093c-2.715,0-5.435.109-8.143-.024-4.211-.206-5.846-3.4-3.837-7.063,2.7-4.938,5.292-9.939,7.941-14.908,2.158-4.048,5.547-4.2,7.852-.189,3.09,5.381,6.018,10.858,8.9,16.354,1.28,2.439-.981,5.409-4.257,5.808a5.215,5.215,0,0,1-.625.021Zm9.448-3.306a12.222,12.222,0,0,0-.552-3.088c-2.381-4.665-4.792-9.32-7.369-13.877-.59-1.044-1.779-2.4-2.978-.207-2.646,4.826-5.413,9.587-7.988,14.448-.661,1.249-.629,2.713,1.466,2.719C316.314,393.8,321.926,393.787,328.123,393.787Z" transform="translate(-275.615 -347.296)" fill="#393839"/>
        <path id="Trazado_640257" data-name="Trazado 640257" d="M337.322,418.135c-1.875.762-2.9,1.533-3.927,1.541-11.577.086-23.155.055-34.733.053-.417,0-.955.135-1.225-.071a18.117,18.117,0,0,1-1.818-1.788c.625-.555,1.247-1.589,1.876-1.594q18.3-.151,36.609-.024C334.906,416.257,335.7,417.155,337.322,418.135Z" transform="translate(-272.915 -358.976)" fill="#393839"/>
        <path id="Trazado_640258" data-name="Trazado 640258" d="M315.728,412.274c-5.63,0-11.261.077-16.888-.068-1.055-.028-2.087-.948-3.129-1.458,1.1-.626,2.2-1.779,3.311-1.8,9.172-.146,18.348-.083,27.521-.083a51.523,51.523,0,0,1,6.558.086c1.071.138,2.03,1.14,3.04,1.751-.966.523-1.922,1.475-2.9,1.5C327.406,412.345,321.566,412.273,315.728,412.274Z" transform="translate(-272.939 -357.023)" fill="#191c1f"/>
        <path id="Trazado_640259" data-name="Trazado 640259" d="M315.719,426.876c-5.835,0-11.671.062-17.5-.065-.876-.018-1.733-.915-2.6-1.405.816-.547,1.628-1.564,2.448-1.571q17.816-.153,35.633,0c.85.007,1.691,1.011,2.536,1.551-.9.5-1.79,1.4-2.7,1.422C327.6,426.938,321.658,426.875,315.719,426.876Z" transform="translate(-272.915 -360.974)" fill="#393839"/>
        <path id="Trazado_640260" data-name="Trazado 640260" d="M321.07,354.64c-1.263-1.65-3.387-3.239-3.512-4.972-.1-1.351,2.043-3.361,3.648-4.188,1.405-.726,4.922,2.584,4.433,4.162-.556,1.79-2,3.3-3.057,4.937Z" transform="translate(-278.709 -340.269)" fill="#191c1f"/>
        <path id="Trazado_640261" data-name="Trazado 640261" d="M329.205,395.029c-6.2,0-11.81.01-17.421-.006-2.095-.006-2.127-1.47-1.466-2.719,2.576-4.862,5.342-9.623,7.988-14.448,1.2-2.188,2.388-.837,2.978.207,2.577,4.558,4.988,9.212,7.369,13.877A12.223,12.223,0,0,1,329.205,395.029Zm-9.492-13.551c-2.415,2.369-1.26,4.792-1.079,7.307C321.678,387.128,321.981,385.079,319.713,381.478Z" transform="translate(-276.697 -348.539)" fill="#ea964c"/>
        <path id="Trazado_640262" data-name="Trazado 640262" d="M322.679,383.2c2.268,3.6,1.965,5.65-1.079,7.307C321.419,387.992,320.264,385.569,322.679,383.2Z" transform="translate(-279.663 -350.26)" fill="#191c1f"/>
      </g>
    </g>
  </g>
</svg>
