<svg xmlns="http://www.w3.org/2000/svg" width="134" height="134" viewBox="0 0 134 134">
  <g id="Grupo_909116" data-name="Grupo 909116" transform="translate(-1205.433 -10953.819)">
    <circle id="Elipse_7372" data-name="Elipse 7372" cx="67" cy="67" r="67" transform="translate(1205.433 10953.819)" fill="#222b5a"/>
    <g id="Grupo_906610" data-name="Grupo 906610" transform="translate(1780.019 10808.399)">
      <path id="Trazado_640288" data-name="Trazado 640288" d="M-552,240.912a14.8,14.8,0,0,1,1.377-1.192c2.523-1.709,5.067-3.386,7.6-5.077.241-.161.47-.341.733-.534-.412-.8-.8-1.552-1.191-2.31-.543-1.063-.482-1.467.419-2.34a31.5,31.5,0,0,1,7.074-5.013c.206-.111.406-.233.608-.35-.823-2.142-1.68-4.241-2.441-6.374a84.959,84.959,0,0,1-3.958-16.87,1.471,1.471,0,0,1,1.16-1.729,1.534,1.534,0,0,1,1.518,1.548c.059.558.177,1.11.262,1.666a73.655,73.655,0,0,0,7.348,23.413,49.369,49.369,0,0,0,17.531,19.315c1.895,1.19,3.96,2.11,5.947,3.154.7.293,1.269.923,2.195.527a47.772,47.772,0,0,0,21.858-18.472c5.95-9.245,8.9-19.525,10.326-30.307a95.5,95.5,0,0,0,.738-17.189c-.04-.825-.122-1.339-1.121-1.311a11.667,11.667,0,0,1-1.931-.257,72.573,72.573,0,0,1-29.91-12.265.779.779,0,0,0-1.081-.009,71.651,71.651,0,0,1-31.936,12.535c-.865.121-1.053.419-1.036,1.208.087,3.966.109,7.932.2,11.9a1.637,1.637,0,0,1-1.212,1.89c-1.154-.264-1.448-.568-1.467-1.745-.069-4.231-.152-8.462-.15-12.694,0-2.694.169-2.8,2.81-3.141a68.989,68.989,0,0,0,31.5-12.308c1.84-1.3,1.826-1.3,3.651,0a68.906,68.906,0,0,0,27.809,11.743c1.6.3,3.22.495,4.833.721,1.092.153,1.461.493,1.559,1.567a85.658,85.658,0,0,1-.081,14.816,85.774,85.774,0,0,1-3.185,17.96c-.992,3.27-2.272,6.453-3.427,9.674-.118.329-.268.646-.363.874,1.958,1.3,3.87,2.532,5.726,3.838a22.31,22.31,0,0,1,2.2,1.937,1.452,1.452,0,0,1,.285,1.93c-.432.8-.85,1.612-1.307,2.481.76.513,1.49,1.008,2.223,1.5,2.043,1.366,4.1,2.717,6.125,4.1a15.3,15.3,0,0,1,1.378,1.193v.889a12.245,12.245,0,0,1-1.417,1.1c-1.979,1.127-3.972,2.23-5.987,3.291a1.226,1.226,0,0,0-.786,1.278c.047,2.309.022,4.62.016,6.93,0,1.71-.93,2.234-2.416,1.36q-7.04-4.138-14.072-8.288c-1.089-.642-1.237-1.167-.68-2.343.53-1.118,1.062-2.235,1.6-3.366a4.2,4.2,0,0,0-.419-.247c-.868-.375-1.756-.71-2.6-1.127a1.093,1.093,0,0,0-1.45.313,49.468,49.468,0,0,1-16.541,10.8,2.329,2.329,0,0,1-1.6.026c-1.718-.713-3.418-1.486-5.065-2.348a49.167,49.167,0,0,1-11.708-8.586,1.1,1.1,0,0,0-.874-.329c-1.16.415-2.286.926-3.484,1.428.587,1.228,1.138,2.369,1.679,3.514.505,1.069.347,1.627-.65,2.216q-7.108,4.2-14.222,8.384c-1.378.81-2.33.265-2.336-1.323-.008-2.31-.025-4.621.013-6.93a1.275,1.275,0,0,0-.782-1.372c-2.026-1.039-4.012-2.157-5.991-3.283A12.224,12.224,0,0,1-552,241.8Zm75.385-13.161-1.8-1.152-7.728,11.494,1.517.551,6.687,3.838,6.085-11.609Zm-59.712.016-4.61,3.14,6.074,11.573,6.687-3.835,1.666-.629c-1.437-1.947-2.856-3.732-4.12-5.619s-2.368-3.872-3.584-5.882Zm-4.819,24.737,9.627-5.682c-1.271-.221-2.285-.442-3.31-.561a2.026,2.026,0,0,1-1.721-1.2c-1.043-2.06-2.123-4.1-3.2-6.146-.408-.777-.84-1.541-1.3-2.386l-7.032,4.7c2.03,1.121,3.874,2.18,5.759,3.161a1.937,1.937,0,0,1,1.19,1.967C-541.178,248.339-541.146,250.322-541.146,252.5Zm69.386-15.974c-.205.37-.366.648-.515.931-1.323,2.515-2.66,5.023-3.954,7.553a2.086,2.086,0,0,1-1.781,1.251c-1.015.111-2.016.341-3.268.563l9.622,5.672c0-2.025.061-3.883-.022-5.736a2.218,2.218,0,0,1,1.464-2.518,14.6,14.6,0,0,0,1.718-.931l3.768-2.094Zm-60.129,7.287.1.251,1.884.273c-.366-.519-.594-1.1-.809-1.091C-531.11,243.26-531.5,243.61-531.889,243.818Zm50.87.252.1-.251c-.39-.209-.777-.559-1.172-.569-.213-.006-.44.573-.8,1.092Z" transform="translate(0 0)" fill="#040301"/>
      <path id="Trazado_640289" data-name="Trazado 640289" d="M-469.328,259.116c-1.987-1.044-4.052-1.964-5.947-3.154a49.37,49.37,0,0,1-17.531-19.315,73.657,73.657,0,0,1-7.348-23.413c-.085-.556-.2-1.107-.262-1.666a1.534,1.534,0,0,0-1.518-1.548q-.152-1.329-.3-2.658a1.637,1.637,0,0,0,1.212-1.89c-.091-3.966-.113-7.932-.2-11.9-.017-.788.171-1.087,1.036-1.208a71.651,71.651,0,0,0,31.936-12.535.779.779,0,0,1,1.081.009,72.572,72.572,0,0,0,29.91,12.265c-.057,2.6-.044,5.2-.189,7.8-.15,2.671-.328,5.351-.719,7.994-.558,3.777-1.142,7.568-2.038,11.275a72.4,72.4,0,0,1-6.079,16.4,59.825,59.825,0,0,1-9.523,13.484,45.549,45.549,0,0,1-8.138,6.811C-465.7,257.02-467.532,258.037-469.328,259.116ZM-481.785,241.5c-.695.987-.672,1.413.146,2.246a38.141,38.141,0,0,0,13.162,8.73,2.124,2.124,0,0,0,1.44.021,37.963,37.963,0,0,0,16.01-11.892c6.3-8.011,9.287-17.33,10.6-27.287a1.4,1.4,0,0,0-1.108-1.742q.09-1.372.18-2.745c1.125-.17,1.458-.474,1.465-1.608.017-2.93-.005-5.861-.041-8.791-.015-1.222-.4-1.608-1.641-1.761a52.874,52.874,0,0,1-24.97-9.744c-1.014-.734-1.308-.668-2.389.012-2.4,1.512-4.772,3.1-7.285,4.411a50.609,50.609,0,0,1-17.861,5.343,1.4,1.4,0,0,0-1.417,1.518,74.11,74.11,0,0,0,2.339,24.375,51.192,51.192,0,0,0,7.346,16.152c.719,1.029,1.137,1.171,2.234.774Z" transform="translate(-38.683 -10.898)" fill="#f2b83c"/>
      <path id="Trazado_640290" data-name="Trazado 640290" d="M-354.428,302.716c1.8-1.079,3.632-2.1,5.378-3.25a45.548,45.548,0,0,0,8.138-6.811,59.823,59.823,0,0,0,9.523-13.484,72.4,72.4,0,0,0,6.079-16.4c.9-3.707,1.48-7.5,2.038-11.275.391-2.643.569-5.324.719-7.994.145-2.594.133-5.2.189-7.8a11.669,11.669,0,0,0,1.931.257c1-.027,1.081.487,1.121,1.311a95.5,95.5,0,0,1-.738,17.189c-1.423,10.781-4.376,21.062-10.326,30.307a47.772,47.772,0,0,1-21.858,18.472C-353.159,303.639-353.727,303.01-354.428,302.716Z" transform="translate(-153.583 -54.498)" fill="#ec9225"/>
      <path id="Trazado_640291" data-name="Trazado 640291" d="M-527.46,500.147c0-2.182-.033-4.166.014-6.148a1.937,1.937,0,0,0-1.19-1.967c-1.885-.981-3.729-2.04-5.759-3.161l7.032-4.7c.462.845.894,1.61,1.3,2.386,1.074,2.044,2.154,4.086,3.2,6.146a2.026,2.026,0,0,0,1.721,1.2c1.026.119,2.039.34,3.31.561Z" transform="translate(-13.685 -247.642)" fill="#b12425"/>
      <path id="Trazado_640292" data-name="Trazado 640292" d="M-224.836,484.175l7.033,4.693-3.768,2.094a14.6,14.6,0,0,1-1.718.931,2.218,2.218,0,0,0-1.464,2.518c.083,1.852.022,3.711.022,5.736l-9.622-5.672c1.252-.222,2.254-.452,3.268-.563a2.087,2.087,0,0,0,1.781-1.251c1.294-2.53,2.631-5.038,3.954-7.553C-225.2,484.823-225.042,484.545-224.836,484.175Z" transform="translate(-246.923 -247.644)" fill="#b12425"/>
      <path id="Trazado_640293" data-name="Trazado 640293" d="M-489.551,455.694l-6.687,3.835-6.074-11.573,4.61-3.14c1.755,2.607,3.455,5.253,5.29,7.8A32.094,32.094,0,0,0-489.551,455.694Z" transform="translate(-38.625 -217.048)" fill="#e63133"/>
      <path id="Trazado_640294" data-name="Trazado 640294" d="M-241.38,444.744l4.762,3.123-6.085,11.609-6.686-3.838a4.228,4.228,0,0,0,.636-.464,51.791,51.791,0,0,0,6.581-8.766A17.227,17.227,0,0,0-241.38,444.744Z" transform="translate(-235.235 -216.993)" fill="#e63133"/>
      <path id="Trazado_640295" data-name="Trazado 640295" d="M-473.456,451.323a32.094,32.094,0,0,1-2.86-3.076c-1.835-2.549-3.535-5.2-5.29-7.8l2.112-1.252c1.216,2.01,2.323,4,3.584,5.882s2.682,3.672,4.12,5.619Z" transform="translate(-54.721 -212.677)" fill="#b12425"/>
      <path id="Trazado_640296" data-name="Trazado 640296" d="M-246.677,440.723a17.216,17.216,0,0,1-.792,1.664,51.792,51.792,0,0,1-6.581,8.766,4.229,4.229,0,0,1-.636.464l-1.517-.551,7.728-11.494Z" transform="translate(-229.938 -212.971)" fill="#b12425"/>
      <path id="Trazado_640297" data-name="Trazado 640297" d="M-461.672,514.928c.391-.208.778-.558,1.173-.566.215,0,.442.572.809,1.091l-1.884-.273Z" transform="translate(-70.217 -271.11)" fill="#7f1b20"/>
      <path id="Trazado_640298" data-name="Trazado 640298" d="M-239.742,515.174l-1.876.272c.364-.519.591-1.1.8-1.092.4.01.782.36,1.172.569Z" transform="translate(-241.276 -271.104)" fill="#7f1b20"/>
      <path id="Trazado_640299" data-name="Trazado 640299" d="M-409.157,243.139q-.09,1.372-.18,2.745c-1.131.159-1.416.471-1.591,1.749a58.9,58.9,0,0,1-4.8,17.18c-4.055,8.657-10.248,15.2-19.086,19.094a1.944,1.944,0,0,1-1.394,0,34.771,34.771,0,0,1-11.174-7.588,1.676,1.676,0,0,0-2.2-.516l-1.8-1.985c.724-.781.522-1.513-.036-2.306a47.971,47.971,0,0,1-6.581-13.977,71.348,71.348,0,0,1-2.8-18.908c-.04-1.678-.006-3.359-.006-5.054a56.412,56.412,0,0,0,25.286-9.828,56.255,56.255,0,0,0,25.171,9.816c0,2.6.015,5.141-.007,7.682C-410.355,242.39-410.152,242.767-409.157,243.139ZM-439,254.658c-1.553-1.563-2.9-2.947-4.275-4.292a4.7,4.7,0,0,0-5.395-1.042,4.644,4.644,0,0,0-1.175,7.66c2.305,2.35,4.652,4.659,6.983,6.984,2.459,2.453,5.079,2.456,7.533.008q7.149-7.133,14.293-14.271a8.2,8.2,0,0,0,.885-.995,4.45,4.45,0,0,0,.442-4.779c-1.445-3.014-5.187-3.539-7.682-1.076-3.672,3.626-7.312,7.285-10.958,10.936A8.21,8.21,0,0,0-439,254.658Z" transform="translate(-70.887 -45.201)" fill="#fdd956"/>
      <path id="Trazado_640300" data-name="Trazado 640300" d="M-418.444,232.528c-1-.372-1.2-.749-1.189-1.891.021-2.542.007-5.084.007-7.682a56.254,56.254,0,0,1-25.171-9.816,56.412,56.412,0,0,1-25.286,9.828c0,1.7-.034,3.375.006,5.054a71.347,71.347,0,0,0,2.8,18.908,47.969,47.969,0,0,0,6.581,13.977c.557.793.76,1.525.036,2.306-1.1.4-1.515.255-2.234-.774a51.191,51.191,0,0,1-7.346-16.152,74.11,74.11,0,0,1-2.339-24.375,1.4,1.4,0,0,1,1.417-1.518,50.61,50.61,0,0,0,17.861-5.343c2.513-1.309,4.882-2.9,7.285-4.411,1.082-.681,1.376-.747,2.389-.012a52.874,52.874,0,0,0,24.97,9.744c1.242.153,1.627.539,1.641,1.761.036,2.93.057,5.861.041,8.791C-416.986,232.054-417.319,232.358-418.444,232.528Z" transform="translate(-61.6 -34.591)" fill="#040301"/>
      <path id="Trazado_640301" data-name="Trazado 640301" d="M-412.112,353.088a1.676,1.676,0,0,1,2.2.516,34.771,34.771,0,0,0,11.174,7.588,1.944,1.944,0,0,0,1.394,0c8.837-3.891,15.03-10.437,19.086-19.094a58.9,58.9,0,0,0,4.8-17.18c.175-1.278.46-1.591,1.591-1.749a1.4,1.4,0,0,1,1.108,1.742c-1.309,9.956-4.3,19.275-10.6,27.287a37.963,37.963,0,0,1-16.01,11.892,2.124,2.124,0,0,1-1.44-.021,38.141,38.141,0,0,1-13.162-8.73C-412.784,354.5-412.807,354.075-412.112,353.088Z" transform="translate(-108.356 -122.482)" fill="#040301"/>
      <path id="Trazado_640302" data-name="Trazado 640302" d="M-405.992,315.924a8.214,8.214,0,0,1,.651-.866c3.647-3.652,7.286-7.311,10.958-10.936,2.494-2.463,6.236-1.938,7.682,1.076a4.45,4.45,0,0,1-.442,4.779,8.211,8.211,0,0,1-.885.995q-7.142,7.14-14.293,14.271c-2.454,2.448-5.074,2.445-7.533-.008-2.331-2.325-4.678-4.634-6.983-6.984a4.644,4.644,0,0,1,1.175-7.66,4.7,4.7,0,0,1,5.395,1.042C-408.887,312.978-407.545,314.362-405.992,315.924Zm17.217-8.574a2.344,2.344,0,0,0-1.153-1.849,1.755,1.755,0,0,0-1.939.032,5.938,5.938,0,0,0-.951.793q-5.988,5.963-11.967,11.936c-.976.973-1.61.978-2.573.022-1.579-1.566-3.137-3.154-4.729-4.706a2.061,2.061,0,0,0-3.01-.154,2.015,2.015,0,0,0,.2,3q3.571,3.6,7.18,7.162a2.054,2.054,0,0,0,3.268,0q7.415-7.366,14.789-14.775A7.115,7.115,0,0,0-388.775,307.35Z" transform="translate(-103.893 -106.468)" fill="#010201"/>
      <path id="Trazado_640303" data-name="Trazado 640303" d="M-379.44,316.645a7.116,7.116,0,0,1-.884,1.464q-7.368,7.413-14.789,14.775a2.054,2.054,0,0,1-3.268,0q-3.612-3.559-7.18-7.162a2.015,2.015,0,0,1-.2-3,2.061,2.061,0,0,1,3.01.154c1.592,1.553,3.15,3.141,4.729,4.706.964.955,1.6.951,2.573-.022q5.986-5.966,11.967-11.936a5.94,5.94,0,0,1,.951-.793,1.755,1.755,0,0,1,1.939-.032A2.343,2.343,0,0,1-379.44,316.645Z" transform="translate(-113.228 -115.762)" fill="#00b46a"/>
    </g>
  </g>
</svg>
