<svg xmlns="http://www.w3.org/2000/svg" width="134" height="134" viewBox="0 0 134 134">
  <g id="Grupo_909113" data-name="Grupo 909113" transform="translate(-260.433 -10953.819)">
    <circle id="Elipse_7369" data-name="Elipse 7369" cx="67" cy="67" r="67" transform="translate(260.433 10953.819)" fill="#222b5a"/>
    <g id="Grupo_906611" data-name="Grupo 906611" transform="translate(792 10832.464)">
      <path id="Trazado_640304" data-name="Trazado 640304" d="M-506.962,214.383a1.61,1.61,0,0,1-.878-1.988c1.646-9.017,3.272-18.038,4.955-27.049a2.329,2.329,0,0,1,.991-1.431c5.789-3.282,11.614-6.5,17.425-9.747a1.684,1.684,0,0,1,1.757,0c.9.49,1.818.95,2.927,1.527-.468-1.016-.867-1.838-1.228-2.677a22.7,22.7,0,0,1-2.078-10.915,17.837,17.837,0,0,1,8.527-14.343,18.486,18.486,0,0,1,27.076,8.188,18.881,18.881,0,0,1,.633,13.656c-.6,1.961-1.436,3.848-2.208,5.882a17.406,17.406,0,0,0,1.837-.969,2.676,2.676,0,0,1,3.173.037c5.449,3.106,10.943,6.134,16.434,9.167a2.277,2.277,0,0,1,1.327,1.825c.162,1.255.413,2.5.68,3.739a1.6,1.6,0,0,1-.935,2.025c-1.168-.131-1.482-.408-1.7-1.538-.195-1.013-.37-2.029-.555-3.043a2.4,2.4,0,0,0-2.144-1.551c-3.729.817-7.451,1.663-11.339,2.535l17.035,19.788a.932.932,0,0,0,.121-.633q-.992-5.479-1.993-10.956c-.214-1.167-.072-1.487.974-2.063a1.571,1.571,0,0,1,1.634,1.507c1.323,7.4,2.678,14.789,4.02,22.183.379,2.088.731,4.181,1.135,6.264a1.586,1.586,0,0,1-.419,1.767c-.613.485-1.212.239-1.822-.035q-10.1-4.543-20.205-9.089a1.69,1.69,0,0,0-1.561-.021c-6.675,3.019-13.37,6-20.041,9.024a2.648,2.648,0,0,1-2.415.015c-6.67-3.029-13.364-6.008-20.039-9.027a1.693,1.693,0,0,0-1.562-.007q-10.05,4.553-20.125,9.052c-1.256.564-1.6.495-2.452-.467v-1.418c.291-1.32.586-2.638.868-3.96.086-.4.14-.805.2-1.209a1.477,1.477,0,0,1,1.583-1.42c1.056.516,1.242.905,1.019,2.126-.182,1-.359,1.992-.547,3.031a1.861,1.861,0,0,0,.3-.052c6.045-2.708,12.092-5.411,18.122-8.153a1.282,1.282,0,0,0,.573-.919c.375-4.381.709-8.766,1.046-13.15.1-1.3.178-2.6.274-4.023-.445.231-.729.376-1.012.526-5.13,2.709-10.255,5.43-15.4,8.115a1.638,1.638,0,0,0-.982,1.309c-.392,2.355-.836,4.7-1.26,7.051C-505.42,214.056-505.762,214.353-506.962,214.383Zm35.08-28.024.038.06-.05-.05c-1.293-1.567-2.643-3.091-3.858-4.715a7.3,7.3,0,0,0-2.8-2.329c-1.265-.594-2.494-1.267-3.873-1.975-.2,2.614-.381,5.058-.568,7.543,2.292.328,4.472.655,6.658.947C-474.856,186.038-473.367,186.187-471.881,186.359Zm10.091-38.614a14.189,14.189,0,0,0-7.835.543,16.131,16.131,0,0,0-10.182,20.107,31.985,31.985,0,0,0,6.225,11.7c2.4,2.892,5.122,5.524,7.7,8.271l1.342,1.253A60.946,60.946,0,0,0-453.4,177.2a27.832,27.832,0,0,0,4.469-10.4c1.109-6.216-.608-11.495-5.422-15.647A13.983,13.983,0,0,0-461.79,147.745Zm-1.481,56.884c0,2.451-.027,4.9.024,7.352a2.146,2.146,0,0,0,.534,1.3c1.769,1.9,3.606,3.742,5.384,5.636a1,1,0,0,0,1.358.266c3.671-1.682,7.35-3.347,11.055-4.955a1.213,1.213,0,0,0,.854-1.453c-.431-5.116-.814-10.236-1.247-15.352a1.489,1.489,0,0,0-.545-.9c-1.865-1.5-3.773-2.939-5.634-4.439a1.192,1.192,0,0,0-1.423-.209q-4.846,2.158-9.727,4.24a.9.9,0,0,0-.645.986C-463.256,199.608-463.271,202.118-463.271,204.629Zm-2.919,15.079.227-.048c0-1.7.042-3.4-.022-5.091a3.616,3.616,0,0,0-.491-1.72q-5.574-8.875-11.219-17.706a1.508,1.508,0,0,1-.183-1.8,1.542,1.542,0,0,1,1.658-.556q2.5.323,5,.628c1.717.206,3.436.4,5.206.6.119-1.246.24-2.366-1.025-3.073-.4-.226-.7-.642-1.082-.907a2.569,2.569,0,0,0-1.011-.452c-3.586-.537-7.176-1.047-10.766-1.558-1.091-.155-2.185-.291-3.312-.439-.135,1.71-.3,3.294-.362,4.882a2.492,2.492,0,0,0,.376,1.381q5.753,8.815,11.559,17.6Zm-19.054-5.908,16.993,7.622-15.73-23.9C-484.416,203.115-484.829,208.444-485.245,213.8Zm-16.434-20.279a2.925,2.925,0,0,0,.428-.133q7.549-3.971,15.087-7.965a1.086,1.086,0,0,0,.463-.735c.144-1.2.229-2.406.323-3.611.085-1.1.153-2.2.238-3.439-.419.219-.7.359-.979.513-4.121,2.291-8.21,4.643-12.379,6.842a3.6,3.6,0,0,0-2.249,3.093C-500.921,189.888-501.349,191.665-501.679,193.522ZM-425.9,220.6l.153-.225-16.411-19.8a5.716,5.716,0,0,0-.076,1.695c.274,3.528.574,7.054.814,10.584a1.248,1.248,0,0,0,.856,1.24c4.661,2.065,9.306,4.168,13.957,6.256C-426.384,220.455-426.14,220.519-425.9,220.6Zm2.8-1.226.221-.08c-.307-1.678-.593-3.36-.931-5.032a3.672,3.672,0,0,0-.559-1.625q-9.025-10.57-18.122-21.08a5.623,5.623,0,0,0-.636-.531c.116,1.372.167,2.572.34,3.753a3.319,3.319,0,0,0,.628,1.57q7.049,8.587,14.158,17.124Q-425.557,216.427-423.1,219.375Zm-23.335-37c-.393.16-.661.263-.924.378-2.507,1.1-4.984,2.269-7.528,3.273a15.454,15.454,0,0,0-6.251,4.144,6.555,6.555,0,0,1-1.33,1.162,1.693,1.693,0,0,0-.71,2.106c.324-.133.646-.258.962-.4,3.13-1.36,6.266-2.709,9.385-4.094a1.7,1.7,0,0,1,1.955.24c1.517,1.219,3.065,2.4,4.6,3.591.172.133.362.242.676.449C-445.885,189.547-446.156,186.03-446.439,182.37Zm-39.531,6.107a1.363,1.363,0,0,0-.336.054q-7.814,4.114-15.619,8.243a.871.871,0,0,0-.432.49c-.277,1.381-.512,2.769-.766,4.19a1.191,1.191,0,0,0,.331-.04q8.084-4.262,16.16-8.54a.7.7,0,0,0,.358-.434C-486.153,191.133-486.068,189.823-485.97,188.477Zm19.814,19.868.22-.085c0-3.684.009-7.368-.026-11.052,0-.188-.354-.507-.575-.539-1.869-.267-3.744-.485-5.619-.707-.607-.072-1.217-.112-1.976-.18Zm22.625-23.094,9.387-2.1c-1.73-.963-3.244-1.81-4.764-2.647a.808.808,0,0,0-.493-.135c-1.482.334-2.958.693-4.441,1.045Zm-3.278-7.959c-2.653,1.616-5.759,2.237-7.086,5.409,2.323-1.022,4.6-2.021,6.875-3.035a.541.541,0,0,0,.3-.364C-446.719,178.7-446.768,178.093-446.809,177.292Zm-12.447,43.351-3.957-3.579v5.356Zm15.158-43c.03.444.049.727.072,1.064l1.272-.312c-.343-.21-.539-.337-.742-.452C-443.646,177.853-443.8,177.783-444.1,177.638Z" transform="translate(0 0)" fill="#030302"/>
      <path id="Trazado_640305" data-name="Trazado 640305" d="M-501.235,324.584c1.2-.03,1.542-.327,1.757-1.519.424-2.349.868-4.7,1.26-7.051a1.638,1.638,0,0,1,.982-1.309c5.143-2.686,10.268-5.406,15.4-8.116.283-.149.567-.295,1.012-.526-.1,1.426-.175,2.725-.274,4.023-.337,4.384-.671,8.769-1.046,13.15a1.282,1.282,0,0,1-.573.919c-6.03,2.742-12.077,5.444-18.122,8.153a1.867,1.867,0,0,1-.3.052c.187-1.038.365-2.035.547-3.031.223-1.221.037-1.61-1.019-2.126Z" transform="translate(-5.727 -110.201)" fill="#a6ecfa"/>
      <path id="Trazado_640306" data-name="Trazado 640306" d="M-280.128,280.953c-1.046.576-1.188.9-.974,2.063q1,5.476,1.993,10.956a.932.932,0,0,1-.121.633l-17.035-19.788c3.888-.872,7.61-1.718,11.339-2.535a2.4,2.4,0,0,1,2.145,1.551c.185,1.014.361,2.03.555,3.043.217,1.13.531,1.406,1.7,1.538Q-280.327,279.684-280.128,280.953Z" transform="translate(-146.021 -87.111)" fill="#7de2ef"/>
      <path id="Trazado_640307" data-name="Trazado 640307" d="M-402.277,194.121c-2.579-2.747-5.3-5.379-7.7-8.271a31.985,31.985,0,0,1-6.225-11.7,16.131,16.131,0,0,1,10.182-20.107,14.189,14.189,0,0,1,7.835-.543,21.587,21.587,0,0,1,5.337,4.159,16.762,16.762,0,0,1,4.39,10.353,22.152,22.152,0,0,1-2.461,11.166,46.264,46.264,0,0,1-8.748,12.218C-400.541,192.3-401.408,193.213-402.277,194.121Zm-2.536-30.665c-.912-.613-1.47-.593-2.111.076a8.186,8.186,0,0,0-1.052,9.822,8.283,8.283,0,0,0,8.8,3.839,8.32,8.32,0,0,0,6.452-8.4,8.247,8.247,0,0,0-7.8-7.84c-1.141-.074-1.592.306-1.752,1.478Z" transform="translate(-63.605 -5.753)" fill="#fd4949"/>
      <path id="Trazado_640308" data-name="Trazado 640308" d="M-362.53,305.909c0-2.51.015-5.02-.012-7.53a.9.9,0,0,1,.645-.986q4.877-2.088,9.727-4.24a1.192,1.192,0,0,1,1.423.209c1.861,1.5,3.769,2.943,5.634,4.439a1.488,1.488,0,0,1,.545.9c.433,5.116.815,10.237,1.247,15.352a1.213,1.213,0,0,1-.854,1.453c-3.7,1.608-7.383,3.273-11.055,4.955a1,1,0,0,1-1.358-.266c-1.778-1.895-3.615-3.734-5.384-5.636a2.146,2.146,0,0,1-.534-1.3C-362.557,310.811-362.53,308.36-362.53,305.909Z" transform="translate(-100.741 -101.281)" fill="#4bdf65"/>
      <path id="Trazado_640309" data-name="Trazado 640309" d="M-409.2,312.052l-5.444-8.269q-5.788-8.792-11.559-17.6a2.493,2.493,0,0,1-.376-1.381c.067-1.588.227-3.172.362-4.882,1.127.149,2.221.284,3.312.439,3.59.511,7.18,1.021,10.766,1.558a2.569,2.569,0,0,1,1.011.452c.387.265.679.681,1.082.907,1.264.707,1.144,1.827,1.025,3.073-1.77-.2-3.489-.393-5.206-.6q-2.5-.3-5-.628a1.542,1.542,0,0,0-1.658.556,1.508,1.508,0,0,0,.183,1.8q5.623,8.844,11.219,17.706a3.615,3.615,0,0,1,.491,1.72c.064,1.695.022,3.393.022,5.091Z" transform="translate(-56.991 -92.344)" fill="#fbb823"/>
      <path id="Trazado_640310" data-name="Trazado 640310" d="M-431.862,327.575c.415-5.356.828-10.685,1.262-16.28l15.73,23.9Z" transform="translate(-53.383 -113.775)" fill="#7ce2ef"/>
      <path id="Trazado_640311" data-name="Trazado 640311" d="M-370.744,194.806c.869-.909,1.736-1.82,2.609-2.726a46.263,46.263,0,0,0,8.748-12.218,22.151,22.151,0,0,0,2.461-11.166,16.762,16.762,0,0,0-4.39-10.353,21.586,21.586,0,0,0-5.337-4.159,13.983,13.983,0,0,1,7.44,3.409c4.813,4.152,6.531,9.432,5.422,15.647a27.831,27.831,0,0,1-4.469,10.4A60.948,60.948,0,0,1-369.4,196.059Z" transform="translate(-95.138 -6.438)" fill="#e4333e"/>
      <path id="Trazado_640312" data-name="Trazado 640312" d="M-483.734,264.423c.329-1.857.757-3.634.93-5.436a3.6,3.6,0,0,1,2.249-3.093c4.169-2.2,8.258-4.551,12.38-6.842.276-.154.56-.294.979-.513-.085,1.235-.153,2.338-.238,3.439-.093,1.205-.178,2.412-.322,3.611a1.086,1.086,0,0,1-.463.735q-7.53,4.008-15.087,7.965A2.93,2.93,0,0,1-483.734,264.423Z" transform="translate(-17.945 -70.901)" fill="#4bdf65"/>
      <path id="Trazado_640313" data-name="Trazado 640313" d="M-279.841,340.97c-.236-.082-.481-.146-.708-.248-4.651-2.087-9.3-4.19-13.957-6.256a1.248,1.248,0,0,1-.856-1.24c-.24-3.53-.54-7.056-.814-10.584a5.717,5.717,0,0,1,.076-1.695l16.411,19.8Z" transform="translate(-146.062 -120.369)" fill="#43c566"/>
      <path id="Trazado_640314" data-name="Trazado 640314" d="M-278.9,319.149q-2.45-2.95-4.9-5.9-7.089-8.554-14.158-17.124a3.318,3.318,0,0,1-.628-1.57c-.173-1.181-.224-2.38-.34-3.753a5.645,5.645,0,0,1,.636.531q9.077,10.527,18.122,21.08a3.672,3.672,0,0,1,.559,1.625c.337,1.672.624,3.354.931,5.032Z" transform="translate(-144.199 -99.774)" fill="#f9b723"/>
      <path id="Trazado_640315" data-name="Trazado 640315" d="M-345.709,263.475c.283,3.66.554,7.177.838,10.854-.314-.208-.5-.316-.676-.449-1.538-1.192-3.086-2.372-4.6-3.591a1.7,1.7,0,0,0-1.955-.24c-3.12,1.384-6.255,2.733-9.385,4.094-.316.138-.638.263-.962.4a1.693,1.693,0,0,1,.71-2.106,6.554,6.554,0,0,0,1.33-1.162,15.453,15.453,0,0,1,6.251-4.144c2.543-1,5.021-2.177,7.528-3.273C-346.37,263.738-346.1,263.635-345.709,263.475Z" transform="translate(-100.73 -81.105)" fill="#fbd755"/>
      <path id="Trazado_640316" data-name="Trazado 640316" d="M-471.141,282.751c-.1,1.346-.182,2.656-.3,3.963a.7.7,0,0,1-.358.434q-8.074,4.282-16.16,8.54a1.189,1.189,0,0,1-.331.04c.254-1.421.49-2.81.766-4.19a.871.871,0,0,1,.432-.49q7.8-4.135,15.619-8.243A1.364,1.364,0,0,1-471.141,282.751Z" transform="translate(-14.829 -94.274)" fill="#fbd755"/>
      <path id="Trazado_640317" data-name="Trazado 640317" d="M-413.648,256.636c-1.486-.171-2.975-.321-4.457-.519-2.186-.292-4.366-.619-6.658-.947.187-2.486.371-4.929.568-7.543,1.379.708,2.608,1.381,3.873,1.975a7.3,7.3,0,0,1,2.8,2.329c1.216,1.624,2.565,3.149,3.858,4.715Z" transform="translate(-58.233 -70.278)" fill="#43c566"/>
      <path id="Trazado_640318" data-name="Trazado 640318" d="M-388.809,318.373l-7.976-12.562c.759.068,1.369.108,1.976.18,1.875.222,3.75.441,5.619.707.221.031.574.35.575.539.034,3.684.026,7.367.026,11.052Z" transform="translate(-77.347 -110.028)" fill="#43c566"/>
      <path id="Trazado_640319" data-name="Trazado 640319" d="M-300.863,262.02c-.106-1.319-.2-2.519-.31-3.838,1.482-.353,2.958-.711,4.44-1.045a.808.808,0,0,1,.493.135c1.52.837,3.034,1.684,4.764,2.647Z" transform="translate(-142.668 -76.769)" fill="#f9b723"/>
      <path id="Trazado_640320" data-name="Trazado 640320" d="M-325.824,247.445c.041.8.091,1.406.089,2.01a.54.54,0,0,1-.3.364c-2.272,1.014-4.552,2.013-6.875,3.035C-331.583,249.682-328.477,249.061-325.824,247.445Z" transform="translate(-120.986 -70.153)" fill="#4bdf65"/>
      <path id="Trazado_640321" data-name="Trazado 640321" d="M-358.364,376.561l-3.957,1.777v-5.356Z" transform="translate(-100.892 -155.918)" fill="#f9d654"/>
      <path id="Trazado_640322" data-name="Trazado 640322" d="M-301.985,248.539c.294.145.452.215.6.3.2.115.4.242.742.452l-1.272.312C-301.936,249.266-301.955,248.983-301.985,248.539Z" transform="translate(-142.113 -70.901)" fill="#43c566"/>
      <path id="Trazado_640323" data-name="Trazado 640323" d="M-389.718,276.074l.05.05-.038-.06Z" transform="translate(-82.175 -89.705)" fill="#43c566"/>
      <path id="Trazado_640324" data-name="Trazado 640324" d="M-385.522,179.155c.16-1.171.611-1.552,1.752-1.478a8.247,8.247,0,0,1,7.8,7.84,8.32,8.32,0,0,1-6.452,8.4,8.283,8.283,0,0,1-8.8-3.839,8.186,8.186,0,0,1,1.052-9.822c.641-.669,1.2-.689,2.111-.076.609.968.023,1.639-.538,2.359a5.48,5.48,0,0,0,.256,7,5.523,5.523,0,0,0,6.761,1.231,5.519,5.519,0,0,0,2.827-6.04,5.509,5.509,0,0,0-5.024-4.383C-384.631,180.279-385.286,180.053-385.522,179.155Z" transform="translate(-80.35 -22.483)" fill="#050303"/>
    </g>
  </g>
</svg>
