<svg xmlns="http://www.w3.org/2000/svg" xmlns:xlink="http://www.w3.org/1999/xlink" width="458.71" height="437.787" viewBox="0 0 458.71 437.787">
  <defs>
    <clipPath id="clip-path">
      <path id="Trazado_640121" data-name="Trazado 640121" d="M119.414,167.138S97.9,178.448,68.655,171,23.69,134.034,24.793,109.483,44.379,47.138,89.621,43.552s60.689,31.172,64,52.414-3.311,44.137-16,62.068c6.62,18.207,19.034,23.725,19.034,23.725a50.3,50.3,0,0,1-22.621-.828C121.621,177.621,119.414,167.138,119.414,167.138Z" fill="#fff"/>
    </clipPath>
    <clipPath id="clip-path-2">
      <path id="Trazado_640141" data-name="Trazado 640141" d="M325.345,177.483a47.718,47.718,0,0,0,20.276,3.31,77.531,77.531,0,0,0,19.448-4.138s27.31,21.931,63.724,10.759,51.172-43.173,46.345-81.518C470.115,66,441.621,45.069,401.9,49.621s-61.76,39.715-63.725,63.724c-2.482,30.345,13.656,48.827,13.656,48.827s-5.656,6.345-11.449,9.38A66.26,66.26,0,0,1,325.345,177.483Z" fill="#fff"/>
    </clipPath>
    <clipPath id="clip-path-3">
      <path id="Trazado_640203" data-name="Trazado 640203" d="M172.379,442.448s-5.241.276-16-6.62-12.965-11.862-12.965-11.862,20.414-9.656,28.414-43.311S157.483,304.517,115,296.793s-67.586,12.138-78.069,49.655,9.379,66.483,25.379,77.518,36.966,11.586,43.862,12.137a42.631,42.631,0,0,0,13.518-1.379s9.517,8.552,27.31,10.621S172.379,442.448,172.379,442.448Z" fill="#fff"/>
    </clipPath>
    <clipPath id="clip-path-4">
      <path id="Trazado_640220" data-name="Trazado 640220" d="M310.586,412.379s7.448,4.414,20.414,3.587,16.828-3.587,16.828-3.587,9.655,24,49.1,25.38S465.9,411.552,466.172,369.9s-27.31-64.552-62.344-66.207-62.069,21.241-66.759,47.172a83.223,83.223,0,0,0,5.241,46.621,26.465,26.465,0,0,1-14.345,10.483A175.358,175.358,0,0,1,310.586,412.379Z" fill="#fff"/>
    </clipPath>
  </defs>
  <g id="Grupo_906602" data-name="Grupo 906602" transform="translate(-17.316 -25.79)">
    <g id="BACKGROUND">
      <path id="Trazado_640074" data-name="Trazado 640074" d="M405.755,192.355c1.575-13.309,6.7-26.352,5.454-39.7C410.1,140.833,404.043,130,396.778,120.6c-44.171-57.137-142.74-68.52-195.767-15.9a81.8,81.8,0,0,0-10.216,12.283c-8.7,12.89-14.218,27.977-24.721,39.443-19.063,20.811-50.177,25.393-72.777,42.3a79.339,79.339,0,0,0-7.561,120.636c30.168,29.1,80.265,31.9,106.732,64.407,12.707,15.6,19.337,37.4,37.2,46.663,14.487,7.509,32.607,4.139,46.746-4.007,24.6-14.171,39.571-40.416,61.368-58.6,24.76-20.656,59.611-32.479,72.486-62.043C425.574,270.64,401.253,230.413,405.755,192.355Z" fill="#a6dfec"/>
      <path id="Trazado_640075" data-name="Trazado 640075" d="M443.667,445.693a4.151,4.151,0,0,0-3.428-.583,5.629,5.629,0,0,0-2.79,1.531,6.736,6.736,0,0,0-2.067,5.147,3.55,3.55,0,0,0,1.436,2.874,4.887,4.887,0,0,0,3.12.987,6.6,6.6,0,0,0,5.4-3.91A5.018,5.018,0,0,0,443.667,445.693Z" fill="#a6dfec"/>
      <path id="Trazado_640076" data-name="Trazado 640076" d="M457.128,429.412a2.656,2.656,0,0,0-2.844-.907,2.607,2.607,0,0,0-1.7,3.128,2.837,2.837,0,0,0,2.192,1.783,2.353,2.353,0,0,0,2.46-1.174A2.646,2.646,0,0,0,457.128,429.412Z" fill="#a6dfec"/>
      <path id="Trazado_640077" data-name="Trazado 640077" d="M459.719,447.5a4.711,4.711,0,0,0-4.413.146,5.153,5.153,0,0,0-1.56,6.321c.977,2.174,3.491,3.946,5.928,3.424a5.069,5.069,0,0,0,3.939-4.657,5.49,5.49,0,0,0-2.588-4.571A7.6,7.6,0,0,0,459.719,447.5Z" fill="#a6dfec"/>
      <path id="Trazado_640078" data-name="Trazado 640078" d="M465.621,321.621c-4.772-.916-5.968,8.552-.144,6.807A3.629,3.629,0,0,0,468.17,325,3.419,3.419,0,0,0,465.621,321.621Z" fill="#a6dfec"/>
      <path id="Trazado_640079" data-name="Trazado 640079" d="M453.673,201.261c-.224-2.3-2.683-4.291-4.978-3.477a3.836,3.836,0,0,0-1.559,5.844,3.669,3.669,0,0,0,4.194,1.1A3.478,3.478,0,0,0,453.673,201.261Z" fill="#a6dfec"/>
      <path id="Trazado_640080" data-name="Trazado 640080" d="M468.91,196.052c-2.254-1.738-5.165-1.755-6.559.977a7.362,7.362,0,0,0-.79,5.018,5.391,5.391,0,0,0,4.857,3.844,4.846,4.846,0,0,0,4.79-3.713A5.848,5.848,0,0,0,468.91,196.052Z" fill="#a6dfec"/>
      <path id="Trazado_640081" data-name="Trazado 640081" d="M462.5,182.3a2.332,2.332,0,0,0,3.338,1.329,2.723,2.723,0,0,0,1.282-3.008,2.64,2.64,0,0,0-2.411-1.843,2.4,2.4,0,0,0-2.4,2.281A2.642,2.642,0,0,0,462.5,182.3Z" fill="#a6dfec"/>
      <path id="Trazado_640082" data-name="Trazado 640082" d="M464.5,180.1Z" fill="#a6dfec"/>
      <path id="Trazado_640083" data-name="Trazado 640083" d="M151.161,34.711a4.611,4.611,0,0,0-4.021,4.128,4.543,4.543,0,0,0,2.7,4.924,4.191,4.191,0,0,0,5.113-1.715,4.746,4.746,0,0,0,.687-3.506A4.388,4.388,0,0,0,151.161,34.711Z" fill="#a6dfec"/>
      <path id="Trazado_640084" data-name="Trazado 640084" d="M166.624,54.926a3.331,3.331,0,0,0-2.578-.841c-2.567.362-2.609,3.508-1.456,5.229a3.112,3.112,0,0,0,1.837,1.392,3.209,3.209,0,0,0,2.148-.3,2.777,2.777,0,0,0,1.325-3.689A4.575,4.575,0,0,0,166.624,54.926Z" fill="#a6dfec"/>
      <path id="Trazado_640085" data-name="Trazado 640085" d="M57.654,184.024a4.9,4.9,0,0,0,2.793.366,3.127,3.127,0,0,0,1.835-1.225,2.712,2.712,0,0,0,.477-2.412,4.127,4.127,0,0,0-4.2-2.789,3.152,3.152,0,0,0-1.932.881,3.456,3.456,0,0,0-.619,3.736A2.973,2.973,0,0,0,57.654,184.024Z" fill="#a6dfec"/>
      <path id="Trazado_640086" data-name="Trazado 640086" d="M37.674,164.883a3.623,3.623,0,0,0-3.561.073,4.232,4.232,0,0,0-2.008,3.4,6.989,6.989,0,0,0,.26,3.459,5.325,5.325,0,0,0,2.2,2.213,3.819,3.819,0,0,0,2.813.65,4.056,4.056,0,0,0,2.34-1.448,5.212,5.212,0,0,0,.3-5.637A6.682,6.682,0,0,0,37.674,164.883Z" fill="#a6dfec"/>
      <path id="Trazado_640087" data-name="Trazado 640087" d="M174.565,130.763c-3.186-1.01-4.9,4.158-1.666,5.348a2.916,2.916,0,0,0,3.149-1,2.6,2.6,0,0,0,.08-3.25A3.175,3.175,0,0,0,174.565,130.763Z" fill="#a6dfec"/>
      <path id="Trazado_640088" data-name="Trazado 640088" d="M63.454,270.556c-.01-.006-.022-.01-.033-.016a.209.209,0,0,0-.126-.171,5.365,5.365,0,0,0-2.418-.676,2.315,2.315,0,0,0-1.959,1.508,4.993,4.993,0,0,0,.509,4.679,3.114,3.114,0,0,0,4.2.516,3.6,3.6,0,0,0,1.387-3.956A3.527,3.527,0,0,0,63.454,270.556Z" fill="#a6dfec"/>
      <path id="Trazado_640089" data-name="Trazado 640089" d="M81.3,278.248a.361.361,0,0,0-.225-.395,5.706,5.706,0,0,0-5.728.451,4.182,4.182,0,0,0-1.414,4.566,3.382,3.382,0,0,0,1.825,1.84,4.524,4.524,0,0,0,2.548.451,7.193,7.193,0,0,0,3.042-1.124,3.889,3.889,0,0,0,1.757-1.985,3.132,3.132,0,0,0-.725-2.94A4.394,4.394,0,0,0,81.3,278.248Zm-.15,4.933a7.014,7.014,0,0,1-2.325,1.051,4.012,4.012,0,0,1-2.3-.1,2.4,2.4,0,0,1-1.386-1.389,3.125,3.125,0,0,1,.811-3.344,4.727,4.727,0,0,1,3.741-1.086,1.086,1.086,0,0,0,.634.478,4.646,4.646,0,0,1,1.025.579,2.459,2.459,0,0,1,1.051,2.056A2.547,2.547,0,0,1,81.146,283.181Z" fill="#a6dfec"/>
      <path id="Trazado_640090" data-name="Trazado 640090" d="M53.916,291.681a4.024,4.024,0,0,0-1.826-2.313,3.851,3.851,0,0,0-1.468-.521h-.007l-.027-.011a2.521,2.521,0,0,0-1.4-.172,4.059,4.059,0,0,0-2.437,1.35,4.361,4.361,0,0,0-.421,5.226,3.5,3.5,0,0,0,2.158,1.516,5.6,5.6,0,0,0,3.114-.47A3.925,3.925,0,0,0,53.916,291.681Z" fill="#a6dfec"/>
      <path id="Trazado_640091" data-name="Trazado 640091" d="M46.847,193.417a2.6,2.6,0,0,0,.08-3.25,3.171,3.171,0,0,0-1.563-1.1c-3.186-1.01-4.894,4.158-1.665,5.348A2.916,2.916,0,0,0,46.847,193.417Z" fill="#a6dfec"/>
      <path id="Trazado_640092" data-name="Trazado 640092" d="M323.769,44.6a1.9,1.9,0,0,0-2.334,1.2,1.981,1.981,0,1,0,3.79,1.1A2.083,2.083,0,0,0,323.769,44.6Z" fill="#a6dfec"/>
      <path id="Trazado_640093" data-name="Trazado 640093" d="M422.23,34.015a4.636,4.636,0,0,0-4.516-.551,5.753,5.753,0,0,0-3.036,5.835c.265,2.466,2.064,4.66,4.707,4.459a5.941,5.941,0,0,0,5.211-3.919A5.329,5.329,0,0,0,422.23,34.015Z" fill="#a6dfec"/>
      <path id="Trazado_640094" data-name="Trazado 640094" d="M440.4,47.058a3.4,3.4,0,0,0,3.059-2.971,3.292,3.292,0,0,0-.251-1.668,3.214,3.214,0,0,0-3.137-1.967C435.765,40.711,436.115,47.56,440.4,47.058Z" fill="#a6dfec"/>
      <path id="Trazado_640095" data-name="Trazado 640095" d="M438.084,31a2.584,2.584,0,0,0,1.236-1.165,2.693,2.693,0,0,0-1.773-4c-3.323-.624-4.613,4.617-1.224,5.294A2.952,2.952,0,0,0,438.084,31Z" fill="#a6dfec"/>
      <path id="Trazado_640096" data-name="Trazado 640096" d="M22.368,339.194a3.405,3.405,0,0,0-3.939.142,3.272,3.272,0,0,0,2.87,5.658,3.224,3.224,0,0,0,2.527-3.113A3.04,3.04,0,0,0,22.368,339.194Z" fill="#a6dfec"/>
      <path id="Trazado_640097" data-name="Trazado 640097" d="M58.778,443.5c-2.343-.938-5.825-.266-7.263,1.946a9.147,9.147,0,0,0-1.333,4.589,5.514,5.514,0,0,0,1.182,3.742,5.3,5.3,0,0,0,3.624,1.639c1.418.123,2.932.5,4.255-.2,3.6-1.892,4.243-6.868,1.991-9.845A5.714,5.714,0,0,0,58.778,443.5Z" fill="#a6dfec"/>
      <path id="Trazado_640098" data-name="Trazado 640098" d="M86.355,455.725a6.265,6.265,0,0,0-.477,5.758,3.376,3.376,0,0,0,1.769,1.778,3.612,3.612,0,0,0,2.537.153,4.825,4.825,0,0,0,3.083-4.678,4.652,4.652,0,0,0-1.16-3.156C90.523,453.746,87.775,453.564,86.355,455.725Z" fill="#a6dfec"/>
      <path id="Trazado_640099" data-name="Trazado 640099" d="M108.887,449.077c-3.432-.465-5.124,4.094-1.932,5.693a3.511,3.511,0,0,0,2.028.37,3.27,3.27,0,0,0,1.89-1.059,2.871,2.871,0,0,0,.156-3.762A3.213,3.213,0,0,0,108.887,449.077Z" fill="#a6dfec"/>
    </g>
    <g id="OBJECTS">
      <g id="Grupo_906539" data-name="Grupo 906539">
        <path id="Trazado_640100" data-name="Trazado 640100" d="M119.414,167.138S97.9,178.448,68.655,171,23.69,134.034,24.793,109.483,44.379,47.138,89.621,43.552s60.689,31.172,64,52.414-3.311,44.137-16,62.068c6.62,18.207,19.034,23.725,19.034,23.725a50.3,50.3,0,0,1-22.621-.828C121.621,177.621,119.414,167.138,119.414,167.138Z" fill="#fff"/>
        <g id="Grupo_906538" data-name="Grupo 906538" clip-path="url(#clip-path)">
          <g id="Grupo_906537" data-name="Grupo 906537">
            <path id="Trazado_640101" data-name="Trazado 640101" d="M45.628,178.993a134.519,134.519,0,0,1,1.94-29.311.974.974,0,0,1,.216-.541.961.961,0,0,1,.473-.209,26.623,26.623,0,0,1,16.166,1.325,1.462,1.462,0,0,1,.732.509,1.48,1.48,0,0,1,.156.744c.228,7.912-1.495,15.768-1.512,23.684a1.666,1.666,0,0,1-.17.9,1.607,1.607,0,0,1-.733.529,29.384,29.384,0,0,1-16.982,2.236" fill="#e67d54"/>
            <path id="Trazado_640102" data-name="Trazado 640102" d="M102.314,124.942c-.1-.229.465-.338.272-.494a22.151,22.151,0,0,0-3.647-1.9,3,3,0,0,1-1.186-.811,2.7,2.7,0,0,1-.392-1.227q-.554-3.816-.725-7.674a1.68,1.68,0,0,0-.213-.907c-.329-.467-1.01-.467-1.579-.419L80.891,112.7l-.263-.321q-.051,2.55-.1,5.1c-.026,1.346-.124,2.856-1.128,3.753-.67.6-4.727,2.008-5.7,2.759a.5.5,0,0,0-.162.784,12.725,12.725,0,0,0,4.832,4.456,21.67,21.67,0,0,0,12.512,3.2,14.779,14.779,0,0,0,11.092-6.139A1.509,1.509,0,0,0,102.314,124.942Z" fill="#e67d54"/>
            <g id="Grupo_906529" data-name="Grupo 906529" style="mix-blend-mode: multiply;isolation: isolate">
              <path id="Trazado_640103" data-name="Trazado 640103" d="M81.3,119.425a16.593,16.593,0,0,0,11.779,1.065,14.557,14.557,0,0,0,4.051-1.875c-.23-1.92-.412-3.845-.5-5.776a1.68,1.68,0,0,0-.213-.907c-.329-.467-1.01-.467-1.579-.419L80.891,112.7l-.263-.321-.1,5.1a13.028,13.028,0,0,1-.094,1.455C80.722,119.1,81,119.278,81.3,119.425Z" fill="#f6d1c3"/>
            </g>
            <path id="Trazado_640104" data-name="Trazado 640104" d="M111.142,153.284a32,32,0,0,1,15.346-3.4c.578,4.381,1.53,8.731,1.6,13.149s-.831,9.028-3.569,12.5c-1.358,1.721-3.56,3.193-5.637,2.49-1.5-.509-2.429-1.988-3.133-3.408-3.216-6.484-4.317-13.825-4.544-21.059" fill="#e67d54"/>
            <g id="Grupo_906530" data-name="Grupo 906530" style="mix-blend-mode: multiply;isolation: isolate">
              <path id="Trazado_640105" data-name="Trazado 640105" d="M111.142,153.284a32,32,0,0,1,15.346-3.4c.578,4.381,1.53,8.731,1.6,13.149s-.831,9.028-3.569,12.5c-1.358,1.721-3.56,3.193-5.637,2.49-1.5-.509-2.429-1.988-3.133-3.408-3.216-6.484-4.317-13.825-4.544-21.059" fill="#f6d1c3"/>
            </g>
            <path id="Trazado_640106" data-name="Trazado 640106" d="M74.586,122.655s4.69,6.138,14.483,6.276,12.69-5.379,12.69-5.379,10.482,4,15.862,7.724,5.517,5.241,6.207,7.724,2.069,6.759,2.758,9.1,1.242,5.518,1.242,5.518A20.545,20.545,0,0,0,121.621,155a76.006,76.006,0,0,0-9.935,4.993l2.211,12.386a205.56,205.56,0,0,1-23.311,2.759,117.08,117.08,0,0,1-26.758-1.931l1.241-17.793s-2.9-1.793-9.241-2.759-8.966-1.1-8.966-1.1.828-15.311,4.276-18.621S74.586,122.655,74.586,122.655Z" fill="#fcd53d"/>
            <path id="Trazado_640107" data-name="Trazado 640107" d="M74.777,98.143l-.822-1.281c-.969-1.509-2.131-3.155-3.988-3.556a1.7,1.7,0,0,0-1,.032,1.494,1.494,0,0,0-.686.67,5.53,5.53,0,0,0-.312,3.673,6.894,6.894,0,0,0,.778,2.507,3.051,3.051,0,0,0,2.2,1.5,3.584,3.584,0,0,0,2.233-.629,6.655,6.655,0,0,0,2.609-3.215Z" fill="#e67d54"/>
            <path id="Trazado_640108" data-name="Trazado 640108" d="M108.668,95.478a10.182,10.182,0,0,0-.387-2.484,2.263,2.263,0,0,0-.672-1.135,1.341,1.341,0,0,0-1.382-.211,1.578,1.578,0,0,0-.479.428,14.867,14.867,0,0,0-2.7,4.767l-1.29,1.991q.345.733.692,1.466a2.577,2.577,0,0,0,.553.854,2.482,2.482,0,0,0,2.081.425,4.342,4.342,0,0,0,3.06-2.437A7.633,7.633,0,0,0,108.668,95.478Z" fill="#e67d54"/>
            <path id="Trazado_640109" data-name="Trazado 640109" d="M81.154,147.552q-.634-9.565-1.271-19.131a1.772,1.772,0,0,1,.284-1.358,1.744,1.744,0,0,1,1.112-.405,111.88,111.88,0,0,1,13.016-.742,3.5,3.5,0,0,1,1.711.3c.975.54,1.211,1.813,1.326,2.922a119.142,119.142,0,0,1,.464,18.822,5.666,5.666,0,0,1-.287,1.759c-.557,1.438-2.139,2.2-3.644,2.531a12.568,12.568,0,0,1-12.757-5.029" fill="#253044"/>
            <path id="Trazado_640110" data-name="Trazado 640110" d="M102.364,81.378a10.249,10.249,0,0,0-4.7-5.929,9.342,9.342,0,0,0-5.49-1.055c-1.888.128-3.745.557-5.63.736-3.2.3-6.6-.059-9.519,1.206a2.127,2.127,0,0,0-1.435.579A4.573,4.573,0,0,0,74.516,78.7c-1.428,3.752-1.268,7.895-1.089,11.906l.524,11.712c.123,2.757.288,5.654,1.755,7.991a13.154,13.154,0,0,0,3.1,3.213c2.994,2.365,6.6,4.307,10.41,4.146a16.935,16.935,0,0,0,5.508-1.465,20.559,20.559,0,0,0,5.674-4.341,9.225,9.225,0,0,0,2.2-3.126,11.917,11.917,0,0,0,.605-3.085C104.052,97.55,104.607,89.212,102.364,81.378Z" fill="#e67d54"/>
            <path id="Trazado_640111" data-name="Trazado 640111" d="M120.818,169.324a66.214,66.214,0,0,0-6.072-6.24c-2.169-2.153-4.242-4.41-6.389-6.59-1.981-2.01-4.057-3.915-6.135-5.822a22.6,22.6,0,0,0,.184-2.406,27.658,27.658,0,0,0-.261-4.388,36.842,36.842,0,0,0-.751-4.129,21.048,21.048,0,0,0-1.248-4.028,1.307,1.307,0,0,0-1.732-.822c-.821.425-.625,2.011-.695,2.751a35.543,35.543,0,0,1-.7,4.614c-.167.726-.37,1.439-.577,2.153l-.013.04c-5.426.925-10.712-.055-16.1-1.347-1.209-.289-5.71-2.056-5.215.8a3.978,3.978,0,0,0,2.061,2.5,4.13,4.13,0,0,0,.867,2.567,12.306,12.306,0,0,0,2.446,2.153,4.441,4.441,0,0,0,.963,2.287,10.37,10.37,0,0,0,3.394,2.849,15.38,15.38,0,0,0,4.692,1.571,16.271,16.271,0,0,0,4.186.38,41.334,41.334,0,0,0,3.376,9.03c1.671,3.448,3.616,7.558,6.677,10,2.865,2.289,6.694,2.48,10.133,1.613,2.785-.7,9.376,1.037,10.507-1.694C125.4,175.729,123.036,172.214,120.818,169.324Z" fill="#e67d54"/>
            <g id="Grupo_906531" data-name="Grupo 906531" style="mix-blend-mode: multiply;isolation: isolate">
              <path id="Trazado_640112" data-name="Trazado 640112" d="M85.105,149.384q1.519.342,3.055.607a11.443,11.443,0,0,0,2.825.349c.217-.02-8.264-2.013-9.744-2.423A20.406,20.406,0,0,1,77.15,146.4l.022.015a4.011,4.011,0,0,0,.038.505,20.018,20.018,0,0,0,3.342,1.283C82.052,148.652,83.578,149.039,85.105,149.384Z" fill="#ba9a91"/>
              <path id="Trazado_640113" data-name="Trazado 640113" d="M84.563,152.7a18.293,18.293,0,0,1-4.078-1.563,2.956,2.956,0,0,0,.067.4,16.488,16.488,0,0,0,3.8,1.6,26.756,26.756,0,0,0,2.763.692c.445.086.891.159,1.341.214a2.2,2.2,0,0,0,1.176-.005C89.747,153.986,85.389,152.936,84.563,152.7Z" fill="#ba9a91"/>
            </g>
            <path id="Trazado_640114" data-name="Trazado 640114" d="M104.586,81.552c-1.481-4.382-3.749-8.727-8.227-10.625a17.321,17.321,0,0,0-5.147-1.171,28.875,28.875,0,0,0-5.805.022,19.883,19.883,0,0,0-4.1.85,14.7,14.7,0,0,0-9.363,9.86,26.56,26.56,0,0,0-.589,8.094q.077,2.572.153,5.148a2.685,2.685,0,0,0,.118.856c.4,1.11,2.58,2.7,2.758,3.862l.138-.209c1.245-4.23-.259-6.782.487-11.113a3.122,3.122,0,0,1,1.758-2.644,3.193,3.193,0,0,1,1.374-.078,23.1,23.1,0,0,1,4.9,1.39,16.023,16.023,0,0,0,9.077.14c2.3-.647,4.481-1.821,6.878-1.846a2.4,2.4,0,0,1,1.959.693,2.275,2.275,0,0,1,.357.936c.885,4.265.4,7.113,2.208,11.27,1.806-1.812,1.744-5.377,1.9-7.849A20.453,20.453,0,0,0,104.586,81.552Z" fill="#253044"/>
            <g id="Grupo_906532" data-name="Grupo 906532">
              <path id="Trazado_640115" data-name="Trazado 640115" d="M79.6,95.188a2.844,2.844,0,0,1,2.038-.968,5.776,5.776,0,0,1,1.4.01c.451.063.873.238,1.317.327a1.114,1.114,0,0,0,.821,0,.569.569,0,0,0,.233-.711c-.176-.489-.86-.755-1.318-.877a5.52,5.52,0,0,0-3.011.022,2.849,2.849,0,0,0-2.125,1.931.353.353,0,0,0,.642.271Z" fill="#253044"/>
            </g>
            <g id="Grupo_906533" data-name="Grupo 906533">
              <path id="Trazado_640116" data-name="Trazado 640116" d="M83.837,97.387a1.887,1.887,0,0,0-.78-.493,1.6,1.6,0,0,0-2.046,1.6,2.544,2.544,0,0,0,.178,1.275c.636,1.383,2.979,1.272,3.341-.211a2.409,2.409,0,0,0-.555-2.017Q83.91,97.462,83.837,97.387Z" fill="#253044"/>
            </g>
            <g id="Grupo_906534" data-name="Grupo 906534">
              <path id="Trazado_640117" data-name="Trazado 640117" d="M99.606,94.814c-.485-1.985-3.072-2.358-4.757-2.04a3.141,3.141,0,0,0-1.368.567.747.747,0,0,0-.364.725.616.616,0,0,0,.642.475,2.986,2.986,0,0,0,.732-.144c.25-.071.49-.162.746-.217a5.577,5.577,0,0,1,1.3-.088,4.03,4.03,0,0,1,1.393.279,2,2,0,0,1,1.03.714.353.353,0,0,0,.642-.271Z" fill="#253044"/>
            </g>
            <g id="Grupo_906535" data-name="Grupo 906535">
              <path id="Trazado_640118" data-name="Trazado 640118" d="M94.367,97.382a2.41,2.41,0,0,0-.147,2.087c.646,1.383,2.966,1.031,3.317-.45a2.524,2.524,0,0,0-.077-1.285,1.6,1.6,0,0,0-2.319-1.165,1.87,1.87,0,0,0-.669.637C94.434,97.264,94.4,97.323,94.367,97.382Z" fill="#253044"/>
            </g>
            <g id="Grupo_906536" data-name="Grupo 906536" style="mix-blend-mode: multiply;isolation: isolate">
              <path id="Trazado_640119" data-name="Trazado 640119" d="M89.081,95.142a8.466,8.466,0,0,0,2.028,6.574c.444.534.937,1.032,1.348,1.593.235.32.542.775.174,1.124a1.374,1.374,0,0,1-.768.281A8.6,8.6,0,0,1,90,104.686a13.489,13.489,0,0,0-2.029-.351.213.213,0,0,0-.149.36,3.4,3.4,0,0,0,1.914.638,6.817,6.817,0,0,0,2.081-.028c1.118-.19,1.846-1.027,1.146-2.1-.829-1.274-1.993-2.253-2.646-3.654a14.135,14.135,0,0,1-1.011-4.376c-.014-.115-.2-.17-.225-.031Z" fill="#ba9a91"/>
            </g>
            <path id="Trazado_640120" data-name="Trazado 640120" d="M94.927,108.091a42.947,42.947,0,0,1-4.473.382c-1.4.046-2.8.088-4.2.057a11.344,11.344,0,0,0-2.759.231,2.951,2.951,0,0,0,.259.253,8.758,8.758,0,0,0,12.183-1.13A7.4,7.4,0,0,1,94.927,108.091Z" fill="#253044"/>
          </g>
        </g>
      </g>
      <g id="Grupo_906548" data-name="Grupo 906548">
        <path id="Trazado_640122" data-name="Trazado 640122" d="M325.345,177.483a47.718,47.718,0,0,0,20.276,3.31,77.531,77.531,0,0,0,19.448-4.138s27.31,21.931,63.724,10.759,51.172-43.173,46.345-81.518C470.115,66,441.621,45.069,401.9,49.621s-61.76,39.715-63.725,63.724c-2.482,30.345,13.656,48.827,13.656,48.827s-5.656,6.345-11.449,9.38A66.26,66.26,0,0,1,325.345,177.483Z" fill="#fff"/>
        <g id="Grupo_906547" data-name="Grupo 906547" clip-path="url(#clip-path-2)">
          <g id="Grupo_906546" data-name="Grupo 906546">
            <path id="Trazado_640123" data-name="Trazado 640123" d="M397.1,143.289a42.837,42.837,0,0,0-2.535-4.923,1.873,1.873,0,0,0-2.778-.863,54.118,54.118,0,0,0-8.516,5.948,56.541,56.541,0,0,0-6.441,6.062c-.038-.072-.078-.144-.114-.216-.641-1.272-1.254-2.56-1.828-3.864-1.214-2.762-2.244-5.633-3.185-8.5a82.663,82.663,0,0,1-2.256-8.24,55.915,55.915,0,0,1-1.2-7.8c.456-.813,3.513-7.382,3.894-8.211a3.027,3.027,0,0,0,.254-.7,1.124,1.124,0,0,0-.384-1.085,1.022,1.022,0,0,0-1.1-.167,2.76,2.76,0,0,0-.658.471c-.935.82-1.868,1.639-2.788,2.476-.218.2-.445.394-.673.591-.1-.889-2.585-9.218-3.239-10.824-.453-1.11-.81-2.663-2.036-3.134a.487.487,0,0,0-.6.338,10.556,10.556,0,0,0,.331,4.024c.25,1.413,1.16,4.833,1.451,6.239-.865-2.061-2.8-5.921-3.9-7.88-.392-.7-.874-1.772-1.819-1.808-1.019-.037-.869.938-.68,1.649A17.82,17.82,0,0,0,357.428,106c.551,1.16.96,2.391,1.469,3.57q.684,1.581,1.371,3.16c-.246-.376-.594-.684-.85-1.054-.666-.966-1.362-1.912-2.074-2.844a15.632,15.632,0,0,0-2.015-2.436c-.485-.418-1.219-.893-1.761-.316-.426.455-.075,1.053.094,1.561a30.517,30.517,0,0,0,2.929,5.547c.448.763.815,1.7,1.281,2.456-.681-.525-1.424-1.01-2.05-1.532a25.385,25.385,0,0,0-2.449-1.817c-.473-.306-1.268-.87-1.853-.519-.521.312-.45.727-.269,1.217.5,1.358,4.693,5.81,5.71,6.948.813.91,2.714,2.46,2.793,2.551.05,2.139.208,4.257.3,6.412.124,2.9.3,5.807.618,8.7a70.962,70.962,0,0,0,3.4,15.791,44.838,44.838,0,0,0,3.169,7.088,12.165,12.165,0,0,0,3.977,4.6c4.167,2.557,9.565.019,13.466-1.907a45.175,45.175,0,0,0,7.079-4.349,31.937,31.937,0,0,0,6.035-5.5.535.535,0,0,0,.607-.327C399.639,149.964,398.344,146.1,397.1,143.289Z" fill="#fec091"/>
            <path id="Trazado_640124" data-name="Trazado 640124" d="M457.754,111.588c-2.539-4.041-6.844-6.451-9.1-10.657-2.412-4.5-2.1-9.389-2.262-14.491a30.563,30.563,0,0,0-2.142-10.311,11.134,11.134,0,0,0-2.217-3.75c-2.153-2.2-5.5-2.684-8.581-2.715-3.136-.031-6.143-.037-9.006.969-6.766-2.6-15.216-3.108-21.428.561-6.332,3.74-10.1,12.038-7.381,18.873.623,1.569,1.541,3.007,2.165,4.574a13.414,13.414,0,0,1,.548,8.158c-1,3.995-4.455,8.077-5.522,12.054-1.322,4.927.246,10.355,3.412,14.354s8.429,5.95,13.27,7.556a66.634,66.634,0,0,0,15.032,2.673c4.936.447,9.954.76,14.814-.212a28.6,28.6,0,0,0,12.939-6.3,21.33,21.33,0,0,0,6.718-9.759A14.225,14.225,0,0,0,457.754,111.588Z" fill="#e98b67"/>
            <path id="Trazado_640125" data-name="Trazado 640125" d="M409.781,124.585l-8.235,1.837a11.234,11.234,0,0,0-3.05,1,11.462,11.462,0,0,0-2.968,2.752q-5.289,6.195-10.91,12.1a20.963,20.963,0,0,1,9.395,10.933,24.811,24.811,0,0,0,1.374,3.487,28.61,28.61,0,0,0,3.239-5.048,52.619,52.619,0,0,0,4.718-10.348c.833-2.866,1.171-5.853,1.879-8.752s1.49-5.184,3.614-7.281" fill="#253044"/>
            <path id="Trazado_640126" data-name="Trazado 640126" d="M446.724,134.793c-5.332-3.454-10.491-6.678-16.431-8.931a34.662,34.662,0,0,0-19.015-1.712l.081-.563c-2.081,1.195-4.711,1.4-6.5,3a10.047,10.047,0,0,0-1.783,2.33,97.581,97.581,0,0,0-8.458,17.494,27.545,27.545,0,0,0-2.029,8.959,11.417,11.417,0,0,0,3.116,8.414,6.476,6.476,0,0,1,1.761,2.021,4.808,4.808,0,0,1,.04,2.568,139.405,139.405,0,0,0-1.834,23.116,1.811,1.811,0,0,0,.337,1.278,1.788,1.788,0,0,0,1.037.415,74.579,74.579,0,0,0,40.19-4.49,1.51,1.51,0,0,0,1.158-2,72.086,72.086,0,0,1-1.037-8.134,111.574,111.574,0,0,1,2.2-22.591c1.383-7.21,2.584-13.558,7.32-19.167a1.153,1.153,0,0,0,.387-.881A2.22,2.22,0,0,0,446.724,134.793Z" fill="#253044"/>
            <path id="Trazado_640127" data-name="Trazado 640127" d="M411.471,112.517a91.03,91.03,0,0,1,.054,9.939,3.05,3.05,0,0,1-.181,1.063,3.329,3.329,0,0,1-.609.849,26.132,26.132,0,0,0-5.091,8.8c-.974,2.865-1.331,6.347.641,8.642a6.768,6.768,0,0,0,5.5,2.082,14.259,14.259,0,0,0,5.756-1.837,33.25,33.25,0,0,0,14.709-15.54c-3.222-.723-5.545-3.713-6.444-6.891s-.634-6.553-.361-9.844q-6.781,1.637-13.593,3.15" fill="#fec091"/>
            <g id="Grupo_906540" data-name="Grupo 906540" style="mix-blend-mode: multiply;isolation: isolate">
              <path id="Trazado_640128" data-name="Trazado 640128" d="M411.609,120.092a23.761,23.761,0,0,0,13.662-3.567,40.9,40.9,0,0,1,.172-6.745q-6.781,1.637-13.593,3.149l-.379-.412Q411.7,116.3,411.609,120.092Z" fill="#e6dbd7"/>
            </g>
            <path id="Trazado_640129" data-name="Trazado 640129" d="M430.431,98.436a8.112,8.112,0,0,1,4.166-2.948,3.628,3.628,0,0,1,2.257-.073,2.74,2.74,0,0,1,1.674,2.649,3.867,3.867,0,0,1-1.566,2.84,6.732,6.732,0,0,1-3.084,1.218,4.365,4.365,0,0,1-2.962-.373,2.755,2.755,0,0,1-1.29-2.2" fill="#fec091"/>
            <path id="Trazado_640130" data-name="Trazado 640130" d="M404.677,77.632c-2.08,5.864-3.855,11.957-3.763,18.178s2.281,12.651,7.007,16.7a14.525,14.525,0,0,0,2.65,1.824c5.141,2.721,12.17,1.765,15.843-2.745a24.3,24.3,0,0,0,4.655-9.724c1.034-4.921.952-10.282.931-15.31a10.743,10.743,0,0,0-1.549-5.924c-1.743-2.693-5.271-6.1-8.417-6.732-3.988-.8-7.993.962-12.048,1.273-2.246.172-4.678.826-5.948,2.685" fill="#fec091"/>
            <path id="Trazado_640131" data-name="Trazado 640131" d="M398.142,86.147c4.212,1.1,8.761-.041,12.552-2.184s6.958-5.214,10.079-8.25A70.25,70.25,0,0,0,424.759,87.9c1.584,3.4,4.453,9.345,8.069,10.345,1.2-2.934,1.843-8.246,1.839-11.415a14.682,14.682,0,0,0-2.813-8.906,15.287,15.287,0,0,0-7.228-4.933,30.9,30.9,0,0,0-8.729-1.433c-4.192-.183-8.769.191-11.894,2.991-3.177,2.847-4.011,7.416-4.662,11.632" fill="#e98b67"/>
            <path id="Trazado_640132" data-name="Trazado 640132" d="M454.661,156.218c-.019-1.305-.049-2.611-.1-3.916a7.972,7.972,0,0,0-.371-2.872c-.77-1.741-3.011-2.187-4.7-2.449-4.253-.659-9.174.443-12.358,3.447a.7.7,0,0,0,.294,1.126c-.082,2.612.316,5.3.484,7.884q.306,4.713.5,9.431c.261,6.209.438,12.427.489,18.642a.723.723,0,0,0,.7.705,15.084,15.084,0,0,0,11.406-3.707,7.89,7.89,0,0,0,2.576-4.871c.339-2.567.486-5.176.653-7.758C454.578,166.667,454.738,161.441,454.661,156.218Z" fill="#fec091"/>
            <path id="Trazado_640133" data-name="Trazado 640133" d="M443.9,133.1s7.275,4.138,9.655,7.656,1.862,10.344,1.965,12.517a28.022,28.022,0,0,1-.207,4.448s-2-.414-7.9,1.035a46.242,46.242,0,0,0-10.242,3.62s-.931-7.758-1.551-12S437.69,132.172,443.9,133.1Z" fill="#253044"/>
            <g id="Grupo_906541" data-name="Grupo 906541">
              <path id="Trazado_640134" data-name="Trazado 640134" d="M415.964,94.439a3.016,3.016,0,0,0-.3,2.336,1.766,1.766,0,0,0,3.342-.293,3.2,3.2,0,0,0,.017-1.449c-.189-1.008-1.013-2.1-2.23-1.459a1.983,1.983,0,0,0-.713.673C416.039,94.31,416,94.374,415.964,94.439Z" fill="#253044"/>
            </g>
            <g id="Grupo_906542" data-name="Grupo 906542">
              <path id="Trazado_640135" data-name="Trazado 640135" d="M405.925,94.251a3.155,3.155,0,0,0-.008,2.355,1.671,1.671,0,0,0,3.136-.7,3.333,3.333,0,0,0-.154-1.439c-.3-.977-1.208-1.957-2.287-1.174a1.971,1.971,0,0,0-.6.755C405.982,94.113,405.952,94.182,405.925,94.251Z" fill="#253044"/>
            </g>
            <g id="Grupo_906543" data-name="Grupo 906543" style="mix-blend-mode: multiply;isolation: isolate">
              <path id="Trazado_640136" data-name="Trazado 640136" d="M411.722,93.671a7.673,7.673,0,0,0-.176,2.135c-.006.788.034,1.578.059,2.366a5.006,5.006,0,0,1,.036,1.139c-.042.178.022.118-.223.091-.2-.022-.4-.026-.594-.039-.763-.049-1.536-.04-2.292-.118a.27.27,0,0,0-.257.2,2.49,2.49,0,0,0,.828,2.653,3.213,3.213,0,0,0,1.371.654c.434.1,1.087.247,1.455-.046a.177.177,0,0,0-.035-.276c-.31-.172-.731-.062-1.079-.12a2.836,2.836,0,0,1-1.252-.523,2.083,2.083,0,0,1-.774-2.2l-.257.2c.845.036,1.7.168,2.547.237.314.026.719.133.989-.085a.937.937,0,0,0,.225-.795c-.007-.934-.019-1.87-.045-2.8a9.06,9.06,0,0,0-.3-2.661.118.118,0,0,0-.226,0Z" fill="#dfd1cc"/>
            </g>
            <path id="Trazado_640137" data-name="Trazado 640137" d="M420.206,103.532c-1.035.383-2.087.711-3.153.994-2.154.572-4.341,1.01-6.5,1.563v.01a6.026,6.026,0,0,0,5.873,3.436,5.512,5.512,0,0,0,3.6-2.643,10.726,10.726,0,0,0,1.7-3.926C421.216,103.168,420.7,103.35,420.206,103.532Z" fill="#253044"/>
            <g id="Grupo_906544" data-name="Grupo 906544">
              <path id="Trazado_640138" data-name="Trazado 640138" d="M404.609,91.76a4.056,4.056,0,0,1,.547-.615c.1-.1.2-.219.308-.319.054-.05.111-.1.168-.146.035-.028.067-.051.013-.011l.1-.07c.245-.173.517-.285.773-.436a3.4,3.4,0,0,1,.37-.191c.042-.018-.048.018.026-.01a.961.961,0,0,0,.171-.074,1.61,1.61,0,0,0,.2-.177.294.294,0,0,0-.059-.46,1.869,1.869,0,0,0-.24-.1.772.772,0,0,0-.3,0,4.153,4.153,0,0,0-.552.1,2.82,2.82,0,0,0-.987.57,3.124,3.124,0,0,0-.722.756,3.355,3.355,0,0,0-.369.947.306.306,0,0,0,.557.235Z" fill="#e98b67"/>
            </g>
            <g id="Grupo_906545" data-name="Grupo 906545">
              <path id="Trazado_640139" data-name="Trazado 640139" d="M417.381,91.044a2.011,2.011,0,0,1,.841.026c.082.02.163.045.242.072l.1.038c.029.011.027.01-.007,0l.106.045c.04.015.081.026.122.041,0,0,.132.051.05.017.072.03.142.065.211.1s.136.076.2.119c.03.019.059.04.088.06l.052.037c-.033-.026-.037-.029-.011-.008a2.625,2.625,0,0,1,.336.322c.023.027.046.054.068.082-.1-.12.137.169.077.1.05.057.107.109.158.166q.035.038.066.078c-.063-.078.126.148.074.1a.922.922,0,0,0,.234.147.285.285,0,0,0,.413-.168,1.216,1.216,0,0,0-.389-1.174,3.081,3.081,0,0,0-.943-.671,2.437,2.437,0,0,0-1.169-.241,2.772,2.772,0,0,0-1.1.288c-.252.126-.066.474.18.428Z" fill="#e98b67"/>
            </g>
            <path id="Trazado_640140" data-name="Trazado 640140" d="M413.653,107.3a14.785,14.785,0,0,0,3.139-.825,6.222,6.222,0,0,0,2.525-1.744,5.475,5.475,0,0,0,.723-1.141q-1.472.536-2.987.937c-2.154.572-4.341,1.01-6.5,1.563v.01a4.678,4.678,0,0,0,.807,1.278A8.83,8.83,0,0,0,413.653,107.3Z" fill="#fff"/>
          </g>
        </g>
      </g>
      <g id="Grupo_906549" data-name="Grupo 906549">
        <path id="Trazado_640142" data-name="Trazado 640142" d="M207,98.728,206.973,97l-.057-3.217c-.018-1.073-.013-2.144,0-3.218a8.865,8.865,0,0,0-.209-3.313.36.36,0,0,0-.573-.168,12.012,12.012,0,0,0-1.576-.032,5.629,5.629,0,0,1-2.607-.63c-1.667-1.007-2.46-3.285-2.648-5.111a29.376,29.376,0,0,0-.416-3.292c-.15-.686-.375-1.662-1.228-1.741-.718-.066-1.173.633-1.446,1.195a16.924,16.924,0,0,0-1.137,3.047,36.427,36.427,0,0,0-.825,3.749c-.054.352-.107.713-.156,1.078-.386-.02-.775-.028-1.169-.042-.955-.035-1.91-.075-2.865-.1a12.044,12.044,0,0,0-4.845.615c-1.193.488-2.612,1.591-1.992,3.048a3.12,3.12,0,0,0,1.789,1.508,3.928,3.928,0,0,0-1.272.7,1.976,1.976,0,0,0-.663,1.988,2.516,2.516,0,0,0,1.407,1.581c.114.053.234.091.351.133a3.1,3.1,0,0,0-1.33.9,1.762,1.762,0,0,0-.094,2.177,3.351,3.351,0,0,0,2.317,1.162,2,2,0,0,0-.565.662,1.718,1.718,0,0,0,.129,1.929,2.993,2.993,0,0,0,1.991.808,34.824,34.824,0,0,0,4.3.229,62.535,62.535,0,0,0,8.29-.4c1.344-.175,2.686-.38,4.018-.631a4.242,4.242,0,0,0,2.71-1.291.525.525,0,0,0,.223-.16A2.212,2.212,0,0,0,207,98.728Z" fill="#fff"/>
        <path id="Trazado_640143" data-name="Trazado 640143" d="M213.143,99.567c-.11-2.126-.124-4.259-.17-6.388a44.355,44.355,0,0,1,.234-6.8c.129-.931-6.389-.52-6.948-.522-.5,0-1.713-.233-2.073.263a1.559,1.559,0,0,0-.144.72c-.058.554-.122,1.108-.181,1.663a58.628,58.628,0,0,0-.046,13.148.475.475,0,0,0,.458.459,45.122,45.122,0,0,0,6.258.242c.545-.026,1.093-.052,1.637-.1a1.241,1.241,0,0,0,.822-.265C213.505,101.441,213.177,100.223,213.143,99.567Z" fill="#374586"/>
        <path id="Trazado_640144" data-name="Trazado 640144" d="M209.89,97.474a1.8,1.8,0,0,0-.109-.69,1.627,1.627,0,0,0-1.308-1.043A1.452,1.452,0,0,0,206.9,97.2c-.016,1.07,1.2,2.149,2.244,1.6A1.519,1.519,0,0,0,209.89,97.474Zm-1.449-.9h0Z" fill="#fff"/>
      </g>
      <g id="Grupo_906550" data-name="Grupo 906550">
        <path id="Trazado_640145" data-name="Trazado 640145" d="M268.881,450.392l-.03-1.732-.057-3.217c-.018-1.073-.014-2.144,0-3.217a8.891,8.891,0,0,0-.209-3.314.36.36,0,0,0-.573-.167,12.025,12.025,0,0,0-1.577-.032,5.654,5.654,0,0,1-2.606-.63c-1.667-1.007-2.46-3.286-2.648-5.111a29.381,29.381,0,0,0-.416-3.292c-.15-.686-.375-1.663-1.228-1.741-.719-.066-1.173.632-1.446,1.194a16.857,16.857,0,0,0-1.137,3.048,36.111,36.111,0,0,0-.825,3.749c-.054.352-.107.713-.156,1.077-.387-.019-.775-.028-1.169-.042-.955-.034-1.91-.075-2.865-.1a12.043,12.043,0,0,0-4.845.614c-1.193.489-2.612,1.592-1.992,3.049a3.122,3.122,0,0,0,1.789,1.507,3.928,3.928,0,0,0-1.272.7,1.975,1.975,0,0,0-.663,1.988,2.515,2.515,0,0,0,1.407,1.581c.114.053.233.09.351.133a3.085,3.085,0,0,0-1.33.9,1.763,1.763,0,0,0-.094,2.178,3.355,3.355,0,0,0,2.317,1.162,2,2,0,0,0-.565.661,1.718,1.718,0,0,0,.129,1.929,2.993,2.993,0,0,0,1.99.809,34.642,34.642,0,0,0,4.3.228,62.192,62.192,0,0,0,8.29-.4c1.344-.174,2.685-.379,4.017-.63a4.246,4.246,0,0,0,2.711-1.292.532.532,0,0,0,.223-.159A2.228,2.228,0,0,0,268.881,450.392Z" fill="#fff"/>
        <path id="Trazado_640146" data-name="Trazado 640146" d="M275.021,451.232c-.11-2.126-.124-4.26-.17-6.388a44.348,44.348,0,0,1,.234-6.8c.129-.931-6.389-.52-6.948-.522-.5,0-1.713-.233-2.073.262a1.559,1.559,0,0,0-.144.72c-.058.554-.122,1.108-.181,1.663a58.686,58.686,0,0,0-.047,13.148.476.476,0,0,0,.459.459,45.1,45.1,0,0,0,6.257.243c.546-.027,1.094-.052,1.638-.106a1.233,1.233,0,0,0,.822-.265C275.382,453.106,275.055,451.888,275.021,451.232Z" fill="#374586"/>
        <path id="Trazado_640147" data-name="Trazado 640147" d="M271.768,449.138a1.809,1.809,0,0,0-.109-.689,1.63,1.63,0,0,0-1.308-1.044,1.453,1.453,0,0,0-1.576,1.464c-.016,1.07,1.2,2.149,2.244,1.6A1.524,1.524,0,0,0,271.768,449.138Zm-1.449-.9h0Z" fill="#fff"/>
      </g>
      <g id="Grupo_906551" data-name="Grupo 906551">
        <path id="Trazado_640148" data-name="Trazado 640148" d="M380.03,276.406,380,274.673q-.028-1.608-.056-3.217c-.019-1.073-.014-2.144,0-3.217a8.906,8.906,0,0,0-.209-3.313.36.36,0,0,0-.573-.168,12.024,12.024,0,0,0-1.577-.032,5.658,5.658,0,0,1-2.607-.63c-1.666-1.007-2.46-3.286-2.648-5.111a29.148,29.148,0,0,0-.416-3.292c-.15-.686-.374-1.662-1.228-1.741-.718-.066-1.173.633-1.445,1.194a16.939,16.939,0,0,0-1.138,3.048,36.164,36.164,0,0,0-.824,3.749c-.054.352-.108.713-.157,1.078-.386-.02-.774-.028-1.168-.042-.955-.035-1.91-.075-2.865-.1a12.044,12.044,0,0,0-4.845.615c-1.193.488-2.613,1.591-1.993,3.048a3.121,3.121,0,0,0,1.79,1.507,3.928,3.928,0,0,0-1.272.7,1.976,1.976,0,0,0-.664,1.988,2.517,2.517,0,0,0,1.408,1.581c.114.053.233.091.351.133a3.085,3.085,0,0,0-1.33.9,1.762,1.762,0,0,0-.094,2.178,3.353,3.353,0,0,0,2.317,1.162,2.009,2.009,0,0,0-.566.662,1.72,1.72,0,0,0,.129,1.928,2.993,2.993,0,0,0,1.991.809,34.832,34.832,0,0,0,4.3.229,62.378,62.378,0,0,0,8.291-.4c1.344-.174,2.685-.379,4.017-.63A4.25,4.25,0,0,0,379.621,278a.53.53,0,0,0,.222-.16A2.219,2.219,0,0,0,380.03,276.406Z" fill="#fff"/>
        <path id="Trazado_640149" data-name="Trazado 640149" d="M386.17,277.245c-.11-2.126-.124-4.26-.171-6.388a44.6,44.6,0,0,1,.234-6.8c.13-.931-6.389-.52-6.947-.522-.505,0-1.713-.233-2.073.263a1.543,1.543,0,0,0-.144.719c-.059.555-.122,1.109-.181,1.663a58.637,58.637,0,0,0-.047,13.149.477.477,0,0,0,.459.459,45.252,45.252,0,0,0,6.257.242c.546-.027,1.094-.052,1.638-.105a1.239,1.239,0,0,0,.822-.266C386.531,279.119,386.2,277.9,386.17,277.245Z" fill="#374586"/>
        <path id="Trazado_640150" data-name="Trazado 640150" d="M382.917,275.151a1.812,1.812,0,0,0-.109-.689,1.627,1.627,0,0,0-1.308-1.043,1.451,1.451,0,0,0-1.576,1.463c-.016,1.07,1.2,2.149,2.243,1.6A1.524,1.524,0,0,0,382.917,275.151Zm-1.449-.9h-.007S381.473,274.256,381.468,274.255Z" fill="#fff"/>
      </g>
      <g id="Grupo_906552" data-name="Grupo 906552">
        <path id="Trazado_640151" data-name="Trazado 640151" d="M138,277.213l-.03-1.732q-.028-1.609-.056-3.217c-.019-1.073-.014-2.144,0-3.217a8.911,8.911,0,0,0-.209-3.314.36.36,0,0,0-.573-.167,11.862,11.862,0,0,0-1.577-.033,5.641,5.641,0,0,1-2.607-.629c-1.666-1.007-2.46-3.286-2.648-5.111a29.349,29.349,0,0,0-.416-3.292c-.15-.686-.374-1.663-1.228-1.741-.718-.067-1.173.632-1.445,1.194A16.938,16.938,0,0,0,126.071,259a36.046,36.046,0,0,0-.824,3.749c-.055.351-.108.713-.157,1.077-.386-.019-.775-.028-1.169-.042-.955-.034-1.909-.075-2.865-.1a12.036,12.036,0,0,0-4.844.614c-1.194.488-2.613,1.592-1.993,3.048a3.119,3.119,0,0,0,1.79,1.508,3.906,3.906,0,0,0-1.273.705,1.976,1.976,0,0,0-.663,1.987,2.512,2.512,0,0,0,1.408,1.581c.113.053.233.091.351.133a3.09,3.09,0,0,0-1.33.9,1.759,1.759,0,0,0-.094,2.177,3.345,3.345,0,0,0,2.317,1.162,2,2,0,0,0-.566.662,1.721,1.721,0,0,0,.129,1.929,2.988,2.988,0,0,0,1.991.808,34.839,34.839,0,0,0,4.3.229,62.382,62.382,0,0,0,8.291-.4c1.344-.175,2.685-.38,4.017-.631a4.24,4.24,0,0,0,2.711-1.291.529.529,0,0,0,.222-.159A2.216,2.216,0,0,0,138,277.213Z" fill="#fff"/>
        <path id="Trazado_640152" data-name="Trazado 640152" d="M144.143,278.053c-.111-2.127-.124-4.26-.171-6.388a44.492,44.492,0,0,1,.234-6.8c.129-.931-6.389-.52-6.948-.521-.5,0-1.712-.233-2.072.262a1.534,1.534,0,0,0-.144.72c-.059.554-.122,1.108-.182,1.663a58.686,58.686,0,0,0-.046,13.148.477.477,0,0,0,.459.459,45.1,45.1,0,0,0,6.257.242c.545-.026,1.094-.052,1.637-.105a1.235,1.235,0,0,0,.823-.265C144.5,279.927,144.177,278.708,144.143,278.053Z" fill="#374586"/>
        <path id="Trazado_640153" data-name="Trazado 640153" d="M140.89,275.959a1.809,1.809,0,0,0-.109-.689,1.628,1.628,0,0,0-1.309-1.044,1.451,1.451,0,0,0-1.575,1.464c-.016,1.069,1.2,2.148,2.243,1.6A1.525,1.525,0,0,0,140.89,275.959Zm-1.449-.9h0Z" fill="#fff"/>
      </g>
      <g id="Grupo_906564" data-name="Grupo 906564">
        <rect id="Rect치ngulo_295961" data-name="Rect치ngulo 295961" width="126.735" height="230.69" rx="11.739" transform="translate(190.184 134.172)" fill="#253044"/>
        <rect id="Rect치ngulo_295962" data-name="Rect치ngulo 295962" width="113.793" height="217.035" rx="10.798" transform="translate(196.655 141)" fill="#fff"/>
        <path id="Trazado_640154" data-name="Trazado 640154" d="M281.069,324.172c-2.483-13.517-4.69-18.275-4.69-18.275l-29.517-5.242c0,.138.125.99.346,2.366L227,303.966s-.552,14.137-1.379,30.137c-.7,13.553-1.006,21.737-1.083,23.931h26.813l2.176-25.881c.361,1.833.716,3.6,1.059,5.261,2.283,11.032,4.04,17.6,4.912,20.62h28.433C286.846,352.953,283.169,335.605,281.069,324.172Z" fill="#374586"/>
        <g id="Grupo_906563" data-name="Grupo 906563">
          <path id="Trazado_640155" data-name="Trazado 640155" d="M216.763,237.762c-.356-3.174-2.1-6.084-3.438-8.924a.46.46,0,0,0-.461-.266,2.219,2.219,0,0,0-1.5-.875c-2.184-.263-4.123,2.407-5.507,3.707-3.269,3.07-6.733,5.913-10.1,8.864-.016-.134-.034-.271-.048-.4q-.381-3.7-.835-7.383c-.423-3.419-.728-6.961-1.359-10.4a22.458,22.458,0,0,0,3.414-4.473c.978-1.71,2.178-4.305.852-6.14-1.212-1.676-3.262-.836-4.18.656a12.265,12.265,0,0,0-1.023,2.344,3.034,3.034,0,0,0-.372-.062,3.393,3.393,0,0,0-1.906.519,10.9,10.9,0,0,0-1.654,1.16,6.781,6.781,0,0,0-1.34,1.527.235.235,0,0,0,.078.342,102.886,102.886,0,0,0-3.333,19.531,55.656,55.656,0,0,0-.327,9.759c.217,2.687.686,5.8,2.266,8.061,3.329,4.772,9.868,2.856,14.1.63a55.278,55.278,0,0,0,7.5-4.836,40.922,40.922,0,0,0,6.125-5.392C215.661,243.5,217.1,240.782,216.763,237.762Z" fill="#fec091"/>
          <path id="Trazado_640156" data-name="Trazado 640156" d="M240.1,213.724a25.387,25.387,0,0,0-5.241-.517,26.81,26.81,0,0,0-15.828,5.069c-5.275,4.034-14.31,12.621-14.31,12.621s3.724,10.137,4.759,13.241,2.689,6.724,2.689,6.724l16.483-8.69Z" fill="#f4624d"/>
          <path id="Trazado_640157" data-name="Trazado 640157" d="M241.087,204.1a16.6,16.6,0,0,1-4.524,11.994,1.993,1.993,0,0,0-.49.671,1.584,1.584,0,0,0-.058.625,6.074,6.074,0,0,0,3.048,4.64,10.445,10.445,0,0,0,5.552,1.286,16.734,16.734,0,0,0,13.252-7.076,1.866,1.866,0,0,0,.376-.811,2.03,2.03,0,0,0-.176-.9,31.141,31.141,0,0,1-1.422-15.028,41.744,41.744,0,0,1-15.511,4.336" fill="#fec091"/>
          <g id="Grupo_906553" data-name="Grupo 906553" style="mix-blend-mode: multiply;isolation: isolate">
            <path id="Trazado_640158" data-name="Trazado 640158" d="M240.074,212.914a24.5,24.5,0,0,0,12.367-2.542,21.329,21.329,0,0,0,4.072-2.625,31.02,31.02,0,0,1,.132-8.246,41.744,41.744,0,0,1-15.511,4.336l-.047.265a16.568,16.568,0,0,1-2.119,8.69C239.337,212.837,239.705,212.89,240.074,212.914Z" fill="#e6dbd7"/>
          </g>
          <path id="Trazado_640159" data-name="Trazado 640159" d="M236.878,166.408c-3.855,7.117-4.955,15.375-5.029,23.438-.033,3.637.145,7.358,1.5,10.743s4.073,6.421,7.653,7.343c3.493.9,7.181-.3,10.442-1.827a20.886,20.886,0,0,0,5.091-3.139c2.783-2.47,4.354-6,5.375-9.545a42.149,42.149,0,0,0,.516-21.23c-.484-2.049-1.218-4.2-2.932-5.464a9.928,9.928,0,0,0-5.209-1.442,96.406,96.406,0,0,0-10.8-.211c-2.372.086-4.925.331-6.716,1.864" fill="#fec091"/>
          <path id="Trazado_640160" data-name="Trazado 640160" d="M261.017,189.425a10.393,10.393,0,0,1,2.043-2.035,5.519,5.519,0,0,1,3.376-1.273,2.89,2.89,0,0,1,2.763,2.015,3.74,3.74,0,0,1-.362,2.289,5.316,5.316,0,0,1-1.409,2.035,7.172,7.172,0,0,1-3.291,1.232,8.03,8.03,0,0,1-1.757.21,1.932,1.932,0,0,1-.865-.194,2.226,2.226,0,0,1-.939-1.756,7.539,7.539,0,0,1,.325-3.357" fill="#fec091"/>
          <g id="Grupo_906554" data-name="Grupo 906554">
            <path id="Trazado_640161" data-name="Trazado 640161" d="M247.793,183.6a3.332,3.332,0,0,0-.6,2.511c.4,1.8,2.954,1.816,3.644.081a3.531,3.531,0,0,0,.19-1.577c-.084-1.121-.845-2.407-2.235-1.858a2.171,2.171,0,0,0-.85.648C247.89,183.465,247.84,183.531,247.793,183.6Z" fill="#253044"/>
          </g>
          <g id="Grupo_906555" data-name="Grupo 906555">
            <path id="Trazado_640162" data-name="Trazado 640162" d="M237.052,182.187a3.668,3.668,0,0,0-.273,2.566c.548,1.739,2.843,1.42,3.279-.388a3.915,3.915,0,0,0,.005-1.588c-.194-1.1-1.013-2.278-2.2-1.554a2.1,2.1,0,0,0-.695.751Q237.106,182.079,237.052,182.187Z" fill="#253044"/>
          </g>
          <path id="Trazado_640163" data-name="Trazado 640163" d="M238.353,193.835a5.431,5.431,0,0,1,.953,4.127,3.8,3.8,0,0,0-.138,1.5c.217.949,1.317,1.394,2.285,1.495a7.629,7.629,0,0,0,6.443-2.545,2.807,2.807,0,0,0,.814-1.761,2.3,2.3,0,0,0-1.274-1.9,6.217,6.217,0,0,0-2.307-.6,50.568,50.568,0,0,0-6.44-.337" fill="#253044"/>
          <path id="Trazado_640164" data-name="Trazado 640164" d="M246.724,196.268a4.744,4.744,0,0,0-2.452,1.42,8.029,8.029,0,0,0-1.976,3.3,7.646,7.646,0,0,0,5.6-2.579,2.807,2.807,0,0,0,.814-1.761,1.693,1.693,0,0,0-.052-.3A5.347,5.347,0,0,0,246.724,196.268Z" fill="#f4624d"/>
          <g id="Grupo_906556" data-name="Grupo 906556" style="mix-blend-mode: multiply;isolation: isolate">
            <path id="Trazado_640165" data-name="Trazado 640165" d="M243.646,180.373a51.241,51.241,0,0,1-1.136,5.331,3.83,3.83,0,0,1-.991,1.853c-.724.619-1.632.218-2.477.33-1.274.168-1.876,1.461-.823,2.36a4.455,4.455,0,0,0,2.033.859,2.532,2.532,0,0,0,2.022-.162.149.149,0,0,0-.03-.234,1.7,1.7,0,0,0-.808-.134,5.219,5.219,0,0,1-1.281-.157c-.569-.143-1.637-.445-1.8-1.117-.217-.9,1.228-.8,1.723-.776a2.485,2.485,0,0,0,1.7-.411,5.2,5.2,0,0,0,1.5-3.01,18.5,18.5,0,0,0,.681-4.69c0-.173-.277-.223-.311-.042Z" fill="#d4c1bb"/>
          </g>
          <g id="Grupo_906557" data-name="Grupo 906557">
            <path id="Trazado_640166" data-name="Trazado 640166" d="M249.685,179.694a4.7,4.7,0,0,1,.92.212c.078.024.154.051.23.079.1.036-.037-.02.022.007l.108.05c.151.074.3.152.451.233.071.039.14.081.208.125l.1.068s.124.092.055.039.038.032.051.043c.037.031.073.063.109.1.059.054.113.115.172.17a2.319,2.319,0,0,0,.275.206c-.1-.067,0,0,.016.015s.06.051.09.078a2.9,2.9,0,0,0,.215.2.77.77,0,0,0,.188.094c.067.026-.033-.017.051.02a.3.3,0,0,0,.437-.178,1.2,1.2,0,0,0,.058-.294.978.978,0,0,0-.092-.341,2.375,2.375,0,0,0-.312-.615,3.152,3.152,0,0,0-1.026-.794,3.2,3.2,0,0,0-1.267-.334,2.5,2.5,0,0,0-1.213.253.306.306,0,0,0-.141.344.317.317,0,0,0,.294.224Z" fill="#753623"/>
          </g>
          <g id="Grupo_906558" data-name="Grupo 906558">
            <path id="Trazado_640167" data-name="Trazado 640167" d="M239.613,176.824c-.3-.049-.6-.1-.907-.129a3.181,3.181,0,0,0-.991.076,2.709,2.709,0,0,0-1.516.8,1.221,1.221,0,0,0-.373.987.518.518,0,0,0,.325.366c.006,0,.182.026.069.01l.05.007a.628.628,0,0,0,.388-.075c.2-.114.4-.252.606-.359l.068-.033c.115-.059-.02.005-.038.013.1-.041.2-.079.292-.127.045-.023.089-.048.135-.07l.091-.042c.089-.044-.13.047-.036.015.144-.051.287-.1.435-.141s.314-.062.466-.109c.311-.1.621-.2.936-.282a.478.478,0,0,0,.344-.452.47.47,0,0,0-.344-.452Z" fill="#753623"/>
          </g>
          <path id="Trazado_640168" data-name="Trazado 640168" d="M267.479,164.837a5.861,5.861,0,0,0-2.486-1.848,4.718,4.718,0,0,0-1.322-.289c-.9-.065-1.869.325-2.7-.151-.982-.559-1.5-1.933-2.249-2.754a8.136,8.136,0,0,0-2.886-2,8.4,8.4,0,0,0-6.63.1c-1.235.55-2.446,1.8-3.89,1.517-1.206-.236-2.076-1.29-3.017-2a4.373,4.373,0,0,0-5.61-.089c-2.034,1.588-2.538,4.423-2.5,6.861a12.126,12.126,0,0,0,.278,2.382c-.069.3-.129.6-.18.9-.214,1.252-.419,2.505-.629,3.757a55.717,55.717,0,0,0-1.1,8.189c-.011.473,2.453-6.323,3.728-9.114a17.006,17.006,0,0,0,6.238,2.483,35.406,35.406,0,0,0,8.223.67,33.65,33.65,0,0,0,7.007-.966,34.3,34.3,0,0,0,1.083,6.475,47.285,47.285,0,0,0,3.683,9.472.5.5,0,0,0,.856,0,30.889,30.889,0,0,0,3.58-7.8,46.722,46.722,0,0,0,2.054-8.4C269.324,169.7,269.141,166.91,267.479,164.837Z" fill="#753623"/>
          <g id="Grupo_906560" data-name="Grupo 906560">
            <path id="Trazado_640169" data-name="Trazado 640169" d="M342.8,212.021a7.43,7.43,0,0,0-1.424-5.922c-.508-.4-1.02-.815-1.537-1.2a5.9,5.9,0,0,0-4.316.551c-.075.044-.146.088-.231.131a35.3,35.3,0,0,0-9.386,7.287c-.025-.059-.05-.118-.073-.177q-.243-.615-.5-1.223-.537-1.259-1.145-2.487c-.324-.658-1.38-3.477-2.528-2.327a2.608,2.608,0,0,0-.51,1.718,13.3,13.3,0,0,0,.161,2.846c.107.69.256,1.378.425,2.062,0,.434.034.865.029,1.234-.013,1.161-.024,2.321,0,3.481.012.755.026,1.524.048,2.295-.308.552-.6,1.1-.873,1.6a57.593,57.593,0,0,1-7.5,10.653,74.7,74.7,0,0,1-7.846,7.417c-1.154-.748-2.3-1.513-3.414-2.318A55.3,55.3,0,0,1,296,232.495c-.255-.248-.6.072-.5.349q-2.023,4.322-4.048,8.642c-.653,1.4-1.316,2.785-1.96,4.184-.322.7-.626,1.408-.937,2.114a14.875,14.875,0,0,0-.746,1.743c-.1-.053-.208-.11-.312-.163a.258.258,0,0,0-.237.458c.153.093.305.189.457.282a.234.234,0,0,0,.3.184c3.853,2.368,7.7,4.837,11.721,6.9a14.746,14.746,0,0,0,5.462,1.793c2.016.163,3.321-.727,4.726-2.07,3.14-3,5.308-6.874,7.612-10.513,2.5-3.94,5.03-7.864,7.288-11.946,1.278-2.31,2.577-4.611,3.815-6.942.5-.944,1.035-1.909,1.54-2.89.732-.568,1.439-1.176,2.159-1.759,1.56-1.264,3.17-2.657,4.7-3.966C337.91,218.147,342.439,213.771,342.8,212.021Z" fill="#fec091"/>
            <g id="Grupo_906559" data-name="Grupo 906559" style="mix-blend-mode: multiply;isolation: isolate">
              <path id="Trazado_640170" data-name="Trazado 640170" d="M333.959,209.542c.795-.666,1.189-.781,1.963-1.471a28.294,28.294,0,0,1,2.44-2,6.551,6.551,0,0,1,1.488-.832c.091-.034.19-.076.289-.112-.1-.075-.2-.156-.3-.229-.1-.036-.193-.057-.291-.084-.409.333-.835.634-1.274.93a21.068,21.068,0,0,0-2.577,1.974c-.8.746-1.178.885-2,1.617q-.545.489-1.059,1.008a6.429,6.429,0,0,0-1.07,1.216c-.043.074.059.152.124.1a9.9,9.9,0,0,0,.969-.953Q333.292,210.1,333.959,209.542Z" fill="#d4c1bb"/>
              <path id="Trazado_640171" data-name="Trazado 640171" d="M333.223,213.458c-.124.11.017.323.151.215,1.722-1.384,3.5-2.414,5.125-3.907q1.223-1.121,2.511-2.168c.3-.242.6-.477.9-.712-.081-.138-.169-.27-.259-.4-.273.212-.548.423-.817.64q-1.332,1.074-2.6,2.229C336.577,210.875,334.909,211.963,333.223,213.458Z" fill="#d4c1bb"/>
              <path id="Trazado_640172" data-name="Trazado 640172" d="M342.835,210.207l.076-.054q-.027-.375-.09-.748c-.092.071-.186.147-.276.216-.857.657-1.714,1.329-2.518,2.05-1.605,1.44-3.589,2.795-5.255,4.159-.082.068.01.2.1.137,1.708-1.3,3.876-2.4,5.53-3.769C341.209,211.531,342,210.849,342.835,210.207Z" fill="#d4c1bb"/>
            </g>
          </g>
          <path id="Trazado_640173" data-name="Trazado 640173" d="M236.931,213.483s-1.1,4.827,3.034,7.034,9.242.828,12.966-1.241a13.265,13.265,0,0,0,5.136-4.747s10.312-4.357,19.554,1.574,21.1,17.518,21.1,17.518l-10.345,18.758-12.551-6.069s-.138,21.931.689,37.242a131.043,131.043,0,0,0,3.724,25.655s-13.655.827-24.965.827-29.242-1.241-29.242-1.241-2.482-50.759-.689-68.69,3.172-24.551,4.827-26.069S236.931,213.483,236.931,213.483Z" fill="#f4624d"/>
          <g id="Grupo_906561" data-name="Grupo 906561">
            <path id="Trazado_640174" data-name="Trazado 640174" d="M193.68,197.589a28.707,28.707,0,0,1-1.1,7.262c-.947,3.927-2,8.048-4.779,10.977a15.084,15.084,0,0,0-1.733,1.9,2.739,2.739,0,0,0-.436,2.438c.525,1.362,2.374,1.658,3.779,1.263,3.236-.91,5.269-4.046,6.827-7.026a88.294,88.294,0,0,0,6.148-14.956,1.288,1.288,0,0,0,.076-.73,1.209,1.209,0,0,0-.547-.6,8.273,8.273,0,0,0-8-.548" fill="#374586"/>
            <path id="Trazado_640175" data-name="Trazado 640175" d="M187.671,162.083a20.188,20.188,0,0,0,9.674,10.572c7.586,4,7.724,4.276,12.552,4.966s8.482,2.379,9.931,7.862c1.506,5.7-.276,11.724-4.552,14.483s-9.517,1.379-10.9.965a25.165,25.165,0,0,0-10.345-1.379A40.748,40.748,0,0,0,179,203.276a53.838,53.838,0,0,1-4.983,2.407s-2.327-4.752-1.086-14.131,5.517-21.38,6.207-22.345S184.893,158.683,187.671,162.083Z" fill="#fcd53d"/>
            <path id="Trazado_640176" data-name="Trazado 640176" d="M187.671,162.083c-.955-2.4-2.613-4.117-5.43-3.8a6.642,6.642,0,0,0-3.306,1.586c-4.517,3.626-7.033,9.512-8.882,14.87a51.644,51.644,0,0,0-2.544,23.432c.418,3.256,1.91,9.488,6.508,7.513,3.052-1.312,5.235-4.765,6.9-7.488a56.428,56.428,0,0,0,7.887-25.863C188.965,169.886,188.968,165.348,187.671,162.083Z" fill="#374586"/>
            <path id="Trazado_640177" data-name="Trazado 640177" d="M210.828,177.77c-.306-.054-.616-.1-.932-.149a25.453,25.453,0,0,1-3.967-.783,18.511,18.511,0,0,1,.89,3.55,22.344,22.344,0,0,1-.515,7.495,29.144,29.144,0,0,1-2.242,6.578,24.86,24.86,0,0,1-3.179,5.082c-.1.124-.208.246-.313.368a26.77,26.77,0,0,1,3.809,1.02c.205.061.5.145.862.232.239-.219.472-.444.7-.68a21.126,21.126,0,0,0,2.437-3.128,27.06,27.06,0,0,0,3.8-10.411A14.269,14.269,0,0,0,210.828,177.77Z" fill="#374586"/>
            <path id="Trazado_640178" data-name="Trazado 640178" d="M183.116,192.867c-1.48-2.571-5.055-5.4-7.409-7.2a.559.559,0,0,1-.254-.323.565.565,0,0,1,.1-.339,16.449,16.449,0,0,0,2.428-8.881,21.425,21.425,0,0,0,9.629-.182l-.888,4.193a39.178,39.178,0,0,1-2.3,8,11.239,11.239,0,0,0-1.4,4.105" fill="#fcd53d"/>
            <path id="Trazado_640179" data-name="Trazado 640179" d="M179.578,177.439a2.09,2.09,0,0,0-2.359-1.451,2.627,2.627,0,0,0-1.209.745,8.194,8.194,0,0,0-2.066,5.343c-.051,1.293.033,3.257,1.659,3.547s2.867-1.688,3.451-2.929a8.043,8.043,0,0,0,.639-4.922C179.657,177.662,179.619,177.55,179.578,177.439Z" fill="#fff"/>
            <path id="Trazado_640180" data-name="Trazado 640180" d="M187.671,162.083c-.955-2.4-2.613-4.117-5.43-3.8a6.642,6.642,0,0,0-3.306,1.586c-4.517,3.626-7.033,9.512-8.882,14.87a51.644,51.644,0,0,0-2.544,23.432c.418,3.256,1.91,9.488,6.508,7.513,3.052-1.312,5.235-4.765,6.9-7.488a56.428,56.428,0,0,0,7.887-25.863C188.965,169.886,188.968,165.348,187.671,162.083Zm-.9,10.368a54.048,54.048,0,0,1-6.71,23.557c-1.419,2.48-3.614,6.606-6.21,7.8-3.912,1.8-5.181-3.877-5.537-6.842a54.955,54.955,0,0,1,2.5-22.323c1.573-4.881,4.223-10.531,8.066-13.833a5.5,5.5,0,0,1,2.812-1.444c2.4-.288,3.807,1.273,4.619,3.462C187.414,165.8,186.9,170.224,186.767,172.451Z" fill="#fff"/>
          </g>
          <path id="Trazado_640181" data-name="Trazado 640181" d="M196.184,215.169a5.285,5.285,0,0,0,.836-3.348c-.044-1.172-.293-2.327-.372-3.5a3.252,3.252,0,0,1,.146-1.426,1.345,1.345,0,0,1,1.052-.883,1.632,1.632,0,0,1,1.385.833,4.831,4.831,0,0,1,.741,2.914,11.5,11.5,0,0,1-.614,2.986c-.71,2.254-1.764,4.6-3.817,5.773a5.059,5.059,0,0,1,.824-2.3" fill="#fec091"/>
          <path id="Trazado_640182" data-name="Trazado 640182" d="M195.443,207.23a7.241,7.241,0,0,0-1.6-1.66,7.362,7.362,0,0,0-2.809-1.084,6.961,6.961,0,0,0-1.293-.161,5.284,5.284,0,0,0-4.024,2.016A8.44,8.44,0,0,0,184,210.6a8.737,8.737,0,0,0,.931,5.555,13.648,13.648,0,0,0,1.021,1.441c.041.053.065.079.105.131.069-.09.6-.736.755-.906.281-.32.92-.929.928-.935a2.691,2.691,0,0,1,.39-.469,3.939,3.939,0,0,1,2.87-.8,2.646,2.646,0,0,1,.918.247,4.365,4.365,0,0,0,.706.371,1.206,1.206,0,0,0,1.207-.393,1.872,1.872,0,0,0,.421-1.242.629.629,0,0,1,.35-.659,1.65,1.65,0,0,0,.655-1.164,2.052,2.052,0,0,1,.018-.4,2.235,2.235,0,0,1,.376-.6,2.044,2.044,0,0,0,.212-1.093C195.863,208.738,196.051,208.051,195.443,207.23Z" fill="#fec091"/>
          <g id="Grupo_906562" data-name="Grupo 906562" style="mix-blend-mode: multiply;isolation: isolate">
            <path id="Trazado_640183" data-name="Trazado 640183" d="M194.267,213.061c-.268-.2-.54-.394-.821-.573a10.98,10.98,0,0,0-5.713-1.663.132.132,0,0,0,0,.264,8.956,8.956,0,0,1,3.761.86,9.234,9.234,0,0,1,1.6.995,6.917,6.917,0,0,1,.671.586c.154.155.3.31.456.444a2.238,2.238,0,0,0,.031-.365.9.9,0,0,1,.028-.3.478.478,0,0,1,.106-.158C194.345,213.123,194.308,213.092,194.267,213.061Z" fill="#d4c1bb"/>
            <path id="Trazado_640184" data-name="Trazado 640184" d="M195.4,211.146l-.007-.007a9.5,9.5,0,0,0-.869-.8,9.727,9.727,0,0,0-1.957-1.236,10.491,10.491,0,0,0-4.456-1.006.2.2,0,0,0,0,.4,9.055,9.055,0,0,1,4.282,1.132,9.948,9.948,0,0,1,1.77,1.234,9.523,9.523,0,0,1,.794.788,2.65,2.65,0,0,0,.272.283,1.317,1.317,0,0,0,.027-.155,2.052,2.052,0,0,1,.018-.4A.778.778,0,0,1,195.4,211.146Z" fill="#d4c1bb"/>
            <path id="Trazado_640185" data-name="Trazado 640185" d="M195.843,208.968a9.336,9.336,0,0,0-2.815-2.053,7.563,7.563,0,0,0-4.035-.76c-.21.02-.218.343,0,.334a7.575,7.575,0,0,1,3.79.845,9.44,9.44,0,0,1,2.743,2.289c.068.081.188.255.327.41.007-.112.01-.224.01-.335,0-.245.012-.473.02-.689Z" fill="#d4c1bb"/>
          </g>
        </g>
      </g>
      <g id="Grupo_906574" data-name="Grupo 906574">
        <path id="Trazado_640186" data-name="Trazado 640186" d="M172.379,442.448s-5.241.276-16-6.62-12.965-11.862-12.965-11.862,20.414-9.656,28.414-43.311S157.483,304.517,115,296.793s-67.586,12.138-78.069,49.655,9.379,66.483,25.379,77.518,36.966,11.586,43.862,12.137a42.631,42.631,0,0,0,13.518-1.379s9.517,8.552,27.31,10.621S172.379,442.448,172.379,442.448Z" fill="#fff"/>
        <g id="Grupo_906573" data-name="Grupo 906573" clip-path="url(#clip-path-3)">
          <g id="Grupo_906572" data-name="Grupo 906572">
            <path id="Trazado_640187" data-name="Trazado 640187" d="M86.328,352.807a36.4,36.4,0,0,1,.153,8.092,12.236,12.236,0,0,1-3.3,7.244,9.87,9.87,0,0,0,6.425,2.946c1.71.17,6.215,9.254,8.719,8.877,1.009-.153-.345-8.661.81-9.38,1-.625,1.115-2.065,1.283-3.236a52.752,52.752,0,0,0,.372-12.074c-4.949,1.06-9.724.011-14.234-2.287" fill="#ffb5a8"/>
            <path id="Trazado_640188" data-name="Trazado 640188" d="M164.843,357.814c-.4-.511-1.08-.13-1.48.142a32.524,32.524,0,0,0-3.533,2.788c.488-.787.933-1.6,1.368-2.388a19.573,19.573,0,0,0,2.2-4.743c.121-.5.33-1.318-.173-1.691-.566-.42-1.2.2-1.6.562a46.537,46.537,0,0,0-4.284,5.792c.392-.824,1.092-2.521,1.492-3.323a16.29,16.29,0,0,0,1.854-5.093c.068-.511.2-1.3-.4-1.567s-1.259.492-1.623.855c-1.238,1.23-4.019,7.6-4.154,7.852.214-.873,1.245-4.481,1.429-5.356a5.833,5.833,0,0,0,.06-3.181c-.2-.5-.659-.972-1.153-.561a7.513,7.513,0,0,0-1.549,2.872c-.7,1.711-1.329,3.452-1.928,5.2-.744,2.169-1.415,4.356-2,6.568a18.727,18.727,0,0,0-2.175-2.465c-.558-.54-3.292-3.067-3.625-1.04a3.427,3.427,0,0,0,.212,1.362q.258.987.6,1.95c.374,1.067.96,2.077,1.416,3.186.954,2.316,2.493,4.147,1.33,6.778a.128.128,0,0,0,0,.072c-.107-.014-.215.1-.145.2a7.414,7.414,0,0,0,3.056,2.243,11.736,11.736,0,0,0,3.8,1.038q.48.048.963.056c.258,0,.666.07.884-.111.156-.129.157-.236.087-.318,0-.008.012-.01.015-.02.327-1.287.6-2.577.817-3.887q.157-.942.289-1.887c.22-.226.422-.479.619-.7.482-.535.945-1.088,1.4-1.648.969-1.192,1.909-2.409,2.836-3.634a28.233,28.233,0,0,0,2.6-3.882C164.592,359.356,165.258,358.348,164.843,357.814Z" fill="#ffb5a8"/>
            <path id="Trazado_640189" data-name="Trazado 640189" d="M157.64,374.724a.446.446,0,0,0-.661-.366.558.558,0,0,0-.205-.057,17.085,17.085,0,0,1-9.694-3.718.415.415,0,0,0-.683.181,133.773,133.773,0,0,1-5.184,14.939,65.174,65.174,0,0,1-5.012,9.937c-.89-.941-1.949-1.768-2.859-2.652q-2.029-1.97-3.926-4.061-3.979-4.383-7.521-9.139c-1.939-2.606-3.466-5.643-6.577-6.99-3.793-1.641-7.815-2.888-11.709-4.271a.277.277,0,0,0-.217-.1,16.664,16.664,0,0,0-1.766.191q-.89.111-1.778.241c-1.107.162-2.195.369-3.284.619a.389.389,0,0,0-.555.427,36,36,0,0,1,1.2,7.606c-.283-.923-.56-1.849-.856-2.769-.259-.8-.54-1.6-.818-2.4a10.812,10.812,0,0,0-.874-2.213.188.188,0,0,0-.2-.216,17,17,0,0,1-10.752-2.66.478.478,0,0,0-.5,0,108.463,108.463,0,0,1-11.175,7.294c-3.579,2.033-7.274,3.833-10.348,6.628a11.332,11.332,0,0,0-3.145,4.489,31,31,0,0,0-1.265,6.4q-.937,6.715-1.431,13.482c-.387,5.339-.613,10.713-.5,16.067a.577.577,0,0,0,.767.536,21.494,21.494,0,0,0,5.183,5.623,21,21,0,0,0,7.355,3.327.545.545,0,0,0,.485-.109.328.328,0,0,0,.419-.2,69.58,69.58,0,0,0,2-12.45q-.034,1.512-.013,3.029c.031,2,.138,3.995.361,5.981q.152,1.34.37,2.672a6.421,6.421,0,0,0,.329,1.6A.482.482,0,0,0,72.8,432c.042.032.087.059.129.091.026.025.047.053.075.077a.269.269,0,0,0,.11.053c5.913,4.316,14.126,5.03,21.2,5.472a92.521,92.521,0,0,0,24.35-1.741c.094.233.176.472.28.7.224.49.9.118.814-.343-.4-2.25-.982-4.448-1.307-6.717-.339-2.367-.54-4.748-.688-7.134-.281-4.556-.483-9.118-.719-13.676q-.127-2.453-.254-4.9a58,58,0,0,0,7.942,5.48c4.1,2.34,8.719,4.578,13.572,3.9,4.27-.6,7.479-3.738,9.72-7.25a42.045,42.045,0,0,0,3.009-6.506c1-2.407,1.892-4.865,2.722-7.336.945-2.81,2.023-5.578,2.7-8.47A30.546,30.546,0,0,0,157.64,374.724Z" fill="#374586"/>
            <g id="Grupo_906565" data-name="Grupo 906565" style="mix-blend-mode: multiply;isolation: isolate">
              <path id="Trazado_640190" data-name="Trazado 640190" d="M88.414,359.17a16.137,16.137,0,0,0,8.448,2.949,12.775,12.775,0,0,0,4.073-.425,44.9,44.9,0,0,0-.142-6.418c-4.949,1.06-9.724.011-14.234-2.287l-.231-.182c.15,1.609.284,3.227.306,4.842A13.578,13.578,0,0,0,88.414,359.17Z" fill="#eee7e5"/>
            </g>
            <path id="Trazado_640191" data-name="Trazado 640191" d="M83.212,340.929a18.937,18.937,0,0,0-3.195-2.63,3.434,3.434,0,0,0-3.881.154,2.827,2.827,0,0,0-.772,2.537,4.3,4.3,0,0,0,1.366,2.347,6.88,6.88,0,0,0,7.364.962" fill="#ffb5a8"/>
            <path id="Trazado_640192" data-name="Trazado 640192" d="M81.843,321.233a55.64,55.64,0,0,0,.73,26.429,21.005,21.005,0,0,0,2.063,5.238,13.366,13.366,0,0,0,15.237,5.658c4.633-1.546,8.075-5.662,9.836-10.217s2.049-9.542,2.006-14.426a17.087,17.087,0,0,0-2.646-9.674,11.3,11.3,0,0,0-8-4.731,30.168,30.168,0,0,0-9.823.757,57.026,57.026,0,0,1-9.767,1.522" fill="#ffb5a8"/>
            <g id="Grupo_906566" data-name="Grupo 906566">
              <path id="Trazado_640193" data-name="Trazado 640193" d="M93.4,337.717a3.2,3.2,0,0,0,.114,2.333c.759,1.465,2.847.821,2.993-.861a3.377,3.377,0,0,0-.224-1.418c-.338-.952-1.267-1.874-2.27-1.042a1.974,1.974,0,0,0-.538.78C93.449,337.577,93.423,337.647,93.4,337.717Z" fill="#253044"/>
            </g>
            <g id="Grupo_906567" data-name="Grupo 906567">
              <path id="Trazado_640194" data-name="Trazado 640194" d="M103.664,337.477a2.947,2.947,0,0,0,.1,2.15,1.484,1.484,0,0,0,2.759-.793,3.115,3.115,0,0,0-.206-1.307c-.311-.878-1.168-1.728-2.092-.961a1.8,1.8,0,0,0-.5.719C103.708,337.348,103.685,337.412,103.664,337.477Z" fill="#253044"/>
            </g>
            <path id="Trazado_640195" data-name="Trazado 640195" d="M117.948,319.85c-1-.1-1.982-.35-2.975-.481-.652-.085-1.31-.153-1.968-.208a8.81,8.81,0,0,0,.933-.415c.856-.447,2.741-1.44,1.984-2.641-.883-1.4-2.953-2.255-4.465-2.7a24.541,24.541,0,0,0-6.195-.851,31.4,31.4,0,0,0-12.9,2.573,37.938,37.938,0,0,0-5.507,2.889q-1.275.8-2.495,1.684c-.173.125-.353.25-.528.381a16.407,16.407,0,0,0-1.053-2.661c-.488-1.115-.958-2.253-1.491-3.346a.475.475,0,0,0-.86.112,9.418,9.418,0,0,0,.144,4.627,6.094,6.094,0,0,0,.318.741,7.655,7.655,0,0,0-1.578-.825,12.077,12.077,0,0,0-2.648-.71c-.335-.051-.729.21-.6.6a7.7,7.7,0,0,0,2.65,3.706c-.092.417-.134.854-.185,1.26-.1.8-.16,1.606-.2,2.41a35.525,35.525,0,0,0,.131,5.178,33.672,33.672,0,0,0,.863,4.882,13.655,13.655,0,0,0,1.741,4.566.4.4,0,0,0,.4.033c.994-1.091,1.472-2.994,1.906-4.375a33.815,33.815,0,0,0,1.288-5.2,33.2,33.2,0,0,0,.35-5.137c-.009-.847-.062-1.691-.151-2.533a20.407,20.407,0,0,0,5.825,2.208,68,68,0,0,0,9.016,1.915,36.3,36.3,0,0,0,8.928.227,19.609,19.609,0,0,0,4.089-.871,8.381,8.381,0,0,0,2.5-1.25c.331-.26,1.035-.9.979-1.384-.054-.461-.873-.895-1.215-1.111a8.67,8.67,0,0,0-1.859-.847,16.1,16.1,0,0,0,2.384-.663,10.209,10.209,0,0,0,2.584-1.24A.3.3,0,0,0,117.948,319.85Z" fill="#8b5646"/>
            <g id="Grupo_906568" data-name="Grupo 906568">
              <path id="Trazado_640196" data-name="Trazado 640196" d="M92.073,334.9c.046-.073.092-.144.142-.214l.061-.083c-.062.082.01-.01.023-.025a3.82,3.82,0,0,1,.333-.352c.056-.053.114-.1.173-.154l.1-.081c-.068.053-.036.029.015-.007a3.981,3.981,0,0,1,.41-.259c.135-.074.272-.148.409-.216.039-.019.077-.038.116-.055.139-.064,0-.006,0,0s.2-.074.216-.081a4.3,4.3,0,0,1,.469-.13,2.263,2.263,0,0,0,.569-.229.593.593,0,0,0-.14-1.071,1.55,1.55,0,0,0-.771-.038,3.593,3.593,0,0,0-.519.143,3.885,3.885,0,0,0-1.053.524,4.657,4.657,0,0,0-1.484,1.786.539.539,0,1,0,.931.544Z" fill="#8b5646"/>
            </g>
            <g id="Grupo_906569" data-name="Grupo 906569">
              <path id="Trazado_640197" data-name="Trazado 640197" d="M105.1,333.164c.127.014-.036-.007.035,0l.1.017c.064.012.128.027.191.044s.139.04.207.064l.093.034c.087.031-.038-.02.013,0a3.683,3.683,0,0,1,.347.181c.062.038.123.078.182.12a.356.356,0,0,0,.065.047l-.04-.031.046.037c.081.065.166.125.25.185s-.067-.057-.011-.009l.076.063c.1.087.188.186.284.278a1.9,1.9,0,0,0,.249.177.853.853,0,0,0,.091.065c-.026.005-.079-.064,0,0a1.033,1.033,0,0,0,.25.182.69.69,0,0,0,.254.04.318.318,0,0,0,.273-.157.545.545,0,0,0,.1-.3,1.021,1.021,0,0,0-.065-.283,1.741,1.741,0,0,0-.293-.589,2.565,2.565,0,0,0-.322-.3,2.3,2.3,0,0,0-.47-.322,3.566,3.566,0,0,0-2-.3.37.37,0,0,0-.269.411.382.382,0,0,0,.368.325Z" fill="#8b5646"/>
            </g>
            <g id="Grupo_906570" data-name="Grupo 906570" style="mix-blend-mode: multiply;isolation: isolate">
              <path id="Trazado_640198" data-name="Trazado 640198" d="M101.239,334.389a46.857,46.857,0,0,0-.572,5.793c-.033.661-.3,1.713.146,2.288s1.387.284,1.98.258c.477-.021.957-.019,1.435-.011.315,0,1.222-.121,1.416.241.316.591-.76,1.576-1.138,1.886a4.268,4.268,0,0,1-2.1.843c-.683.1-1.477-.192-2.1.092a.507.507,0,0,0-.1.791c.528.555,1.653.341,2.324.186a5.928,5.928,0,0,0,2.047-1.009c.835-.578,2.572-2.27,1.55-3.37-.528-.568-1.648-.364-2.334-.356-.551.006-1.1.021-1.655.039-.2.007-.595.1-.748-.1-.11-.146.021-.7.035-.859a53.434,53.434,0,0,0,.3-6.644c-.009-.263-.433-.351-.483-.065Z" fill="#d0bbb4"/>
            </g>
            <path id="Trazado_640199" data-name="Trazado 640199" d="M103.646,349.776c-1.8-.43-3.6-.857-5.405-1.232-.889-.184-1.779-.356-2.675-.5a20.825,20.825,0,0,0-2.681-.391c-.323-.011-.253.3-.168.555a11.127,11.127,0,0,0,1.7,3.545,5.693,5.693,0,0,0,3.483,2.275,5.273,5.273,0,0,0,5.948-3.885A.3.3,0,0,0,103.646,349.776Z" fill="#253044"/>
            <path id="Trazado_640200" data-name="Trazado 640200" d="M95.46,349.5a19.4,19.4,0,0,0,3.377,1.133c.7.1,1.417.1,2.126.157a3.669,3.669,0,0,0,1.294-.294,3.767,3.767,0,0,0,.962-.629c.054-.049.1-.1.151-.157-1.705-.408-3.412-.811-5.129-1.167-.889-.184-1.779-.356-2.675-.5-.428-.071-.864-.158-1.3-.233A2.577,2.577,0,0,0,95.46,349.5Z" fill="#fff"/>
            <g id="Grupo_906571" data-name="Grupo 906571">
              <path id="Trazado_640201" data-name="Trazado 640201" d="M94.481,369.677A14.22,14.22,0,0,1,84,365.885a.375.375,0,0,0-.672-.114,17.072,17.072,0,0,1-4.547,4.409,15.272,15.272,0,0,0,4.919,5.554,25.868,25.868,0,0,0,3.881,2.331,19.629,19.629,0,0,0,2.274.944c.71.241,1.475.395,2.174.682.949-3.176,1.913-6.346,2.813-9.537A.38.38,0,0,0,94.481,369.677Z" fill="#838cb4"/>
              <path id="Trazado_640202" data-name="Trazado 640202" d="M102.762,377.646a15.27,15.27,0,0,0,3.265-5.3,30.345,30.345,0,0,0,1-3.311,15.681,15.681,0,0,0,.31-1.588c-.462-.256-.928-.505-1.4-.742a25.107,25.107,0,0,0-3.24-1.335.451.451,0,0,0-.452.119,11.592,11.592,0,0,1-5.674,3.842c-.166.046-.771.2-.662.34,1.3,1.71,3.08,3.6,4.483,5.221l2.169,2.509C102.624,377.469,102.691,377.555,102.762,377.646Z" fill="#838cb4"/>
            </g>
          </g>
        </g>
      </g>
      <g id="Grupo_906583" data-name="Grupo 906583">
        <path id="Trazado_640204" data-name="Trazado 640204" d="M310.586,412.379s7.448,4.414,20.414,3.587,16.828-3.587,16.828-3.587,9.655,24,49.1,25.38S465.9,411.552,466.172,369.9s-27.31-64.552-62.344-66.207-62.069,21.241-66.759,47.172a83.223,83.223,0,0,0,5.241,46.621,26.465,26.465,0,0,1-14.345,10.483A175.358,175.358,0,0,1,310.586,412.379Z" fill="#fff"/>
        <g id="Grupo_906582" data-name="Grupo 906582" clip-path="url(#clip-path-4)">
          <g id="Grupo_906581" data-name="Grupo 906581">
            <path id="Trazado_640205" data-name="Trazado 640205" d="M384.893,345.946c-.839-.77-3.527-.694-3.915.546a.225.225,0,0,0,.1.251.991.991,0,0,0,.136.046,28.681,28.681,0,0,0-1.58,3.947,31,31,0,0,0-.86,4.692,20.17,20.17,0,0,0-.137,4.729,9.97,9.97,0,0,0,1.052,4.189.177.177,0,0,0,.322-.135c-.023-.105-.056-.209-.085-.313,1.528-4.25,3-8.5,4.294-12.833.323-1.081.685-2.158.97-3.249A1.768,1.768,0,0,0,384.893,345.946Z" fill="#303a4d"/>
            <path id="Trazado_640206" data-name="Trazado 640206" d="M404.794,374.284c1.551.946,1.654,3.118,1.122,4.81s-1.519,3.294-1.552,5.061a6.343,6.343,0,0,0,2.992,5.124,13.926,13.926,0,0,0,5.943,2,30.261,30.261,0,0,0,9.554-.2,11.81,11.81,0,0,0,5.876-2.472c1.583-1.424,2.427-3.772,1.526-5.668a12.012,12.012,0,0,0-2.425-2.831,3.93,3.93,0,0,1-1.361-3.3,4.57,4.57,0,0,1,2.36-2.608c3.132-1.945,6.786-3.7,8.23-7.01,1.526-3.5-.027-7.6-2.454-10.584s-5.664-5.279-8.219-8.166a8,8,0,0,1-1.619-2.467c-.693-1.89-.105-3.96.3-5.928.9-4.4.633-9.444-2.543-12.733a9.926,9.926,0,0,0-7.669-2.919,9.811,9.811,0,0,0-7.183,3.9,14.244,14.244,0,0,0-2.3,7.586,33.344,33.344,0,0,0,.712,9.3,22.579,22.579,0,0,1,.882,5.331c-.11,4.581-3.872,8.418-4.472,12.964-.48,3.639,1.119,7.2,2.682,10.548" fill="#253044"/>
            <path id="Trazado_640207" data-name="Trazado 640207" d="M390.6,383.692a37.557,37.557,0,0,1-.447,7.145c-.206,1.3-.612,2.762-1.8,3.329a4.331,4.331,0,0,1-1.879.283l-6.531.009c-.724,3.158-1.449,6.46-.659,9.6A10.577,10.577,0,0,0,388.3,411.8c3.165.3,6.282-.867,9.145-2.253a24.778,24.778,0,0,0,4.134-2.416c4.157-3.122,6.529-8.121,7.752-13.173.1-.419.158-.95-.2-1.2a1.074,1.074,0,0,0-.7-.114c-2.491.188-5.034.969-7.436.282a1.168,1.168,0,0,1-.539-.276,1.28,1.28,0,0,1-.235-.889l-.108-9.735a1.408,1.408,0,0,0-.21-.884,1.325,1.325,0,0,0-.881-.375,10.972,10.972,0,0,0-7.747,1.892" fill="#ffa393"/>
            <g id="Grupo_906575" data-name="Grupo 906575" style="mix-blend-mode: multiply;isolation: isolate">
              <path id="Trazado_640208" data-name="Trazado 640208" d="M390.39,389.111a22.668,22.668,0,0,0,6.53-.54,15.192,15.192,0,0,0,3.257-1.173q-.03-2.684-.059-5.367a1.406,1.406,0,0,0-.21-.883,1.325,1.325,0,0,0-.881-.375,10.973,10.973,0,0,0-7.747,1.892l-.676,1.027A37.586,37.586,0,0,1,390.39,389.111Z" fill="#e9dfdc"/>
            </g>
            <path id="Trazado_640209" data-name="Trazado 640209" d="M384.292,344.742c-2.574,5.6-3.718,11.742-4.629,17.839-.81,5.426-1.407,11.206.868,16.2a14.2,14.2,0,0,0,6.567,6.855,12.5,12.5,0,0,0,9.413.662,19.961,19.961,0,0,0,4.544-2.424,21.082,21.082,0,0,0,3.828-3.086,16.334,16.334,0,0,0,3.861-8.535,42.385,42.385,0,0,0,.183-9.482q-.449-7.125-1.368-14.21a6.638,6.638,0,0,0-.9-3.012c-1.2-1.713-3.607-1.927-5.7-1.979-5.494-.137-11.1-.26-16.351,1.368" fill="#ffa393"/>
            <path id="Trazado_640210" data-name="Trazado 640210" d="M407.735,366.612a7.534,7.534,0,0,1,5.657-3.48,3.7,3.7,0,0,1,1.757.2,2.864,2.864,0,0,1,1.638,2.643,3.931,3.931,0,0,1-1.421,2.866,6.352,6.352,0,0,1-2.972,1.341,6.09,6.09,0,0,1-2.973-.088,3.628,3.628,0,0,1-2.236-1.874" fill="#ffa393"/>
            <path id="Trazado_640211" data-name="Trazado 640211" d="M424.9,399.361c-.506-3.991-1.931-8.231-5.912-9.964a7.682,7.682,0,0,0-5.677.049,48.22,48.22,0,0,0-6.814,3.175.46.46,0,0,0-.326.294c-2.341,6.381-7.236,12.446-13.731,14.882-3.161,1.186-8.219,1.591-9.58-2.365a11.373,11.373,0,0,1-.253-4.648,49.708,49.708,0,0,1,.926-6.128.314.314,0,0,0-.348-.377,4.871,4.871,0,0,0-5.806-2.8c-3.209.733-5.212,3.588-6.466,6.425-3.161,7.145-4.009,15.024-4.793,22.716-.23,2.267-.476,4.535-.587,6.811a21.132,21.132,0,0,0,.382,6.7.371.371,0,0,0,.562.2,14.03,14.03,0,0,0,4.538,2.639,45.048,45.048,0,0,0,6.238,2.017,100.265,100.265,0,0,0,12.8,2.209,52.668,52.668,0,0,0,13.145.116c2.193-.294,4.368-.7,6.557-1.021a40.571,40.571,0,0,1,5.786-.327.575.575,0,0,0,.969.469c1.466-1.688,2.319-4.125,3.188-6.167.913-2.144,1.731-4.325,2.429-6.548A72.585,72.585,0,0,0,425,413.8,61.861,61.861,0,0,0,424.9,399.361Z" fill="#fcd53d"/>
            <g id="Grupo_906576" data-name="Grupo 906576">
              <path id="Trazado_640212" data-name="Trazado 640212" d="M396.121,364.958a7.177,7.177,0,0,1,1.253-1.6,1.9,1.9,0,0,1,.736-.355,1.225,1.225,0,0,1,.7-.009,2.091,2.091,0,0,1,1,1.231,3.694,3.694,0,0,1,.22.907,1.848,1.848,0,0,0,.355,1.02.311.311,0,0,0,.478.062c.745-.625.378-1.78.049-2.539a3.09,3.09,0,0,0-1.782-1.831,2.4,2.4,0,0,0-2.324.676,4.79,4.79,0,0,0-1.174,2.229.271.271,0,0,0,.493.208Z" fill="#253044"/>
            </g>
            <g id="Grupo_906577" data-name="Grupo 906577">
              <path id="Trazado_640213" data-name="Trazado 640213" d="M383.878,363.209c.178-.326.324-.657.49-.988a5.172,5.172,0,0,1,.519-.863,1.5,1.5,0,0,1,1.44-.692c.536.132.734.775.857,1.243a5.25,5.25,0,0,1,.176,1.033c.01.185.008.371,0,.556a1.1,1.1,0,0,0,.106.761.569.569,0,0,0,.882.113.872.872,0,0,0,.217-.675c-.015-.211-.042-.421-.073-.63a8.652,8.652,0,0,0-.2-1.009,3.874,3.874,0,0,0-.859-1.741,1.754,1.754,0,0,0-1.741-.451,2.562,2.562,0,0,0-1.423,1.145,4.613,4.613,0,0,0-.762,2.1.2.2,0,0,0,.371.1Z" fill="#253044"/>
            </g>
            <g id="Grupo_906578" data-name="Grupo 906578" style="mix-blend-mode: multiply;isolation: isolate">
              <path id="Trazado_640214" data-name="Trazado 640214" d="M393.3,359.774a17.035,17.035,0,0,0-.56,2.711c-.118.921-.28,1.83-.449,2.743l-.262,1.418c-.09.481.034,1.154-.658,1.055a14.411,14.411,0,0,1-2.335-.811,2.547,2.547,0,0,0-2.045-.083,1.219,1.219,0,0,0-.583,1.5,4.476,4.476,0,0,0,1.521,1.593,15.672,15.672,0,0,0,2.079,1.492.4.4,0,0,0,.469-.06.369.369,0,0,0,.1-.171.4.4,0,0,0-.177-.437c-.666-.484-1.34-.933-1.962-1.476-.282-.246-.565-.5-.825-.765-.321-.331-.562-.856.1-.932a7.992,7.992,0,0,1,2.136.5,5.987,5.987,0,0,0,2.067.094c.476-.074.6-.427.72-.866.218-.814.311-1.681.459-2.51.143-.8.315-1.591.5-2.384a15.663,15.663,0,0,0,.369-2.514c.029-.392-.563-.449-.668-.091Z" fill="#d6c3bd"/>
            </g>
            <path id="Trazado_640215" data-name="Trazado 640215" d="M399.569,372.468c-4.317,1.574-8.818,2.445-13.221,3.721-.113.033-.186.379-.088.469,2.26,2.072,5.719,4.248,8.9,3.759a3.929,3.929,0,0,0,3.074-2.491,22.487,22.487,0,0,0,1.56-5.23C399.821,372.57,399.713,372.415,399.569,372.468Z" fill="#253044"/>
            <g id="Grupo_906579" data-name="Grupo 906579">
              <path id="Trazado_640216" data-name="Trazado 640216" d="M399,356.364a.624.624,0,0,1,.174.013l-.062-.01.083.014a2.408,2.408,0,0,1,.29.073c.042.013.083.027.124.042l.082.032-.085-.036c.022.029.12.056.154.074s.075.041.112.063.074.045.111.07.179.131.06.039.029.028.051.045a2.5,2.5,0,0,0,.24.181c-.212-.133-.069-.054-.016-.008.038.033.076.068.112.1a2.465,2.465,0,0,1,.2.231l-.135-.175a6.16,6.16,0,0,1,.421.714c.031.057.058.115.088.172.043.082-.082-.2-.023-.056.03.078.059.158.1.233a1.162,1.162,0,0,0,.454.523l-.2-.2c.04.063.076.128.112.193a.431.431,0,0,0,.373.214.452.452,0,0,0,.373-.214,1.98,1.98,0,0,0,.147-.225l-.355.273c.41-.055.6-.6.594-.964a2.906,2.906,0,0,0-.112-.734,2.416,2.416,0,0,0-.467-.8,2.564,2.564,0,0,0-.412-.421,2.519,2.519,0,0,0-.777-.461,3.261,3.261,0,0,0-.7-.145,2.791,2.791,0,0,0-1.242.143.516.516,0,0,0,.137,1.012Z" fill="#253044"/>
            </g>
            <g id="Grupo_906580" data-name="Grupo 906580">
              <path id="Trazado_640217" data-name="Trazado 640217" d="M388.124,354.776a3.045,3.045,0,0,0-.889-.356,2.765,2.765,0,0,0-1.2.053,2.59,2.59,0,0,0-1.1.512,2.715,2.715,0,0,0-.3.3,1.939,1.939,0,0,0-.367.677.753.753,0,0,0,.2.743l.011.01-.186-.45a.709.709,0,0,0,.2.628.461.461,0,0,0,.454.046c.03-.012.06-.025.089-.039.045-.02.046-.02,0,0s-.042.018,0,0l.063-.022-.49-.064.015.01a.751.751,0,0,0,.77,0,3.168,3.168,0,0,0,.325-.175,2.828,2.828,0,0,1,.309-.184c.115-.058.217-.132.328-.2.055-.033.111-.064.167-.093.04-.021.24-.11.087-.045s.035-.011.075-.025c.061-.021.122-.04.184-.056.122-.033.247-.052.368-.087.059-.017.119-.032.179-.044.033-.007.209-.036.086-.017s0,0,.032,0l.084-.005c.069,0,.137,0,.206,0a.6.6,0,0,0,.577-.439.617.617,0,0,0-.275-.675Z" fill="#253044"/>
            </g>
            <path id="Trazado_640218" data-name="Trazado 640218" d="M416.609,344.183a5.142,5.142,0,0,0-4.922-.338c-1.191-3.03-2.649-6.415-5.812-7.75a7.588,7.588,0,0,0-9.077,3.214,22.217,22.217,0,0,0-2.59-3.123,29.032,29.032,0,0,0-4.529-3.967,10.138,10.138,0,0,0-11.047-1.359c-3.185,1.373-7.116,4.348-6.489,8.3a4.953,4.953,0,0,0,3.078,3.686,6.453,6.453,0,0,0,2.471.518,4.517,4.517,0,0,0-1.242,1.966,3.523,3.523,0,0,0,2.134,4.272c3.706,1.812,8.122.85,11.628-1.054a2.287,2.287,0,0,0,.742,1.73,7.236,7.236,0,0,0,4.839,1.5,18.751,18.751,0,0,0,8.546-2.135c.005.084.008.166.013.251q.086,1.348.261,2.69a41.187,41.187,0,0,0,.99,5.091,39.578,39.578,0,0,0,1.717,5.118,8.007,8.007,0,0,0,1.909,3.253.284.284,0,0,0,.181.149l.031.025a.224.224,0,0,0,.332-.167A65.856,65.856,0,0,0,415,358.26c1.475-2.623,3.3-5.578,3.829-8.578A5.124,5.124,0,0,0,416.609,344.183Z" fill="#303a4d"/>
            <path id="Trazado_640219" data-name="Trazado 640219" d="M395.39,378.129a6.631,6.631,0,0,0-.629,2.329c.134-.011.268-.02.4-.041a3.929,3.929,0,0,0,3.074-2.491,18.255,18.255,0,0,0,.948-2.6A5.154,5.154,0,0,0,395.39,378.129Z" fill="#f4624d"/>
          </g>
        </g>
      </g>
      <g id="Grupo_906586" data-name="Grupo 906586">
        <path id="Trazado_640221" data-name="Trazado 640221" d="M79.491,242.974c-.2-4.081-1.724-8.3-4.779-10.736-6.063-4.844-16.274-4.536-21.525,1.388-4.326,4.88-4.888,12.228-3.023,18.224,1.915,6.157,9.3,9.441,15.406,8.541A16.676,16.676,0,0,0,79.026,248,17.438,17.438,0,0,0,79.491,242.974Z" fill="#fbca0c"/>
        <g id="Grupo_906584" data-name="Grupo 906584">
          <path id="Trazado_640222" data-name="Trazado 640222" d="M60.153,242.762a1.979,1.979,0,0,0,1.258-.521,1.979,1.979,0,0,0,.521-1.259l-.063-.473a1.78,1.78,0,0,0-.458-.785l-.36-.279a1.772,1.772,0,0,0-.9-.243,1.336,1.336,0,0,0-.686.154,1.6,1.6,0,0,0-.941.941,1.334,1.334,0,0,0-.153.685l.063.473a1.778,1.778,0,0,0,.458.786l.36.278a1.773,1.773,0,0,0,.9.243Z" fill="#253044"/>
        </g>
        <g id="Grupo_906585" data-name="Grupo 906585">
          <path id="Trazado_640223" data-name="Trazado 640223" d="M68.757,242.762a1.828,1.828,0,0,0,1.78-1.78l-.063-.473a1.79,1.79,0,0,0-.458-.785l-.36-.279a1.773,1.773,0,0,0-.9-.243,1.335,1.335,0,0,0-.685.154,1.6,1.6,0,0,0-.941.941,1.335,1.335,0,0,0-.154.685l.064.473a1.778,1.778,0,0,0,.458.786l.36.278a1.772,1.772,0,0,0,.9.243Z" fill="#253044"/>
        </g>
        <path id="Trazado_640224" data-name="Trazado 640224" d="M57.825,246.908l13.034-.421s1.389,8.1-6.618,8.1C56.93,254.586,57.825,246.908,57.825,246.908Z" fill="#fff"/>
      </g>
      <g id="Grupo_906589" data-name="Grupo 906589">
        <path id="Trazado_640225" data-name="Trazado 640225" d="M302.2,393.158c-.2-4.081-1.724-8.3-4.778-10.736-6.063-4.844-16.275-4.536-21.526,1.388-4.325,4.88-4.888,12.228-3.023,18.224,1.915,6.157,9.3,9.442,15.407,8.541a16.673,16.673,0,0,0,13.455-12.391A17.4,17.4,0,0,0,302.2,393.158Z" fill="#fbca0c"/>
        <g id="Grupo_906587" data-name="Grupo 906587">
          <path id="Trazado_640226" data-name="Trazado 640226" d="M282.866,392.946a1.721,1.721,0,0,0,1.627-1.094,1.346,1.346,0,0,0,.153-.686c-.021-.157-.043-.315-.064-.473a1.771,1.771,0,0,0-.458-.785l-.36-.278a1.77,1.77,0,0,0-.9-.243,1.828,1.828,0,0,0-1.78,1.779l.064.474a1.778,1.778,0,0,0,.457.785l.361.278a1.77,1.77,0,0,0,.9.243Z" fill="#253044"/>
        </g>
        <g id="Grupo_906588" data-name="Grupo 906588">
          <path id="Trazado_640227" data-name="Trazado 640227" d="M291.471,392.946a1.831,1.831,0,0,0,1.78-1.78l-.064-.473a1.78,1.78,0,0,0-.458-.785l-.36-.278a1.772,1.772,0,0,0-.9-.243,1.828,1.828,0,0,0-1.78,1.779l.063.474a1.789,1.789,0,0,0,.458.785l.36.278a1.773,1.773,0,0,0,.9.243Z" fill="#253044"/>
        </g>
        <path id="Trazado_640228" data-name="Trazado 640228" d="M280.538,397.092l13.035-.42s1.389,8.1-6.618,8.1C279.644,404.771,280.538,397.092,280.538,397.092Z" fill="#fff"/>
      </g>
      <g id="Grupo_906591" data-name="Grupo 906591">
        <path id="Trazado_640229" data-name="Trazado 640229" d="M432.364,231.844c-.2-4.081-1.724-8.3-4.779-10.737-6.063-4.843-16.274-4.535-21.525,1.389-4.326,4.88-4.888,12.228-3.023,18.223,1.914,6.158,9.3,9.442,15.406,8.542A16.675,16.675,0,0,0,431.9,236.869,17.428,17.428,0,0,0,432.364,231.844Z" fill="#fbca0c"/>
        <g id="Grupo_906590" data-name="Grupo 906590" style="mix-blend-mode: multiply;isolation: isolate">
          <path id="Trazado_640230" data-name="Trazado 640230" d="M417.861,232.553c0-1.546.02-3.1-.042-4.655.147.022.292.05.433.085.572.142,1.12.274,1.7.384.291.055.594-.247.411-.534a3.59,3.59,0,0,0-2.64-1.556c-.065-.763-.159-1.522-.293-2.275-.088-.489-.763-.315-.806.109-.074.723-.111,1.449-.13,2.176a4.236,4.236,0,0,0-1.265.39,3.6,3.6,0,0,0-1.865,4.265c.529,1.43,1.974,2.026,3.269,2.608.027,1.442.094,2.882.1,4.324,0,.359-.009.725-.02,1.1a3.354,3.354,0,0,1-.623.112,2.24,2.24,0,0,1-1.509-.37,8.215,8.215,0,0,1-.938-1.1.413.413,0,0,0-.644.083,1.781,1.781,0,0,0,.732,2.25,3.753,3.753,0,0,0,2.962.608,10.193,10.193,0,0,0,.126,1.66.378.378,0,0,0,.723,0,10.39,10.39,0,0,0,.2-1.982,4.428,4.428,0,0,0,2.775-3.54A4.033,4.033,0,0,0,417.861,232.553Zm-3.137-2.794a2.324,2.324,0,0,1,1.767-1.82c.015,1.37.062,2.74.1,4.106C415.538,231.607,414.491,230.994,414.724,229.759Zm3.986,7.778a2.992,2.992,0,0,1-.958.968c0-.211,0-.424,0-.631.023-1.239.067-2.477.089-3.716a2.711,2.711,0,0,1,.84.768A2.522,2.522,0,0,1,418.71,237.537Z" fill="#c9b1a9"/>
          <path id="Trazado_640231" data-name="Trazado 640231" d="M427.078,224.248a12.043,12.043,0,0,0-6.84-3.693c-5.037-.973-10.52.707-13.442,5.081a15,15,0,0,0-2.35,8.142,14.422,14.422,0,0,0,1.942,8.033c2.794,4.166,8.519,5.889,13.267,4.651a14.167,14.167,0,0,0,10.3-14.291A13.287,13.287,0,0,0,427.078,224.248Zm-5.572,20.594a11.941,11.941,0,0,1-13.247-2.167c-3.5-3.5-3.63-9.982-1.871-14.345a11.667,11.667,0,0,1,11.687-7.135,12.6,12.6,0,0,1,7.232,2.585c2.508,2.006,3.557,5.288,3.744,8.391A13.34,13.34,0,0,1,421.506,244.842Z" fill="#c9b1a9"/>
        </g>
      </g>
      <g id="Grupo_906595" data-name="Grupo 906595">
        <path id="Trazado_640232" data-name="Trazado 640232" d="M371.691,84c-4.208-3.54-11.925-9.12-12.994-14.317-.62-3.013,1.083-8.135-1.1-10.686-1.873-2.184-6.087-1.679-8.615-1.711-8.065-.1-16.031.347-24.1.092-5.631-.178-14.738-2.114-15.792,5.092a77.482,77.482,0,0,0,.023,22.09c1.484,8.886,8.95,7.75,16.371,7.953,7.813.214,15.68.111,23.485-.307,7.9-.423,9.471-4.091,9.9-11.632q3.921,1.58,7.954,2.857C367.323,83.585,372.667,84.818,371.691,84Z" fill="#f4624d"/>
        <g id="Grupo_906592" data-name="Grupo 906592">
          <path id="Trazado_640233" data-name="Trazado 640233" d="M317.092,67.34c5.39.657,10.921.429,16.345.436l8.041.011a80.973,80.973,0,0,0,8.3-.037.751.751,0,0,0,0-1.5,78.669,78.669,0,0,0-8.069-.037l-8.276.011c-5.424.007-10.955-.221-16.345.436a.34.34,0,0,0,0,.68Z" fill="#fff"/>
        </g>
        <g id="Grupo_906593" data-name="Grupo 906593">
          <path id="Trazado_640234" data-name="Trazado 640234" d="M316.955,75.359a43.911,43.911,0,0,0,8.186.475c2.765,0,5.531-.01,8.3-.015q4.027-.007,8.056-.031c2.785-.018,5.7.218,8.429-.417a.531.531,0,0,0,0-1.017c-2.656-.619-5.479-.4-8.19-.416q-4.147-.026-8.295-.033-4.029-.007-8.056-.014a44.845,44.845,0,0,0-8.426.474.519.519,0,0,0,0,.994Z" fill="#fff"/>
        </g>
        <g id="Grupo_906594" data-name="Grupo 906594">
          <path id="Trazado_640235" data-name="Trazado 640235" d="M316.939,83.278a14.708,14.708,0,0,0,3.868.367l4.21.107c2.807.072,5.612.076,8.42.078l8.172.006c1.41,0,2.8-.073,4.21-.164a18.208,18.208,0,0,0,4.087-.5.473.473,0,0,0,0-.9,17.122,17.122,0,0,0-3.839-.48c-1.406-.09-2.8-.181-4.21-.18l-8.42.006c-2.726,0-5.448,0-8.173.072l-4.21.107a15.678,15.678,0,0,0-4.115.373.58.58,0,0,0,0,1.108Z" fill="#fff"/>
        </g>
      </g>
      <g id="Grupo_906599" data-name="Grupo 906599">
        <path id="Trazado_640236" data-name="Trazado 640236" d="M173.383,394.262c3.9,3.279,11.048,8.449,12.038,13.263.574,2.792-1,7.537,1.023,9.9,1.735,2.023,5.639,1.555,7.981,1.585,7.472.1,14.852-.322,22.327-.085,5.217.165,13.654,1.958,14.63-4.718a71.731,71.731,0,0,0-.021-20.464c-1.375-8.233-8.291-7.181-15.166-7.369-7.238-.2-14.527-.1-21.758.285-7.318.392-8.774,3.79-9.175,10.776-2.421-.975-4.879-1.863-7.369-2.646C177.43,394.643,172.479,393.5,173.383,394.262Z" fill="#f4624d"/>
        <g id="Grupo_906596" data-name="Grupo 906596">
          <path id="Trazado_640237" data-name="Trazado 640237" d="M223.965,409.668c-4.985-.656-10.121-.43-15.142-.437l-7.55-.01a73.924,73.924,0,0,0-7.592.037.751.751,0,0,0,0,1.5,71.649,71.649,0,0,0,7.358.037l7.784-.011c5.021-.007,10.157.22,15.142-.436a.34.34,0,0,0,0-.68Z" fill="#fff"/>
        </g>
        <g id="Grupo_906597" data-name="Grupo 906597">
          <path id="Trazado_640238" data-name="Trazado 640238" d="M224.1,402.227a37.558,37.558,0,0,0-7.457-.475c-2.608-.01-5.216.01-7.823.015q-3.792.008-7.583.032c-2.543.017-5.217-.211-7.7.417a.531.531,0,0,0,0,1.017c2.41.609,4.991.4,7.46.414q3.91.027,7.822.034c2.528.005,5.056.015,7.583.015a38.085,38.085,0,0,0,7.7-.475.519.519,0,0,0,0-.994Z" fill="#fff"/>
        </g>
        <g id="Grupo_906598" data-name="Grupo 906598">
          <path id="Trazado_640239" data-name="Trazado 640239" d="M224.118,394.887a12.728,12.728,0,0,0-3.628-.368l-3.972-.11c-2.565-.071-5.128-.072-7.7-.074l-7.695-.007c-1.331,0-2.645.086-3.972.178a14.921,14.921,0,0,0-3.6.482.473.473,0,0,0,0,.9,14.874,14.874,0,0,0,3.6.483c1.327.092,2.641.179,3.972.178l7.695-.007c2.567,0,5.13,0,7.7-.074l3.972-.11a12.727,12.727,0,0,0,3.628-.368.579.579,0,0,0,0-1.107Z" fill="#fff"/>
        </g>
      </g>
      <path id="Trazado_640240" data-name="Trazado 640240" d="M134.243,199.578c-2.606-1.77-5.764.207-7.691,2.056a21.607,21.607,0,0,0-3.351,4.134c-.3.473-.676,1.053-1.006,1.671a14.818,14.818,0,0,0-2.568-3.834c-1.7-1.844-4.541-4.224-7.243-3.239-2.767,1.008-3.281,4.546-2.8,7.072.62,3.227,2.909,5.872,5.077,8.208,1.334,1.438,2.7,2.85,4.059,4.261a25.681,25.681,0,0,0,4.029,3.932.449.449,0,0,0,.63-.145,16.975,16.975,0,0,0,3.434-3.675q1.69-2.038,3.252-4.182a43.65,43.65,0,0,0,5.582-9.1C136.6,204.351,136.587,201.171,134.243,199.578Z" fill="#f4624d"/>
      <path id="Trazado_640241" data-name="Trazado 640241" d="M251,43.219c-1.864-1.267-4.124.147-5.5,1.47a15.471,15.471,0,0,0-2.4,2.958c-.211.338-.483.753-.72,1.195a10.582,10.582,0,0,0-1.837-2.742c-1.217-1.32-3.248-3.023-5.181-2.318-1.98.721-2.348,3.253-2,5.06.443,2.308,2.081,4.2,3.631,5.872.955,1.029,1.93,2.039,2.9,3.048a18.286,18.286,0,0,0,2.882,2.813.321.321,0,0,0,.451-.1,12.089,12.089,0,0,0,2.456-2.629q1.21-1.458,2.327-2.991A31.208,31.208,0,0,0,252,48.337C252.68,46.633,252.673,44.358,251,43.219Z" fill="#f4624d"/>
      <g id="Grupo_906601" data-name="Grupo 906601">
        <path id="Trazado_640242" data-name="Trazado 640242" d="M279,107.376c-.2-4.081-1.724-8.3-4.778-10.736-6.063-4.844-16.274-4.536-21.526,1.388-4.325,4.88-4.887,12.228-3.023,18.224,1.915,6.157,9.3,9.442,15.407,8.541A16.673,16.673,0,0,0,278.533,112.4,17.367,17.367,0,0,0,279,107.376Z" fill="#fbca0c"/>
        <g id="Grupo_906600" data-name="Grupo 906600" style="mix-blend-mode: multiply;isolation: isolate">
          <path id="Trazado_640243" data-name="Trazado 640243" d="M264.5,108.086c0-1.547.02-3.1-.042-4.655a4.285,4.285,0,0,1,.432.084c.572.142,1.12.274,1.7.385.291.055.594-.247.41-.534a3.59,3.59,0,0,0-2.639-1.557c-.066-.762-.159-1.522-.294-2.275-.087-.489-.762-.315-.8.109-.074.723-.111,1.449-.13,2.176a4.256,4.256,0,0,0-1.265.39A3.6,3.6,0,0,0,260,106.475c.528,1.43,1.974,2.025,3.269,2.608.026,1.441.094,2.881.1,4.324,0,.358-.008.724-.019,1.094a3.354,3.354,0,0,1-.623.112,2.234,2.234,0,0,1-1.509-.37,8.092,8.092,0,0,1-.938-1.1.414.414,0,0,0-.645.083,1.782,1.782,0,0,0,.733,2.25,3.752,3.752,0,0,0,2.962.608,10.328,10.328,0,0,0,.125,1.661.378.378,0,0,0,.723,0,10.315,10.315,0,0,0,.2-1.982,4.433,4.433,0,0,0,2.775-3.54A4.032,4.032,0,0,0,264.5,108.086Zm-3.137-2.795a2.324,2.324,0,0,1,1.767-1.82c.014,1.37.061,2.74.1,4.107C262.172,107.139,261.126,106.526,261.359,105.291Zm3.986,7.778a2.992,2.992,0,0,1-.958.968c0-.211,0-.424,0-.63.023-1.24.067-2.478.088-3.717a2.715,2.715,0,0,1,.841.768A2.525,2.525,0,0,1,265.345,113.069Z" fill="#c9b1a9"/>
          <path id="Trazado_640244" data-name="Trazado 640244" d="M273.713,99.78a12.052,12.052,0,0,0-6.84-3.693c-5.037-.973-10.521.708-13.442,5.081a14.991,14.991,0,0,0-2.35,8.142,14.412,14.412,0,0,0,1.942,8.033c2.793,4.167,8.518,5.889,13.266,4.651a14.165,14.165,0,0,0,10.3-14.291A13.28,13.28,0,0,0,273.713,99.78Zm-5.572,20.594a11.941,11.941,0,0,1-13.247-2.167c-3.5-3.5-3.63-9.982-1.872-14.344a11.669,11.669,0,0,1,11.687-7.136,12.584,12.584,0,0,1,7.232,2.586c2.508,2,3.557,5.288,3.744,8.39A13.338,13.338,0,0,1,268.141,120.374Z" fill="#c9b1a9"/>
        </g>
      </g>
      <path id="Trazado_640245" data-name="Trazado 640245" d="M452.864,275.3c-2.606-1.77-5.764.207-7.691,2.056a21.638,21.638,0,0,0-3.351,4.134c-.3.474-.676,1.053-1.007,1.671a14.766,14.766,0,0,0-2.567-3.833c-1.7-1.845-4.541-4.225-7.243-3.24-2.767,1.008-3.281,4.547-2.8,7.072.619,3.227,2.909,5.872,5.076,8.209,1.335,1.438,2.7,2.849,4.06,4.26a25.674,25.674,0,0,0,4.028,3.932.45.45,0,0,0,.631-.145,17,17,0,0,0,3.434-3.675q1.69-2.039,3.252-4.182a43.6,43.6,0,0,0,5.581-9.1C455.218,280.075,455.208,276.895,452.864,275.3Z" fill="#f4624d"/>
    </g>
  </g>
</svg>
