<svg xmlns="http://www.w3.org/2000/svg" width="109" height="109" viewBox="0 0 109 109">
  <g id="Grupo_909136" data-name="Grupo 909136" transform="translate(-312 -9616)">
    <circle id="Elipse_7493" data-name="Elipse 7493" cx="54.5" cy="54.5" r="54.5" transform="translate(312 9616)" fill="#222b5a"/>
    <path id="Trazado_641256" data-name="Trazado 641256" d="M-555.64,1659.778v-14.219c.123,0,.247.014.37.014h26.978a2.357,2.357,0,0,1,1.264.308c.4.25.775.552,1.228.879a1.435,1.435,0,0,1,.25-.31c.492-.377,1.023-.708,1.491-1.112a4.7,4.7,0,0,1,1.3-.853,6.1,6.1,0,0,1,1.746-.543,2.032,2.032,0,0,0,.4-.12,13.383,13.383,0,0,1-6.373-8.878h-8.462c-.514,0-1.029-.01-1.543.009a.371.371,0,0,0-.284.189c-.121.452-.217.911-.3,1.371a2.687,2.687,0,0,1-.742,1.361,2.317,2.317,0,0,1-2.155.577,2.09,2.09,0,0,1-1.206-.649c-.393-.412-.767-.842-1.171-1.243-.488-.485-1.017-.931-1.488-1.431a.5.5,0,0,0-.424-.185q-3.172,0-6.344,0a4.3,4.3,0,0,1-2.6-.754,4.2,4.2,0,0,1-1.316-1.408,10.508,10.508,0,0,1-.515-1.431,1.2,1.2,0,0,0-.1-.183v-17.246c.077-.23.147-.463.232-.69a4.489,4.489,0,0,1,.357-.862,7.345,7.345,0,0,1,.785-.978,4,4,0,0,1,2.025-1.1,5.318,5.318,0,0,1,1.306-.1q17.345-.007,34.691,0a5.515,5.515,0,0,1,2.4.394,4.541,4.541,0,0,1,1.637,1.306,4.316,4.316,0,0,1,.932,2.99c-.036,1.35-.009,2.7-.009,4.054v.313c.744.229,1.471.425,2.176.681a12.724,12.724,0,0,1,1.489.693,10.084,10.084,0,0,1,1,.62,17.484,17.484,0,0,1,1.486,1.064,14.087,14.087,0,0,1,1.132,1.168,6.8,6.8,0,0,1,.69.782c.366.537.709,1.091,1.03,1.656a10.46,10.46,0,0,1,.7,1.429c.223.589.382,1.2.549,1.81a7.24,7.24,0,0,1,.306,1.359,14.171,14.171,0,0,1-.334,5.182,13.615,13.615,0,0,1-.531,1.639,19.24,19.24,0,0,1-1.058,1.989,8.481,8.481,0,0,1-1.386,1.837c-.484.463-.946.948-1.428,1.413a4.108,4.108,0,0,1-.5.379c-.35.247-.688.515-1.059.727-.6.346-1.23.654-1.808.958l.267.933a2.77,2.77,0,0,1,2.549,2.051,2.326,2.326,0,0,1-.625,2.4,2.55,2.55,0,0,1,0,3.526,2.642,2.642,0,0,1,.008,3.586,2.787,2.787,0,0,1,.673,2.094,2.729,2.729,0,0,1-1.209,1.917,2.425,2.425,0,0,1-1.6.41c-.785-.012-.8,0-.785.783a2.484,2.484,0,0,1-.807,2.045,2.543,2.543,0,0,1-1.743.731c-1.219.015-2.439.021-3.657,0a2.471,2.471,0,0,1-1.035-.22,2.669,2.669,0,0,1-1.591-2.678c.01-.214,0-.428,0-.667-.719,0-1.4.008-2.07,0a3.483,3.483,0,0,1-1.435-.256,13.625,13.625,0,0,1-1.267-.593,17.677,17.677,0,0,1-1.536-1.042c-.38-.283-.722-.617-1.09-.917a.227.227,0,0,0-.208.03c-.225.184-.429.392-.656.574a2.63,2.63,0,0,1-1.742.472q-13.459-.008-26.919,0C-555.414,1659.8-555.527,1659.786-555.64,1659.778Zm42.5-40.729a.356.356,0,0,0,.029-.082c0-1.627,0-3.254-.016-4.881a1.328,1.328,0,0,0-.37-.934,4.943,4.943,0,0,0-.732-.768,3.223,3.223,0,0,0-1.85-.434q-17.387.018-34.774.009a2.428,2.428,0,0,0-.456.006,6.64,6.64,0,0,0-1.055.253,2.048,2.048,0,0,0-1.046.866,3.4,3.4,0,0,0-.432,1.856c.013,5.1.007,10.2.008,15.3,0,.209,0,.419.015.628a2.393,2.393,0,0,0,.488,1.26,2.635,2.635,0,0,0,2.243,1.073c2.371.023,4.743.007,7.115.011a.584.584,0,0,1,.351.066c.3.262.573.548.849.832.463.476.919.959,1.383,1.434.148.151.323.277.473.427s.259.316.406.454a.675.675,0,0,0,.994.077,1.337,1.337,0,0,0,.238-.6c.209-.775.438-1.547.59-2.333.063-.324.187-.367.463-.367q5.3.01,10.6,0c.076,0,.169.026.224-.008a.33.33,0,0,0,.16-.207c.035-.821.048-1.643.085-2.464a3.329,3.329,0,0,1,.123-.695c.132-.5.328-.99.413-1.5a10.953,10.953,0,0,1,.98-2.409,7.3,7.3,0,0,1,1.026-1.546,15.088,15.088,0,0,1,1.264-1.436,12.238,12.238,0,0,1,1.491-1.315,10.018,10.018,0,0,1,2.341-1.375c.493-.181.966-.417,1.463-.587.377-.129.781-.18,1.167-.288a8.435,8.435,0,0,1,2.228-.333C-514.155,1619.047-513.651,1619.049-513.136,1619.049Zm-40.663,28.356V1657.6c0,.384,0,.384.388.384H-528.4c.123,0,.247-.011.371-.014a.758.758,0,0,0,.719-.823q.021-4.425,0-8.851a.738.738,0,0,0-.533-.8,1.821,1.821,0,0,0-.434-.083q-12.575-.006-25.149,0Zm51.387-13.88c-.028-7.63-5.145-12.672-11.429-12.713a11.455,11.455,0,0,0-11.6,11.411,11.128,11.128,0,0,0,4.244,9,10.956,10.956,0,0,0,7.247,2.593,11.216,11.216,0,0,0,9.262-4.662A10.734,10.734,0,0,0-502.412,1633.525Zm-15.973,17.019c-.237.127-.443.225-.636.344a6.052,6.052,0,0,1-3.587.912c-.173-.009-.266-.05-.262-.243.008-.428,0-.856,0-1.285a.26.26,0,0,1,.279-.287c.171-.012.343-.016.514-.014a3.852,3.852,0,0,0,1.817-.429,5.488,5.488,0,0,0,2.192-2.015.47.47,0,0,1,.35-.145c1.552-.01,3.105,0,4.658-.011a12.059,12.059,0,0,0,1.354-.1,1.581,1.581,0,0,0,1.272-1.362c.023-.25-.053-.333-.31-.331-1.324.011-2.648-.006-3.972.008-1.978.02-3.956.036-5.933.1a2.907,2.907,0,0,0-1.305.379,20.589,20.589,0,0,0-1.893,1.327c-.37.273-.707.59-1.074.866a1.142,1.142,0,0,0-.554,1.027c.036,2.388.018,4.777.013,7.165a.445.445,0,0,0,.2.422c.226.154.431.338.647.507.7.542,1.38,1.1,2.094,1.62a3.844,3.844,0,0,0,2.4.789c.476-.012.953-.012,1.428.005.25.009.318-.071.318-.323-.009-2.883-.006-5.767-.006-8.65Zm7.08,11.018c-.423,0-.794.016-1.164-.006a2.372,2.372,0,0,1-.683-.136,2.81,2.81,0,0,1-.986-.707,2.311,2.311,0,0,1-.682-1.258,2.292,2.292,0,0,1,.338-1.866c.3-.372.177-.623-.04-.954a2.264,2.264,0,0,1-.212-2.033,8.62,8.62,0,0,1,.522-1.071,2.535,2.535,0,0,1-.652-1.73,2.9,2.9,0,0,1,.669-1.754,3.415,3.415,0,0,1-.393-.623.292.292,0,0,0-.339-.216c-.4,0-.8,0-1.2,0-.419,0-.419,0-.419.417q0,6.292,0,12.584c0,.124,0,.247.009.371a.83.83,0,0,0,.734.727q1.871.009,3.742,0a.688.688,0,0,0,.6-.352C-511.2,1662.526-511.343,1662.056-511.306,1661.561Zm.921-1.773v0c.6,0,1.2-.011,1.8,0a.831.831,0,0,0,.84-.882.885.885,0,0,0-.883-.893q-1.754-.007-3.508,0a.875.875,0,0,0-.88.886.827.827,0,0,0,.866.885C-511.563,1659.8-510.974,1659.788-510.384,1659.788Zm-.015-7.144v0c.637,0,1.274.01,1.91-.007a.946.946,0,0,0,.463-.152.885.885,0,0,0,.212-1.034.818.818,0,0,0-.773-.511c-1.2-.01-2.4-.008-3.593,0a.882.882,0,0,0-.842.865.785.785,0,0,0,.8.85C-511.617,1652.631-511.008,1652.644-510.4,1652.644Zm.026,3.543v-.006c.627,0,1.255.019,1.881-.011a.908.908,0,0,0,.559-.241.851.851,0,0,0,.108-.961.821.821,0,0,0-.786-.494q-1.754,0-3.507,0a.888.888,0,0,0-.9.893.793.793,0,0,0,.881.828C-511.553,1656.168-510.963,1656.188-510.374,1656.188Zm-.918-7.085c.934,0,1.8.005,2.666,0a.806.806,0,0,0,.826-1.154.779.779,0,0,0-.656-.541.744.744,0,0,0-.877.294A3.521,3.521,0,0,1-511.292,1649.1Z" transform="translate(897.64 8034.608)" fill="#fff"/>
    <path id="Trazado_641257" data-name="Trazado 641257" d="M-514.577,1738.4v-1.693h1.71v1.693Z" transform="translate(866.356 7938.218)" fill="#fff"/>
    <path id="Trazado_641258" data-name="Trazado 641258" d="M-499.656,1736.685h1.7v1.7h-1.7Z" transform="translate(854.989 7938.236)" fill="#fff"/>
    <path id="Trazado_641259" data-name="Trazado 641259" d="M-484.748,1736.664h1.694v1.7h-1.694Z" transform="translate(843.631 7938.252)" fill="#fff"/>
    <path id="Trazado_641260" data-name="Trazado 641260" d="M-469.887,1736.686h1.706v1.7h-1.706Z" transform="translate(832.309 7938.235)" fill="#fff"/>
    <path id="Trazado_641261" data-name="Trazado 641261" d="M-481.222,1629.34a4.7,4.7,0,0,1,.507-2.139,3.753,3.753,0,0,1,1.554-1.669,4.264,4.264,0,0,1,1.289-.485,7.975,7.975,0,0,1,1.522-.112,4.059,4.059,0,0,1,1.591.4,4.169,4.169,0,0,1,2.048,1.993,3.314,3.314,0,0,1,.278.871,3.542,3.542,0,0,1,.11.895,4.316,4.316,0,0,1-.769,2.47,5.027,5.027,0,0,1-2,1.529,5.859,5.859,0,0,0-.674.36.317.317,0,0,0-.084.234c-.007.607,0,1.215,0,1.848h-1.8a2.1,2.1,0,0,1-.021-.213c0-.9,0-1.807,0-2.711a.273.273,0,0,1,.176-.3c.687-.334,1.375-.671,2.04-1.046a2.181,2.181,0,0,0,.971-.839,2.5,2.5,0,0,0,.271-1.943,2.145,2.145,0,0,0-.554-1.037,2.307,2.307,0,0,0-1.526-.7c-.314,0-.63-.02-.942.007a2.2,2.2,0,0,0-1.693.945,2.231,2.231,0,0,0-.478,1.429c0,.069-.1.2-.15.206C-480.1,1629.346-480.645,1629.34-481.222,1629.34Z" transform="translate(840.945 8023.374)" fill="#fff"/>
    <path id="Trazado_641262" data-name="Trazado 641262" d="M-473.628,1679.683a2.69,2.69,0,0,1,2.651-2.637,2.684,2.684,0,0,1,2.644,2.66,2.65,2.65,0,0,1-2.658,2.645A2.642,2.642,0,0,1-473.628,1679.683Zm2.642.815a.745.745,0,0,0,.806-.8c-.039-.5-.284-.821-.8-.8a.77.77,0,0,0-.8.794A.74.74,0,0,0-470.987,1680.5Z" transform="translate(835.161 7983.673)" fill="#fff"/>
    <path id="Trazado_641263" data-name="Trazado 641263" d="M-411.948,1681.578a21.112,21.112,0,0,1-2.312-.266,8.205,8.205,0,0,1-1.866-.7,11.374,11.374,0,0,1-1.91-1.163,13.013,13.013,0,0,1-1.427-1.445,8.4,8.4,0,0,1-1.5-2.408,14.289,14.289,0,0,1-.567-2.013,6.415,6.415,0,0,1-.2-2.25,13.932,13.932,0,0,1,.308-1.772,12.845,12.845,0,0,1,.422-1.473,5.136,5.136,0,0,1,.454-.916,9.174,9.174,0,0,1,1.579-2.126,11.673,11.673,0,0,1,1.415-1.215,17.781,17.781,0,0,1,2.109-1.149,4.887,4.887,0,0,1,1.2-.357,15.5,15.5,0,0,1,2.094-.3,9.842,9.842,0,0,1,1.747.146c.369.049.728.173,1.095.246a6.965,6.965,0,0,1,2.417,1.038c.415.269.789.6,1.194.886a8.137,8.137,0,0,1,2.486,3.075,13.287,13.287,0,0,1,.738,1.968,9.652,9.652,0,0,1,.192,4.059,8.872,8.872,0,0,1-.591,1.967,6.834,6.834,0,0,1-.583,1.257,9.851,9.851,0,0,1-2.007,2.434,9.278,9.278,0,0,1-1.867,1.316,16.358,16.358,0,0,1-1.978.8,6.409,6.409,0,0,1-1.3.256c-.443.053-.893.048-1.339.069Zm7.988-9.772a7.956,7.956,0,0,0-7.944-7.971,7.91,7.91,0,0,0-8,7.9,7.9,7.9,0,0,0,7.966,8.02A7.949,7.949,0,0,0-403.96,1671.806Z" transform="translate(795.64 7995.121)" fill="#fff"/>
    <path id="Trazado_641264" data-name="Trazado 641264" d="M-392.888,1685.85c0-.731-.005-1.424.007-2.116a.368.368,0,0,1,.164-.232c.584-.406,1.174-.8,1.763-1.2a1.252,1.252,0,0,0,.651-1.07c0-.317,0-.635.008-.952a1.4,1.4,0,0,0-.743-1.186,1.686,1.686,0,0,0-2.137.2,1.7,1.7,0,0,0-.554,1.047c-.023.184-.1.246-.272.243-.448-.006-.9-.008-1.343,0-.181,0-.239-.073-.222-.238a3.824,3.824,0,0,1,.734-1.891,3.761,3.761,0,0,1,1.374-1.133,3.479,3.479,0,0,1,2.187-.26,3.042,3.042,0,0,1,1.606.782,3.131,3.131,0,0,1,1.2,2.333c0,.38-.008.761,0,1.141a2.291,2.291,0,0,1-.454,1.414,3.056,3.056,0,0,1-1.222,1.2,3.323,3.323,0,0,0-.8.581.45.45,0,0,0-.12.294c-.017.265-.008.532-.006.8,0,.159-.055.25-.233.248C-391.818,1685.846-392.331,1685.85-392.888,1685.85Z" transform="translate(775.689 7983.711)" fill="#fff"/>
    <path id="Trazado_641265" data-name="Trazado 641265" d="M-382.582,1722.622c.038.595-.335.839-.876.838a.842.842,0,0,1-.879-.9.9.9,0,0,1,.96-.842A.787.787,0,0,1-382.582,1722.622Z" transform="translate(767.134 7949.644)" fill="#fff"/>
  </g>
</svg>
