<svg xmlns="http://www.w3.org/2000/svg" width="232.003" height="326.349" viewBox="0 0 232.003 326.349">
  <g id="Grupo_909100" data-name="Grupo 909100" transform="translate(-936.997 -10210.354)">
    <path id="Trazado_644581" data-name="Trazado 644581" d="M0,0H231.75V326H0Z" transform="translate(936.997 10210.354)" fill="#f3f9ff"/>
    <path id="Trazado_644582" data-name="Trazado 644582" d="M0,0H232V57H0Z" transform="translate(937 10479.702)" fill="#d2e1f1"/>
    <path id="Trazado_644583" data-name="Trazado 644583" d="M93.77,17.221a1.408,1.408,0,0,0-.532-1.172,6.615,6.615,0,0,0-1.87-.869,17.941,17.941,0,0,1-2.187-.869q-2.764-1.357-2.764-3.73A3.345,3.345,0,0,1,87.1,8.5a4.453,4.453,0,0,1,1.948-1.406,7.582,7.582,0,0,1,2.832-.5,6.632,6.632,0,0,1,2.749.547,4.352,4.352,0,0,1,1.89,1.558A4.068,4.068,0,0,1,97.2,11H93.779a1.719,1.719,0,0,0-.532-1.348,2.075,2.075,0,0,0-1.44-.479,2.339,2.339,0,0,0-1.45.405A1.193,1.193,0,0,0,90.41,11.6a7.389,7.389,0,0,0,2.061.918,12.623,12.623,0,0,1,2.422,1.021A4.07,4.07,0,0,1,97.2,17.2a3.472,3.472,0,0,1-1.406,2.93A6.255,6.255,0,0,1,91.934,21.2a7.653,7.653,0,0,1-3.13-.62,4.719,4.719,0,0,1-2.109-1.7,4.427,4.427,0,0,1-.708-2.485h3.438a2.181,2.181,0,0,0,.591,1.685,2.793,2.793,0,0,0,1.919.542,2.206,2.206,0,0,0,1.343-.366A1.209,1.209,0,0,0,93.77,17.221ZM110.6,19.242a5.511,5.511,0,0,1-2.314,1.416,9.982,9.982,0,0,1-3.34.537,5.955,5.955,0,0,1-4.463-1.709,6.918,6.918,0,0,1-1.787-4.756l-.01-1.23a8.485,8.485,0,0,1,.742-3.667,5.511,5.511,0,0,1,2.124-2.412,6.008,6.008,0,0,1,3.2-.845,6.3,6.3,0,0,1,4.126,1.216,5.152,5.152,0,0,1,1.714,3.628h-3.3a2.7,2.7,0,0,0-.762-1.7,2.458,2.458,0,0,0-1.66-.508,2.237,2.237,0,0,0-1.992,1.094,5.84,5.84,0,0,0-.713,3.125v.859a5.717,5.717,0,0,0,.728,3.2,2.573,2.573,0,0,0,2.29,1.069,2.88,2.88,0,0,0,1.992-.6V15.756h-2.383V13.4H110.6Zm13.5-3.057a5.193,5.193,0,0,1-.8,2.622,4.833,4.833,0,0,1-2.056,1.763,7,7,0,0,1-3.022.625,5.584,5.584,0,0,1-4.414-1.826,7.54,7.54,0,0,1-1.611-5.156v-.7a8.607,8.607,0,0,1,.728-3.657,5.513,5.513,0,0,1,2.095-2.422,5.844,5.844,0,0,1,3.164-.854,6.129,6.129,0,0,1,4.16,1.362,5.383,5.383,0,0,1,1.787,3.755H120.7a2.547,2.547,0,0,0-.654-1.865,2.691,2.691,0,0,0-1.875-.566,2.048,2.048,0,0,0-1.875.957,6.151,6.151,0,0,0-.625,3.057v1.006a6.806,6.806,0,0,0,.571,3.252,2.091,2.091,0,0,0,1.968.977,2.632,2.632,0,0,0,1.807-.557,2.363,2.363,0,0,0,.664-1.768Z" transform="translate(951 10495.702)" fill="#12263f"/>
    <g id="Grupo_907046" data-name="Grupo 907046" transform="translate(1700.908 10333.059)">
      <path id="Trazado_641394" data-name="Trazado 641394" d="M-654.976-75.156c.008-.068.014-.136.016-.2h11.52a2.011,2.011,0,0,0,.016.205Z" fill="#c5eafe"/>
      <path id="Trazado_641395" data-name="Trazado 641395" d="M-733.92,3.84a.71.71,0,0,1,.2-.017q0,5.656,0,11.314a.923.923,0,0,1-.2-.017Z" fill="#c5eafe"/>
      <path id="Trazado_641396" data-name="Trazado 641396" d="M-733.717,15.137q0-5.658,0-11.314a65.912,65.912,0,0,1,2.209-14.194c1.138-4.12,2.362-8.231,3.851-12.233a73.227,73.227,0,0,1,3.995-8.309,67.447,67.447,0,0,1,3.939-6.785c1.7-2.492,3.662-4.808,5.512-7.2.429-.553.857-1.108,1.3-1.646a2.806,2.806,0,0,1,3.876-.489c.856.662.782,2.417-.146,3.6-1.989,2.542-4.074,5.017-5.931,7.652a64.886,64.886,0,0,0-3.909,6.521c-1.373,2.539-2.619,5.148-3.872,7.75A21.025,21.025,0,0,0-724-18.624c-.963,3.08-2.03,6.139-2.79,9.27a80.414,80.414,0,0,0-2.041,22.77A56.2,56.2,0,0,0-727.2,25.434c.716,2.677,1.217,5.421,2.08,8.047.873,2.659,2.029,5.23,3.146,7.8.948,2.185,1.907,4.38,3.062,6.458,1.324,2.382,2.8,4.692,4.343,6.937a49.811,49.811,0,0,0,4.426,5.719c2.754,2.964,5.585,5.876,8.591,8.579a94.238,94.238,0,0,0,8.155,6.371,57.125,57.125,0,0,0,5.633,3.35,49.664,49.664,0,0,0,6,3.105,119.961,119.961,0,0,0,12.609,4.373,82.613,82.613,0,0,0,12.148,2.082,70.938,70.938,0,0,0,11.44.434,96.356,96.356,0,0,0,12.6-1.654,70.28,70.28,0,0,0,9.333-2.61c2.391-.8,4.687-1.9,6.992-2.947,2.137-.967,4.28-1.941,6.328-3.077,1.974-1.1,3.865-2.351,5.728-3.631,1.95-1.34,3.867-2.738,5.713-4.216,1.426-1.142,2.744-2.423,4.065-3.689,1.49-1.428,2.978-2.863,4.376-4.379,1.181-1.279,2.267-2.651,3.333-4.03,1.331-1.722,2.664-3.45,3.876-5.256a60.887,60.887,0,0,0,3.183-5.309c1.43-2.69,2.815-5.409,4.076-8.18a42.228,42.228,0,0,0,2.066-5.643c.841-2.882,1.6-5.793,2.244-8.726a65.827,65.827,0,0,0,1.329-7.847,80.367,80.367,0,0,0,.489-10.6,77.506,77.506,0,0,0-1.3-11.206,92.335,92.335,0,0,0-3.038-12.3,85.133,85.133,0,0,0-4.708-10.7,81.489,81.489,0,0,0-4.57-7.88,50.171,50.171,0,0,0-4.747-6.494,92.549,92.549,0,0,0-8.729-8.773,120.673,120.673,0,0,0-11.7-8.7,54.34,54.34,0,0,0-8.392-4.161c-3.261-1.412-6.576-2.726-9.945-3.851a54.178,54.178,0,0,0-6.729-1.516,71.714,71.714,0,0,0-7.6-1.321,85.006,85.006,0,0,0-18.307.225,94.85,94.85,0,0,0-10.991,2.32,49.091,49.091,0,0,0-11.031,4.014c-2.037,1.08-4.2,1.926-6.236,3a51.9,51.9,0,0,0-5,3.023c-2.244,1.529-4.42,3.16-6.6,4.781-.937.7-1.824,1.462-2.716,2.218-.851.721-2.743.754-3.381.033a2.889,2.889,0,0,1,.083-3.76c2.071-1.707,4.088-3.492,6.268-5.049,2.34-1.671,4.79-3.2,7.285-4.635a76.455,76.455,0,0,1,7.4-3.78,99.46,99.46,0,0,1,10.174-3.973c3.281-1.022,6.7-1.621,10.074-2.315,2.245-.461,4.518-.789,6.786-1.124.824-.121,1.671-.089,2.507-.127h11.552c3.258.445,6.524.838,9.77,1.354a44.58,44.58,0,0,1,6.522,1.352c3.5,1.111,6.932,2.428,10.348,3.772A54.192,54.192,0,0,1-610.5-65.8c2.891,1.589,5.756,3.255,8.482,5.109a91.139,91.139,0,0,1,8.337,6.329A77.967,77.967,0,0,1-587-47.644c2.217,2.447,4.325,5,6.347,7.612a49.813,49.813,0,0,1,3.378,5.184c1.388,2.345,2.724,4.725,3.986,7.14a38.711,38.711,0,0,1,2.037,4.62c1.135,3.1,2.262,6.212,3.207,9.375a72.8,72.8,0,0,1,1.636,7.177,78.252,78.252,0,0,1,1.379,19.379c-.23,3.877-.815,7.739-1.362,11.59a43.9,43.9,0,0,1-1.34,6.389c-.942,3.146-2.048,6.247-3.2,9.325-.9,2.418-1.889,4.815-3.006,7.14a55.26,55.26,0,0,1-3.18,5.6q-2.121,3.346-4.453,6.558c-1.092,1.5-2.3,2.926-3.528,4.327-1.822,2.086-3.592,4.237-5.588,6.148-2.267,2.171-4.711,4.166-7.165,6.128-2.03,1.623-4.134,3.165-6.3,4.6a59.948,59.948,0,0,1-5.4,3.067c-2.212,1.154-4.437,2.3-6.724,3.291-1.974.856-4.029,1.533-6.074,2.213-2.3.766-4.607,1.541-6.955,2.137a58.608,58.608,0,0,1-6.439,1.227,92.046,92.046,0,0,1-16.685,1A72.377,72.377,0,0,1-666.6,91.85a116.213,116.213,0,0,1-11.333-3.1,60.888,60.888,0,0,1-12.309-5.673c-3.354-2.13-6.842-4.08-10.018-6.449a93.329,93.329,0,0,1-8.414-7.392,61.818,61.818,0,0,1-6.4-6.8c-2.465-3.193-4.593-6.648-6.838-10.009a58.614,58.614,0,0,1-6.013-12.141c-.934-2.5-1.785-5.027-2.623-7.558a69,69,0,0,1-2.642-12.754C-733.4,18.365-733.542,16.749-733.717,15.137Z" fill="#5ac4fd"/>
      <path id="Trazado_641397" data-name="Trazado 641397" d="M-652.6,83.764c-14.666-.174-30.587-5.675-44.2-17-16.745-13.933-25.938-32.045-27.176-53.774a71.2,71.2,0,0,1,14.963-48.675c15.021-19.5,35.105-29.776,59.75-29.74A74.284,74.284,0,0,1-574.84,9.3C-574.916,50.717-608.328,83.708-652.6,83.764Zm14.714-99.2a21.775,21.775,0,0,0-8.954-2.4v53.95c3.138-.4,6.216-.805,8.953-2.44a23.764,23.764,0,0,0,3.968-2.094,31.059,31.059,0,0,0,7.641-8.187A27.69,27.69,0,0,0-622.311,11.4,23.25,23.25,0,0,0-623.8.2a32.01,32.01,0,0,0-3.275-6.645,35.889,35.889,0,0,0-5.823-5.977A34.418,34.418,0,0,0-637.886-15.437Zm-78.739,7.023c.285.165.57.472.855.473,4.2.022,8.394,0,12.591-.006a2.17,2.17,0,0,1,1.751,1.932,12.414,12.414,0,0,0,.7,2.561,4.765,4.765,0,0,0,7.361,1.576,5,5,0,0,0,1.8-4.352c-.029-7.156.021-14.312-.032-21.468a2.821,2.821,0,0,1,2.871-3.1,9.546,9.546,0,0,0,3.887-1.376,6.518,6.518,0,0,0,3.064-4.642,7.456,7.456,0,0,0-3.325-7.733c-2.154-1.389-4.639-1.056-7.041-1.035a.929.929,0,0,0-.535.211,49.788,49.788,0,0,0-4.191,3.564q-3.786,3.932-7.329,8.094a41.951,41.951,0,0,0-3.558,5.021c-1.488,2.394-2.9,4.838-4.218,7.331a36.8,36.8,0,0,0-2.155,5.036C-715.038-13.718-715.8-11.055-716.625-8.414Zm-2.109,24.269a12.328,12.328,0,0,1,6.269-1.668c5.758-.034,11.517-.015,17.275.005a14.606,14.606,0,0,1,8.723,3.063c4.009,2.975,6.775,6.894,7.116,12.029a20.968,20.968,0,0,1-.532,7.224,16.262,16.262,0,0,1-4.609,7.372,17.9,17.9,0,0,1-9.159,4.621,1.6,1.6,0,0,0-1.471,1.227q-1.175,3.551-2.53,7.041c-.672,1.73-.6,2.2.9,3.426.48.392.972.77,1.444,1.173,1.419,1.212,2.752,2.544,4.265,3.623,2.068,1.475,4.27,2.761,6.416,4.125a54.186,54.186,0,0,0,10.614,5.142c.975.354,1.9.854,2.892,1.153,1.613.487,3.259.865,4.516,1.192,1.361-2.227,2.491-4.339,3.87-6.272a15.243,15.243,0,0,1,9.348-5.894c1.03-.24,1.442-.662,1.438-1.761q-.055-14.875.014-29.752a1.687,1.687,0,0,0-1.384-1.855,11.678,11.678,0,0,1-7.358-6.53,12.046,12.046,0,0,1,.509-11.234,12.409,12.409,0,0,1,7.2-5.809c.878-.289,1-.615,1-1.375q-.021-25.372-.017-50.746a8.868,8.868,0,0,0-.116-1.138,26.529,26.529,0,0,1-4.181-1.371,28.93,28.93,0,0,1-4.927-3.2,16.5,16.5,0,0,1-4.774-7.281c-.226-.606-.4-.788-1.1-.553-1.72.573-3.509.937-5.233,1.5a40.549,40.549,0,0,0-4.444,1.732c-2.311,1.067-4.585,2.218-6.851,3.381a23.923,23.923,0,0,0-2.16,1.437c4.75,1.2,8.993,6.087,9.091,11.272a12.906,12.906,0,0,1-1.93,7.3,12.959,12.959,0,0,1-7.9,5.546v1.335c0,5.958.036,11.917-.026,17.875a15.046,15.046,0,0,1-.591,4.07,8.96,8.96,0,0,1-7.526,6.654,9.332,9.332,0,0,1-8.077-2A9.584,9.584,0,0,1-706-3.141H-717.92A67.545,67.545,0,0,0-718.734,15.855Zm72.013,42.963c1.041-.094,1.975-.131,2.892-.271,1.789-.274,3.567-.617,5.353-.913a42.116,42.116,0,0,0,12.139-4.406,44.167,44.167,0,0,0,9.166-6.254,69.9,69.9,0,0,0,5.053-5.087,39.628,39.628,0,0,0,2.687-3.383,38.675,38.675,0,0,0,3.1-4.4,63.461,63.461,0,0,0,3.839-8.319,50.615,50.615,0,0,0,2.924-15.725,56.866,56.866,0,0,0-.438-6.653,35.583,35.583,0,0,0-1.851-9.034c-.688-1.973-1.369-3.955-2.19-5.873a30.254,30.254,0,0,0-2.156-4.022c-1.153-1.856-2.359-3.685-3.643-5.453a28.068,28.068,0,0,0-3.343-4.048c-2.186-2.052-4.558-3.906-6.834-5.864-3.429-2.949-7.48-4.813-11.594-6.514a47.486,47.486,0,0,0-11.48-2.878c-.787-.113-1.617.024-2.39-.136-1.361-.283-1.352-.342-1.353,1.061q0,7.558,0,15.117c0,.429.037.857.063,1.4a27.652,27.652,0,0,1,11.619,3.1,31.317,31.317,0,0,1,9.408,7.105,34.5,34.5,0,0,1,6.322,10.091,28.568,28.568,0,0,1,2.222,11.755,31.29,31.29,0,0,1-8.519,21.636,31.2,31.2,0,0,1-21,10.277Zm-.14-114.431c2.953.385,5.832.7,8.691,1.152a42.505,42.505,0,0,1,6.162,1.276c2.93.919,5.808,2.026,8.645,3.2a39.052,39.052,0,0,1,6.257,3.076,106.449,106.449,0,0,1,9.339,6.706,70.781,70.781,0,0,1,6.709,6.462,47.183,47.183,0,0,1,3.826,4.877c1.365,1.893,2.728,3.8,3.906,5.807a62.458,62.458,0,0,1,2.955,5.934,57.977,57.977,0,0,1,2.311,5.747c.638,1.944.936,4,1.567,5.944,1.362,4.2,1.442,8.564,1.8,12.888a26.812,26.812,0,0,1-.207,4.995c-.329,3.139-.707,6.274-1.168,9.395a59.911,59.911,0,0,1-3.69,12.408,27.663,27.663,0,0,1-1.281,2.907c-.708,1.371-1.467,2.717-2.256,4.043-.982,1.65-1.94,3.323-3.05,4.885-1.171,1.649-2.476,3.207-3.784,4.753a58.527,58.527,0,0,1-4.16,4.635c-1.833,1.752-3.8,3.369-5.783,4.958a41.439,41.439,0,0,1-4.311,3.058c-1.847,1.129-3.772,2.133-5.7,3.13-1.579.819-3.173,1.627-4.818,2.3a55.578,55.578,0,0,1-5.62,1.994,81.861,81.861,0,0,1-8,2.012c-2.755.5-5.569.681-8.352,1v4.96c2.881-.372,5.676-.621,8.427-1.117,3.291-.593,6.563-1.326,9.809-2.138a34.056,34.056,0,0,0,5.19-1.8c2.159-.934,4.272-1.985,6.346-3.1a65,65,0,0,0,5.69-3.372c2.138-1.444,4.192-3.02,6.222-4.614,1.418-1.114,2.772-2.316,4.087-3.55,1.154-1.082,2.247-2.234,3.308-3.41,1-1.111,1.966-2.262,2.874-3.452q1.582-2.07,3.032-4.24c1.314-1.964,2.686-3.9,3.811-5.976a53.523,53.523,0,0,0,2.924-6.461,84.167,84.167,0,0,0,3.251-9.5,58.412,58.412,0,0,0,1.927-12.186c.226-6.575.107-13.083-1.465-19.54a56.906,56.906,0,0,0-2.778-9.559q-1.727-3.936-3.53-7.84a56,56,0,0,0-6.873-10.711,60.685,60.685,0,0,0-8.683-9.27c-2.2-1.861-4.478-3.64-6.834-5.295a61.216,61.216,0,0,0-6.576-4.062c-2.264-1.2-4.707-2.047-7.015-3.167a50.366,50.366,0,0,0-10.495-3.282c-2.227-.532-4.5-.892-6.77-1.212-1.916-.27-3.856-.371-5.875-.555Zm.076,10.043a53.866,53.866,0,0,1,35.707,15.608A52.884,52.884,0,0,1-594.8,5.484c.937,15.016-3.477,28.365-13.409,39.669-10.181,11.588-23.151,17.773-38.66,18.735v4.951a59.115,59.115,0,0,0,27.276-7.961c9.628-5.571,17.452-13.134,22.487-23.028,12.15-23.872,9.922-46.707-7-67.432-10.816-13.247-25.446-19.948-42.682-20.954Zm-55.658,100.2.478-.134c.863-2.551,1.777-5.087,2.576-7.658.694-2.234,1.634-3.05,3.94-3.18a9.1,9.1,0,0,0,5.681-1.947,28.85,28.85,0,0,0,3.706-3.766,10.514,10.514,0,0,0,1.926-8,11.526,11.526,0,0,0-2.116-5.483,11.873,11.873,0,0,0-6.7-4.855,24.551,24.551,0,0,0-5.409-.612c-4.117-.086-8.239-.116-12.353.015a21.38,21.38,0,0,0-5.231.913c-2.23.651-2.241.81-1.671,3.059.675,2.666,1.331,5.339,2.114,7.975a37.726,37.726,0,0,0,2.09,5.815,97.826,97.826,0,0,0,4.765,8.705C-706.708,48.6-704.522,51.582-702.443,54.627ZM-652.019,69a8.388,8.388,0,0,1-1.23.576,10.6,10.6,0,0,0-4.688,2.685,11.165,11.165,0,0,0-3.087,4.746c-.151.5-.24.935.518,1,2.8.25,5.6.526,8.487.8ZM-661.1-59.551c.5,4.421,5.99,8.522,9.094,8.509V-60.59Zm9.139,72.125c-2.511.509-4.89,3.736-5.037,6.692-.136,2.715,2.145,5.877,5.037,6.954Z" fill="#030202"/>
      <path id="Trazado_641398" data-name="Trazado 641398" d="M-718.734,15.855a67.545,67.545,0,0,1,.814-19H-706a9.584,9.584,0,0,0,3.274,5.078,9.332,9.332,0,0,0,8.077,2,8.96,8.96,0,0,0,7.526-6.654,15.046,15.046,0,0,0,.591-4.07c.062-5.958.026-11.917.026-17.875V-26a12.959,12.959,0,0,0,7.9-5.546,12.906,12.906,0,0,0,1.93-7.3c-.1-5.185-4.341-10.074-9.091-11.272a23.923,23.923,0,0,1,2.16-1.437c2.266-1.163,4.54-2.314,6.851-3.381a40.549,40.549,0,0,1,4.444-1.732c1.724-.561,3.513-.925,5.233-1.5.706-.235.878-.053,1.1.553a16.5,16.5,0,0,0,4.774,7.281,28.93,28.93,0,0,0,4.927,3.2,26.529,26.529,0,0,0,4.181,1.371,8.868,8.868,0,0,1,.116,1.138q.012,25.373.017,50.746c0,.76-.125,1.086-1,1.375a12.409,12.409,0,0,0-7.2,5.809,12.046,12.046,0,0,0-.509,11.234,11.678,11.678,0,0,0,7.358,6.53,1.687,1.687,0,0,1,1.384,1.855q-.091,14.875-.014,29.752c0,1.1-.408,1.521-1.438,1.761a15.243,15.243,0,0,0-9.348,5.894c-1.379,1.933-2.509,4.045-3.87,6.272-1.257-.327-2.9-.7-4.516-1.192-.99-.3-1.917-.8-2.892-1.153a54.186,54.186,0,0,1-10.614-5.142c-2.146-1.364-4.348-2.65-6.416-4.125-1.513-1.079-2.846-2.411-4.265-3.623-.472-.4-.964-.781-1.444-1.173-1.5-1.224-1.57-1.7-.9-3.426q1.353-3.488,2.53-7.041a1.6,1.6,0,0,1,1.471-1.227,17.9,17.9,0,0,0,9.159-4.621,16.262,16.262,0,0,0,4.609-7.372,20.968,20.968,0,0,0,.532-7.224c-.341-5.135-3.107-9.054-7.116-12.029a14.606,14.606,0,0,0-8.723-3.063c-5.758-.02-11.517-.039-17.275-.005A12.328,12.328,0,0,0-718.734,15.855Z" fill="#26aafd"/>
      <path id="Trazado_641399" data-name="Trazado 641399" d="M-646.721,58.818V41.132a31.2,31.2,0,0,0,21-10.277,31.29,31.29,0,0,0,8.519-21.636,28.568,28.568,0,0,0-2.222-11.755,34.5,34.5,0,0,0-6.322-10.091,31.317,31.317,0,0,0-9.408-7.105,27.652,27.652,0,0,0-11.619-3.1c-.026-.542-.062-.97-.063-1.4q-.006-7.558,0-15.117c0-1.4-.008-1.344,1.353-1.061.773.16,1.6.023,2.39.136a47.486,47.486,0,0,1,11.48,2.878c4.114,1.7,8.165,3.565,11.594,6.514,2.276,1.958,4.648,3.812,6.834,5.864a28.068,28.068,0,0,1,3.343,4.048c1.284,1.768,2.49,3.6,3.643,5.453a30.254,30.254,0,0,1,2.156,4.022c.821,1.918,1.5,3.9,2.19,5.873a35.583,35.583,0,0,1,1.851,9.034,56.866,56.866,0,0,1,.438,6.653,50.615,50.615,0,0,1-2.924,15.725,63.461,63.461,0,0,1-3.839,8.319,38.675,38.675,0,0,1-3.1,4.4,39.628,39.628,0,0,1-2.687,3.383,69.9,69.9,0,0,1-5.053,5.087,44.167,44.167,0,0,1-9.166,6.254,42.116,42.116,0,0,1-12.139,4.406c-1.786.3-3.564.639-5.353.913C-644.746,58.687-645.68,58.724-646.721,58.818Z" fill="#753229"/>
      <path id="Trazado_641400" data-name="Trazado 641400" d="M-646.861-55.613v-4.9c2.019.184,3.959.285,5.875.555,2.269.32,4.543.68,6.77,1.212a50.366,50.366,0,0,1,10.495,3.282c2.308,1.12,4.751,1.971,7.015,3.167a61.216,61.216,0,0,1,6.576,4.062c2.356,1.655,4.635,3.434,6.834,5.295a60.685,60.685,0,0,1,8.683,9.27,56,56,0,0,1,6.873,10.711q1.8,3.9,3.53,7.84a56.906,56.906,0,0,1,2.778,9.559c1.572,6.457,1.691,12.965,1.465,19.54a58.412,58.412,0,0,1-1.927,12.186,84.167,84.167,0,0,1-3.251,9.5,53.523,53.523,0,0,1-2.924,6.461c-1.125,2.072-2.5,4.012-3.811,5.976q-1.449,2.166-3.032,4.24c-.908,1.19-1.872,2.341-2.874,3.452-1.061,1.176-2.154,2.328-3.308,3.41-1.315,1.234-2.669,2.436-4.087,3.55-2.03,1.594-4.084,3.17-6.222,4.614a65,65,0,0,1-5.69,3.372c-2.074,1.112-4.187,2.163-6.346,3.1a34.056,34.056,0,0,1-5.19,1.8c-3.246.812-6.518,1.545-9.809,2.138-2.751.5-5.546.745-8.427,1.117v-4.96c2.783-.321,5.6-.5,8.352-1a81.861,81.861,0,0,0,8-2.012,55.578,55.578,0,0,0,5.62-1.994c1.645-.673,3.239-1.481,4.818-2.3,1.923-1,3.848-2,5.7-3.13a41.439,41.439,0,0,0,4.311-3.058c1.98-1.589,3.95-3.206,5.783-4.958a58.527,58.527,0,0,0,4.16-4.635c1.308-1.546,2.613-3.1,3.784-4.753,1.11-1.562,2.068-3.235,3.05-4.885.789-1.326,1.548-2.672,2.256-4.043a27.663,27.663,0,0,0,1.281-2.907,59.911,59.911,0,0,0,3.69-12.408c.461-3.121.839-6.256,1.168-9.395a26.812,26.812,0,0,0,.207-4.995c-.36-4.324-.44-8.69-1.8-12.888-.631-1.946-.929-4-1.567-5.944a57.977,57.977,0,0,0-2.311-5.747,62.458,62.458,0,0,0-2.955-5.934c-1.178-2.008-2.541-3.914-3.906-5.807a47.183,47.183,0,0,0-3.826-4.877,70.781,70.781,0,0,0-6.709-6.462,106.449,106.449,0,0,0-9.339-6.706,39.052,39.052,0,0,0-6.257-3.076c-2.837-1.176-5.715-2.283-8.645-3.2a42.505,42.505,0,0,0-6.162-1.276C-641.029-54.909-643.908-55.228-646.861-55.613Z" fill="#fa5132"/>
      <path id="Trazado_641401" data-name="Trazado 641401" d="M-646.785-45.57v-4.966c17.236,1.006,31.866,7.707,42.682,20.954,16.923,20.725,19.151,43.56,7,67.432-5.035,9.894-12.859,17.457-22.487,23.028a59.115,59.115,0,0,1-27.276,7.961V63.888c15.509-.962,28.479-7.147,38.66-18.735,9.932-11.3,14.346-24.653,13.409-39.669a52.884,52.884,0,0,0-16.282-35.446A53.866,53.866,0,0,0-646.785-45.57Z" fill="#a03c2b"/>
      <path id="Trazado_641402" data-name="Trazado 641402" d="M-716.625-8.414c.825-2.641,1.587-5.3,2.5-7.915a36.8,36.8,0,0,1,2.155-5.036c1.314-2.493,2.73-4.937,4.218-7.331a41.951,41.951,0,0,1,3.558-5.021q3.532-4.161,7.329-8.094a49.788,49.788,0,0,1,4.191-3.564.929.929,0,0,1,.535-.211c2.4-.021,4.887-.354,7.041,1.035a7.456,7.456,0,0,1,3.325,7.733,6.518,6.518,0,0,1-3.064,4.642,9.546,9.546,0,0,1-3.887,1.376,2.821,2.821,0,0,0-2.871,3.1c.053,7.156,0,14.312.032,21.468a5,5,0,0,1-1.8,4.352,4.765,4.765,0,0,1-7.361-1.576,12.414,12.414,0,0,1-.7-2.561,2.17,2.17,0,0,0-1.751-1.932,3.906,3.906,0,0,0-1.193-.43C-708.456-8.414-712.54-8.408-716.625-8.414Z" fill="#a5cd56"/>
      <path id="Trazado_641403" data-name="Trazado 641403" d="M-702.443,54.627c-2.079-3.045-4.265-6.025-6.206-9.157a97.826,97.826,0,0,1-4.765-8.705,37.726,37.726,0,0,1-2.09-5.815c-.783-2.636-1.439-5.309-2.114-7.975-.57-2.249-.559-2.408,1.671-3.059A21.38,21.38,0,0,1-710.716,19c4.114-.131,8.236-.1,12.353-.015a24.551,24.551,0,0,1,5.409.612,11.873,11.873,0,0,1,6.7,4.855,11.526,11.526,0,0,1,2.116,5.483,10.514,10.514,0,0,1-1.926,8,28.85,28.85,0,0,1-3.706,3.766,9.1,9.1,0,0,1-5.681,1.947c-2.306.13-3.246.946-3.94,3.18-.8,2.571-1.713,5.107-2.576,7.658Z" fill="#a5cd56"/>
      <path id="Trazado_641404" data-name="Trazado 641404" d="M-637.887,33.673c-2.737,1.635-5.815,2.042-8.953,2.44v-53.95a21.775,21.775,0,0,1,8.954,2.4c.868,1.245,1.8,2.452,2.591,3.741A34.513,34.513,0,0,1-630.8-.765a46.689,46.689,0,0,1,1.27,12.044c-.038.842-.416,1.672-.436,2.512a30.622,30.622,0,0,1-1.686,8.266,30.2,30.2,0,0,1-5.764,10.7A4.623,4.623,0,0,0-637.887,33.673Z" fill="#fe8a2a"/>
      <path id="Trazado_641405" data-name="Trazado 641405" d="M-637.887,33.673a4.623,4.623,0,0,1,.472-.912,30.2,30.2,0,0,0,5.764-10.7,30.622,30.622,0,0,0,1.686-8.266c.02-.84.4-1.67.436-2.512A46.689,46.689,0,0,0-630.8-.765a34.513,34.513,0,0,0-4.5-10.931c-.8-1.289-1.723-2.5-2.591-3.741a34.418,34.418,0,0,1,4.983,3.016,35.889,35.889,0,0,1,5.823,5.977A32.01,32.01,0,0,1-623.8.2a23.25,23.25,0,0,1,1.494,11.2,27.69,27.69,0,0,1-3.967,11.994,31.059,31.059,0,0,1-7.641,8.187A23.764,23.764,0,0,1-637.887,33.673Z" fill="#fa5132"/>
      <path id="Trazado_641406" data-name="Trazado 641406" d="M-652.019,69V78.81c-2.884-.275-5.684-.551-8.487-.8-.758-.068-.669-.5-.518-1a11.165,11.165,0,0,1,3.087-4.746,10.6,10.6,0,0,1,4.688-2.685A8.388,8.388,0,0,0-652.019,69Z" fill="#b6eef3"/>
      <path id="Trazado_641407" data-name="Trazado 641407" d="M-661.1-59.551l9.094-1.039v9.548C-655.115-51.029-660.6-55.13-661.1-59.551Z" fill="#b6eef3"/>
      <path id="Trazado_641408" data-name="Trazado 641408" d="M-651.966,12.574V26.22c-2.892-1.077-5.173-4.239-5.037-6.954C-656.856,16.31-654.477,13.083-651.966,12.574Z" fill="#9ec553"/>
      <path id="Trazado_641409" data-name="Trazado 641409" d="M-716.625-8.414c4.085.006,8.169,0,12.253.037a3.906,3.906,0,0,1,1.193.43c-4.2.009-8.394.028-12.591.006C-716.055-7.942-716.34-8.249-716.625-8.414Z" fill="#556a2c"/>
    </g>
  </g>
</svg>
