<svg xmlns="http://www.w3.org/2000/svg" width="134" height="134" viewBox="0 0 134 134">
  <g id="Grupo_909103" data-name="Grupo 909103" transform="translate(-734 -11496.803)">
    <circle id="Elipse_7475" data-name="Elipse 7475" cx="67" cy="67" r="67" transform="translate(734 11496.803)" fill="#179587"/>
    <g id="Grupo_907060" data-name="Grupo 907060" transform="translate(1390.16 11853.852)">
      <path id="Trazado_641435" data-name="Trazado 641435" d="M-603.754-255.931h-17.555c-.2-.126-.388-.27-.6-.376a3.152,3.152,0,0,1-1.935-2.926q-.025-5.311,0-10.622a2.5,2.5,0,0,1,.615-1.781,1.859,1.859,0,0,0,.545-1.506c-.08-.974-.019-1.961-.023-2.942a1.807,1.807,0,0,0-.052-.509q-.734-2.431-1.487-4.856c-.467-1.5-.948-2.986-1.424-4.478-.164-.513-.331-1.024-.5-1.535v-.924a1.613,1.613,0,0,0,.111-.409q.011-5.077,0-10.155a1.615,1.615,0,0,0-.113-.408v-.578c.236-.682.429-1.384.721-2.04a6.475,6.475,0,0,1,.878-1.413,6.75,6.75,0,0,1,3.021-2.112v-3.089q0-7.9,0-15.8a3.986,3.986,0,0,1,1.771-3.65c.552-.355,1.128-.671,1.693-1.005h61.328c.114.048.225.106.343.142a4.539,4.539,0,0,1,2.112,1.3,5.173,5.173,0,0,1,1.252,3.551q-.025,22.623,0,45.247a12.729,12.729,0,0,1-.945,5.215c-.436,1-.826,2.016-1.236,3.024a3.33,3.33,0,0,1,2.139,3c.075,2.787.034,5.578.018,8.368a2.779,2.779,0,0,1-.98,2.123,16.644,16.644,0,0,1-1.666,1.141h-17.671a1.906,1.906,0,0,0-.42-.335,3.24,3.24,0,0,1-2.117-3.261c-.015-2.482.023-4.965-.014-7.446a3.838,3.838,0,0,1,1.8-3.451c-.351-.658-.709-1.3-1.044-1.962-.606-1.192-1.211-2.385-1.8-3.589-.709-1.459-1.388-2.933-2.1-4.39a1.12,1.12,0,0,0-1.129-.764c-6.619.034-13.239.021-19.858.021h-.66c-.167,3-1.5,5.6-2.284,8.343a3.738,3.738,0,0,1,2.014,3.265c.015,3.406.039,6.812-.031,10.217a4.906,4.906,0,0,1-.7,1.842C-602.128-256.6-602.994-256.327-603.754-255.931Zm-5.619-27.927.132.51h28.63a13.838,13.838,0,0,1-.8-1.644.819.819,0,0,0-.935-.628c-3.021.016-6.042.005-9.063.009q-4.156,0-8.312.018h-10.367Zm37.135,25.6q7.88.007,15.76.009c.753,0,1.11-.416,1.113-1.233.008-2.559-.008-5.119.012-7.678a1.212,1.212,0,0,0-.694-1.248,5.891,5.891,0,0,0-.782-.1q-4.2-.012-8.407,0c-2.226,0-4.452.014-6.677.022-1.138-.191-1.752.389-1.718,1.592.071,2.452.018,4.908.023,7.361C-573.607-258.582-573.223-258.231-572.238-258.261Zm-47.931,0q7.839.009,15.679.012a1.08,1.08,0,0,0,1.194-1.226c.007-3.362,0-6.725.008-10.088a.94.94,0,0,0-.689-1.046,2.646,2.646,0,0,0-.709-.212c-1.919-.017-3.837-.012-5.756-.009q-4.863.007-9.727.019c-.95-.038-1.365.351-1.367,1.314q-.007,4.98,0,9.96C-621.533-258.521-621.2-258.225-620.169-258.261Zm-1.391-44.1v-.684a6.266,6.266,0,0,0-.974.714,4.655,4.655,0,0,0-1.293,3.143c-.023,3.077.028,6.155-.038,9.23a15.218,15.218,0,0,0,1.154,5.764c.547,1.449.953,2.95,1.5,4.4a13.3,13.3,0,0,1,.717,5.313c-.018.435,0,.872,0,1.316h15.45c.388-2.74,1.925-5.139,1.982-7.93h-5.826c-.261.371-.411.8-.709.966-.854.474-1.516.052-1.678-.984-.033-.319-.062-.638-.1-.956a6.3,6.3,0,0,0-1.093-3.071,34.285,34.285,0,0,0-2.383-2.743,3.37,3.37,0,0,1-1.031-2.375c.016-1.479,0-2.959,0-4.439a6.283,6.283,0,0,0-.46-2.61,3.431,3.431,0,0,0-1.97-1.943c-.715-.2-1.031.035-1.032.792-.005,2.73,0,5.461-.007,8.191,0,.768-.4,1.178-1.088,1.18-.708,0-1.072-.381-1.1-1.167-.008-.23,0-.461,0-.692Q-621.55-296.648-621.56-302.358Zm62.154-21.724c.32.286.656.556.957.861a3.359,3.359,0,0,1,.781,2.559q-.009,14.378,0,28.757v.626h2.31v-32.7c0-.212,0-.423,0-.635a2.148,2.148,0,0,0-2.133-2.111c-.673,0-1.346.008-2.02.012-.1-.006-.191-.017-.288-.017q-28.578,0-57.156-.013a2.327,2.327,0,0,0-2.373,2.433c-.019,7.39-.009,14.78-.01,22.169v.5l2.309.324v-.7q0-9.295,0-18.59c0-.25,0-.5.012-.75.064-1.119,1.2-2.845,2.6-2.972.439-.04.88-.09,1.32-.09q25.807-.007,51.613.01A13.523,13.523,0,0,1-559.406-324.082Zm-19.061,34.429a1.465,1.465,0,0,0-1.475.832,1.884,1.884,0,0,0,.041,1.88c.7,1.459,1.463,2.892,2.191,4.34.278.552.519,1.124.8,1.676.528,1.048,1.076,2.087,1.606,3.133.457.9.9,1.808,1.353,2.709.537,1.064,1.13,2.1,1.609,3.194.471,1.071.44,1.106,1.607,1.042h4.408c2.806.006,5.612.02,8.418,0a.794.794,0,0,0,.546-.431c.327-.741.605-1.5.88-2.267a10.723,10.723,0,0,0,.99-2.983c.14-3.858.1-7.722.113-11.584,0-.526-.422-.86-1.02-.941a1.092,1.092,0,0,0-1.268,1.231c-.007.712.036,1.427-.02,2.135a1.25,1.25,0,0,1-.382.891,1.191,1.191,0,0,1-1.909-1.094c-.007-1.058.011-2.117-.008-3.175-.013-.729-.368-1.119-.99-1.163a1.048,1.048,0,0,0-1.193,1.144c-.02,1.1.044,2.2-.034,3.289a1.611,1.611,0,0,1-.59,1.064,1.1,1.1,0,0,1-1.7-.99c.035-1.481.016-2.963,0-4.445a1.194,1.194,0,0,0-1.266-1.215,1.288,1.288,0,0,0-1.036,1.218c-.008,1.463.009,2.925-.012,4.388a.99.99,0,0,1-.416.987,1.237,1.237,0,0,1-1.914-1.125c.064-4.733.029-9.468.026-14.2a3.4,3.4,0,0,0-.052-.745,1.049,1.049,0,0,0-1.5-.633c-.629.268-.643.736-.643,1.266q0,8.2-.012,16.4a2.533,2.533,0,0,1-.274,1.056,1.142,1.142,0,0,1-1.84.08q-.568-.912-1.107-1.842c-.826-1.422-1.644-2.848-2.467-4.272A1.4,1.4,0,0,0-578.466-289.654Zm4.977-12.012a3.65,3.65,0,0,1,2.766-2.2c.269,0,.539-.009.807.01a2.931,2.931,0,0,1,2.639,1.673c.246.513.411,1.065.638,1.667.977,0,2.053-.022,3.127.014a1.615,1.615,0,0,1,.849.317,1.023,1.023,0,0,1,.325,1.244,1.17,1.17,0,0,1-1.216.749c-1.067-.053-2.139-.015-3.212-.015v4.721a.7.7,0,0,0,.144.008,3.529,3.529,0,0,1,3.7,1.145.48.48,0,0,0,.411.129,2.827,2.827,0,0,1,2.527-.024V-320.6c0-.173.009-.347-.007-.519a1.127,1.127,0,0,0-1.152-1.1c-.345-.013-.692.009-1.037.015-.173-.006-.345-.018-.518-.018h-50.5c-.077,0-.154,0-.231,0a1.183,1.183,0,0,0-1.3,1.314q-.006,10.734,0,21.468a2.166,2.166,0,0,0,.157.654,12.143,12.143,0,0,1,.87,2.663c.157,1.872.109,3.764.113,5.647a2.47,2.47,0,0,0,1.165,1.862,1.35,1.35,0,0,0,1.4.707q13.932-.032,27.865-.014h.623c.065-.075.086-.088.088-.1.012-.095.015-.191.029-.286a4.019,4.019,0,0,1,1.872-3.057,3.906,3.906,0,0,1,4.174,0,2.794,2.794,0,0,1,.914.734c.536.791.987,1.639,1.481,2.459a2.927,2.927,0,0,0,.316.36v-10.363h-4.934c-1.767-.007-3.533-.008-5.3-.025a1.1,1.1,0,0,1-1.153-1.241,1.131,1.131,0,0,1,1.284-1.064q4.436-.014,8.872-.02h1.24Z" transform="translate(0 0)" fill="#333"/>
      <path id="Trazado_641436" data-name="Trazado 641436" d="M-600.087-281.272a2.47,2.47,0,0,1-1.165-1.862c0-1.884.044-3.775-.113-5.647a12.143,12.143,0,0,0-.87-2.663,2.165,2.165,0,0,1-.157-.654q-.012-10.734,0-21.468a1.183,1.183,0,0,1,1.3-1.314c.077,0,.154,0,.231,0h50.5c.173,0,.346.012.518.018-.132.989-.245,1.982-.4,2.967-.15.931-.347,1.854-.523,2.78h-3.678a3.5,3.5,0,0,0-3.22-3.451,3.392,3.392,0,0,0-2.648,1.047,3.152,3.152,0,0,0-.976,2.412h-10.143c-.471,0-.923.053-1.144.559-.409.932.132,1.73,1.242,1.74,3.137.03,6.273.011,9.41.011h.618a3.465,3.465,0,0,0,3.2,3.347,3.377,3.377,0,0,0,2.56-.9,3.344,3.344,0,0,0,1.1-2.436h2.755c-.085.227-.154.462-.258.681-.406.854-.8,1.715-1.242,2.549-.434.814-.924,1.6-1.39,2.394h-8.986a3.437,3.437,0,0,0-3.374-3.424c-1.779-.174-3.152,1.229-3.518,3.443-.316,0-.641,0-.964,0-.85.008-1.281.381-1.285,1.109a1.131,1.131,0,0,0,1.272,1.2c.34.006.681,0,1.019,0a3.353,3.353,0,0,0,3.079,3.341,3.4,3.4,0,0,0,2.5-.739,3.456,3.456,0,0,0,1.278-2.6h.323l6.811.019c-.543.593-1.091,1.182-1.627,1.782a4.165,4.165,0,0,0-.336.507,3.65,3.65,0,0,0-2.766,2.2l-1.391,1.134q-4.436.009-8.872.02a1.13,1.13,0,0,0-1.284,1.064,1.1,1.1,0,0,0,1.153,1.241c1.767.016,3.534.017,5.3.025-.646.37-1.274.775-1.941,1.1q-1.594.78-3.232,1.47c-1.756.737-3.508,1.492-5.3,2.135s-3.62,1.214-5.459,1.715-3.711.885-5.573,1.3q-1.365.308-2.744.553-1.83.323-3.668.591c-.89.13-1.787.218-2.681.322Q-598.472-281.456-600.087-281.272Zm12.515-9.586h2.136q4.59,0,9.181,0c.69,0,1.225-.4,1.208-1.007-.078-2.824.349-5.675-.536-8.46a11.233,11.233,0,0,0-1.518-3.188,13.237,13.237,0,0,0-3.259-3.314,13.346,13.346,0,0,0-4.137-1.943,12.958,12.958,0,0,0-5.327-.167,5.177,5.177,0,0,0-1.238.251,33.2,33.2,0,0,0-3.14,1.477,7.946,7.946,0,0,0-1.963,1.462,14.517,14.517,0,0,0-2.115,2.65,10.957,10.957,0,0,0-1.681,4.739c-.12,2.033-.1,4.076-.125,6.114-.012,1.039.344,1.385,1.369,1.385Q-593.144-290.856-587.572-290.857Z" transform="translate(-12.326 -7.345)" fill="#e3eef7"/>
      <path id="Trazado_641437" data-name="Trazado 641437" d="M-515.448-241.268h-4.408c-.484-.9-.984-1.8-1.449-2.707q-1.218-2.387-2.4-4.792c-.9-1.825-1.787-3.658-2.687-5.483-.294-.6-.641-1.166-.91-1.772a4.19,4.19,0,0,1-.74-2.54,15.738,15.738,0,0,1,.457-1.512,1.4,1.4,0,0,1,1.463.843c.823,1.423,1.641,2.85,2.467,4.272q.54.929,1.107,1.842a1.142,1.142,0,0,0,1.84-.08,2.534,2.534,0,0,0,.274-1.056q.025-8.2.012-16.4c0-.53.013-1,.643-1.266a1.049,1.049,0,0,1,1.5.633,3.4,3.4,0,0,1,.052.745c0,4.734.038,9.469-.026,14.2a1.237,1.237,0,0,0,1.914,1.125.99.99,0,0,0,.416-.987c.02-1.462,0-2.925.012-4.388a1.288,1.288,0,0,1,1.036-1.218,1.194,1.194,0,0,1,1.266,1.215c.013,1.482.031,2.964,0,4.445a1.1,1.1,0,0,0,1.7.99,1.611,1.611,0,0,0,.59-1.064c.078-1.091.014-2.192.034-3.289a1.048,1.048,0,0,1,1.193-1.144c.622.044.976.434.99,1.163.019,1.058,0,2.117.008,3.175a1.191,1.191,0,0,0,1.909,1.094,1.25,1.25,0,0,0,.382-.891c.056-.708.013-1.423.02-2.135a1.092,1.092,0,0,1,1.268-1.231,25.33,25.33,0,0,1-.546,5.581,19.948,19.948,0,0,1-2.448,6.258,16.548,16.548,0,0,1-3.084,3.74A17.567,17.567,0,0,1-515.448-241.268Z" transform="translate(-50.881 -29.58)" fill="#fed0b4"/>
      <path id="Trazado_641438" data-name="Trazado 641438" d="M-552.062-321.605a13.524,13.524,0,0,0-2.089-.324q-25.807-.027-51.614-.01c-.44,0-.881.05-1.32.09-1.4.127-2.532,1.853-2.6,2.972-.014.25-.012.5-.012.75q0,9.3,0,18.59v.7l-2.309-.324v-.5c0-7.39-.01-14.78.01-22.169a2.327,2.327,0,0,1,2.373-2.433q28.578.028,57.156.013c.1,0,.192.011.288.017Q-552.118-322.92-552.062-321.605Z" transform="translate(-7.344 -2.477)" fill="#5499d3"/>
      <path id="Trazado_641439" data-name="Trazado 641439" d="M-613.31-244.4h-2.311c0-1.1.048-2.194-.018-3.286a10.984,10.984,0,0,0-.394-2.254c-.231-.839-.587-1.642-.867-2.469-.331-.978-.6-1.979-.966-2.942a13.969,13.969,0,0,1-1.111-5.115c.023-3.018,0-6.037.012-9.055a6.792,6.792,0,0,1,.151-1.885,16.966,16.966,0,0,1,.981-2.192q.01,5.71.02,11.42c0,.23,0,.461,0,.692.027.786.391,1.169,1.1,1.167.688,0,1.085-.412,1.088-1.18.009-2.73,0-5.461.007-8.191,0-.757.317-.992,1.032-.792a11.462,11.462,0,0,1,.557,1.042,8.552,8.552,0,0,1,.731,3.556c-.05,1.8-.027,3.609,0,5.413a1.834,1.834,0,0,0,.286,1.014q1.029,1.384,2.171,2.682a8,8,0,0,1,1.771,3.258c.309,1.157.286,1.163,1.515,1.171.162,1.036.824,1.458,1.678.984.3-.166.448-.6.709-.966h3.862c-.864.982-1.66,2.037-2.613,2.923a18.281,18.281,0,0,1-2.685,1.909,22.2,22.2,0,0,1-2.771,1.571C-610.655-245.346-612-244.9-613.31-244.4Z" transform="translate(-3.726 -28.763)" fill="#fed0b4"/>
      <path id="Trazado_641440" data-name="Trazado 641440" d="M-597.594-255.352q1.615-.187,3.23-.374c.894-.1,1.791-.193,2.681-.322q1.839-.268,3.668-.591,1.378-.243,2.744-.553c1.861-.419,3.733-.8,5.573-1.3s3.665-1.071,5.459-1.715,3.544-1.4,5.3-2.135q1.637-.686,3.232-1.47c.667-.326,1.3-.731,1.941-1.1h4.934v10.363a2.925,2.925,0,0,1-.316-.36c-.493-.82-.945-1.668-1.481-2.459a2.8,2.8,0,0,0-.914-.734,3.906,3.906,0,0,0-4.174,0,4.019,4.019,0,0,0-1.872,3.057c-.014.094-.017.191-.029.286,0,.016-.023.029-.088.1h-.623q-13.932,0-27.865.014A1.35,1.35,0,0,1-597.594-255.352Z" transform="translate(-14.819 -33.265)" fill="#c3dbef"/>
      <path id="Trazado_641441" data-name="Trazado 641441" d="M-507.153-301.156c.465-.8.956-1.58,1.39-2.394.444-.833.836-1.695,1.242-2.549.1-.219.173-.454.258-.681.171-.005.341-.013.512-.016a1.41,1.41,0,0,0,1.326-1.071,1.3,1.3,0,0,0-.918-1.248c.176-.926.373-1.849.523-2.78.158-.985.27-1.978.4-2.967.346-.006.692-.028,1.037-.015a1.127,1.127,0,0,1,1.152,1.1c.016.172.007.346.007.519v28.378a2.827,2.827,0,0,0-2.527.024.481.481,0,0,1-.411-.129,3.529,3.529,0,0,0-3.7-1.145.7.7,0,0,1-.144-.008v-4.721c1.073,0,2.144-.038,3.212.015a1.17,1.17,0,0,0,1.216-.749,1.023,1.023,0,0,0-.325-1.244,1.615,1.615,0,0,0-.849-.317c-1.074-.037-2.149-.014-3.127-.014-.227-.6-.392-1.154-.638-1.667a2.931,2.931,0,0,0-2.639-1.673c-.268-.019-.538-.008-.807-.01a4.152,4.152,0,0,1,.336-.507c.535-.6,1.083-1.189,1.627-1.783q2.622-.009,5.243-.02a1.346,1.346,0,0,0,1.326-1.128,1.29,1.29,0,0,0-1.322-1.181Q-505.453-301.149-507.153-301.156Z" transform="translate(-59.761 -7.346)" fill="#c3dbef"/>
      <path id="Trazado_641442" data-name="Trazado 641442" d="M-614.077-208.063q4.863-.01,9.727-.019c1.919,0,3.837-.008,5.756.009a2.647,2.647,0,0,1,.709.212,9.71,9.71,0,0,1-.475,1.1,14.343,14.343,0,0,1-1.338,2.115,18.1,18.1,0,0,1-2.116,2.042,17.712,17.712,0,0,1-2.641,2.035,40.994,40.994,0,0,1-4.868,2.389c-1.643.664-3.373,1.111-5.065,1.653q-.012-4.51-.025-9.021A5.648,5.648,0,0,1-614.077-208.063Z" transform="translate(-6.092 -62.748)" fill="#5499d3"/>
      <path id="Trazado_641443" data-name="Trazado 641443" d="M-514.024-203.259c2.226-.008,4.452-.019,6.678-.022q4.2-.005,8.407,0a5.884,5.884,0,0,1,.782.1,8.5,8.5,0,0,1-.5,1.2,17.644,17.644,0,0,1-1.53,2.322,13.17,13.17,0,0,1-3.613,2.9,24.451,24.451,0,0,1-6.115,2.374c-.994.254-2.014.409-3.026.591-.508.091-1.022.142-1.534.212a1.32,1.32,0,0,1-.087-.327c-.005-2.692-.028-5.385.02-8.077A3.984,3.984,0,0,1-514.024-203.259Z" transform="translate(-57.891 -65.239)" fill="#5499d3"/>
      <path id="Trazado_641444" data-name="Trazado 641444" d="M-614.36-196.287c1.692-.542,3.422-.988,5.065-1.653a41,41,0,0,0,4.868-2.389,17.721,17.721,0,0,0,2.641-2.035,18.111,18.111,0,0,0,2.116-2.042,14.344,14.344,0,0,0,1.338-2.115,9.689,9.689,0,0,0,.475-1.1.94.94,0,0,1,.689,1.046c-.01,3.363,0,6.726-.008,10.088a1.08,1.08,0,0,1-1.194,1.226q-7.839.005-15.679-.012Z" transform="translate(-6.121 -62.99)" fill="#3587ca"/>
      <path id="Trazado_641445" data-name="Trazado 641445" d="M-487.566-321.587q-.057-1.315-.114-2.629c.674,0,1.347-.016,2.02-.013a2.148,2.148,0,0,1,2.133,2.111c0,.212,0,.423,0,.635v32.7h-2.309v-.626q0-14.378,0-28.757a3.359,3.359,0,0,0-.781-2.559C-486.911-321.031-487.246-321.3-487.566-321.587Z" transform="translate(-71.839 -2.496)" fill="#3587ca"/>
      <path id="Trazado_641446" data-name="Trazado 641446" d="M-514.366-193.457c.512-.069,1.026-.12,1.534-.212,1.012-.182,2.031-.337,3.025-.591a24.453,24.453,0,0,0,6.115-2.374,13.17,13.17,0,0,0,3.613-2.9,17.642,17.642,0,0,0,1.53-2.322,8.508,8.508,0,0,0,.5-1.2,1.212,1.212,0,0,1,.694,1.248c-.02,2.56,0,5.119-.012,7.679,0,.817-.359,1.232-1.113,1.233q-7.88.009-15.761-.009Z" transform="translate(-57.995 -65.358)" fill="#3587ca"/>
      <path id="Trazado_641447" data-name="Trazado 641447" d="M-501.83-227.744a17.567,17.567,0,0,0,3.849-2.628,16.549,16.549,0,0,0,3.084-3.74,19.948,19.948,0,0,0,2.448-6.258,25.328,25.328,0,0,0,.546-5.581c.6.081,1.021.415,1.02.941-.008,3.862.027,7.726-.113,11.584a10.724,10.724,0,0,1-.99,2.983c-.274.763-.552,1.526-.88,2.267a.793.793,0,0,1-.546.431C-496.218-227.723-499.024-227.738-501.83-227.744Z" transform="translate(-64.499 -43.105)" fill="#fdb88c"/>
      <path id="Trazado_641448" data-name="Trazado 641448" d="M-581.622-238.79q4.156-.009,8.312-.018c3.021,0,6.042.007,9.063-.009a.819.819,0,0,1,.935.628,13.835,13.835,0,0,0,.8,1.644h-28.63l-.132-.51a2.584,2.584,0,0,1,.578-.237c1.413-.21,2.833-.37,4.243-.6C-584.839-238.162-583.232-238.488-581.622-238.79Z" transform="translate(-18.097 -46.805)" fill="#3587ca"/>
      <path id="Trazado_641449" data-name="Trazado 641449" d="M-607.2-221.468c1.315-.5,2.654-.95,3.936-1.527a22.218,22.218,0,0,0,2.771-1.571,18.287,18.287,0,0,0,2.685-1.909c.953-.886,1.749-1.941,2.613-2.923h1.963c-.057,2.791-1.594,5.19-1.982,7.93Z" transform="translate(-9.836 -51.691)" fill="#fdb88c"/>
      <path id="Trazado_641450" data-name="Trazado 641450" d="M-619.088-274.333a16.991,16.991,0,0,0-.981,2.192,6.791,6.791,0,0,0-.151,1.885c-.013,3.018.011,6.037-.012,9.055a13.968,13.968,0,0,0,1.111,5.115c.368.963.635,1.964.966,2.942.28.826.636,1.63.867,2.469a10.991,10.991,0,0,1,.394,2.254c.066,1.092.017,2.191.018,3.286h-1.152c0-.444-.015-.881,0-1.316a13.3,13.3,0,0,0-.717-5.313c-.544-1.45-.949-2.952-1.5-4.4a15.217,15.217,0,0,1-1.154-5.764c.066-3.076.015-6.154.038-9.23a4.655,4.655,0,0,1,1.293-3.143,6.267,6.267,0,0,1,.974-.714Z" transform="translate(-2.472 -28.025)" fill="#fefefe"/>
      <path id="Trazado_641451" data-name="Trazado 641451" d="M-602.818-248.986c-1.23-.008-1.206-.014-1.515-1.171a8,8,0,0,0-1.771-3.258q-1.14-1.294-2.171-2.682a1.835,1.835,0,0,1-.286-1.014c-.027-1.8-.05-3.61,0-5.413a8.551,8.551,0,0,0-.731-3.556,11.454,11.454,0,0,0-.557-1.042,3.432,3.432,0,0,1,1.97,1.943,6.283,6.283,0,0,1,.46,2.61c0,1.48.013,2.96,0,4.439a3.37,3.37,0,0,0,1.031,2.375,34.282,34.282,0,0,1,2.383,2.743,6.3,6.3,0,0,1,1.093,3.071C-602.88-249.624-602.85-249.3-602.818-248.986Z" transform="translate(-8.462 -32.121)" fill="#fcb78c"/>
      <path id="Trazado_641452" data-name="Trazado 641452" d="M-528.9-247.214a15.757,15.757,0,0,0-.457,1.512,4.191,4.191,0,0,0,.74,2.54c.269.606.617,1.176.911,1.772.9,1.825,1.785,3.658,2.687,5.483q1.187,2.4,2.4,4.792c.465.911.965,1.805,1.449,2.707-1.167.064-1.137.029-1.607-1.042-.479-1.09-1.072-2.129-1.609-3.194-.455-.9-.9-1.809-1.353-2.709-.531-1.047-1.078-2.085-1.606-3.133-.279-.552-.52-1.124-.8-1.676-.728-1.448-1.487-2.881-2.191-4.34a1.884,1.884,0,0,1-.041-1.88A1.465,1.465,0,0,1-528.9-247.214Z" transform="translate(-49.57 -42.44)" fill="#e3eef7"/>
      <path id="Trazado_641453" data-name="Trazado 641453" d="M-615.5-196.508l.312,1.017c-1.035.035-1.364-.261-1.366-1.276q-.009-4.98,0-9.96c0-.963.417-1.352,1.367-1.314a5.648,5.648,0,0,0-.338,2.513Q-615.505-201.018-615.5-196.508Z" transform="translate(-4.981 -62.769)" fill="#fefefe"/>
      <path id="Trazado_641454" data-name="Trazado 641454" d="M-515.737-193.589l.123.555c-.984.029-1.368-.322-1.37-1.284-.005-2.454.048-4.91-.023-7.361-.035-1.2.579-1.784,1.717-1.592a3.981,3.981,0,0,0-.513,1.279c-.048,2.692-.025,5.384-.02,8.076A1.32,1.32,0,0,0-515.737-193.589Z" transform="translate(-56.624 -65.226)" fill="#fefefe"/>
      <path id="Trazado_641455" data-name="Trazado 641455" d="M-582.39-238.761c-1.611.3-3.217.628-4.833.9-1.409.233-2.83.394-4.243.6a2.585,2.585,0,0,0-.578.237l-.713-1.736Z" transform="translate(-17.328 -46.834)" fill="#5399d3"/>
      <path id="Trazado_641456" data-name="Trazado 641456" d="M-519.6-271.022l1.391-1.134-.151,1.134Z" transform="translate(-55.279 -29.51)" fill="#c3dbef"/>
      <path id="Trazado_641457" data-name="Trazado 641457" d="M-585.077-284.661q-5.572,0-11.144,0c-1.025,0-1.382-.347-1.369-1.385.025-2.038,0-4.081.125-6.114a10.958,10.958,0,0,1,1.681-4.739,14.522,14.522,0,0,1,2.115-2.65,7.948,7.948,0,0,1,1.963-1.462,33.218,33.218,0,0,1,3.14-1.477,5.173,5.173,0,0,1,1.238-.251,12.957,12.957,0,0,1,5.327.167,13.346,13.346,0,0,1,4.137,1.943,13.238,13.238,0,0,1,3.259,3.314,11.232,11.232,0,0,1,1.518,3.188c.885,2.785.458,5.636.536,8.46.017.608-.518,1.006-1.208,1.007q-4.591.005-9.181,0Zm-9.168-2.332h4.435c.271-.756.472-1.423.746-2.057a4.007,4.007,0,0,1,2.311-2.139,4.732,4.732,0,0,1,2.724-.183.715.715,0,0,0,.8-.223c.625-.7,1.339-1.32,2.026-1.963a1.169,1.169,0,0,1,1.435.036,1.067,1.067,0,0,1,.1,1.593c-.59.6-1.177,1.21-1.749,1.831a.4.4,0,0,0-.063.371,4.759,4.759,0,0,1,1,2.735h5.6v-2.292c-.374,0-.716.012-1.057,0a1,1,0,0,1-1.1-1.109.987.987,0,0,1,1.075-1.075c.334-.017.669,0,.972,0a1.065,1.065,0,0,0,.044-.161,9.353,9.353,0,0,0-1.535-4.428c-.42-.71-.49-.666-1.118-.135-.1.086-.231.136-.332.221a.941.941,0,0,1-1.31.092c-.641-.608-.718-1.037-.27-1.594a4.392,4.392,0,0,1,.536-.574c.257-.224.348-.4-.021-.6-.426-.237-.835-.506-1.252-.76a7.184,7.184,0,0,0-3.383-1.081c-.1-.005-.213.156-.32.241-.006.153-.017.307-.018.46-.012,1-.328,1.394-1.119,1.384s-1.072-.376-1.077-1.416c0-.22,0-.44,0-.705a7.1,7.1,0,0,0-4.156,1.444c-.282.148-.57.286-.845.446-.384.223-.328.415.061.564.186.261.355.537.563.779.444.516.011.872-.219,1.252a.851.851,0,0,1-1.1.322,3.5,3.5,0,0,1-.739-.5l-.513-.575a10.167,10.167,0,0,0-2.15,5.308h1.13c.791.207,1.051.493,1.036,1.139-.015.661-.325.955-1.15,1.089h-1.116v2.268Zm11.409-.006a2.254,2.254,0,0,0-2.308-2.263A2.179,2.179,0,0,0-587.272-287Z" transform="translate(-14.821 -13.542)" fill="#353434"/>
      <path id="Trazado_641458" data-name="Trazado 641458" d="M-518.785-306.629a1.3,1.3,0,0,1,.918,1.248,1.41,1.41,0,0,1-1.326,1.071c-.171,0-.341.011-.512.016h-2.755a3.344,3.344,0,0,1-1.1,2.435,3.376,3.376,0,0,1-2.56.9,3.466,3.466,0,0,1-3.2-3.347h-.618c-3.137,0-6.274.019-9.41-.011-1.11-.011-1.651-.808-1.242-1.74.222-.506.673-.559,1.144-.559h10.143a3.152,3.152,0,0,1,.976-2.412,3.392,3.392,0,0,1,2.648-1.047,3.5,3.5,0,0,1,3.22,3.451Zm-8.191,1.1h0c0,.423-.024.848.005,1.269a.938.938,0,0,0,1.034.986.956.956,0,0,0,1.132-.938,24.868,24.868,0,0,0-.008-2.654.966.966,0,0,0-1.105-.907.99.99,0,0,0-1.049.974C-527-306.376-526.976-305.951-526.976-305.527Z" transform="translate(-44.319 -9.831)" fill="#353434"/>
      <path id="Trazado_641459" data-name="Trazado 641459" d="M-522.586-290.067q1.7.009,3.4.02a1.29,1.29,0,0,1,1.322,1.181,1.345,1.345,0,0,1-1.326,1.127q-2.622.015-5.243.02l-6.811-.019h-.322a3.456,3.456,0,0,1-1.278,2.6,3.4,3.4,0,0,1-2.5.739,3.353,3.353,0,0,1-3.079-3.341c-.338,0-.679,0-1.019,0a1.131,1.131,0,0,1-1.272-1.2c0-.729.435-1.1,1.285-1.109.324,0,.648,0,.964,0,.366-2.214,1.739-3.617,3.518-3.443a3.437,3.437,0,0,1,3.374,3.424Zm-11.317,1.192h0c0-.4.015-.809,0-1.212a1.039,1.039,0,0,0-1.113-1.113,1.008,1.008,0,0,0-1.065,1.085c-.027.788-.027,1.578,0,2.366.023.725.46,1.2,1.07,1.155a1.142,1.142,0,0,0,1.118-1.184C-533.911-288.143-533.9-288.509-533.9-288.875Z" transform="translate(-44.327 -18.434)" fill="#353434"/>
      <path id="Trazado_641460" data-name="Trazado 641460" d="M-574.588-284.395h-2.281a4.759,4.759,0,0,0-1-2.735.4.4,0,0,1,.063-.371c.572-.62,1.159-1.227,1.749-1.831a1.067,1.067,0,0,0-.1-1.593,1.169,1.169,0,0,0-1.435-.036c-.686.643-1.4,1.264-2.025,1.963a.715.715,0,0,1-.8.223,4.732,4.732,0,0,0-2.724.183,4.008,4.008,0,0,0-2.311,2.139c-.274.635-.475,1.3-.746,2.057h-4.436q0-1.134,0-2.268c.824-.134,1.134-.428,1.15-1.089.015-.646-.245-.932-1.036-1.139a4.4,4.4,0,0,1,.035-.51,11.657,11.657,0,0,1,1.5-4.223,3.5,3.5,0,0,0,.739.5.851.851,0,0,0,1.1-.322c.23-.379.663-.735.219-1.252-.208-.242-.376-.518-.562-.779l.783-1.009a7.1,7.1,0,0,1,4.156-1.444c0,.265,0,.485,0,.705,0,1.04.283,1.405,1.077,1.416s1.107-.381,1.119-1.384c0-.153.012-.307.018-.46a8.188,8.188,0,0,1,.812.5,10.8,10.8,0,0,1,1.753,1.458,12.608,12.608,0,0,1,2.3,3.646,11.752,11.752,0,0,1,.88,3.8C-574.563-286.968-574.588-285.681-574.588-284.395Z" transform="translate(-18.426 -16.137)" fill="#fd5151"/>
      <path id="Trazado_641461" data-name="Trazado 641461" d="M-563.485-284.355c0-1.286.024-2.573-.007-3.859a11.755,11.755,0,0,0-.88-3.8,12.61,12.61,0,0,0-2.3-3.646,10.8,10.8,0,0,0-1.753-1.458,8.216,8.216,0,0,0-.812-.5c.107-.084.218-.246.32-.241a7.184,7.184,0,0,1,3.383,1.081c.417.254.826.524,1.252.76.369.205.278.376.021.6a4.391,4.391,0,0,0-.536.574c-.448.558-.371.987.27,1.594a.941.941,0,0,0,1.31-.092c.1-.086.231-.136.332-.221.629-.531.7-.575,1.118.135A9.353,9.353,0,0,1-560.235-289a1.056,1.056,0,0,1-.044.161c-.3,0-.638-.014-.972,0a.987.987,0,0,0-1.075,1.075,1,1,0,0,0,1.1,1.109c.341.014.683,0,1.057,0v2.292Z" transform="translate(-29.528 -16.177)" fill="#fd2929"/>
      <path id="Trazado_641462" data-name="Trazado 641462" d="M-571.727-272.256h-4.435a2.179,2.179,0,0,1,2.127-2.263A2.254,2.254,0,0,1-571.727-272.256Z" transform="translate(-25.93 -28.284)" fill="#fbc728"/>
      <path id="Trazado_641463" data-name="Trazado 641463" d="M-590.091-289.6a11.656,11.656,0,0,0-1.5,4.223,4.37,4.37,0,0,0-.035.51h-1.13a10.168,10.168,0,0,1,2.15-5.308Z" transform="translate(-17.33 -20.161)" fill="#e3eef7"/>
      <path id="Trazado_641464" data-name="Trazado 641464" d="M-591.844-274.517q0,1.134,0,2.268h-1.116v-2.268Z" transform="translate(-17.223 -28.285)" fill="#fefefe"/>
      <path id="Trazado_641465" data-name="Trazado 641465" d="M-583.67-294.933l-.784,1.009c-.39-.148-.446-.34-.062-.564C-584.24-294.647-583.952-294.785-583.67-294.933Z" transform="translate(-21.468 -17.694)" fill="#e3eef7"/>
      <path id="Trazado_641466" data-name="Trazado 641466" d="M-512.163-303.029c0-.423-.024-.848.006-1.269a.99.99,0,0,1,1.049-.975.966.966,0,0,1,1.105.907,24.9,24.9,0,0,1,.008,2.654.956.956,0,0,1-1.132.938.938.938,0,0,1-1.034-.986c-.029-.421-.005-.846-.005-1.27Z" transform="translate(-59.131 -12.329)" fill="#fbc728"/>
      <path id="Trazado_641467" data-name="Trazado 641467" d="M-528.937-286.389c0,.366-.008.731,0,1.1a1.142,1.142,0,0,1-1.118,1.184c-.61.046-1.048-.43-1.07-1.155-.024-.788-.024-1.578,0-2.366a1.008,1.008,0,0,1,1.065-1.085,1.039,1.039,0,0,1,1.113,1.113c.019.4,0,.808,0,1.212Z" transform="translate(-49.293 -20.92)" fill="#fbc728"/>
    </g>
  </g>
</svg>
