<svg xmlns="http://www.w3.org/2000/svg" width="232" height="326.349" viewBox="0 0 232 326.349">
  <g id="Grupo_909101" data-name="Grupo 909101" transform="translate(-1188 -10210.354)">
    <path id="Trazado_644584" data-name="Trazado 644584" d="M0,0H231.75V326H0Z" transform="translate(1188.25 10210.354)" fill="#f3f9ff"/>
    <path id="Trazado_644585" data-name="Trazado 644585" d="M0,0H232V57H0Z" transform="translate(1188 10479.702)" fill="#d2e1f1"/>
    <path id="Trazado_644586" data-name="Trazado 644586" d="M83.755,6.781v9.307a5.349,5.349,0,0,1-.674,2.739,4.365,4.365,0,0,1-1.934,1.763,6.812,6.812,0,0,1-2.979.605,5.885,5.885,0,0,1-4.092-1.348,4.806,4.806,0,0,1-1.523-3.691V6.781H76v9.443q.059,2.334,2.168,2.334a2.1,2.1,0,0,0,1.611-.586,2.739,2.739,0,0,0,.547-1.9V6.781ZM97.769,21H94.36l-5.039-8.848V21H85.894V6.781h3.428l5.029,8.848V6.781h3.418Zm13.809-1.758a5.511,5.511,0,0,1-2.314,1.416,9.982,9.982,0,0,1-3.34.537,5.955,5.955,0,0,1-4.463-1.709,6.918,6.918,0,0,1-1.787-4.756l-.01-1.23a8.485,8.485,0,0,1,.742-3.667,5.511,5.511,0,0,1,2.124-2.412,6.008,6.008,0,0,1,3.2-.845,6.3,6.3,0,0,1,4.126,1.216,5.152,5.152,0,0,1,1.714,3.628h-3.3a2.7,2.7,0,0,0-.762-1.7,2.458,2.458,0,0,0-1.66-.508,2.237,2.237,0,0,0-1.992,1.094,5.84,5.84,0,0,0-.713,3.125v.859a5.717,5.717,0,0,0,.728,3.2,2.573,2.573,0,0,0,2.29,1.069,2.88,2.88,0,0,0,1.992-.6V15.756h-2.383V13.4h5.811Zm7.275-3.271H117V21h-3.428V6.781h5.6A6.246,6.246,0,0,1,123.12,7.9a3.8,3.8,0,0,1,1.426,3.17,4.616,4.616,0,0,1-.6,2.458,4.263,4.263,0,0,1-1.88,1.58l2.969,5.741V21h-3.672ZM117,13.334h2.168a1.946,1.946,0,0,0,1.47-.514,1.987,1.987,0,0,0,.493-1.434,2.01,2.01,0,0,0-.5-1.444,1.928,1.928,0,0,0-1.465-.524H117ZM126.616,21V6.781h4.58a6.737,6.737,0,0,1,3.389.854,6.006,6.006,0,0,1,2.349,2.412,7.283,7.283,0,0,1,.854,3.491v.654a7.325,7.325,0,0,1-.825,3.5,6.032,6.032,0,0,1-2.324,2.422,6.589,6.589,0,0,1-3.345.884Zm3.428-11.572v8.936h1.191a2.666,2.666,0,0,0,2.266-1.05,5.145,5.145,0,0,0,.791-3.12v-.615a5.1,5.1,0,0,0-.791-3.105,2.713,2.713,0,0,0-2.3-1.045Z" transform="translate(1202 10495.702)" fill="#12263f"/>
    <g id="Grupo_907047" data-name="Grupo 907047" transform="translate(1612.64 10332.143)">
      <path id="Trazado_641410" data-name="Trazado 641410" d="M-301.68-67.44c1.081.226,2.156.5,3.246.669,2.222.354,4.479.534,6.674,1.008,2.94.634,5.84,1.457,8.745,2.245a30.1,30.1,0,0,1,3.853,1.245c3.21,1.352,6.423,2.71,9.556,4.227a76.16,76.16,0,0,1,7.1,3.947c1.846,1.151,3.55,2.534,5.291,3.849,1.624,1.226,3.269,2.432,4.8,3.767,1.452,1.265,2.781,2.674,4.142,4.041,1.262,1.268,2.535,2.53,3.732,3.858,1.118,1.242,2.174,2.542,3.2,3.861q1.6,2.056,3.086,4.2c.77,1.117,1.47,2.286,2.159,3.456q1.554,2.637,3.043,5.313a28.956,28.956,0,0,1,1.926,3.737c1.383,3.66,2.72,7.342,3.938,11.06a61.611,61.611,0,0,1,2.666,12.2c.31,2.707.569,5.421.8,8.135a5.978,5.978,0,0,1-6.051,6.326c-5.4-.1-10.8-.113-16.195.007a6.2,6.2,0,0,1-6.116-5.8,54.486,54.486,0,0,0-2.859-14.943,51.994,51.994,0,0,0-3.882-8.488,57.134,57.134,0,0,0-4.6-7.372,44.569,44.569,0,0,0-8.221-8.607c-2.016-1.567-3.928-3.286-6.047-4.7a45.025,45.025,0,0,0-5.85-3.106q-3.57-1.676-7.251-3.111a20.1,20.1,0,0,0-3.861-1.009c-2.729-.47-5.476-.834-8.215-1.241a3.732,3.732,0,0,0-1.051-.389c-1.178-.059-2.36-.04-3.541-.051-3.871.317-7.8.315-11.6,1.042a66.477,66.477,0,0,0-10.731,3.325,41.223,41.223,0,0,0-7.022,3.519,73.827,73.827,0,0,0-6.674,4.843,49.425,49.425,0,0,0-4.469,3.936,51.731,51.731,0,0,0-4.17,4.671,57.738,57.738,0,0,0-4.247,6c-1.189,1.993-2.054,4.177-3.078,6.269A47.313,47.313,0,0,0-362.271,2.6a47.7,47.7,0,0,0-1.554,8.177c-.15,1.483-.368,2.958-.54,4.438-.244,2.087-2.906,4.452-5.146,4.451-5.878,0-11.756.038-17.634-.011-2.166-.018-3.616-1.326-4.7-3.089-.287-.468-.533-.962-.8-1.444V10.56c.065-.038.181-.068.188-.115.423-2.746.749-5.51,1.274-8.235.647-3.357,1.441-6.686,2.213-10.017A20.7,20.7,0,0,1-388-10.948q1.508-3.682,3.152-7.308a60,60,0,0,1,3.119-6.4c1.842-3.035,3.892-5.948,5.933-8.857a47.586,47.586,0,0,1,3.717-4.73c1.825-2.006,3.761-3.917,5.725-5.791,1.836-1.751,3.727-3.451,5.675-5.076,1.24-1.034,2.625-1.9,3.951-2.824,1.447-1.015,2.847-2.11,4.365-3.005,1.945-1.149,3.971-2.165,5.992-3.18,2.585-1.3,5.146-2.669,7.818-3.767a60.8,60.8,0,0,1,7.873-2.63c3.11-.805,6.291-1.341,9.448-1.953,1.392-.269,2.8-.439,4.206-.653q1.072-.164,2.146-.322h3.36a3.241,3.241,0,0,0,.822.232q2.658.033,5.316,0a3.286,3.286,0,0,0,.822-.233Zm63.842,81.8c2.438.013,4.876.03,7.314.037,1.582,0,1.683-.03,1.485-1.611C-229.57,8.55-230.079,4.306-230.8.1a51.336,51.336,0,0,0-1.959-7.633c-1.056-3.131-2.352-6.183-3.6-9.245a31.642,31.642,0,0,0-1.829-3.736c-1.006-1.756-2.1-3.464-3.183-5.174-.992-1.562-1.935-3.167-3.058-4.631-1.58-2.061-3.316-4-4.967-6.011-.561-.682-1.045-.644-1.634-.025-1.046,1.1-2.151,2.144-3.2,3.241-.728.761-1.406,1.571-2.106,2.36a5.523,5.523,0,0,0-.872.588c-1.685,1.658-3.344,3.342-5.028,5a.976.976,0,0,0,.021,1.551,17.376,17.376,0,0,1,1.385,1.368c2.755,3.686,5.587,7.323,7.41,11.611,1.24,2.917,2.757,5.734,3.769,8.725a65.534,65.534,0,0,1,2.072,8.767c.415,2.173.594,4.394.807,6.6.069.717.315.963,1.026.952C-243.116,14.368-240.477,14.373-237.838,14.36Zm-73-67.642V-62.3c-3.621.4-7.119.617-10.551,1.211a87.08,87.08,0,0,0-9.431,2.311,72.463,72.463,0,0,0-7.377,2.632c-2.506,1.033-4.97,2.188-7.378,3.434a59.178,59.178,0,0,0-7.044,4.055c-3.072,2.173-5.954,4.618-8.884,6.989-.52.421-.8.973-.04,1.608.865.724,1.58,1.625,2.4,2.4,1.036.981,2.115,1.917,3.175,2.873a1.567,1.567,0,0,0,.216.524c1.8,1.813,3.574,3.645,5.439,5.383a1.523,1.523,0,0,0,1.445.018c1.25-.866,2.344-1.96,3.6-2.817,2.866-1.96,5.713-3.971,8.722-5.691a42.565,42.565,0,0,1,7.465-3.376,83.649,83.649,0,0,1,9.955-2.652,58.907,58.907,0,0,1,7.361-.751c.718-.055.985-.271.975-1C-310.824-47.851-310.822-50.567-310.835-53.282ZM-260.1-34.773l6.182-6.079c-14.626-13.394-31.826-20.286-51.553-21.3V-44.3a61.736,61.736,0,0,1,38.861,16.082c1.8-1.8,3.516-3.493,5.22-5.2C-260.949-33.855-260.53-34.319-260.1-34.773Zm-93.2,10.026c-.882-.77-1.824-1.509-2.671-2.346q-4.683-4.632-9.3-9.327a.872.872,0,0,0-1.465,0c-1.623,1.932-3.271,3.851-4.764,5.881a65.39,65.39,0,0,0-3.964,6.026c-1.751,3.034-3.4,6.129-4.977,9.257a36.572,36.572,0,0,0-1.906,4.84,80.333,80.333,0,0,0-3.02,9.661c-.9,4.526-1.289,9.153-1.921,13.733-.151,1.094.207,1.459,1.345,1.446q7.557-.087,15.116,0c1.16.014,1.39-.525,1.473-1.463a46.884,46.884,0,0,1,.623-5.794q1.188-5.511,2.756-10.937a29.606,29.606,0,0,1,2.051-4.622c.911-1.869,1.794-3.763,2.863-5.542,1.24-2.062,2.629-4.039,4.03-6C-355.923-21.486-354.7-22.955-353.3-24.747Z" fill="#030303"/>
      <path id="Trazado_641411" data-name="Trazado 641411" d="M-273.577,101.52c-9.279,0-18.558-.021-27.837.018a14.894,14.894,0,0,1-6.377-1.164,16.485,16.485,0,0,1-5.928-4.571,15.126,15.126,0,0,1-3.073-13.2,18.149,18.149,0,0,1,1.894-4.59c1.033-2.009,2.21-3.945,3.352-5.9,1.53-2.613,3.1-5.2,4.626-7.817,1.052-1.8,2.043-3.643,3.081-5.455,1.076-1.878,2.183-3.74,3.265-5.615.664-1.15,1.3-2.316,1.962-3.468,1.057-1.846,2.129-3.683,3.183-5.53s2.075-3.72,3.15-5.558c1.292-2.212,2.632-4.4,3.939-6.6.679-1.144,1.281-2.337,2.01-3.448a15.234,15.234,0,0,1,5.506-4.913c3.742-2.1,7.673-2.1,11.581-1.146a12.757,12.757,0,0,1,7.854,5.385c1.525,2.333,2.866,4.786,4.3,7.181,1.574,2.633,3.192,5.239,4.727,7.893,1.406,2.434,2.688,4.938,4.1,7.371,1.248,2.156,2.628,4.236,3.883,6.388,1.034,1.772,1.944,3.615,2.956,5.4,1.069,1.885,2.2,3.732,3.29,5.607.954,1.65,1.872,3.32,2.82,4.973,1.321,2.3,2.656,4.6,3.985,6.895a2.068,2.068,0,0,1,.179.27,15.443,15.443,0,0,1-.045,12.243,14.638,14.638,0,0,1-7.3,7.68,16.692,16.692,0,0,1-6.879,1.671Q-259.478,101.507-273.577,101.52ZM-273.6,96.2c9.669.005,19.339.043,29.009-.011a9.027,9.027,0,0,0,5.664-2.237,10.241,10.241,0,0,0,3.422-5.72,9.685,9.685,0,0,0-1.229-7.258q-1.02-1.731-1.986-3.493c-.729-1.319-1.4-2.668-2.153-3.976-1.039-1.813-2.142-3.59-3.185-5.4-1.014-1.758-1.959-3.556-2.985-5.307-1.562-2.667-3.2-5.29-4.745-7.967-1.1-1.9-2.047-3.893-3.153-5.792-1.2-2.064-2.551-4.043-3.761-6.1-2.149-3.654-4.157-7.393-6.382-11a8.92,8.92,0,0,0-8.515-4.556,8.539,8.539,0,0,0-7.783,3.391c-1.94,2.405-3.233,5.333-4.794,8.041-.712,1.236-1.359,2.509-2.086,3.734-1.313,2.212-2.7,4.38-3.989,6.6-1.058,1.826-1.986,3.726-3.03,5.559-1.379,2.422-2.815,4.811-4.225,7.215q-1.071,1.827-2.14,3.656-1.906,3.267-3.808,6.536c-1.071,1.853-2.157,3.7-3.179,5.576a29.458,29.458,0,0,0-2.839,5.647,9.492,9.492,0,0,0,1.534,8.735c1.866,2.44,4.235,4.078,7.311,4.107C-292.956,96.27-283.28,96.2-273.6,96.2Z" fill="#030303"/>
      <path id="Trazado_641412" data-name="Trazado 641412" d="M-305.742,2.623c3.7.326,6.528,2.249,8.923,4.915.9,1.006,1.922,1.077,3.383.267,1.424-.79,2.929-1.435,4.41-2.119,2.517-1.162,5.036-2.318,7.567-3.448,1.5-.671,3.044-1.261,4.547-1.935,2.956-1.326,5.893-2.694,8.847-4.023a17.671,17.671,0,0,1,2.693-1.056c2.2-.58,3.344.9,3.459,2.764A2.6,2.6,0,0,1-263.05-.04c-1.462.84-3.1,1.376-4.643,2.073-2.341,1.053-4.66,2.152-7,3.2-1.023.46-2.092.821-3.116,1.28-1.66.743-3.295,1.544-4.953,2.294-1.331.6-2.679,1.166-4.02,1.745l-7.016,3.027A12.856,12.856,0,0,1-294.222,22a14.411,14.411,0,0,1-5.905,7.409,14.254,14.254,0,0,1-10.868,2.2,15.287,15.287,0,0,1-6.9-3.48,15.339,15.339,0,0,1-5.038-9.82,13.785,13.785,0,0,1,1.189-6.82,12.124,12.124,0,0,1,2.895-4.5,20.524,20.524,0,0,1,4.308-3.124,20.583,20.583,0,0,1,3.972-1.24Zm-2.567,23.99c5.44-.187,9.768-4.259,9.661-9.533-.122-6.026-4.206-9.417-9.336-9.485-5.644-.074-9.433,3.642-9.625,9.579a8.438,8.438,0,0,0,2.534,6.4A10.185,10.185,0,0,0-308.309,26.613Z" fill="#030303"/>
      <path id="Trazado_641413" data-name="Trazado 641413" d="M-305.742,2.623l-4.828.007A5.948,5.948,0,0,1-305.742,2.623Z" fill="#655b65"/>
      <path id="Trazado_641414" data-name="Trazado 641414" d="M-353.3-24.747c-1.4,1.792-2.625,3.261-3.735,4.813-1.4,1.959-2.79,3.936-4.03,6-1.069,1.779-1.952,3.673-2.863,5.542a29.606,29.606,0,0,0-2.051,4.622q-1.563,5.417-2.756,10.937a46.884,46.884,0,0,0-.623,5.794c-.083.938-.313,1.477-1.473,1.463q-7.557-.094-15.116,0c-1.138.013-1.5-.352-1.345-1.446.632-4.58,1.018-9.207,1.921-13.733a80.333,80.333,0,0,1,3.02-9.661,36.572,36.572,0,0,1,1.906-4.84c1.575-3.128,3.226-6.223,4.977-9.257a65.39,65.39,0,0,1,3.964-6.026c1.493-2.03,3.141-3.949,4.764-5.881a.872.872,0,0,1,1.465,0q4.615,4.7,9.3,9.327C-355.122-26.256-354.18-25.517-353.3-24.747Z" fill="#76bffd"/>
      <path id="Trazado_641415" data-name="Trazado 641415" d="M-305.472-53.282v-8.873c19.727,1.017,36.927,7.909,51.553,21.3l-6.182,6.079a11.651,11.651,0,0,1-1.4-.756c-.633-.458-1.2-1.007-1.816-1.488-1.138-.887-2.256-1.808-3.449-2.617-2.493-1.691-4.962-3.439-7.572-4.937a57.555,57.555,0,0,0-6.62-3.083c-2.566-1.066-5.151-2.122-7.8-2.936a52.819,52.819,0,0,0-7.43-1.683C-299.263-52.746-302.376-52.958-305.472-53.282Z" fill="#fddf76"/>
      <path id="Trazado_641416" data-name="Trazado 641416" d="M-355.962-34.779c-1.06-.956-2.139-1.892-3.175-2.873-.823-.779-1.538-1.68-2.4-2.4-.759-.635-.48-1.187.04-1.608,2.93-2.371,5.812-4.816,8.884-6.989a59.178,59.178,0,0,1,7.044-4.055c2.408-1.246,4.872-2.4,7.378-3.434a72.463,72.463,0,0,1,7.377-2.632,87.08,87.08,0,0,1,9.431-2.311c3.432-.594,6.93-.812,10.551-1.211v9.014a13.766,13.766,0,0,1-2.629.454,44.614,44.614,0,0,0-10.664,1.435,67.321,67.321,0,0,0-7.631,2.281,69.454,69.454,0,0,0-7.607,3.131c-2.247,1.113-4.3,2.614-6.49,3.85a54.379,54.379,0,0,0-9.1,6.79A5.349,5.349,0,0,1-355.962-34.779Z" fill="#caf29e"/>
      <path id="Trazado_641417" data-name="Trazado 641417" d="M-256.344-30.754c.7-.789,1.378-1.6,2.106-2.36,1.05-1.1,2.155-2.14,3.2-3.241.589-.619,1.073-.657,1.634.025,1.651,2.008,3.387,3.95,4.967,6.011,1.123,1.464,2.066,3.069,3.058,4.631,1.085,1.71,2.177,3.418,3.183,5.174a31.642,31.642,0,0,1,1.829,3.736c1.253,3.062,2.549,6.114,3.6,9.245A51.336,51.336,0,0,1-230.8.1c.723,4.206,1.232,8.45,1.763,12.686.2,1.581.1,1.615-1.485,1.611-2.438-.007-4.876-.024-7.314-.037-.266-2.665-.524-5.331-.8-7.995a22.227,22.227,0,0,0-.444-3.3c-.7-2.683-1.474-5.349-2.3-8a37.79,37.79,0,0,0-2.1-5.884c-1.791-3.535-3.787-6.969-5.788-10.391a41.093,41.093,0,0,0-6.6-8.61A3.377,3.377,0,0,1-256.344-30.754Z" fill="#fc636e"/>
      <path id="Trazado_641418" data-name="Trazado 641418" d="M-305.472-53.282c3.1.324,6.209.536,9.282,1.009a52.819,52.819,0,0,1,7.43,1.683c2.653.814,5.238,1.87,7.8,2.936a57.555,57.555,0,0,1,6.62,3.083c2.61,1.5,5.079,3.246,7.572,4.937,1.193.809,2.311,1.73,3.449,2.617.617.481,1.183,1.03,1.816,1.488a11.651,11.651,0,0,0,1.4.756c-.429.454-.848.918-1.29,1.359-1.7,1.705-3.415,3.4-5.22,5.2A61.736,61.736,0,0,0-305.472-44.3Z" fill="#fdce63"/>
      <path id="Trazado_641419" data-name="Trazado 641419" d="M-355.962-34.779a5.349,5.349,0,0,0,1.011-.562,54.379,54.379,0,0,1,9.1-6.79c2.191-1.236,4.243-2.737,6.49-3.85a69.454,69.454,0,0,1,7.607-3.131,67.321,67.321,0,0,1,7.631-2.281,44.614,44.614,0,0,1,10.664-1.435,13.766,13.766,0,0,0,2.629-.454c.013,2.715.011,5.431.05,8.146.01.724-.257.94-.975,1a58.907,58.907,0,0,0-7.361.751,83.649,83.649,0,0,0-9.955,2.652,42.565,42.565,0,0,0-7.465,3.376c-3.009,1.72-5.856,3.731-8.722,5.691-1.255.857-2.349,1.951-3.6,2.817a1.523,1.523,0,0,1-1.445-.018c-1.865-1.738-3.644-3.57-5.439-5.383A1.567,1.567,0,0,1-355.962-34.779Z" fill="#b2e39e"/>
      <path id="Trazado_641420" data-name="Trazado 641420" d="M-256.344-30.754a3.377,3.377,0,0,0,.475.936,41.093,41.093,0,0,1,6.6,8.61c2,3.422,4,6.856,5.788,10.391a37.79,37.79,0,0,1,2.1,5.884c.826,2.648,1.6,5.314,2.3,8a22.227,22.227,0,0,1,.444,3.3c.28,2.664.538,5.33.8,7.995-2.639.013-5.278.008-7.916.049-.711.011-.957-.235-1.026-.952-.213-2.206-.392-4.427-.807-6.6a65.534,65.534,0,0,0-2.072-8.767c-1.012-2.991-2.529-5.808-3.769-8.725-1.823-4.288-4.655-7.925-7.41-11.611a17.376,17.376,0,0,0-1.385-1.368.976.976,0,0,1-.021-1.551c1.684-1.659,3.343-3.343,5.028-5A5.523,5.523,0,0,1-256.344-30.754Z" fill="#fb4754"/>
      <path id="Trazado_641421" data-name="Trazado 641421" d="M-273.6,27.378a8.92,8.92,0,0,1,8.515,4.556c2.225,3.606,4.233,7.345,6.382,11,1.21,2.06,2.559,4.039,3.761,6.1,1.106,1.9,2.055,3.889,3.153,5.792,1.545,2.677,3.183,5.3,4.745,7.967,1.026,1.751,1.971,3.549,2.985,5.307,1.043,1.811,2.146,3.588,3.185,5.4.748,1.308,1.424,2.657,2.153,3.976q.971,1.76,1.986,3.493a9.685,9.685,0,0,1,1.229,7.258,10.241,10.241,0,0,1-3.422,5.72,9.027,9.027,0,0,1-5.664,2.237c-9.67.054-19.34.016-29.009.011q0-1.89,0-3.779a8.05,8.05,0,0,0,5.773-3.24c1.1-1.56,1.612-5.281.642-6.791-1.49-2.319-3.429-4.031-6.416-4V75.966a6.063,6.063,0,0,0,6-6.592c-.06-.954.016-1.915.03-2.873q.129-2.544.259-5.088c.063-.618.169-1.236.183-1.855.1-4.7.248-9.4.244-14.1a5.4,5.4,0,0,0-4-4.652,35.7,35.7,0,0,0-4.149-.29l1.435-.75Z" fill="#fdce63"/>
      <path id="Trazado_641422" data-name="Trazado 641422" d="M-273.6,27.378V39.761l-1.435.75a5.669,5.669,0,0,0-5.242,4.76c-.073,1.113-.048,2.234-.024,3.35.084,3.794.167,7.589.288,11.382.114,3.544.23,7.09.448,10.629a4.885,4.885,0,0,0,.816,2.554c1.263,1.658,2.87,2.9,5.149,2.78q0,1.209,0,2.418c-.317.027-.632.065-.95.08-2.556.116-5.522,2.588-5.678,5.22a10.578,10.578,0,0,0,.53,4.993c1.135,2.367,3.5,3.4,6.1,3.742q0,1.89,0,3.779c-9.676.005-19.352.072-29.027-.019-3.076-.029-5.445-1.667-7.311-4.107a9.492,9.492,0,0,1-1.534-8.735,29.458,29.458,0,0,1,2.839-5.647c1.022-1.879,2.108-3.723,3.179-5.576q1.893-3.274,3.808-6.536,1.068-1.83,2.14-3.656c1.41-2.4,2.846-4.793,4.225-7.215,1.044-1.833,1.972-3.733,3.03-5.559,1.289-2.224,2.676-4.392,3.989-6.6.727-1.225,1.374-2.5,2.086-3.734,1.561-2.708,2.854-5.636,4.794-8.041A8.539,8.539,0,0,1-273.6,27.378Z" fill="#fddf76"/>
      <path id="Trazado_641423" data-name="Trazado 641423" d="M-308.309,26.613a10.185,10.185,0,0,1-6.766-3.036,8.438,8.438,0,0,1-2.534-6.4c.192-5.937,3.981-9.653,9.625-9.579,5.13.068,9.214,3.459,9.336,9.485C-298.541,22.354-302.869,26.426-308.309,26.613ZM-301.2,17.1c.416-3.836-3.277-6.979-6.654-7.056a7.058,7.058,0,0,0-7.3,6.794,7.284,7.284,0,0,0,6.913,7.264C-304.581,24.195-300.691,20.549-301.2,17.1Z" fill="#655b65"/>
      <path id="Trazado_641424" data-name="Trazado 641424" d="M-273.6,75.966c-2.279.121-3.886-1.122-5.149-2.78a4.885,4.885,0,0,1-.816-2.554c-.218-3.539-.334-7.085-.448-10.629-.121-3.793-.2-7.588-.288-11.382-.024-1.116-.049-2.237.024-3.35a5.669,5.669,0,0,1,5.242-4.76,35.7,35.7,0,0,1,4.149.29,5.4,5.4,0,0,1,4,4.652c0,4.7-.143,9.4-.244,14.1-.014.619-.12,1.237-.183,1.855q-.129,2.544-.259,5.088c-.014.958-.09,1.919-.03,2.873A6.063,6.063,0,0,1-273.6,75.966Zm1.171-15.03q.159-6.816.316-13.632c.035-1.526.03-1.526-1.489-1.446-1.723-.1-1.9.113-1.5,1.777a4.075,4.075,0,0,1,.073.828c.1,3.632.162,7.265.283,10.9q.173,5.191.459,10.378c.016.284.45.545.689.817.228-.193.637-.369.656-.581.133-1.473.185-2.953.264-4.431Z" fill="#030201"/>
      <path id="Trazado_641425" data-name="Trazado 641425" d="M-273.6,92.419c-2.6-.343-4.964-1.375-6.1-3.742a10.578,10.578,0,0,1-.53-4.993c.156-2.632,3.122-5.1,5.678-5.22.318-.015.633-.053.95-.08,2.987-.027,4.926,1.685,6.416,4,.97,1.51.459,5.231-.642,6.791A8.05,8.05,0,0,1-273.6,92.419Zm0-8.643c-1.159-.194-1.552.584-1.65,1.474a1.465,1.465,0,0,0,1.649,1.591c1.066-.038,1.7-.552,1.6-1.656C-272.086,84.27-272.529,83.629-273.605,83.776Z" fill="#030201"/>
      <path id="Trazado_641426" data-name="Trazado 641426" d="M-267.575,66.5q.129-2.544.259-5.088Q-267.445,63.957-267.575,66.5Z" fill="#7c6530"/>
      <path id="Trazado_641427" data-name="Trazado 641427" d="M-301.2,17.1c.506,3.445-3.384,7.091-7.045,7a7.284,7.284,0,0,1-6.913-7.264,7.058,7.058,0,0,1,7.3-6.794C-304.474,10.125-300.781,13.268-301.2,17.1Z" fill="#544854"/>
      <path id="Trazado_641428" data-name="Trazado 641428" d="M-273.6,70.554c-.239-.272-.673-.533-.689-.817q-.287-5.186-.459-10.378c-.121-3.631-.188-7.264-.283-10.9a4.075,4.075,0,0,0-.073-.828c-.395-1.664-.22-1.876,1.5-1.777Q-273.6,58.206-273.6,70.554Z" fill="#f75f6a"/>
      <path id="Trazado_641429" data-name="Trazado 641429" d="M-273.6,70.554q0-12.348,0-24.7c1.519-.08,1.524-.08,1.489,1.446q-.154,6.816-.316,13.632c-.776,1.5-.491,3.053-.252,4.606-.079,1.478-.131,2.958-.264,4.431C-272.967,70.185-273.376,70.361-273.6,70.554Z" fill="#f74553"/>
      <path id="Trazado_641430" data-name="Trazado 641430" d="M-272.684,65.542c-.239-1.553-.524-3.108.252-4.606Z" fill="#80242b"/>
      <path id="Trazado_641431" data-name="Trazado 641431" d="M-273.606,86.841a1.465,1.465,0,0,1-1.649-1.591c.1-.89.491-1.668,1.65-1.474Q-273.605,85.309-273.606,86.841Z" fill="#f75f6a"/>
      <path id="Trazado_641432" data-name="Trazado 641432" d="M-273.606,86.841q0-1.533,0-3.065c1.076-.147,1.519.494,1.6,1.409C-271.909,86.289-272.54,86.8-273.606,86.841Z" fill="#f74553"/>
    </g>
  </g>
</svg>
