<svg xmlns="http://www.w3.org/2000/svg" width="134" height="134" viewBox="0 0 134 134">
  <g id="Grupo_909102" data-name="Grupo 909102" transform="translate(-391 -11496.803)">
    <circle id="Elipse_7474" data-name="Elipse 7474" cx="67" cy="67" r="67" transform="translate(391 11496.803)" fill="#179587"/>
    <g id="Grupo_907064" data-name="Grupo 907064" transform="translate(911.152 11144.1)">
      <path id="Trazado_641549" data-name="Trazado 641549" d="M-479.561,458.674h-4.813c-.68-.158-1.361-.312-2.039-.475-3.222-.774-6.264-1.807-7.587-5.3V437.5a7.659,7.659,0,0,1,4.807-4.453,19.967,19.967,0,0,1,9.041-1.224c1.207.106,2.4.322,3.615.489v-2.552a2.332,2.332,0,0,0-.24-.1q-13.582-3.935-16.787-17.705c-.133-.577-.289-1.148-.435-1.722v-5.454a7.129,7.129,0,0,0,.288-.939,22.828,22.828,0,0,1,29.881-17.983c1.647.558,3.207,1.374,4.83,2.08,0-2.249,0-4.544,0-6.838,0-2.2,1.029-3.213,3.25-3.216,5.426-.008,10.852-.03,16.279-.019q5.692.011,11.385.115a2,2,0,0,1,1.234.551c3.84,3.795,7.575,7.7,11.506,11.4a6.478,6.478,0,0,1,2.2,5.222q-.116,20.405-.013,40.811c.011,2.572-.779,4.056-3.908,3.877-1.827-.1-3.664-.019-5.548-.019,0,1.663,0,3.236,0,4.809,0,2.278-1,3.288-3.26,3.288h-26.367a5.337,5.337,0,0,1-2.741,4.353,15.724,15.724,0,0,1-7.019,2.241A21.609,21.609,0,0,1-470,453.9a27.339,27.339,0,0,1-2.356,2.3,11.842,11.842,0,0,1-4.84,2C-477.98,458.363-478.771,458.514-479.561,458.674Zm11.592-62.765-.358-.1a2.672,2.672,0,0,0-.375-.136,12.1,12.1,0,0,0-12.756,5.544,12.14,12.14,0,0,0,.848,13.809,11.4,11.4,0,0,0,4.446,3.494l2.094-2.057a18.161,18.161,0,0,1-2.158-1.468,4.082,4.082,0,0,1-1.563-3.523,1.214,1.214,0,0,1,1.133-1.241,1.283,1.283,0,0,1,1.4.832,2.764,2.764,0,0,1,.126.627,2.8,2.8,0,0,0,2.629,2.232V408.77c-.224-.057-.428-.105-.631-.16a6.884,6.884,0,0,1-3.522-2.1,4.492,4.492,0,0,1-.119-5.939,6.483,6.483,0,0,1,3.618-2.219,1.084,1.084,0,0,0,.859-.674,1.531,1.531,0,0,1,1.08-.754,1.412,1.412,0,0,1,1.181.561c.257.668.738.746,1.279.962a10.841,10.841,0,0,1,2.455,1.293,4.6,4.6,0,0,1,1.905,3.3c.1.964-.368,1.656-1.13,1.744q-1.306.151-1.543-1.419a2.828,2.828,0,0,0-2.7-2.259c0,1.495.022,2.991-.012,4.485-.012.526.156.687.673.831,2.379.664,4.209,1.953,4.692,4.576a4.622,4.622,0,0,1-.837,3.218h1.736c.53.055,1.067.074,1.588.175a1,1,0,0,0,1.193-.629,11.7,11.7,0,0,0,1.368-9,11.665,11.665,0,0,0-8.614-8.869Zm10.385,50.906a20.91,20.91,0,0,1-12.183.4c0,1.234-.02,2.379.02,3.522a.726.726,0,0,0,.429.519,17.626,17.626,0,0,0,9.17.163l.261-.092.054-.009a18.62,18.62,0,0,0,2.6-.937c2.442-1.3,2.467-1.943,2.15-4.765Zm2.37-46.887-2.451,1.376a14.814,14.814,0,0,1-.643,13.688l2.97,1.338,1.6,1.289c3.656-5.548,3.6-14.019.654-18.93-.093.045-.191.086-.28.139Q-454.291,399.376-455.214,399.928Zm-2.349,43.875c2.765-1.266,2.822-2.18,2.477-4.906l-2.5,1.187a21.656,21.656,0,0,1-12.159.412V444.4a17.033,17.033,0,0,0,7.113.731A13.016,13.016,0,0,0-457.563,443.8Zm0-6.723c2.307-.917,3-2.255,2.5-4.879l-2.723,1.262c-1.649.306-3.286.743-4.949.89a18.723,18.723,0,0,1-9.982-1.678c-.345-.167-.677-.359-1-.534-.275.891.1,1.271.807,1.739a6.408,6.408,0,0,1,2.373,2.389,3.045,3.045,0,0,0,2.8,1.894c.53.062,1.054.188,1.584.227A16.605,16.605,0,0,0-457.559,437.079Zm-.218-10.35a2.668,2.668,0,0,0-.316.05c-5.343,1.485-10.548,1.363-15.535-1.324-.028-.015-.092.036-.166.068,0,.523.043,1.061-.009,1.59a2.593,2.593,0,0,0,1.278,2.5,4.313,4.313,0,0,0,1.171.68,33.714,33.714,0,0,0,5,1.313,15.732,15.732,0,0,0,8.769-1.213c2.839-1.389,2.8-2.222,2.52-4.922Zm-10.893-39.216-1.06-.1v5.363a15.062,15.062,0,0,1,10.719,6.2c.936-.545,1.788-1.039,2.637-1.536a2.728,2.728,0,0,0,.251-.187l1.884-1.037c-1.048-1.185-1.926-2.327-2.955-3.313A19.1,19.1,0,0,0-468.67,387.513Zm-4.046,65.224.349-3.069a20.771,20.771,0,0,1-18.861.073c-.274,1.854-.164,3.543,1.827,4.534a17.084,17.084,0,0,0,11.763,1.18l.162-.021.326-.11A6.831,6.831,0,0,0-472.716,452.737Zm-4.918-17.783a52.666,52.666,0,0,0-5.4-.454,13.041,13.041,0,0,0-6.5,1.753c-2.349,1.38-2.38,3.124.009,4.446,3.759,2.081,7.78,2.216,11.89,1.279l.155-.022.333-.107a8.055,8.055,0,0,0,3.668-1.658c1.365-1.124,1.423-2.477-.06-3.425A27.925,27.925,0,0,0-477.633,434.954Zm17.486-10.461.155-.021.331-.112a7.743,7.743,0,0,0,3.951-1.932,1.771,1.771,0,0,0,0-2.9,7.781,7.781,0,0,0-3.95-1.936,25.509,25.509,0,0,0-2.642-.526,16.1,16.1,0,0,0-9.549,1.573c-2.581,1.42-2.614,3.268-.026,4.647A16.4,16.4,0,0,0-460.147,424.492Zm29.653-43.861c-.239-.02-.478-.057-.717-.057q-12.191,0-24.382,0c-.207,0-.414.022-.7.039v.906c0,2.325.053,4.653-.024,6.976a3.106,3.106,0,0,0,1.094,2.608,22.752,22.752,0,0,1,3.337,28.833,2.468,2.468,0,0,0-.365,1.257c-.025,5.025-.017,10.051-.014,15.076,0,.281.025.562.04.888h.809q16.041,0,32.081,0c.24,0,.48-.021.72-.032h2.684V394.067h-2.678c-2.643-.009-5.286-.026-7.929-.023A2.441,2.441,0,0,1-428.759,393a3.84,3.84,0,0,1-.57-1.855c-.073-3.148-.061-6.3-.079-9.446v-1.146Zm-21.78,64.5h26.87v-5.325c-.283-.014-.494-.033-.7-.033q-12.628,0-25.255,0c-.134,0-.308-.051-.393.014-.2.149-.49.352-.495.539C-452.292,441.9-452.274,443.477-452.274,445.134Zm-32.294-31.415c-.077-.218-.128-.392-.2-.559a14.37,14.37,0,0,1-.909-8.313,14.753,14.753,0,0,1,2.784-6.315c.136-.179.227-.61.123-.719-1.136-1.193-2.315-2.345-3.477-3.5-5.142,4.557-6.814,17.634-2.844,22.02Zm12.092,29.257a20.65,20.65,0,0,1-18.781.013c-.224,3.186.432,4.2,3.406,5.262a18.271,18.271,0,0,0,9.319.7,11.228,11.228,0,0,0,4.682-1.753,2.544,2.544,0,0,0,1.369-1.958C-472.455,444.491-472.477,443.744-472.477,442.976Zm-15.387-24.232a20.435,20.435,0,0,0,11.36,8.216c0-1.749-.022-3.376.013-5a.859.859,0,0,0-.626-.946,13.1,13.1,0,0,1-4.345-2.943c-.613-.621-1.18-1.289-1.811-1.983Zm15.373-31.349a19.99,19.99,0,0,0-11.8,4.851l3.683,3.707a38.786,38.786,0,0,1,3.84-2.082,40.705,40.705,0,0,1,4.276-1.271Zm45.861,3.878h8.434l-8.434-8.448Zm-43.113,17.859v4.862c1.575-.275,2.723-1.363,2.666-2.518A2.86,2.86,0,0,0-469.742,409.132Zm-2.759-8.083c-1.58.27-2.63,1.278-2.615,2.447a2.749,2.749,0,0,0,2.615,2.386Z" transform="translate(0 0)" fill="#030302"/>
      <path id="Trazado_641550" data-name="Trazado 641550" d="M-280.471,447.074c-.24.011-.48.032-.72.032q-16.041,0-32.081,0h-.809c-.015-.325-.04-.606-.04-.888,0-5.025-.01-10.051.014-15.076a2.468,2.468,0,0,1,.365-1.257,22.752,22.752,0,0,0-3.337-28.833,3.106,3.106,0,0,1-1.094-2.608c.077-2.323.024-4.65.024-6.976v-.906c.291-.017.5-.039.7-.039q12.191,0,24.382,0c.239,0,.478.037.717.057l1.086,1.069c.018,3.149.006,6.3.079,9.446a3.84,3.84,0,0,0,.57,1.855,2.441,2.441,0,0,0,2.218,1.042c2.643,0,5.286.014,7.929.023q0,21.448.007,42.9C-280.458,446.967-280.467,447.02-280.471,447.074Zm-24.036-23.9-.171-.058q0-4.157,0-8.314c0-1.337.023-2.674-.009-4.009a1.332,1.332,0,0,0-1.96-1.238,1.547,1.547,0,0,0-.744,1.566q.008,7.618,0,15.237c0,1.435.425,1.861,1.856,1.861q10.948,0,21.9,0a5.549,5.549,0,0,0,.641-.014,1.258,1.258,0,0,0,1.183-1.21,1.191,1.191,0,0,0-.9-1.347,4.26,4.26,0,0,0-1.186-.127q-8.943-.011-17.886-.005h-1.151l3.733-4.67c.267.254.463.431.649.617,1.939,1.935,2.185,1.916,3.864-.211,1.169-1.481,2.36-2.944,3.59-4.476.976.989,1.883,1.932,2.817,2.848a1.376,1.376,0,0,0,2.312-.181q1.865-2.459,3.7-4.937c.632-.848.607-1.621-.049-2.129s-1.5-.3-2.131.532c-.84,1.107-1.665,2.225-2.488,3.344a6.147,6.147,0,0,0-.349.627c-.945-.974-1.7-1.767-2.472-2.544-1.265-1.274-1.862-1.233-2.961.152-1.309,1.649-2.632,3.286-4.093,5.108-.386-.468-.68-.887-1.035-1.244-1.249-1.26-1.859-1.208-2.969.192C-302.035,420.089-303.274,421.629-304.507,423.172Zm-1.546,18.517c-.9,0-1.75-.02-2.6.006a1.385,1.385,0,0,0-1.425,1.336,1.377,1.377,0,0,0,1.4,1.359c.935.028,1.873.046,2.805-.008a2.616,2.616,0,0,0,2.506-2.627c.02-.694.031-1.391,0-2.084-.024-.516.145-.716.68-.7,1.068.032,2.138.018,3.207.006.964-.011,1.548-.542,1.53-1.361-.017-.77-.592-1.262-1.534-1.276-1.042-.015-2.086-.036-3.126.008-.617.026-.8-.2-.759-.789a20.16,20.16,0,0,0,0-2.083,2.615,2.615,0,0,0-2.586-2.541c-.8-.023-1.6-.008-2.405,0-1.066,0-1.729.534-1.717,1.364s.671,1.334,1.755,1.344c.741.006,1.483,0,2.27,0Zm1.439-48.456q-3.888,0-7.777,0c-1.064,0-1.733.531-1.726,1.354.007.8.66,1.344,1.668,1.345q7.777.01,15.554,0c1,0,1.656-.563,1.644-1.367s-.654-1.33-1.667-1.332Q-300.766,393.229-304.614,393.233Zm-.105,8.049c2.671,0,5.343.008,8.014,0A1.349,1.349,0,0,0-295.248,400a1.31,1.31,0,0,0-1.384-1.347c-5.369-.013-10.738-.017-16.107.017a1.421,1.421,0,0,0-1.062.539,1.516,1.516,0,0,0-.111,1.3,1.787,1.787,0,0,0,1.259.739C-310.009,401.316-307.364,401.282-304.72,401.282Zm15.478,43.116c1.921,0,3.843,0,5.764,0,1.051,0,1.72-.558,1.7-1.388-.024-.8-.667-1.319-1.683-1.32q-5.724-.006-11.448,0c-1.051,0-1.721.559-1.695,1.387.026.806.667,1.317,1.682,1.32C-293.031,444.4-291.137,444.4-289.242,444.4Zm.1-13.469c-1.947,0-3.9,0-5.842,0-.99,0-1.644.561-1.629,1.367a1.424,1.424,0,0,0,1.595,1.335q5.8.018,11.605,0c1,0,1.646-.579,1.626-1.382s-.658-1.32-1.673-1.322C-285.351,430.926-287.245,430.929-289.139,430.929Zm-.046,8.05c1.923,0,3.847,0,5.77,0,.976,0,1.594-.5,1.623-1.275.031-.832-.573-1.361-1.61-1.363q-5.811-.011-11.621,0c-.98,0-1.582.52-1.589,1.312s.612,1.321,1.576,1.325C-293.086,438.985-291.136,438.979-289.185,438.979Zm-12.843-34.988c-1.682,0-3.364-.006-5.046,0-1.039,0-1.625.5-1.624,1.352s.586,1.352,1.626,1.354q5.086.011,10.172,0c1,0,1.653-.553,1.653-1.356s-.655-1.347-1.654-1.35C-298.611,403.987-300.319,403.991-302.028,403.991Z" transform="translate(-138.148 -9.951)" fill="#009486"/>
      <path id="Trazado_641551" data-name="Trazado 641551" d="M-423.977,478.623h-1.736a4.622,4.622,0,0,0,.837-3.218c-.483-2.622-2.313-3.912-4.692-4.576-.518-.145-.685-.3-.673-.831.034-1.494.012-2.99.012-4.485a2.828,2.828,0,0,1,2.7,2.259q.238,1.571,1.543,1.419c.762-.089,1.227-.78,1.13-1.744a4.6,4.6,0,0,0-1.905-3.3,10.841,10.841,0,0,0-2.455-1.293c-.541-.216-1.022-.294-1.279-.962a1.412,1.412,0,0,0-1.181-.561,1.531,1.531,0,0,0-1.08.754,1.084,1.084,0,0,1-.859.674,6.483,6.483,0,0,0-3.618,2.219,4.492,4.492,0,0,0,.119,5.939,6.884,6.884,0,0,0,3.522,2.1c.2.055.406.1.631.16v5.147a2.8,2.8,0,0,1-2.629-2.232,2.764,2.764,0,0,0-.126-.627,1.283,1.283,0,0,0-1.4-.832,1.214,1.214,0,0,0-1.133,1.241,4.082,4.082,0,0,0,1.563,3.523,18.161,18.161,0,0,0,2.158,1.468l-2.094,2.057a11.4,11.4,0,0,1-4.446-3.494,12.14,12.14,0,0,1-.848-13.809,12.1,12.1,0,0,1,12.756-5.544,2.672,2.672,0,0,1,.375.136l.358.1-.012-.014a2.484,2.484,0,0,0,.272.363,38.263,38.263,0,0,1,3.069,2.864,12.208,12.208,0,0,1,2.864,6.967A13.363,13.363,0,0,1-423.977,478.623Z" transform="translate(-39.538 -64.401)" fill="#fde939"/>
      <path id="Trazado_641552" data-name="Trazado 641552" d="M-299.294,672.094c0-1.657-.017-3.232.022-4.806,0-.187.3-.39.495-.539.085-.065.259-.014.393-.014q12.627,0,25.255,0c.211,0,.422.019.7.033v5.325Z" transform="translate(-152.981 -226.96)" fill="#00675a"/>
      <path id="Trazado_641553" data-name="Trazado 641553" d="M-142.218,496.555c0-.053.013-.107.013-.16q0-21.448-.007-42.9h2.678v43.056Z" transform="translate(-276.4 -59.432)" fill="#00685b"/>
      <path id="Trazado_641554" data-name="Trazado 641554" d="M-474.629,474.044l-4.52,2.611c-3.97-4.386-2.3-17.462,2.844-22.02,1.162,1.158,2.341,2.31,3.477,3.5.1.109.012.54-.123.719a14.752,14.752,0,0,0-2.784,6.315,14.371,14.371,0,0,0,.909,8.313C-474.758,473.652-474.706,473.826-474.629,474.044Z" transform="translate(-9.939 -60.325)" fill="#5fa717"/>
      <path id="Trazado_641555" data-name="Trazado 641555" d="M-385.6,567.674l-.331.112-.155.021a16.4,16.4,0,0,1-11.729-1.211c-2.588-1.378-2.555-3.227.026-4.647a16.1,16.1,0,0,1,9.549-1.573,25.509,25.509,0,0,1,2.642.526c.291.327.567.668.874.979a3.119,3.119,0,0,1,0,4.816C-385.026,567.01-385.307,567.348-385.6,567.674Z" transform="translate(-74.062 -143.314)" fill="#fde939"/>
      <path id="Trazado_641556" data-name="Trazado 641556" d="M-467.271,649.534l-.333.107-.155.022c-4.11.937-8.131.8-11.89-1.279-2.389-1.322-2.359-3.066-.009-4.446a13.041,13.041,0,0,1,6.5-1.753,52.683,52.683,0,0,1,5.4.454c.292.221.592.432.875.665,1.765,1.452,2.249,3.352.542,5.2C-466.656,648.839-466.961,649.189-467.271,649.534Z" transform="translate(-9.876 -207.685)" fill="#fde939"/>
      <path id="Trazado_641557" data-name="Trazado 641557" d="M-462.567,681.742c0,.768.022,1.515-.006,2.261a2.544,2.544,0,0,1-1.369,1.958,11.227,11.227,0,0,1-4.682,1.753,18.27,18.27,0,0,1-9.319-.7c-2.974-1.061-3.629-2.076-3.406-5.262A20.65,20.65,0,0,0-462.567,681.742Z" transform="translate(-9.91 -238.766)" fill="#fcd900"/>
      <path id="Trazado_641558" data-name="Trazado 641558" d="M-467.876,718.759a17.084,17.084,0,0,1-11.763-1.18c-1.991-.991-2.1-2.68-1.827-4.534a20.77,20.77,0,0,0,18.861-.073l-.349,3.069-2.451-.544a4.059,4.059,0,0,1-1.725,2.677c-.129.089-.174.3-.258.454l-.326.11Z" transform="translate(-9.761 -263.303)" fill="#fcd900"/>
      <path id="Trazado_641559" data-name="Trazado 641559" d="M-367.13,432.3a2.713,2.713,0,0,1-.251.187c-.849.5-1.7.991-2.637,1.536a15.062,15.062,0,0,0-10.719-6.2v-5.363l1.06.1c.417.2.821.426,1.252.581A21.135,21.135,0,0,1-367.13,432.3Z" transform="translate(-88.992 -35.038)" fill="#02a7f1"/>
      <path id="Trazado_641560" data-name="Trazado 641560" d="M-383.583,604.9a15.731,15.731,0,0,1-8.769,1.213,33.714,33.714,0,0,1-5-1.313,4.313,4.313,0,0,1-1.171-.68,2.593,2.593,0,0,1-1.278-2.5c.052-.529.009-1.067.009-1.59.074-.032.138-.083.166-.068,4.988,2.687,10.192,2.809,15.535,1.324a2.662,2.662,0,0,1,.316-.05,3.245,3.245,0,0,1,.186.729C-383.567,602.946-383.581,603.924-383.583,604.9Z" transform="translate(-74.004 -174.512)" fill="#fcd900"/>
      <path id="Trazado_641561" data-name="Trazado 641561" d="M-465.362,558.916l4.59-2.657c.631.694,1.2,1.361,1.811,1.983a13.1,13.1,0,0,0,4.345,2.943.859.859,0,0,1,.626.946c-.034,1.625-.013,3.252-.013,5A20.435,20.435,0,0,1-465.362,558.916Z" transform="translate(-22.501 -140.172)" fill="#9b26ae"/>
      <path id="Trazado_641562" data-name="Trazado 641562" d="M-436.882,422.364v5.2a40.71,40.71,0,0,0-4.276,1.271,38.788,38.788,0,0,0-3.84,2.082l-3.683-3.707A19.99,19.99,0,0,1-436.882,422.364Z" transform="translate(-35.608 -34.969)" fill="#fcd900"/>
      <path id="Trazado_641563" data-name="Trazado 641563" d="M-383.519,636.118a16.606,16.606,0,0,1-8.6,1.31c-.531-.039-1.055-.165-1.584-.227a3.045,3.045,0,0,1-2.8-1.894,6.408,6.408,0,0,0-2.373-2.389c-.707-.468-1.082-.848-.807-1.739.327.175.659.367,1,.534a18.723,18.723,0,0,0,9.982,1.678c1.663-.147,3.3-.584,4.949-.89a4.134,4.134,0,0,1,.191.814C-383.521,634.249-383.527,635.183-383.519,636.118Z" transform="translate(-74.039 -199.038)" fill="#fcd900"/>
      <path id="Trazado_641564" data-name="Trazado 641564" d="M-368.623,671.965a13.017,13.017,0,0,1-5.067,1.33,17.033,17.033,0,0,1-7.113-.731v-3.906a21.657,21.657,0,0,0,12.159-.412Q-368.633,670.105-368.623,671.965Z" transform="translate(-88.941 -228.162)" fill="#fcd900"/>
      <path id="Trazado_641565" data-name="Trazado 641565" d="M-313.452,476.31q.925-.55,1.85-1.1c.09-.053.188-.094.281-.139,2.947,4.91,3,13.381-.654,18.93l-1.6-1.289a8.433,8.433,0,0,1,.267-.992,21.373,21.373,0,0,0,1.486-7.607,20.694,20.694,0,0,0-1.077-6.881A4.8,4.8,0,0,0-313.452,476.31Z" transform="translate(-141.762 -76.382)" fill="#b8193a"/>
      <path id="Trazado_641566" data-name="Trazado 641566" d="M-371.309,704.267a17.625,17.625,0,0,1-9.17-.163.726.726,0,0,1-.429-.519c-.039-1.143-.02-2.289-.02-3.522a20.911,20.911,0,0,0,12.183-.4,4.246,4.246,0,0,1-1.116,3.426c-.36.377-.754.721-1.133,1.08l-.054.009Z" transform="translate(-88.838 -252.844)" fill="#fcd900"/>
      <path id="Trazado_641567" data-name="Trazado 641567" d="M-368.109,480.357a13.363,13.363,0,0,0,1.74-8.133,12.208,12.208,0,0,0-2.864-6.967,38.263,38.263,0,0,0-3.069-2.864,2.484,2.484,0,0,1-.272-.363,11.665,11.665,0,0,1,8.614,8.869,11.7,11.7,0,0,1-1.368,9,1,1,0,0,1-1.193.629C-367.042,480.431-367.579,480.412-368.109,480.357Z" transform="translate(-95.406 -66.135)" fill="#fcd900"/>
      <path id="Trazado_641568" data-name="Trazado 641568" d="M-324.344,480.851a4.8,4.8,0,0,1,.553.922,20.693,20.693,0,0,1,1.077,6.881,21.373,21.373,0,0,1-1.486,7.607,8.433,8.433,0,0,0-.267.992l-2.97-1.338a14.814,14.814,0,0,0,.643-13.688Z" transform="translate(-130.87 -80.923)" fill="#ec304b"/>
      <path id="Trazado_641569" data-name="Trazado 641569" d="M-179.6,409.484v-8.448l8.434,8.448Z" transform="translate(-247.029 -18.211)" fill="#ced7db"/>
      <path id="Trazado_641570" data-name="Trazado 641570" d="M-363.244,432.659a21.134,21.134,0,0,0-11.3-9.165c-.431-.154-.835-.385-1.252-.581a19.1,19.1,0,0,1,11.476,5.4c1.028.986,1.906,2.128,2.955,3.313Z" transform="translate(-92.878 -35.401)" fill="#0375b9"/>
      <path id="Trazado_641571" data-name="Trazado 641571" d="M-333.754,570.037c.293-.326.574-.664.881-.976a3.119,3.119,0,0,0,0-4.816c-.306-.311-.583-.652-.874-.979a7.781,7.781,0,0,1,3.95,1.936,1.771,1.771,0,0,1,0,2.9A7.743,7.743,0,0,1-333.754,570.037Z" transform="translate(-125.908 -145.678)" fill="#f8e438"/>
      <path id="Trazado_641572" data-name="Trazado 641572" d="M-417.135,651.2c.31-.345.615-.695.93-1.035,1.708-1.844,1.224-3.743-.542-5.2-.283-.232-.583-.444-.875-.665a27.922,27.922,0,0,1,4.094,1.813c1.483.948,1.425,2.3.06,3.425A8.055,8.055,0,0,1-417.135,651.2Z" transform="translate(-60.012 -209.352)" fill="#f8e438"/>
      <path id="Trazado_641573" data-name="Trazado 641573" d="M-334.55,699.781c.379-.359.773-.7,1.133-1.08a4.246,4.246,0,0,0,1.116-3.426l2.5-1.2c.318,2.823.292,3.468-2.15,4.765A18.613,18.613,0,0,1-334.55,699.781Z" transform="translate(-125.282 -248.459)" fill="#f9be08"/>
      <path id="Trazado_641574" data-name="Trazado 641574" d="M-380.794,523.8a2.86,2.86,0,0,1,2.666,2.345c.057,1.154-1.091,2.243-2.666,2.518Z" transform="translate(-88.948 -114.672)" fill="#f8e438"/>
      <path id="Trazado_641575" data-name="Trazado 641575" d="M-403.259,486.082v4.833a2.749,2.749,0,0,1-2.615-2.386C-405.889,487.36-404.84,486.352-403.259,486.082Z" transform="translate(-69.241 -85.033)" fill="#f8e438"/>
      <path id="Trazado_641576" data-name="Trazado 641576" d="M-324.768,604.962c0-.978.016-1.956,0-2.932a3.245,3.245,0,0,0-.186-.729l2.71-1.261C-321.966,602.74-321.928,603.573-324.768,604.962Z" transform="translate(-132.819 -174.572)" fill="#f9be08"/>
      <path id="Trazado_641577" data-name="Trazado 641577" d="M-324.038,667.613q-.01-1.859-.021-3.719l2.5-1.187C-321.216,665.433-321.273,666.347-324.038,667.613Z" transform="translate(-133.525 -223.81)" fill="#f9be08"/>
      <path id="Trazado_641578" data-name="Trazado 641578" d="M-324.76,636.338c-.008-.934,0-1.869-.033-2.8a4.134,4.134,0,0,0-.191-.814l2.723-1.262C-321.763,634.083-322.453,635.421-324.76,636.338Z" transform="translate(-132.798 -199.258)" fill="#f9be08"/>
      <path id="Trazado_641579" data-name="Trazado 641579" d="M-415.363,727.885c.084-.154.129-.366.258-.454a4.06,4.06,0,0,0,1.725-2.677l2.451.544A6.832,6.832,0,0,1-415.363,727.885Z" transform="translate(-61.786 -272.561)" fill="#f9be08"/>
      <path id="Trazado_641580" data-name="Trazado 641580" d="M-373.834,461.714l-.359-.1Z" transform="translate(-94.134 -65.804)" fill="#fcd900"/>
      <path id="Trazado_641581" data-name="Trazado 641581" d="M-336.021,595.41l.155-.021Z" transform="translate(-124.126 -170.917)" fill="#f8e438"/>
      <path id="Trazado_641582" data-name="Trazado 641582" d="M-417.629,677.006l.155-.022Z" transform="translate(-60.006 -235.028)" fill="#f8e438"/>
      <path id="Trazado_641583" data-name="Trazado 641583" d="M-336.019,720.825l.261-.092Z" transform="translate(-124.128 -269.402)" fill="#f9be08"/>
      <path id="Trazado_641584" data-name="Trazado 641584" d="M-417.638,739.9l.162-.021Z" transform="translate(-59.999 -284.446)" fill="#f9be08"/>
      <path id="Trazado_641585" data-name="Trazado 641585" d="M-264.962,492.351c1.234-1.543,2.472-3.082,3.7-4.63,1.11-1.4,1.72-1.452,2.969-.192.355.358.649.776,1.035,1.244,1.461-1.822,2.784-3.459,4.094-5.108,1.1-1.384,1.7-1.426,2.961-.152.771.777,1.527,1.57,2.472,2.544a6.141,6.141,0,0,1,.35-.627c.824-1.119,1.649-2.237,2.488-3.344.634-.836,1.48-1.036,2.131-.532s.681,1.281.049,2.129q-1.845,2.474-3.7,4.937a1.376,1.376,0,0,1-2.312.181c-.934-.916-1.841-1.858-2.817-2.848-1.23,1.532-2.421,3-3.59,4.476-1.679,2.127-1.925,2.146-3.864.211-.187-.186-.382-.364-.649-.617l-3.733,4.67h1.151q8.943,0,17.886.005a4.26,4.26,0,0,1,1.186.127,1.191,1.191,0,0,1,.9,1.347,1.258,1.258,0,0,1-1.183,1.21,5.549,5.549,0,0,1-.641.014q-10.948,0-21.9,0c-1.431,0-1.856-.426-1.856-1.861q0-7.618,0-15.237a1.547,1.547,0,0,1,.744-1.566,1.332,1.332,0,0,1,1.96,1.238c.033,1.336.009,2.673.009,4.009q0,4.157,0,8.314Z" transform="translate(-177.693 -79.131)" fill="#000101"/>
      <path id="Trazado_641586" data-name="Trazado 641586" d="M-276.362,589.818v-8.05c-.787,0-1.528.005-2.27,0-1.084-.009-1.743-.518-1.755-1.344s.652-1.36,1.717-1.364c.8,0,1.6-.019,2.405,0a2.615,2.615,0,0,1,2.586,2.541,20.169,20.169,0,0,1,0,2.083c-.036.586.143.815.759.789,1.04-.044,2.084-.022,3.126-.008.942.013,1.517.506,1.534,1.276.018.819-.567,1.35-1.53,1.361-1.069.012-2.139.026-3.207-.006-.535-.016-.7.184-.68.7.033.693.022,1.389,0,2.084a2.615,2.615,0,0,1-2.506,2.627c-.932.055-1.871.036-2.805.008a1.377,1.377,0,0,1-1.4-1.359,1.385,1.385,0,0,1,1.425-1.336C-278.112,589.8-277.262,589.818-276.362,589.818Z" transform="translate(-167.839 -158.08)" fill="#000101"/>
      <path id="Trazado_641587" data-name="Trazado 641587" d="M-289.73,403.167q3.848,0,7.7,0c1.013,0,1.656.522,1.667,1.332s-.64,1.365-1.644,1.367q-7.777.011-15.554,0c-1.008,0-1.661-.546-1.668-1.345-.007-.823.661-1.353,1.726-1.354Q-293.618,403.164-289.73,403.167Z" transform="translate(-153.032 -19.885)" fill="#000101"/>
      <path id="Trazado_641588" data-name="Trazado 641588" d="M-289.466,431.044c-2.645,0-5.29.034-7.933-.033a1.787,1.787,0,0,1-1.259-.739,1.516,1.516,0,0,1,.111-1.3,1.421,1.421,0,0,1,1.062-.538c5.369-.034,10.738-.03,16.107-.017a1.31,1.31,0,0,1,1.384,1.347,1.349,1.349,0,0,1-1.458,1.281C-284.124,431.051-286.795,431.043-289.466,431.044Z" transform="translate(-153.401 -39.713)" fill="#000101"/>
      <path id="Trazado_641589" data-name="Trazado 641589" d="M-210.162,632c-1.895,0-3.789,0-5.684,0-1.015,0-1.656-.514-1.682-1.32-.026-.828.644-1.386,1.695-1.387q5.724-.006,11.448,0c1.016,0,1.659.515,1.683,1.32.025.83-.644,1.385-1.695,1.388C-206.32,632-208.241,632-210.162,632Z" transform="translate(-217.227 -197.549)" fill="#000101"/>
      <path id="Trazado_641590" data-name="Trazado 641590" d="M-210.067,579.081c1.894,0,3.788,0,5.683,0,1.014,0,1.653.513,1.673,1.322s-.628,1.38-1.626,1.382q-5.8.016-11.605,0a1.424,1.424,0,0,1-1.595-1.335c-.015-.806.639-1.364,1.629-1.367C-213.962,579.076-212.014,579.081-210.067,579.081Z" transform="translate(-217.22 -158.102)" fill="#000101"/>
      <path id="Trazado_641591" data-name="Trazado 641591" d="M-210.117,606.951c-1.95,0-3.9.006-5.851,0-.964,0-1.582-.536-1.576-1.325s.609-1.31,1.589-1.312q5.81-.012,11.621,0c1.037,0,1.642.531,1.61,1.363-.029.777-.648,1.272-1.623,1.275C-206.27,606.955-208.194,606.951-210.117,606.951Z" transform="translate(-217.215 -177.923)" fill="#000101"/>
      <path id="Trazado_641592" data-name="Trazado 641592" d="M-267.278,453.367c1.709,0,3.417,0,5.126,0,1,0,1.655.548,1.655,1.35s-.656,1.354-1.653,1.356q-5.086.01-10.172,0c-1.039,0-1.625-.505-1.626-1.354s.585-1.347,1.624-1.352C-270.642,453.361-268.96,453.367-267.278,453.367Z" transform="translate(-172.898 -59.327)" fill="#000101"/>
    </g>
  </g>
</svg>
