<svg xmlns="http://www.w3.org/2000/svg" width="137" height="138" viewBox="0 0 137 138">
  <g id="Grupo_909110" data-name="Grupo 909110" transform="translate(-987 -12527.702)">
    <circle id="Elipse_7486" data-name="Elipse 7486" cx="62.5" cy="62.5" r="62.5" transform="translate(991 12533.702)" fill="#fff"/>
    <g id="Elipse_7491" data-name="Elipse 7491" transform="translate(997 12537.702)" fill="none" stroke="#f1b62b" stroke-linejoin="round" stroke-width="10">
      <ellipse cx="58.5" cy="59" rx="58.5" ry="59" stroke="none"/>
      <ellipse cx="58.5" cy="59" rx="63.5" ry="64" fill="none"/>
    </g>
    <g id="Grupo_907069" data-name="Grupo 907069" transform="translate(898.52 12814.984)">
      <path id="Trazado_641658" data-name="Trazado 641658" d="M120.48-126.168a1.377,1.377,0,0,0,.174-.377c.123-.979.159-1.974.36-2.936.259-1.242.634-2.461.981-3.683.231-.81.468-1.622.764-2.409.267-.711.612-1.394.935-2.083.238-.508.48-1.014.748-1.506.417-.767.844-1.53,1.293-2.278.4-.673.835-1.331,1.268-1.986a8.246,8.246,0,0,1,.617-.814c.71-.83,1.4-1.684,2.153-2.469.963-1,1.94-1.992,2.995-2.89.993-.845,2.09-1.569,3.151-2.332.648-.466,1.3-.932,1.979-1.35.5-.308,1.047-.54,1.574-.8.568-.282,1.132-.572,1.708-.836.644-.294,1.288-.593,1.953-.833.794-.286,1.607-.522,2.417-.761.748-.221,1.5-.442,2.258-.616a21.2,21.2,0,0,1,2.314-.428,38.381,38.381,0,0,1,7.377-.257,22.16,22.16,0,0,1,4.226.553c.819.227,1.673.33,2.5.536.575.144,1.127.375,1.693.557.261.084.535.131.795.218.528.175,1.059.343,1.572.555.64.264,1.269.557,1.893.858.553.267,1.092.562,1.635.847.486.255.987.486,1.451.776.766.478,1.539.954,2.254,1.5,1.258.968,2.52,1.94,3.693,3.006a38.138,38.138,0,0,1,2.7,2.863,23.965,23.965,0,0,1,1.652,2.049c.587.824,1.128,1.684,1.647,2.554.537.9,1.068,1.81,1.517,2.756a30.67,30.67,0,0,1,1.2,2.966c.355,1.009.621,2.049.945,3.069a18,18,0,0,1,.841,3.977c.1,1.216.206,2.432.341,3.644a2.312,2.312,0,0,1-.4,1.715,1.57,1.57,0,0,1-.9.62,2.828,2.828,0,0,0-.393.162h-.169a2.273,2.273,0,0,0-.423-.08q-7.492-.006-14.985,0a1.843,1.843,0,0,0-.379.08h-.169a1.4,1.4,0,0,1-.769-1.073c.225-.836.81-.981,1.6-.969,2.572.041,5.145.015,7.718.015h.463a3.3,3.3,0,0,0,0-.339c-.146-1.2-.229-2.4-.459-3.583-.25-1.279-.621-2.537-.975-3.794a8.791,8.791,0,0,0-.526-1.221c-.311-.684-.61-1.374-.946-2.046a19.577,19.577,0,0,0-1.024-1.856,22.351,22.351,0,0,0-1.4-1.919c-.641-.794-1.31-1.567-2-2.323-.416-.459-.879-.878-1.334-1.3-.41-.381-.819-.767-1.264-1.105-.611-.465-1.242-.906-1.886-1.324-.537-.349-1.1-.662-1.66-.968s-1.12-.6-1.7-.861c-.684-.3-1.38-.585-2.09-.816a27.045,27.045,0,0,0-3.2-.928c-1.345-.261-2.719-.368-4.081-.541-.074-.047-.148-.135-.222-.135q-1.222-.015-2.445,0c-.074,0-.146.093-.219.143l-3.946.523c-.422.112-.846.217-1.265.337-.71.2-1.432.376-2.12.638a27.663,27.663,0,0,0-2.63,1.15c-.937.474-1.855.994-2.743,1.555-.739.468-1.434,1.01-2.125,1.549-.536.417-1.05.866-1.546,1.329-.375.35-.7.749-1.058,1.123a17.382,17.382,0,0,0-1.371,1.464c-.673.9-1.307,1.842-1.894,2.8a28.747,28.747,0,0,0-1.5,2.782,20.224,20.224,0,0,0-.943,2.507c-.32,1.019-.6,2.053-.84,3.094-.168.736-.247,1.495-.342,2.246-.075.589-.112,1.183-.167,1.8h4.662c.056,0,.112.013.168.013q7.405,0,14.811,0c.121,0,.241-.021.356-.032a4.444,4.444,0,0,1,.955-2.418c.276-.356.585-.688.89-1.02a5.36,5.36,0,0,1,2.255-1.356,6.327,6.327,0,0,1,2.519-.257.574.574,0,0,0,.38-.114c1.015-.9,2.015-1.816,3.027-2.718.519-.463,1.059-.9,1.582-1.363.662-.582,1.312-1.178,1.972-1.761.754-.665,1.5-1.338,2.275-1.978a18.367,18.367,0,0,1,2.386-1.984,2.708,2.708,0,0,1,3.791.907,2.833,2.833,0,0,1-.44,3.462c-.786.844-1.544,1.715-2.308,2.58-.659.746-1.31,1.5-1.966,2.249-.385.44-.777.874-1.164,1.313q-1.121,1.268-2.239,2.537c-.549.624-1.094,1.25-1.711,1.956h.54c1.9,0,3.8,0,5.7,0a.942.942,0,0,1,1.027.932,4.282,4.282,0,0,1-.267.772c-.08.142-.282.216-.429.32h-.169a1.84,1.84,0,0,0-.378-.08q-22.438-.006-44.877,0a1.474,1.474,0,0,0-.333.081H122c-.383-.308-.788-.594-1.14-.935a2.705,2.705,0,0,1-.38-.669v-1.689l.153-.152-.153-.1Zm49.147-10.282c.178-.408,0-.668-.341-.888a.524.524,0,0,0-.764.08c-.24.249-.519.462-.783.688-.538.458-1.085.906-1.615,1.372-.655.576-1.291,1.175-1.946,1.751-.749.658-1.513,1.3-2.266,1.953s-1.508,1.316-2.255,1.981c-.416.371-.82.757-1.241,1.146l.99.746a.769.769,0,0,0,.093.184c.375.408.754.812,1.156,1.243.653-.72,1.353-1.474,2.033-2.244.73-.826,1.432-1.676,2.164-2.5.9-1.015,1.821-2.011,2.724-3.023.55-.617,1.086-1.245,1.62-1.876C169.355-136.03,169.483-136.246,169.627-136.45Zm-34.968-9.217c.553.583,1.1,1.171,1.667,1.742a.346.346,0,0,0,.334.013c.194-.14.343-.34.53-.492.677-.548,1.344-1.113,2.052-1.619.54-.385,1.131-.7,1.708-1.029.843-.483,1.671-1,2.549-1.412a25.642,25.642,0,0,1,2.654-1,27.361,27.361,0,0,1,3.2-.976,18.805,18.805,0,0,1,4.5-.545c.367.014.448-.136.44-.465-.018-.745-.006-1.491-.006-2.236v-2.129c-.167,0-.291-.011-.412,0-1.281.13-2.563.255-3.843.4a15.557,15.557,0,0,0-2.018.31c-.892.224-1.76.538-2.639.813-.559.2-1.123.381-1.674.6-.988.387-1.985.758-2.946,1.2a25.129,25.129,0,0,0-2.614,1.4c-.772.477-1.492,1.04-2.217,1.589-.855.647-1.681,1.332-2.54,1.973-.355.265-.288.43.008.68C133.835-146.476,134.24-146.063,134.659-145.668Zm-12.143,21.195v.395h4.8c.009-.148.018-.285.027-.422.055-.738.07-1.482.175-2.213.127-.888.295-1.775.507-2.647.235-.966.5-1.93.825-2.868.346-.986.757-1.952,1.191-2.9a21.1,21.1,0,0,1,1.232-2.362c.486-.784,1.107-1.483,1.6-2.261a17.434,17.434,0,0,1,1.932-2.351c.152-.167.253-.247.027-.451-.42-.379-.8-.805-1.2-1.207-.6-.607-1.2-1.218-1.82-1.8a.437.437,0,0,0-.428.015,17.339,17.339,0,0,0-1.284,1.4q-.844,1.049-1.618,2.154c-.522.747-1.008,1.521-1.5,2.291-.243.384-.471.78-.677,1.186-.314.615-.618,1.236-.9,1.867-.315.712-.633,1.425-.887,2.159-.325.937-.609,1.89-.873,2.846A25.831,25.831,0,0,0,122.67-126c-.05.09-.14.178-.144.269C122.51-125.315,122.517-124.893,122.516-124.473Zm65.617.394c-.074-.854-.142-1.681-.218-2.508a13.01,13.01,0,0,0-.166-1.534q-.449-2.1-.971-4.181a22.226,22.226,0,0,0-.731-2.365c-.308-.818-.688-1.609-1.051-2.406-.245-.538-.494-1.077-.778-1.595s-.612-1.022-.93-1.526c-.486-.77-.935-1.57-1.485-2.294-.723-.953-1.527-1.844-2.3-2.761-.458-.544-.626-.52-1.105-.011q-1.153,1.223-2.374,2.381c-.442.419-.469.645.017,1.025.065.051.155.078.2.139.672.858,1.354,1.709,2,2.585a17.406,17.406,0,0,1,1.131,1.712c.471.823.907,1.668,1.322,2.52a15.294,15.294,0,0,1,.749,1.8c.351,1.041.665,2.1.971,3.153a13.588,13.588,0,0,1,.294,1.376c.144.8.291,1.6.4,2.4.094.688.136,1.383.2,2.091Zm-31.8-27.006c.91.092,1.788.134,2.649.278,1.289.215,2.576.465,3.847.77a17.293,17.293,0,0,1,2.281.772c.9.356,1.8.729,2.667,1.162a31.345,31.345,0,0,1,2.738,1.536c.816.516,1.579,1.116,2.356,1.691a4.165,4.165,0,0,1,.917.778c.3.4.48.2.7-.019.94-.939,1.87-1.888,2.815-2.821.2-.2.25-.315-.012-.518-.481-.372-.917-.8-1.393-1.183-.687-.545-1.363-1.113-2.1-1.585-1.032-.664-2.1-1.284-3.182-1.858-.933-.495-1.9-.929-2.878-1.336-.825-.344-1.678-.627-2.529-.9-.6-.2-1.219-.349-1.835-.495-.872-.207-1.743-.422-2.626-.573-.994-.17-2-.292-3-.4a13.7,13.7,0,0,0-1.418-.008Zm2.887,27.014a4.03,4.03,0,0,0-4.113-3.06,3.985,3.985,0,0,0-3.7,3.06Z" transform="translate(0 -62.267)" fill="#020202"/>
      <path id="Trazado_641659" data-name="Trazado 641659" d="M120.48-215.87a3.506,3.506,0,0,1,.33-.72,13.657,13.657,0,0,1,1.109-1.3c1.032-1.052,2.084-2.084,3.132-3.121.923-.913,1.854-1.818,2.772-2.736.974-.974,1.933-1.963,2.908-2.936.668-.668,1.36-1.312,2.026-1.981.755-.758,1.488-1.54,2.244-2.3.482-.483,1-.934,1.486-1.41.535-.52,1.057-1.053,1.585-1.58s1.057-1.039,1.576-1.569c.46-.47.9-.962,1.36-1.427.358-.358.755-.678,1.112-1.036.453-.454.875-.94,1.328-1.393.368-.367.774-.7,1.143-1.062.446-.443.848-.932,1.31-1.357a7.033,7.033,0,0,1,2.389-1.8,5.067,5.067,0,0,1,2.66-.207,5.679,5.679,0,0,1,2.934,1.789c.66.685,1.38,1.311,2.064,1.973.353.341.679.711,1.03,1.056.469.462.956.906,1.423,1.37.355.352.682.732,1.037,1.083.462.457.949.889,1.411,1.347.361.358.689.749,1.05,1.108.458.454.937.886,1.4,1.333a1.676,1.676,0,0,1,.324.388c.237.44.452.23.683,0q1.442-1.44,2.889-2.875,2.549-2.522,5.1-5.04c1.189-1.178,2.369-2.366,3.557-3.545q1.678-1.667,3.366-3.323c.3-.3.632-.563.949-.844l-.091-.146c-.145-.007-.29-.019-.435-.021-1.054-.014-2.113.028-3.162-.056a2.721,2.721,0,0,1-2.136-1.5,6.255,6.255,0,0,1-.328-.777q.033-.593.066-1.187a2.808,2.808,0,0,1,2.308-2.19c.329-.032.659-.082.989-.082,3.25-.006,6.5-.014,9.75,0a2.872,2.872,0,0,1,2.713,1.61,3.246,3.246,0,0,1,.277,1.409c.022,3.348.032,6.7,0,10.044a2.883,2.883,0,0,1-3.382,2.942,2.863,2.863,0,0,1-2.016-1.422,3.107,3.107,0,0,1-.4-1.842c0-.912,0-1.823,0-2.8a1.537,1.537,0,0,0-.321.185c-.573.6-1.126,1.21-1.71,1.793-.441.44-.93.832-1.376,1.268-.372.364-.7.772-1.07,1.138-.447.444-.926.856-1.374,1.3-.369.365-.688.783-1.076,1.125-.447.395-.767.947-1.421,1.105a.86.86,0,0,1-.8-.242.947.947,0,0,1-.04-1.421c.577-.623,1.2-1.2,1.8-1.8q1.249-1.258,2.488-2.524c.716-.732,1.417-1.48,2.142-2.2.695-.695,1.41-1.369,2.118-2.051a1.726,1.726,0,0,1,1.712-.358,1.757,1.757,0,0,1,.965,1.668c-.031,1.406-.014,2.813,0,4.22a.859.859,0,0,0,.866.862.986.986,0,0,0,.89-.838c-.013-3.418,0-6.837-.009-10.255a.91.91,0,0,0-.882-.883q-4.325,0-8.651.011c-.56,0-1.119-.016-1.679-.009a.935.935,0,0,0-.854.828.876.876,0,0,0,.778.887c.585.023,1.173,0,1.759-.007.893.011,1.787.015,2.68.037a2.27,2.27,0,0,1,.68.108,1.67,1.67,0,0,1,1.037,1.433,2.819,2.819,0,0,1-.344.857c-.615.7-1.281,1.359-1.936,2.025q-1.208,1.226-2.43,2.437c-.82.818-1.645,1.63-2.464,2.448s-1.615,1.627-2.43,2.433c-.844.834-1.7,1.652-2.545,2.489-.8.792-1.574,1.6-2.369,2.4-.825.824-1.651,1.648-2.5,2.453-.359.342-.766.632-1.151.946a3.384,3.384,0,0,1-.49.083,2.039,2.039,0,0,1-.913-.04,7.288,7.288,0,0,1-1.466-1.015c-.568-.509-1.059-1.1-1.6-1.646-.556-.559-1.137-1.093-1.7-1.647q-1.574-1.554-3.138-3.119c-1.222-1.224-2.421-2.471-3.672-3.664a3.966,3.966,0,0,0-1.118-.528,2.556,2.556,0,0,0-2.765.8c-.618.568-1.156,1.223-1.751,1.818-.688.688-1.406,1.344-2.1,2.028-.493.488-.951,1.012-1.443,1.5-.546.542-1.124,1.051-1.668,1.594-.725.725-1.421,1.479-2.145,2.2-.7.695-1.419,1.362-2.117,2.054-.492.487-.956,1-1.448,1.493-.546.542-1.117,1.057-1.662,1.6-.493.49-.958,1.009-1.449,1.5-.473.473-.972.919-1.446,1.391-.57.568-1.113,1.162-1.69,1.723-.677.659-1.391,1.281-2.064,1.944-1.393,1.372-2.769,2.762-4.155,4.142a.792.792,0,0,0-.085,1.169.7.7,0,0,0,.867.257c.646-.193.957-.746,1.373-1.191l.208-.2,0,0a.674.674,0,0,0,.185-.093q1.641-1.628,3.276-3.262c1.028-1.029,2.045-2.069,3.079-3.092.737-.729,1.5-1.429,2.24-2.157.541-.533,1.049-1.1,1.59-1.633.73-.721,1.485-1.417,2.212-2.14.686-.682,1.342-1.392,2.026-2.075.5-.5,1.028-.962,1.527-1.458.552-.549,1.076-1.126,1.626-1.676.488-.487,1.012-.939,1.494-1.432.658-.672,1.276-1.384,1.941-2.049.759-.759,1.559-1.476,2.326-2.227a2.042,2.042,0,0,1,2.719.04c.665.689,1.368,1.343,2.047,2.019.97.968,1.928,1.948,2.9,2.911.727.719,1.48,1.411,2.208,2.129.473.468.907.976,1.384,1.441.61.6,1.285,1.129,1.856,1.758a2.623,2.623,0,0,0,1.69,1,2.744,2.744,0,0,0,2.333-.683c.578-.555,1.158-1.11,1.723-1.677.611-.613,1.2-1.25,1.811-1.86.745-.741,1.534-1.438,2.252-2.2a1,1,0,0,1,1.6-.075c.406.736.306,1.065-.323,1.635-.543.492-1.007,1.072-1.522,1.6-.29.295-.622.548-.919.836s-.555.58-.83.872c-.248.263-.486.537-.743.791-.417.411-.845.813-1.272,1.215a5.727,5.727,0,0,1-2.23,1.4,4.378,4.378,0,0,1-2.666.111,5.487,5.487,0,0,1-2.285-1.408q-2.726-2.717-5.454-5.431c-1.53-1.513-3.075-3.012-4.611-4.519-.116-.114-.213-.248-.328-.385-.665.659-1.3,1.29-1.942,1.924q-1.581,1.573-3.158,3.149-2.339,2.334-4.679,4.668c-1.33,1.32-2.673,2.627-4,3.95-1.343,1.338-2.668,2.695-4.012,4.033-.881.877-1.787,1.729-2.67,2.6-.751.742-1.476,1.51-2.231,2.248-.687.672-1.434,1.286-2.086,1.988a2.042,2.042,0,0,1-1.31.626h-1.2a2.584,2.584,0,0,1-2.11-1.908c-.024-.081-.107-.143-.163-.215Z" transform="translate(0 0)" fill="#030303"/>
      <path id="Trazado_641660" data-name="Trazado 641660" d="M125.761-56.073a1.476,1.476,0,0,1,.333-.081q22.438-.005,44.877,0a1.84,1.84,0,0,1,.378.08Z" transform="translate(-3.424 -128.226)" fill="#6e6e6e"/>
      <path id="Trazado_641661" data-name="Trazado 641661" d="M255.865-57.934c.147-.1.349-.178.429-.32a4.288,4.288,0,0,0,.267-.772l2.671.02A1.4,1.4,0,0,0,260-57.934Z" transform="translate(-87.77 -126.365)" fill="#fefefe"/>
      <path id="Trazado_641662" data-name="Trazado 641662" d="M268.107-56.074a1.844,1.844,0,0,1,.379-.08q7.492-.006,14.985,0a2.272,2.272,0,0,1,.423.08Z" transform="translate(-95.706 -128.225)" fill="#6e6e6e"/>
      <path id="Trazado_641663" data-name="Trazado 641663" d="M120.48-60.48a2.705,2.705,0,0,0,.38.669c.352.341.757.626,1.14.935h-1.52Z" transform="translate(0 -125.423)" fill="#fefefe"/>
      <path id="Trazado_641664" data-name="Trazado 641664" d="M120.48-66l.153.1-.153.152Z" transform="translate(0 -121.843)" fill="#a1a1a1"/>
      <path id="Trazado_641665" data-name="Trazado 641665" d="M159.356-237.963a3.966,3.966,0,0,1,1.118.528c1.251,1.193,2.45,2.441,3.672,3.664q1.564,1.565,3.138,3.119c.561.554,1.142,1.089,1.7,1.647.54.542,1.031,1.137,1.6,1.646a7.286,7.286,0,0,0,1.466,1.015,2.039,2.039,0,0,0,.913.04,3.385,3.385,0,0,0,.49-.083c.618.344,1.056.351,1.423.011.7-.652,1.42-1.294,2.1-1.967,1.673-1.647,3.321-3.321,5-4.965,2.144-2.1,4.313-4.184,6.457-6.289.913-.9,1.786-1.834,2.683-2.747q.711-.723,1.443-1.425a.605.605,0,0,0,.184-.753,1.188,1.188,0,0,0-.624-.34,1.689,1.689,0,0,0-.5-.011,1.67,1.67,0,0,0-1.037-1.433,2.268,2.268,0,0,0-.679-.108c-.893-.022-1.787-.026-2.68-.037a2.134,2.134,0,0,1,0-1.7q4.326-.007,8.651-.011a.91.91,0,0,1,.882.883c.005,3.418,0,6.837.009,10.255a.986.986,0,0,1-.89.838.859.859,0,0,1-.866-.862c-.012-1.406-.029-2.814,0-4.22a1.757,1.757,0,0,0-.965-1.668,1.725,1.725,0,0,0-1.712.358c-.708.682-1.423,1.356-2.118,2.051-.724.724-1.425,1.472-2.141,2.2q-1.239,1.267-2.488,2.524c-.6.6-1.224,1.182-1.8,1.8a.947.947,0,0,0,.04,1.421c-.439.4-.886.8-1.313,1.212-.23.224-.423.485-.633.73a1,1,0,0,0-1.6.075c-.717.766-1.507,1.463-2.252,2.2-.613.61-1.2,1.247-1.811,1.86-.566.568-1.145,1.122-1.723,1.677a2.744,2.744,0,0,1-2.333.683,2.623,2.623,0,0,1-1.69-1c-.571-.63-1.246-1.163-1.856-1.758-.476-.465-.91-.973-1.384-1.441-.727-.719-1.481-1.411-2.208-2.129-.975-.963-1.932-1.944-2.9-2.911-.679-.677-1.381-1.33-2.047-2.019a2.042,2.042,0,0,0-2.719-.04c-.767.751-1.567,1.469-2.326,2.227-.665.665-1.283,1.377-1.941,2.049-.482.493-1.006.945-1.494,1.432-.551.55-1.074,1.127-1.626,1.676-.5.5-1.029.96-1.527,1.458-.684.683-1.34,1.393-2.026,2.075-.727.723-1.482,1.419-2.212,2.14-.54.534-1.049,1.1-1.59,1.633-.738.727-1.5,1.428-2.24,2.157-1.034,1.023-2.051,2.063-3.08,3.092q-1.633,1.635-3.276,3.262a.674.674,0,0,1-.185.093c.024-.154-.007-.363.082-.455.805-.834,1.629-1.649,2.451-2.465,1.517-1.505,3.041-3,4.552-4.513,1.9-1.9,3.779-3.8,5.67-5.7q2.394-2.405,4.8-4.8,2.063-2.055,4.141-4.094c.445-.435.934-.824,1.383-1.255.575-.552,1.135-1.12,1.693-1.69C158.855-237.387,159.1-237.679,159.356-237.963Z" transform="translate(-8.648 -3.75)" fill="#eb707e"/>
      <path id="Trazado_641666" data-name="Trazado 641666" d="M272.528-247.464q-.033.594-.066,1.187A1.17,1.17,0,0,1,272.528-247.464Z" transform="translate(-98.446 -4.201)" fill="#a1a1a1"/>
      <path id="Trazado_641667" data-name="Trazado 641667" d="M126.943-136.051h1.2A1.074,1.074,0,0,1,126.943-136.051Z" transform="translate(-4.19 -76.43)" fill="#a1a1a1"/>
      <path id="Trazado_641668" data-name="Trazado 641668" d="M196.369-106.668l-2.671-.02a.942.942,0,0,0-1.027-.932c-1.9-.006-3.8,0-5.7,0h-.54c.617-.706,1.163-1.332,1.711-1.956q1.118-1.27,2.239-2.537c.388-.438.779-.873,1.164-1.313.657-.748,1.307-1.5,1.966-2.249.764-.864,1.521-1.736,2.308-2.58a2.833,2.833,0,0,0,.44-3.462,2.708,2.708,0,0,0-3.791-.907,18.37,18.37,0,0,0-2.386,1.984c-.774.64-1.521,1.314-2.275,1.978-.661.583-1.311,1.179-1.972,1.761-.522.46-1.062.9-1.582,1.363-1.012.9-2.012,1.819-3.027,2.718a.574.574,0,0,1-.38.114,6.327,6.327,0,0,0-2.519.257,5.36,5.36,0,0,0-2.255,1.356c-.3.333-.614.664-.89,1.02a4.444,4.444,0,0,0-.955,2.418c-.115.011-.235.032-.356.032q-7.405,0-14.811,0c-.056,0-.112-.009-.168-.013.031-.419.028-.843.1-1.255q.3-1.707.656-3.4a16.867,16.867,0,0,1,.48-1.861c.249-.753.55-1.489.85-2.224.273-.67.557-1.337.869-1.99.277-.581.583-1.15.906-1.708.463-.8.913-1.609,1.441-2.364.489-.7,1.071-1.336,1.615-2a19.338,19.338,0,0,1,1.383-1.642c.889-.863,1.828-1.675,2.764-2.488.647-.562,1.3-1.123,1.994-1.625.625-.451,1.312-.814,1.965-1.226.3-.186.575-.4.861-.6l3.946-.523,2.886-.008c1.362.173,2.736.28,4.081.541a27.044,27.044,0,0,1,3.2.928c.71.231,1.405.515,2.09.816.581.256,1.143.557,1.7.861s1.123.619,1.66.968c.644.418,1.276.858,1.886,1.324.444.339.854.725,1.264,1.105.455.422.918.841,1.334,1.3.685.756,1.354,1.529,2,2.323a22.355,22.355,0,0,1,1.4,1.919,19.577,19.577,0,0,1,1.025,1.856c.337.671.636,1.361.946,2.046a8.793,8.793,0,0,1,.526,1.221c.354,1.257.725,2.514.975,3.794.23,1.18.313,2.388.459,3.583a3.292,3.292,0,0,1,0,.339h-.463c-2.573,0-5.146.025-7.718-.015C197.179-107.649,196.594-107.5,196.369-106.668Z" transform="translate(-24.906 -78.704)" fill="#61dafa"/>
      <path id="Trazado_641669" data-name="Trazado 641669" d="M289.9-101.5h-4.814c-.066-.708-.109-1.4-.2-2.091-.109-.8-.256-1.6-.4-2.4a13.585,13.585,0,0,0-.294-1.376c-.306-1.056-.619-2.111-.971-3.153a15.292,15.292,0,0,0-.749-1.8c-.415-.853-.851-1.7-1.322-2.52a17.408,17.408,0,0,0-1.131-1.712c-.649-.876-1.33-1.727-2-2.585-.049-.062-.139-.089-.2-.139-.485-.379-.459-.606-.017-1.025q1.22-1.156,2.374-2.381c.48-.509.647-.533,1.105.011.771.917,1.575,1.808,2.3,2.761.549.723,1,1.524,1.485,2.294.318.5.644,1,.93,1.526s.533,1.057.778,1.595c.363.8.743,1.588,1.051,2.406a22.231,22.231,0,0,1,.731,2.365q.526,2.081.971,4.181a13.023,13.023,0,0,1,.166,1.534C289.753-103.184,289.822-102.357,289.9-101.5Z" transform="translate(-101.763 -84.843)" fill="#90dcb4"/>
      <path id="Trazado_641670" data-name="Trazado 641670" d="M126.423-103.363a25.831,25.831,0,0,1,.985-5.647c.263-.956.548-1.909.873-2.846.255-.734.572-1.448.887-2.159.28-.631.584-1.252.9-1.867.206-.405.434-.8.677-1.186.488-.771.974-1.544,1.5-2.291s1.055-1.455,1.618-2.154a17.344,17.344,0,0,1,1.284-1.4.437.437,0,0,1,.428-.015c.621.586,1.218,1.2,1.82,1.8.4.4.776.829,1.2,1.207.226.2.125.284-.027.451a17.433,17.433,0,0,0-1.932,2.351c-.495.779-1.116,1.478-1.6,2.261a21.1,21.1,0,0,0-1.232,2.362c-.434.951-.845,1.917-1.191,2.9-.329.937-.59,1.9-.825,2.868-.212.872-.38,1.758-.507,2.647-.1.731-.12,1.475-.175,2.213-.01.137-.018.274-.027.422h-4.8v-.395c.05-.089.138-.177.142-.268C126.427-102.521,126.421-102.942,126.423-103.363Z" transform="translate(-3.752 -84.908)" fill="#ea5d70"/>
      <path id="Trazado_641671" data-name="Trazado 641671" d="M166.189-131.034c-.287.2-.566.409-.861.6-.653.412-1.34.775-1.965,1.226-.694.5-1.347,1.062-1.994,1.625-.936.813-1.875,1.625-2.764,2.488a19.346,19.346,0,0,0-1.383,1.642c-.544.662-1.126,1.3-1.615,2-.528.755-.978,1.565-1.441,2.364-.322.557-.628,1.126-.906,1.708-.312.652-.6,1.32-.869,1.99-.3.735-.6,1.471-.85,2.224a16.863,16.863,0,0,0-.48,1.861q-.355,1.7-.656,3.4c-.072.411-.069.836-.1,1.255h-4.662c.056-.614.093-1.208.167-1.8.095-.751.174-1.51.342-2.246.237-1.041.519-2.075.84-3.094a20.22,20.22,0,0,1,.943-2.507,28.744,28.744,0,0,1,1.5-2.782c.587-.963,1.22-1.9,1.894-2.8a17.387,17.387,0,0,1,1.371-1.464c.353-.374.683-.773,1.058-1.123.5-.464,1.011-.912,1.546-1.329.691-.539,1.386-1.081,2.125-1.549.887-.562,1.805-1.081,2.743-1.555a27.677,27.677,0,0,1,2.63-1.15c.688-.262,1.411-.434,2.12-.638C165.342-130.817,165.767-130.922,166.189-131.034Z" transform="translate(-16.313 -79.683)" fill="#01cef9"/>
      <path id="Trazado_641672" data-name="Trazado 641672" d="M222.429-147.237v-4.709a13.705,13.705,0,0,1,1.418.008c1,.1,2.006.226,3,.4.882.151,1.754.366,2.626.573.616.146,1.233.3,1.835.495.851.276,1.7.559,2.529.9.976.407,1.945.841,2.878,1.336,1.085.575,2.15,1.194,3.182,1.858.735.473,1.412,1.04,2.1,1.585.477.379.912.811,1.393,1.183.262.2.217.316.012.518-.945.933-1.876,1.882-2.815,2.821-.218.218-.4.421-.7.019a4.165,4.165,0,0,0-.917-.778c-.777-.575-1.541-1.175-2.356-1.691a31.357,31.357,0,0,0-2.738-1.536c-.866-.433-1.766-.806-2.667-1.162a17.3,17.3,0,0,0-2.281-.772c-1.271-.305-2.558-.555-3.847-.77C224.217-147.1,223.339-147.145,222.429-147.237Z" transform="translate(-66.093 -66.115)" fill="#fdc143"/>
      <path id="Trazado_641673" data-name="Trazado 641673" d="M171.514-150.47c.879-.275,1.747-.589,2.639-.813a15.552,15.552,0,0,1,2.018-.31c1.279-.147,2.561-.272,3.843-.4.121-.012.245,0,.412,0v2.129c0,.746-.012,1.491.006,2.236.008.329-.073.48-.44.465a18.8,18.8,0,0,0-4.5.545,27.368,27.368,0,0,0-3.2.976,25.644,25.644,0,0,0-2.654,1c-.879.409-1.706.929-2.549,1.412-.577.33-1.168.644-1.708,1.029-.708.506-1.374,1.071-2.052,1.619-.187.152-.336.352-.53.492a.346.346,0,0,1-.334-.013c-.566-.57-1.113-1.158-1.667-1.741a1.12,1.12,0,0,1,.136-.3c.356-.4.706-.806,1.091-1.175.6-.575,1.222-1.132,1.849-1.68.755-.662,1.51-1.327,2.3-1.952.674-.537,1.382-1.032,2.092-1.522.542-.374,1.1-.73,1.668-1.06.495-.287,1.019-.524,1.526-.79C171.487-150.344,171.494-150.42,171.514-150.47Z" transform="translate(-26.136 -66.09)" fill="#fddf76"/>
      <path id="Trazado_641674" data-name="Trazado 641674" d="M216.228-67.365H208.41a3.985,3.985,0,0,1,3.7-3.06A4.03,4.03,0,0,1,216.228-67.365Z" transform="translate(-57.005 -118.974)" fill="#c2dffc"/>
      <path id="Trazado_641675" data-name="Trazado 641675" d="M168.727-147.648c-.02.05-.027.126-.063.145-.508.266-1.031.5-1.526.79-.57.33-1.126.686-1.668,1.06-.709.49-1.418.985-2.092,1.522-.785.625-1.54,1.291-2.3,1.952-.627.548-1.247,1.1-1.849,1.68-.385.369-.736.776-1.091,1.175a1.12,1.12,0,0,0-.136.3c-.419-.4-.824-.809-1.263-1.181-.3-.25-.363-.415-.008-.68.859-.642,1.685-1.327,2.54-1.973.725-.548,1.445-1.112,2.217-1.589a25.136,25.136,0,0,1,2.614-1.4c.961-.447,1.958-.817,2.945-1.2C167.6-147.267,168.168-147.45,168.727-147.648Z" transform="translate(-23.348 -68.912)" fill="#fdc143"/>
      <path id="Trazado_641676" data-name="Trazado 641676" d="M229.332-89.962l-.99-.746c.421-.39.825-.776,1.241-1.146q1.121-1,2.255-1.981c.753-.654,1.517-1.295,2.266-1.953.656-.576,1.291-1.175,1.946-1.751.53-.466,1.077-.914,1.615-1.372.264-.225.543-.438.783-.688a.524.524,0,0,1,.764-.08c.34.221.519.48.341.888-.105.011-.239-.015-.312.039-.259.192-.5.407-.741.623-.871.786-1.729,1.587-2.61,2.361-.58.51-1.206.968-1.785,1.48-.639.564-1.249,1.162-1.869,1.747-.091.086-.165.191-.26.274Q230.657-91.112,229.332-89.962Z" transform="translate(-69.927 -99.926)" fill="#658b96"/>
      <path id="Trazado_641677" data-name="Trazado 641677" d="M231.158-88.088q1.323-1.151,2.645-2.3c.094-.082.168-.187.26-.274.621-.585,1.23-1.183,1.869-1.747.579-.512,1.2-.97,1.785-1.48.881-.774,1.739-1.575,2.61-2.361.24-.216.483-.431.741-.623.073-.055.206-.028.312-.039-.143.2-.272.42-.433.61-.533.631-1.07,1.26-1.62,1.876-.9,1.012-1.824,2.008-2.724,3.023-.731.825-1.434,1.675-2.164,2.5-.681.77-1.38,1.524-2.033,2.244-.4-.43-.781-.834-1.156-1.243A.769.769,0,0,1,231.158-88.088Z" transform="translate(-71.752 -101.801)" fill="#799dad"/>
      <path id="Trazado_641678" data-name="Trazado 641678" d="M218.166-132.807l-2.886.008c.073-.05.145-.142.219-.143q1.222-.016,2.445,0C218.018-132.942,218.092-132.854,218.166-132.807Z" transform="translate(-61.459 -78.441)" fill="#224d58"/>
      <path id="Trazado_641679" data-name="Trazado 641679" d="M126.422-67.214c0,.421,0,.843-.013,1.263,0,.091-.092.179-.142.268,0-.421-.006-.842.011-1.262C126.282-67.036,126.372-67.124,126.422-67.214Z" transform="translate(-3.751 -121.057)" fill="#812f3a"/>
      <path id="Trazado_641680" data-name="Trazado 641680" d="M154.443-219.446c-.255.283-.5.576-.768.848-.557.57-1.117,1.138-1.693,1.69-.449.43-.938.82-1.383,1.255q-2.081,2.036-4.141,4.094-2.4,2.4-4.8,4.8c-1.891,1.9-3.774,3.809-5.67,5.7-1.511,1.511-3.035,3.008-4.552,4.513-.822.817-1.646,1.632-2.451,2.465-.089.092-.058.3-.082.455l0,0-.207.2c-.416.444-.727,1-1.373,1.191a.7.7,0,0,1-.867-.257.792.792,0,0,1,.085-1.169c1.386-1.38,2.762-2.77,4.155-4.142.673-.663,1.387-1.285,2.064-1.944.576-.561,1.12-1.155,1.69-1.723.474-.472.973-.918,1.446-1.391.491-.491.956-1.01,1.449-1.5.545-.542,1.117-1.058,1.663-1.6.492-.488.955-1.006,1.448-1.493.7-.692,1.422-1.359,2.117-2.054.725-.725,1.421-1.479,2.145-2.2.544-.544,1.122-1.053,1.668-1.594.492-.489.951-1.012,1.443-1.5.69-.684,1.409-1.34,2.1-2.028.6-.595,1.133-1.25,1.751-1.818A2.556,2.556,0,0,1,154.443-219.446Z" transform="translate(-3.735 -22.267)" fill="#ea5d70"/>
      <path id="Trazado_641681" data-name="Trazado 641681" d="M264.665-238.841a1.688,1.688,0,0,1,.5.011,1.188,1.188,0,0,1,.624.34.605.605,0,0,1-.184.753q-.732.7-1.443,1.425c-.9.913-1.77,1.851-2.683,2.747-2.144,2.1-4.312,4.184-6.457,6.289-1.676,1.645-3.324,3.318-5,4.965-.684.673-1.4,1.315-2.1,1.967-.368.34-.805.333-1.423-.011.385-.314.792-.6,1.151-.946.844-.8,1.671-1.628,2.5-2.453.794-.794,1.572-1.606,2.369-2.4.841-.836,1.7-1.655,2.545-2.489.815-.806,1.619-1.624,2.43-2.433s1.645-1.63,2.464-2.448,1.624-1.62,2.43-2.437c.655-.666,1.321-1.323,1.936-2.025A2.819,2.819,0,0,0,264.665-238.841Z" transform="translate(-81.699 -9.782)" fill="#ea5d70"/>
      <path id="Trazado_641682" data-name="Trazado 641682" d="M280.967-248.15a2.135,2.135,0,0,0,0,1.7c-.586,0-1.173.03-1.759.007a.876.876,0,0,1-.778-.887.935.935,0,0,1,.854-.828C279.848-248.166,280.407-248.154,280.967-248.15Z" transform="translate(-102.401 -3.749)" fill="#ea5d70"/>
      <path id="Trazado_641683" data-name="Trazado 641683" d="M133.221-145.534l.207-.2Z" transform="translate(-8.26 -70.151)" fill="#eb707e"/>
    </g>
  </g>
</svg>
