<svg xmlns="http://www.w3.org/2000/svg" width="134" height="134" viewBox="0 0 134 134">
  <g id="Grupo_909105" data-name="Grupo 909105" transform="translate(-554.798 -11961.803)">
    <circle id="Elipse_7477" data-name="Elipse 7477" cx="67" cy="67" r="67" transform="translate(554.798 11961.803)" fill="#179587"/>
    <g id="Grupo_907062" data-name="Grupo 907062" transform="translate(820.475 12352.055)">
      <path id="Trazado_641497" data-name="Trazado 641497" d="M-194.946-349.509c2.157,0,4.3.048,6.449-.018a4.248,4.248,0,0,1,3.25,1.216,2.917,2.917,0,0,1,.66,1.124,7.711,7.711,0,0,1-.311,6.224c-.308.6-1.1.961-1.7,1.389a4.424,4.424,0,0,1-1.023.335l2.52,2.341c1.125-.576,2.231-1.126,3.322-1.705,1.445-.767,2.881-1.553,4.316-2.338.435-.238.844-.527,1.289-.743s.266-.5.192-.815a9.256,9.256,0,0,1-.583-3.8,12.239,12.239,0,0,1,1.389-4.409,11.479,11.479,0,0,1,2.488-2.956,10.077,10.077,0,0,1,4.34-1.994,10.359,10.359,0,0,1,6.706.859,11.522,11.522,0,0,1,3.027,2.394,9.787,9.787,0,0,1,2.5,5.53,9.492,9.492,0,0,1-1.041,5.9,10.027,10.027,0,0,1-3.882,4.1,11.311,11.311,0,0,1-4.5,1.382,9.067,9.067,0,0,1-5.262-.993,7.353,7.353,0,0,1-3.154-2.5,3.755,3.755,0,0,0-.7-.638l-8.991,4.89a12.012,12.012,0,0,1,1.837,5.179,54.652,54.652,0,0,1,.043,5.644h10.444a7.742,7.742,0,0,1,3.548-5.231,7.026,7.026,0,0,1,5.183-1.079c4.113.776,6.761,3.883,6.532,7.967-.23,4.1-2.8,6.75-6.884,7.289a7.677,7.677,0,0,1-8.369-6.326.924.924,0,0,0-.2-.043c-3.34,0-6.68,0-10.067,0a4.045,4.045,0,0,0-.051.46c0,3.667.005,7.335-.013,11a.756.756,0,0,0,.493.792c1.005.493,2,1,2.985,1.537,1.173.639,2.327,1.313,3.542,2a10.563,10.563,0,0,1,8.384-4.3,9.3,9.3,0,0,1,4.967,1.339,10.07,10.07,0,0,1,4.957,6.727,9.782,9.782,0,0,1-.857,6.9c-2.586,4.659-7.326,6.69-12.856,4.833a9.413,9.413,0,0,1-3.337-2.165,10.3,10.3,0,0,1-2.245-3.206,11.047,11.047,0,0,1-.918-3.924,21.757,21.757,0,0,1,.569-4.034l-5.673-3.088v.768c0,2.78-.047,5.56.017,8.339a9.264,9.264,0,0,1-1.307,4.948,8.965,8.965,0,0,1-2.71,2.822,10.319,10.319,0,0,1-6.1,1.594q-17.167.035-34.336.006a9.678,9.678,0,0,1-4.611-1.093,8.767,8.767,0,0,1-2.94-2.579A10.231,10.231,0,0,1-235.47-298q.053-14.61-.005-29.22a15.076,15.076,0,0,1,1.333-6.282,11.063,11.063,0,0,1,2.683-3.808c.651-.579,1.2-1.271,1.731-1.84a7.809,7.809,0,0,1-2.012-1.291,5.8,5.8,0,0,1-1.144-2.433,8.716,8.716,0,0,1-.016-2.93,4.227,4.227,0,0,1,1.407-2.783,4.243,4.243,0,0,1,3.012-.927c2.1.012,4.2,0,6.4,0a13.653,13.653,0,0,1,3.964-14.177,13.486,13.486,0,0,1,10.332-3.756C-200.687-367.1-192.491-360.391-194.946-349.509Zm4.319,16.682v-1.286h4.4c-.543-.632-.971-1.177-1.448-1.674-.6-.626-1.281-1.18-1.858-1.826-.892-1-1.727-2.028-3.3-1.673a4.554,4.554,0,0,1-.978.01q-15.722,0-31.444.01a1.742,1.742,0,0,0-.971.24,8.958,8.958,0,0,0-1.171,1.136q-1.619,1.7-3.219,3.417c-.074.079-.067.233-.113.413h32.439v2.507h-34.026a35.992,35.992,0,0,0-.588,4.547c-.053,9.879-.016,19.759-.044,29.638a8.139,8.139,0,0,0,.679,3,5.565,5.565,0,0,0,2.091,2.544,5.014,5.014,0,0,0,2.457,1.02v-38.207h22.983v15.4h15.41v22.818a5.48,5.48,0,0,0,4.091-2.777,7.906,7.906,0,0,0,1.035-3.809q.122-15.133.013-30.268a24.051,24.051,0,0,0-.673-3.949h-5.765Zm-7.063-16.7a11.309,11.309,0,0,0-4.225-13.234,11.208,11.208,0,0,0-14.156.712,11.274,11.274,0,0,0-3.33,12.511h5.93l-.287-1.212h2.343c.519.491.867,1.109,1.269,1.147,1.355.127,2.729.048,4.125.048,0-.342,0-.644,0-.944-.012-1.2-.341-1.522-1.559-1.531-.84-.005-1.687.053-2.52-.025a3.788,3.788,0,0,1-2.725-1.5c-1.452-1.894-.735-4.086-.915-6.208h3.938v-2.466h2.53v2.453a3.954,3.954,0,0,1,3.871,3.8h-2.268c-.563-.512-.92-1.12-1.333-1.16-1.333-.128-2.685-.048-4.063-.048v.742c0,1.477.272,1.715,1.758,1.759a21.4,21.4,0,0,1,3.02.269,3.12,3.12,0,0,1,2.631,2.521c.185.769.274,1.561.411,2.366Zm-10.927,7.728c6.747,0,13.495-.011,20.242.012.994,0,1.534-.346,1.554-1.562.01-.63,0-1.261,0-1.891,0-1.365-.373-1.743-1.725-1.743H-214.46q-7.144,0-14.288,0c-1.059,0-1.51.46-1.519,1.525-.005.631.007,1.261,0,1.891-.023,1.535.578,1.785,1.761,1.78C-221.879-341.815-215.248-341.8-208.618-341.8Zm42.249,3.783a7.645,7.645,0,0,0,7.74-7.529,7.7,7.7,0,0,0-7.579-7.77,7.707,7.707,0,0,0-7.74,7.609A7.652,7.652,0,0,0-166.369-338.018Zm-7.555,38.374a7.675,7.675,0,0,0,7.584,7.755,7.76,7.76,0,0,0,7.709-7.581,7.7,7.7,0,0,0-7.6-7.737A7.626,7.626,0,0,0-173.924-299.643Zm10.174-28.139a5.324,5.324,0,0,0-5.137,5.132,5.182,5.182,0,0,0,5.148,5.114,5.1,5.1,0,0,0,5.1-5.087A5.2,5.2,0,0,0-163.75-327.782Zm-33.345,19.175v-2.469h-2.48v2.463h-2.53v-2.456h-2.669v2.449h-2.53v-2.442h-2.457v5.1h17.85v-5.095h-2.654v2.451ZM-225.172-326.5v5.11h17.857v-5.1h-2.5v2.588h-2.536v-2.575h-2.675v2.563h-2.511v-2.575h-2.511v2.588h-2.675v-2.6Zm-.009,7.706v5.123h17.854v-5.1h-2.513v2.57h-2.53v-2.563h-2.644v2.581h-2.505v-2.6h-2.529v2.593h-2.67v-2.607Zm23.039,17.9v-2.465h-2.626v2.452H-207.3v-2.44h-2.454v4.949h17.837v-4.962h-2.616v2.452h-2.536v-2.44h-2.535v2.453Zm10.227,10.233v-4.972h-2.658v2.444h-2.481v-2.462h-2.529v2.455h-2.53v-2.449h-2.669v2.442h-2.53v-2.435h-2.446v4.976Zm-20.437-20.389h-2.682v2.443h-2.484v-2.459h-2.532v2.449h-2.673v-2.44h-2.454v5.095h12.825Zm-12.842,7.685v4.987h12.831v-4.978h-2.644v2.448h-2.531v-2.44h-2.53v2.432h-2.671v-2.449Zm2.5,7.723h-2.491v4.962h12.807v-4.957h-2.654v2.426h-2.533v-2.442h-2.483v2.457h-2.648Z" fill="#030201"/>
      <path id="Trazado_641498" data-name="Trazado 641498" d="M-188.828-308.155v1.235h5.765a24.047,24.047,0,0,1,.673,3.949q.085,15.133-.013,30.268a7.906,7.906,0,0,1-1.035,3.809,5.48,5.48,0,0,1-4.091,2.777v-22.818h-15.41v-15.4h-22.983v38.207a5.014,5.014,0,0,1-2.457-1.02,5.565,5.565,0,0,1-2.091-2.544,8.139,8.139,0,0,1-.679-3c.029-9.879-.009-19.759.044-29.638a35.992,35.992,0,0,1,.588-4.547h34.026v-1.274h2.476v1.219h2.71v-1.219Zm1.314,14.042v2.6h2.464v-2.6Zm2.47-10.227h-2.466v2.455h2.466Zm-.018,7.658v-2.464h-2.44v2.464Z" transform="translate(-1.8 -24.672)" fill="#e5e8ec"/>
      <path id="Trazado_641499" data-name="Trazado 641499" d="M-186.715-347.734h-5.555c-.137-.8-.226-1.6-.411-2.366a3.12,3.12,0,0,0-2.631-2.521,21.4,21.4,0,0,0-3.02-.269c-1.487-.044-1.758-.281-1.758-1.759v-.742c1.379,0,2.731-.081,4.063.048.412.04.77.648,1.333,1.16h2.268a3.953,3.953,0,0,0-3.871-3.8v-2.453h-2.53v2.466h-3.938c.18,2.122-.538,4.314.915,6.208a3.788,3.788,0,0,0,2.725,1.5c.833.078,1.68.019,2.52.025,1.218.008,1.547.332,1.559,1.531,0,.3,0,.6,0,.944-1.4,0-2.77.079-4.125-.048-.4-.038-.75-.656-1.269-1.147h-2.343l.287,1.212h-5.93a11.274,11.274,0,0,1,3.33-12.511,11.208,11.208,0,0,1,14.156-.712A11.309,11.309,0,0,1-186.715-347.734Z" transform="translate(-10.977 -1.794)" fill="#fbd670"/>
      <path id="Trazado_641500" data-name="Trazado 641500" d="M-204.91-327.215c-6.63,0-13.261-.015-19.891.013-1.183,0-1.784-.245-1.761-1.78.009-.63,0-1.26,0-1.891.009-1.065.46-1.524,1.519-1.525q7.144-.005,14.288,0h25.914c1.352,0,1.723.377,1.725,1.743,0,.63.009,1.261,0,1.891-.02,1.216-.56,1.565-1.554,1.562C-191.415-327.226-198.163-327.215-204.91-327.215Z" transform="translate(-3.708 -14.586)" fill="#b3dc7e"/>
      <path id="Trazado_641501" data-name="Trazado 641501" d="M-192.433-312.808h-2.476v-1.233h-32.439c.046-.18.039-.335.113-.413q1.6-1.718,3.219-3.417a8.962,8.962,0,0,1,1.171-1.136,1.743,1.743,0,0,1,.971-.24q15.722-.018,31.444-.01a4.554,4.554,0,0,0,.978-.01c1.576-.355,2.412.674,3.3,1.673.577.647,1.257,1.2,1.858,1.826.477.5.9,1.042,1.448,1.674h-4.4v1.287h-2.476v-1.223h-2.71Z" transform="translate(-3.381 -20.02)" fill="#cbd0d8"/>
      <path id="Trazado_641502" data-name="Trazado 641502" d="M-122.539-327.942a7.652,7.652,0,0,1-7.579-7.69,7.707,7.707,0,0,1,7.74-7.609,7.7,7.7,0,0,1,7.579,7.77A7.645,7.645,0,0,1-122.539-327.942Zm.111-12.751a5.176,5.176,0,0,0-5.163,5.1,5.319,5.319,0,0,0,5.092,5.153,5.316,5.316,0,0,0,5.172-5.089A5.166,5.166,0,0,0-122.428-340.693Z" transform="translate(-43.83 -10.076)" fill="#fac328"/>
      <path id="Trazado_641503" data-name="Trazado 641503" d="M-130.08-256.719a7.626,7.626,0,0,1,7.689-7.562,7.7,7.7,0,0,1,7.6,7.737,7.76,7.76,0,0,1-7.709,7.581A7.675,7.675,0,0,1-130.08-256.719Zm2.523.063a5.235,5.235,0,0,0,5.1,5.162,5.313,5.313,0,0,0,5.146-5.139,5.28,5.28,0,0,0-5.088-5.126A5.2,5.2,0,0,0-127.557-256.657Z" transform="translate(-43.844 -42.924)" fill="#fac328"/>
      <path id="Trazado_641504" data-name="Trazado 641504" d="M-116.315-299.516a5.2,5.2,0,0,1,5.116,5.16,5.1,5.1,0,0,1-5.1,5.087,5.182,5.182,0,0,1-5.148-5.114A5.324,5.324,0,0,1-116.315-299.516Z" transform="translate(-47.435 -28.266)" fill="#fbd670"/>
      <path id="Trazado_641505" data-name="Trazado 641505" d="M-178.777-268.441h2.529v-2.451h2.654v5.095h-17.85v-5.1h2.457v2.442h2.53V-270.9h2.669v2.456h2.53v-2.463h2.48Z" transform="translate(-18.318 -40.166)" fill="#fee9a6"/>
      <path id="Trazado_641506" data-name="Trazado 641506" d="M-217.832-297.321h2.447v2.6h2.675v-2.588h2.511v2.575h2.511V-297.3h2.675v2.575h2.536v-2.588h2.5v5.1h-17.857Z" transform="translate(-7.34 -29.179)" fill="#fbd670"/>
      <path id="Trazado_641507" data-name="Trazado 641507" d="M-217.847-284.125h2.463v2.607h2.67v-2.593h2.529v2.6h2.505v-2.581h2.644v2.563h2.53v-2.57h2.513v5.1h-17.854Z" transform="translate(-7.334 -34.669)" fill="#fee9a6"/>
      <path id="Trazado_641508" data-name="Trazado 641508" d="M-183.821-255.238h2.535v-2.453h2.535v2.44h2.536V-257.7h2.616v4.962h-17.837v-4.949h2.454v2.44h2.536V-257.7h2.626Z" transform="translate(-18.321 -45.661)" fill="#fbd670"/>
      <path id="Trazado_641509" data-name="Trazado 641509" d="M-173.594-239.513h-17.843v-4.976h2.446v2.435h2.53V-244.5h2.669v2.449h2.53V-244.5h2.529v2.461h2.481v-2.444h2.658Z" transform="translate(-18.32 -51.152)" fill="#fee9a6"/>
      <path id="Trazado_641510" data-name="Trazado 641510" d="M-205.015-270.884v5.089H-217.84v-5.095h2.454v2.44h2.673V-270.9h2.532v2.459h2.484v-2.443Z" transform="translate(-7.336 -40.171)" fill="#fbd670"/>
      <path id="Trazado_641511" data-name="Trazado 641511" d="M-217.869-257.713h2.455v2.449h2.671V-257.7h2.53v2.44h2.531V-257.7h2.644v4.978h-12.831Z" transform="translate(-7.324 -45.657)" fill="#fee9a6"/>
      <path id="Trazado_641512" data-name="Trazado 641512" d="M-215.355-244.5v2.447h2.648v-2.457h2.483v2.442h2.533v-2.426h2.654v4.957h-12.807V-244.5Z" transform="translate(-7.334 -51.151)" fill="#fbd670"/>
      <path id="Trazado_641513" data-name="Trazado 641513" d="M-167.56-309.026v-1.223h2.71v2.442h-2.71Z" transform="translate(-28.254 -23.801)"/>
      <path id="Trazado_641514" data-name="Trazado 641514" d="M-156.43-284.11h2.464v2.6h-2.464Z" transform="translate(-32.884 -34.675)"/>
      <path id="Trazado_641515" data-name="Trazado 641515" d="M-153.956-301.622v2.455h-2.466v-2.455Z" transform="translate(-32.887 -27.39)"/>
      <path id="Trazado_641516" data-name="Trazado 641516" d="M-153.969-290.265h-2.44v-2.464h2.44Z" transform="translate(-32.893 -31.089)"/>
      <path id="Trazado_641517" data-name="Trazado 641517" d="M-120.628-338.882a5.166,5.166,0,0,1,5.1,5.161,5.316,5.316,0,0,1-5.172,5.089,5.319,5.319,0,0,1-5.092-5.153A5.176,5.176,0,0,1-120.628-338.882Zm2.563,5.1a2.859,2.859,0,0,0-2.606-2.612,2.97,2.97,0,0,0-2.61,2.627,3.011,3.011,0,0,0,2.63,2.616C-119.5-331.166-117.952-332.612-118.065-333.779Z" transform="translate(-45.63 -11.887)" fill="#030201"/>
      <path id="Trazado_641518" data-name="Trazado 641518" d="M-125.758-254.86a5.2,5.2,0,0,1,5.157-5.1,5.28,5.28,0,0,1,5.088,5.126,5.313,5.313,0,0,1-5.146,5.139A5.235,5.235,0,0,1-125.758-254.86Zm2.522,0a2.605,2.605,0,0,0,2.6,2.6,2.737,2.737,0,0,0,2.593-2.536,2.935,2.935,0,0,0-2.577-2.645C-121.837-257.453-123.374-256.1-123.236-254.863Z" transform="translate(-45.643 -44.721)" fill="#030201"/>
      <path id="Trazado_641519" data-name="Trazado 641519" d="M-116.277-332c.114,1.167-1.432,2.613-2.585,2.631a3.011,3.011,0,0,1-2.63-2.616,2.97,2.97,0,0,1,2.61-2.627A2.859,2.859,0,0,1-116.277-332Z" transform="translate(-47.418 -13.665)" fill="#f6d26d"/>
      <path id="Trazado_641520" data-name="Trazado 641520" d="M-121.444-253.071c-.137-1.233,1.4-2.591,2.619-2.584a2.935,2.935,0,0,1,2.577,2.645,2.737,2.737,0,0,1-2.593,2.536A2.605,2.605,0,0,1-121.444-253.071Z" transform="translate(-47.435 -46.513)" fill="#f6d26d"/>
    </g>
  </g>
</svg>
