<svg xmlns="http://www.w3.org/2000/svg" width="137" height="138" viewBox="0 0 137 138">
  <g id="Grupo_909111" data-name="Grupo 909111" transform="translate(-1232 -12527.702)">
    <circle id="Elipse_7487" data-name="Elipse 7487" cx="62.5" cy="62.5" r="62.5" transform="translate(1238 12533.702)" fill="#fff"/>
    <g id="Elipse_7492" data-name="Elipse 7492" transform="translate(1242 12537.702)" fill="none" stroke="#f1b62b" stroke-linejoin="round" stroke-width="10">
      <ellipse cx="58.5" cy="59" rx="58.5" ry="59" stroke="none"/>
      <ellipse cx="58.5" cy="59" rx="63.5" ry="64" fill="none"/>
    </g>
    <g id="Grupo_907070" data-name="Grupo 907070" transform="translate(795.213 12867.859)">
      <path id="Trazado_641684" data-name="Trazado 641684" d="M516.4-277.118c.491.541.468.493,1.033-.1a10.6,10.6,0,0,1,3.111-2.656,7.884,7.884,0,0,1,1.887-.5,5.332,5.332,0,0,1,3.674.746,5.655,5.655,0,0,1,2.436,2.832,6.062,6.062,0,0,1,.394,3.3,5.739,5.739,0,0,1-1.586,3.139q-.99,1.005-1.994,2c-.626.616-1.269,1.214-1.89,1.834s-1.191,1.238-1.794,1.85q-.945.961-1.907,1.9a15.485,15.485,0,0,0-1.537,1.523,1.624,1.624,0,0,1-2.636.147c-1.351-1.5-2.834-2.881-4.264-4.309-1.269-1.268-2.55-2.525-3.813-3.8-.61-.616-1.193-1.258-1.779-1.9a4.784,4.784,0,0,1-.369-.552c-.682.118-1.416.277-2.159.367a15.231,15.231,0,0,1-2.367.16,3.34,3.34,0,0,1-1.249-.449,2.829,2.829,0,0,0-1.511-.082,19.515,19.515,0,0,1-2.14.06,3.76,3.76,0,0,1-2.634-1.469c-.2-.223-.325-.505-.527-.72a.864.864,0,0,0-.487-.246,25.86,25.86,0,0,1-2.906-.339,13.01,13.01,0,0,1-4.374-1.783c-.842-.577-1.715-1.118-2.5-1.765a13.822,13.822,0,0,1-1.572-1.671c-.718-.827-1.388-1.7-2.125-2.5a2.615,2.615,0,0,0-.908-.52c-1.364-.592-2.744-1.148-4.1-1.754-1.073-.479-2.116-1.022-3.182-1.515-.687-.318-1.4-.586-2.088-.9a1.17,1.17,0,0,1-.77-.957,5.482,5.482,0,0,1-.02-.562q0-9.586-.008-19.173a1.418,1.418,0,0,1,.875-1.538c.611-.264,1.053.083,1.51.283,1.072.47,2.111,1.017,3.155,1.549,1.3.663,2.592,1.351,3.9,2.012.659.334,1.341.625,2.006.947.756.366,1.508.741,2.259,1.119q.956.48,1.905.975c.772.4,1.532.831,2.313,1.218a1.661,1.661,0,0,0,.729.143c2.948-.026,5.9-.052,8.844-.1,2.892-.051,5.783-.127,8.674-.2a14.416,14.416,0,0,1,2.224-.108,8.756,8.756,0,0,1,3.772,1.118,11.616,11.616,0,0,1,2.386,2.229c1.24,1.405,2.523,2.774,3.724,4.21a8.759,8.759,0,0,1,2.011,3.662,9.825,9.825,0,0,1-.107,4.076c-.058.326-.175.641-.244.966a2.485,2.485,0,0,0,.116,1.635,5.24,5.24,0,0,1,.031,3.924A13.249,13.249,0,0,1,516.4-277.118Zm-9.471-21.275a1.384,1.384,0,0,0-.463-.191c-1.361,0-2.722.009-4.084.031a1.144,1.144,0,0,0-.378.159q-6.516.07-13.032.142a4.61,4.61,0,0,0-.761.038,6.2,6.2,0,0,1-4.135-.53c-.936-.5-1.867-1-2.813-1.476-1.323-.663-2.665-1.287-3.987-1.952-1.861-.936-3.71-1.9-5.567-2.841-.413-.21-.839-.4-1.3-.613v4.24q0,6.031.009,12.063a.829.829,0,0,0,.221.606,6.477,6.477,0,0,0,1.123.546c1.15.495,2.307.97,3.453,1.474q2.145.942,4.274,1.921a2.993,2.993,0,0,1,.99.583c.889.981,1.705,2.027,2.584,3.018a12.641,12.641,0,0,0,1.869,1.875,24.379,24.379,0,0,0,2.633,1.493,9.9,9.9,0,0,0,3.709,1.057,9.373,9.373,0,0,0,4.314-.405,31.693,31.693,0,0,0,4.52-2.143,3.038,3.038,0,0,1,2.033-.476c.718.109,1.447.139,2.167.229,1.531.19,3.06.4,4.589.6,1.013.134,2.025.272,3.037.408a6.353,6.353,0,0,0,.9.107,1.776,1.776,0,0,0,.539-.193,2.683,2.683,0,0,0,1.579-1.035,2.88,2.88,0,0,0,.35-2.61,2.183,2.183,0,0,0-1.57-1.594c-.71-.178-1.422-.346-2.134-.516-1.006-.24-2.009-.491-3.019-.713-1.049-.231-2.106-.422-3.155-.65-1-.216-1.99-.441-2.978-.694-.864-.221-1.825-.1-2.564-.781a1.274,1.274,0,0,1-.137-1.679,1.821,1.821,0,0,1,2.018-.391,19.5,19.5,0,0,0,2.086.493c-.3-.825-.554-1.521-.8-2.218a1.412,1.412,0,0,1,.306-1.356,1.4,1.4,0,0,1,1.649-.121c.464.256.494.7.659,1.105.441,1.073.891,2.14,1.361,3.265l1.853.373a14.18,14.18,0,0,1,.36-1.451,1.227,1.227,0,0,1,1.687-.761,1.233,1.233,0,0,1,.741,1.627c-.072.237-.088.491-.15.732-.082.32.087.476.355.539,1.127.264,2.257.514,3.371.767a10.668,10.668,0,0,0,.333-1.324,4.857,4.857,0,0,0-1.274-3.938c-.915-1.052-1.852-2.084-2.779-3.126-.717-.806-1.448-1.6-2.148-2.421A3.669,3.669,0,0,0,506.933-298.393Zm19.424,23.835a2.976,2.976,0,0,0-.618-1.959,3.424,3.424,0,0,0-3.11-1.235,3.867,3.867,0,0,0-2.36,1.445c-.742.845-1.59,1.6-2.389,2.389a1.2,1.2,0,0,1-1.693.18c-.614-.464-1.141-1.041-1.718-1.555-.269-.239-.581-.652-.851-.634a32.609,32.609,0,0,1-5.293-.448.73.73,0,0,0-.6.222,3.443,3.443,0,0,0,.688,4.158c.61.6,1.251,1.162,1.854,1.765.684.683,1.33,1.4,2.013,2.087.579.58,1.2,1.116,1.774,1.7.8.816,1.566,1.661,2.35,2.491.286.3.655.234.953-.1q.733-.827,1.523-1.6c.631-.62,1.3-1.206,1.932-1.822.713-.692,1.413-1.4,2.112-2.1.305-.308.592-.634.891-.948.342-.359.664-.743,1.037-1.067A3.59,3.59,0,0,0,526.357-274.557Zm-21.42-2.209c-.215-.024-.43-.06-.646-.072-1.156-.064-2.307-.6-3.468.1a1.948,1.948,0,0,0-.92,1.632,1.547,1.547,0,0,0,1.862,1.361c.966-.094,1.923-.271,2.831-.4Zm-9.186,2.321c.511.488,1.083.295,1.627.294.037-.736-.069-.861-.57-.69C496.472-274.728,496.144-274.594,495.751-274.446Z" transform="translate(0)" fill="#020202"/>
      <path id="Trazado_641685" data-name="Trazado 641685" d="M541.24-194.731c.475-.378.935-.778,1.429-1.128a15.392,15.392,0,0,1,1.618-1.021,15.66,15.66,0,0,1,1.814-.821,13.3,13.3,0,0,1,6.664-.709,13.419,13.419,0,0,1,3.2.838,14.494,14.494,0,0,1,2.906,1.5c.567.4,1.074.88,1.63,1.294a1.108,1.108,0,0,0,.613.209c1.84.016,3.682.026,5.522,0a1.271,1.271,0,0,1,1.406,1.429q-.039,9.05,0,18.1c.005,1.052-.5,1.546-1.589,1.565-1.755.031-3.512.051-5.266-.008a9.861,9.861,0,0,0-2.938.553c-.819.222-1.652.39-2.476.593-.8.2-1.593.388-2.382.611-1.022.289-2.032.62-3.054.907-.563.158-1.146.244-1.711.4-.836.225-1.661.493-2.5.716-.771.206-1.555.366-2.329.564-.994.255-1.983.53-2.975.793a14.1,14.1,0,0,1-5.226.5,9.316,9.316,0,0,1-3.17-.871c-.846-.424-1.717-.8-2.552-1.242-.6-.318-1.158-.711-1.732-1.075q-1.273-.806-2.542-1.618c-.442-.283-.878-.576-1.322-.856-.834-.528-1.675-1.045-2.506-1.578-.509-.326-1-.676-1.509-1.007q-1.243-.813-2.494-1.616c-1.243-.8-2.482-1.605-3.736-2.387-1.391-.867-2.809-1.69-4.194-2.567-1.066-.675-2.131-1.361-3.136-2.122a5.423,5.423,0,0,1-1.833-5.412,5.818,5.818,0,0,1,1.978-3.049,4.041,4.041,0,0,1,2.359-.986l1.649-.007c.884.257,1.77.507,2.651.773.6.181,1.191.378,1.782.579.757.257,1.507.531,2.264.784.608.2,1.225.381,1.833.585,1.024.343,2.042.7,3.065,1.047.231.078.471.13.781.214.682-2.4,2.082-4.083,4.792-4.291.34.005.681.015,1.021.015q5.855,0,11.71-.008A1.5,1.5,0,0,0,541.24-194.731ZM527.613-184.2a4.978,4.978,0,0,1-3.886-2.973.45.45,0,0,0-.225-.223c-.774-.277-1.549-.553-2.333-.8-1.042-.331-2.1-.619-3.138-.96-1.139-.374-2.265-.786-3.4-1.182-.547-.187-1.087-.393-1.641-.557a25.775,25.775,0,0,0-2.778-.758,2.586,2.586,0,0,0-2.643,1.716,2.554,2.554,0,0,0,.435,2.725,5.118,5.118,0,0,0,1.075.871c.761.521,1.538,1.017,2.313,1.517.45.291.906.574,1.361.856.605.376,1.217.742,1.819,1.123.7.444,1.393.907,2.1,1.347.8.5,1.615.969,2.409,1.473.613.389,1.2.828,1.809,1.215.664.418,1.364.781,2.023,1.208.823.533,1.611,1.12,2.43,1.66,1.1.727,2.181,1.506,3.343,2.127a43.78,43.78,0,0,0,4.674,2.667,8.914,8.914,0,0,0,2.536.625,13.111,13.111,0,0,0,2.831-.1,33.225,33.225,0,0,0,3.325-.719c.786-.2,1.55-.48,2.332-.7.85-.236,1.709-.434,2.561-.659s1.671-.464,2.511-.679c.893-.228,1.8-.417,2.686-.652,1.19-.314,2.368-.67,3.558-.983.871-.229,1.771-.364,2.625-.642a7.9,7.9,0,0,1,2.745-.48c1.021.035,2.045.008,3.068.008h1.2V-192h-.527q-2.225,0-4.45,0a1.64,1.64,0,0,1-1.255-.476,10.694,10.694,0,0,0-2.026-1.631,11.741,11.741,0,0,0-3.741-1.5,11.6,11.6,0,0,0-6.31.378,10.784,10.784,0,0,0-4.157,2.614,2,2,0,0,1-1.558.631c-3.528-.033-7.057-.017-10.586-.014-.92,0-1.84.016-2.761.027-.1,0-.23-.022-.3.029a4.457,4.457,0,0,0-1.479,1.288,2.561,2.561,0,0,0-.142,2.334,2.82,2.82,0,0,0,2.759,1.635q6.188.013,12.376,0c.222,0,.444,0,.664.013a1.149,1.149,0,0,1,1.109,1.1,1.182,1.182,0,0,1-.9,1.377l-12.3,0C529.041-184.2,528.327-184.2,527.613-184.2Z" transform="translate(-21.211 -63.446)" fill="#020202"/>
      <path id="Trazado_641686" data-name="Trazado 641686" d="M572.65-189.589a1.5,1.5,0,0,1-.483.186q-5.856.016-11.71.008c-.34,0-.68-.01-1.021-.015a1.432,1.432,0,0,1,.466-.178Q566.276-189.6,572.65-189.589Z" transform="translate(-52.621 -68.589)" fill="#ababab"/>
      <path id="Trazado_641687" data-name="Trazado 641687" d="M516.927-188.727l-1.649.007A1.671,1.671,0,0,1,516.927-188.727Z" transform="translate(-27.279 -68.962)" fill="#a0a0a0"/>
      <path id="Trazado_641688" data-name="Trazado 641688" d="M515.529-273.845c-1.012-.136-2.025-.274-3.037-.408-1.529-.2-3.058-.407-4.589-.6-.721-.09-1.45-.12-2.167-.229a3.038,3.038,0,0,0-2.033.476,31.693,31.693,0,0,1-4.52,2.143,9.374,9.374,0,0,1-4.314.405,9.9,9.9,0,0,1-3.709-1.057,24.379,24.379,0,0,1-2.633-1.493,12.64,12.64,0,0,1-1.869-1.875c-.879-.991-1.7-2.037-2.584-3.018a2.993,2.993,0,0,0-.99-.583q-2.13-.977-4.274-1.921c-1.146-.5-2.3-.979-3.453-1.474a6.475,6.475,0,0,1-1.123-.546.829.829,0,0,1-.221-.606q-.018-6.031-.009-12.063v-4.24c.462.217.888.4,1.3.613,1.857.944,3.706,1.9,5.567,2.841,1.322.665,2.664,1.289,3.987,1.952.946.474,1.877.98,2.813,1.476a6.2,6.2,0,0,0,4.135.53,4.6,4.6,0,0,1,.761-.038q6.516-.073,13.032-.142h4.925a3.669,3.669,0,0,1,2.443,1.292c.7.821,1.431,1.615,2.148,2.421.927,1.041,1.864,2.074,2.779,3.126a4.858,4.858,0,0,1,1.274,3.938,10.668,10.668,0,0,1-.333,1.324c-1.114-.252-2.244-.5-3.371-.767-.268-.063-.438-.219-.355-.539.062-.241.078-.495.15-.732a1.233,1.233,0,0,0-.741-1.627,1.227,1.227,0,0,0-1.687.761,14.171,14.171,0,0,0-.36,1.451l-1.853-.373c-.47-1.125-.92-2.193-1.361-3.265-.165-.4-.2-.849-.659-1.105a1.4,1.4,0,0,0-1.649.121,1.412,1.412,0,0,0-.306,1.356c.251.7.5,1.393.8,2.218a19.508,19.508,0,0,1-2.086-.493,1.821,1.821,0,0,0-2.018.391,1.274,1.274,0,0,0,.137,1.679c.739.684,1.7.559,2.564.781.987.253,1.982.477,2.978.694,1.049.228,2.106.419,3.155.65,1.01.222,2.013.473,3.019.713.712.17,1.424.338,2.134.516a2.183,2.183,0,0,1,1.57,1.594,2.88,2.88,0,0,1-.35,2.61,2.683,2.683,0,0,1-1.579,1.035Z" transform="translate(-3.592 -4.694)" fill="#f3d2bc"/>
      <path id="Trazado_641689" data-name="Trazado 641689" d="M579.653-232.374a3.59,3.59,0,0,1-1.5,2.959c-.373.324-.7.707-1.037,1.067-.3.314-.586.64-.891.948-.7.707-1.4,1.413-2.112,2.1-.635.616-1.3,1.2-1.932,1.822q-.788.775-1.523,1.6c-.3.337-.668.406-.953.1-.784-.83-1.552-1.675-2.35-2.491-.573-.585-1.2-1.122-1.774-1.7-.682-.684-1.329-1.4-2.013-2.087-.6-.6-1.244-1.168-1.854-1.765a3.443,3.443,0,0,1-.688-4.158.73.73,0,0,1,.6-.222,32.61,32.61,0,0,0,5.293.448c.27-.017.582.4.851.635.577.513,1.1,1.09,1.718,1.554a1.2,1.2,0,0,0,1.693-.18c.8-.794,1.647-1.545,2.389-2.389a3.867,3.867,0,0,1,2.36-1.445,3.424,3.424,0,0,1,3.11,1.235A2.976,2.976,0,0,1,579.653-232.374Z" transform="translate(-53.296 -42.183)" fill="#ee6364"/>
      <path id="Trazado_641690" data-name="Trazado 641690" d="M548.224-233.649l-.341,2.613c-.908.133-1.866.311-2.831.4a1.547,1.547,0,0,1-1.862-1.361,1.949,1.949,0,0,1,.92-1.632c1.161-.693,2.312-.161,3.468-.1C547.794-233.709,548.009-233.673,548.224-233.649Z" transform="translate(-43.288 -43.118)" fill="#e5c6b1"/>
      <path id="Trazado_641691" data-name="Trazado 641691" d="M533.47-228.387c.393-.148.722-.282,1.057-.4.5-.171.607-.045.57.69C534.553-228.092,533.981-227.9,533.47-228.387Z" transform="translate(-37.719 -46.059)" fill="#e5c6b1"/>
      <path id="Trazado_641692" data-name="Trazado 641692" d="M553.079-284.218h-4.925a1.144,1.144,0,0,1,.378-.159c1.361-.022,2.722-.035,4.083-.031A1.386,1.386,0,0,1,553.079-284.218Z" transform="translate(-46.146 -14.175)" fill="#66584f"/>
      <path id="Trazado_641693" data-name="Trazado 641693" d="M571.456-237.484l1.442-.086a1.777,1.777,0,0,1-.539.193A6.353,6.353,0,0,1,571.456-237.484Z" transform="translate(-59.519 -41.055)" fill="#66584f"/>
      <path id="Trazado_641694" data-name="Trazado 641694" d="M545.635-180.589a1.182,1.182,0,0,0,.9-1.377,1.149,1.149,0,0,0-1.109-1.1c-.221-.014-.443-.013-.664-.013q-6.188,0-12.376,0a2.82,2.82,0,0,1-2.759-1.635,2.561,2.561,0,0,1,.142-2.334,4.456,4.456,0,0,1,1.479-1.288c.069-.051.2-.028.3-.029.92-.011,1.84-.026,2.761-.027,3.529,0,7.057-.018,10.586.014a2,2,0,0,0,1.558-.631,10.784,10.784,0,0,1,4.157-2.614,11.6,11.6,0,0,1,6.31-.378,11.74,11.74,0,0,1,3.741,1.5,10.7,10.7,0,0,1,2.026,1.631,1.64,1.64,0,0,0,1.255.476q2.225,0,4.45,0h.527v15.878h-1.2c-1.023,0-2.047.027-3.068-.008a7.9,7.9,0,0,0-2.745.48c-.854.278-1.753.412-2.625.642-1.19.313-2.368.669-3.558.983-.891.235-1.793.425-2.686.652-.84.214-1.673.458-2.511.679s-1.712.423-2.561.659c-.781.217-1.545.5-2.332.7a33.226,33.226,0,0,1-3.325.719,13.111,13.111,0,0,1-2.831.1,8.914,8.914,0,0,1-2.536-.625,43.779,43.779,0,0,1-4.674-2.668c-1.162-.621-2.24-1.4-3.343-2.127-.819-.54-1.607-1.127-2.43-1.66-.658-.427-1.358-.79-2.023-1.208-.614-.387-1.2-.826-1.809-1.215-.795-.5-1.611-.975-2.409-1.473-.705-.44-1.4-.9-2.1-1.347-.6-.381-1.214-.747-1.82-1.123-.456-.283-.911-.565-1.361-.856-.775-.5-1.552-1-2.313-1.517a5.116,5.116,0,0,1-1.075-.871,2.554,2.554,0,0,1-.435-2.725,2.586,2.586,0,0,1,2.643-1.716,25.776,25.776,0,0,1,2.778.758c.553.164,1.094.37,1.641.557.488.285.975.573,1.465.856,1.295.748,2.586,1.5,3.887,2.239,1.03.584,2.073,1.142,3.107,1.719a17.781,17.781,0,0,0,5.277,1.886c.248.049.51.021.758.07a9.944,9.944,0,0,0,1.731.366c3.268.036,6.537.02,9.805.014a.867.867,0,0,0,.872-.8Z" transform="translate(-24.791 -67.057)" fill="#f3d2bc"/>
      <path id="Trazado_641695" data-name="Trazado 641695" d="M554.912-172.916a.867.867,0,0,1-.872.8c-3.268.006-6.537.022-9.805-.014a9.943,9.943,0,0,1-1.731-.366c-.248-.049-.51-.021-.758-.07a17.781,17.781,0,0,1-5.277-1.886c-1.034-.577-2.077-1.135-3.107-1.719-1.3-.737-2.592-1.491-3.887-2.239-.49-.283-.977-.57-1.465-.856,1.132.4,2.258.808,3.4,1.182,1.039.34,2.1.629,3.138.96.784.249,1.559.525,2.333.8a.45.45,0,0,1,.225.223,4.978,4.978,0,0,0,3.886,2.973,3.184,3.184,0,0,0,.738.185c2.1.016,4.191.008,6.286.012Q551.462-172.929,554.912-172.916Z" transform="translate(-34.585 -74.512)" fill="#e5c6b1"/>
      <path id="Trazado_641696" data-name="Trazado 641696" d="M572.391-164.656q-3.449-.009-6.9-.018c-2.1,0-4.191,0-6.286-.012a3.184,3.184,0,0,1-.738-.185c.714,0,1.428-.007,2.142-.007l12.3,0Z" transform="translate(-52.065 -82.772)" fill="#50453e"/>
    </g>
  </g>
</svg>
